<svg xmlns="http://www.w3.org/2000/svg" width="493.093" height="357.76" viewBox="0 0 493.093 357.76">
  <g id="Grupo_158097" data-name="Grupo 158097" transform="translate(10466 7085.809)">
    <g id="Grupo_157971" data-name="Grupo 157971" transform="translate(-11344.131 -10123.955)">
      <g id="Grupo_157971-2" data-name="Grupo 157971">
        <g id="Grupo_157351" data-name="Grupo 157351" transform="translate(6916.875 11027)">
          <g id="Grupo_157343" data-name="Grupo 157343" transform="translate(-5830.387 -7897.48)">
            <g id="Grupo_157355" data-name="Grupo 157355" transform="translate(7.287 23.331)">
              <path id="Trazado_210592" data-name="Trazado 210592" d="M307.465,235.531a25.7,25.7,0,0,1,.941-3.7,30.8,30.8,0,0,1,11.188-14.962,31.56,31.56,0,0,1,18.576-5.947c6.357.033,12.862,1.928,17.575,6.34a21.671,21.671,0,0,1,4.973,7.028,22.568,22.568,0,0,1,1.511,4.665,23.676,23.676,0,0,1,.4,5.357,38.584,38.584,0,0,0-.1,4.825,9.823,9.823,0,0,0,1.587,4.133c.453.715.957,1.4,1.467,2.072a10.716,10.716,0,0,1,1.284,1.934,3.991,3.991,0,0,1,.355,2.529,4.044,4.044,0,0,1-1.19,2,5.361,5.361,0,0,1-.893.7,3.874,3.874,0,0,1-.474.244c-.131.058-.264.112-.4.167-.035.017-.071.035-.107.049l-.015.007c-.014.031-.024.056-.006.015-.036.084-.02.094-.014.249,0,.021.006.069.007.078.009.053.021.106.032.159a9.45,9.45,0,0,1,.314,1.976,5.464,5.464,0,0,1-1.2,3.108,5.783,5.783,0,0,1-.867,3.33,3.389,3.389,0,0,0-.488,1.5,7.465,7.465,0,0,1-.052,2.023,4.347,4.347,0,0,1-2.219,2.717,9.164,9.164,0,0,1-3.7.843,37.268,37.268,0,0,1-3.91-.119c-.306-.012-.613-.016-.92,0-.136.005-.271.02-.407.027-.061.016-.141.022-.193.034-.079.017-.156.043-.235.059-.014,0-.09.023-.115.028s-.074.038-.109.056c-.106.056-.2.129-.306.186l-.016.008-.064.052a5.67,5.67,0,0,0-.526.521c-.073.08-.143.163-.214.245l-.019.022c-.058.079-.116.158-.172.239a13.637,13.637,0,0,0-.963,1.628c-.264.519-.51,1.048-.729,1.587a4.518,4.518,0,0,0-.277.744,8.01,8.01,0,0,0-.06.951,2.558,2.558,0,0,1-.534,1.791,1.711,1.711,0,0,1-1.187.5c-.093,0-.186,0-.279,0H319.243a6.09,6.09,0,0,1-1.079-.034,1.723,1.723,0,0,1-1.327-1.175,2.45,2.45,0,0,1,.013-.972l.128-1.007.509-4a12.846,12.846,0,0,0-.278-3.856,32.319,32.319,0,0,0-.988-3.838,24.432,24.432,0,0,0-1.4-3.535c-.239-.48-.5-.958-.78-1.411a14.031,14.031,0,0,0-.979-1.261,28.562,28.562,0,0,1-3.744-6.024A25.358,25.358,0,0,1,307.465,235.531Zm56.816,17.384-.01,0C364.343,252.89,364.314,252.9,364.282,252.915Zm-.153.081,0-.011C364.085,253.01,364.107,253.018,364.129,253ZM344.99,275.874a.045.045,0,0,0-.02,0l.015,0Zm-.005,0-.015,0s-.006.007,0,.015l-.019.019Zm-26.538,0c-.024.141.013.032,0,0Zm-8.726-29.073a24.977,24.977,0,0,0,2.865,6.127,27.344,27.344,0,0,0,1.933,2.666,10.851,10.851,0,0,1,1.052,1.4c.283.487.553.983.8,1.491a30.308,30.308,0,0,1,2.4,7.311,20.555,20.555,0,0,1,.417,3.927,15.568,15.568,0,0,1-.207,1.971l-.248,1.95-.248,1.95c-.01.082-.017.17-.032.252v0l.006,0a.159.159,0,0,0,.034.006h23.09c1.128,0,2.264.038,3.391,0H345l.014-.023c0-.019.008-.039.008-.043,0,.15,0-.051,0-.067.017-.325.042-.649.061-.973a5.15,5.15,0,0,1,.1-.951,6.632,6.632,0,0,1,.347-.9c.243-.585.5-1.163.786-1.728a10.426,10.426,0,0,1,2.01-2.89,3.936,3.936,0,0,1,2.557-1.08c1.289-.09,2.569.14,3.857.154a10.981,10.981,0,0,0,3.541-.435,2.923,2.923,0,0,0,1.943-1.793,5.394,5.394,0,0,0,.034-1.733,4.111,4.111,0,0,1,.458-1.815c.418-.9,1.206-2.052.826-3.058a.8.8,0,0,1,.214-.81,2.9,2.9,0,0,0,.833-1.239,2.986,2.986,0,0,0,.143-1.722,6.64,6.64,0,0,1-.271-1.8,1.889,1.889,0,0,1,.32-.92l.025-.058,0,0h0l.066-.085c-.018.023.044-.061.068-.087l.006-.007.009-.008,0,0,.059-.048a.626.626,0,0,1,.139-.1l0,0a.649.649,0,0,1,.112-.057l.028-.016a.612.612,0,0,1,.1-.057l.086-.039.034-.014a4.255,4.255,0,0,0,1.469-.948,2.072,2.072,0,0,0,.641-1.557,3.832,3.832,0,0,0-.82-1.846c-.44-.628-.927-1.224-1.375-1.847a14.258,14.258,0,0,1-2.206-4.171,13.487,13.487,0,0,1-.374-4.626,38.662,38.662,0,0,0,.043-5.01,19.3,19.3,0,0,0-1.02-4.726,20.541,20.541,0,0,0-4.016-6.924c-3.957-4.449-9.716-6.686-15.593-7.11a30.056,30.056,0,0,0-18.026,4.418,29.442,29.442,0,0,0-11.5,13.228c-.277.641-.52,1.3-.744,1.958A23.951,23.951,0,0,0,309.721,246.809Z" transform="translate(-307.075 -210.924)" fill="#75b62f"/>
            </g>
          </g>
          <g id="Grupo_157344" data-name="Grupo 157344" transform="translate(-6043.225 -7987.854)">
            <path id="Rectángulo_40621" data-name="Rectángulo 40621" d="M192.162,264.48H355.706c3.065,0,5.552,3.054,5.552,6.817v67.967c0,3.763-2.487,6.817-5.552,6.817H192.162c-3.065,0-5.552-3.054-5.552-6.817V271.3C186.61,267.534,189.1,264.48,192.162,264.48Z" transform="translate(-23.705 -44.467)" fill="#eaf086" stroke="#3e4bbf" stroke-width="2"/>
            <path id="Rectángulo_40621-2" data-name="Rectángulo 40621" d="M192.162,264.48H355.706c3.065,0,5.552,2.8,5.552,6.251v62.325c0,3.451-2.487,6.251-5.552,6.251H192.162c-3.065,0-5.552-2.8-5.552-6.251V270.731C186.61,267.281,189.1,264.48,192.162,264.48Z" transform="translate(-23.705 -264.48)" fill="#eaf086" stroke="#3e4bbf" stroke-width="2"/>
            <path id="Rectángulo_40621-3" data-name="Rectángulo 40621" d="M192.162,264.48H355.706c3.065,0,5.552,3.049,5.552,6.806v67.858c0,3.757-2.487,6.806-5.552,6.806H192.162c-3.065,0-5.552-3.049-5.552-6.806V271.286C186.61,267.529,189.1,264.48,192.162,264.48Z" transform="translate(135.316 -146.021)" fill="#eaf086" stroke="#3e4bbf" stroke-width="2"/>
            <path id="Rectángulo_40621-4" data-name="Rectángulo 40621" d="M192.162,264.48H355.706c3.065,0,5.552,3.049,5.552,6.806v67.857c0,3.757-2.487,6.806-5.552,6.806H192.162c-3.065,0-5.552-3.049-5.552-6.806V271.286C186.61,267.529,189.1,264.48,192.162,264.48Z" transform="translate(-181.13 -146.126)" fill="#eaf086" stroke="#3e4bbf" stroke-width="2"/>
            <g id="Grupo_157347" data-name="Grupo 157347" transform="translate(253.23 109.548) rotate(180)">
              <line id="Línea_576" data-name="Línea 576" y2="22.786" transform="translate(4.484)" fill="none" stroke="#3e4bbf" stroke-miterlimit="10" stroke-width="2"/>
              <path id="Trazado_158597" data-name="Trazado 158597" d="M0,0H8.968L4.484,5.339Z" transform="translate(0 22.786)" fill="#3d46c2"/>
            </g>
            <g id="Grupo_157348" data-name="Grupo 157348" transform="translate(244.262 185.292)">
              <line id="Línea_576-2" data-name="Línea 576" y2="22.786" transform="translate(4.484)" fill="none" stroke="#3e4bbf" stroke-miterlimit="10" stroke-width="2"/>
              <path id="Trazado_158597-2" data-name="Trazado 158597" d="M660.97,131.96h8.968l-4.484,5.339Z" transform="translate(-660.97 -109.174)" fill="#3d46c2"/>
            </g>
            <g id="Grupo_157349" data-name="Grupo 157349" transform="translate(284.32 154.008) rotate(-90)">
              <line id="Línea_576-3" data-name="Línea 576" y2="22.786" transform="translate(4.484)" fill="none" stroke="#3e4bbf" stroke-miterlimit="10" stroke-width="2"/>
              <path id="Trazado_158597-3" data-name="Trazado 158597" d="M0,0H8.968L4.484,5.339Z" transform="translate(0 22.786)" fill="#3d46c2"/>
            </g>
            <g id="Grupo_157350" data-name="Grupo 157350" transform="translate(212.253 145.039) rotate(90)">
              <line id="Línea_576-4" data-name="Línea 576" y2="22.786" transform="translate(4.484)" fill="none" stroke="#3e4bbf" stroke-miterlimit="10" stroke-width="2"/>
              <path id="Trazado_158597-4" data-name="Trazado 158597" d="M0,0H8.968L4.484,5.339Z" transform="translate(0 22.786)" fill="#3d46c2"/>
            </g>
            <path id="Rectángulo_40621-5" data-name="Rectángulo 40621" d="M192.162,264.48H355.706c3.065,0,5.552,1.512,5.552,3.376v33.655c0,1.863-2.487,3.376-5.552,3.376H192.162c-3.065,0-5.552-1.512-5.552-3.376V267.856C186.61,265.992,189.1,264.48,192.162,264.48Z" transform="translate(-112.761 50.874)" fill="#d2e1f1" stroke="#3e4bbf" stroke-width="2"/>
            <path id="Rectángulo_40621-6" data-name="Rectángulo 40621" d="M192.162,264.48H355.706c3.065,0,5.552,1.512,5.552,3.376v33.655c0,1.863-2.487,3.376-5.552,3.376H192.162c-3.065,0-5.552-1.512-5.552-3.376V267.856C186.61,265.992,189.1,264.48,192.162,264.48Z" transform="translate(71.239 50.874)" fill="#d2e1f1" stroke="#3e4bbf" stroke-width="2"/>
          </g>
        </g>
        <text id="_Qué_piensa_y_siente_Sus_preocupaciones_aspiraciones_e_inquietudes." data-name="¿Qué piensa y siente?
Sus preocupaciones, 
aspiraciones e inquietudes." transform="translate(1121.505 3063.042)" fill="#14263e" font-size="12" font-family="Roboto-Bold, Roboto" font-weight="700"><tspan x="-58.632" y="0">¿Qué piensa y siente?</tspan><tspan font-family="Roboto-Regular, Roboto" font-weight="400"><tspan x="-56.786" y="16">Sus preocupaciones, </tspan><tspan x="-72.729" y="32">aspiraciones e inquietudes.</tspan></tspan></text>
        <text id="_Qué_oye_Lo_que_dicen_las_personas_y_que_actúa_como_influencia_en_sus_decisiones." data-name="¿Qué oye?
Lo que dicen las personas 
y que actúa como influencia 
en sus decisiones." transform="translate(966.631 3179)" fill="#14263e" font-size="12" font-family="Roboto-Bold, Roboto" font-weight="700"><tspan x="-27.855" y="0">¿Qué oye?</tspan><tspan font-family="Roboto-Regular, Roboto" font-weight="400"><tspan x="-71.016" y="16">Lo que dicen las personas </tspan><tspan x="-76.172" y="32">y que actúa como influencia </tspan><tspan x="-49.248" y="48">en sus decisiones.</tspan></tspan></text>
        <text id="_Qué_ve_En_el_mercado_en_su_entorno_o_su_círculo_social." data-name="¿Qué ve?
En el mercado, 
en su entorno 
o su círculo social." transform="translate(1279.587 3175.185)" fill="#14263e" font-size="12" font-family="Roboto-Bold, Roboto" font-weight="700"><tspan x="-24.483" y="0">¿Qué ve?</tspan><tspan font-family="Roboto-Regular, Roboto" font-weight="400"><tspan x="-40.611" y="16">En el mercado, </tspan><tspan x="-37.922" y="32">en su entorno </tspan><tspan x="-49.614" y="48">o su círculo social.</tspan></tspan></text>
        <text id="_Qué_dice_y_hace_Su_comportamiento_públicamente_y_con_su_entorno." data-name="¿Qué dice y hace?
Su comportamiento 
públicamente y con 
su entorno." transform="translate(1119.97 3279.054)" fill="#14263e" font-size="12" font-family="Roboto-Bold, Roboto" font-weight="700"><tspan x="-48.498" y="0">¿Qué dice y hace?</tspan><tspan font-family="Roboto-Regular, Roboto" font-weight="400"><tspan x="-54.375" y="16">Su comportamiento </tspan><tspan x="-53.411" y="32">públicamente y con </tspan><tspan x="-30.041" y="48">su entorno.</tspan></tspan></text>
        <text id="Esfuerzos_Miedos" data-name="Esfuerzos
Miedos" transform="translate(1035 3371)" fill="#14263e" font-size="12" font-family="Roboto-Bold, Roboto" font-weight="700"><tspan x="-26.883" y="0">Esfuerzos</tspan><tspan font-family="Roboto-Regular, Roboto" font-weight="400"><tspan x="-19.772" y="16">Miedos</tspan></tspan></text>
        <text id="Resultados_Beneficios" data-name="Resultados
Beneficios" transform="translate(1219 3371)" fill="#14263e" font-size="12" font-family="Roboto-Bold, Roboto" font-weight="700"><tspan x="-30.208" y="0">Resultados</tspan><tspan font-family="Roboto-Regular, Roboto" font-weight="400"><tspan x="-27.838" y="16">Beneficios</tspan></tspan></text>
      </g>
      <g id="Grupo_157972" data-name="Grupo 157972" transform="translate(1099.012 3157.635)">
        <g id="Grupo_157352" data-name="Grupo 157352" transform="translate(0.613 0.161)">
          <path id="Trazado_210593" data-name="Trazado 210593" d="M741.854,359.173c0-.022,0-.044-.006-.065a4.372,4.372,0,0,1,3.536-4.643,4.258,4.258,0,0,1-.143-.809,4.371,4.371,0,0,1,4.009-4.706q.119-.009.24-.012a4.274,4.274,0,0,1,.441.013,6.9,6.9,0,0,1,9.04-3.905,4.391,4.391,0,0,1,1.145.891q.112.121.214.251a4.4,4.4,0,0,1,1.192-.585,4.355,4.355,0,0,1,4.169.87q.145.125.28.265a4.25,4.25,0,0,1,.439-.059,4.372,4.372,0,0,1,3.53,1.36l.182,0a3.112,3.112,0,0,1,.4-.028,4.453,4.453,0,0,1,4.068,3.439,4.068,4.068,0,0,1,2.812,4.911c1.822.949,2.233,3.554,1.1,5.426a4.125,4.125,0,0,1-.377.526,4.179,4.179,0,0,1-.006,1.312,4.244,4.244,0,0,1-2.29,3.151,2.981,2.981,0,0,1-1.249.283,2.807,2.807,0,0,1-.841-.129,3.735,3.735,0,0,1-2.573,1.176q-.125.008-.25.008c-.125,0-.251-.007-.372-.017a7.412,7.412,0,0,1-7.184,4.648,14.415,14.415,0,0,1-2.7-.28,7.353,7.353,0,0,1-3.792,4.285c-3.835,2.163-5.664,3.869-5.921,5.494a2.145,2.145,0,0,1-2.172,1.789,2.175,2.175,0,0,1-2.172-2.583l1.488-6.658a3.448,3.448,0,0,1-2.808-2.663c-.118-.915-.451-1.376-.174-2.285a6.722,6.722,0,0,1-1.18-.616,4.077,4.077,0,0,1-1.6-1.483,6.775,6.775,0,0,1-1.419-4.432q0-.142.016-.284-.051-.234-.081-.473h0c-.008-.07-.016-.14-.021-.21A4.372,4.372,0,0,1,741.854,359.173Z" transform="translate(-740.816 -344.524)" fill="#dce736" fill-rule="evenodd"/>
        </g>
        <g id="Grupo_157353" data-name="Grupo 157353" transform="translate(0 0)">
          <path id="Trazado_210594" data-name="Trazado 210594" d="M1674.088,726.784l0,0h0Z" transform="translate(-1669.707 -712.471)" fill="#657e93" fill-rule="evenodd"/>
          <path id="Trazado_210595" data-name="Trazado 210595" d="M1707.363,749.869c-.01.008-.011.01,0,0S1707.382,749.852,1707.363,749.869Z" transform="translate(-1704.23 -734.685)" fill="#657e93" fill-rule="evenodd"/>
          <path id="Trazado_210596" data-name="Trazado 210596" d="M1753.451,822.237c.009-.03.011-.037.01-.03Z" transform="translate(-1752.014 -804.361)" fill="#657e93" fill-rule="evenodd"/>
          <path id="Trazado_210597" data-name="Trazado 210597" d="M1596.509,709.468c-.015,0-.017,0,.009,0S1596.535,709.469,1596.509,709.468Z" transform="translate(-1589.28 -695.797)" fill="#657e93" fill-rule="evenodd"/>
          <path id="Trazado_210598" data-name="Trazado 210598" d="M1760.578,865.049c0,.045,0-.007,0,0Z" transform="translate(-1759.394 -845.619)" fill="#657e93" fill-rule="evenodd"/>
          <path id="Trazado_210599" data-name="Trazado 210599" d="M998.876,665.589s0,0,0,0S998.88,665.587,998.876,665.589Z" transform="translate(-969.499 -653.541)" fill="#657e93" fill-rule="evenodd"/>
          <path id="Trazado_210600" data-name="Trazado 210600" d="M725.333,355.285c0-.023,0-.045-.006-.067a4.512,4.512,0,0,1,3.649-4.791,4.4,4.4,0,0,1-.148-.834,4.511,4.511,0,0,1,4.138-4.857q.123-.01.248-.012a4.4,4.4,0,0,1,.455.013,7.118,7.118,0,0,1,9.329-4.03,4.532,4.532,0,0,1,1.182.92q.115.125.221.259a4.537,4.537,0,0,1,1.23-.6,4.466,4.466,0,0,1,.989-.193,4.515,4.515,0,0,1,3.314,1.091q.15.13.289.273a4.39,4.39,0,0,1,.453-.061,4.489,4.489,0,0,1,3.216,1.006,4.568,4.568,0,0,1,.427.4l.188,0a3.206,3.206,0,0,1,.417-.029,4.6,4.6,0,0,1,4.2,3.549,4.2,4.2,0,0,1,2.9,5.068c1.88.979,2.3,3.667,1.135,5.6a4.257,4.257,0,0,1-.389.543,4.312,4.312,0,0,1-.006,1.354,4.38,4.38,0,0,1-2.364,3.252,3.078,3.078,0,0,1-1.289.292,2.9,2.9,0,0,1-.867-.133,3.855,3.855,0,0,1-2.655,1.214c-.086.006-.172.009-.258.009-.129,0-.259-.007-.384-.018a7.649,7.649,0,0,1-7.414,4.8,14.877,14.877,0,0,1-2.784-.289,7.588,7.588,0,0,1-3.913,4.422c-3.958,2.232-5.845,3.993-6.11,5.67a2.214,2.214,0,0,1-2.241,1.847,2.245,2.245,0,0,1-2.241-2.665l1.536-6.871a3.559,3.559,0,0,1-2.9-2.749c-.122-.944-.466-1.42-.18-2.358a6.934,6.934,0,0,1-1.218-.635,4.207,4.207,0,0,1-1.65-1.531,6.992,6.992,0,0,1-1.464-4.574q0-.147.016-.293-.053-.241-.083-.488h0c-.009-.072-.016-.145-.022-.217A4.513,4.513,0,0,1,725.333,355.285Zm.779,7.267,0,.005,0-.005v0Zm-.694-4.092.016.752.012.528a6.822,6.822,0,0,0,.042.764q.023.2.058.4c.012.065.025.13.038.2l0,.018v0c.01.044.021.088.032.133a6.53,6.53,0,0,0,.26.792q.077.192.166.379l.042.087.021.043,0,0,0,.007.02.037.059.106q.146.259.317.5c.047.069.1.136.146.2q.123.163.256.319l.088.1h0q.07.075.143.149a6.456,6.456,0,0,0,.613.541q.153.118.312.227c.018.012.106.068.112.074q.086.053.174.1.212.121.432.226h0a1.927,1.927,0,0,0,.193.01,1.767,1.767,0,0,0,.731-.155h.129a2.585,2.585,0,0,1,1.366-.429h2.987a.623.623,0,0,1,.616.6.655.655,0,0,1-.616.6h-2.987a1.428,1.428,0,0,0-1.407,1.8c0,.043.041.256.218,1.115a2.6,2.6,0,0,0,2.507,1.933h3.825a2.526,2.526,0,0,0,2.5-1.933c.178-.9.222-1.115.222-1.115a1.45,1.45,0,0,0-1.407-1.8H736.7a.617.617,0,0,1-.572-.6.588.588,0,0,1,.572-.6h.968a2.583,2.583,0,0,1,2.547,3.221,7.836,7.836,0,0,1-.218,1.118,3.777,3.777,0,0,1-3.648,2.792h-3.43l-1.54,7a1.123,1.123,0,0,0,.221.9,1.144,1.144,0,0,0,.857.386,1.083,1.083,0,0,0,1.078-.9c.306-2.106,2.285-4.036,6.635-6.528,2.991-1.63,3.87-3.993,3.474-6.056a2.356,2.356,0,0,0-.945.671c-.165.188-.264.317-.55.317a.605.605,0,0,1-.484-.945,3.407,3.407,0,0,1,1.979-1.288l.572-.13a3.164,3.164,0,0,1,.487-.036,3.823,3.823,0,0,1,2.016.6.6.6,0,0,1,.133.815.675.675,0,0,1-.5.263.523.523,0,0,1-.292-.09,2.308,2.308,0,0,0-1.274-.386,10.216,10.216,0,0,1,.044,1.674,14.124,14.124,0,0,0,2.544.26,6.263,6.263,0,0,0,5.826-3.177,3.335,3.335,0,0,1-3.388-.725.522.522,0,0,1,.054-.754.545.545,0,0,1,.054-.047.658.658,0,0,1,.719.016,2.3,2.3,0,0,0,2.9.193,2.059,2.059,0,0,0,.263-.226.576.576,0,0,1,.09-.085.427.427,0,0,1,.08-.045,3.789,3.789,0,0,0,.09-1.6.561.561,0,0,1,.4-.729.574.574,0,0,1,.214-.043.552.552,0,0,1,.532.386,3.828,3.828,0,0,1,.014,1.956q.214.039.431.062a2.118,2.118,0,0,0,1.712-.943.493.493,0,0,1,.351-.3.531.531,0,0,1,.21-.047,1.63,1.63,0,0,1,.58.217,1.854,1.854,0,0,0,.48.065,1.943,1.943,0,0,0,.77-.164l.018-.014q.125-.1.244-.2l.109-.095-.006.006.015-.014,0,0,.05-.047a6.523,6.523,0,0,0,.854-.995q.042-.06.083-.121c.012-.018.036-.056.044-.07v0l0-.006h0c.052-.087.1-.174.154-.263l.053-.1a3.257,3.257,0,0,0,.136-1.409h-.058a1.8,1.8,0,0,1-1.308-.581,2.354,2.354,0,0,1-1.889.555.548.548,0,1,1,.179-1.081c.043.007.085.012.128.017l.016,0,.023,0c.087-.005.171-.013.256-.026l.016,0c.041-.012.082-.024.122-.038s.081-.03.121-.047l.077-.037.073-.045c.029-.019.057-.038.085-.058s.069-.052.1-.08l.011-.009.016-.019c.057-.065.114-.128.165-.2l.006-.008c.024-.045.048-.09.07-.136a.557.557,0,0,1,.587-.311.577.577,0,0,1,.454.482c-.018-.091.034.089.041.109s.008.023.009.03a.209.209,0,0,1,.018.023c.031.043.06.088.094.13,0,0,.061.056.073.066a1.345,1.345,0,0,1,.113.079c.035.017.07.033.1.05l.042.016.057.012q.047.009.093.013a1.2,1.2,0,0,0,.13-.012c-.012,0,.094-.026.113-.033s.113-.058.106-.051c.04-.026.079-.053.117-.082l.012-.01c.016-.016.032-.032.048-.049l.01-.013.034.03a3.232,3.232,0,0,0,.44-.981,2.481,2.481,0,0,0-1.318-3.221.607.607,0,0,1-.249-.141,3.307,3.307,0,0,0-1.019-.161,3.4,3.4,0,0,0-3.124,2.081.522.522,0,0,1-.52.324.629.629,0,0,1-.568-.836,5.025,5.025,0,0,1,1.743-2.093,2.3,2.3,0,0,0-2.076-1.347,2.4,2.4,0,0,0-1.018.23.4.4,0,0,1-.242.078.543.543,0,0,1-.5-.355.63.63,0,0,1,.264-.836,3.621,3.621,0,0,1,1.531-.348,3.416,3.416,0,0,1,3.135,2.113,4.116,4.116,0,0,1,1.37-.238,4.005,4.005,0,0,1,1.063.144,3.081,3.081,0,0,0,.035-.332,3.227,3.227,0,0,0-1.46-2.873,2.2,2.2,0,0,0-.96-.31.528.528,0,0,1-.528-.512,3.15,3.15,0,0,0-.558-1.471,3.279,3.279,0,0,0-2.238-1.425l-1.227-.053-.524-.447a4.964,4.964,0,0,0-3.258-.624,1.812,1.812,0,0,0-1.318,2q0,.145.01.3c.065.978.414,2-.014,2.946-.612,1.358-2.252,1.314-3.5,1.118a.58.58,0,0,1,.17-1.146c.7.109,1.859.336,2.27-.431a2.766,2.766,0,0,0,.037-1.569c-.027-.2-.052-.409-.069-.617a6.011,6.011,0,0,1,.023-1.386,3.1,3.1,0,0,1,.7-1.6l.033-.038a2.477,2.477,0,0,1,.656-.525,3.35,3.35,0,0,0-4.493.11l-.528.5-.258-.449-.1-.181a3.359,3.359,0,0,0-4.909-1.039,3.393,3.393,0,0,0-.626.6,5.536,5.536,0,0,1,.654.709,3.022,3.022,0,0,1,.53,1.047,2.811,2.811,0,0,1,.084.576,5.575,5.575,0,0,1,1.346-.313c.644-.061.8.935.154,1a5.157,5.157,0,0,0-1.818.559.476.476,0,0,1-.264.15,2.76,2.76,0,0,0-1.3,1.484,4.713,4.713,0,0,0,.667,3.729,6.38,6.38,0,0,1,3.494.722,12.161,12.161,0,0,1,2.03,1.62A4.07,4.07,0,0,1,747,352.273a3.848,3.848,0,0,1,1.77.435.565.565,0,0,1,.28.733.643.643,0,0,1-.506.33.373.373,0,0,1-.216-.069,2.767,2.767,0,0,0-1.264-.3,3.168,3.168,0,0,0-2.751,1.727,3.433,3.433,0,0,1,.523,3.456.578.578,0,0,1-.523.3.547.547,0,0,1-.482-.776,2.1,2.1,0,0,0-.924-2.72,1.8,1.8,0,0,0-.8-.192,1.844,1.844,0,0,0-1.685,1.186.655.655,0,0,1-.553.352.459.459,0,0,1-.209-.051.562.562,0,0,1-.239-.733,2.849,2.849,0,0,1,2.646-1.85q.082,0,.166,0c-.038-.057-.08-.117-.127-.18q-.049-.065-.1-.127l-.038-.045-.031-.032c-.078-.077-.156-.153-.239-.224s-.169-.139-.259-.2l-.109-.075c-.006,0-.077-.045-.089-.051a5.459,5.459,0,0,0-2.927-.568.635.635,0,0,1-.164-.016.442.442,0,0,1-.3-.119,4.238,4.238,0,0,1-1.225-2.322,6,6,0,0,0-2.719,2.018c-.427.481-1.245-.11-.813-.6a6.967,6.967,0,0,1,3.4-2.429,5.367,5.367,0,0,1,.148-1.595,3.763,3.763,0,0,1,1.833-2.153,1.816,1.816,0,0,0-.067-.953,2.123,2.123,0,0,0-.234-.452,4.408,4.408,0,0,0-.8-.849l-.142-.121a3.359,3.359,0,0,0-2.385,1.874,3.392,3.392,0,0,0-.219.621l-.13.529-.535-.1c-.071-.013-.142-.025-.212-.034a3.288,3.288,0,0,0-.7-.02,3.342,3.342,0,0,0-2.293,1.172c-.042.049-.083.1-.122.151a3.349,3.349,0,0,0-.352,3.477l.385.807-.945.013c-.063,0-.122,0-.174.005a3.366,3.366,0,0,0-3.094,3.2c0,.076,0,.152,0,.229l.057.627.011.119a4.426,4.426,0,0,0,.421,1.446,3.529,3.529,0,0,0,3.2-1.086.485.485,0,0,1,.1-.308,2.993,2.993,0,0,1,3.656-.646c.157.074.31.157.459.244l.087-.052a1.685,1.685,0,0,1,.877-.218,1.769,1.769,0,0,1,1.5.9.55.55,0,0,1-.268.727.561.561,0,0,1-.718-.253c.042.075-.056-.067-.07-.086l-.014-.019-.02-.013c-.039-.027-.076-.055-.115-.081h0q-.042-.02-.086-.037c-.03-.011-.06-.021-.091-.031,0,0-.082-.012-.092-.013s-.1,0-.124,0l-.1.016-.021,0-.017.008a1.684,1.684,0,0,0-.152.076,1.322,1.322,0,0,1-.429.18,1.427,1.427,0,0,1-.883-.275,3.647,3.647,0,0,0-.367-.164q-.087-.033-.175-.062c-.025-.008-.164-.047-.164-.048a2.6,2.6,0,0,0-.359-.055,1.359,1.359,0,0,0-.328,0,1.557,1.557,0,0,0-1.085.53,4.141,4.141,0,0,1-3,1.732c-.162.019-.327.029-.494.033a4.523,4.523,0,0,0,.367.346,5.311,5.311,0,0,0,1.221.763c.163.074.354.148.558.218.088.03.179.059.271.088a.522.522,0,0,1,.088.076.819.819,0,0,1,.23.307,2.3,2.3,0,0,0,2.239,1.852,2.069,2.069,0,0,0,.346-.029.571.571,0,0,1,.122-.016.514.514,0,0,1,0,1.027,2.378,2.378,0,0,1-.526.039,3.381,3.381,0,0,1-3.259-2.485,9.884,9.884,0,0,1-1.888-1.261,7.542,7.542,0,0,1-.814-.8,4.648,4.648,0,0,1-.5-.69,3.9,3.9,0,0,1-.358-.826A3.353,3.353,0,0,0,725.418,358.46Z" transform="translate(-724.262 -340.168)" fill="#657e93" fill-rule="evenodd"/>
        </g>
      </g>
    </g>
  </g>
</svg>
