<svg xmlns="http://www.w3.org/2000/svg" width="150" height="150" viewBox="0 0 150 150">
  <g id="Grupo_158122" data-name="Grupo 158122" transform="translate(10378 1756.756)">
    <g id="Grupo_158078" data-name="Grupo 158078">
      <g id="Grupo_157995" data-name="Grupo 157995" transform="translate(-11458 -10348.5)">
        <g id="Trazado_169921" data-name="Trazado 169921" transform="translate(1080 8591.744)" fill="#fff">
          <path d="M 75 148 C 65.14418029785156 148 55.5842399597168 146.0701751708984 46.58572006225586 142.2641143798828 C 42.26060104370117 140.4347381591797 38.08885955810547 138.1703796386719 34.1864013671875 135.533935546875 C 30.32049942016602 132.9221801757812 26.68510055541992 129.9226989746094 23.38120079040527 126.6187973022461 C 20.07729911804199 123.3149032592773 17.07781982421875 119.6794967651367 14.46605968475342 115.8135986328125 C 11.82962036132812 111.9111404418945 9.56525993347168 107.7394027709961 7.735879898071289 103.4142837524414 C 3.92982006072998 94.41575622558594 2 84.85581970214844 2 75 C 2 65.14418029785156 3.92982006072998 55.5842399597168 7.735879898071289 46.58572006225586 C 9.56525993347168 42.26060104370117 11.82962036132812 38.08885955810547 14.46605968475342 34.1864013671875 C 17.07781982421875 30.32049942016602 20.07729911804199 26.68510055541992 23.38120079040527 23.38120079040527 C 26.68510055541992 20.07729911804199 30.32049942016602 17.07781982421875 34.1864013671875 14.46605968475342 C 38.08885955810547 11.82962036132812 42.26060104370117 9.56525993347168 46.58572006225586 7.735879898071289 C 55.5842399597168 3.92982006072998 65.14418029785156 2 75 2 C 84.85581970214844 2 94.41575622558594 3.92982006072998 103.4142837524414 7.735879898071289 C 107.7394027709961 9.56525993347168 111.9111404418945 11.82962036132812 115.8135986328125 14.46605968475342 C 119.6794967651367 17.07781982421875 123.3149032592773 20.07729911804199 126.6187973022461 23.38120079040527 C 129.9226989746094 26.68510055541992 132.9221801757812 30.32049942016602 135.533935546875 34.1864013671875 C 138.1703796386719 38.08885955810547 140.4347381591797 42.26060104370117 142.2641143798828 46.58572006225586 C 146.0701751708984 55.5842399597168 148 65.14418029785156 148 75 C 148 84.85581970214844 146.0701751708984 94.41575622558594 142.2641143798828 103.4142837524414 C 140.4347381591797 107.7394027709961 138.1703796386719 111.9111404418945 135.533935546875 115.8135986328125 C 132.9221801757812 119.6794967651367 129.9226989746094 123.3149032592773 126.6187973022461 126.6187973022461 C 123.3149032592773 129.9226989746094 119.6794967651367 132.9221801757812 115.8135986328125 135.533935546875 C 111.9111404418945 138.1703796386719 107.7394027709961 140.4347381591797 103.4142837524414 142.2641143798828 C 94.41575622558594 146.0701751708984 84.85581970214844 148 75 148 Z" stroke="none"/>
          <path d="M 75 4 C 65.41329193115234 4 56.115478515625 5.876678466796875 47.36481475830078 9.577880859375 C 43.15863800048828 11.35694885253906 39.10147857666016 13.55915832519531 35.30599975585938 16.12332153320312 C 31.54559326171875 18.663818359375 28.00929260253906 21.58152770996094 24.79541015625 24.79541015625 C 21.58152770996094 28.00929260253906 18.663818359375 31.54559326171875 16.12332153320312 35.30599975585938 C 13.55915832519531 39.10147857666016 11.35694885253906 43.15863800048828 9.577880859375 47.36481475830078 C 5.876678466796875 56.115478515625 4 65.41329193115234 4 75 C 4 84.58670806884766 5.876678466796875 93.884521484375 9.577880859375 102.6351776123047 C 11.35694885253906 106.8413619995117 13.55915832519531 110.8985214233398 16.12332153320312 114.6940002441406 C 18.663818359375 118.4544067382812 21.58152770996094 121.9907073974609 24.79541015625 125.20458984375 C 28.00929260253906 128.4184722900391 31.54559326171875 131.336181640625 35.30599975585938 133.8766784667969 C 39.10147857666016 136.4408416748047 43.15863800048828 138.6430511474609 47.36481475830078 140.422119140625 C 56.115478515625 144.1233215332031 65.41329193115234 146 75 146 C 84.58670806884766 146 93.884521484375 144.1233215332031 102.6351776123047 140.422119140625 C 106.8413619995117 138.6430511474609 110.8985214233398 136.4408416748047 114.6940002441406 133.8766784667969 C 118.4544067382812 131.336181640625 121.9907073974609 128.4184722900391 125.20458984375 125.20458984375 C 128.4184722900391 121.9907073974609 131.336181640625 118.4544067382812 133.8766784667969 114.6940002441406 C 136.4408416748047 110.8985214233398 138.6430511474609 106.8413619995117 140.422119140625 102.6351776123047 C 144.1233215332031 93.884521484375 146 84.58670806884766 146 75 C 146 65.41329193115234 144.1233215332031 56.115478515625 140.422119140625 47.36481475830078 C 138.6430511474609 43.15863800048828 136.4408416748047 39.10147857666016 133.8766784667969 35.30599975585938 C 131.336181640625 31.54559326171875 128.4184722900391 28.00929260253906 125.20458984375 24.79541015625 C 121.9907073974609 21.58152770996094 118.4544067382812 18.663818359375 114.6940002441406 16.12332153320312 C 110.8985214233398 13.55915832519531 106.8413619995117 11.35694885253906 102.6351776123047 9.577880859375 C 93.884521484375 5.876678466796875 84.58670806884766 4 75 4 M 75 0 C 116.4213638305664 0 150 33.57863616943359 150 75 C 150 116.4213638305664 116.4213638305664 150 75 150 C 33.57863616943359 150 0 116.4213638305664 0 75 C 0 33.57863616943359 33.57863616943359 0 75 0 Z" stroke="none" fill="#77b43a"/>
        </g>
        <g id="Layer_1" data-name="Layer 1" transform="translate(1094.428 8264.73)">
          <g id="Grupo_153685" data-name="Grupo 153685" transform="translate(12.572 354.014)">
            <g id="Grupo_153680" data-name="Grupo 153680" transform="translate(4.874 2.43)">
              <path id="Trazado_205771" data-name="Trazado 205771" d="M96.4,417.971H44.853a1.187,1.187,0,0,1-1.187-1.187V411.6a1.189,1.189,0,0,1,1.187-1.189H96.4a1.188,1.188,0,0,1,1.186,1.189v5.186A1.186,1.186,0,0,1,96.4,417.971Z" transform="translate(-27.361 -374.426)" fill="#afafaf"/>
              <path id="Trazado_205772" data-name="Trazado 205772" d="M49.1,421.511v18.327a6.406,6.406,0,0,1,4.156,3.3v-9.346a3.348,3.348,0,1,1,6.7,0,3.348,3.348,0,1,1,6.7,0v9.346a6.413,6.413,0,0,1,11.422,0v-9.346a3.348,3.348,0,1,1,6.7,0,3.348,3.348,0,1,1,6.7,0v9.346a6.408,6.408,0,0,1,4.157-3.3V421.511Z" transform="translate(-29.092 -377.966)" fill="#f0c020"/>
              <path id="Trazado_205773" data-name="Trazado 205773" d="M95.616,440.478v2.428a6.408,6.408,0,0,0-4.157,3.3v-9.346a3.348,3.348,0,1,0-6.7,0,3.348,3.348,0,1,0-6.7,0v9.346a6.413,6.413,0,0,0-11.422,0v-9.346a3.348,3.348,0,1,0-6.7,0,3.348,3.348,0,1,0-6.7,0v9.346a6.406,6.406,0,0,0-4.156-3.3v-2.428A9.036,9.036,0,0,1,50.88,441v-4.133a5.728,5.728,0,0,1,9.069-4.639,5.726,5.726,0,0,1,9.069,4.639v4.129a8.862,8.862,0,0,1,6.676,0v-4.129a5.726,5.726,0,0,1,9.069-4.639,5.727,5.727,0,0,1,9.069,4.639V441a8.753,8.753,0,0,1,1.784-.522Z" transform="translate(-29.092 -381.035)" fill="#e8a61e"/>
              <path id="Trazado_205774" data-name="Trazado 205774" d="M87.013,360.932v32.634H63.2V382.02H59.177A3.024,3.024,0,0,1,56.152,379V367.66a3.024,3.024,0,0,1,6.047,0v8.313h6.64a6.408,6.408,0,1,0,11.477-5.7v-9.342a3.348,3.348,0,1,1,6.7,0Z" transform="translate(-31.342 -357.582)" fill="#75b62f"/>
              <path id="Trazado_205775" data-name="Trazado 205775" d="M66.5,406.733H90.313v2.5H66.5Z" transform="translate(-34.643 -373.254)" fill="#b34f33"/>
              <g id="Grupo_153679" data-name="Grupo 153679" transform="translate(12.034 9.196)">
                <path id="Trazado_205776" data-name="Trazado 205776" d="M80.242,383.892a6.4,6.4,0,1,1,5.709-9.312A6.4,6.4,0,0,1,80.242,383.892Z" transform="translate(-49.012 -371.083)" fill="#ffb69f"/>
                <path id="Trazado_205777" data-name="Trazado 205777" d="M43.812,460.933a6.4,6.4,0,1,1,5.711-9.31A6.4,6.4,0,0,1,43.812,460.933Z" transform="translate(-37.395 -395.645)" fill="#ffb69f"/>
                <path id="Trazado_205778" data-name="Trazado 205778" d="M122.435,457.323a6.406,6.406,0,1,1-7.317-9,6.4,6.4,0,0,1,7.317,9Z" transform="translate(-60.628 -395.645)" fill="#ffb69f"/>
              </g>
              <path id="Trazado_205779" data-name="Trazado 205779" d="M106.256,444.709v11.335a3.025,3.025,0,0,1-3.022,3.026H99.2V474.6H26.78V459.069H22.75a3.025,3.025,0,0,1-3.022-3.026V444.709a3.024,3.024,0,1,1,6.047,0v8.313h6.64a6.406,6.406,0,1,0,11.473-5.7v-9.346a3.348,3.348,0,1,1,6.7,0,3.348,3.348,0,1,1,6.7,0v9.346a6.407,6.407,0,1,0,11.422,0v-9.346a3.348,3.348,0,1,1,6.7,0,3.348,3.348,0,1,1,6.7,0v9.346a6.406,6.406,0,1,0,11.474,5.7h6.64v-8.313a3.024,3.024,0,1,1,6.047,0Z" transform="translate(-19.728 -382.148)" fill="#dce736"/>
              <path id="Trazado_205780" data-name="Trazado 205780" d="M80.243,460.939a6.4,6.4,0,1,1,5.711-9.31A6.409,6.409,0,0,1,80.243,460.939Z" transform="translate(-36.979 -386.455)" fill="#ffb69f"/>
            </g>
            <g id="Grupo_153683" data-name="Grupo 153683" transform="translate(0 1.442)">
              <g id="Grupo_153682" data-name="Grupo 153682" transform="translate(14.27 76.898)">
                <g id="Grupo_153681" data-name="Grupo 153681">
                  <path id="Trazado_205781" data-name="Trazado 205781" d="M100.3,483.792H40.713a.989.989,0,1,1,0-1.977h58.6v-11.8a.989.989,0,1,1,1.977,0V482.8A.988.988,0,0,1,100.3,483.792Zm-63.544,0H34.51a.989.989,0,0,1,0-1.977h2.247a.989.989,0,1,1,0,1.977Z" transform="translate(-33.522 -469.026)" fill="#c5e5fe"/>
                </g>
              </g>
              <path id="Trazado_205782" data-name="Trazado 205782" d="M12.981,412.211a.988.988,0,0,0-.22,1.381L27,433.235a.989.989,0,1,0,1.6-1.16L14.362,412.432A.99.99,0,0,0,12.981,412.211Z" transform="translate(-12.572 -373.953)"/>
              <path id="Trazado_205783" data-name="Trazado 205783" d="M24.933,391.091a.988.988,0,1,0-1.87.64l8.965,26.176a.988.988,0,1,0,1.87-.64Z" transform="translate(-15.9 -367.065)"/>
              <path id="Trazado_205784" data-name="Trazado 205784" d="M130.519,433.455a.988.988,0,0,0,1.381-.221l14.239-19.643a.989.989,0,0,0-1.6-1.16L130.3,432.075A.989.989,0,0,0,130.519,433.455Z" transform="translate(-50.05 -373.953)"/>
              <path id="Trazado_205785" data-name="Trazado 205785" d="M128.084,418.522a.988.988,0,0,0,1.255-.616l8.965-26.175a.989.989,0,1,0-1.871-.64l-8.965,26.175A.988.988,0,0,0,128.084,418.522Z" transform="translate(-49.19 -367.065)"/>
              <path id="Trazado_205786" data-name="Trazado 205786" d="M31.994,429.334a7.325,7.325,0,0,0-1.454,6.472H26.3v-7.324a4.013,4.013,0,1,0-8.025,0v11.335a4.017,4.017,0,0,0,4.011,4.014h3.041v14.547a.989.989,0,0,0,1.977,0V442.842a.988.988,0,0,0-.988-.989h-4.03a2.037,2.037,0,0,1-2.033-2.037V428.481a2.035,2.035,0,1,1,4.069,0v8.313a.988.988,0,0,0,.989.988h6.051a7.394,7.394,0,0,0,13.051-6.915V421.75a2.359,2.359,0,1,1,4.719,0v36.627a.989.989,0,1,0,1.977,0V421.749a2.359,2.359,0,1,1,4.718,0v9.116a7.4,7.4,0,1,0,13.4,0v-9.121a2.359,2.359,0,1,1,4.718,0v20.071a.989.989,0,1,0,1.977,0V421.749a2.359,2.359,0,1,1,4.718,0v9.117a7.395,7.395,0,0,0,13.051,6.916h6.051a.989.989,0,0,0,.989-.989V428.48a2.035,2.035,0,1,1,4.069,0v11.335a2.037,2.037,0,0,1-2.033,2.037h-4.03a.988.988,0,0,0-.988.988v15.535a.989.989,0,1,0,1.977,0V443.83h3.041a4.018,4.018,0,0,0,4.011-4.015V428.48a4.012,4.012,0,1,0-8.025,0v7.325H94.518a7.412,7.412,0,0,0-7.741-9.174V410.454H88.3a2.178,2.178,0,0,0,2.176-2.175v-5.186a2.178,2.178,0,0,0-2.176-2.176H75.925v-4.054a.989.989,0,0,0-1.978,0v4.054H52.115V390.359a.99.99,0,0,0-.989-.989H47.1a2.046,2.046,0,0,1-2.037-2.033v-2.614a.989.989,0,1,0-1.977,0v2.614a4.018,4.018,0,0,0,4.014,4.01h3.038v9.571H36.757a2.178,2.178,0,0,0-2.176,2.176v5.186a2.178,2.178,0,0,0,2.176,2.175h1.524v16.178a7.272,7.272,0,0,0-6.286,2.7Zm.846,7.025a5.417,5.417,0,1,1,9.486.479,5.418,5.418,0,0,1-9.486-.479Zm34.6-4.614a5.414,5.414,0,1,1-9.737-.213A5.41,5.41,0,0,1,67.443,431.745Zm24.085-1.165a5.348,5.348,0,0,1,.69,5.779v0a5.417,5.417,0,1,1-.689-5.782Zm-54.968-22.3v-5.186a.2.2,0,0,1,.2-.2H88.3a.2.2,0,0,1,.2.2v5.186a.2.2,0,0,1-.2.2H36.757A.2.2,0,0,1,36.559,408.279Zm48.24,2.175v16.608a7.34,7.34,0,0,0-2.179,1.259V421.75a4.335,4.335,0,0,0-7.685-2.755,4.334,4.334,0,0,0-7.684,2.755v6.561a7.4,7.4,0,0,0-9.445,0v-6.562A4.332,4.332,0,0,0,50.124,419a4.334,4.334,0,0,0-7.686,2.753v6.57a7.337,7.337,0,0,0-2.18-1.259V410.455H84.8Z" transform="translate(-14.391 -364.932)"/>
              <circle id="Elipse_12926" data-name="Elipse 12926" cx="0.989" cy="0.989" r="0.989" transform="translate(59.556 79.855)"/>
              <path id="Trazado_205787" data-name="Trazado 205787" d="M101,479.174a.989.989,0,0,0-.989.989v8.645a.989.989,0,0,0,1.978,0v-8.645A.989.989,0,0,0,101,479.174Z" transform="translate(-40.451 -395.364)"/>
              <circle id="Elipse_12927" data-name="Elipse 12927" cx="0.989" cy="0.989" r="0.989" transform="translate(59.556 26.989)"/>
              <circle id="Elipse_12928" data-name="Elipse 12928" cx="0.989" cy="0.989" r="0.989" transform="translate(28.695 14.843)"/>
              <path id="Trazado_205788" data-name="Trazado 205788" d="M58.714,363.187A4.019,4.019,0,0,0,54.7,367.2v.815a.989.989,0,0,0,1.977,0V367.2a2.035,2.035,0,0,1,4.07,0v8.313a.985.985,0,0,0,.989.989H67.79a7.392,7.392,0,0,0,13.052-6.9V360.47a2.359,2.359,0,1,1,4.718,0v19.684a.989.989,0,0,0,1.978,0V360.47a4.337,4.337,0,1,0-8.674,0v6.559a7.4,7.4,0,0,0-11.9,7.493H62.725V367.2a4.025,4.025,0,0,0-4.011-4.01Zm10.838,6.668a5.411,5.411,0,1,1-.287,5.22A5.356,5.356,0,0,1,69.552,369.855Z" transform="translate(-26.005 -356.131)"/>
            </g>
            <g id="Grupo_153684" data-name="Grupo 153684" transform="translate(15.258 0.975)">
              <path id="Trazado_205789" data-name="Trazado 205789" d="M42.585,396.4c-1.456-.481-2.961-.9-3.806-4.54-.778,3.351-2.024,3.951-3.806,4.54,2.906.96,3.344,2.55,3.806,4.541.8-3.432,2.113-3.981,3.806-4.541Z" transform="translate(-34.973 -367.056)" fill="#f0c020"/>
              <path id="Trazado_205790" data-name="Trazado 205790" d="M76.723,359.987c-1.457-.481-2.961-.9-3.806-4.54-.778,3.351-2.024,3.952-3.806,4.54,2.906.96,3.344,2.55,3.806,4.541C73.713,361.1,75.03,360.546,76.723,359.987Z" transform="translate(-45.858 -355.446)" fill="#f0c020"/>
              <path id="Trazado_205791" data-name="Trazado 205791" d="M119.884,380.623c-1.457-.481-2.962-.9-3.806-4.541-.778,3.351-2.024,3.952-3.806,4.541,2.906.96,3.344,2.55,3.806,4.54C116.874,381.731,118.191,381.182,119.884,380.623Z" transform="translate(-59.62 -362.026)" fill="#f0c020"/>
            </g>
            <path id="Trazado_205792" data-name="Trazado 205792" d="M37.369,400.7c-.422-1.819-.7-3.02-3.159-3.833a.979.979,0,0,1,0-1.858c1.48-.489,2.458-.813,3.159-3.833a.979.979,0,0,1,1.906,0c.717,3.09,1.789,3.381,3.16,3.833a.98.98,0,0,1,0,1.858c-1.428.471-2.46.812-3.16,3.833A.978.978,0,0,1,37.369,400.7Zm-.559-4.739a5.077,5.077,0,0,1,1.531,1.62,4.833,4.833,0,0,1,1.447-1.633,5,5,0,0,1-1.463-1.693,4.843,4.843,0,0,1-1.516,1.706Z" transform="translate(-19.258 -365.623)"/>
            <path id="Trazado_205793" data-name="Trazado 205793" d="M71.507,364.292c-.422-1.819-.7-3.021-3.16-3.833a.98.98,0,0,1,0-1.858c1.481-.489,2.459-.812,3.16-3.833a.979.979,0,0,1,1.906,0c.717,3.089,1.788,3.381,3.159,3.833a.979.979,0,0,1,0,1.857c-1.427.471-2.459.813-3.159,3.833A.978.978,0,0,1,71.507,364.292Zm-.559-4.739a5.083,5.083,0,0,1,1.531,1.619,4.846,4.846,0,0,1,1.447-1.633,4.992,4.992,0,0,1-1.462-1.693A4.846,4.846,0,0,1,70.948,359.552Z" transform="translate(-30.143 -354.014)"/>
            <path id="Trazado_205794" data-name="Trazado 205794" d="M114.668,384.928c-.422-1.819-.7-3.021-3.159-3.833a.979.979,0,0,1,0-1.858c1.48-.489,2.458-.812,3.159-3.833a.979.979,0,0,1,1.906,0c.717,3.089,1.789,3.381,3.16,3.833a.979.979,0,0,1,0,1.857c-1.428.471-2.46.813-3.16,3.833A.978.978,0,0,1,114.668,384.928Zm-.559-4.739a5.078,5.078,0,0,1,1.532,1.619,4.839,4.839,0,0,1,1.447-1.633,4.985,4.985,0,0,1-1.463-1.693,4.84,4.84,0,0,1-1.516,1.706Z" transform="translate(-43.905 -360.594)"/>
          </g>
        </g>
      </g>
    </g>
  </g>
</svg>
