<svg xmlns="http://www.w3.org/2000/svg" width="457.169" height="259.615" viewBox="0 0 457.169 259.615">
  <g id="Grupo_158096" data-name="Grupo 158096" transform="translate(11072.169 7084.808)">
    <g id="Grupo_151477" data-name="Grupo 151477" transform="translate(-11272.691 -8364.805)">
      <path id="Trazado_203260" data-name="Trazado 203260" d="M235.561,1538.818s-54.255-65.355-27.739-132.638c17.283-43.856,82.116-67.888,118.7-43.856,15.584,10.235,65.579.345,92.274-42.029,51.875-82.344,232.918-32.335,199.958,94.091-15.951,61.181,48.543,63.405,15.681,124.562Z" transform="translate(0 0)" fill="#ebf3fa"/>
      <g id="Grupo_151447" data-name="Grupo 151447" transform="translate(224.663 1386.794)">
        <g id="Grupo_151442" data-name="Grupo 151442" transform="translate(41.81 31.226)">
          <path id="Trazado_203261" data-name="Trazado 203261" d="M349.774,1571.918s-5.472-6.384-.337-10.439c0,0,3.75-2.271,6.808-2.086,0,0-4.333,7.266-2.931,7.989s4.245-8.445,4.245-8.445,8.534-.828,11.28.492c0,0-7.3,5.97-5.759,6.326s9.417-5.505,9.417-5.505,7.943,1.352,7.52,6.2-3.16,6.342-4.363,6.213-8.24-2.815-8.393-1.83,4.082,4.207,7.049,4.358c0,0-5.6,6.176-9.322,4.393s-4.039-4.608-6.36-5.667-4.3-1.057-3.343.024,5.157,2.131,6.484,4.478,2.517,3.93-1.334,3.35-10.11-3.4-10.385-6.624Z" transform="translate(-340.525 -1558.682)" fill="#c8dbf4"/>
          <g id="Grupo_151441" data-name="Grupo 151441" transform="translate(0 7.86)">
            <path id="Trazado_203262" data-name="Trazado 203262" d="M373.8,1574.59s-21.575-.831-26.339,5.339a15.6,15.6,0,0,1-4.3,6.029l-.505,1.377s3.738-3.942,5.076-4.181C347.739,1583.155,345.647,1575.511,373.8,1574.59Z" transform="translate(-338.216 -1574.552)" fill="#c8dbf4"/>
            <path id="Trazado_203263" data-name="Trazado 203263" d="M338.636,1597.029a13.549,13.549,0,0,0-4.953,9.544l.84.075s1.479-6.328,4.152-8.8S338.636,1597.029,338.636,1597.029Z" transform="translate(-333.683 -1585.623)" fill="#c8dbf4"/>
          </g>
        </g>
        <g id="Grupo_151444" data-name="Grupo 151444" transform="translate(0 13.895)">
          <path id="Trazado_203264" data-name="Trazado 203264" d="M281.192,1546.227s8.7-4.875,4.642-11.49c0,0-3.249-4.062-6.731-5.106,0,0,1.857,9.865,0,10.1s-1.276-11.142-1.276-11.142-9.169-4.41-12.766-4.062c0,0,5.687,9.633,3.83,9.4s-8.24-9.981-8.24-9.981-9.4-1.741-10.909,3.83.928,8.356,2.321,8.7,10.329.232,10.1,1.393-6.267,3.018-9.632,1.973c0,0,3.713,9.168,8.588,8.7s6.383-3.482,9.4-3.714,5.223.58,3.713,1.393-6.615.266-9.052,2.338-4.41,3.349.116,4.277,12.65.348,14.275-3.134Z" transform="translate(-249.265 -1523.687)" fill="#c8dbf4"/>
          <g id="Grupo_151443" data-name="Grupo 151443" transform="translate(4.77 5.828)">
            <path id="Trazado_203265" data-name="Trazado 203265" d="M258.9,1535.454s24.372,7.892,27.157,16.712a18.516,18.516,0,0,0,2.321,8.472v1.741s-2.553-5.919-3.946-6.731C284.428,1555.648,289.883,1547.988,258.9,1535.454Z" transform="translate(-258.896 -1535.454)" fill="#c8dbf4"/>
            <path id="Trazado_203266" data-name="Trazado 203266" d="M317.229,1585.2a16.074,16.074,0,0,1,1.616,12.656l-.967-.26s.939-7.652-1.028-11.5S317.229,1585.2,317.229,1585.2Z" transform="translate(-287.751 -1560.016)" fill="#c8dbf4"/>
          </g>
        </g>
        <g id="Grupo_151446" data-name="Grupo 151446" transform="translate(38.232 0)">
          <path id="Trazado_203267" data-name="Trazado 203267" d="M334,1525.345s-11.474-6.425-6.12-15.145c0,0,4.284-5.355,8.873-6.732,0,0-2.448,13,0,13.31s1.683-14.687,1.683-14.687,12.085-5.813,16.828-5.354c0,0-7.5,12.7-5.048,12.392s10.862-13.156,10.862-13.156,12.392-2.3,14.381,5.048-1.224,11.015-3.06,11.474-13.615.306-13.31,1.836,8.262,3.978,12.7,2.6c0,0-4.9,12.085-11.321,11.474s-8.414-4.59-12.392-4.9-6.884.765-4.9,1.836,8.72.351,11.932,3.082,5.813,4.414-.153,5.638-16.675.458-18.817-4.131Z" transform="translate(-326.459 -1495.632)" fill="#d4e4f8"/>
          <g id="Grupo_151445" data-name="Grupo 151445" transform="translate(1.483 7.682)">
            <path id="Trazado_203268" data-name="Trazado 203268" d="M374.369,1511.144s-32.126,10.4-35.8,22.03a24.4,24.4,0,0,1-3.06,11.168v2.294s3.366-7.8,5.2-8.873C340.713,1537.763,333.523,1527.667,374.369,1511.144Z" transform="translate(-332.511 -1511.144)" fill="#d4e4f8"/>
            <path id="Trazado_203269" data-name="Trazado 203269" d="M332.454,1576.718a21.19,21.19,0,0,0-2.13,16.682l1.274-.343s-1.237-10.087,1.355-15.161S332.454,1576.718,332.454,1576.718Z" transform="translate(-329.454 -1543.521)" fill="#d4e4f8"/>
          </g>
        </g>
        <path id="Trazado_203270" data-name="Trazado 203270" d="M318,1629.051a22.475,22.475,0,0,0,22.475-22.475H295.528A22.475,22.475,0,0,0,318,1629.051Z" transform="translate(-272.615 -1551.629)" fill="#d4e4f8"/>
        <path id="Rectángulo_295852" data-name="Rectángulo 295852" d="M2.773,0H42.8a2.773,2.773,0,0,1,2.773,2.773v0a0,0,0,0,1,0,0H0a0,0,0,0,1,0,0v0A2.773,2.773,0,0,1,2.773,0Z" transform="translate(22.603 75.793)" fill="#d4e4f8"/>
        <rect id="Rectángulo_295853" data-name="Rectángulo 295853" width="46.201" height="0.689" transform="translate(22.174 54.947)" fill="#9fc1f4"/>
      </g>
      <g id="Grupo_151451" data-name="Grupo 151451" transform="translate(318.538 1400.733)">
        <g id="Grupo_151448" data-name="Grupo 151448" transform="translate(57.776 75.498)">
          <path id="Trazado_203271" data-name="Trazado 203271" d="M565.177,1738.337l.111,0a1.508,1.508,0,0,0,1.524-1.613l-6.058-60.5-5.286.472,8.7,60.83A.984.984,0,0,0,565.177,1738.337Z" transform="translate(-555.467 -1676.218)" fill="#8cb4f4"/>
        </g>
        <g id="Grupo_151449" data-name="Grupo 151449" transform="translate(7.507 75.498)">
          <path id="Trazado_203272" data-name="Trazado 203272" d="M455.611,1738.337l-.111,0a1.508,1.508,0,0,1-1.524-1.613l6.059-60.5,5.286.472-8.7,60.83A.984.984,0,0,1,455.611,1738.337Z" transform="translate(-453.969 -1676.218)" fill="#8cb4f4"/>
        </g>
        <g id="Grupo_151450" data-name="Grupo 151450" transform="translate(100.516 75.498)">
          <path id="Trazado_203273" data-name="Trazado 203273" d="M651.475,1738.337l.111,0a1.507,1.507,0,0,0,1.523-1.613l-6.058-60.5-5.286.472,8.7,60.83A.984.984,0,0,0,651.475,1738.337Z" transform="translate(-641.765 -1676.218)" fill="#8cb4f4"/>
        </g>
        <path id="Trazado_203274" data-name="Trazado 203274" d="M449.765,1590.476l-10.754-53.106c-1.38-7.19,4.578-13.765,12.314-13.588l20.74.473a16.383,16.383,0,0,1,15.364,11.826l15.733,54.394Z" transform="translate(-438.811 -1523.778)" fill="#8cb4f4"/>
        <path id="Trazado_203275" data-name="Trazado 203275" d="M462.9,1590.476l-10.754-53.106c-1.381-7.19,4.577-13.765,12.314-13.588l20.739.473a16.383,16.383,0,0,1,15.364,11.826l15.734,54.394Z" transform="translate(-445.442 -1523.778)" fill="#8cb4f4"/>
        <path id="Rectángulo_295854" data-name="Rectángulo 295854" d="M4.843,0H83.206a4.843,4.843,0,0,1,4.843,4.843V9.686a0,0,0,0,1,0,0H4.843A4.843,4.843,0,0,1,0,4.843v0A4.843,4.843,0,0,1,4.843,0Z" transform="translate(99.003 76.383) rotate(180)" fill="#8cb4f4"/>
        <rect id="Rectángulo_295855" data-name="Rectángulo 295855" width="57.137" height="9.686" rx="4.843" transform="translate(107.179 76.383) rotate(180)" fill="#8cb4f4"/>
      </g>
      <g id="Grupo_151456" data-name="Grupo 151456" transform="translate(237.981 1465.587)">
        <path id="Trazado_203276" data-name="Trazado 203276" d="M343.184,1655.877v1.812c0,.634-.206,1.152-.456,1.152H276.612c-.251,0-.456-.518-.456-1.152v-1.812c0-.633.205-1.152.456-1.152h66.117C342.978,1654.725,343.184,1655.244,343.184,1655.877Z" transform="translate(-276.156 -1654.725)" fill="#9abfe2"/>
        <path id="Trazado_203277" data-name="Trazado 203277" d="M357.148,1655.877v1.812c0,.634-.188,1.152-.418,1.152H304.24c-.23,0-.418-.518-.418-1.152v-1.812c0-.633.188-1.152.418-1.152h52.489C356.96,1654.725,357.148,1655.244,357.148,1655.877Z" transform="translate(-290.12 -1654.725)" fill="#bad4f4"/>
        <rect id="Rectángulo_295856" data-name="Rectángulo 295856" width="46.938" height="68.415" transform="translate(3.356 4.117)" fill="#c8dbf4"/>
        <rect id="Rectángulo_295857" data-name="Rectángulo 295857" width="46.939" height="68.415" transform="translate(16.509 4.117)" fill="#dfebfd"/>
        <g id="Grupo_151455" data-name="Grupo 151455" transform="translate(19.032 6.049)">
          <g id="Grupo_151452" data-name="Grupo 151452">
            <path id="Trazado_203278" data-name="Trazado 203278" d="M356.478,1729.644H314.584v-62.705h41.894Zm-41.441-.452h40.989v-61.8H315.037Z" transform="translate(-314.584 -1666.939)" fill="#b7d3f3"/>
          </g>
          <g id="Grupo_151453" data-name="Grupo 151453" transform="translate(0.226 20.744)">
            <rect id="Rectángulo_295858" data-name="Rectángulo 295858" width="41.442" height="0.452" fill="#b7d3f3"/>
          </g>
          <g id="Grupo_151454" data-name="Grupo 151454" transform="translate(0.226 41.891)">
            <rect id="Rectángulo_295859" data-name="Rectángulo 295859" width="41.442" height="0.452" fill="#b7d3f3"/>
          </g>
          <path id="Trazado_203279" data-name="Trazado 203279" d="M356.925,1673.722h-7.69a.681.681,0,0,1-.679-.679h0a.681.681,0,0,1,.679-.679h7.69a.681.681,0,0,1,.678.679h0A.681.681,0,0,1,356.925,1673.722Z" transform="translate(-331.731 -1669.677)" fill="#b7d3f3"/>
          <path id="Trazado_203280" data-name="Trazado 203280" d="M356.925,1715.477h-7.69a.68.68,0,0,1-.679-.679h0a.681.681,0,0,1,.679-.678h7.69a.681.681,0,0,1,.678.678h0A.68.68,0,0,1,356.925,1715.477Z" transform="translate(-331.731 -1690.753)" fill="#b7d3f3"/>
          <path id="Trazado_203281" data-name="Trazado 203281" d="M356.925,1759h-7.69a.68.68,0,0,1-.679-.678h0a.681.681,0,0,1,.679-.679h7.69a.681.681,0,0,1,.678.679h0A.68.68,0,0,1,356.925,1759Z" transform="translate(-331.731 -1712.722)" fill="#b7d3f3"/>
        </g>
      </g>
      <g id="Grupo_151463" data-name="Grupo 151463" transform="translate(457.04 1313.01)">
        <rect id="Rectángulo_295860" data-name="Rectángulo 295860" width="34.719" height="33.683" rx="5.014" transform="translate(0 0)" fill="#c0d8fb"/>
        <rect id="Rectángulo_295861" data-name="Rectángulo 295861" width="31.711" height="30.764" rx="4.58" transform="translate(1.504 1.459)" fill="#dfebfd"/>
        <g id="Grupo_151459" data-name="Grupo 151459" transform="translate(4.099 3.814)">
          <g id="Grupo_151457" data-name="Grupo 151457" transform="translate(12.541)">
            <circle id="Elipse_12794" data-name="Elipse 12794" cx="0.719" cy="0.719" r="0.719" fill="#b7d3f3"/>
            <path id="Trazado_203282" data-name="Trazado 203282" d="M763.686,1357.483a.719.719,0,1,1,.279.978A.719.719,0,0,1,763.686,1357.483Z" transform="translate(-757.882 -1355.747)" fill="#b7d3f3"/>
            <path id="Trazado_203283" data-name="Trazado 203283" d="M773.481,1365.719a.719.719,0,1,1-.215.994A.719.719,0,0,1,773.481,1365.719Z" transform="translate(-762.706 -1360.033)" fill="#b7d3f3"/>
            <path id="Trazado_203284" data-name="Trazado 203284" d="M778.056,1378.18a.719.719,0,1,1-.72.719A.719.719,0,0,1,778.056,1378.18Z" transform="translate(-764.818 -1366.381)" fill="#b7d3f3"/>
            <path id="Trazado_203285" data-name="Trazado 203285" d="M775,1392.29a.719.719,0,1,1-1.017,0A.719.719,0,0,1,775,1392.29Z" transform="translate(-763.018 -1373.396)" fill="#b7d3f3"/>
            <path id="Trazado_203286" data-name="Trazado 203286" d="M765.88,1401.433a.719.719,0,1,1-1.017,0A.718.718,0,0,1,765.88,1401.433Z" transform="translate(-758.416 -1378.011)" fill="#b7d3f3"/>
            <path id="Trazado_203287" data-name="Trazado 203287" d="M752.061,1405.627a.719.719,0,1,1,.719.719A.719.719,0,0,1,752.061,1405.627Z" transform="translate(-752.061 -1379.871)" fill="#b7d3f3"/>
          </g>
          <g id="Grupo_151458" data-name="Grupo 151458" transform="translate(0 1.366)">
            <path id="Trazado_203288" data-name="Trazado 203288" d="M741.827,1357.483a.719.719,0,1,0-.279.978A.719.719,0,0,0,741.827,1357.483Z" transform="translate(-733.674 -1357.113)" fill="#b7d3f3"/>
            <path id="Trazado_203289" data-name="Trazado 203289" d="M732.033,1365.719a.719.719,0,1,0,.214.994A.719.719,0,0,0,732.033,1365.719Z" transform="translate(-728.85 -1361.399)" fill="#b7d3f3"/>
            <path id="Trazado_203290" data-name="Trazado 203290" d="M727.458,1378.18a.719.719,0,1,0,.719.719A.719.719,0,0,0,727.458,1378.18Z" transform="translate(-726.738 -1367.746)" fill="#b7d3f3"/>
            <path id="Trazado_203291" data-name="Trazado 203291" d="M730.514,1392.29a.719.719,0,1,0,1.017,0A.72.72,0,0,0,730.514,1392.29Z" transform="translate(-728.538 -1374.762)" fill="#b7d3f3"/>
            <circle id="Elipse_12795" data-name="Elipse 12795" cx="0.719" cy="0.719" r="0.719" transform="translate(6.282 21.846)" fill="#b7d3f3"/>
          </g>
        </g>
        <g id="Grupo_151462" data-name="Grupo 151462" transform="translate(17.165 7.348)">
          <path id="Trazado_203292" data-name="Trazado 203292" d="M753.121,1378.9a.719.719,0,1,1,.719.719A.719.719,0,0,1,753.121,1378.9Z" transform="translate(-753.121 -1369.914)" fill="#b7d3f3"/>
          <g id="Grupo_151460" data-name="Grupo 151460" transform="translate(0.621)">
            <rect id="Rectángulo_295862" data-name="Rectángulo 295862" width="0.196" height="8.985" fill="#b7d3f3"/>
          </g>
          <g id="Grupo_151461" data-name="Grupo 151461" transform="translate(0.447 5.001)">
            <rect id="Rectángulo_295863" data-name="Rectángulo 295863" width="6.055" height="0.589" transform="translate(0 3.739) rotate(-38.132)" fill="#b7d3f3"/>
          </g>
        </g>
      </g>
      <g id="Grupo_151466" data-name="Grupo 151466" transform="translate(323 1347.323)">
        <g id="Grupo_151465" data-name="Grupo 151465" transform="translate(0 0)">
          <path id="Trazado_203293" data-name="Trazado 203293" d="M571.373,1634.718c-4.439,7.726-10.023,10.708-10.023,10.708H538.123S574.759,1628.824,571.373,1634.718Z" transform="translate(-493.399 -1525.725)" fill="#233862"/>
          <g id="Grupo_151464" data-name="Grupo 151464">
            <path id="Trazado_203294" data-name="Trazado 203294" d="M661.92,1773.36c-.251,2.437,3.138,3.066,7.07,3.3s2.734,1.031,8.114,2.065,7.556-.418,7.953-1.142c.355-.643-2.141-1.68-4.8-2.851-.335-.146-.67-.3-1-.448-2.992-1.354-4.65-4.068-6.966-6.592-2.195-2.392-4.221-9.994-4.221-9.994l-7.309-1.643s1.984,6.844,2.667,9.764a9.023,9.023,0,0,1-.8,5.078A9.567,9.567,0,0,0,661.92,1773.36Z" transform="translate(-555.297 -1587.609)" fill="#ffb27d"/>
            <path id="Trazado_203295" data-name="Trazado 203295" d="M670.161,1791.79c3.931.238,2.734,1.031,8.114,2.065s7.556-.418,7.953-1.142c.355-.642-2.141-1.68-4.8-2.851l-.042.045a15.353,15.353,0,0,1-8.166.01c-3.555-1.006-6.981-3.174-9.43-3.889a9.573,9.573,0,0,0-.7,2.458C662.84,1790.922,666.229,1791.552,670.161,1791.79Z" transform="translate(-556.468 -1602.735)" fill="#0f2549"/>
            <path id="Trazado_203296" data-name="Trazado 203296" d="M568.916,1597.766c-3.933-2.762-29.946-7.685-43.221-9.109l-14.673-12.737s-12.49,18.5-12.589,32.65c-.046,6.6,2.993,7.254,2.994,7.255s47.037.349,49.1.562c3.375.348,7.827,8.756,8.94,16.414s20.726,38.8,20.726,38.8,4.091,1.31,5.982,1.2a5.978,5.978,0,0,0,2.976-.8S577.785,1603.994,568.916,1597.766Z" transform="translate(-473.366 -1496.687)" fill="#242daf"/>
            <path id="Trazado_203297" data-name="Trazado 203297" d="M637.354,1773.36c-.251,2.437,3.139,3.066,7.07,3.3s2.734,1.031,8.114,2.065,7.556-.418,7.954-1.142c.354-.643-2.141-1.68-4.8-2.851-.335-.146-.67-.3-1-.448-2.992-1.354-4.65-4.068-6.966-6.592-2.194-2.392-4.221-9.994-4.221-9.994l-7.309-1.643s1.984,6.844,2.667,9.764a9.019,9.019,0,0,1-.8,5.078A9.609,9.609,0,0,0,637.354,1773.36Z" transform="translate(-542.898 -1587.609)" fill="#ffb27d"/>
            <path id="Trazado_203298" data-name="Trazado 203298" d="M645.595,1791.79c3.931.238,2.734,1.031,8.114,2.065s7.556-.418,7.954-1.142c.354-.642-2.141-1.68-4.8-2.851l-.042.045a15.353,15.353,0,0,1-8.166.01c-3.556-1.006-6.98-3.174-9.43-3.889a9.612,9.612,0,0,0-.7,2.458C638.274,1790.922,641.663,1791.552,645.595,1791.79Z" transform="translate(-544.069 -1602.735)" fill="#233862"/>
            <path id="Trazado_203299" data-name="Trazado 203299" d="M544.133,1597.766c-3.416-2.4-13.692-4.259-25.035-5.64a7.629,7.629,0,0,1-6.477-5.727h0l-26.383-10.479s-12.49,18.5-12.589,32.65c-.046,6.6,2.993,7.254,2.994,7.255s47.037.349,49.1.562c3.375.348,7.827,8.756,8.94,16.414s20.727,38.8,20.727,38.8,4.09,1.31,5.982,1.2a5.978,5.978,0,0,0,2.976-.8S553,1603.994,544.133,1597.766Z" transform="translate(-460.857 -1496.687)" fill="#3d46c2"/>
            <path id="Trazado_203300" data-name="Trazado 203300" d="M495.793,1418.313c-3.625-1.9-9.142-2.161-10.038-2.282-10.724-1.441-17.179,14.142-17.559,18.865-.7,8.7-5.3,10.03-11.784,15.481-12.995,10.929-9.184,23.63-2.079,28.349,4.263,2.831,11.778,0,11.778,0,.106.074,20.551-11.429,30.629-16.978C511.848,1459.6,505.031,1423.165,495.793,1418.313Z" transform="translate(-447.82 -1415.938)" fill="#233862"/>
            <path id="Trazado_203301" data-name="Trazado 203301" d="M525.552,1482.489c.047.024-4.765,2.212-8.239,1.065-3.268-1.077-6.146-6-6.1-6,1.418-.206,2.86-1.6,3.262-9.9l.628.158,10.561,2.669s-.418,3.345-.59,6.509C524.929,1479.645,524.959,1482.173,525.552,1482.489Z" transform="translate(-479.816 -1442.04)" fill="#ffb27d"/>
            <path id="Trazado_203302" data-name="Trazado 203302" d="M529.327,1471.372s0,.688-.395,3.8c-5.973-1.506-8.607-3.487-10.464-5.754Z" transform="translate(-483.479 -1442.932)" fill="#ed975d"/>
            <path id="Trazado_203303" data-name="Trazado 203303" d="M527.98,1450.66s-13.966,2.274-15.248-6.445-3.948-14.3,4.915-16.118,11.088,1.251,12.224,4.057S531.579,1449.844,527.98,1450.66Z" transform="translate(-479.879 -1421.799)" fill="#ffb27d"/>
            <path id="Trazado_203304" data-name="Trazado 203304" d="M524.131,1426.328s-6.342,10.011-12,12.382-8.443,1.167-8.443,1.167a23.845,23.845,0,0,0,3.247-9.15,4.294,4.294,0,0,1,2.652-3.451C513.645,1425.651,521.5,1423.085,524.131,1426.328Z" transform="translate(-476.017 -1420.395)" fill="#233862"/>
            <path id="Trazado_203305" data-name="Trazado 203305" d="M533.72,1427.142s3.718,1.906,5.248,3.692c1.477,1.724,3.184,6.4,3.062,8.5,0,0,1.834-10.066-1.986-13.526C535.995,1422.141,533.72,1427.142,533.72,1427.142Z" transform="translate(-491.177 -1420.242)" fill="#233862"/>
            <path id="Trazado_203306" data-name="Trazado 203306" d="M524.373,1512.782c-.424,28.387-.116,22.455-3.222,25.149-.748.648-2.852,1.035-5.62,1.218-8.7.578-24.006-.856-24.588-2.465-2.008-5.566-.59-7.3-2.266-15.817-.174-.906-.391-1.887-.644-2.955-1.4-5.853-2.756-7.844,2.2-17.247,4.494-8.518,9.778-15.437,10.2-15.187,11.856,7.038,12.261,1.139,12.261,1.139S524.58,1498.935,524.373,1512.782Z" transform="translate(-467.464 -1451.033)" fill="#dce736"/>
            <path id="Trazado_203307" data-name="Trazado 203307" d="M539.138,1487.783s12.134,2.056,13.566,7.309,9.862,36.129,9.862,36.129-6.2,1.114-9.066-1.751-9.969-26.58-9.969-26.58Z" transform="translate(-493.911 -1452.2)" fill="#dce736"/>
            <path id="Trazado_203308" data-name="Trazado 203308" d="M517.5,1563.174c-8.7.578-24.006-.856-24.588-2.465-2.008-5.566-.59-7.3-2.266-15.817l4.2-11.822s-.694,13.165,3.188,16.628,15.9,6.684,17.784,9.578A10.589,10.589,0,0,1,517.5,1563.174Z" transform="translate(-469.438 -1475.058)" fill="#ebf3ff"/>
            <path id="Trazado_203309" data-name="Trazado 203309" d="M524.735,1581.319s8.587-1.912,9.973-1.15,4.772,3.538,5.2,4.5-3.085-.734-4.226-1.04c-.739-.2-2.685.478-3.648.8-4.053,1.351-6.536.656-6.536.656Z" transform="translate(-486.642 -1498.74)" fill="#ffb27d"/>
            <path id="Trazado_203310" data-name="Trazado 203310" d="M485.4,1485.484s-12.154.71-16.146,6.278c-5.619,7.837-16.766,41.237-10.377,45.692,7.194,5.017,32.743,1.312,32.743,1.312s.85-3.974-.333-5.9-20.406-5.027-21.293-5.914,11.091-17.3,11.091-19.963S485.4,1485.484,485.4,1485.484Z" transform="translate(-452.43 -1451.04)" fill="#dce736"/>
            <path id="Trazado_203311" data-name="Trazado 203311" d="M545.711,1585.178a16.613,16.613,0,0,0,2.39,2.6,1.756,1.756,0,0,0,.971.208l-1.212-2.183Z" transform="translate(-497.229 -1501.359)" fill="#ffb27d"/>
            <path id="Trazado_203312" data-name="Trazado 203312" d="M544.872,1580.352l5.231,2.541a.932.932,0,0,1-.867.334,12.46,12.46,0,0,1-2.269-.624Z" transform="translate(-496.806 -1498.923)" fill="#ffb27d"/>
          </g>
        </g>
      </g>
      <g id="Grupo_151467" data-name="Grupo 151467" transform="translate(366.041 1408.313)">
        <path id="Trazado_203313" data-name="Trazado 203313" d="M559.022,1590.539h-24.3a1.937,1.937,0,0,1,1.936-1.937h22.36Z" transform="translate(-534.725 -1564.077)" fill="#ed7d2b"/>
        <path id="Trazado_203314" data-name="Trazado 203314" d="M574.212,1539.083h37.565l-9.01,26.462H564.958Z" transform="translate(-549.984 -1539.083)" fill="#ed7d2b"/>
        <path id="Trazado_203315" data-name="Trazado 203315" d="M612.893,1539.082l-9.01,26.462H566.074l9.254-26.462Z" transform="translate(-550.548 -1539.082)" fill="#f85316"/>
        <path id="Trazado_203316" data-name="Trazado 203316" d="M615.934,1563.438a2.443,2.443,0,0,1-2.253,1.831,1.41,1.41,0,0,1-1.408-1.831,2.442,2.442,0,0,1,2.253-1.831A1.41,1.41,0,0,1,615.934,1563.438Z" transform="translate(-573.841 -1550.451)" fill="#fff"/>
      </g>
      <g id="Grupo_151471" data-name="Grupo 151471" transform="translate(350.714 1434.775)">
        <rect id="Rectángulo_295864" data-name="Rectángulo 295864" width="167.128" height="5.953" rx="2.531" transform="translate(5.676 0)" fill="#182d4f"/>
        <g id="Grupo_151468" data-name="Grupo 151468" transform="translate(156.945 3.029)">
          <path id="Trazado_203317" data-name="Trazado 203317" d="M839.3,1699.618l.07-.009a1.511,1.511,0,0,0,1.334-1.681l-14.669-99.3-5.371.154,17.26,99.837A1.234,1.234,0,0,0,839.3,1699.618Z" transform="translate(-820.667 -1598.628)" fill="#182d4f"/>
        </g>
        <g id="Grupo_151469" data-name="Grupo 151469" transform="translate(0 3.029)">
          <path id="Trazado_203318" data-name="Trazado 203318" d="M505.193,1699.618l-.07-.009a1.511,1.511,0,0,1-1.334-1.681l14.669-99.3,5.371.154-17.26,99.837A1.234,1.234,0,0,1,505.193,1699.618Z" transform="translate(-503.777 -1598.628)" fill="#182d4f"/>
        </g>
        <g id="Grupo_151470" data-name="Grupo 151470" transform="translate(33.961 3.029)">
          <path id="Trazado_203319" data-name="Trazado 203319" d="M573.765,1699.618l-.071-.009a1.512,1.512,0,0,1-1.334-1.681l14.67-99.3,5.371.154-17.26,99.837A1.234,1.234,0,0,1,573.765,1699.618Z" transform="translate(-572.348 -1598.628)" fill="#182d4f"/>
        </g>
      </g>
      <path id="Rectángulo_295865" data-name="Rectángulo 295865" d="M.878,0H456.291a.878.878,0,0,1,.878.878v0a.878.878,0,0,1-.878.878H.878A.878.878,0,0,1,0,.878v0A.878.878,0,0,1,.878,0Z" transform="translate(200.522 1537.856)" fill="#2e3552"/>
      <g id="Grupo_151472" data-name="Grupo 151472" transform="translate(459.772 1337.643)">
        <path id="Trazado_203320" data-name="Trazado 203320" d="M749.955,1787.206h29.11c1.4-1.708.884-8.013.673-10.072-.044-.414-.074-.656-.074-.656s-9.941-7.951-11.306-1.863c-.041.191-.092.377-.147.562-1.72,5.695-9.436,8.283-13.892,9C751.422,1784.65,750.351,1786.156,749.955,1787.206Z" transform="translate(-737.089 -1586.135)" fill="#233862"/>
        <path id="Trazado_203321" data-name="Trazado 203321" d="M846.567,1611.389c-1.05,0-49.864,9.165-57.938,19.16-4.033,4.993-4.633,62.656-4.633,62.656s4.99,6.187,15.768,2.594c0,0,7.9-39.452,7.319-51.418-.161-3.309,33.351-.479,39.485-2.066s21.121-14.931,17.819-21.431S846.567,1611.389,846.567,1611.389Z" transform="translate(-754.271 -1504.908)" fill="#333baf"/>
        <path id="Trazado_203322" data-name="Trazado 203322" d="M775.252,1582.879s-9.846.133-12.175,1.131-7.053,3.289-5.788,3.64,7.3-.145,8.6.055a21.965,21.965,0,0,0,3.709-.055h4.522Z" transform="translate(-740.685 -1490.518)" fill="#ffb27d"/>
        <path id="Trazado_203323" data-name="Trazado 203323" d="M750.176,1521.806a17.988,17.988,0,0,0-6.617-2.865,28.713,28.713,0,0,1-4.76-.982c-3.008-1.06-9.027-6.472-8.571-7.107,1.46-2.034,8.486,2.271,9.712,1.809s-2.357-3.01-1.11-3.906c.651-.468,2.174,1.877,3.419,2.113,1.684.319,3,2.7,3.508,2.821.987.242,5.31,3.457,5.31,3.457Z" transform="translate(-727.121 -1453.074)" fill="#ffb27d"/>
        <path id="Trazado_203324" data-name="Trazado 203324" d="M845.487,1478.6s-7.5,2.323-14.88,22.658-10.189,21.434-12.873,22.232-26.246,5.489-26.246,5.489v6.035h36.3s13.613-12.95,17.695-21.667S845.487,1478.6,845.487,1478.6Z" transform="translate(-758.052 -1437.887)" fill="#dce736"/>
        <path id="Trazado_203325" data-name="Trazado 203325" d="M723.978,1787.206h29.11c1.4-1.708.884-8.013.672-10.072-.044-.414-.073-.656-.073-.656s-9.94-7.951-11.306-1.863c-.042.191-.092.377-.148.562-1.72,5.695-9.436,8.283-13.892,9C725.445,1784.65,724.374,1786.156,723.978,1787.206Z" transform="translate(-723.978 -1586.135)" fill="#1b3051"/>
        <path id="Trazado_203326" data-name="Trazado 203326" d="M817.524,1611.389c-1.051,0-49.864,9.165-57.939,19.16-4.033,4.993-4.633,62.656-4.633,62.656s4.991,6.187,15.768,2.594c0,0,7.9-39.452,7.318-51.418-.161-3.309,33.352-.479,39.486-2.066s21.121-14.931,17.818-21.431S817.524,1611.389,817.524,1611.389Z" transform="translate(-739.612 -1504.908)" fill="#3d46c2"/>
        <path id="Trazado_203327" data-name="Trazado 203327" d="M884.347,1465.01a47.393,47.393,0,0,0,10.375-2.258c3.978-1.291,7.184-3.177,5.118-6.813-1.9-3.351-4.986-10.836-4.778-17.037l-7.4,5.965-5.028,4.051a60.294,60.294,0,0,0,.57,6.575c.1.763.218,1.587.357,2.467a1.793,1.793,0,0,1-.827,1.8l-.113.071A2.807,2.807,0,0,0,884.347,1465.01Z" transform="translate(-803.379 -1417.848)" fill="#ffb27d"/>
        <path id="Trazado_203328" data-name="Trazado 203328" d="M883.923,1453.962s-.258.867.185,4.069c4.482-.731,8.673-4.306,8.673-4.306-2.282-.627-3.112-3.092-4.812-2.863Z" transform="translate(-804.67 -1423.877)" fill="#ed975d"/>
        <path id="Trazado_203329" data-name="Trazado 203329" d="M872.2,1429.54s17.242,2.865,18.861-7.9,4.934-17.645-6.006-19.929-13.7,1.5-15.116,4.963S867.756,1428.517,872.2,1429.54Z" transform="translate(-797.092 -1398.725)" fill="#ffb27d"/>
        <path id="Trazado_203330" data-name="Trazado 203330" d="M865.783,1399.575c-.74,2.592,1.241,5.75,4.567,6.789,4.938,1.543,3.847,7.6,6.068,7.517s3.118-3.481,5.1-.766c1.693,2.317-1.409,5.063-1.2,6.333.367,2.181,3.783,6.643,6.861,6.419s8.839-14.854,7.687-19.38-5.76-9.3-10.122-9.957-10.418,1.225-11.818,1.225S866.184,1398.175,865.783,1399.575Z" transform="translate(-795.474 -1396.391)" fill="#2b478b"/>
        <path id="Trazado_203331" data-name="Trazado 203331" d="M902.86,1487.833c-2.492-10.031-9.38-20.556-14.037-20.547-7.936.015-19.344,2.109-23.951,13.472-3.393,8.369-7.918,56.51-2.8,59.934,11.691,7.827,38.791,23.8,43.6,7.511C910.083,1533.274,907.185,1505.241,902.86,1487.833Z" transform="translate(-792.515 -1432.174)" fill="#75b62f"/>
        <path id="Trazado_203332" data-name="Trazado 203332" d="M832.538,1482.468a9.4,9.4,0,0,0-14.546-4.051,88.938,88.938,0,0,0-9.976,9.322c-14.81,15.771-17.82,15.673-20.6,15.348s-26.282-5.314-26.282-5.314a7.107,7.107,0,0,0-1.912,2.323,4.375,4.375,0,0,0-.47,3.223c-.921-.595,8.33,5.782,12.935,8.324,6.081,3.357,15.244,6.505,18.893,7.7a4.877,4.877,0,0,0,3.174-.048c5.417-1.952,23.608-9.067,38.416-21.412C836.071,1494.631,834.637,1487.928,832.538,1482.468Z" transform="translate(-741.468 -1436.791)" fill="#dce736"/>
        <path id="Trazado_203333" data-name="Trazado 203333" d="M899.071,1463.356l-1.8-4.048s-16.083,1.312-18.786,10.466C878.488,1469.774,890.955,1463.552,899.071,1463.356Z" transform="translate(-801.964 -1428.147)" fill="#fff"/>
      </g>
      <g id="Grupo_151476" data-name="Grupo 151476" transform="translate(504.559 1401.019)">
        <g id="Grupo_151473" data-name="Grupo 151473" transform="translate(81.657 75.212)">
          <path id="Trazado_203334" data-name="Trazado 203334" d="M988.993,1738.337l.112,0a1.508,1.508,0,0,0,1.524-1.613l-6.059-60.5-5.287.472,8.7,60.83A.984.984,0,0,0,988.993,1738.337Z" transform="translate(-979.283 -1676.218)" fill="#8cb4f4"/>
        </g>
        <g id="Grupo_151474" data-name="Grupo 151474" transform="translate(50.474 75.212)">
          <path id="Trazado_203335" data-name="Trazado 203335" d="M926.031,1738.337l.111,0a1.507,1.507,0,0,0,1.524-1.613l-6.058-60.5-5.286.472,8.7,60.83A.984.984,0,0,0,926.031,1738.337Z" transform="translate(-916.321 -1676.218)" fill="#8cb4f4"/>
        </g>
        <g id="Grupo_151475" data-name="Grupo 151475" transform="translate(0 75.212)">
          <path id="Trazado_203336" data-name="Trazado 203336" d="M816.05,1738.337l-.111,0a1.507,1.507,0,0,1-1.524-1.613l6.059-60.5,5.286.472-8.7,60.83A.984.984,0,0,1,816.05,1738.337Z" transform="translate(-814.408 -1676.218)" fill="#73a2e5"/>
        </g>
        <path id="Trazado_203337" data-name="Trazado 203337" d="M941.217,1591l5.75-50.534c.754-7.283-1.683-14.413-12.192-14.965l-18.488-1.126c-10.957-.452-15.9,8.668-17.292,15.689l-10.976,55.549Z" transform="translate(-851.562 -1524.355)" fill="#8cb4f4"/>
        <path id="Rectángulo_295866" data-name="Rectángulo 295866" d="M4.843,0H88.049a0,0,0,0,1,0,0V4.843a4.843,4.843,0,0,1-4.843,4.843H4.843A4.843,4.843,0,0,1,0,4.843v0A4.843,4.843,0,0,1,4.843,0Z" transform="translate(1.513 66.411)" fill="#73a2e5"/>
        <path id="Rectángulo_295867" data-name="Rectángulo 295867" d="M4.7,0H53.105a0,0,0,0,1,0,0V4.985a4.7,4.7,0,0,1-4.7,4.7H4.7A4.7,4.7,0,0,1,0,4.986V4.7A4.7,4.7,0,0,1,4.7,0Z" transform="translate(36.458 66.411)" fill="#8cb4f4"/>
      </g>
    </g>
  </g>
</svg>
