<svg xmlns="http://www.w3.org/2000/svg" width="150" height="150" viewBox="0 0 150 150">
  <g id="Grupo_158123" data-name="Grupo 158123" transform="translate(11089.672 1481.18)">
    <g id="Grupo_158079" data-name="Grupo 158079">
      <g id="Grupo_158000" data-name="Grupo 158000" transform="translate(-11294 -12789)">
        <g id="Elipse_5958" data-name="Elipse 5958" transform="translate(204.328 11307.82)" fill="#fff" stroke="#77b43a" stroke-width="4">
          <circle cx="75" cy="75" r="75" stroke="none"/>
          <circle cx="75" cy="75" r="73" fill="none"/>
        </g>
        <g id="Grupo_157985" data-name="Grupo 157985" transform="translate(231.773 10999.551)">
          <path id="Trazado_205795" data-name="Trazado 205795" d="M110.5,399.945l-3.671-.28a9.573,9.573,0,0,0-.749-1.85l2.458-2.777A.757.757,0,0,0,108.51,394l-2.46-2.458a.755.755,0,0,0-1.025-.039l-2.793,2.4a9.627,9.627,0,0,0-1.839-.779l-.225-3.7a.755.755,0,0,0-.754-.709H95.938a.754.754,0,0,0-.752.7l-.281,3.671a9.543,9.543,0,0,0-1.984.822l-2.793-2.4a.756.756,0,0,0-1.025.039L86.644,394a.755.755,0,0,0-.032,1.034l2.458,2.777a9.537,9.537,0,0,0-.748,1.85l-3.671.281a.755.755,0,0,0-.7.753v3.476a.756.756,0,0,0,.709.754l3.7.224a9.564,9.564,0,0,0,.779,1.839l-2.4,2.794a.753.753,0,0,0,.039,1.025l2.458,2.458a.754.754,0,0,0,1.034.032l2.777-2.458a9.594,9.594,0,0,0,1.85.748l.28,3.671a.755.755,0,0,0,.753.7h3.477a.755.755,0,0,0,.754-.709l.225-3.7a9.512,9.512,0,0,0,1.7-.707l2.777,2.458a.754.754,0,0,0,1.034-.032l2.458-2.458a.753.753,0,0,0,.039-1.025l-2.4-2.794a9.6,9.6,0,0,0,.779-1.839l3.7-.224a.754.754,0,0,0,.709-.753V400.7A.755.755,0,0,0,110.5,399.945Zm-12.925,6.385a3.994,3.994,0,1,1,3.994-3.994A3.995,3.995,0,0,1,97.577,406.331Z" transform="translate(-38.978 -25.745)" fill="#dce736"/>
          <path id="Trazado_205796" data-name="Trazado 205796" d="M65.181,364.333l-3.709-.284a15.269,15.269,0,0,0-1.614-3.976l2.5-2.818a1.089,1.089,0,0,0-.046-1.491l-3.545-3.545a1.089,1.089,0,0,0-1.479-.056l-2.824,2.423a15.308,15.308,0,0,0-3.952-1.674l-.228-3.754a1.088,1.088,0,0,0-1.087-1.023H44.179a1.089,1.089,0,0,0-1.085,1.006l-.284,3.709a15.327,15.327,0,0,0-4.187,1.735L35.8,352.161a1.091,1.091,0,0,0-1.479.057l-3.545,3.545a1.09,1.09,0,0,0-.045,1.492l2.495,2.817a15.285,15.285,0,0,0-1.613,3.976l-3.71.284a1.089,1.089,0,0,0-1.006,1.085v5.014a1.089,1.089,0,0,0,1.023,1.087l3.753.228a15.305,15.305,0,0,0,1.674,3.953l-2.423,2.823A1.088,1.088,0,0,0,30.98,380l3.545,3.545a1.089,1.089,0,0,0,1.491.046l2.817-2.495a15.3,15.3,0,0,0,3.977,1.613l.283,3.709a1.089,1.089,0,0,0,1.085,1.006h5.014a1.088,1.088,0,0,0,1.086-1.023l.229-3.754a15.233,15.233,0,0,0,3.74-1.553l2.818,2.494a1.088,1.088,0,0,0,1.491-.045L62.1,380a1.089,1.089,0,0,0,.056-1.479L59.736,375.7a15.268,15.268,0,0,0,1.674-3.953l3.754-.228a1.088,1.088,0,0,0,1.022-1.087v-5.014A1.088,1.088,0,0,0,65.181,364.333ZM46.542,376.571a8.79,8.79,0,1,1,8.79-8.79A8.79,8.79,0,0,1,46.542,376.571Z" transform="translate(-12.487 -6.905)" fill="#a7c7d3"/>
          <path id="Trazado_205797" data-name="Trazado 205797" d="M90.811,397.771l-1.168-1.361q.187-.414.354-.836l1.83-.111c.082-.005.162-.017.243-.027l-1.943-1.667a.755.755,0,0,0-1.025.039l-2.458,2.458a.755.755,0,0,0-.032,1.034l2.458,2.777a9.538,9.538,0,0,0-.748,1.85l-3.671.281a.754.754,0,0,0-.7.753v3.476a.755.755,0,0,0,.709.754l1.579.1a3.912,3.912,0,0,0,.82-.625l3.545-3.545A3.953,3.953,0,0,0,90.811,397.771Z" transform="translate(-38.978 -28.007)" fill="#618aaa"/>
          <path id="Trazado_205798" data-name="Trazado 205798" d="M105.145,389.38v-.433a.752.752,0,0,0-.339.573l-.131,1.718A3.907,3.907,0,0,0,105.145,389.38Z" transform="translate(-48.598 -25.853)" fill="#618aaa"/>
          <path id="Trazado_205799" data-name="Trazado 205799" d="M65.181,364.333l-3.709-.284a15.269,15.269,0,0,0-1.614-3.976l2.5-2.818a1.089,1.089,0,0,0-.046-1.491l-3.545-3.545a1.089,1.089,0,0,0-1.479-.056l-2.824,2.423a15.308,15.308,0,0,0-3.952-1.674l-.228-3.754a1.088,1.088,0,0,0-1.087-1.023H44.179a1.089,1.089,0,0,0-1.085,1.006l-.284,3.709a15.327,15.327,0,0,0-4.187,1.735L35.8,352.161a1.091,1.091,0,0,0-1.479.057l-3.545,3.545a1.09,1.09,0,0,0-.045,1.492l2.495,2.817a15.285,15.285,0,0,0-1.613,3.976l-3.71.284a1.089,1.089,0,0,0-1.006,1.085v5.014a1.089,1.089,0,0,0,1.023,1.087l3.753.228a15.305,15.305,0,0,0,1.674,3.953l-2.423,2.823A1.088,1.088,0,0,0,30.98,380l3.545,3.545a1.089,1.089,0,0,0,1.491.046l2.817-2.495a15.3,15.3,0,0,0,3.977,1.613l.283,3.709a1.089,1.089,0,0,0,1.085,1.006h5.014a1.088,1.088,0,0,0,1.086-1.023l.229-3.754a15.233,15.233,0,0,0,3.74-1.553l2.818,2.494a1.088,1.088,0,0,0,1.491-.045L62.1,380a1.089,1.089,0,0,0,.056-1.479L59.736,375.7a15.268,15.268,0,0,0,1.674-3.953l3.754-.228a1.088,1.088,0,0,0,1.022-1.087v-5.014A1.088,1.088,0,0,0,65.181,364.333ZM46.542,376.571a8.79,8.79,0,1,1,8.79-8.79A8.79,8.79,0,0,1,46.542,376.571Z" transform="translate(-12.487 -6.905)" fill="#75b62f"/>
          <path id="Trazado_205800" data-name="Trazado 205800" d="M27,418.308a1.863,1.863,0,0,1-1.177-.268l-8.505-5.45a3.628,3.628,0,0,0-4.679.655l-.645.732a6.028,6.028,0,0,0-1.507,3.938L10.4,429l9.7-.131.115-8.561,4.864,2.7a1.865,1.865,0,0,0,1.133.221l7.119-.876a5.257,5.257,0,0,0,4.615-5.217Z" transform="translate(-4.827 -36.564)" fill="#ff84a7"/>
          <path id="Trazado_205801" data-name="Trazado 205801" d="M34.624,421.938a10.338,10.338,0,0,1-11.349,2.178l-2.762-1.535a1.436,1.436,0,0,0-2.134,1.235,6.325,6.325,0,0,1-6.24,6.241l-1.714.022-.027,3.365,9.7-.131.115-8.561,4.864,2.7a1.865,1.865,0,0,0,1.133.221l7.119-.876a5.257,5.257,0,0,0,4.615-5.218Z" transform="translate(-4.827 -41.006)" fill="#ef6085"/>
          <path id="Trazado_205802" data-name="Trazado 205802" d="M20.1,443.48l9.9,10.3a2.844,2.844,0,0,1,.408,3.468l-5.9,14.359H21.1l2.854-12.7a1.067,1.067,0,0,0-.128-1.022L10.4,443.611Z" transform="translate(-4.827 -51.172)" fill="#dce736"/>
          <path id="Trazado_205803" data-name="Trazado 205803" d="M7.268,443.611l9.7-.131-9.7,28.126H3.658Z" transform="translate(-1.698 -51.172)" fill="#dce736"/>
          <path id="Trazado_205804" data-name="Trazado 205804" d="M15.068,398.3l-.307,3.248a2.775,2.775,0,0,0,2.5,3.024l1.286.122a2.776,2.776,0,0,0,3.024-2.5l.307-3.248a2.776,2.776,0,0,0-2.5-3.025l-1.285-.121A2.775,2.775,0,0,0,15.068,398.3Z" transform="translate(-6.848 -29.028)" fill="#fedfc5"/>
          <path id="Trazado_205805" data-name="Trazado 205805" d="M146.762,411.46l-18.184-9.877a6.7,6.7,0,0,0,2.98,7.5l9.151,5.56-.176,11.317,8.861,3.632V415.885A5.035,5.035,0,0,0,146.762,411.46Z" transform="translate(-59.584 -31.72)" fill="#83d9ff"/>
          <path id="Trazado_205806" data-name="Trazado 205806" d="M137.978,415.14a5.239,5.239,0,0,0-2.518-4.559l-6.586-4c-.159-.1-.311-.2-.458-.3a6.694,6.694,0,0,0,3.178,4.986Z" transform="translate(-59.62 -33.898)" fill="#5fc9ed"/>
          <path id="Trazado_205807" data-name="Trazado 205807" d="M157.33,419.977l-.087-.047v6.921a4.412,4.412,0,0,1-6.086,4.083l-.055,3.544,8.862,3.632V424.4A5.037,5.037,0,0,0,157.33,419.977Z" transform="translate(-70.152 -40.238)" fill="#5fc9ed"/>
          <path id="Trazado_205808" data-name="Trazado 205808" d="M143.623,447.086l-8.084,11.236a2.9,2.9,0,0,0-.53,1.991l1.367,13.164h3.2l.829-10.517a2.894,2.894,0,0,1,.919-1.9l11.165-10.345Z" transform="translate(-62.674 -52.846)" fill="#38627c"/>
          <path id="Trazado_205809" data-name="Trazado 205809" d="M159.432,450.718l-2.5,10.1a2.665,2.665,0,0,0,.228,1.883l5.664,10.773h-3.39l-8.7-10.13a3.2,3.2,0,0,1-.77-2.225l.61-14.037Z" transform="translate(-69.622 -52.846)" fill="#4f7693"/>
          <path id="Trazado_205810" data-name="Trazado 205810" d="M157.51,404.054l-1.487,2.9a2.775,2.775,0,0,0,1.2,3.736l1.149.589a2.775,2.775,0,0,0,3.736-1.2l1.488-2.9a2.776,2.776,0,0,0-1.205-3.736l-1.149-.589A2.775,2.775,0,0,0,157.51,404.054Z" transform="translate(-72.296 -32.165)" fill="#fedfc5"/>
          <path id="Trazado_205811" data-name="Trazado 205811" d="M104.713,404.085a5.388,5.388,0,1,0,5.388,5.388A5.394,5.394,0,0,0,104.713,404.085Zm0,7.988a2.6,2.6,0,1,1,2.6-2.6A2.6,2.6,0,0,1,104.713,412.073Z" transform="translate(-46.114 -32.881)"/>
          <path id="Trazado_205812" data-name="Trazado 205812" d="M63.06,372.809a1.394,1.394,0,0,0-1.079,1.65,7.4,7.4,0,1,1-7.24-5.874,7.311,7.311,0,0,1,4.6,1.608,1.394,1.394,0,1,0,1.737-2.181,10.161,10.161,0,1,0,3.627,5.877A1.4,1.4,0,0,0,63.06,372.809Z" transform="translate(-20.687 -15.105)"/>
          <path id="Trazado_205813" data-name="Trazado 205813" d="M7.039,502.3H1.394a1.394,1.394,0,0,0,0,2.788H7.039a1.394,1.394,0,0,0,0-2.788Z" transform="translate(0 -78.48)"/>
          <path id="Trazado_205814" data-name="Trazado 205814" d="M33.855,502.3H28.21a1.394,1.394,0,1,0,0,2.788h5.645a1.394,1.394,0,0,0,0-2.788Z" transform="translate(-12.45 -78.48)"/>
          <path id="Trazado_205815" data-name="Trazado 205815" d="M89.243,427.238a1.4,1.4,0,0,0,1.058.485h3.39a1.394,1.394,0,0,0,1.234-2.043l-5.664-10.773a1.274,1.274,0,0,1-.11-.9l2.5-10.1V403.9c0-.006,0-.013,0-.019.007-.033.014-.065.02-.1l0-.031v0l0-.022c0-.024.005-.049.007-.073,0-.009,0-.019,0-.029,0-.031,0-.06,0-.09v-2.625a1.394,1.394,0,1,0-2.788,0v.575l-6.059-2.483.123-7.932.8.483a1.394,1.394,0,0,0,1.448-2.383l-2.888-1.755-.033-.02-9.1-5.532a5.328,5.328,0,0,1-2.528-4.083l13.9,7.549c.076.045.149.091.228.131l.236.121L87,386.662a3.64,3.64,0,0,1,1.9,3.2v5.455a1.394,1.394,0,0,0,2.788,0v-5.455a6.422,6.422,0,0,0-1.475-4.095,4.146,4.146,0,0,0,1.33-1.524l1.487-2.9a4.169,4.169,0,0,0-1.81-5.612l-1.15-.589a4.174,4.174,0,0,0-5.612,1.81l-1.487,2.9a4.169,4.169,0,0,0-.4,1.229l-11.026-5.988a2.14,2.14,0,0,0-.539-2.124l-2.458-2.46a2.156,2.156,0,0,0-2.92-.11l-2.095,1.8c-.1-.043-.194-.085-.294-.124l-.17-2.785a2.153,2.153,0,0,0-2.145-2.017H57.45a2.156,2.156,0,0,0-1.866,1.091v-4.151a2.494,2.494,0,0,0-2.293-2.476l-2.739-.209a16.8,16.8,0,0,0-1-2.465l1.849-2.089a2.486,2.486,0,0,0-.1-3.4l-3.545-3.546a2.493,2.493,0,0,0-3.372-.129l-2.086,1.789a16.7,16.7,0,0,0-2.45-1.038l-.17-2.782a2.486,2.486,0,0,0-2.478-2.333H32.182a2.493,2.493,0,0,0-2.475,2.294l-.209,2.739a16.692,16.692,0,0,0-2.7,1.12L24.711,349.9a2.492,2.492,0,0,0-3.372.129l-3.545,3.545a2.486,2.486,0,0,0-.1,3.4l1.85,2.089a16.519,16.519,0,0,0-1,2.465l-2.74.209a2.494,2.494,0,0,0-2.293,2.476v5.014a2.487,2.487,0,0,0,2.331,2.478l2.783.169a16.721,16.721,0,0,0,1.038,2.45l-1.788,2.086A2.493,2.493,0,0,0,18,379.779l3.545,3.545a2.486,2.486,0,0,0,3.4.1l2.089-1.849a16.722,16.722,0,0,0,2.465,1l.207,2.71-7.187.766a.474.474,0,0,1-.29-.064l-6.873-4.4a4.143,4.143,0,0,0,1.25-2.594l.307-3.249a4.169,4.169,0,0,0-3.76-4.542l-1.286-.122a4.17,4.17,0,0,0-4.543,3.76l-.307,3.248a4.14,4.14,0,0,0,.785,2.845,5.207,5.207,0,0,0-.543.524l-.646.732a7.426,7.426,0,0,0-1.855,4.849l-.092,11-3.6,27.912a1.394,1.394,0,0,0,1.382,1.572H6.06a1.394,1.394,0,0,0,1.317-.939l8.961-25.973,8.334,8.67a1.444,1.444,0,0,1,.208,1.766,1.406,1.406,0,0,0-.1.192l-5.547,13.5H18.5l2.454-10.92a2.451,2.451,0,0,0-.339-2.23,1.469,1.469,0,0,0-.114-.137l-2.57-2.731a1.394,1.394,0,0,0-2.03,1.911l2.351,2.5-2.853,12.7a1.393,1.393,0,0,0,1.36,1.7H20.17a1.394,1.394,0,0,0,1.289-.864l5.866-14.27a4.226,4.226,0,0,0-.656-5.053l-9.505-9.888.076-5.654,2.824,1.57a3.232,3.232,0,0,0,1.981.385l7.118-.876a6.66,6.66,0,0,0,5.7-5.264H37.2a2.487,2.487,0,0,0,2.478-2.333l.169-2.782a16.671,16.671,0,0,0,2.214-.919l2.016,1.784v.764a2.152,2.152,0,0,0,2.017,2.145l2.783.17c.041.1.082.2.125.293l-1.8,2.1a2.16,2.16,0,0,0,.113,2.916l2.462,2.464a2.155,2.155,0,0,0,2.941.085l2.087-1.847q.147.062.3.119l.21,2.747a2.154,2.154,0,0,0,2.142,1.99h3.477a2.152,2.152,0,0,0,2.145-2.017l.17-2.783.135-.056,2.087,1.847a2.156,2.156,0,0,0,2.945-.088l2.457-2.46a2.161,2.161,0,0,0,.112-2.918l-1.8-2.1c.042-.1.085-.194.124-.293l2.785-.17a2.144,2.144,0,0,0,1.578-.849l6.541,3.975-.157,10.079L72.224,410.36a4.289,4.289,0,0,0-.784,2.949l1.366,13.164a1.4,1.4,0,0,0,1.387,1.25h3.2a1.394,1.394,0,0,0,1.39-1.285l.827-10.515a1.479,1.479,0,0,1,.069-.341,4.569,4.569,0,0,0,.868,1.526Zm-3.87-45.059a1.373,1.373,0,0,1,.086-1.054l1.487-2.9a1.384,1.384,0,0,1,1.859-.6l1.15.588a1.383,1.383,0,0,1,.6,1.859l-1.487,2.9a1.382,1.382,0,0,1-1.86.6l-.879-.449-.417-.227A1.372,1.372,0,0,1,85.373,382.179ZM55.212,370.528l-.113,1.481c-.154.059-.306.123-.456.189l-.732-.628A2.492,2.492,0,0,0,55.212,370.528ZM9.792,378.348,10.1,375.1a1.38,1.38,0,0,1,1.373-1.252c.043,0,.088,0,.132.006l1.286.121a1.382,1.382,0,0,1,1.246,1.505l-.307,3.249a1.383,1.383,0,0,1-1.313,1.249,4.971,4.971,0,0,0-1.853-.216A1.383,1.383,0,0,1,9.792,378.348ZM5.066,424.737H4.036l3.252-25.223,6.51-.088ZM28.823,390.11l-7.119.876a.469.469,0,0,1-.285-.055l-4.842-2.693-.046-.025-3.287-1.827a1.394,1.394,0,1,0-1.354,2.437l2.582,1.436-.085,6.371-6.921.093.08-9.662A4.631,4.631,0,0,1,8.7,384.032l.646-.732a2.225,2.225,0,0,1,1.186-.7c.08.012.159.027.241.035l1.167.11a2.211,2.211,0,0,1,.288.156l8.5,5.45.019.012a3.284,3.284,0,0,0,2.058.468l9.059-.965A3.869,3.869,0,0,1,28.823,390.11Zm12.73-11.426a13.932,13.932,0,0,1-3.4,1.411,1.394,1.394,0,0,0-1.033,1.263l-.211,3.467H32.465L32.2,381.4a1.394,1.394,0,0,0-1.053-1.247,13.912,13.912,0,0,1-3.613-1.466,1.392,1.392,0,0,0-1.623.162l-2.6,2.3-3.142-3.142,2.239-2.61a1.394,1.394,0,0,0,.137-1.626,13.918,13.918,0,0,1-1.522-3.592,1.4,1.4,0,0,0-1.262-1.033l-3.467-.211v-4.443l3.428-.262a1.4,1.4,0,0,0,1.247-1.053,13.88,13.88,0,0,1,1.466-3.613,1.393,1.393,0,0,0-.162-1.623l-2.3-2.6L23.11,352.2l2.61,2.238a1.391,1.391,0,0,0,1.626.137A13.91,13.91,0,0,1,31.151,353a1.392,1.392,0,0,0,1.053-1.247l.262-3.427h4.444l.211,3.466a1.394,1.394,0,0,0,1.033,1.263,13.922,13.922,0,0,1,3.593,1.521,1.393,1.393,0,0,0,1.626-.136l2.609-2.239,3.142,3.141-2.3,2.6a1.394,1.394,0,0,0-.162,1.623,13.887,13.887,0,0,1,1.466,3.613,1.4,1.4,0,0,0,1.247,1.054l3.428.261v4.443l-3.467.211a1.4,1.4,0,0,0-1.263,1.033,13.9,13.9,0,0,1-1.521,3.592,1.394,1.394,0,0,0,.137,1.626l2.238,2.61-3.142,3.142-2.6-2.3A1.393,1.393,0,0,0,41.553,378.684Zm26.665,5.032a1.4,1.4,0,0,0-1.248.983,8.213,8.213,0,0,1-.666,1.57,1.394,1.394,0,0,0,.161,1.584l2.011,2.343-1.614,1.616-2.327-2.059a1.393,1.393,0,0,0-1.582-.185,8.19,8.19,0,0,1-1.456.6,1.4,1.4,0,0,0-.983,1.248l-.189,3.1H58.044l-.236-3.082A1.4,1.4,0,0,0,56.8,390.2a8.108,8.108,0,0,1-1.578-.637,1.4,1.4,0,0,0-1.581.186l-2.327,2.059L49.7,390.195l2.012-2.343a1.4,1.4,0,0,0,.161-1.584,8.223,8.223,0,0,1-.666-1.57,1.4,1.4,0,0,0-1.248-.983l-2.68-.163a2.526,2.526,0,0,0,.266-.227s4.252-4.873,4.27-4.907a1.4,1.4,0,0,0-.189-1.574L50.613,375.7l-.011-.013-.022-.025-.024-.027-.972-1.134,1.6-1.6,2.344,2.012a1.392,1.392,0,0,0,1.585.161,8.133,8.133,0,0,1,1.7-.7,1.4,1.4,0,0,0,1-1.234l.236-3.081h2.282l.189,3.1a1.4,1.4,0,0,0,.983,1.248,8.237,8.237,0,0,1,1.57.666,1.393,1.393,0,0,0,1.584-.162L67,372.9l1.591,1.593a1.387,1.387,0,0,0-.349.441l-1.689,1.907a1.393,1.393,0,0,0-.186,1.581,8.192,8.192,0,0,1,.64,1.583,1.4,1.4,0,0,0,1.232,1l.525.04a8.093,8.093,0,0,0,2.011,2.511Zm23.165,41.22h-.442l-8.284-9.644a1.8,1.8,0,0,1-.434-1.257l.523-12.056,5.913,2.424-2.214,8.935a4.06,4.06,0,0,0,.348,2.867ZM78.191,412.89a4.288,4.288,0,0,0-1.366,2.812l-.726,9.234h-.65l-1.236-11.911a1.506,1.506,0,0,1,.274-1.036l5.356-7.447-.308,7.1Z" transform="translate(-0.491 -5.697)"/>
          <path id="Trazado_205816" data-name="Trazado 205816" d="M168.832,502.3h-5.645a1.394,1.394,0,0,0,0,2.788h5.645a1.394,1.394,0,0,0,0-2.788Z" transform="translate(-75.117 -78.48)"/>
          <path id="Trazado_205817" data-name="Trazado 205817" d="M137.833,502.3h-5.645a1.394,1.394,0,0,0,0,2.788h5.645a1.394,1.394,0,0,0,0-2.788Z" transform="translate(-60.724 -78.48)"/>
          <path id="Trazado_205818" data-name="Trazado 205818" d="M112.569,376.714a16.16,16.16,0,0,1,12.688,6.1l-1.04-.252a1.394,1.394,0,0,0-.657,2.71l4.329,1.049a1.4,1.4,0,0,0,1.794-1l1-4.107a1.394,1.394,0,1,0-2.709-.656l-.222.916a18.931,18.931,0,0,0-15.177-7.543,1.394,1.394,0,1,0,0,2.788Z" transform="translate(-51.616 -18.879)"/>
          <path id="Trazado_205819" data-name="Trazado 205819" d="M11.755,350.553a1.5,1.5,0,0,0,1.892,1.116l4.594-1.678a1.394,1.394,0,1,0-.956-2.619l-1.363.5a23.854,23.854,0,0,1,20.65-11.82,1.394,1.394,0,1,0,0-2.788,26.63,26.63,0,0,0-23.231,13.5l-.541-1.48a1.394,1.394,0,0,0-2.619.957Z" transform="translate(-4.688 0)"/>
        </g>
      </g>
    </g>
  </g>
</svg>
