<svg xmlns="http://www.w3.org/2000/svg" xmlns:xlink="http://www.w3.org/1999/xlink" width="367.483" height="198.698" viewBox="0 0 367.483 198.698">
  <defs>
    <clipPath id="clip-path">
      <path id="Trazado_205219" data-name="Trazado 205219" d="M347.792,1236.5a30.446,30.446,0,1,0,30.446,30.446A30.446,30.446,0,0,0,347.792,1236.5Zm0,46.574a16.129,16.129,0,1,1,16.129-16.128A16.129,16.129,0,0,1,347.792,1283.072Z" transform="translate(-317.346 -1236.497)" fill="none"/>
    </clipPath>
  </defs>
  <g id="Grupo_158116" data-name="Grupo 158116" transform="translate(10899.493 2709.73)">
    <g id="Grupo_158071" data-name="Grupo 158071">
      <g id="Grupo_158027" data-name="Grupo 158027" transform="translate(-167.01 -1568.337)">
        <path id="Trazado_205204" data-name="Trazado 205204" d="M214.562,1369.072s-41.248-32.791-18.537-78.2-8.947-61.134,13.076-70.487,34.2,11.019,95.174-5.9,183.462-45.037,211.441-24.107-52.041,78.424-14.234,77.99c76.505-.88,62.085,77.788,25.08,103.172C507.8,1384.406,214.562,1369.072,214.562,1369.072Z" transform="translate(-10921.684 -2324.323)" fill="#e7f3fe"/>
        <path id="Trazado_205205" data-name="Trazado 205205" d="M572.674,1765.013c-56.489-22.975-325.272-12.946-342.711-6.128s3.4,11.406,48.277,8.882,102.627.281,152.227,1.632S609.294,1779.907,572.674,1765.013Z" transform="translate(-10945.575 -2716.115)" fill="#9bd6e8"/>
        <g id="Grupo_153478" data-name="Grupo 153478" transform="translate(-10708.888 -1131.449)">
          <g id="Grupo_153429" data-name="Grupo 153429" transform="translate(184.339 4.942)">
            <g id="Grupo_153424" data-name="Grupo 153424" transform="translate(0)">
              <path id="Trazado_205206" data-name="Trazado 205206" d="M940.041,1274.806a40.536,40.536,0,0,0,.254-4.508c0-.8-.027-1.6-.073-2.4l-7.449-2.41a32.754,32.754,0,0,0-2.637-8.925l4.939-6.078a40.253,40.253,0,0,0-3.912-5.688l-7.45,2.431a33.1,33.1,0,0,0-7.375-5.669l.424-7.828a39.881,39.881,0,0,0-6.5-2.3l-4.6,6.349a33.126,33.126,0,0,0-9.3-.244l-4.259-6.583a39.821,39.821,0,0,0-6.617,1.955l.01,7.839a33.058,33.058,0,0,0-7.665,5.273l-7.309-2.82a40.333,40.333,0,0,0-4.209,5.473l4.613,6.332a32.726,32.726,0,0,0-3.109,8.772l-7.565,2.013a40.549,40.549,0,0,0-.254,4.508c0,.8.027,1.6.073,2.4l7.449,2.41a32.737,32.737,0,0,0,2.637,8.925l-4.939,6.078a40.241,40.241,0,0,0,3.913,5.688l7.45-2.431a33.11,33.11,0,0,0,7.375,5.669l-.424,7.827a39.836,39.836,0,0,0,6.5,2.305l4.6-6.349a33.1,33.1,0,0,0,9.3.244l4.259,6.583a39.847,39.847,0,0,0,6.617-1.955l-.01-7.839a33.05,33.05,0,0,0,7.665-5.273l7.309,2.82a40.318,40.318,0,0,0,4.209-5.473l-4.612-6.332a32.752,32.752,0,0,0,3.109-8.772Zm-39.9,11.24a15.748,15.748,0,1,1,15.748-15.748A15.748,15.748,0,0,1,900.143,1286.046Z" transform="translate(-859.991 -1230.953)" fill="#eaf086"/>
              <g id="Grupo_153421" data-name="Grupo 153421" transform="translate(61.043 29.899)">
                <path id="Trazado_205207" data-name="Trazado 205207" d="M1057.5,1354.813a.589.589,0,0,1-.452-.965,26.641,26.641,0,0,0,4.694-25.662.589.589,0,0,1,1.113-.383,27.823,27.823,0,0,1-4.9,26.8A.588.588,0,0,1,1057.5,1354.813Z" transform="translate(-1056.913 -1327.405)" fill="#eaf086"/>
              </g>
              <g id="Grupo_153422" data-name="Grupo 153422" transform="translate(49.403 13.192)">
                <path id="Trazado_205208" data-name="Trazado 205208" d="M1029.312,1280.454a.587.587,0,0,1-.4-.16,26.444,26.444,0,0,0-9.157-5.642.589.589,0,0,1,.4-1.107,27.615,27.615,0,0,1,9.562,5.892.589.589,0,0,1-.4,1.017Z" transform="translate(-1019.364 -1273.51)" fill="#eaf086"/>
              </g>
              <g id="Grupo_153423" data-name="Grupo 153423" transform="translate(33.455 11.57)">
                <path id="Trazado_205209" data-name="Trazado 205209" d="M968.5,1270.279a.589.589,0,0,1-.143-1.16,27.892,27.892,0,0,1,6.819-.843.589.589,0,0,1,0,1.177,26.7,26.7,0,0,0-6.531.807A.6.6,0,0,1,968.5,1270.279Z" transform="translate(-967.916 -1268.276)" fill="#eaf086"/>
              </g>
            </g>
            <g id="Grupo_153428" data-name="Grupo 153428" transform="translate(77.473 23.743)">
              <path id="Trazado_205210" data-name="Trazado 205210" d="M1165.362,1337.922a28.024,28.024,0,0,0,.176-3.122c0-.557-.018-1.11-.051-1.659l-5.159-1.67a22.686,22.686,0,0,0-1.827-6.182l3.421-4.21a27.881,27.881,0,0,0-2.71-3.939l-5.16,1.684a22.915,22.915,0,0,0-5.108-3.927l.293-5.421a27.555,27.555,0,0,0-4.5-1.6l-3.186,4.4a22.934,22.934,0,0,0-6.441-.169l-2.95-4.56a27.591,27.591,0,0,0-4.583,1.354l.007,5.43a22.882,22.882,0,0,0-5.309,3.652l-5.062-1.953a27.894,27.894,0,0,0-2.915,3.791l3.195,4.386a22.689,22.689,0,0,0-2.154,6.076l-5.24,1.394a28.06,28.06,0,0,0-.176,3.123c0,.557.018,1.11.051,1.659l5.159,1.669a22.679,22.679,0,0,0,1.827,6.182l-3.421,4.21a27.839,27.839,0,0,0,2.71,3.939l5.16-1.684a22.915,22.915,0,0,0,5.108,3.926l-.294,5.422a27.619,27.619,0,0,0,4.5,1.6l3.186-4.4a22.948,22.948,0,0,0,6.442.169l2.95,4.56a27.628,27.628,0,0,0,4.584-1.354l-.007-5.43a22.875,22.875,0,0,0,5.309-3.652l5.062,1.953a27.943,27.943,0,0,0,2.916-3.791l-3.2-4.386a22.681,22.681,0,0,0,2.154-6.076Zm-27.635,7.786a10.908,10.908,0,1,1,10.908-10.908A10.908,10.908,0,0,1,1137.727,1345.708Z" transform="translate(-1109.916 -1307.548)" fill="#eaf086"/>
              <g id="Grupo_153425" data-name="Grupo 153425" transform="translate(42.1 20.528)">
                <path id="Trazado_205211" data-name="Trazado 205211" d="M1246.317,1393.116a.589.589,0,0,1-.452-.965,18.272,18.272,0,0,0,3.219-17.6.589.589,0,0,1,1.113-.383,19.449,19.449,0,0,1-3.427,18.736A.589.589,0,0,1,1246.317,1393.116Z" transform="translate(-1245.729 -1373.771)" fill="#eaf086"/>
              </g>
              <g id="Grupo_153426" data-name="Grupo 153426" transform="translate(34.038 8.956)">
                <path id="Trazado_205212" data-name="Trazado 205212" d="M1226.791,1341.613a.587.587,0,0,1-.4-.16,18.139,18.139,0,0,0-6.28-3.87.589.589,0,1,1,.4-1.107,19.309,19.309,0,0,1,6.685,4.119.589.589,0,0,1-.4,1.017Z" transform="translate(-1219.72 -1336.441)" fill="#eaf086"/>
              </g>
              <g id="Grupo_153427" data-name="Grupo 153427" transform="translate(22.991 7.833)">
                <path id="Trazado_205213" data-name="Trazado 205213" d="M1184.674,1334.565a.589.589,0,0,1-.143-1.159,19.493,19.493,0,0,1,4.767-.59.589.589,0,1,1,0,1.177,18.326,18.326,0,0,0-4.479.554A.58.58,0,0,1,1184.674,1334.565Z" transform="translate(-1184.086 -1332.816)" fill="#eaf086"/>
              </g>
            </g>
          </g>
          <g id="Grupo_153431" data-name="Grupo 153431" transform="translate(16.128 6.661)">
            <g id="Grupo_153430" data-name="Grupo 153430" clip-path="url(#clip-path)">
              <path id="Trazado_205214" data-name="Trazado 205214" d="M432,1351.542l-27.517-16.827-4.977,31.869A32.29,32.29,0,0,0,432,1351.542Z" transform="translate(-374.038 -1304.269)" fill="#a2dff2"/>
              <path id="Trazado_205215" data-name="Trazado 205215" d="M443.109,1317.571c.074-.122.171-.288.167-.282a32.256,32.256,0,0,0,.714-31.751c-9.738,5.1-3.939,2-28.428,15.244C443.126,1317.636,438.845,1315.037,443.109,1317.571Z" transform="translate(-385.117 -1270.336)" fill="#9cd499"/>
              <path id="Trazado_205216" data-name="Trazado 205216" d="M317.982,1251.849l30.249,11.146,28.376-15.344C363.333,1223.1,327.606,1226.048,317.982,1251.849Z" transform="translate(-317.785 -1232.549)" fill="#dce736"/>
              <path id="Trazado_205217" data-name="Trazado 205217" d="M338.739,1341.774l4.977-31.869-30.249-11.146C306.274,1318.043,319.041,1338.668,338.739,1341.774Z" transform="translate(-313.27 -1279.459)" fill="#f85316"/>
              <path id="Trazado_205218" data-name="Trazado 205218" d="M370.338,1277.074a33.455,33.455,0,0,0,.835-31.365l.018-.01-.509-.941-.032-.057-.416-.774-.016.009a32.932,32.932,0,0,0-13.3-12.9A33.6,33.6,0,0,0,310.5,1248.1l-.018-.007-.373,1-.375,1.007.018.007a32.911,32.911,0,0,0,2.821,27.191,33.357,33.357,0,0,0,22.592,16.056l0,.018,1.055.166,1.06.167,0-.018a33.355,33.355,0,0,0,31.97-14.838l.022.013.21-.343.005,0,.336-.562c.052-.086.115-.192.151-.253l.022-.038.017-.029.339-.555Zm-3.227-29.1,2.223-1.163a31.309,31.309,0,0,1-.8,29.115l-.2-.12c-1.124-.666-1.613-.955-3.853-2.321l-20.965-12.82,17.4-9.411C363.469,1249.882,364.516,1249.334,367.112,1247.977Zm-54.6.861a31.207,31.207,0,0,1,55.764-4l-8.38,4.532c-1.73.931-4.149,2.24-8.2,4.431l-10.04,5.431-.259.14-.843-.515-.046.294-13.252-4.883Zm1.913,27.378a30.778,30.778,0,0,1-2.661-25.372l19.926,7.342,8.483,3.126-4.674,29.925A31.225,31.225,0,0,1,314.424,1276.216Zm23.188,15.355,4.562-29.21,11.872,7.261c4.787,2.928,7.525,4.6,9.249,5.654l4.1,2.506A31.06,31.06,0,0,1,337.613,1291.571Z" transform="translate(-310.919 -1230.165)" fill="#e7f3fe"/>
            </g>
          </g>
          <g id="Grupo_153439" data-name="Grupo 153439" transform="translate(43.562 0)">
            <circle id="Elipse_12905" data-name="Elipse 12905" cx="87.351" cy="87.351" r="87.351" fill="#75b62f"/>
            <circle id="Elipse_12906" data-name="Elipse 12906" cx="70.557" cy="70.557" r="70.557" transform="translate(16.679 17.709)" fill="#232e4f"/>
            <circle id="Elipse_12907" data-name="Elipse 12907" cx="67.012" cy="67.012" r="67.012" transform="translate(20.339 19.195)" fill="#fff"/>
            <g id="Grupo_153432" data-name="Grupo 153432" transform="translate(84.996 69.284)">
              <path id="Trazado_205220" data-name="Trazado 205220" d="M682.4,1457.794a2.355,2.355,0,0,1-1.174-4.4l25.383-14.568a2.355,2.355,0,0,1,2.344,4.084l-25.383,14.567A2.342,2.342,0,0,1,682.4,1457.794Z" transform="translate(-680.043 -1438.517)" fill="#3e6bab"/>
            </g>
            <g id="Grupo_153433" data-name="Grupo 153433" transform="translate(66.107 50.189)">
              <path id="Trazado_205221" data-name="Trazado 205221" d="M640.354,1414.7a1.765,1.765,0,0,1-1.537-.893l-19.478-34.251a1.766,1.766,0,1,1,3.07-1.746l19.477,34.251a1.766,1.766,0,0,1-1.533,2.639Z" transform="translate(-619.108 -1376.918)" fill="#f37168"/>
            </g>
            <g id="Grupo_153438" data-name="Grupo 153438" transform="translate(29.493 27.427)">
              <path id="Trazado_205222" data-name="Trazado 205222" d="M683.667,1485.9a3.24,3.24,0,1,1-3.24-3.24A3.24,3.24,0,0,1,683.667,1485.9Z" transform="translate(-622.569 -1427.116)" fill="#212d51"/>
              <g id="Grupo_153434" data-name="Grupo 153434" transform="translate(48.41)">
                <path id="Trazado_205223" data-name="Trazado 205223" d="M663.164,1317.282h-3.056v-10.127h-2.947V1305l6-.925Z" transform="translate(-657.162 -1303.891)" fill="#212d51"/>
                <path id="Trazado_205224" data-name="Trazado 205224" d="M698.993,1316.878h-9.239v-1.995l4.243-4.461a8.963,8.963,0,0,0,1.188-1.65,2.807,2.807,0,0,0,.381-1.26,1.814,1.814,0,0,0-.385-1.215,1.433,1.433,0,0,0-1.156-.453,1.239,1.239,0,0,0-1.084.585,2.615,2.615,0,0,0-.394,1.491h-2.992l-.018-.054a4.126,4.126,0,0,1,1.2-3.105,4.389,4.389,0,0,1,3.291-1.274,4.977,4.977,0,0,1,3.4,1.07,3.7,3.7,0,0,1,1.22,2.928,3.862,3.862,0,0,1-.648,2.212,27.966,27.966,0,0,1-2.389,2.856l-1.786,1.913.027.054h5.15Z" transform="translate(-679.5 -1303.487)" fill="#212d51"/>
              </g>
              <g id="Grupo_153435" data-name="Grupo 153435" transform="translate(53.233 101.629)">
                <path id="Trazado_205225" data-name="Trazado 205225" d="M678.208,1631.34a6.6,6.6,0,0,1,1.387.132,8.712,8.712,0,0,1,1.342.421l-.508,2.23q-.635-.19-1.111-.285a5.612,5.612,0,0,0-1.093-.1,2.186,2.186,0,0,0-1.745.766,3.247,3.247,0,0,0-.63,2.235l.027.045a2.643,2.643,0,0,1,1.061-.707,4.175,4.175,0,0,1,1.505-.254,3.279,3.279,0,0,1,2.752,1.274,5.177,5.177,0,0,1,.984,3.259,4.421,4.421,0,0,1-1.3,3.259,4.5,4.5,0,0,1-3.323,1.3,4.569,4.569,0,0,1-3.5-1.424,5.475,5.475,0,0,1-1.333-3.9v-2.656a5.216,5.216,0,0,1,5.485-5.6Zm-.608,6.845a3.12,3.12,0,0,0-1.092.171,1.724,1.724,0,0,0-.721.479v.776a4.224,4.224,0,0,0,.467,2.19,1.453,1.453,0,0,0,1.3.763,1.307,1.307,0,0,0,1.124-.65,3.086,3.086,0,0,0,.014-3.138A1.288,1.288,0,0,0,677.6,1638.185Z" transform="translate(-672.722 -1631.34)" fill="#212d51"/>
              </g>
              <g id="Grupo_153436" data-name="Grupo 153436" transform="translate(0 50.814)">
                <path id="Trazado_205226" data-name="Trazado 205226" d="M505.01,1478.638a1.959,1.959,0,0,0,1.514-.657,2.6,2.6,0,0,0,.6-1.818v-.58a2.893,2.893,0,0,1-2.285,1.1,3.482,3.482,0,0,1-2.824-1.219,5.035,5.035,0,0,1-1.02-3.332,4.706,4.706,0,0,1,1.287-3.341,4.343,4.343,0,0,1,3.318-1.374,4.218,4.218,0,0,1,3.286,1.442,5.722,5.722,0,0,1,1.292,3.962v3.137a4.786,4.786,0,0,1-1.469,3.663,5.194,5.194,0,0,1-3.7,1.378,7,7,0,0,1-1.41-.15,7.74,7.74,0,0,1-1.392-.422l.317-2.185a8.219,8.219,0,0,0,1.2.3A7.765,7.765,0,0,0,505.01,1478.638Zm.5-4.161a2.287,2.287,0,0,0,.93-.182,1.884,1.884,0,0,0,.684-.5v-1.36a3.745,3.745,0,0,0-.431-1.981,1.272,1.272,0,0,0-1.1-.685,1.252,1.252,0,0,0-1.12.716,3.228,3.228,0,0,0-.413,1.641,3.451,3.451,0,0,0,.363,1.718A1.177,1.177,0,0,0,505.508,1474.476Z" transform="translate(-500.993 -1467.413)" fill="#212d51"/>
              </g>
              <g id="Grupo_153437" data-name="Grupo 153437" transform="translate(106.184 50.814)">
                <path id="Trazado_205227" data-name="Trazado 205227" d="M846.651,1472.926h1.441a1.718,1.718,0,0,0,1.269-.444,1.667,1.667,0,0,0,.444-1.233,1.479,1.479,0,0,0-.4-1.051,1.512,1.512,0,0,0-1.161-.426,1.691,1.691,0,0,0-1.052.344,1.068,1.068,0,0,0-.453.889h-2.974l-.018-.055a2.921,2.921,0,0,1,1.242-2.557,5.071,5.071,0,0,1,3.146-.979,5.516,5.516,0,0,1,3.436.984,3.3,3.3,0,0,1,1.288,2.788,2.73,2.73,0,0,1-.557,1.654,3.737,3.737,0,0,1-1.491,1.183,3.548,3.548,0,0,1,1.659,1.183,3.062,3.062,0,0,1,.6,1.9,3.367,3.367,0,0,1-1.387,2.851,5.757,5.757,0,0,1-3.545,1.038,5.52,5.52,0,0,1-3.25-.975,3.13,3.13,0,0,1-1.347-2.824l.018-.054h2.992a1.357,1.357,0,0,0,.494,1.065,1.764,1.764,0,0,0,1.2.431,1.8,1.8,0,0,0,1.288-.453,1.5,1.5,0,0,0,.48-1.143,1.768,1.768,0,0,0-.5-1.4,2.089,2.089,0,0,0-1.419-.439h-1.441Z" transform="translate(-843.539 -1467.413)" fill="#212d51"/>
              </g>
            </g>
          </g>
          <g id="Grupo_153472" data-name="Grupo 153472" transform="translate(151.34 85.328)">
            <g id="Grupo_153447" data-name="Grupo 153447" transform="translate(42.414)">
              <g id="Grupo_153440" data-name="Grupo 153440" transform="translate(77.297)">
                <path id="Trazado_205228" data-name="Trazado 205228" d="M1149.6,1510.024a9.874,9.874,0,1,1,9.874-9.874A9.886,9.886,0,0,1,1149.6,1510.024Zm0-17.394a7.52,7.52,0,1,0,7.52,7.52A7.528,7.528,0,0,0,1149.6,1492.63Z" transform="translate(-1139.722 -1490.276)" fill="#9bd6e8"/>
              </g>
              <g id="Grupo_153441" data-name="Grupo 153441" transform="translate(64.912)">
                <path id="Trazado_205229" data-name="Trazado 205229" d="M1109.642,1510.024a9.874,9.874,0,1,1,9.874-9.874A9.885,9.885,0,0,1,1109.642,1510.024Zm0-17.394a7.52,7.52,0,1,0,7.52,7.52A7.528,7.528,0,0,0,1109.642,1492.63Z" transform="translate(-1099.768 -1490.276)" fill="#9bd6e8"/>
              </g>
              <g id="Grupo_153442" data-name="Grupo 153442" transform="translate(51.478)">
                <path id="Trazado_205230" data-name="Trazado 205230" d="M1066.305,1510.024a9.874,9.874,0,1,1,9.874-9.874A9.885,9.885,0,0,1,1066.305,1510.024Zm0-17.394a7.52,7.52,0,1,0,7.52,7.52A7.528,7.528,0,0,0,1066.305,1492.63Z" transform="translate(-1056.431 -1490.276)" fill="#9bd6e8"/>
              </g>
              <g id="Grupo_153443" data-name="Grupo 153443" transform="translate(39.093)">
                <path id="Trazado_205231" data-name="Trazado 205231" d="M1026.351,1510.024a9.874,9.874,0,1,1,9.874-9.874A9.886,9.886,0,0,1,1026.351,1510.024Zm0-17.394a7.52,7.52,0,1,0,7.52,7.52A7.528,7.528,0,0,0,1026.351,1492.63Z" transform="translate(-1016.477 -1490.276)" fill="#9bd6e8"/>
              </g>
              <g id="Grupo_153444" data-name="Grupo 153444" transform="translate(26.224)">
                <path id="Trazado_205232" data-name="Trazado 205232" d="M984.838,1510.024a9.874,9.874,0,1,1,9.874-9.874A9.886,9.886,0,0,1,984.838,1510.024Zm0-17.394a7.52,7.52,0,1,0,7.52,7.52A7.528,7.528,0,0,0,984.838,1492.63Z" transform="translate(-974.963 -1490.276)" fill="#9bd6e8"/>
              </g>
              <g id="Grupo_153445" data-name="Grupo 153445" transform="translate(13.839)">
                <path id="Trazado_205233" data-name="Trazado 205233" d="M944.883,1510.024a9.874,9.874,0,1,1,9.875-9.874A9.886,9.886,0,0,1,944.883,1510.024Zm0-17.394a7.52,7.52,0,1,0,7.52,7.52A7.529,7.529,0,0,0,944.883,1492.63Z" transform="translate(-935.009 -1490.276)" fill="#9bd6e8"/>
              </g>
              <g id="Grupo_153446" data-name="Grupo 153446">
                <path id="Trazado_205234" data-name="Trazado 205234" d="M900.239,1510.024a9.874,9.874,0,1,1,9.875-9.874A9.885,9.885,0,0,1,900.239,1510.024Zm0-17.394a7.52,7.52,0,1,0,7.52,7.52A7.528,7.528,0,0,0,900.239,1492.63Z" transform="translate(-890.365 -1490.276)" fill="#9bd6e8"/>
              </g>
            </g>
            <path id="Trazado_205235" data-name="Trazado 205235" d="M893.137,1607.276H755.9a2.29,2.29,0,0,1-2.308-2.841l14.911-79.463a3.587,3.587,0,0,1,3.374-2.841h137.24a2.29,2.29,0,0,1,2.308,2.841l-14.911,79.463A3.588,3.588,0,0,1,893.137,1607.276Z" transform="translate(-753.538 -1512.256)" fill="#212d51"/>
            <path id="Trazado_205236" data-name="Trazado 205236" d="M901.42,1607.276H764.179a2.29,2.29,0,0,1-2.308-2.841l14.911-79.463a3.587,3.587,0,0,1,3.374-2.841H917.4a2.29,2.29,0,0,1,2.308,2.841l-14.911,79.463A3.587,3.587,0,0,1,901.42,1607.276Z" transform="translate(-759.254 -1512.256)" fill="#dce736"/>
            <path id="Trazado_205237" data-name="Trazado 205237" d="M957.269,1607.276H820.029a3.536,3.536,0,0,1-3.342-2.841l-14.012-79.463a2.318,2.318,0,0,1,2.34-2.841h137.24a3.536,3.536,0,0,1,3.342,2.841l14.012,79.463A2.319,2.319,0,0,1,957.269,1607.276Z" transform="translate(-787.413 -1512.256)" fill="#212d51"/>
            <path id="Trazado_205238" data-name="Trazado 205238" d="M966.5,1607.276H829.258a3.536,3.536,0,0,1-3.342-2.841L811.9,1524.971a2.318,2.318,0,0,1,2.34-2.841H951.485a3.536,3.536,0,0,1,3.342,2.841l14.012,79.463A2.318,2.318,0,0,1,966.5,1607.276Z" transform="translate(-793.781 -1512.256)" fill="#3e6bab"/>
            <path id="Trazado_205239" data-name="Trazado 205239" d="M1184.244,1541.842c.473,1.322.06,2.392-.924,2.392a3.415,3.415,0,0,1-2.638-2.392c-.473-1.322-.06-2.392.924-2.392A3.415,3.415,0,0,1,1184.244,1541.842Z" transform="translate(-1048.14 -1524.207)" fill="#212d51"/>
            <path id="Trazado_205240" data-name="Trazado 205240" d="M1143.7,1541.842c.473,1.322.06,2.392-.923,2.392a3.414,3.414,0,0,1-2.638-2.392c-.474-1.322-.06-2.392.923-2.392A3.414,3.414,0,0,1,1143.7,1541.842Z" transform="translate(-1020.164 -1524.207)" fill="#212d51"/>
            <path id="Trazado_205241" data-name="Trazado 205241" d="M1098.687,1541.842c.473,1.322.059,2.392-.924,2.392a3.415,3.415,0,0,1-2.638-2.392c-.473-1.322-.06-2.392.924-2.392A3.415,3.415,0,0,1,1098.687,1541.842Z" transform="translate(-989.104 -1524.207)" fill="#212d51"/>
            <path id="Trazado_205242" data-name="Trazado 205242" d="M1058.144,1541.842c.473,1.322.06,2.392-.923,2.392a3.414,3.414,0,0,1-2.638-2.392c-.473-1.322-.06-2.392.923-2.392A3.414,3.414,0,0,1,1058.144,1541.842Z" transform="translate(-961.128 -1524.207)" fill="#212d51"/>
            <path id="Trazado_205243" data-name="Trazado 205243" d="M1018.957,1542.567c.473,1.321.06,2.393-.923,2.393a3.415,3.415,0,0,1-2.638-2.393c-.473-1.322-.06-2.392.924-2.392A3.415,3.415,0,0,1,1018.957,1542.567Z" transform="translate(-934.089 -1524.706)" fill="#212d51"/>
            <path id="Trazado_205244" data-name="Trazado 205244" d="M980.525,1542.567c.473,1.321.06,2.393-.924,2.393a3.416,3.416,0,0,1-2.638-2.393c-.473-1.322-.06-2.392.924-2.392A3.415,3.415,0,0,1,980.525,1542.567Z" transform="translate(-907.57 -1524.706)" fill="#212d51"/>
            <path id="Trazado_205245" data-name="Trazado 205245" d="M937.7,1542.567c.473,1.321.06,2.393-.923,2.393a3.416,3.416,0,0,1-2.638-2.393c-.473-1.322-.06-2.392.924-2.392A3.414,3.414,0,0,1,937.7,1542.567Z" transform="translate(-878.02 -1524.706)" fill="#212d51"/>
            <g id="Grupo_153455" data-name="Grupo 153455" transform="translate(52.235)">
              <g id="Grupo_153448" data-name="Grupo 153448" transform="translate(76.173)">
                <path id="Trazado_205246" data-name="Trazado 205246" d="M1173.109,1508.972a1.177,1.177,0,0,1-.564-2.211,7.521,7.521,0,0,0-3.59-14.13,1.177,1.177,0,1,1,0-2.354,9.876,9.876,0,0,1,4.715,18.552A1.175,1.175,0,0,1,1173.109,1508.972Z" transform="translate(-1167.778 -1490.276)" fill="#9bd6e8"/>
              </g>
              <g id="Grupo_153449" data-name="Grupo 153449" transform="translate(64.203 0.01)">
                <path id="Trazado_205247" data-name="Trazado 205247" d="M1134.027,1509.021a1.177,1.177,0,0,1-.557-2.215,7.521,7.521,0,0,0-3.184-14.145,1.177,1.177,0,0,1,.111-2.352,9.876,9.876,0,0,1,4.186,18.573A1.174,1.174,0,0,1,1134.027,1509.021Z" transform="translate(-1129.164 -1490.308)" fill="#9bd6e8"/>
              </g>
              <g id="Grupo_153450" data-name="Grupo 153450" transform="translate(50.761 0.009)">
                <path id="Trazado_205248" data-name="Trazado 205248" d="M1090.271,1509.221a1.177,1.177,0,0,1-.5-2.243,7.521,7.521,0,0,0-2.846-14.319,1.177,1.177,0,0,1,.108-2.352,9.876,9.876,0,0,1,3.741,18.8A1.176,1.176,0,0,1,1090.271,1509.221Z" transform="translate(-1085.8 -1490.305)" fill="#9bd6e8"/>
              </g>
              <g id="Grupo_153451" data-name="Grupo 153451" transform="translate(38.374 0.009)">
                <path id="Trazado_205249" data-name="Trazado 205249" d="M1050.065,1509.334a1.178,1.178,0,0,1-.468-2.258,7.521,7.521,0,0,0-2.631-14.417,1.177,1.177,0,1,1,.108-2.352,9.876,9.876,0,0,1,3.458,18.93A1.169,1.169,0,0,1,1050.065,1509.334Z" transform="translate(-1045.842 -1490.305)" fill="#9bd6e8"/>
              </g>
              <g id="Grupo_153452" data-name="Grupo 153452" transform="translate(25.553 0.012)">
                <path id="Trazado_205250" data-name="Trazado 205250" d="M1009.131,1509.117a1.177,1.177,0,0,1-.533-2.227,7.521,7.521,0,0,0-3-14.223,1.177,1.177,0,0,1,.121-2.352,9.876,9.876,0,0,1,3.944,18.675A1.172,1.172,0,0,1,1009.131,1509.117Z" transform="translate(-1004.48 -1490.314)" fill="#9bd6e8"/>
              </g>
              <g id="Grupo_153453" data-name="Grupo 153453" transform="translate(13.537 0.038)">
                <path id="Trazado_205251" data-name="Trazado 205251" d="M970.409,1508.953a1.177,1.177,0,0,1-.589-2.2,7.521,7.521,0,0,0-3.035-14.008,1.177,1.177,0,0,1,.22-2.344A9.876,9.876,0,0,1,971,1508.8,1.171,1.171,0,0,1,970.409,1508.953Z" transform="translate(-965.718 -1490.398)" fill="#9bd6e8"/>
              </g>
              <g id="Grupo_153454" data-name="Grupo 153454" transform="translate(0 0.072)">
                <path id="Trazado_205252" data-name="Trazado 205252" d="M926.867,1508.764a1.177,1.177,0,0,1-.647-2.161,7.521,7.521,0,0,0-3.146-13.75,1.177,1.177,0,0,1,.3-2.335,9.876,9.876,0,0,1,4.137,18.054A1.172,1.172,0,0,1,926.867,1508.764Z" transform="translate(-922.047 -1490.508)" fill="#9bd6e8"/>
              </g>
            </g>
            <path id="Trazado_205253" data-name="Trazado 205253" d="M977.018,1635.145H847.807a3.081,3.081,0,0,1-2.911-2.475l-11.266-63.893a2.02,2.02,0,0,1,2.038-2.475H964.879a3.081,3.081,0,0,1,2.911,2.475l11.266,63.893A2.02,2.02,0,0,1,977.018,1635.145Z" transform="translate(-808.776 -1542.735)" fill="#fff"/>
            <g id="Grupo_153467" data-name="Grupo 153467" transform="translate(29.805 27.731)">
              <g id="Grupo_153456" data-name="Grupo 153456">
                <path id="Trazado_205254" data-name="Trazado 205254" d="M985.212,1640.25H860.358l-.017-.1-10.654-60.418H974.542l.017.1Zm-124.657-.236H984.932l-10.588-60.045H849.968Z" transform="translate(-849.687 -1579.734)" fill="#9ec8ff"/>
              </g>
              <g id="Grupo_153457" data-name="Grupo 153457" transform="translate(8.644 48.224)">
                <rect id="Rectángulo_296000" data-name="Rectángulo 296000" width="124.616" height="0.235" fill="#9ec8ff"/>
              </g>
              <g id="Grupo_153458" data-name="Grupo 153458" transform="translate(6.518 36.168)">
                <rect id="Rectángulo_296001" data-name="Rectángulo 296001" width="124.616" height="0.235" fill="#9ec8ff"/>
              </g>
              <g id="Grupo_153459" data-name="Grupo 153459" transform="translate(4.392 24.112)">
                <rect id="Rectángulo_296002" data-name="Rectángulo 296002" width="124.616" height="0.235" fill="#9ec8ff"/>
              </g>
              <g id="Grupo_153460" data-name="Grupo 153460" transform="translate(2.266 12.056)">
                <rect id="Rectángulo_296003" data-name="Rectángulo 296003" width="124.616" height="0.235" fill="#9ec8ff"/>
              </g>
              <g id="Grupo_153461" data-name="Grupo 153461" transform="translate(106.838 0.097)">
                <rect id="Rectángulo_296004" data-name="Rectángulo 296004" width="0.235" height="61.21" transform="matrix(0.985, -0.174, 0.174, 0.985, 0, 0.041)" fill="#9ec8ff"/>
              </g>
              <g id="Grupo_153462" data-name="Grupo 153462" transform="translate(89.036 0.097)">
                <rect id="Rectángulo_296005" data-name="Rectángulo 296005" width="0.235" height="61.21" transform="matrix(0.985, -0.174, 0.174, 0.985, 0, 0.041)" fill="#9ec8ff"/>
              </g>
              <g id="Grupo_153463" data-name="Grupo 153463" transform="translate(71.233 0.097)">
                <rect id="Rectángulo_296006" data-name="Rectángulo 296006" width="0.235" height="61.21" transform="translate(0 0.041) rotate(-10)" fill="#9ec8ff"/>
              </g>
              <g id="Grupo_153464" data-name="Grupo 153464" transform="translate(53.431 0.097)">
                <rect id="Rectángulo_296007" data-name="Rectángulo 296007" width="0.235" height="61.21" transform="matrix(0.985, -0.174, 0.174, 0.985, 0, 0.041)" fill="#9ec8ff"/>
              </g>
              <g id="Grupo_153465" data-name="Grupo 153465" transform="translate(35.629 0.097)">
                <rect id="Rectángulo_296008" data-name="Rectángulo 296008" width="0.235" height="61.21" transform="matrix(0.985, -0.174, 0.174, 0.985, 0, 0.041)" fill="#9ec8ff"/>
              </g>
              <g id="Grupo_153466" data-name="Grupo 153466" transform="translate(17.827 0.097)">
                <rect id="Rectángulo_296009" data-name="Rectángulo 296009" width="0.235" height="61.21" transform="matrix(0.985, -0.174, 0.174, 0.985, 0, 0.041)" fill="#9ec8ff"/>
              </g>
            </g>
            <path id="Trazado_205255" data-name="Trazado 205255" d="M1224.4,1591.735h-4.19a3.629,3.629,0,0,1-3.418-2.906,2.377,2.377,0,0,1,2.393-2.906h4.19a3.629,3.629,0,0,1,3.418,2.906A2.378,2.378,0,0,1,1224.4,1591.735Z" transform="translate(-1073.161 -1556.274)" fill="#f39892"/>
            <path id="Trazado_205256" data-name="Trazado 205256" d="M1239.216,1670.217h-7.231a1.731,1.731,0,0,1-1.63-1.385l-.536-3.041a1.133,1.133,0,0,1,1.141-1.385h7.231a1.73,1.73,0,0,1,1.63,1.385l.536,3.041A1.134,1.134,0,0,1,1239.216,1670.217Z" transform="translate(-1082.165 -1610.428)" fill="#f39892"/>
            <path id="Trazado_205257" data-name="Trazado 205257" d="M935.224,1633.093h-9.833a2.469,2.469,0,0,1-2.325-1.976l-.816-4.63a1.617,1.617,0,0,1,1.628-1.977h9.833a2.468,2.468,0,0,1,2.325,1.977l.817,4.63A1.617,1.617,0,0,1,935.224,1633.093Z" transform="translate(-869.931 -1582.899)" fill="#9ec8ff"/>
            <path id="Trazado_205258" data-name="Trazado 205258" d="M938.224,1634.574h-7.063a1.773,1.773,0,0,1-1.67-1.42l-.586-3.325a1.161,1.161,0,0,1,1.169-1.42h7.063a1.773,1.773,0,0,1,1.67,1.42l.586,3.325A1.162,1.162,0,0,1,938.224,1634.574Z" transform="translate(-874.528 -1585.59)" fill="#fff"/>
            <path id="Trazado_205259" data-name="Trazado 205259" d="M1185.968,1749.509h-9.833a2.469,2.469,0,0,1-2.325-1.977l-.816-4.629a1.617,1.617,0,0,1,1.628-1.976h9.833a2.468,2.468,0,0,1,2.325,1.976l.817,4.629A1.617,1.617,0,0,1,1185.968,1749.509Z" transform="translate(-1042.948 -1663.229)" fill="#9ec8ff"/>
            <path id="Trazado_205260" data-name="Trazado 205260" d="M1188.967,1750.99H1181.9a1.773,1.773,0,0,1-1.67-1.42l-.586-3.326a1.161,1.161,0,0,1,1.169-1.42h7.063a1.774,1.774,0,0,1,1.67,1.42l.586,3.326A1.161,1.161,0,0,1,1188.967,1750.99Z" transform="translate(-1047.545 -1665.919)" fill="#fff"/>
            <path id="Trazado_205261" data-name="Trazado 205261" d="M1059.923,1628.364h-7.7a1.182,1.182,0,0,1-1.113-.946.774.774,0,0,1,.779-.946h7.7a1.182,1.182,0,0,1,1.113.946A.774.774,0,0,1,1059.923,1628.364Z" transform="translate(-958.854 -1584.253)" fill="#9ec8ff"/>
            <path id="Trazado_205262" data-name="Trazado 205262" d="M1061.615,1637.956h-7.7a1.181,1.181,0,0,1-1.113-.946.774.774,0,0,1,.779-.946h7.7a1.182,1.182,0,0,1,1.113.946A.774.774,0,0,1,1061.615,1637.956Z" transform="translate(-960.022 -1590.872)" fill="#9ec8ff"/>
            <path id="Trazado_205263" data-name="Trazado 205263" d="M1025.4,1744.126h-7.7a1.182,1.182,0,0,1-1.113-.946.774.774,0,0,1,.779-.946h7.7a1.181,1.181,0,0,1,1.113.946A.774.774,0,0,1,1025.4,1744.126Z" transform="translate(-935.031 -1664.131)" fill="#9ec8ff"/>
            <path id="Trazado_205264" data-name="Trazado 205264" d="M1027.088,1753.718h-7.7a1.182,1.182,0,0,1-1.113-.946.774.774,0,0,1,.779-.946h7.7a1.182,1.182,0,0,1,1.113.946A.774.774,0,0,1,1027.088,1753.718Z" transform="translate(-936.198 -1670.75)" fill="#9ec8ff"/>
            <path id="Trazado_205265" data-name="Trazado 205265" d="M883.753,1671.53h-7.7a1.182,1.182,0,0,1-1.113-.946.774.774,0,0,1,.779-.946h7.7a1.181,1.181,0,0,1,1.113.946A.774.774,0,0,1,883.753,1671.53Z" transform="translate(-837.295 -1614.038)" fill="#9ec8ff"/>
            <path id="Trazado_205266" data-name="Trazado 205266" d="M885.444,1681.122h-7.7a1.182,1.182,0,0,1-1.113-.946.774.774,0,0,1,.779-.946h7.7a1.181,1.181,0,0,1,1.113.946A.774.774,0,0,1,885.444,1681.122Z" transform="translate(-838.462 -1620.657)" fill="#9ec8ff"/>
            <g id="Grupo_153469" data-name="Grupo 153469" transform="translate(56.358 66.008)">
              <path id="Trazado_205267" data-name="Trazado 205267" d="M949.8,1711.93H938.392a2.242,2.242,0,0,1-2.112-1.8l-.9-5.125a1.469,1.469,0,0,1,1.479-1.8h11.412a2.241,2.241,0,0,1,2.112,1.8l.9,5.125A1.469,1.469,0,0,1,949.8,1711.93Z" transform="translate(-935.349 -1703.215)" fill="#9cd499"/>
              <g id="Grupo_153468" data-name="Grupo 153468" transform="translate(4.733 1.683)">
                <path id="Trazado_205268" data-name="Trazado 205268" d="M953.415,1713.578a.235.235,0,0,1-.162-.064l-2.562-2.426a.235.235,0,0,1,.324-.342L953.4,1713l3.613-4.273a.236.236,0,1,1,.36.3l-3.773,4.463a.234.234,0,0,1-.167.083Z" transform="translate(-950.618 -1708.644)" fill="#fff"/>
              </g>
            </g>
            <g id="Grupo_153471" data-name="Grupo 153471" transform="translate(103.208 29.312)">
              <path id="Trazado_205269" data-name="Trazado 205269" d="M1100.939,1593.552h-11.412a2.242,2.242,0,0,1-2.112-1.795l-.9-5.125a1.469,1.469,0,0,1,1.479-1.8H1099.4a2.242,2.242,0,0,1,2.112,1.8l.9,5.125A1.468,1.468,0,0,1,1100.939,1593.552Z" transform="translate(-1086.484 -1584.837)" fill="#9cd499"/>
              <g id="Grupo_153470" data-name="Grupo 153470" transform="translate(4.733 1.683)">
                <path id="Trazado_205270" data-name="Trazado 205270" d="M1104.55,1595.2a.235.235,0,0,1-.162-.064l-2.562-2.426a.235.235,0,1,1,.324-.342l2.382,2.254,3.612-4.273a.236.236,0,1,1,.36.3l-3.774,4.463a.234.234,0,0,1-.167.083Z" transform="translate(-1101.752 -1590.266)" fill="#fff"/>
              </g>
            </g>
            <path id="Trazado_205271" data-name="Trazado 205271" d="M1126.51,1707.266a3.309,3.309,0,0,1-3.34,4.055,5.047,5.047,0,0,1-4.77-4.055,3.309,3.309,0,0,1,3.34-4.055A5.047,5.047,0,0,1,1126.51,1707.266Z" transform="translate(-1005.255 -1637.205)" fill="#9ec8ff"/>
            <path id="Trazado_205272" data-name="Trazado 205272" d="M964.153,1747.161a3.309,3.309,0,0,1-3.34,4.055,5.047,5.047,0,0,1-4.77-4.055,3.309,3.309,0,0,1,3.34-4.055A5.047,5.047,0,0,1,964.153,1747.161Z" transform="translate(-893.226 -1664.733)" fill="#9ec8ff"/>
          </g>
          <g id="Grupo_153474" data-name="Grupo 153474" transform="translate(1.766 66.657)">
            <path id="Trazado_205273" data-name="Trazado 205273" d="M289.565,1456.973h18.549a18.549,18.549,0,1,1-18.549-18.549Z" transform="translate(-271.016 -1435.826)" fill="#3d46c2"/>
            <g id="Grupo_153473" data-name="Grupo 153473" transform="translate(21.656)">
              <path id="Trazado_205274" data-name="Trazado 205274" d="M359.427,1448.594a18.549,18.549,0,0,0-18.549-18.549v18.549Z" transform="translate(-340.878 -1430.044)" fill="#f39892"/>
            </g>
          </g>
          <g id="Grupo_153477" data-name="Grupo 153477" transform="translate(0 93.437)">
            <rect id="Rectángulo_296010" data-name="Rectángulo 296010" width="11.473" height="24.212" transform="translate(4.944 57.403)" fill="#9ec8ff"/>
            <rect id="Rectángulo_296011" data-name="Rectángulo 296011" width="11.473" height="49.51" transform="translate(40.406 32.105)" fill="#9ec8ff"/>
            <rect id="Rectángulo_296012" data-name="Rectángulo 296012" width="11.473" height="25.463" transform="translate(58.137 56.152)" fill="#9ec8ff"/>
            <rect id="Rectángulo_296013" data-name="Rectángulo 296013" width="11.473" height="32.67" transform="translate(75.868 48.944)" fill="#9ec8ff"/>
            <rect id="Rectángulo_296014" data-name="Rectángulo 296014" width="11.473" height="40.198" transform="translate(22.675 41.417)" fill="#9ec8ff"/>
            <rect id="Rectángulo_296015" data-name="Rectángulo 296015" width="11.473" height="61.759" transform="translate(93.658 19.855)" fill="#9ec8ff"/>
            <rect id="Rectángulo_296016" data-name="Rectángulo 296016" width="10.3" height="24.212" transform="translate(6.091 58.55)" fill="#5d9ef5"/>
            <rect id="Rectángulo_296017" data-name="Rectángulo 296017" width="10.3" height="49.51" transform="translate(41.553 33.252)" fill="#5d9ef5"/>
            <rect id="Rectángulo_296018" data-name="Rectángulo 296018" width="10.299" height="25.463" transform="translate(59.284 57.299)" fill="#5d9ef5"/>
            <rect id="Rectángulo_296019" data-name="Rectángulo 296019" width="10.3" height="32.67" transform="translate(77.015 50.091)" fill="#5d9ef5"/>
            <rect id="Rectángulo_296020" data-name="Rectángulo 296020" width="10.3" height="40.198" transform="translate(23.822 42.564)" fill="#5d9ef5"/>
            <rect id="Rectángulo_296021" data-name="Rectángulo 296021" width="10.299" height="61.759" transform="translate(94.805 21.002)" fill="#5d9ef5"/>
            <g id="Grupo_153475" data-name="Grupo 153475" transform="translate(0 0.926)">
              <path id="Trazado_205275" data-name="Trazado 205275" d="M267.087,1569.272a1.766,1.766,0,0,1-1.009-3.217l44.937-31.212a1.766,1.766,0,0,1,2.328.279l16.514,18.623,35.377-33.834a1.766,1.766,0,0,1,2.441,2.552l-36.7,35.1a1.766,1.766,0,0,1-2.542-.1l-16.69-18.822-43.649,30.318A1.758,1.758,0,0,1,267.087,1569.272Z" transform="translate(-265.319 -1519.421)" fill="#f37168"/>
            </g>
            <g id="Grupo_153476" data-name="Grupo 153476" transform="translate(91.359)">
              <path id="Trazado_205276" data-name="Trazado 205276" d="M569.213,1528.519a1.768,1.768,0,0,1-1.732-2.12l1.269-6.2-6.766.685a1.766,1.766,0,0,1-.355-3.514l9.155-.926a1.766,1.766,0,0,1,1.908,2.111l-1.75,8.554A1.766,1.766,0,0,1,569.213,1528.519Z" transform="translate(-560.041 -1516.433)" fill="#f37168"/>
            </g>
          </g>
        </g>
        <g id="Grupo_153481" data-name="Grupo 153481" transform="translate(-10447.808 -1059.006)">
          <path id="Trazado_205277" data-name="Trazado 205277" d="M1198.735,1454.974c3.165-6.331,11.443-9.2,13.793-2.15s3.164,7.5,6.472,10.451c11.479,10.236-5.977,16.372-12.121,19.062s-8.6-8.708-9.069-17.766C1197.445,1457.493,1197.809,1456.826,1198.735,1454.974Z" transform="translate(-1169.736 -1448.708)" fill="#303c60"/>
          <path id="Trazado_205278" data-name="Trazado 205278" d="M1214.6,1777.037c.619,2.517-.6,4.512-2.24,5.967-1.331,1.183-5.422,1.686-5.225,2.277s5.028.779,6.655.532,2.07-1.035,4.095-1.034c1.327,0,1.574-1.079.982-2.413s-.8-2.071-.264-3.268S1214.6,1777.037,1214.6,1777.037Z" transform="translate(-1176.262 -1675.26)" fill="#4476bd"/>
          <path id="Trazado_205279" data-name="Trazado 205279" d="M1299.222,1772.962c-.1,2.613-.4,4.559.239,5.77,2.475,2.07,4.532,4.422,3.747,4.584-3.747.774-5.176-1.472-7.3-2.11-2.6-.783.246-4.052-.773-8.244-.567-2.331,3.927-1.772,3.927-1.772Z" transform="translate(-1236.745 -1671.185)" fill="#4476bd"/>
          <path id="Trazado_205280" data-name="Trazado 205280" d="M1237.32,1584.688c-1.644,13.8-4.63,24.006-4.963,30.549s-1.663,32.307-1.663,32.307,3.66-.256,3.992-.811,6.876-15.083,6.544-24.066,6.535-22.642,6.535-22.642l-1.656-13.4Z" transform="translate(-1192.523 -1542.536)" fill="#f37168"/>
          <path id="Trazado_205281" data-name="Trazado 205281" d="M1246.644,1604.073l-2.57,1.075c-.7,4.377-1.474,8.312-2.155,11.8,4.09,2.644,6.2,11.455,7.109,16.841.461-6.027,3.3-13.31,5.069-17.338Z" transform="translate(-1200.269 -1555.912)" fill="#d54a41"/>
          <path id="Trazado_205282" data-name="Trazado 205282" d="M1271.035,1580.2s5.54,7.066,5.366,15.084c-.264,12.2-1.6,15.687.721,28.484.9,5-2,21.346-2,21.346a9.276,9.276,0,0,1-3.809-.468c.111-1.2-1.6-20.742-4.936-29.724-1.615-4.35-3.885-16.532-5.1-23.519s-1.442-8.429-1-8.429S1271.035,1580.2,1271.035,1580.2Z" transform="translate(-1212.791 -1539.439)" fill="#f37168"/>
          <path id="Trazado_205283" data-name="Trazado 205283" d="M1116.463,1628.067l-7.653.883a1.181,1.181,0,0,1-1.214-.812.774.774,0,0,1,.666-1.029l7.653-.883a1.182,1.182,0,0,1,1.214.813A.774.774,0,0,1,1116.463,1628.067Z" transform="translate(-1107.556 -1571.193)" fill="#85baff"/>
          <path id="Trazado_205284" data-name="Trazado 205284" d="M1119.242,1637.4l-7.653.883a1.181,1.181,0,0,1-1.214-.812.774.774,0,0,1,.666-1.029l7.653-.883a1.182,1.182,0,0,1,1.214.812A.774.774,0,0,1,1119.242,1637.4Z" transform="translate(-1109.474 -1577.635)" fill="#85baff"/>
          <path id="Trazado_205285" data-name="Trazado 205285" d="M1133.31,1618.3a12.961,12.961,0,0,1-5.3.765c-1.623-.115-2.693.842-3.649,1.224s-1.339.984.267.765a19.956,19.956,0,0,1,2.382-.219,6.083,6.083,0,0,1,1.694.641,7.109,7.109,0,0,1,.844.735,1.48,1.48,0,0,1,.047,1.865c-.438.568-.723,1.193-1.175,1.417-.848.418-.049.921.8.418a8.312,8.312,0,0,0,1.874-1.836c.875-.972,1.682-2.541,2.485-3.24S1133.31,1618.3,1133.31,1618.3Z" transform="translate(-1118.581 -1565.727)" fill="#f09959"/>
          <path id="Trazado_205286" data-name="Trazado 205286" d="M1175.537,1530.079c-3.721,7.651-7.239,15.835-11.9,19.659a96.682,96.682,0,0,1-12.115,7.907s1.025,2.878,1.484,2.954,11.549-3.847,14.762-5.977,10-9.333,10-9.333Z" transform="translate(-1137.89 -1504.855)" fill="#a2dff2"/>
          <path id="Trazado_205287" data-name="Trazado 205287" d="M1225.154,1542.854c3.056-2.753,6.061-7.286,5.967-7.763-.126-.64-4.636-12.469-4.636-12.469-.976,2.3-1.82,4.323-2.548,6.094C1224.388,1534.075,1226.395,1539.365,1225.154,1542.854Z" transform="translate(-1187.86 -1499.709)" fill="#96cfe0"/>
          <path id="Trazado_205288" data-name="Trazado 205288" d="M1234.428,1497.209s8.278.983,12.053,6.65,2.023,14.985,2.947,19.286-11.611,9.643-13.2,5.253c-1.519-4.208-7.951-11.982-8.591-14.323-1.5-5.492,3.94-14.849,3.94-14.849Z" transform="translate(-1190.235 -1482.175)" fill="#eaf086"/>
          <path id="Trazado_205289" data-name="Trazado 205289" d="M1224.814,1473.59l6.36,8.193a85.9,85.9,0,0,0-5.663,11.59c-1.22-4.046.543-9.574.543-9.574l-5.44-7.941Z" transform="translate(-1185.568 -1465.877)" fill="#f09959"/>
          <path id="Trazado_205290" data-name="Trazado 205290" d="M1227.78,1477.411l-2.966-3.821-4.2,2.268,5.44,7.941s-.094.434-.221,1.11A11.37,11.37,0,0,0,1227.78,1477.411Z" transform="translate(-1185.568 -1465.877)" fill="#e38540"/>
          <path id="Trazado_205291" data-name="Trazado 205291" d="M1211.411,1469.948c.254,3.246-2.3,6.006-4.756,6.2s-3.879-2.256-4.134-5.5,1.529-6.033,3.984-6.226S1211.156,1466.7,1211.411,1469.948Z" transform="translate(-1173.067 -1459.542)" fill="#f09959"/>
          <path id="Trazado_205292" data-name="Trazado 205292" d="M1243.985,1557.914c1.036,6.565-2.811,20.61-2.811,20.61s2.294.521,9.17-.144,9.908-7.529,10.943-7.72,1.567,6.387,2.077,6.907.588-8.307-.746-11.778c-2.366-6.151-1.9-8.76-1.018-12.487C1263.173,1546.674,1243.985,1557.914,1243.985,1557.914Z" transform="translate(-1199.755 -1519.436)" fill="#eaf086"/>
          <path id="Trazado_205293" data-name="Trazado 205293" d="M1273.166,1534.744a12.294,12.294,0,0,0-.559-2.141c-2.366-6.151-1.9-8.76-1.018-12.487.069-.294-5.493-9.23-5.493-9.23l-7.229-7.77c-6.938,11.263,1.441,16.595.79,20.957a15.45,15.45,0,0,1-4.008,7.681l.236,1.548a3.931,3.931,0,0,0,4.42,3.3c3-.416,6.928-1.252,8.677-2.875C1270.676,1532.158,1272.175,1533.373,1273.166,1534.744Z" transform="translate(-1209.743 -1486.25)" fill="#96cfe0"/>
          <path id="Trazado_205294" data-name="Trazado 205294" d="M1246.641,1598.934s-3.016,1.418-3.361,1.68-.378,1.344-.378,1.344-1.547,1.878-.759,2.319,2.265,1.642,3.793.71c.938-.572,1.1-4.4,1.75-4.54S1246.641,1598.934,1246.641,1598.934Z" transform="translate(-1200.269 -1552.366)" fill="#f09959"/>
          <path id="Trazado_205295" data-name="Trazado 205295" d="M1259.621,1501.283c3.4-.474,7.5,5.11,9.464,10.223s4.355,12.45,4.355,12.45-4.868,5.376-10.2,7.605c-4.649,1.945-7.045,2.8-7.045,2.8l-1.447-2.6,10.434-8.75s-5.608-7.3-7.05-13.284S1257.034,1501.644,1259.621,1501.283Z" transform="translate(-1209.122 -1484.966)" fill="#a2dff2"/>
          <path id="Trazado_205296" data-name="Trazado 205296" d="M1200.626,1464.377c2.271,5.731,8.88,2.842,10.606,1.815s2.157,13.042,5.952,12.492c2.787-.4,1.324-3.848,4.053-5.269a3.239,3.239,0,0,1,3.594.4,4.185,4.185,0,0,0-1.92-1.67c-1.29-.526-6.4-3.968-8.465-7.574s-7.5-4.455-8.875-4.046-4.112,3.127-4.112,3.127Z" transform="translate(-1171.776 -1456.801)" fill="#303c60"/>
          <g id="Grupo_153479" data-name="Grupo 153479" transform="translate(39.586 8.955)">
            <path id="Trazado_205297" data-name="Trazado 205297" d="M1240.943,1492.055c-2.522,0-3.621-4.954-4.887-10.661-.252-1.137-.513-2.313-.787-3.444a.287.287,0,0,1,.558-.135c.275,1.136.536,2.315.789,3.455,1.146,5.162,2.33,10.5,4.527,10.2,1.328-.183,1.584-3.072,1.382-5.714a.287.287,0,1,1,.572-.044c.139,1.806.233,6.037-1.875,6.326A2.019,2.019,0,0,1,1240.943,1492.055Z" transform="translate(-1235.261 -1477.596)" fill="#303c60"/>
          </g>
          <g id="Grupo_153480" data-name="Grupo 153480" transform="translate(39.169 9.105)">
            <path id="Trazado_205298" data-name="Trazado 205298" d="M1240.117,1493.9a1.6,1.6,0,0,1-.727-.183c-3.236-1.63-5.382-14.745-5.472-15.3a.287.287,0,1,1,.566-.091c.6,3.717,2.694,13.637,5.164,14.881a.974.974,0,0,0,.942,0c1.087-.563,1.19-2.406,1.281-4.032.092-1.643.179-3.2,1.25-3.54a.287.287,0,1,1,.176.546c-.7.225-.773,1.585-.853,3.026-.1,1.779-.212,3.8-1.59,4.51A1.591,1.591,0,0,1,1240.117,1493.9Z" transform="translate(-1233.914 -1478.082)" fill="#303c60"/>
          </g>
          <path id="Trazado_205299" data-name="Trazado 205299" d="M1232.134,1478.3c-.255.787-.924,1.276-1.494,1.091a1.342,1.342,0,0,1-.57-1.759c.255-.787.924-1.275,1.494-1.09A1.342,1.342,0,0,1,1232.134,1478.3Z" transform="translate(-1192.025 -1467.888)" fill="#f09959"/>
        </g>
        <g id="Grupo_153482" data-name="Grupo 153482" transform="translate(-10628.492 -1012.469)">
          <path id="Trazado_205300" data-name="Trazado 205300" d="M557.924,1745.067s-21.884-15.2-31.14-6.435c-7.391,7,5.729,15.219,22.513,13.009,11.814-1.556,13.153.7,15.223.655,15.4-1.18,36.147-5.787,26.05-13.025-13.755-9.86-23.06.593-27.853,3.195Z" transform="translate(-524.674 -1692.873)" fill="#232e4f"/>
          <path id="Trazado_205301" data-name="Trazado 205301" d="M594.163,1741.447c-5.752-1.187-27.663,6.938-27.663,6.938s-19.081-5.752-23.646-6.3-6.665,1.187-6.665,1.187,2.154-2.427,4.656-2.648,6.117-.822,6.117-.822,36.518-1.735,41.357-.639S594.163,1741.447,594.163,1741.447Z" transform="translate(-532.62 -1695.415)" fill="#1b243d"/>
          <path id="Trazado_205302" data-name="Trazado 205302" d="M590.761,1651.915c-.868.137-14.357,6.021-14.523,8.486s3.7,22.462,11.164,25.064,15.821,0,15.821,0,8.764-21.636,6.162-25.744-14.378-7.805-14.378-7.805Z" transform="translate(-560.251 -1635.462)" fill="#dce736"/>
          <path id="Trazado_205303" data-name="Trazado 205303" d="M560.133,1664.674c-12.887,6.906-16.052,19.373-12.644,22.121,2.388,1.926,11.394,6.185,19.2,5.911a127.367,127.367,0,0,1,15.136.461s13.39-2.724,16.06-6.737-4.738-17.048-11.382-20.816S560.133,1664.674,560.133,1664.674Z" transform="translate(-539.537 -1643.563)" fill="#dce736"/>
          <path id="Trazado_205304" data-name="Trazado 205304" d="M623.542,1638.383a3.251,3.251,0,0,1-3.241-3.241v-10.908a3.241,3.241,0,1,1,6.482,0v10.908A3.251,3.251,0,0,1,623.542,1638.383Z" transform="translate(-590.658 -1614.124)" fill="#f09959"/>
          <path id="Trazado_205305" data-name="Trazado 205305" d="M623.542,1620.992a3.251,3.251,0,0,0-3.241,3.241v8.92c1.911,1.6,3.761.76,6.482-1.348v-7.572A3.251,3.251,0,0,0,623.542,1620.992Z" transform="translate(-590.658 -1614.124)" fill="#e38540"/>
          <path id="Trazado_205306" data-name="Trazado 205306" d="M648.51,1626.889c-.532,1.087-1.4,1.69-1.932,1.347s-.536-1.5,0-2.591,1.4-1.69,1.932-1.347S649.043,1625.8,648.51,1626.889Z" transform="translate(-608.513 -1616.339)" fill="#f09959"/>
          <path id="Trazado_205307" data-name="Trazado 205307" d="M608.234,1626.632c.616.99.734,2.185.264,2.671s-1.35.077-1.966-.912-.734-2.185-.264-2.67S607.618,1625.643,608.234,1626.632Z" transform="translate(-580.777 -1617.246)" fill="#f09959"/>
          <path id="Trazado_205308" data-name="Trazado 205308" d="M624.393,1616.668c0,3.964-2.5,7.177-5.574,7.177s-5.574-3.213-5.574-7.177,2.5-7.177,5.574-7.177S624.393,1612.7,624.393,1616.668Z" transform="translate(-585.789 -1606.188)" fill="#f09959"/>
          <path id="Trazado_205309" data-name="Trazado 205309" d="M662.063,1689.951c3.652,1.948,6.834,9.328,6.834,9.328s-8.217,1.278-9.921,2.556.244-.487,1.217-4.017S662.063,1689.951,662.063,1689.951Z" transform="translate(-616.88 -1661.707)" fill="#75b62f"/>
          <path id="Trazado_205310" data-name="Trazado 205310" d="M569.857,1688.235c.852,3.9,4.93,14.771,4.93,14.771s-3.777-4.3-7.791-4.545-5.5-.3-5.478.669c0,.193.669-4.321,3.774-7.121A46.86,46.86,0,0,1,569.857,1688.235Z" transform="translate(-550.097 -1660.523)" fill="#75b62f"/>
          <path id="Trazado_205311" data-name="Trazado 205311" d="M608.334,1723.927H586.283a1.818,1.818,0,0,1-1.794-1.518l-2.659-15.869a1.818,1.818,0,0,1,1.794-2.119h27.369a1.819,1.819,0,0,1,1.794,2.119l-2.659,15.869A1.819,1.819,0,0,1,608.334,1723.927Z" transform="translate(-564.095 -1671.692)" fill="#2a66c6"/>
          <path id="Trazado_205312" data-name="Trazado 205312" d="M608.334,1725.494H586.283a1.8,1.8,0,0,1-1.794-1.464l-2.659-15.3a1.774,1.774,0,0,1,1.794-2.043h27.369a1.774,1.774,0,0,1,1.794,2.043l-2.659,15.3A1.8,1.8,0,0,1,608.334,1725.494Z" transform="translate(-564.095 -1673.259)" fill="#63acc2"/>
          <path id="Trazado_205313" data-name="Trazado 205313" d="M601.46,1783.267c-.132-.023-14.242-3.554-17.391-.952s10.544,2.646,13.009,2.076S601.46,1783.267,601.46,1783.267Z" transform="translate(-565.334 -1724.78)" fill="#1b243d"/>
          <path id="Trazado_205314" data-name="Trazado 205314" d="M651.373,1785.307a10.79,10.79,0,0,1,6.984-1.859c3.971.411,7.395,1.277,3.971,2.351a25.171,25.171,0,0,1-8.627,1.073A2.981,2.981,0,0,1,651.373,1785.307Z" transform="translate(-612.099 -1726.187)" fill="#1b243d"/>
          <path id="Trazado_205315" data-name="Trazado 205315" d="M620.746,1599.2c-3.621,1.1-2.36,11.292,1.779,10.955s4.308-4.743,4.014-7.6S624.482,1598.066,620.746,1599.2Z" transform="translate(-589.495 -1598.837)" fill="#0f2d5c"/>
          <path id="Trazado_205316" data-name="Trazado 205316" d="M612.369,1608.208c-1.007-.965-2.392,2.073-1.847,3.408s-.218,2.112.521,3.549-1.36-.913-1.654-2.634-.462-4.7-.881-6.045.021-3.672,1.892-4.156,2.306-1.343,3.019-1.385a15.468,15.468,0,0,1,5.792,1.217,4.364,4.364,0,0,1,2.476,4.407c-.126,2.1-.671,7.472-1.175,8.353s-.764.673-.613.168.7-3.526.277-4.618-.21-3.777-1.3-3.988-.839,1.651-2.141,1.791A37.639,37.639,0,0,1,612.369,1608.208Z" transform="translate(-582.42 -1600.29)" fill="#0f2d5c"/>
        </g>
      </g>
    </g>
  </g>
</svg>
