<svg xmlns="http://www.w3.org/2000/svg" xmlns:xlink="http://www.w3.org/1999/xlink" width="315.001" height="271.838" viewBox="0 0 315.001 271.838">
  <defs>
    <linearGradient id="linear-gradient" x1="0.5" x2="0.5" y2="1" gradientUnits="objectBoundingBox">
      <stop offset="0" stop-color="#12ad11"/>
      <stop offset="0.106" stop-color="#21b213"/>
      <stop offset="0.525" stop-color="#5bc51c"/>
      <stop offset="0.835" stop-color="#7fd121"/>
      <stop offset="1" stop-color="#8dd624"/>
    </linearGradient>
  </defs>
  <g id="Grupo_158114" data-name="Grupo 158114" transform="translate(10935.923 3141.727)">
    <g id="Grupo_158069" data-name="Grupo 158069">
      <g id="Grupo_158025" data-name="Grupo 158025" transform="translate(-235.922 -994.333)">
        <g id="Circle_Landing" data-name="Circle Landing" transform="translate(-10700.001 -2056.814)">
          <g id="Grupo_152611" data-name="Grupo 152611" transform="translate(0 0)">
            <path id="Trazado_204765" data-name="Trazado 204765" d="M2580.023,2806.9c-16.191-9.348-42.361-9.348-58.447,0-.076.044-.15.087-.223.132-10.357,6.108-13.884,14.647-10.6,22.426,1.743,4.141,5.416,8.068,11.013,11.3,16.194,9.35,42.37,9.35,58.458,0s16-24.509-.2-33.858Z" transform="translate(-2393.396 -2733.804)" fill="url(#linear-gradient)"/>
            <path id="Trazado_204766" data-name="Trazado 204766" d="M2569.7,2791.012c-20.353-11.75-53.356-11.75-73.576,0-.543.316-1.073.635-1.583.96l1.033.411c.461-.293.938-.579,1.429-.864,19.735-11.469,51.96-11.469,71.825,0s19.975,30.137.239,41.606-51.965,11.472-71.835,0c-7.288-4.208-11.92-9.385-13.881-14.82l-1.249.044c1.991,5.608,6.748,10.948,14.258,15.283,20.355,11.753,53.364,11.752,73.586,0s20.11-30.869-.245-42.621Z" transform="translate(-2375.529 -2722.295)" fill="url(#linear-gradient)"/>
            <path id="Trazado_204767" data-name="Trazado 204767" d="M2557.542,2775.51c-24.427-14.1-64.053-14.1-88.321,0q-1.494.868-2.867,1.782l2.752,1.091q1.183-.774,2.461-1.519c22.983-13.357,60.51-13.357,83.645,0s23.261,35.1.278,48.453-60.516,13.36-83.655,0c-8.789-5.074-14.254-11.358-16.4-17.933l-3.324.122c2.209,7.025,8,13.748,17.388,19.166,24.432,14.105,64.058,14.105,88.332,0s24.139-37.056-.293-51.162Z" transform="translate(-2356.026 -2711.064)" fill="url(#linear-gradient)"/>
            <path id="Trazado_204768" data-name="Trazado 204768" d="M2531,2743.786c-32.774-18.922-85.929-18.921-118.489,0s-32.392,49.715.381,68.636c13.792,7.963,31.194,12.576,49.149,13.834l-.173-4.112c-16.094-1.252-31.643-5.452-44.024-12.6-30.024-17.334-30.182-45.543-.348-62.88s78.528-17.334,108.552,0c19.453,11.231,26.372,27.022,20.725,41.465l6.656,1.392c6.507-15.893-.984-33.354-22.429-45.735Z" transform="translate(-2314.448 -2688.077)" fill="url(#linear-gradient)"/>
            <path id="Trazado_204769" data-name="Trazado 204769" d="M2390.12,2805.485c-35.768-20.65-35.96-54.251-.424-74.9s93.546-20.651,129.314,0,35.955,54.251.419,74.9-93.542,20.651-129.31,0Zm130.055-75.579c-17.64-10.184-41.049-15.794-65.914-15.794s-48.211,5.61-65.736,15.794-27.133,23.726-27.05,38.127,9.839,27.946,27.478,38.13,41.051,15.792,65.917,15.792,48.208-5.608,65.733-15.793,27.131-23.727,27.052-38.128-9.842-27.944-27.481-38.128Z" transform="translate(-2297.064 -2678.005)" fill="url(#linear-gradient)"/>
            <path id="Trazado_204770" data-name="Trazado 204770" d="M2512.293,2708.582l-2.848.49c12.678,20.668,8.43,44.049-12.781,62.826l2.38.983c13.4-11.792,20.553-25.612,20.469-40.077a46.575,46.575,0,0,0-7.22-24.222Zm-34.367-29.746c-23.246-12.2-53.053-18.88-84.59-18.88-33.592,0-65.135,7.577-88.811,21.335s-36.658,32.058-36.546,51.514,13.293,37.754,37.124,51.512,55.461,21.339,89.054,21.336a202.115,202.115,0,0,0,56.885-7.851l-1.449-1.49c-46.021,13.492-103.864,9.1-142.45-13.18-48.065-27.75-48.318-72.9-.564-100.656,46.3-26.908,121-27.727,169.306-2.454l2.042-1.187Z" transform="translate(-2236.246 -2642.777)" fill="url(#linear-gradient)"/>
            <path id="Trazado_204771" data-name="Trazado 204771" d="M2460.915,2653.667c-13.819-7.979-29.924-14.158-47.851-18.364a244,244,0,0,0-108.626,0c-17.88,4.206-33.916,10.386-47.645,18.364s-24.345,17.288-31.551,27.659c-6.958,10.017-10.455,20.6-10.391,31.46s3.674,21.446,10.745,31.46q.689.975,1.416,1.938l2.791-.533c-22.772-30-13.127-66.292,29.044-90.8,54.967-31.943,144.7-31.944,200.029,0s55.622,83.923.655,115.866c-34.2,19.877-81.87,27.39-126.331,22.527l-.706,1.67a247.09,247.09,0,0,0,27.165,1.476,237.45,237.45,0,0,0,54.281-6.12c17.883-4.208,33.911-10.386,47.645-18.367s24.348-17.286,31.551-27.656c6.956-10.019,10.449-20.6,10.389-31.461s-3.674-21.443-10.746-31.46c-7.317-10.369-18.038-19.677-31.862-27.659Z" transform="translate(-2201.687 -2622.759)" fill="url(#linear-gradient)"/>
            <path id="Trazado_204772" data-name="Trazado 204772" d="M2445.69,2636.323c-15.08-8.706-32.648-15.451-52.214-20.038a250.983,250.983,0,0,0-33.7-5.48l.208.549c31.156,2.987,61.076,11.425,85.123,25.308,61.288,35.384,61.612,92.96.728,128.342s-160.288,35.385-221.575,0-61.606-92.957-.717-128.342a167.89,167.89,0,0,1,23.45-11.2l-.2-.522a169.7,169.7,0,0,0-23.841,11.388c-14.988,8.71-26.574,18.864-34.43,30.182-7.592,10.929-11.4,22.481-11.34,34.329s4.014,23.4,11.726,34.329c7.986,11.316,19.684,21.472,34.764,30.178s32.654,15.451,52.219,20.042a266.229,266.229,0,0,0,118.531,0c19.511-4.589,37.006-11.332,51.993-20.041s26.566-18.862,34.425-30.179c7.59-10.931,11.407-22.482,11.34-34.329s-4.011-23.4-11.726-34.329c-7.986-11.32-19.684-21.472-34.77-30.182Z" transform="translate(-2177.187 -2610.805)" fill="url(#linear-gradient)"/>
          </g>
        </g>
        <g id="Grupo_152720" data-name="Grupo 152720" transform="translate(-10690.465 -2147.394)">
          <g id="Grupo_152614" data-name="Grupo 152614" transform="translate(191.367 36.795)">
            <ellipse id="Elipse_12853" data-name="Elipse 12853" cx="12.174" cy="4.345" rx="12.174" ry="4.345" transform="translate(18.731 68.091)" opacity="0.1"/>
            <g id="Grupo_152613" data-name="Grupo 152613">
              <g id="Grupo_152612" data-name="Grupo 152612" transform="translate(18.922 31.819)">
                <path id="Trazado_204773" data-name="Trazado 204773" d="M2814.111,2567.909c.155,1.245,1.715,12.42,1.635,14.058a6.8,6.8,0,0,0,3.816,1.091s.235-4.6.351-6.116.624-4.634.546-5.85a9.35,9.35,0,0,0-1.428-3.223v-11.76s1.818,9.7,3.375,13.32,4.433,18.888,4.433,18.888c-.73,2.055-6.119,4.4-3.1,5.629s4.8-1.952,5.629-2.334,2.661-1.057,1.578-4.309-.871-9.491-1.132-12.882a17.907,17.907,0,0,0-2.2-6.681s.1-1.748,0-5.242-1.72-14.54-1.72-14.54h-13.295S2813.957,2566.66,2814.111,2567.909Z" transform="translate(-2810.337 -2547.956)" fill="#212120"/>
                <path id="Trazado_204774" data-name="Trazado 204774" d="M2842.785,2667.172c3.017,1.235,4.8-1.952,5.629-2.333s2.661-1.057,1.578-4.309a3.948,3.948,0,0,1-4.1,1.013C2845.157,2663.6,2839.768,2665.94,2842.785,2667.172Z" transform="translate(-2829.385 -2621.185)" fill="#333"/>
                <path id="Trazado_204775" data-name="Trazado 204775" d="M2806.291,2649.276c1.209,1.091,3.468.039,4.987-.193s2.609.039,3.8-.234.283-2.491.283-2.491a6.8,6.8,0,0,1-3.816-1.091C2811.471,2646.9,2805.083,2648.185,2806.291,2649.276Z" transform="translate(-2806.139 -2611.255)" fill="#333"/>
              </g>
              <path id="Trazado_204776" data-name="Trazado 204776" d="M2820.624,2508.054l3.463.088s.539-18.3,4.218-21.471c-.972-.413-1.792-.727-2.122-.853a9.913,9.913,0,0,0-3.221-.258C2819.216,2492.722,2820.624,2508.054,2820.624,2508.054Z" transform="translate(-2796.47 -2475.539)" fill="#fff"/>
              <path id="Trazado_204777" data-name="Trazado 204777" d="M2848.086,2515.462c2.447-1.774,7.882-5.018,7.882-6.248,0-1.56-4.9-10.951-5.5-12.227s-1.941-2.643-3.661-1.751a3.2,3.2,0,0,0-1.147,4.332c.382.722,5.219,7.926,4.806,8.849-.3.676-2.983,3.024-4.672,4.409A10.255,10.255,0,0,1,2848.086,2515.462Z" transform="translate(-2812.661 -2481.658)" fill="#333"/>
              <path id="Trazado_204778" data-name="Trazado 204778" d="M2774.058,2503.35s5.384-2.5,6.6-3.577,8.475-7.851,9.551-9.205-.451-3.264-.451-3.264c-.729-.7-1.792-1.163-2.338-.56s-6.555,7.993-8.048,8.93c-1.233.773-5.139,3.963-7.187,5.108A12.833,12.833,0,0,1,2774.058,2503.35Z" transform="translate(-2765.131 -2476.138)" fill="#333"/>
              <path id="Trazado_204779" data-name="Trazado 204779" d="M2752,2529.65a4.036,4.036,0,0,0,5.072,1.771,17.438,17.438,0,0,0,3.107-1.637,10.562,10.562,0,0,0-1.98-2.769.777.777,0,0,1-.155.028c-1.284.106-3.751-1.39-4.584-.624s1.841,1.771,1.841,1.771S2752.036,2529.232,2752,2529.65Z" transform="translate(-2752 -2501.985)" fill="#fac2b0"/>
              <path id="Trazado_204780" data-name="Trazado 204780" d="M2769.737,2527.812a10.568,10.568,0,0,1,1.98,2.77,5.859,5.859,0,0,0,.737-.575l.01-.013a12.846,12.846,0,0,0-1.871-2.568A3.93,3.93,0,0,1,2769.737,2527.812Z" transform="translate(-2763.538 -2502.782)" fill="#fff"/>
              <path id="Trazado_204781" data-name="Trazado 204781" d="M2832.265,2517.4c1.31.639,5.969,1.488,7.191.657s-1.166-9.012-1.222-10.206,0-7.393.552-9.226,2.009-5.85,1.369-7.044c-.428-.8-2.978-1.993-4.922-2.813-3.679,3.174-4.218,21.471-4.218,21.471S2830.955,2516.759,2832.265,2517.4Z" transform="translate(-2803.398 -2477.635)" fill="#333"/>
              <path id="Trazado_204782" data-name="Trazado 204782" d="M2811.443,2515.941c.583.292,2.94-.9,3.027-1.6s-.144-6.258-.144-6.258-1.408-15.332,2.338-22.5a14.457,14.457,0,0,0-4.2.586,6.657,6.657,0,0,0-1.774,4.94c.056,2.648.023,16.01,0,17.523S2810.86,2515.649,2811.443,2515.941Z" transform="translate(-2790.172 -2475.566)" fill="#333"/>
              <path id="Trazado_204783" data-name="Trazado 204783" d="M2829.067,2487.42l-.822,1.19a10.38,10.38,0,0,1,.411-3.406Z" transform="translate(-2801.591 -2475.318)" fill="#efefef"/>
              <path id="Trazado_204784" data-name="Trazado 204784" d="M2825.6,2495.857s-1.956,8.129-1.562,13.5l-1.256,2.548-.857-2.772s1.511-10.808,2.565-13.43Z" transform="translate(-2797.482 -2482.151)" fill="#3d46c2"/>
              <path id="Trazado_204785" data-name="Trazado 204785" d="M2822.926,2461.126c-1.518.166-2.444.688-2.68,1.827a8.3,8.3,0,0,0,.308,3.345c.166.593,1.471,3.915,2.064,3.962s3.843-1.4,3.891-3.488,0-5.125-.617-5.314A24.159,24.159,0,0,0,2822.926,2461.126Z" transform="translate(-2796.344 -2459.655)" fill="#fac2b0"/>
              <path id="Trazado_204786" data-name="Trazado 204786" d="M2826.553,2463.189s-1.51-1.636-1.51-2.8c0,0-3.74.54-4.549-.324,0,0,.09-2.535,4.639-3.11s3.866,6.832,2.589,8.289Z" transform="translate(-2796.555 -2456.918)" fill="#6b461b"/>
              <path id="Trazado_204787" data-name="Trazado 204787" d="M2832.934,2473.228l.213,4.905s-.1,2.434-3.741,1.994l-.749-4.4Z" transform="translate(-2801.864 -2467.528)" fill="#fac2b0"/>
              <path id="Trazado_204788" data-name="Trazado 204788" d="M2836.633,2472.049s.778-2.027,1.665-1.26-.866,2.344-1.424,2.388Z" transform="translate(-2807.053 -2465.828)" fill="#fac2b0"/>
              <path id="Trazado_204789" data-name="Trazado 204789" d="M2835.606,2485.2l.552,1.245a6.418,6.418,0,0,1-3,2.672l-.717-1.63A4.769,4.769,0,0,0,2835.606,2485.2Z" transform="translate(-2804.323 -2475.318)" fill="#efefef"/>
              <path id="Trazado_204790" data-name="Trazado 204790" d="M2830.033,2491.616l-.638-.07-.654.946.181.508,1.111.149.533-.323Z" transform="translate(-2801.919 -2479.443)" fill="#3d46c2"/>
              <path id="Trazado_204791" data-name="Trazado 204791" d="M2838.484,2554.237c1.112-.193.428-1.338.626-1.563s1.854-.763,2.14-1.686a1,1,0,0,1,.278-.345,10.321,10.321,0,0,0-2.215-2.687c-.222.173-.389.3-.482.356a6.044,6.044,0,0,0-2.261,2.963C2836.347,2552.388,2837.371,2554.428,2838.484,2554.237Z" transform="translate(-2806.992 -2516.137)" fill="#fac2b0"/>
              <path id="Trazado_204792" data-name="Trazado 204792" d="M2844.479,2546.747a10.327,10.327,0,0,1,2.215,2.687h0a9.4,9.4,0,0,1,.885-.7,10.264,10.264,0,0,0-2.295-2.635C2844.977,2546.353,2844.7,2546.574,2844.479,2546.747Z" transform="translate(-2812.157 -2514.928)" fill="#fff"/>
            </g>
          </g>
          <g id="Grupo_152617" data-name="Grupo 152617" transform="translate(62.809 38.258)">
            <ellipse id="Elipse_12854" data-name="Elipse 12854" cx="12.174" cy="4.345" rx="12.174" ry="4.345" transform="translate(0 64.61)" opacity="0.1"/>
            <g id="Grupo_152616" data-name="Grupo 152616" transform="translate(0.955)">
              <path id="Trazado_204793" data-name="Trazado 204793" d="M2390.56,2647.279a10.514,10.514,0,0,1,.09,1.276c0,1.877-1.511,1.617-1.511,1.617-3.339-1.253-1.983-7.2-1.826-7.826a4.724,4.724,0,0,1,.941-1.315c-.322,1.722-.761,4.9.088,6.129C2388.992,2648.106,2389.886,2647.774,2390.56,2647.279Z" transform="translate(-2386.909 -2578.145)" fill="#61111f"/>
              <path id="Trazado_204794" data-name="Trazado 204794" d="M2411.356,2575.015a11.615,11.615,0,0,1-2.785-.222c-.292-2.4-1.269-6.939-1.426-8.017-.168-1.147.794-4.644.48-6.312s-.838-7.408-.838-7.408-3.439,9.545-4.035,11.58c-.42,1.431-3.5,7.983-5.5,12.266a17.478,17.478,0,0,1-2.615-1.06c.506-1.8.807-5.056,1.3-6.719a33.12,33.12,0,0,1,2.5-5.789c.364-.469,0-3.339.235-6.469s2.112-12.362,2.112-12.362l10.953.614s.314,15.868.366,17.591C2412.151,2564.033,2411.235,2570.946,2411.356,2575.015Z" transform="translate(-2391.938 -2515.354)" fill="#3d46c2"/>
              <path id="Trazado_204795" data-name="Trazado 204795" d="M2441.775,2643.245c-1.1.626-3.5-.155-4.616-.469s-3.21.784-4.149-.155c-.451-.454-.335-1.233-.116-2.171a5.611,5.611,0,0,0,3.705-.844C2437.863,2641.649,2442.857,2642.629,2441.775,2643.245Z" transform="translate(-2416.696 -2577.218)" fill="#61111f"/>
              <path id="Trazado_204796" data-name="Trazado 204796" d="M2436.959,2634.117a5.615,5.615,0,0,1-3.705.843,10.761,10.761,0,0,0,.482-3.36c-.013-.134-.028-.278-.046-.433a11.574,11.574,0,0,0,2.784.222,6.575,6.575,0,0,0,.443,2.664C2436.931,2634.073,2436.944,2634.1,2436.959,2634.117Z" transform="translate(-2417.056 -2571.729)" fill="#fac2b0"/>
              <path id="Trazado_204797" data-name="Trazado 204797" d="M2392.312,2642.815c-.673.5-1.568.828-2.218-.118-.848-1.231-.41-4.408-.088-6.13a7.767,7.767,0,0,0,1.093-1.653,4.877,4.877,0,0,0,.263-.745,17.514,17.514,0,0,0,2.615,1.06c-.843,1.8-1.493,3.2-1.679,3.646C2391.817,2640.042,2392.139,2641.4,2392.312,2642.815Z" transform="translate(-2388.661 -2573.682)" fill="#fac2b0"/>
              <path id="Trazado_204798" data-name="Trazado 204798" d="M2417.79,2467.541c.877-.446,2.63-.386,2.268-3.681s-4.052-2.791-5.14-2.631a5.174,5.174,0,0,0-4.082,4.431,16.1,16.1,0,0,0,1.783,10.144Z" transform="translate(-2402.381 -2461.104)" fill="#d88f28"/>
              <path id="Trazado_204799" data-name="Trazado 204799" d="M2420.312,2517.188s-3.528,1.818-3.308-6.838l-2.256.036s-1.292,6.583-2.447,6.583-5.665-1.31-6.1-.947c0,0,1.89-5.42,1.962-7.31s-2.437-11.606-1.382-12.769a17.121,17.121,0,0,1,3.612-2.637,7.667,7.667,0,0,1,1.336-.637c.356-.108.923-.266,1.55-.42a11.023,11.023,0,0,1,3.174-.472c.841.166,2.552,4.059,2.88,5.15a16.363,16.363,0,0,1,.253,5.675C2419.258,2503.908,2419.332,2513.985,2420.312,2517.188Z" transform="translate(-2399.457 -2481.041)" fill="#dce736"/>
              <g id="Grupo_152615" data-name="Grupo 152615" transform="translate(15.208 10.925)">
                <path id="Trazado_204800" data-name="Trazado 204800" d="M2468.554,2520.088c0,.554-.555,3.316-4.636,2.169a24.678,24.678,0,0,0-4.33-.81,4.25,4.25,0,0,1,.216-2.664,20.988,20.988,0,0,0,4.113.5c1.191-.129,2.127-1.361,2.509-1.147s-.722,1.488-.722,1.488S2468.554,2519.536,2468.554,2520.088Z" transform="translate(-2449.298 -2509.109)" fill="#fac2b0"/>
                <path id="Trazado_204801" data-name="Trazado 204801" d="M2440.712,2504.7c-.864-.09-1.6-.145-2.253-.266a5.448,5.448,0,0,1-1.367-.412c-1.787-.836-5.784-7.654-6.336-8.546a3.431,3.431,0,0,1-.255-2.212c.722-.766,2.21-1.573,3.02,0s4,7.823,4.847,8.164a5.2,5.2,0,0,0,.519.159c.5.134,1.24.3,2.042.449A4.252,4.252,0,0,0,2440.712,2504.7Z" transform="translate(-2430.422 -2492.36)" fill="#eaf086"/>
                <path id="Trazado_204802" data-name="Trazado 204802" d="M2455.747,2518.8a4.256,4.256,0,0,0-.216,2.664c.2.521-2.282.168-2.253-.155a.827.827,0,0,0,0-.111,4.151,4.151,0,0,1,.428-2.847,2.178,2.178,0,0,1,.168-.219,8.261,8.261,0,0,1,1.911.513A.752.752,0,0,1,2455.747,2518.8Z" transform="translate(-2445.241 -2509.122)" fill="#edeced"/>
              </g>
              <path id="Trazado_204803" data-name="Trazado 204803" d="M2414.748,2513.275s-1.292,6.583-2.447,6.583-5.665-1.31-6.1-.946c0,0,1.89-5.42,1.962-7.31s-2.437-11.606-1.382-12.769a17.13,17.13,0,0,1,3.612-2.637C2415.949,2500.921,2414.748,2513.275,2414.748,2513.275Z" transform="translate(-2399.457 -2483.93)" fill="#911929"/>
              <path id="Trazado_204804" data-name="Trazado 204804" d="M2433.486,2517.188s-3.528,1.818-3.308-6.838a27.4,27.4,0,0,0,0-8.682c-.753-3.509-1.663-7.426-3.726-9.419a11.027,11.027,0,0,1,3.175-.472c.84.166,2.552,4.059,2.88,5.15a16.375,16.375,0,0,1,.253,5.675C2432.431,2503.908,2432.506,2513.985,2433.486,2517.188Z" transform="translate(-2412.631 -2481.041)" fill="#911929"/>
              <path id="Trazado_204805" data-name="Trazado 204805" d="M2418.938,2466.085c2.665.19,3.617.724,3.729,2.727s.167,6.177-1.864,6.622-4.981-2.729-4.981-4.676S2417.245,2465.965,2418.938,2466.085Z" transform="translate(-2405.716 -2464.342)" fill="#fac2b0"/>
              <path id="Trazado_204806" data-name="Trazado 204806" d="M2418.818,2485.036l-.622,3.9a2.271,2.271,0,0,0,2.614.719l1.3-3.79Z" transform="translate(-2407.261 -2476.671)" fill="#fac2b0"/>
              <path id="Trazado_204807" data-name="Trazado 204807" d="M2420.791,2465.742a6.735,6.735,0,0,1-2.319,3.043c-1.27.733-3.174,3.463-3.174,3.463s-3.207-1.943-1.634-5.27,3.387-4.143,4.264-3.931S2421.3,2464.683,2420.791,2465.742Z" transform="translate(-2404.031 -2462.348)" fill="#d88f28"/>
              <path id="Trazado_204808" data-name="Trazado 204808" d="M2437.969,2542.613c-.268.807-.57,1.276-1.276,1.042s-2.285-1.949-2.955-1.949c-.3,0-2.465-.06-4.886-.269-.263-1.173.787-2.261.663-2.519a28.724,28.724,0,0,0,4.123.707c1.176,0,1.545-.506,2.419.034S2438.238,2541.806,2437.969,2542.613Z" transform="translate(-2414.164 -2511.721)" fill="#fac2b0"/>
              <path id="Trazado_204809" data-name="Trazado 204809" d="M2413.258,2518.1c-.928-.08-1.9-.183-2.811-.314-2.076-.294-3.875-.727-4.329-1.364-1.176-1.645-1.31-8.532-1.276-10.211s.774-3.463,2.385-3.125c1,.209,1.779,1.815,1.645,3.125s-.505,7.019.536,7.893a7.246,7.246,0,0,0,2.115.861c.732.217,1.57.426,2.4.617C2414.045,2515.843,2413,2516.931,2413.258,2518.1Z" transform="translate(-2398.571 -2488.388)" fill="#eaf086"/>
              <path id="Trazado_204810" data-name="Trazado 204810" d="M2423.7,2540.031a9,9,0,0,1-2.806-.152s0-.059,0-.162a3.5,3.5,0,0,1,1.075-2.821,1.732,1.732,0,0,1,.214-.139,8.9,8.9,0,0,1,2.184.753v0C2424.482,2537.77,2423.433,2538.858,2423.7,2540.031Z" transform="translate(-2409.009 -2510.315)" fill="#edeced"/>
            </g>
          </g>
          <g id="Grupo_152693" data-name="Grupo 152693" transform="translate(51.866)">
            <g id="Grupo_152629" data-name="Grupo 152629" transform="translate(0 57.526)">
              <path id="Trazado_204811" data-name="Trazado 204811" d="M2436.067,2813.672l76.294-44.318,72.523,41.871-76.294,44.318Z" transform="translate(-2406.988 -2680.886)" opacity="0.1"/>
              <g id="Grupo_152628" data-name="Grupo 152628" transform="translate(30.786 19.831)">
                <g id="Grupo_152627" data-name="Grupo 152627">
                  <g id="Grupo_152626" data-name="Grupo 152626">
                    <g id="Grupo_152625" data-name="Grupo 152625" style="isolation: isolate">
                      <g id="Grupo_152619" data-name="Grupo 152619" transform="translate(0.001)">
                        <g id="Grupo_152618" data-name="Grupo 152618">
                          <path id="Trazado_204812" data-name="Trazado 204812" d="M2441.107,2611.9l66.988-38.929-.157,75.011-66.987,38.929Z" transform="translate(-2440.951 -2572.974)" fill="#987253"/>
                        </g>
                      </g>
                      <g id="Grupo_152620" data-name="Grupo 152620" transform="translate(66.988 0)">
                        <path id="Trazado_204813" data-name="Trazado 204813" d="M2632.768,2572.974h0l63.224,36.5-.157,75.011-63.224-36.5Z" transform="translate(-2632.611 -2572.974)" fill="#b98e62"/>
                      </g>
                      <g id="Grupo_152622" data-name="Grupo 152622" transform="translate(0 38.928)">
                        <g id="Grupo_152621" data-name="Grupo 152621">
                          <path id="Trazado_204814" data-name="Trazado 204814" d="M2441.106,2684.354h0l63.224,36.5-.157,75.011-63.224-36.5Z" transform="translate(-2440.949 -2684.354)" fill="#b98e62"/>
                        </g>
                      </g>
                      <g id="Grupo_152624" data-name="Grupo 152624" transform="translate(63.224 36.502)">
                        <g id="Grupo_152623" data-name="Grupo 152623">
                          <path id="Trazado_204815" data-name="Trazado 204815" d="M2622,2716.34l66.988-38.929-.157,75.011-66.987,38.928Z" transform="translate(-2621.843 -2677.411)" fill="#987253"/>
                        </g>
                      </g>
                    </g>
                  </g>
                </g>
              </g>
              <path id="Trazado_204816" data-name="Trazado 204816" d="M2398.117,2574.994l66.988-38.928-23.112-19.831-67.13,39.641Z" transform="translate(-2367.175 -2516.235)" fill="#debb8d"/>
              <path id="Trazado_204817" data-name="Trazado 204817" d="M2633.06,2539.52l23.967-17.975L2719.4,2557.9l-23.112,18.119Z" transform="translate(-2535.13 -2519.689)" fill="#debb8d"/>
              <path id="Trazado_204818" data-name="Trazado 204818" d="M2622.3,2716.344l66.983-38.932,23.112,2.426-66.413,39.788Z" transform="translate(-2528.133 -2621.078)" fill="#debb8d"/>
              <path id="Trazado_204819" data-name="Trazado 204819" d="M2383.826,2684.354l63.208,36.5-31.244,7.848-62.923-36.646Z" transform="translate(-2352.867 -2625.594)" fill="#debb8d"/>
            </g>
            <g id="Grupo_152692" data-name="Grupo 152692" transform="translate(60.386)">
              <g id="Grupo_152691" data-name="Grupo 152691" transform="translate(0)">
                <g id="Grupo_152689" data-name="Grupo 152689" transform="translate(22.845 81.805)">
                  <g id="Grupo_152636" data-name="Grupo 152636" transform="translate(9.176 38.571)">
                    <g id="Grupo_152635" data-name="Grupo 152635" transform="translate(0 0)" style="isolation: isolate">
                      <g id="Grupo_152630" data-name="Grupo 152630" transform="translate(0.011 0.019)">
                        <path id="Trazado_204820" data-name="Trazado 204820" d="M2624.049,2701.267h0a10.2,10.2,0,0,0,4.716,1.58,10.536,10.536,0,0,1-9.562-.1c-2.6-1.556-2.542-4.036.136-5.539a10.536,10.536,0,0,1,9.562.1c2.6,1.556,2.542,4.036-.136,5.538A10.2,10.2,0,0,1,2624.049,2701.267Z" transform="translate(-2617.29 -2696.113)" fill="#aad4f1"/>
                      </g>
                      <g id="Grupo_152631" data-name="Grupo 152631" transform="translate(6.766 3.936)">
                        <path id="Trazado_204821" data-name="Trazado 204821" d="M2636.625,2707.32q0,.619,0,1.237h0a.181.181,0,0,1,0-.062v-.247c0-.1,0-.206,0-.309Z" transform="translate(-2636.618 -2707.32)" fill="#aad4f1"/>
                      </g>
                      <g id="Grupo_152632" data-name="Grupo 152632" transform="translate(6.77 3.936)">
                        <path id="Trazado_204822" data-name="Trazado 204822" d="M2636.629,2708.557h0l0-1.237Q2636.631,2707.939,2636.629,2708.557Z" transform="translate(-2636.629 -2707.32)" fill="#aad4f1"/>
                      </g>
                      <g id="Grupo_152633" data-name="Grupo 152633" transform="translate(6.769 3.936)">
                        <path id="Trazado_204823" data-name="Trazado 204823" d="M2636.631,2707.32l0,1.237h0Q2636.629,2707.938,2636.631,2707.32Z" transform="translate(-2636.627 -2707.32)" fill="#aad4f1"/>
                      </g>
                      <g id="Grupo_152634" data-name="Grupo 152634">
                        <ellipse id="Elipse_12855" data-name="Elipse 12855" cx="3.917" cy="6.762" rx="3.917" ry="6.762" transform="matrix(0.003, -1, 1, 0.003, 0, 7.834)" fill="#4d92ba"/>
                      </g>
                    </g>
                  </g>
                  <g id="Grupo_152643" data-name="Grupo 152643" transform="translate(2.783 29.758)">
                    <g id="Grupo_152642" data-name="Grupo 152642" transform="translate(0 0)" style="isolation: isolate">
                      <g id="Grupo_152637" data-name="Grupo 152637" transform="translate(6.385 8.168)">
                        <ellipse id="Elipse_12856" data-name="Elipse 12856" cx="3.917" cy="6.762" rx="3.917" ry="6.762" transform="translate(0 7.834) rotate(-89.838)" fill="#3d46c2"/>
                      </g>
                      <g id="Grupo_152638" data-name="Grupo 152638" transform="translate(0.022 0.037)">
                        <path id="Trazado_204824" data-name="Trazado 204824" d="M2619.976,2685.143a5.734,5.734,0,0,1-3.1.691c2.678-1.5,2.739-3.982.136-5.539a10.536,10.536,0,0,0-9.562-.1c-2.678,1.5-2.739,3.982-.136,5.538a10.537,10.537,0,0,0,9.562.1,5.734,5.734,0,0,0,3.1-.691c-.211.117-.5.268-.713.377-.17.086-.4.192-.574.272-.291.135-.687.3-.989.4-.189.067-.44.158-.632.218-.245.078-.575.175-.823.241-.4.107-.934.217-1.339.292-.227.042-.533.084-.762.113-.207.026-.484.053-.692.07s-.5.033-.712.04-.493.006-.7.009-.5-.011-.713-.023-.493-.038-.7-.055c-.231-.018-.538-.061-.768-.1a15.761,15.761,0,0,1-2.692-.646c-.378-.127-.876-.316-1.242-.475-.228-.1-.529-.239-.752-.348-.171-.083-.394-.2-.563-.292s-.4-.22-.562-.321c-.2-.122-.467-.289-.663-.419-.152-.1-.351-.238-.5-.344-.172-.125-.4-.3-.565-.427-.265-.2-.6-.5-.848-.72s-.566-.545-.8-.784c-2.8-2.937-2-6.7,2.348-9.141,5.208-2.922,13.533-2.838,18.595.188,4.146,2.479,4.817,6.162,2.062,9.02-.034.035-.08.083-.115.118-.142.139-.327.328-.474.462-.126.114-.292.268-.421.379-.16.138-.375.322-.542.452-.593.458-.643.494-1.105.8C2620.708,2684.713,2620.29,2684.959,2619.976,2685.143Z" transform="translate(-2599.027 -2670.949)" fill="#3d46c2"/>
                      </g>
                      <g id="Grupo_152639" data-name="Grupo 152639" transform="translate(20.971 11.383)">
                        <path id="Trazado_204825" data-name="Trazado 204825" d="M2662.657,2703.411c-.152.152-.354.356-.51.5-.123.117-.291.27-.419.383-.15.133-.355.306-.511.433-.136.111-.322.252-.461.359-.171.132-.408.3-.586.421-.151.1-.357.234-.511.335-.2.132-.484.293-.694.412a5.365,5.365,0,0,0,1.366-1.1A10.029,10.029,0,0,0,2662.657,2703.411Z" transform="translate(-2658.966 -2703.411)" fill="#3d46c2"/>
                      </g>
                      <g id="Grupo_152640" data-name="Grupo 152640" transform="translate(1.658 11.316)">
                        <path id="Trazado_204826" data-name="Trazado 204826" d="M2607.086,2705.915c-.309-.187-.71-.451-1.008-.655-.189-.129-.434-.311-.613-.454-.136-.108-.318-.252-.451-.364-.158-.134-.365-.315-.519-.454-.244-.221-.554-.534-.786-.77a9.819,9.819,0,0,0,2.084,1.629c5.062,3.026,13.387,3.11,18.595.188a5.381,5.381,0,0,1-1.366,1.1c-.173.093-.4.223-.577.309-.341.165-.8.384-1.147.528-.228.094-.535.214-.769.294-.309.107-.722.246-1.039.328-.4.1-.937.229-1.343.31-.265.053-.624.1-.893.14-.226.03-.529.065-.756.078-.212.012-.494.032-.706.04s-.5.012-.709.009c-.422-.006-.986-.044-1.407-.077-.21-.016-.489-.054-.7-.084-.233-.034-.544-.082-.774-.131-.4-.085-.93-.207-1.323-.318-.255-.072-.592-.177-.841-.266-.327-.116-.759-.281-1.077-.418-.342-.148-.789-.366-1.121-.536C2607.611,2706.221,2607.309,2706.05,2607.086,2705.915Z" transform="translate(-2603.71 -2703.22)" fill="#3d46c2"/>
                      </g>
                      <g id="Grupo_152641" data-name="Grupo 152641">
                        <ellipse id="Elipse_12857" data-name="Elipse 12857" cx="7.617" cy="13.15" rx="7.617" ry="13.15" transform="translate(0 15.233) rotate(-89.838)" fill="#3d46c2"/>
                      </g>
                    </g>
                  </g>
                  <g id="Grupo_152650" data-name="Grupo 152650" transform="translate(0.826 24.557)">
                    <g id="Grupo_152649" data-name="Grupo 152649" transform="translate(0 0)" style="isolation: isolate">
                      <g id="Grupo_152644" data-name="Grupo 152644" transform="translate(0.025 0.043)">
                        <path id="Trazado_204827" data-name="Trazado 204827" d="M2620.019,2671.762c2.759-2.858,2.09-6.544-2.059-9.024-5.062-3.026-13.387-3.11-18.594-.187-4.35,2.44-5.149,6.206-2.345,9.144-.241-.253-.415-.452-.417-.453-.115-.133-.267-.311-.379-.446-.058-.069-.132-.163-.187-.233-.425-.537-.729-1-.845-1.178s-.408-.635-.724-1.232c-.142-.268-.254-.5-.255-.5-.037-.077-.086-.18-.122-.258-.068-.152-.158-.355-.224-.509-1.223-2.913.169-6.109,4.146-8.341,5.98-3.356,15.541-3.259,21.354.216,3.771,2.254,5.039,5.376,3.831,8.208-.126.3-.231.517-.232.519-.072.151-.171.351-.246.5-.039.077-.093.178-.133.254-.318.591-.619,1.057-.733,1.229s-.42.634-.853,1.175c-.057.07-.132.164-.19.232-.113.135-.267.312-.382.444S2620.256,2671.512,2620.019,2671.762Z" transform="translate(-2593.439 -2656.085)" fill="#d5e3f4"/>
                      </g>
                      <g id="Grupo_152645" data-name="Grupo 152645" transform="translate(1.946 4.334)">
                        <ellipse id="Elipse_12858" data-name="Elipse 12858" cx="7.617" cy="13.15" rx="7.617" ry="13.15" transform="translate(0 15.233) rotate(-89.838)" fill="#d5e3f4"/>
                      </g>
                      <g id="Grupo_152646" data-name="Grupo 152646" transform="translate(24.283 10.922)">
                        <path id="Trazado_204828" data-name="Trazado 204828" d="M2668.347,2687.211c-.067.153-.157.356-.227.508-.036.078-.086.18-.123.258,0,0-.115.236-.259.5-.319.595-.617,1.057-.731,1.229s-.424.639-.852,1.174c-.056.07-.131.163-.189.232-.113.135-.266.312-.382.444,0,0-.176.2-.418.451a10.027,10.027,0,0,1-2.322,1.747,6.93,6.93,0,0,0,1.369-2.385A9.143,9.143,0,0,0,2668.347,2687.211Z" transform="translate(-2662.844 -2687.211)" fill="#d5e3f4"/>
                      </g>
                      <g id="Grupo_152647" data-name="Grupo 152647" transform="translate(0.454 10.839)">
                        <path id="Trazado_204829" data-name="Trazado 204829" d="M2597.82,2691.788c-.229-.245-.307-.328-.409-.446s-.268-.311-.38-.446c-.058-.069-.132-.163-.188-.233-.429-.543-.732-1.005-.846-1.179s-.412-.64-.725-1.233c-.041-.076-.094-.178-.133-.255-.074-.15-.171-.351-.243-.5,0,0-.1-.225-.229-.521a8.952,8.952,0,0,0,3.844,4.028c5.813,3.475,15.374,3.572,21.354.216a6.934,6.934,0,0,1-1.37,2.385c-5.208,2.922-13.532,2.838-18.594-.187A9.849,9.849,0,0,1,2597.82,2691.788Z" transform="translate(-2594.667 -2686.973)" fill="#d5e3f4"/>
                      </g>
                      <g id="Grupo_152648" data-name="Grupo 152648">
                        <ellipse id="Elipse_12859" data-name="Elipse 12859" cx="8.747" cy="15.101" rx="8.747" ry="15.101" transform="matrix(0.003, -1, 1, 0.003, 0, 17.494)" fill="#d5e3f4"/>
                      </g>
                    </g>
                  </g>
                  <g id="Grupo_152660" data-name="Grupo 152660" transform="translate(0.013 18.765)">
                    <g id="Grupo_152659" data-name="Grupo 152659" transform="translate(0 0)" style="isolation: isolate">
                      <g id="Grupo_152651" data-name="Grupo 152651" transform="translate(0.025 0.407)">
                        <path id="Trazado_204830" data-name="Trazado 204830" d="M2621.676,2655.995c1.206-2.832-.061-5.953-3.832-8.208-5.813-3.475-15.373-3.571-21.354-.215-3.976,2.231-5.369,5.427-4.147,8.34a15.846,15.846,0,0,1-.925-3.023c-.1-.517-.181-1.043-.231-1.564-.009-.1-.021-.225-.028-.321-.013-.189-.027-.441-.036-.631-.008-.162-.008-.283-.011-.642.007-2.4,1.619-4.789,4.822-6.587,6.3-3.537,16.379-3.435,22.506.228,3.013,1.8,4.51,4.128,4.5,6.448,0,.366-.014.646-.014.649-.01.189-.026.441-.04.63-.007.1-.02.225-.03.321a15.609,15.609,0,0,1-.241,1.563c-.07.343-.14.622-.141.624-.047.181-.112.422-.162.6-.026.092-.064.214-.092.306s-.067.214-.1.3c-.061.177-.145.412-.209.588C2621.857,2655.558,2621.812,2655.668,2621.676,2655.995Z" transform="translate(-2591.112 -2640.557)" fill="#3d46c2"/>
                      </g>
                      <g id="Grupo_152652" data-name="Grupo 152652" transform="translate(0.025 0.045)">
                        <path id="Trazado_204831" data-name="Trazado 204831" d="M2622.942,2649.146c.007-2.321-1.49-4.647-4.5-6.448-6.126-3.663-16.2-3.765-22.506-.228-3.2,1.8-4.815,4.189-4.822,6.587v-.363c.007-2.4,1.619-4.789,4.823-6.587,6.3-3.537,16.379-3.435,22.506.227,3.013,1.8,4.51,4.128,4.5,6.448C2622.944,2648.892,2622.943,2649.037,2622.942,2649.146Z" transform="translate(-2591.112 -2639.52)" fill="#3d46c2"/>
                      </g>
                      <g id="Grupo_152653" data-name="Grupo 152653" transform="translate(0.803 4.925)">
                        <ellipse id="Elipse_12860" data-name="Elipse 12860" cx="8.747" cy="15.101" rx="8.747" ry="15.101" transform="matrix(0.003, -1, 1, 0.003, 0, 17.494)" fill="#3d46c2"/>
                      </g>
                      <g id="Grupo_152654" data-name="Grupo 152654" transform="translate(26.454 9.671)">
                        <path id="Trazado_204832" data-name="Trazado 204832" d="M2672.131,2667.06c0,.359-.006.479-.014.642-.01.189-.026.441-.04.631-.007.1-.02.225-.03.321-.053.521-.134,1.047-.24,1.563a15.888,15.888,0,0,1-.943,3.019,9.141,9.141,0,0,1-4.135,4.161,11.493,11.493,0,0,0,.579-3.749C2670.512,2671.85,2672.125,2669.458,2672.131,2667.06Z" transform="translate(-2666.73 -2667.06)" fill="#3d46c2"/>
                      </g>
                      <g id="Grupo_152655" data-name="Grupo 152655" transform="translate(27.034 9.308)">
                        <path id="Trazado_204833" data-name="Trazado 204833" d="M2673.21,2666.023v.363c-.006,2.4-1.619,4.789-4.822,6.587v-.363C2671.592,2670.813,2673.2,2668.421,2673.21,2666.023Z" transform="translate(-2668.387 -2666.023)" fill="#3d46c2"/>
                      </g>
                      <g id="Grupo_152656" data-name="Grupo 152656" transform="translate(0.025 9.582)">
                        <path id="Trazado_204834" data-name="Trazado 204834" d="M2592.343,2672.986c-.133-.327-.178-.437-.233-.588-.064-.176-.146-.412-.207-.588-.031-.091-.069-.213-.1-.305s-.065-.214-.091-.307c-.05-.18-.113-.421-.158-.6,0,0-.07-.282-.138-.625-.1-.521-.182-1.047-.232-1.564-.009-.1-.022-.225-.028-.321-.013-.189-.028-.441-.036-.631,0,0-.012-.283-.011-.649-.007,2.321,1.49,4.647,4.5,6.448,6.126,3.662,16.2,3.764,22.505.228a11.5,11.5,0,0,1-.579,3.749c-5.98,3.356-15.541,3.26-21.354-.216A8.954,8.954,0,0,1,2592.343,2672.986Z" transform="translate(-2591.112 -2666.806)" fill="#3d46c2"/>
                      </g>
                      <g id="Grupo_152657" data-name="Grupo 152657" transform="translate(0.025 9.219)">
                        <path id="Trazado_204835" data-name="Trazado 204835" d="M2591.112,2666.131v-.362c-.007,2.32,1.49,4.647,4.5,6.448,6.127,3.662,16.2,3.764,22.506.227v.363c-6.3,3.536-16.379,3.435-22.506-.228C2592.6,2670.779,2591.105,2668.452,2591.112,2666.131Z" transform="translate(-2591.112 -2665.769)" fill="#3d46c2"/>
                      </g>
                      <g id="Grupo_152658" data-name="Grupo 152658">
                        <ellipse id="Elipse_12861" data-name="Elipse 12861" cx="9.219" cy="15.915" rx="9.219" ry="15.915" transform="matrix(0.003, -1, 1, 0.003, 0, 18.437)" fill="#3d46c2"/>
                      </g>
                    </g>
                  </g>
                  <g id="Grupo_152667" data-name="Grupo 152667" transform="translate(0.002 14.7)">
                    <g id="Grupo_152666" data-name="Grupo 152666" transform="translate(0 0)" style="isolation: isolate">
                      <g id="Grupo_152661" data-name="Grupo 152661" transform="translate(0.026 0.045)">
                        <path id="Trazado_204836" data-name="Trazado 204836" d="M2622.914,2640.35c.007-2.321-1.49-4.647-4.5-6.449-6.126-3.662-16.2-3.764-22.506-.227-3.2,1.8-4.816,4.189-4.823,6.587l.009-3.2c.007-2.4,1.619-4.79,4.823-6.587,6.3-3.537,16.379-3.435,22.506.227,3.013,1.8,4.51,4.128,4.5,6.448Z" transform="translate(-2591.083 -2627.889)" fill="#d5e3f4"/>
                      </g>
                      <g id="Grupo_152662" data-name="Grupo 152662" transform="translate(0 3.198)">
                        <ellipse id="Elipse_12862" data-name="Elipse 12862" cx="9.219" cy="15.915" rx="9.219" ry="15.915" transform="translate(0 18.437) rotate(-89.838)" fill="#d5e3f4"/>
                      </g>
                      <g id="Grupo_152663" data-name="Grupo 152663" transform="translate(27.035 9.308)">
                        <path id="Trazado_204837" data-name="Trazado 204837" d="M2673.19,2654.393l-.009,3.2c-.007,2.4-1.619,4.79-4.822,6.587l.009-3.2C2671.571,2659.182,2673.183,2656.791,2673.19,2654.393Z" transform="translate(-2668.359 -2654.393)" fill="#d5e3f4"/>
                      </g>
                      <g id="Grupo_152664" data-name="Grupo 152664" transform="translate(0.026 9.219)">
                        <path id="Trazado_204838" data-name="Trazado 204838" d="M2591.083,2657.336l.009-3.2c-.006,2.321,1.49,4.647,4.5,6.448,6.127,3.663,16.2,3.764,22.506.228l-.009,3.2c-6.3,3.537-16.379,3.435-22.506-.227C2592.573,2661.984,2591.077,2659.657,2591.083,2657.336Z" transform="translate(-2591.083 -2654.139)" fill="#d5e3f4"/>
                      </g>
                      <g id="Grupo_152665" data-name="Grupo 152665" transform="translate(0.009)">
                        <ellipse id="Elipse_12863" data-name="Elipse 12863" cx="9.219" cy="15.915" rx="9.219" ry="15.915" transform="translate(0 18.437) rotate(-89.838)" fill="#d5e3f4"/>
                      </g>
                    </g>
                  </g>
                  <g id="Grupo_152674" data-name="Grupo 152674" transform="translate(0 9.383)">
                    <g id="Grupo_152673" data-name="Grupo 152673" transform="translate(0 0)" style="isolation: isolate">
                      <g id="Grupo_152668" data-name="Grupo 152668" transform="translate(0.026 0.045)">
                        <path id="Trazado_204839" data-name="Trazado 204839" d="M2622.909,2626.389c.007-2.32-1.49-4.647-4.5-6.448-6.126-3.663-16.2-3.764-22.506-.228-3.2,1.8-4.815,4.188-4.823,6.587l.013-4.45c.007-2.4,1.619-4.79,4.823-6.587,6.3-3.537,16.379-3.435,22.505.228,3.013,1.8,4.51,4.128,4.5,6.448Z" transform="translate(-2591.078 -2612.675)" fill="#3d46c2"/>
                      </g>
                      <g id="Grupo_152669" data-name="Grupo 152669" transform="translate(0 4.45)">
                        <ellipse id="Elipse_12864" data-name="Elipse 12864" cx="9.219" cy="15.915" rx="9.219" ry="15.915" transform="translate(0 18.437) rotate(-89.838)" fill="#3d46c2"/>
                      </g>
                      <g id="Grupo_152670" data-name="Grupo 152670" transform="translate(27.035 9.308)">
                        <path id="Trazado_204840" data-name="Trazado 204840" d="M2673.189,2639.179l-.013,4.45c-.007,2.4-1.619,4.79-4.822,6.587l.013-4.45C2671.57,2643.968,2673.182,2641.577,2673.189,2639.179Z" transform="translate(-2668.354 -2639.179)" fill="#3d46c2"/>
                      </g>
                      <g id="Grupo_152671" data-name="Grupo 152671" transform="translate(0.026 9.22)">
                        <path id="Trazado_204841" data-name="Trazado 204841" d="M2591.078,2643.375l.013-4.45c-.007,2.32,1.49,4.647,4.5,6.448,6.127,3.662,16.2,3.764,22.506.227l-.012,4.45c-6.3,3.537-16.379,3.435-22.506-.228C2592.568,2648.022,2591.072,2645.7,2591.078,2643.375Z" transform="translate(-2591.078 -2638.925)" fill="#3d46c2"/>
                      </g>
                      <g id="Grupo_152672" data-name="Grupo 152672" transform="translate(0.013)">
                        <ellipse id="Elipse_12865" data-name="Elipse 12865" cx="9.219" cy="15.915" rx="9.219" ry="15.915" transform="translate(0 18.437) rotate(-89.838)" fill="#3d46c2"/>
                      </g>
                    </g>
                  </g>
                  <g id="Grupo_152681" data-name="Grupo 152681" transform="translate(0.002 5.318)">
                    <g id="Grupo_152680" data-name="Grupo 152680" transform="translate(0 0)" style="isolation: isolate">
                      <g id="Grupo_152675" data-name="Grupo 152675" transform="translate(0.026 0.045)">
                        <path id="Trazado_204842" data-name="Trazado 204842" d="M2622.914,2613.5c.007-2.32-1.49-4.647-4.5-6.448-6.126-3.663-16.2-3.764-22.506-.228-3.2,1.8-4.816,4.189-4.823,6.587l.009-3.2c.007-2.4,1.619-4.789,4.823-6.587,6.3-3.537,16.379-3.435,22.506.227,3.013,1.8,4.51,4.128,4.5,6.448Z" transform="translate(-2591.083 -2601.044)" fill="#d5e3f4"/>
                      </g>
                      <g id="Grupo_152676" data-name="Grupo 152676" transform="translate(0 3.198)">
                        <ellipse id="Elipse_12866" data-name="Elipse 12866" cx="9.219" cy="15.915" rx="9.219" ry="15.915" transform="translate(0 18.437) rotate(-89.838)" fill="#d5e3f4"/>
                      </g>
                      <g id="Grupo_152677" data-name="Grupo 152677" transform="translate(27.035 9.308)">
                        <path id="Trazado_204843" data-name="Trazado 204843" d="M2673.19,2627.547l-.009,3.2c-.007,2.4-1.619,4.79-4.822,6.587l.009-3.2C2671.571,2632.337,2673.183,2629.945,2673.19,2627.547Z" transform="translate(-2668.359 -2627.547)" fill="#d5e3f4"/>
                      </g>
                      <g id="Grupo_152678" data-name="Grupo 152678" transform="translate(0.026 9.219)">
                        <path id="Trazado_204844" data-name="Trazado 204844" d="M2591.083,2630.491l.009-3.2c-.006,2.32,1.49,4.647,4.5,6.448,6.127,3.662,16.2,3.764,22.506.227l-.009,3.2c-6.3,3.537-16.379,3.435-22.506-.228C2592.573,2635.138,2591.077,2632.812,2591.083,2630.491Z" transform="translate(-2591.083 -2627.293)" fill="#d5e3f4"/>
                      </g>
                      <g id="Grupo_152679" data-name="Grupo 152679" transform="translate(0.009)">
                        <ellipse id="Elipse_12867" data-name="Elipse 12867" cx="9.219" cy="15.915" rx="9.219" ry="15.915" transform="translate(0 18.437) rotate(-89.838)" fill="#d5e3f4"/>
                      </g>
                    </g>
                  </g>
                  <g id="Grupo_152688" data-name="Grupo 152688" transform="translate(0 0)">
                    <g id="Grupo_152687" data-name="Grupo 152687" transform="translate(0)" style="isolation: isolate">
                      <g id="Grupo_152682" data-name="Grupo 152682" transform="translate(0.026 0.045)">
                        <path id="Trazado_204845" data-name="Trazado 204845" d="M2622.909,2599.543c.007-2.321-1.49-4.647-4.5-6.448-6.126-3.662-16.2-3.764-22.506-.227-3.2,1.8-4.815,4.189-4.823,6.587l.013-4.45c.007-2.4,1.619-4.79,4.823-6.587,6.3-3.537,16.379-3.435,22.505.228,3.013,1.8,4.51,4.128,4.5,6.448Z" transform="translate(-2591.078 -2585.829)" fill="#3d46c2"/>
                      </g>
                      <g id="Grupo_152683" data-name="Grupo 152683" transform="translate(0 4.45)">
                        <ellipse id="Elipse_12868" data-name="Elipse 12868" cx="9.219" cy="15.915" rx="9.219" ry="15.915" transform="translate(0 18.437) rotate(-89.838)" fill="#3d46c2"/>
                      </g>
                      <g id="Grupo_152684" data-name="Grupo 152684" transform="translate(27.035 9.308)">
                        <path id="Trazado_204846" data-name="Trazado 204846" d="M2673.189,2612.333l-.013,4.45c-.007,2.4-1.619,4.789-4.822,6.587l.013-4.45C2671.57,2617.122,2673.182,2614.731,2673.189,2612.333Z" transform="translate(-2668.354 -2612.333)" fill="#3d46c2"/>
                      </g>
                      <g id="Grupo_152685" data-name="Grupo 152685" transform="translate(0.026 9.22)">
                        <path id="Trazado_204847" data-name="Trazado 204847" d="M2591.078,2616.529l.013-4.45c-.007,2.32,1.49,4.647,4.5,6.448,6.127,3.663,16.2,3.764,22.506.227l-.012,4.451c-6.3,3.537-16.379,3.435-22.506-.228C2592.568,2621.176,2591.072,2618.849,2591.078,2616.529Z" transform="translate(-2591.078 -2612.079)" fill="#3d46c2"/>
                      </g>
                      <g id="Grupo_152686" data-name="Grupo 152686" transform="translate(0.013)">
                        <ellipse id="Elipse_12869" data-name="Elipse 12869" cx="9.219" cy="15.915" rx="9.219" ry="15.915" transform="matrix(0.003, -1, 1, 0.003, 0, 18.437)" fill="#3d46c2"/>
                      </g>
                    </g>
                  </g>
                </g>
                <g id="Grupo_152690" data-name="Grupo 152690">
                  <circle id="Elipse_12870" data-name="Elipse 12870" cx="38.665" cy="38.665" r="38.665" transform="translate(0.134)" fill="#dce736"/>
                  <ellipse id="Elipse_12871" data-name="Elipse 12871" cx="14.808" cy="8.998" rx="14.808" ry="8.998" transform="translate(23.991 80.621)" fill="#dce736"/>
                  <path id="Trazado_204848" data-name="Trazado 204848" d="M2579.2,2571.191s1.284-11.725-8.107-19.808h45.83a28.078,28.078,0,0,0-8.107,19.808Z" transform="translate(-2555.204 -2481.572)" fill="#dce736"/>
                  <ellipse id="Elipse_12872" data-name="Elipse 12872" cx="18.654" cy="11.717" rx="18.654" ry="11.717" transform="matrix(0.558, -0.83, 0.83, 0.558, 0, 36.804)" fill="#fff" opacity="0.4"/>
                </g>
              </g>
            </g>
          </g>
          <g id="Grupo_152696" data-name="Grupo 152696" transform="translate(245.406 77.068)">
            <ellipse id="Elipse_12873" data-name="Elipse 12873" cx="11.973" cy="4.273" rx="11.973" ry="4.273" transform="translate(6.68 64.025)" opacity="0.1"/>
            <g id="Grupo_152695" data-name="Grupo 152695">
              <g id="Grupo_152694" data-name="Grupo 152694" transform="translate(0 10.254)">
                <path id="Trazado_204849" data-name="Trazado 204849" d="M2920.26,2617.487a3.367,3.367,0,0,1,1.322,2.055s5.5-1.541,7.189-3.447,5.817-10.384,6.464-11.74a2.61,2.61,0,0,0-.287-2.569c-.638-.256-2.03-.733-2.69.55s-4.514,9.795-5.137,10.53S2920.26,2617.487,2920.26,2617.487Z" transform="translate(-2915.49 -2601.484)" fill="#009498"/>
                <path id="Trazado_204850" data-name="Trazado 204850" d="M2906.613,2647.659c.036.328,1.541,1.736,2.274,1.565s3.267-1.161,3.818-1.9a3.366,3.366,0,0,0-1.322-2.055s-3.155-1.429-3.448-.991,1.393,1.468,1.393,1.468S2906.576,2647.327,2906.613,2647.659Z" transform="translate(-2906.613 -2629.269)" fill="#fac2b0"/>
              </g>
              <path id="Trazado_204851" data-name="Trazado 204851" d="M2951.886,2693.995a7.785,7.785,0,0,0,1.8.779,1.918,1.918,0,0,0,1.858-.465c0-.044-.007-.088-.012-.132-.156-1.923,1.543-7.464,1.811-8.94s-1.161-3.038-.582-5.722.582-9.877.582-9.877,1.385,8.4,1.565,10.235,3.4,15.913,2.948,17.433a2.529,2.529,0,0,1-.316.669,4.006,4.006,0,0,0,4.28-.265c-.027-.129-.051-.265-.073-.4-.27-1.787.4-10.235.579-12.293s-1.7-4.738-1.992-5.946a43.325,43.325,0,0,1,.295-9.566,8.694,8.694,0,0,0-.691-4.881l-11.423-2.226c-.6,1.9-.446,16.763-.431,18.238s-.015,11.4,0,12.6A1.35,1.35,0,0,1,2951.886,2693.995Z" transform="translate(-2936.063 -2630.853)" fill="#5a1f0c"/>
              <path id="Trazado_204852" data-name="Trazado 204852" d="M2965.64,2768.934a5.892,5.892,0,0,0,5.766-1.7c.762-.672,1.565.178,2.593-.672.949-.781.3-1.6-.015-3.126a4,4,0,0,1-4.28.265,5.836,5.836,0,0,1-2.187,1.79C2966.088,2766.787,2962.6,2768.085,2965.64,2768.934Z" transform="translate(-2944.225 -2696.579)" fill="#ac882e"/>
              <path id="Trazado_204853" data-name="Trazado 204853" d="M2934.02,2757.326c1.967.536,4.112-.94,5.1-1.027s2.861.446,3.8-.136c.916-.565.726-1.22.57-3.041a1.919,1.919,0,0,1-1.857.465,7.775,7.775,0,0,1-1.8-.779c-.414.679-1.468,1.091-2.99,1.836C2934.826,2755.626,2932.055,2756.787,2934.02,2757.326Z" transform="translate(-2924.004 -2689.665)" fill="#ac882e"/>
              <path id="Trazado_204854" data-name="Trazado 204854" d="M2964.881,2660.762l.2,1.386a12.07,12.07,0,0,1-8.2-.176,10.482,10.482,0,0,1-3.222-2.05l.137-1.347Z" transform="translate(-2937.213 -2628.368)" fill="#29120d"/>
              <path id="Trazado_204855" data-name="Trazado 204855" d="M2958.9,2662.864s-.027,1.187-.356,1.175a3.26,3.26,0,0,1-1.405-.783c-.039-.156-.134-1.309.061-1.309A7.15,7.15,0,0,1,2958.9,2662.864Z" transform="translate(-2939.442 -2630.562)" fill="#eaeae9"/>
              <path id="Trazado_204856" data-name="Trazado 204856" d="M2928.363,2655.855c.144.285,2.613-.737,2.613-.737s1.39,1.5,2.3,1.249a9.5,9.5,0,0,0,2.357-1.419,2.505,2.505,0,0,0-1.05-2.013s-2.839-.256-3.917.623S2928.222,2655.573,2928.363,2655.855Z" transform="translate(-2920.755 -2624.676)" fill="#fac2b0"/>
              <path id="Trazado_204857" data-name="Trazado 204857" d="M2960.152,2599.169c-.944-.408-5.55.36-5.736.636a7.509,7.509,0,0,0-1.988,4.334c-.062,2.3.145,3.417.207,6.523s-.332,8.449-.124,8.988,4.453,4.018,8.573,3.334,3.625-.621,3.583-1.408-.331-8.035.145-9.319,2.3-6.441,1.388-7.953A12.725,12.725,0,0,0,2960.152,2599.169Z" transform="translate(-2936.407 -2589.648)" fill="#75b62f"/>
              <path id="Trazado_204858" data-name="Trazado 204858" d="M2946.173,2627.675a2.5,2.5,0,0,1,1.049,2.013s6.71-1.787,8.407-3.094,5.434-6.471,6.761-8.8-.117-3.408-.117-3.408a2.087,2.087,0,0,0-2.929.769c-.711,1.079-4.769,7.209-5.707,8.146S2946.173,2627.675,2946.173,2627.675Z" transform="translate(-2932.347 -2599.417)" fill="#009498"/>
              <path id="Trazado_204859" data-name="Trazado 204859" d="M2963.38,2578.308c-1.9.584-2.676.872-3.025,2.443s.233,5.526,1.512,5.526,3.316-.64,3.723-3.723S2964.556,2577.947,2963.38,2578.308Z" transform="translate(-2941.507 -2576.121)" fill="#fac2b0"/>
              <path id="Trazado_204860" data-name="Trazado 204860" d="M2970.344,2588.177l.053,2.387a2.928,2.928,0,0,1-2.685,1.527,1.472,1.472,0,0,1-1.1-1.318l-.16-2.525-.247-3.288,4.556.517Z" transform="translate(-2945.381 -2580.482)" fill="#fac2b0"/>
              <path id="Trazado_204861" data-name="Trazado 204861" d="M2964.495,2578.292a2.527,2.527,0,0,1-1.42-1.969s-3.856-.4-3.921-1.5,3.792-3.05,5.5-2.614,3.179,2.275,2.372,5.583a4.164,4.164,0,0,1-1.275,2.05A3.013,3.013,0,0,1,2964.495,2578.292Z" transform="translate(-2940.79 -2572.146)" fill="#a95d26"/>
              <path id="Trazado_204862" data-name="Trazado 204862" d="M2974.632,2587.39c-.1-.427-.771-.09-1.4.811l.2.75S2974.952,2588.761,2974.632,2587.39Z" transform="translate(-2949.948 -2581.943)" fill="#fac2b0"/>
            </g>
          </g>
          <g id="Grupo_152703" data-name="Grupo 152703" transform="translate(268.945 146.527)">
            <ellipse id="Elipse_12874" data-name="Elipse 12874" cx="11.973" cy="4.273" rx="11.973" ry="4.273" transform="translate(5.652 67.656)" opacity="0.1"/>
            <g id="Grupo_152702" data-name="Grupo 152702">
              <g id="Grupo_152699" data-name="Grupo 152699" transform="translate(10.575 28.323)">
                <g id="Grupo_152697" data-name="Grupo 152697" transform="translate(0.574 16.225)">
                  <path id="Trazado_204863" data-name="Trazado 204863" d="M3006.179,2926.1s3.078,2.476,5.888-5.877l-.032-.755-.842-20.8a7.67,7.67,0,0,1-4.236-.326s.1,4.835.175,5.261.427,1.553.5,2.106,1.581,11.426,1.079,12.928a7.985,7.985,0,0,1-.611,1.234C3007.017,2921.785,3005.105,2924.749,3006.179,2926.1Z" transform="translate(-3005.862 -2898.337)" fill="#ecb7a6"/>
                  <path id="Trazado_204864" data-name="Trazado 204864" d="M3006.179,2965.426s3.078,2.476,5.888-5.877l-.032-.755c-1.875,3.294-3.294,3.74-4.122,3.4-.587-.239-.175-1.877.188-3C3007.017,2961.112,3005.105,2964.075,3006.179,2965.426Z" transform="translate(-3005.862 -2937.664)" fill="#4a225e"/>
                </g>
                <g id="Grupo_152698" data-name="Grupo 152698" transform="translate(4.121 15.677)">
                  <path id="Trazado_204865" data-name="Trazado 204865" d="M3017.129,2926.263c3.1,0,4.041-4.273,4.173-5.251a7.9,7.9,0,0,0-.1-1.809c-.122-.92-.3-1.938-.355-2.69a76.381,76.381,0,0,1,.913-10.272,7.928,7.928,0,0,0-.389-3.75,45.314,45.314,0,0,1,.781-5.38,10.435,10.435,0,0,1-5.052-.342s0,5.317-.02,5.963a3.955,3.955,0,0,0,.344,1.731c.26.706.986,12.628.967,13.788a9.965,9.965,0,0,1-1.259,3.287c-.071.144-.134.285-.2.421C3014.841,2926.545,3016.937,2926.263,3017.129,2926.263Z" transform="translate(-3016.01 -2896.769)" fill="#fac2b0"/>
                  <path id="Trazado_204866" data-name="Trazado 204866" d="M3017.129,2968.014c3.1,0,4.041-4.273,4.173-5.251a7.9,7.9,0,0,0-.1-1.809c-.38,1.424-1.419,4.329-3.533,4.063,0,0-.635-.046-.735-1.308C3014.841,2968.3,3016.937,2968.014,3017.129,2968.014Z" transform="translate(-3016.01 -2938.521)" fill="#4a225e"/>
                </g>
                <path id="Trazado_204867" data-name="Trazado 204867" d="M3004.409,2858.852c.635,5.19,1.222,11.4,1.222,11.4a15.381,15.381,0,0,0,8.843.762s1.816-10.089,2.108-12.161a12.269,12.269,0,0,0,.032-2.379c-.115-1.8-.436-3.606-.436-3.606l-5.286-.448-3.465-.292-2.5-.212a7.06,7.06,0,0,0-.689,3.277A22.014,22.014,0,0,0,3004.409,2858.852Z" transform="translate(-3004.219 -2851.915)" fill="#4a225e"/>
              </g>
              <g id="Grupo_152700" data-name="Grupo 152700" transform="translate(0 10.688)">
                <path id="Trazado_204868" data-name="Trazado 204868" d="M2996.85,2816.463a4.1,4.1,0,0,1,1.945,2.055,6.607,6.607,0,0,0,2.111-2.9c.609-1.964,2.26-9.792,2.651-11.574s-.3-2.479-.3-2.479c-.879-.131-1.738-.434-2.912,1.349s-.913,9.478-1.784,11.085A19.666,19.666,0,0,1,2996.85,2816.463Z" transform="translate(-2988.851 -2801.46)" fill="#3a3a3b"/>
                <path id="Trazado_204869" data-name="Trazado 204869" d="M2973.99,2850.313c.375.477,2.678,2.479,6.157-.608,1.59-1.412,2.827-2.41,3.759-3.265a4.1,4.1,0,0,0-1.945-2.055c-1.259,1.6-2.8,3.243-3.509,3.375-1.132.207-2.479-.317-2.827.207s1.434.826,1.434.826S2973.618,2849.834,2973.99,2850.313Z" transform="translate(-2973.962 -2829.382)" fill="#fac2b0"/>
              </g>
              <path id="Trazado_204870" data-name="Trazado 204870" d="M3011.382,2775.339s-1.258-1.927.433-3.087,4.319-1.985,5.452-.786,1.979,2.6,1.723,7.2.256,6.33.865,7.313a9.028,9.028,0,0,1-6.369-5.878Z" transform="translate(-2998.011 -2770.879)" fill="#5f3d37"/>
              <path id="Trazado_204871" data-name="Trazado 204871" d="M3011.6,2777.683a11.917,11.917,0,0,0,1.051,7.491s4.692.219,4.517-3.6-2.065-4.762-3.349-4.723A3.934,3.934,0,0,0,3011.6,2777.683Z" transform="translate(-2998.315 -2774.76)" fill="#fac2b0"/>
              <path id="Trazado_204872" data-name="Trazado 204872" d="M3016.743,2780.24a7.5,7.5,0,0,1-3.425-3.441,2.779,2.779,0,0,1-1.679.675s-.376-1.624,2.074-1.924,4.3,3.556,4.062,4.607Z" transform="translate(-2998.457 -2773.907)" fill="#5f3d37"/>
              <path id="Trazado_204873" data-name="Trazado 204873" d="M3005.28,2818.915a9.84,9.84,0,0,0,2.249,1.069,13.024,13.024,0,0,0,3.623.7,13.956,13.956,0,0,0,5.381-.818s2.479-13.225-.144-15.255a23.587,23.587,0,0,0-2.946-1.955,12.889,12.889,0,0,0-1.636-.78c-.331-.122-.675-.229-1.015-.319a7.27,7.27,0,0,0-3.158-.294,7.164,7.164,0,0,0-2.846,5.49,11.917,11.917,0,0,0,.889,5.393C3005.823,2812.924,3006.205,2816.663,3005.28,2818.915Z" transform="translate(-2993.998 -2790.592)" fill="#682a81"/>
              <path id="Trazado_204874" data-name="Trazado 204874" d="M3026.281,2786.988s.936-1.66,1.677-.865-.177,2.154-1.554,2.119Z" transform="translate(-3007.995 -2780.655)" fill="#fac2b0"/>
              <path id="Trazado_204875" data-name="Trazado 204875" d="M3010.817,2864.4l-.063-.017A.04.04,0,0,0,3010.817,2864.4Z" transform="translate(-2997.895 -2831.703)" fill="#595a5a"/>
              <path id="Trazado_204876" data-name="Trazado 204876" d="M3004.269,2822.193a5.277,5.277,0,0,0,2.267,1.08,10.439,10.439,0,0,1,.672-3.289c.075-.263.161-.551.253-.857,1.381-4.575.586-5.728-.091-10.356s3.773-6.991,3.773-6.991l-.672-.222a7.272,7.272,0,0,0-3.158-.294,7.162,7.162,0,0,0-2.846,5.49,11.929,11.929,0,0,0,.888,5.393c.146.777.529,4.517-.4,6.769A7.06,7.06,0,0,0,3004.269,2822.193Z" transform="translate(-2993.676 -2790.592)" fill="#eaf086"/>
              <path id="Trazado_204877" data-name="Trazado 204877" d="M3017.349,2797.694a5.844,5.844,0,0,0-.966-4.158l3.994-1.061a11.313,11.313,0,0,0,.606,4.521A3.011,3.011,0,0,1,3017.349,2797.694Z" transform="translate(-3001.557 -2784.927)" fill="#fac2b0"/>
              <path id="Trazado_204878" data-name="Trazado 204878" d="M3020.958,2823.426c-.168,2.057-.361,3.851-.361,3.851s3.4,1.654,5.956.156c0,0,.088-.453.221-1.22-.114-1.8-.436-3.606-.436-3.606s3.1-12.747.477-14.777a36.678,36.678,0,0,0-3.567-2.433.057.057,0,0,1-.017,0s-2.883,1.77-3.318,4.606,1.176,5.887,1.273,8.383c.036.908-.032,2.327-.134,3.769C3021.024,2822.583,3020.992,2823.009,3020.958,2823.426Z" transform="translate(-3003.804 -2793.333)" fill="#eaf086"/>
              <g id="Grupo_152701" data-name="Grupo 152701" transform="translate(18.551 14.604)">
                <path id="Trazado_204879" data-name="Trazado 204879" d="M3032.891,2818.885c.574,2.417,1.534,3.491,1.3,5.142-.09.655-.268,2.376-.448,4.212a5.091,5.091,0,0,1,2.681.908,36.606,36.606,0,0,0,.913-4.813c.078-1.765-1-7.752-1.305-9.364s-1.458-2.591-2.763-2.235C3031.727,2813.157,3032.314,2816.468,3032.891,2818.885Z" transform="translate(-3030.451 -2812.663)" fill="#3a3a3b"/>
                <path id="Trazado_204880" data-name="Trazado 204880" d="M3027.062,2864.607c.307.577,1.865,0,1.865,0s-1.8,2.956-1.583,3.377,3.017.884,3.939-2.8c.487-1.95,1.179-4.663,1.734-7.046a5.092,5.092,0,0,0-2.681-.908c-.273,2.788-.55,5.841-.55,5.841S3026.755,2864.032,3027.062,2864.607Z" transform="translate(-3027.04 -2841.654)" fill="#fac2b0"/>
              </g>
            </g>
          </g>
          <g id="Grupo_152706" data-name="Grupo 152706" transform="translate(0 85.472)">
            <ellipse id="Elipse_12875" data-name="Elipse 12875" cx="11.973" cy="4.273" rx="11.973" ry="4.273" transform="translate(0 66.576)" opacity="0.1"/>
            <g id="Grupo_152705" data-name="Grupo 152705" transform="translate(1.913)">
              <g id="Grupo_152704" data-name="Grupo 152704" transform="translate(6.088 45.911)">
                <path id="Trazado_204881" data-name="Trazado 204881" d="M2238.346,2727.547a33.7,33.7,0,0,1-.419,3.671c-.195.529-7.214,12.828-7.494,13.746-.146.487-.076,2.381-.141,4.042-.059,1.475-.227,2.763-.753,2.717-1.12-.1-1.482-3.964-1.984-5.159a2.77,2.77,0,0,1,.835-3.167c.808-.56,4.56-11.511,6.089-12.736l.307-2.807Z" transform="translate(-2227.362 -2727.547)" fill="#f1baa9"/>
                <path id="Trazado_204882" data-name="Trazado 204882" d="M2230.293,2778.5c-.059,1.475-.227,2.763-.753,2.718-1.12-.1-1.482-3.964-1.984-5.159a2.77,2.77,0,0,1,.835-3.168S2228.5,2778.088,2230.293,2778.5Z" transform="translate(-2227.362 -2757.046)" fill="#00415a"/>
              </g>
              <path id="Trazado_204883" data-name="Trazado 204883" d="M2238.109,2750.192c.012,1.1-.219,2.359-1.259,2.67-1.069.319-1.816-.686-2.274-1.667a15.635,15.635,0,0,1,.037-2.352s-.675-6.1-.826-8.432.193-5.663.193-6.851a31.52,31.52,0,0,0-.385-3.562l4.1-.516s.238,3.286.192,4.543-.35,12.957-.39,14.184A8.035,8.035,0,0,0,2238.109,2750.192Z" transform="translate(-2225.329 -2682.896)" fill="#fac2b0"/>
              <path id="Trazado_204884" data-name="Trazado 204884" d="M2239.328,2794.316c-2.225.048-2.809-2.55-2.927-4.577.458.981,1.206,1.987,2.274,1.668,1.039-.311,1.271-1.566,1.259-2.671C2240.782,2791.015,2241.946,2794.26,2239.328,2794.316Z" transform="translate(-2227.155 -2721.439)" fill="#00415a"/>
              <path id="Trazado_204885" data-name="Trazado 204885" d="M2229.155,2678.652a10.93,10.93,0,0,0-1.118,6.58c.567,3.685,1.868,11.765,1.868,11.765a13.265,13.265,0,0,0,9-1.512s2-11.056,1.5-14.126-1.077-3.747-1.077-3.747Z" transform="translate(-2221.637 -2649.153)" fill="#00506e"/>
              <path id="Trazado_204886" data-name="Trazado 204886" d="M2235.58,2601.83a4.483,4.483,0,0,0,.246-3.873c-.943-1.783-3.238-1.886-4.365-1.7s-3.177,1.373-3.279,4.734-.225,9.1-1.045,10.842l5.95-2.412Z" transform="translate(-2221.128 -2596.19)" fill="#3a3a3a"/>
              <path id="Trazado_204887" data-name="Trazado 204887" d="M2250.446,2626.284c1.407.009,1.431,9.058,2.824,10.245s5.686,5.355,5.686,5.355,3.155-.4,3.375.294-1.871.587-1.871.587,2.788.844,2.751,1.431a2.088,2.088,0,0,1-3.119.991,12.2,12.2,0,0,1-2.568-2.165s-6.64-3.632-7.227-5.356a86.4,86.4,0,0,1-2.027-9.025A1.934,1.934,0,0,1,2250.446,2626.284Z" transform="translate(-2234.858 -2615.765)" fill="#fac2b0"/>
              <path id="Trazado_204888" data-name="Trazado 204888" d="M2229.244,2625.435a25.059,25.059,0,0,0-4.217,3.158c-.5.607-.659,3.246,1.215,5.38s2.065,7.149.815,10.1a7.591,7.591,0,0,0,5.9.871c3.592-.816,4.273-1.912,4.273-1.912a12.719,12.719,0,0,1-.851-5.727c.4-2.689,1.961-3.991,1.927-5.466s-1.788-6.3-2.864-6.872S2232.785,2624.012,2229.244,2625.435Z" transform="translate(-2219.54 -2614.574)" fill="#75b62f"/>
              <path id="Trazado_204889" data-name="Trazado 204889" d="M2234.16,2627.162a4.671,4.671,0,0,0,4.811,4.435s1.96-1.406.4-3.88-2.969-1.667-2.969-1.667Z" transform="translate(-2225.696 -2615.531)" fill="#fac2b0"/>
              <path id="Trazado_204890" data-name="Trazado 204890" d="M2218.994,2640.228a37.218,37.218,0,0,0-3.435,3.823,4.027,4.027,0,0,1-2.228-1.77c1.371-2.182,3.562-5.344,3.971-5.81a1.939,1.939,0,0,1,2.561-.2C2220.511,2636.968,2220.958,2638.312,2218.994,2640.228Z" transform="translate(-2212.147 -2622.002)" fill="#75b62f"/>
              <path id="Trazado_204891" data-name="Trazado 204891" d="M2239.109,2620.668a5.512,5.512,0,0,0-.993,1.293c-.019.036-.042.073-.061.112-.058.115-.112.227-.161.336a4.943,4.943,0,0,0-.428,1.607c-2.651.414-3.307-1.388-3.307-1.388a14.457,14.457,0,0,0,1.356-3.674h0Z" transform="translate(-2225.695 -2610.998)" fill="#fac4b3"/>
              <path id="Trazado_204892" data-name="Trazado 204892" d="M2213.966,2669.37a.174.174,0,0,1-.316.066,5.435,5.435,0,0,1-.767-1.677,16.812,16.812,0,0,0-.56,3.574.336.336,0,0,1-.482.315,2.023,2.023,0,0,1-1.2-1.7,24.24,24.24,0,0,1,.373-4.28s-1.593-8.263-.9-9.731c.178-.37.545-.993,1.008-1.729a4.025,4.025,0,0,0,2.228,1.77,2,2,0,0,0-.249.382c-.075.249-.224,8.76-.224,8.76A7.129,7.129,0,0,1,2213.966,2669.37Z" transform="translate(-2209.943 -2633.931)" fill="#fac2b0"/>
              <path id="Trazado_204893" data-name="Trazado 204893" d="M2241.644,2624.405l-.037.09a.5.5,0,0,1-.122-.012c-.059.115-.112.227-.161.337a3.5,3.5,0,0,1-1.891-2.16,5.32,5.32,0,0,0,2.113,1.712C2241.578,2624.383,2241.612,2624.4,2241.644,2624.405Z" transform="translate(-2229.126 -2613.408)" opacity="0.2"/>
              <path id="Trazado_204894" data-name="Trazado 204894" d="M2241.112,2611.576a1.423,1.423,0,0,1-.85.219.5.5,0,0,1-.122-.012,3.061,3.061,0,0,1-2.052-1.823.007.007,0,0,1,0,0,6.175,6.175,0,0,1-.482-1.291h0a7.512,7.512,0,0,1-.2-2.583c.336-3.625,2.834-2.883,2.834-2.883,2.634,0,2.432,1.15,2.566,2.228S2242.867,2610.5,2241.112,2611.576Z" transform="translate(-2227.781 -2600.708)" fill="#fac2b0"/>
              <path id="Trazado_204895" data-name="Trazado 204895" d="M2234.512,2605.429a3.455,3.455,0,0,0,2.746-1.475,3.774,3.774,0,0,1,3.306-1.294,1.736,1.736,0,0,0-1.195-1.74c-1.271-.369-3.936-.287-4.755,1.619S2234.512,2605.429,2234.512,2605.429Z" transform="translate(-2225.736 -2599.154)" fill="#3a3a3a"/>
              <path id="Trazado_204896" data-name="Trazado 204896" d="M2235.065,2613.331s-.851-1.841-1.643-1.386-.475,2.3,1.643,2.435Z" transform="translate(-2224.958 -2606.392)" fill="#fac2b0"/>
            </g>
          </g>
          <g id="Grupo_152710" data-name="Grupo 152710" transform="translate(107.154 196.583)">
            <ellipse id="Elipse_12876" data-name="Elipse 12876" cx="11.973" cy="4.273" rx="11.973" ry="4.273" transform="translate(0 66.215)" opacity="0.1"/>
            <g id="Grupo_152709" data-name="Grupo 152709" transform="translate(0.414)">
              <g id="Grupo_152707" data-name="Grupo 152707" transform="translate(0 32.798)">
                <path id="Trazado_204897" data-name="Trazado 204897" d="M2533.993,3026.51c-.182,1.94-1.879,13.149-1.151,14.724a2.254,2.254,0,0,0,.337.5,8.328,8.328,0,0,1-4.253-.112c.053-.185.107-.375.16-.568.424-1.575-1.212-7.938-1.577-10.3a4.76,4.76,0,0,1,1.311-3.939c-.794-2.5.517-10.357.566-10.656-.109.315-3.581,10.375-4.058,11.866a110.031,110.031,0,0,1-6.122,12.36,2.166,2.166,0,0,0-.36,1.973,3.527,3.527,0,0,1-3.528-2.353c.061-.092.126-.186.2-.284,1.212-1.757,1.818-6.241,2.059-8.666s2.787-5.029,2.787-5.029.423-7.393.938-11.392,1.651-4.638,1.651-4.638l11.858-2.059C2536.468,3011.722,2534.176,3024.572,2533.993,3026.51Z" transform="translate(-2514.241 -3007.936)" fill="#89211b"/>
                <path id="Trazado_204898" data-name="Trazado 204898" d="M2519.109,3109.035c-3.307.91-3.842-3.393-4.658-4.423s-1.608-1.152-2.032-2.059c-.4-.857-.152-1.339.9-2.865a3.525,3.525,0,0,0,3.527,2.353,12.963,12.963,0,0,0,1.03,1.847C2518.054,3104.494,2522.416,3108.127,2519.109,3109.035Z" transform="translate(-2512.238 -3067.62)" fill="#4e4019"/>
                <path id="Trazado_204899" data-name="Trazado 204899" d="M2563.272,3107.863c-2.181,1.514-4.362.122-5.452-.423s-1.456.18-3.2-.3c-1.529-.426-1.271-1.5-.9-2.825a8.319,8.319,0,0,0,4.253.112C2559.3,3105.95,2563.272,3107.863,2563.272,3107.863Z" transform="translate(-2539.036 -3070.626)" fill="#4e4019"/>
              </g>
              <g id="Grupo_152708" data-name="Grupo 152708" transform="translate(19.394 12.032)">
                <path id="Trazado_204900" data-name="Trazado 204900" d="M2573.5,2961.846a5.157,5.157,0,0,0-2.509,2.567,9.125,9.125,0,0,1-1.813-1.491c-.966-1.291-1.113-8.062-1.361-10.126s-.056-4.514,1.361-4.255c1.719.312,2.387,4.063,2.387,5.354s.2,5.762,1.235,7.053C2573.006,2961.2,2573.24,2961.512,2573.5,2961.846Z" transform="translate(-2567.726 -2948.521)" fill="#4d67af"/>
                <path id="Trazado_204901" data-name="Trazado 204901" d="M2589.512,2993.913c-.129.58-2.965,2.386-4.063,1.162a20.992,20.992,0,0,0-3.061-2.579s-3.167-1.791-5.315-3.282a5.154,5.154,0,0,1,2.508-2.566c1.067,1.365,2.6,3.155,4.463,3.467,2.323.386,4.114-.263,4.309.446s-2.13,1.032-2.13,1.032S2589.641,2993.332,2589.512,2993.913Z" transform="translate(-2573.806 -2973.322)" fill="#fac2b0"/>
              </g>
              <path id="Trazado_204902" data-name="Trazado 204902" d="M2539.177,2942.973c1.791-.367,6.239.833,7.3,1.86s1.066,6.955.233,9.28-.136,10.152-.756,11.121-6.49,5.114-12.224,2.46a3.336,3.336,0,0,1-1.705-3.971c.717-2.887.949-15.906,1.685-17.145A9.78,9.78,0,0,1,2539.177,2942.973Z" transform="translate(-2525.025 -2932.836)" fill="#dce736"/>
              <path id="Trazado_204903" data-name="Trazado 204903" d="M2527.8,2957.2c-.776,1.291-4.74,6.6-4.575,8.006a11.341,11.341,0,0,0,1.156,2.8,5.6,5.6,0,0,0-3.063,1.7c-1.415-1.7-2.663-3.406-2.747-4.129-.185-1.588,4.075-9.429,4.984-10.557s1.587-3.1,3.025-2.326A3.23,3.23,0,0,1,2527.8,2957.2Z" transform="translate(-2516.354 -2939.09)" fill="#4d67af"/>
              <path id="Trazado_204904" data-name="Trazado 204904" d="M2533.587,3006.507c-.923-.74-2.216-2.848-3.063-3.528a51.73,51.73,0,0,1-4.083-4.45,5.607,5.607,0,0,1,3.063-1.7c1.073,2.054,2.589,4.4,3.2,4.585.961.294,2.835-.406,3.134.147s-1.841,1.22-1.841,1.22,2.952,1.585,3.063,2.323S2534.51,3007.245,2533.587,3006.507Z" transform="translate(-2521.477 -2967.912)" fill="#fac2b0"/>
              <path id="Trazado_204905" data-name="Trazado 204905" d="M2551.284,2918.62c2.343-.123,4.326.129,4.511,1.978s.914,6.344-1.367,6.961-4.724-1.521-4.785-5.035S2551.284,2918.62,2551.284,2918.62Z" transform="translate(-2536.568 -2917.022)" fill="#fac2b0"/>
              <path id="Trazado_204906" data-name="Trazado 204906" d="M2544.915,2920.927a4.582,4.582,0,0,0,1.591-3.031s4.94,1.01,5.6-2.864a7.9,7.9,0,0,1-3.406-.524c-1.908-.711-4.529-.636-4.547,1.31a2.328,2.328,0,0,0-1.516,2.377,5.109,5.109,0,0,0,2.133,4.154Z" transform="translate(-2532.009 -2914.096)" fill="#543631"/>
              <path id="Trazado_204907" data-name="Trazado 204907" d="M2548.252,2933.29v4.314a3.2,3.2,0,0,0,3.949,1.422,1.636,1.636,0,0,0,.729-1.123c.042-.69,0-3.443,0-3.443Z" transform="translate(-2535.665 -2926.582)" fill="#fac2b0"/>
              <path id="Trazado_204908" data-name="Trazado 204908" d="M2547.269,2931.135s-.8-1.4-1.853-.786-.094,2.358,1.853,1.946Z" transform="translate(-2533.539 -2924.566)" fill="#fac2b0"/>
            </g>
          </g>
          <g id="Grupo_152715" data-name="Grupo 152715" transform="translate(195.854 185.494)">
            <ellipse id="Elipse_12877" data-name="Elipse 12877" cx="11.993" cy="4.28" rx="11.993" ry="4.28" transform="translate(0 68.473)" opacity="0.1"/>
            <g id="Grupo_152714" data-name="Grupo 152714" transform="translate(5.037)">
              <g id="Grupo_152713" data-name="Grupo 152713">
                <g id="Grupo_152711" data-name="Grupo 152711" transform="translate(0 45.261)">
                  <path id="Trazado_204909" data-name="Trazado 204909" d="M2783.087,3036.732a3.911,3.911,0,0,0,.99-.122c1.129-.293,2.185-2.314,2.787-3.275a1.76,1.76,0,0,1,1.324-.929,5.564,5.564,0,0,1-.334-1.271c-.275-1.963.768-7.706.844-9.708s-.719-3.59-.831-4.572.68-3.022.831-4.646l-4.345-.341s.115,4.08.19,5.138.868,9.483.905,12.317a10.3,10.3,0,0,1-2.154,7.14C2783.221,3036.557,2783.15,3036.647,2783.087,3036.732Z" transform="translate(-2781.746 -3011.869)" fill="#fac2b0"/>
                  <path id="Trazado_204910" data-name="Trazado 204910" d="M2779.249,3076.691c.227.756,2.041.793,3.136.322,1.037-.444,1.295-2.058,1.768-2.392v0a.309.309,0,0,1,.083-.044c.529-.187.417,2.419.417,2.419a.627.627,0,0,0,.659-.266,9.472,9.472,0,0,1,.894-3.853c.4-.7-.114-1.217-.515-2.243a1.761,1.761,0,0,0-1.323.929c-.6.961-1.659,2.982-2.788,3.275a3.9,3.9,0,0,1-.99.122C2779.405,3076.469,2779.249,3076.691,2779.249,3076.691Z" transform="translate(-2779.249 -3050.093)" fill="#a81e33"/>
                </g>
                <g id="Grupo_152712" data-name="Grupo 152712" transform="translate(6.957 45.005)">
                  <path id="Trazado_204911" data-name="Trazado 204911" d="M2804.744,3029.257a7.677,7.677,0,0,1,.309,3.953,2.863,2.863,0,0,1-.07.4c-.3,1.168-1.322,1.795-1.473,2.148-.168.393.646.729,2.149.495s2.311-3.075,2.311-3.075l.561,2.89h.561s.083-3.7,0-4.794-1.122-1.488-1.768-1.824-1.626-4.794-1.99-6.028-.534-4.4-.841-5.945a8.7,8.7,0,0,0-2.076-3.336l.271-2.751-3.533-.256a38.119,38.119,0,0,0,.461,4.043C2799.875,3016.189,2804.213,3028.106,2804.744,3029.257Z" transform="translate(-2799.155 -3011.136)" fill="#fac2b0"/>
                  <path id="Trazado_204912" data-name="Trazado 204912" d="M2813.725,3070.345c1.36-.212,2.153-2.565,2.29-3l.022-.07,0,.012.558,2.878h.561s.083-3.7,0-4.794a1.593,1.593,0,0,0-.119-.5c-.3-.727-1.112-1.044-1.649-1.324,0,0-.385,1.432-.766,2.37a3.454,3.454,0,0,1-1.575,1.79c-.3,1.168-1.322,1.795-1.473,2.148C2811.408,3070.243,2812.223,3070.58,2813.725,3070.345Z" transform="translate(-2807.221 -3045.226)" fill="#a81e33"/>
                </g>
                <path id="Trazado_204913" data-name="Trazado 204913" d="M2806.559,2920.784c-1.248.49-1.5,1.637-1.17,3.382s1.927,8.219,1.927,8.219-2.4,6.982-2.691,7.237-1.309,1.455-1.309,2.073.646,2.619,1.25,2.982,1.768.181,1.513-.328-.691-.582-.764-.909.836-1.636.945-3.019c0,0,3.836-6,4.027-7.782s-1.481-8.982-1.809-10.328S2807.225,2920.522,2806.559,2920.784Z" transform="translate(-2794.905 -2907.311)" fill="#fac2b0"/>
                <path id="Trazado_204914" data-name="Trazado 204914" d="M2794.258,2895.175a4.29,4.29,0,0,1-2.984,2.206s-2.505-5.019-.884-7.224S2794.907,2893.034,2794.258,2895.175Z" transform="translate(-2786.141 -2887.082)" fill="#fac2b0"/>
                <path id="Trazado_204915" data-name="Trazado 204915" d="M2791.176,2915.745a10,10,0,0,0-6.658,4.085,12.433,12.433,0,0,0-1.241,6.567c.517,1.3,1.271,2.361,1.332,3.3a10.451,10.451,0,0,1-.182,4.722c-.666,2.9-1.665,11.2-.031,17.885,0,0,3.268.575,7.838-2.33,0,0,.757-7.172,1.453-9.23a16.1,16.1,0,0,0,0-7.687,18.891,18.891,0,0,1,.091-7.2c.363-1.362,2.931-6.96.376-9.382A4.607,4.607,0,0,0,2791.176,2915.745Z" transform="translate(-2781.814 -2904.075)" fill="#75b62f"/>
                <path id="Trazado_204916" data-name="Trazado 204916" d="M2783.771,2927.363c-1.249.49-1.5,1.636-1.17,3.382s1.927,8.219,1.927,8.219-2.4,6.982-2.691,7.237-1.309,1.455-1.309,2.073.646,2.619,1.25,2.983,1.768.181,1.514-.328-.691-.582-.764-.909.836-1.636.945-3.018c0,0,3.835-6,4.027-7.782s-1.481-8.982-1.808-10.328S2784.436,2927.1,2783.771,2927.363Z" transform="translate(-2780.081 -2911.591)" fill="#fac2b0"/>
                <path id="Trazado_204917" data-name="Trazado 204917" d="M2789.819,2885.717c-.149.605,1,1.537,1.392,3.068s1.574,8.765,3.45,10.732,2.3,2.573,2.3,2.481a14.972,14.972,0,0,0,2.875-8.625c.06-5.266-2.27-10.623-4.146-10.956S2790.363,2883.508,2789.819,2885.717Z" transform="translate(-2786.116 -2882.37)" fill="#52260f"/>
              </g>
              <path id="Trazado_204918" data-name="Trazado 204918" d="M2793.281,3078.794a.282.282,0,0,1,.083-.044c.529-.188.417,2.419.417,2.419a.626.626,0,0,0,.659-.266,9.472,9.472,0,0,1,.895-3.853A4,4,0,0,0,2793.281,3078.794Z" transform="translate(-2788.377 -3009.007)" fill="#751324"/>
              <path id="Trazado_204919" data-name="Trazado 204919" d="M2824.385,3069.748l.558,2.877h.561s.083-3.7,0-4.794a1.57,1.57,0,0,0-.12-.5Z" transform="translate(-2808.61 -3002.686)" fill="#751324"/>
            </g>
          </g>
          <g id="Grupo_152719" data-name="Grupo 152719" transform="translate(27.579 164.97)">
            <ellipse id="Elipse_12878" data-name="Elipse 12878" cx="11.993" cy="4.28" rx="11.993" ry="4.28" transform="translate(2.639 63.889)" opacity="0.1"/>
            <g id="Grupo_152718" data-name="Grupo 152718">
              <g id="Grupo_152716" data-name="Grupo 152716" transform="translate(0 13.157)">
                <path id="Trazado_204920" data-name="Trazado 204920" d="M2286.52,2871.213c-.625,1.031.49,6.8.589,7.3a8.729,8.729,0,0,1-2.553.648c-.114-.764-1.153-7.729-1.181-8.887-.028-1.227,4.247-7.89,4.73-8.512a1.109,1.109,0,0,1,1.811,0c.622.706,1.359,2.294,1.049,3.114S2287.17,2870.138,2286.52,2871.213Z" transform="translate(-2283.375 -2861.29)" fill="#4f87c6"/>
                <path id="Trazado_204921" data-name="Trazado 204921" d="M2289.383,2913.627c-.4.2-1.077-.99-1.077-.99s0,2.575-.579,2.887a3.2,3.2,0,0,1-2.48-.2c-.65-.369.4-4.049.4-4.049s0-.023-.01-.069a8.736,8.736,0,0,0,2.553-.647.363.363,0,0,0,.006.036C2288.9,2911.389,2289.779,2913.429,2289.383,2913.627Z" transform="translate(-2284.455 -2893.34)" fill="#fac2b0"/>
              </g>
              <path id="Trazado_204922" data-name="Trazado 204922" d="M2313.985,2827.476c1.342.5,3.557.118,2.308,6.079,0,0-.542,2.544-1.131,2.639a3.654,3.654,0,0,1-2.969-1.579C2311.322,2833.366,2313.985,2827.476,2313.985,2827.476Z" transform="translate(-2302.008 -2826.137)" fill="#fac2b0"/>
              <path id="Trazado_204923" data-name="Trazado 204923" d="M2309.6,2850.756s.376-2.411,1.341-2.908l-3.948-1.462-.5,3.526Z" transform="translate(-2298.414 -2838.438)" fill="#fac2b0"/>
              <path id="Trazado_204924" data-name="Trazado 204924" d="M2301.458,2855.6a14.319,14.319,0,0,1,5.692,2.447,6.353,6.353,0,0,1,1.57,5.879c-.505,2.42-.851,4.921-.319,6.544s1.064,3.724,1.064,3.724-6.81,2.447-10.667-.9a16.856,16.856,0,0,0,0-6.3c-.718-2.58-2.5-6.064-1.675-8.991S2301.458,2855.6,2301.458,2855.6Z" transform="translate(-2292.179 -2844.406)" fill="#dce736"/>
              <path id="Trazado_204925" data-name="Trazado 204925" d="M2335.415,2875.7a5.2,5.2,0,0,1-1.248,2.085s-6.119-2.738-7.529-3.963-4.148-6.012-4.813-7a2.8,2.8,0,0,1,.186-3c.925-.8,1.156-1.044,2.4.729s3,5.893,4.463,6.9,6.436,4.229,6.436,4.229Z" transform="translate(-2308.156 -2849.383)" fill="#4f87c6"/>
              <path id="Trazado_204926" data-name="Trazado 204926" d="M2361.573,2903.047c-.241.638-2.05,1.623-2.182,1.2s.427-1.09.427-1.09-1.7-1.01-2.022-2.128a5.193,5.193,0,0,0,1.247-2.086c.447.082,2.2.427,2.53,1.074A5.145,5.145,0,0,1,2361.573,2903.047Z" transform="translate(-2331.785 -2872.625)" fill="#fac2b0"/>
              <path id="Trazado_204927" data-name="Trazado 204927" d="M2315.393,2938.652a6.9,6.9,0,0,1-3.051.854,15.836,15.836,0,0,0-.445-3.681c-.584-1.435-2.159-2.931-2.908-4.742s.277-5.741.277-5.741-4.771-6.612-7.265-11.105-.77-7.955-.77-7.955l7.01.622s4.179,15.82,4.427,17.232,1.872,12.624,2.682,14.435A.843.843,0,0,0,2315.393,2938.652Z" transform="translate(-2294.613 -2877.4)" fill="#67481c"/>
              <path id="Trazado_204928" data-name="Trazado 204928" d="M2343.193,3002.465c-.5,1.123-3.308.749-4.181,1.524s-3.119,1.221-3.993.307a2.861,2.861,0,0,1-.493-1.463c2.5.236,3.546-.884,3.922-1.489a7.03,7.03,0,0,0,3.31-.066C2342.756,3001.154,2343.69,3001.343,2343.193,3002.465Z" transform="translate(-2316.648 -2939.173)" fill="#4c3718"/>
              <path id="Trazado_204929" data-name="Trazado 204929" d="M2338.173,2999.819c-.376.6-1.425,1.725-3.922,1.489-.069-.47-.112-1.006-.147-1.555a6.909,6.909,0,0,0,3.051-.854A1.827,1.827,0,0,0,2338.173,2999.819Z" transform="translate(-2316.374 -2937.647)" fill="#fac2b0"/>
              <g id="Grupo_152717" data-name="Grupo 152717" transform="translate(0.508 29.227)">
                <path id="Trazado_204930" data-name="Trazado 204930" d="M2293.184,3014.473c.053.594-2.69,1.351-3.835.541s-5.1-5.553-4.448-6.7a2.516,2.516,0,0,1,1.569-1.311,5.983,5.983,0,0,0,3.356,3.239,6.44,6.44,0,0,0,1.354,3.149C2292.1,3013.986,2293.127,3013.876,2293.184,3014.473Z" transform="translate(-2284.829 -2972.145)" fill="#4c3718"/>
                <path id="Trazado_204931" data-name="Trazado 204931" d="M2302.816,2926.754c-4.656,8.984-7.308,14.072-8.121,15.263a1.063,1.063,0,0,0-.127.269,17.192,17.192,0,0,0-2.253-1.684s1.407-7.948,3.627-11.144,3.259-3.787,3.259-3.787-2.014-11.964-1.311-15.21,1.311-3.193,1.311-3.193l7.275.559S2307.472,2917.767,2302.816,2926.754Z" transform="translate(-2289.699 -2907.269)" fill="#805a24"/>
                <path id="Trazado_204932" data-name="Trazado 204932" d="M2292.88,3007.4a5.981,5.981,0,0,1-3.356-3.238l.975-1.524a17.224,17.224,0,0,1,2.254,1.684A6.582,6.582,0,0,0,2292.88,3007.4Z" transform="translate(-2287.883 -2969.308)" fill="#fac2b0"/>
              </g>
              <path id="Trazado_204933" data-name="Trazado 204933" d="M2309.676,2827.483c-.572,1.785-1.976,1.516-1.938,2.73a3.4,3.4,0,0,1-3.177,3.091s-1.57,8.621,0,12.478c-.153-.135-6.447-5.858-2.5-13.844l.072-.94s-1.5-3.427-.072-5.783a3.312,3.312,0,0,1,4-1.356C2308.632,2824.856,2310.248,2825.7,2309.676,2827.483Z" transform="translate(-2294.684 -2823.647)" fill="#87574e"/>
              <path id="Trazado_204934" data-name="Trazado 204934" d="M2307.539,2846.3l-.559.683a3.508,3.508,0,0,0-2.5-1.366l.071-.94C2306.988,2845.061,2307.539,2846.3,2307.539,2846.3Z" transform="translate(-2297.104 -2837.328)" fill="#4f332e"/>
            </g>
          </g>
        </g>
      </g>
    </g>
  </g>
</svg>
