<svg xmlns="http://www.w3.org/2000/svg" width="336.064" height="209.065" viewBox="0 0 336.064 209.065">
  <g id="Grupo_158118" data-name="Grupo 158118" transform="translate(10879.704 2244.021)">
    <g id="Grupo_158074" data-name="Grupo 158074">
      <g id="Grupo_158073" data-name="Grupo 158073">
        <g id="Grupo_158029" data-name="Grupo 158029" transform="translate(-189.704 -2158.332)">
          <g id="Rectángulo_296230" data-name="Rectángulo 296230" transform="translate(-10690 -43.624)" fill="#fff" stroke="#707070" stroke-width="1">
            <rect width="305" height="167" stroke="none"/>
            <rect x="0.5" y="0.5" width="304" height="166" fill="none"/>
          </g>
          <text id="_------------------------------------------" data-name="------------------------------------------" transform="translate(-10690 -10.11)" fill="#12263f" font-size="16" font-family="Roboto-Black, Roboto" font-weight="800"><tspan x="0" y="17">------------------------------------------</tspan></text>
          <text id="_-------------------------------------------2" data-name="------------------------------------------" transform="translate(-10690 56.89)" fill="#12263f" font-size="16" font-family="Roboto-Black, Roboto" font-weight="800"><tspan x="0" y="17">------------------------------------------</tspan></text>
          <g id="Rectángulo_296231" data-name="Rectángulo 296231" transform="translate(-10656 17.376)" fill="#75b62f" stroke="#35b816" stroke-width="1">
            <rect width="106" height="11" stroke="none"/>
            <rect x="0.5" y="0.5" width="105" height="10" fill="none"/>
          </g>
          <g id="Rectángulo_296232" data-name="Rectángulo 296232" transform="translate(-10531 17.376)" fill="#75b62f" stroke="#35b816" stroke-width="1">
            <rect width="106" height="11" stroke="none"/>
            <rect x="0.5" y="0.5" width="105" height="10" fill="none"/>
          </g>
          <g id="Rectángulo_296233" data-name="Rectángulo 296233" transform="translate(-10596 34.376)" fill="#75b62f" stroke="#35b816" stroke-width="1">
            <rect width="106" height="11" stroke="none"/>
            <rect x="0.5" y="0.5" width="105" height="10" fill="none"/>
          </g>
          <g id="Rectángulo_296234" data-name="Rectángulo 296234" transform="translate(-10680 73.376)" fill="#75b62f" stroke="#35b816" stroke-width="1">
            <rect width="106" height="11" stroke="none"/>
            <rect x="0.5" y="0.5" width="105" height="10" fill="none"/>
          </g>
          <g id="Rectángulo_296235" data-name="Rectángulo 296235" transform="translate(-10629 90.376)" fill="#75b62f" stroke="#35b816" stroke-width="1">
            <rect width="106" height="11" stroke="none"/>
            <rect x="0.5" y="0.5" width="105" height="10" fill="none"/>
          </g>
          <g id="Rectángulo_296237" data-name="Rectángulo 296237" transform="translate(-10507 90.376)" fill="#75b62f" stroke="#35b816" stroke-width="1">
            <rect width="106" height="11" stroke="none"/>
            <rect x="0.5" y="0.5" width="105" height="10" fill="none"/>
          </g>
          <g id="Rectángulo_296236" data-name="Rectángulo 296236" transform="translate(-10576 107.376)" fill="#75b62f" stroke="#35b816" stroke-width="1">
            <rect width="106" height="11" stroke="none"/>
            <rect x="0.5" y="0.5" width="105" height="10" fill="none"/>
          </g>
          <g id="Rectángulo_296238" data-name="Rectángulo 296238" transform="translate(-10574 -31.624) rotate(45)" fill="#dce736" stroke="#707070" stroke-width="1">
            <rect width="12" height="12" stroke="none"/>
            <rect x="0.5" y="0.5" width="11" height="11" fill="none"/>
          </g>
          <g id="Rectángulo_296239" data-name="Rectángulo 296239" transform="translate(-10442 -31.624) rotate(45)" fill="#dce736" stroke="#707070" stroke-width="1">
            <rect width="12" height="12" stroke="none"/>
            <rect x="0.5" y="0.5" width="11" height="11" fill="none"/>
          </g>
          <g id="Grupo_157385" data-name="Grupo 157385" transform="translate(-10603 73.376) rotate(180)">
            <line id="Línea_576" data-name="Línea 576" y2="40.091" transform="translate(3.377)" fill="none" stroke="#3e4bbf" stroke-miterlimit="10" stroke-width="2"/>
            <path id="Trazado_158597" data-name="Trazado 158597" d="M660.97,131.96h6.754l-3.377,4.021Z" transform="translate(-660.97 -91.869)" fill="#3d46c2"/>
          </g>
          <g id="Grupo_157386" data-name="Grupo 157386" transform="translate(-10532.902 90.376) rotate(180)">
            <line id="Línea_576-2" data-name="Línea 576" y2="40.252" transform="translate(3.988)" fill="none" stroke="#3e4bbf" stroke-miterlimit="10" stroke-width="2"/>
            <path id="Trazado_158597-2" data-name="Trazado 158597" d="M660.97,131.96h7.975l-3.987,4.748Z" transform="translate(-660.97 -91.708)" fill="#3d46c2"/>
          </g>
          <g id="Grupo_157387" data-name="Grupo 157387" transform="translate(-10438.013 89.862) rotate(180)">
            <line id="Línea_576-3" data-name="Línea 576" y2="56.738" transform="translate(3.988)" fill="none" stroke="#3e4bbf" stroke-miterlimit="10" stroke-width="2"/>
            <path id="Trazado_158597-3" data-name="Trazado 158597" d="M660.97,131.96h7.975l-3.987,4.748Z" transform="translate(-660.97 -75.222)" fill="#3d46c2"/>
          </g>
          <g id="Grupo_157388" data-name="Grupo 157388" transform="translate(-10438.013 18.405) rotate(180)">
            <line id="Línea_576-4" data-name="Línea 576" y2="23.281" transform="translate(3.988)" fill="none" stroke="#3e4bbf" stroke-miterlimit="10" stroke-width="2"/>
            <path id="Trazado_158597-4" data-name="Trazado 158597" d="M660.97,131.96h7.975l-3.987,4.748Z" transform="translate(-660.97 -108.679)" fill="#3d46c2"/>
          </g>
          <g id="Grupo_157389" data-name="Grupo 157389" transform="translate(-10570.012 18.405) rotate(180)">
            <line id="Línea_576-5" data-name="Línea 576" y2="23.281" transform="translate(3.988)" fill="none" stroke="#3e4bbf" stroke-miterlimit="10" stroke-width="2"/>
            <path id="Trazado_158597-5" data-name="Trazado 158597" d="M660.97,131.96h7.975l-3.987,4.748Z" transform="translate(-660.97 -108.679)" fill="#3d46c2"/>
          </g>
          <path id="Trazado_210642" data-name="Trazado 210642" d="M-4777.438-1090.479v36.491h67.607v11.4l23.788-29.649-23.788-26.228v7.983Z" transform="translate(-5668.549 1014.068)" fill="#dce736" stroke="#707070" stroke-width="1"/>
          <text id="Tiempo_" data-name="Tiempo
" transform="translate(-10437 -71.624)" fill="#12263f" font-size="18" font-family="Roboto-Black, Roboto" font-weight="800"><tspan x="0" y="19">Tiempo</tspan></text>
        </g>
      </g>
    </g>
  </g>
</svg>
