<svg xmlns="http://www.w3.org/2000/svg" xmlns:xlink="http://www.w3.org/1999/xlink" width="150" height="150" viewBox="0 0 150 150">
  <defs>
    <linearGradient id="linear-gradient" x1="0.5" x2="0.5" y2="1" gradientUnits="objectBoundingBox">
      <stop offset="0" stop-color="#12ad11"/>
      <stop offset="0.106" stop-color="#21b213"/>
      <stop offset="0.525" stop-color="#5bc51c"/>
      <stop offset="0.835" stop-color="#7fd121"/>
      <stop offset="1" stop-color="#8dd624"/>
    </linearGradient>
  </defs>
  <g id="Grupo_158121" data-name="Grupo 158121" transform="translate(10713 1767.256)">
    <g id="Grupo_158077" data-name="Grupo 158077">
      <g id="Grupo_157996" data-name="Grupo 157996" transform="translate(-11438 -10359)">
        <g id="Elipse_5959" data-name="Elipse 5959" transform="translate(725 8591.744)" fill="#fff" stroke="#77b43a" stroke-width="4">
          <circle cx="75" cy="75" r="75" stroke="none"/>
          <circle cx="75" cy="75" r="73" fill="none"/>
        </g>
        <g id="Grupo_157941" data-name="Grupo 157941" transform="translate(744 8237.744)">
          <path id="Trazado_205734" data-name="Trazado 205734" d="M75.126,411.205v65.052H59.581V382.984H75.126v21.525" transform="translate(-11.162 -0.429)" fill="#eca9a5"/>
          <path id="Trazado_205735" data-name="Trazado 205735" d="M59.581,478.21H75.126v9.327H59.581Z" transform="translate(-11.162 -21.036)" fill="#e5786e"/>
          <path id="Trazado_205736" data-name="Trazado 205736" d="M59.581,466.306H75.126v9.328H59.581Z" transform="translate(-11.162 -18.46)" fill="#e05636"/>
          <path id="Trazado_205737" data-name="Trazado 205737" d="M59.581,454.4H75.126v9.327H59.581Z" transform="translate(-11.162 -15.884)" fill="#b23a20"/>
          <path id="Trazado_205738" data-name="Trazado 205738" d="M59.581,442.5H75.126v9.327H59.581Z" transform="translate(-11.162 -13.308)" fill="#fdf47c"/>
          <path id="Trazado_205739" data-name="Trazado 205739" d="M59.581,430.6H75.126v9.327H59.581Z" transform="translate(-11.162 -10.733)" fill="#dce736"/>
          <path id="Trazado_205740" data-name="Trazado 205740" d="M59.581,418.694H75.126v9.327H59.581Z" transform="translate(-11.162 -8.157)" fill="#cec02e"/>
          <path id="Trazado_205741" data-name="Trazado 205741" d="M59.581,406.79H75.126v9.328H59.581Z" transform="translate(-11.162 -5.581)" fill="url(#linear-gradient)"/>
          <path id="Trazado_205742" data-name="Trazado 205742" d="M59.581,394.887H75.126v9.327H59.581Z" transform="translate(-11.162 -3.005)" fill="url(#linear-gradient)"/>
          <path id="Trazado_205743" data-name="Trazado 205743" d="M59.581,382.984H75.126v9.327H59.581Z" transform="translate(-11.162 -0.429)" fill="url(#linear-gradient)"/>
          <circle id="Elipse_12923" data-name="Elipse 12923" cx="12.437" cy="12.437" r="12.437" transform="translate(9.555 416.755)" fill="#eee93e"/>
          <path id="Trazado_205744" data-name="Trazado 205744" d="M22.858,426.629a12.378,12.378,0,0,0-7.979,2.9,12.436,12.436,0,0,0,17.514,17.513,12.437,12.437,0,0,0-9.534-20.416Z" transform="translate(-0.867 -9.874)" fill="#fdf47c"/>
          <circle id="Elipse_12924" data-name="Elipse 12924" cx="12.437" cy="12.437" r="12.437" transform="translate(9.555 450.955)" fill="#de422c"/>
          <path id="Trazado_205745" data-name="Trazado 205745" d="M22.858,470.274a12.382,12.382,0,0,0-7.979,2.9A12.436,12.436,0,0,0,32.392,490.69a12.437,12.437,0,0,0-9.534-20.416Z" transform="translate(-0.867 -19.319)" fill="#eaf086"/>
          <circle id="Elipse_12925" data-name="Elipse 12925" cx="12.437" cy="12.437" r="12.437" transform="translate(9.555 382.555)" fill="#4fa04b"/>
          <path id="Trazado_205746" data-name="Trazado 205746" d="M22.858,382.984a12.374,12.374,0,0,0-7.979,2.9A12.436,12.436,0,0,0,32.392,403.4a12.437,12.437,0,0,0-9.534-20.416Z" transform="translate(-0.867 -0.429)" fill="#75b62f"/>
          <path id="Trazado_205747" data-name="Trazado 205747" d="M23.721,406.523a7.513,7.513,0,0,1-7.306-5.7l-.42-1.693,3.016-.755.422,1.694a4.419,4.419,0,0,0,8.575,0l.423-1.694,3.016.755-.42,1.693A7.513,7.513,0,0,1,23.721,406.523Z" transform="translate(-1.73 -3.759)" fill="#f1f1f1"/>
          <path id="Trazado_205748" data-name="Trazado 205748" d="M28.432,492.311l-.423-1.695a4.42,4.42,0,0,0-8.575,0l-.422,1.695-3.016-.755.42-1.693a7.525,7.525,0,0,1,14.6,0l.425,1.693Z" transform="translate(-1.73 -22.323)" fill="#f1f1f1"/>
          <path id="Trazado_205749" data-name="Trazado 205749" d="M17.919,444.484H30.356v3.109H17.919Z" transform="translate(-2.146 -13.738)" fill="#43525b"/>
          <path id="Trazado_205750" data-name="Trazado 205750" d="M17.919,390.919h3.109v3.109H17.919Z" transform="translate(-2.146 -2.146)" fill="#f1f1f1"/>
          <path id="Trazado_205751" data-name="Trazado 205751" d="M29.823,390.919h3.109v3.109H29.823Z" transform="translate(-4.722 -2.146)" fill="#f1f1f1"/>
          <path id="Trazado_205752" data-name="Trazado 205752" d="M17.919,434.565h3.109v3.109H17.919Z" transform="translate(-2.146 -11.591)" fill="#43525b"/>
          <path id="Trazado_205753" data-name="Trazado 205753" d="M29.823,434.565h3.109v3.109H29.823Z" transform="translate(-4.722 -11.591)" fill="#43525b"/>
          <path id="Trazado_205754" data-name="Trazado 205754" d="M17.919,478.21h3.109v3.109H17.919Z" transform="translate(-2.146 -21.036)" fill="#f1f1f1"/>
          <path id="Trazado_205755" data-name="Trazado 205755" d="M29.823,478.21h3.109v3.109H29.823Z" transform="translate(-4.722 -21.036)" fill="#f1f1f1"/>
          <path id="Trazado_205756" data-name="Trazado 205756" d="M91.693,407.057v-6.218L71.484,411.721,91.693,422.6v-6.219h24.873v-9.327Z" transform="translate(-13.738 -4.293)" fill="#3d46c2"/>
          <path id="Trazado_205757" data-name="Trazado 205757" d="M71.484,414.726l20.209,10.882v-6.219h24.873v-4.663Z" transform="translate(-13.738 -7.298)" fill="#3d46c2"/>
          <path id="Trazado_205758" data-name="Trazado 205758" d="M23.721,406.523a7.513,7.513,0,0,0,7.306-5.7l.425-1.693-3.016-.755-.423,1.694a4.42,4.42,0,0,1-8.575,0l-.427-1.694-3.016.755.42,1.693a7.513,7.513,0,0,0,7.306,5.7Z" transform="translate(-1.73 -3.759)"/>
          <path id="Trazado_205759" data-name="Trazado 205759" d="M21.991,408.982A13.991,13.991,0,1,0,8,394.991,13.991,13.991,0,0,0,21.991,408.982Zm0-24.873a10.882,10.882,0,1,1-10.882,10.882A10.882,10.882,0,0,1,21.991,384.109Z"/>
          <path id="Trazado_205760" data-name="Trazado 205760" d="M21.991,452.627A13.991,13.991,0,1,0,8,438.636H8A14.007,14.007,0,0,0,21.991,452.627Zm0-24.873a10.882,10.882,0,1,1-10.882,10.882A10.882,10.882,0,0,1,21.991,427.754Z" transform="translate(0 -9.445)" fill="#dce736"/>
          <path id="Trazado_205761" data-name="Trazado 205761" d="M19.433,490.616a4.42,4.42,0,0,1,8.575,0l.423,1.695,3.016-.755-.42-1.693a7.525,7.525,0,0,0-14.6,0l-.429,1.693,3.016.755Z" transform="translate(-1.73 -22.323)"/>
          <path id="Trazado_205762" data-name="Trazado 205762" d="M21.991,496.272A13.991,13.991,0,1,0,8,482.281,13.991,13.991,0,0,0,21.991,496.272Zm0-24.873a10.882,10.882,0,1,1-10.882,10.882h0A10.894,10.894,0,0,1,21.991,471.4Z" transform="translate(0 -18.889)"/>
          <path id="Trazado_205763" data-name="Trazado 205763" d="M17.919,444.484H30.356v3.109H17.919Z" transform="translate(-2.146 -13.738)"/>
          <path id="Trazado_205764" data-name="Trazado 205764" d="M17.919,390.919h3.109v3.109H17.919Z" transform="translate(-2.146 -2.146)"/>
          <path id="Trazado_205765" data-name="Trazado 205765" d="M29.823,390.919h3.109v3.109H29.823Z" transform="translate(-4.722 -2.146)"/>
          <path id="Trazado_205766" data-name="Trazado 205766" d="M17.919,434.565h3.109v3.109H17.919Z" transform="translate(-2.146 -11.591)"/>
          <path id="Trazado_205767" data-name="Trazado 205767" d="M29.823,434.565h3.109v3.109H29.823Z" transform="translate(-4.722 -11.591)"/>
          <path id="Trazado_205768" data-name="Trazado 205768" d="M17.919,478.21h3.109v3.109H17.919Z" transform="translate(-2.146 -21.036)"/>
          <path id="Trazado_205769" data-name="Trazado 205769" d="M29.823,478.21h3.109v3.109H29.823Z" transform="translate(-4.722 -21.036)"/>
          <path id="Trazado_205770" data-name="Trazado 205770" d="M113.561,401.209H90.243v-4.663a1.554,1.554,0,0,0-2.291-1.368l-11.7,6.3V382.555A1.554,1.554,0,0,0,74.7,381H59.152a1.554,1.554,0,0,0-1.555,1.555v93.274a1.554,1.554,0,0,0,1.555,1.555H74.7a1.554,1.554,0,0,0,1.555-1.555v-62.45l11.7,6.3a1.555,1.555,0,0,0,2.291-1.368v-4.664h23.318a1.554,1.554,0,0,0,1.555-1.555v-9.327A1.555,1.555,0,0,0,113.561,401.209ZM67.742,408.8l.346.187H60.706v-6.219H73.142v.387l-5.4,2.909a1.555,1.555,0,0,0,0,2.736Zm-7.036,46.823V449.4H73.142v6.219Zm12.436,3.109v6.218H60.706v-6.218ZM60.706,446.292v-6.219H73.142v6.219Zm0-9.328v-6.218H73.142v6.218Zm0-9.327v-6.218H73.142v6.218Zm0-9.327v-6.219H73.142v6.219Zm12.436-18.655H60.706v-6.218H73.142Zm0-15.545v6.218H60.706v-6.218ZM60.706,474.274v-6.218H73.142v6.218Zm51.3-63.737H88.688a1.555,1.555,0,0,0-1.555,1.554v3.616L74.7,409.01v-.027h-.051l-2.888-1.555,15.376-8.28v3.616a1.555,1.555,0,0,0,1.555,1.555h23.318Z" transform="translate(-10.733)"/>
        </g>
      </g>
    </g>
  </g>
</svg>
