<svg xmlns="http://www.w3.org/2000/svg" width="1049" height="513" viewBox="0 0 1049 513">
  <g id="Grupo_158095" data-name="Grupo 158095" transform="translate(9556.5 7860.692)">
    <g id="Grupo_158094" data-name="Grupo 158094" transform="translate(-9821.5 -11026.5)">
      <rect id="Rectángulo_295812" data-name="Rectángulo 295812" width="1049" height="513" rx="20" transform="translate(265 3165.808)" fill="#f3f9ff"/>
      <path id="Rectángulo_40621" data-name="Rectángulo 40621" d="M193.215,264.48H387.78c3.646,0,6.6,1.877,6.6,4.191v41.783c0,2.313-2.959,4.191-6.6,4.191H193.215c-3.646,0-6.6-1.878-6.6-4.191V268.671C186.61,266.357,189.569,264.48,193.215,264.48Z" transform="translate(197.616 3085.02)" fill="#eaf086" stroke="#3e4bbf" stroke-width="2"/>
      <path id="Rectángulo_40621-2" data-name="Rectángulo 40621" d="M193.215,264.48H387.78c3.646,0,6.6,1.877,6.6,4.191v41.783c0,2.313-2.959,4.191-6.6,4.191H193.215c-3.646,0-6.6-1.878-6.6-4.191V268.671C186.61,266.357,189.569,264.48,193.215,264.48Z" transform="translate(502.89 3085.02)" fill="#eaf086" stroke="#3e4bbf" stroke-width="2"/>
      <path id="Rectángulo_40621-3" data-name="Rectángulo 40621" d="M193.215,264.48H387.78c3.646,0,6.6,1.877,6.6,4.191v41.783c0,2.313-2.959,4.191-6.6,4.191H193.215c-3.646,0-6.6-1.878-6.6-4.191V268.671C186.61,266.357,189.569,264.48,193.215,264.48Z" transform="translate(798.311 3085.02)" fill="#eaf086" stroke="#3e4bbf" stroke-width="2"/>
      <path id="Rectángulo_40621-4" data-name="Rectángulo 40621" d="M193.215,264.48H387.78c3.646,0,6.6,1.877,6.6,4.191v41.783c0,2.313-2.959,4.191-6.6,4.191H193.215c-3.646,0-6.6-1.878-6.6-4.191V268.671C186.61,266.357,189.569,264.48,193.215,264.48Z" transform="translate(197.616 3148.02)" fill="#eaf086" stroke="#3e4bbf" stroke-width="2"/>
      <path id="Rectángulo_40621-5" data-name="Rectángulo 40621" d="M193.215,264.48H387.78c3.646,0,6.6,1.877,6.6,4.191v41.783c0,2.313-2.959,4.191-6.6,4.191H193.215c-3.646,0-6.6-1.878-6.6-4.191V268.671C186.61,266.357,189.569,264.48,193.215,264.48Z" transform="translate(502.89 3148.02)" fill="#eaf086" stroke="#3e4bbf" stroke-width="2"/>
      <path id="Rectángulo_40621-6" data-name="Rectángulo 40621" d="M193.215,264.48H387.78c3.646,0,6.6,1.877,6.6,4.191v41.783c0,2.313-2.959,4.191-6.6,4.191H193.215c-3.646,0-6.6-1.878-6.6-4.191V268.671C186.61,266.357,189.569,264.48,193.215,264.48Z" transform="translate(197.228 3210.265)" fill="#eaf086" stroke="#3e4bbf" stroke-width="2"/>
      <path id="Rectángulo_40621-7" data-name="Rectángulo 40621" d="M193.215,264.48H387.78c3.646,0,6.6,1.877,6.6,4.191v41.783c0,2.313-2.959,4.191-6.6,4.191H193.215c-3.646,0-6.6-1.878-6.6-4.191V268.671C186.61,266.357,189.569,264.48,193.215,264.48Z" transform="translate(197.616 3273.02)" fill="#eaf086" stroke="#3e4bbf" stroke-width="2"/>
      <path id="Rectángulo_40621-8" data-name="Rectángulo 40621" d="M193.215,264.48H387.78c3.646,0,6.6,1.877,6.6,4.191v41.783c0,2.313-2.959,4.191-6.6,4.191H193.215c-3.646,0-6.6-1.878-6.6-4.191V268.671C186.61,266.357,189.569,264.48,193.215,264.48Z" transform="translate(197.616 3335.02)" fill="#eaf086" stroke="#3e4bbf" stroke-width="2"/>
      <path id="Trazado_213481" data-name="Trazado 213481" d="M0,70Z" transform="translate(649 3197)" fill="#dce736"/>
      <g id="Grupo_157338" data-name="Grupo 157338" transform="translate(783.244 3278)">
        <line id="Línea_576" data-name="Línea 576" y2="49.243" transform="translate(4.878)" fill="none" stroke="#3e4bbf" stroke-miterlimit="10" stroke-width="2"/>
        <path id="Trazado_158597" data-name="Trazado 158597" d="M660.97,131.96h9.756l-4.878,5.809Z" transform="translate(-660.97 -82.717)" fill="#3d46c2"/>
      </g>
      <g id="Grupo_157339" data-name="Grupo 157339" transform="translate(484 3278)">
        <line id="Línea_576-2" data-name="Línea 576" y2="49.243" transform="translate(4.878)" fill="none" stroke="#3e4bbf" stroke-miterlimit="10" stroke-width="2"/>
        <path id="Trazado_158597-2" data-name="Trazado 158597" d="M660.97,131.96h9.756l-4.878,5.809Z" transform="translate(-660.97 -82.717)" fill="#3d46c2"/>
      </g>
      <g id="Grupo_157340" data-name="Grupo 157340" transform="translate(1084 3278)">
        <line id="Línea_576-3" data-name="Línea 576" y2="49.243" transform="translate(4.878)" fill="none" stroke="#3e4bbf" stroke-miterlimit="10" stroke-width="2"/>
        <path id="Trazado_158597-3" data-name="Trazado 158597" d="M660.97,131.96h9.756l-4.878,5.809Z" transform="translate(-660.97 -82.717)" fill="#3d46c2"/>
      </g>
      <path id="Rectángulo_40621-9" data-name="Rectángulo 40621" d="M193.215,264.48H387.78c3.646,0,6.6,1.877,6.6,4.191v41.783c0,2.313-2.959,4.191-6.6,4.191H193.215c-3.646,0-6.6-1.878-6.6-4.191V268.671C186.61,266.357,189.569,264.48,193.215,264.48Z" transform="translate(197.616 2939.339)" fill="#3d46c2" stroke="#3e4bbf" stroke-width="2"/>
      <path id="Rectángulo_40621-10" data-name="Rectángulo 40621" d="M193.215,264.48H387.78c3.646,0,6.6,1.877,6.6,4.191v41.783c0,2.313-2.959,4.191-6.6,4.191H193.215c-3.646,0-6.6-1.878-6.6-4.191V268.671C186.61,266.357,189.569,264.48,193.215,264.48Z" transform="translate(497.311 2939.339)" fill="#3d46c2" stroke="#3e4bbf" stroke-width="2"/>
      <path id="Rectángulo_40621-11" data-name="Rectángulo 40621" d="M194.46,264.48H425.712c4.334,0,7.85,1.877,7.85,4.191v41.783c0,2.313-3.517,4.191-7.85,4.191H194.46c-4.334,0-7.85-1.878-7.85-4.191V268.671C186.61,266.357,190.127,264.48,194.46,264.48Z" transform="translate(777.418 2939.339)" fill="#3d46c2" stroke="#3e4bbf" stroke-width="2"/>
    </g>
    <text id="Brainstorming" transform="translate(-9027 -7646.5)" fill="#14263e" font-size="16" font-family="Roboto-Italic, Roboto" font-style="italic"><tspan x="-49.023" y="0">Brainstorming</tspan></text>
    <text id="_6_sombreros_para_pensar" data-name="6 sombreros para pensar" transform="translate(-9027 -7583.5)" fill="#14263e" font-size="16" font-family="Roboto-Regular, Roboto"><tspan x="-88.949" y="0">6 sombreros para pensar</tspan></text>
    <text id="Descubrir" transform="translate(-9331 -7790.5)" fill="#fcfdea" font-size="20" font-family="Roboto-Bold, Roboto" font-weight="700"><tspan x="-43.433" y="0">Descubrir</tspan></text>
    <text id="Idear" transform="translate(-9032 -7790.5)" fill="#fcfdea" font-size="20" font-family="Roboto-Bold, Roboto" font-weight="700"><tspan x="-22.964" y="0">Idear</tspan></text>
    <text id="Entrevistas" transform="translate(-9332.275 -7646.5)" fill="#14263e" font-size="16" font-family="Roboto-Regular, Roboto"><tspan x="-39.5" y="0">Entrevistas</tspan></text>
    <text id="Pruebas_de_concepto" data-name="Pruebas de concepto" transform="translate(-8731.579 -7646.5)" fill="#14263e" font-size="16" font-family="Roboto-Regular, Roboto"><tspan x="-75.254" y="0">Pruebas de concepto</tspan></text>
    <text id="Mapa_de_empatía" data-name="Mapa de empatía" transform="translate(-9332.275 -7583.5)" fill="#14263e" font-size="16" font-family="Roboto-Regular, Roboto"><tspan x="-61.918" y="0">Mapa de empatía</tspan></text>
    <text id="Mapa_de_experiencia_del_cliente" data-name="Mapa de experiencia 
del cliente" transform="translate(-9331.547 -7531.336)" fill="#14263e" font-size="16" font-family="Roboto-Regular, Roboto"><tspan x="-75.578" y="0">Mapa de experiencia </tspan><tspan x="-36.246" y="21">del cliente</tspan></text>
    <text id="Visual_thinking" data-name="Visual thinking" transform="translate(-9332.275 -7458.5)" fill="#14263e" font-size="16" font-family="Roboto-Regular, Roboto"><tspan x="-51.578" y="0">Visual </tspan><tspan y="0" font-family="Roboto-Italic, Roboto" font-style="italic">thinking</tspan></text>
    <text id="Etnografías" transform="translate(-9332.275 -7396.5)" fill="#14263e" font-size="16" font-family="Roboto-Regular, Roboto"><tspan x="-40.758" y="0">Etnografías</tspan></text>
    <text id="Realizar_Implementar" data-name="Realizar/Implementar" transform="translate(-8731 -7790.5)" fill="#fcfdea" font-size="20" font-family="Roboto-Bold, Roboto" font-weight="700"><tspan x="-97.593" y="0">Realizar/Implementar</tspan></text>
  </g>
</svg>
