<svg xmlns="http://www.w3.org/2000/svg" xmlns:xlink="http://www.w3.org/1999/xlink" width="107.651" height="108.188" viewBox="0 0 107.651 108.188">
  <defs>
    <linearGradient id="linear-gradient" y1="0.5" x2="1" y2="0.5" gradientUnits="objectBoundingBox">
      <stop offset="0.004" stop-color="#d11515"/>
      <stop offset="1" stop-color="#ffc342"/>
    </linearGradient>
    <linearGradient id="linear-gradient-2" y1="0.5" x2="1" y2="0.5" gradientUnits="objectBoundingBox">
      <stop offset="0.004" stop-color="#f74f39"/>
      <stop offset="0.078" stop-color="#f86740"/>
      <stop offset="0.226" stop-color="#fa914d"/>
      <stop offset="0.376" stop-color="#fbb458"/>
      <stop offset="0.527" stop-color="#fdcf60"/>
      <stop offset="0.68" stop-color="#fee266"/>
      <stop offset="0.837" stop-color="#feee69"/>
      <stop offset="1" stop-color="#fff26b"/>
    </linearGradient>
    <linearGradient id="linear-gradient-3" x1="0.5" y1="1.037" x2="0.5" y2="0.211" gradientUnits="objectBoundingBox">
      <stop offset="0.004" stop-color="#a80404"/>
      <stop offset="0.996" stop-color="#e68609"/>
    </linearGradient>
    <linearGradient id="linear-gradient-4" y1="0.5" x2="1" y2="0.5" gradientUnits="objectBoundingBox">
      <stop offset="0.027" stop-color="#a0a5bd"/>
      <stop offset="1" stop-color="#8f96bf"/>
    </linearGradient>
    <linearGradient id="linear-gradient-5" y1="0.5" x2="1" y2="0.5" gradientUnits="objectBoundingBox">
      <stop offset="0.027" stop-color="#888ea8"/>
      <stop offset="1" stop-color="#8288ad"/>
    </linearGradient>
    <linearGradient id="linear-gradient-6" x1="0.59" y1="-0.064" x2="0.541" y2="0.363" gradientUnits="objectBoundingBox">
      <stop offset="0" stop-color="#077a06"/>
      <stop offset="0.133" stop-color="#1d8905"/>
      <stop offset="0.385" stop-color="#40a104"/>
      <stop offset="0.621" stop-color="#5ab304"/>
      <stop offset="0.833" stop-color="#6abe04"/>
      <stop offset="1" stop-color="#70c204"/>
    </linearGradient>
    <linearGradient id="linear-gradient-7" x1="0.795" y1="0.927" x2="0.206" y2="0.074" gradientUnits="objectBoundingBox">
      <stop offset="0" stop-color="#006b0c"/>
      <stop offset="0.348" stop-color="#177706"/>
      <stop offset="0.739" stop-color="#2c8201"/>
      <stop offset="1" stop-color="#348700"/>
    </linearGradient>
    <linearGradient id="linear-gradient-8" y1="0.5" x2="1" y2="0.5" gradientUnits="objectBoundingBox">
      <stop offset="0" stop-color="#a2cf40"/>
      <stop offset="0.13" stop-color="#9acd3d"/>
      <stop offset="0.326" stop-color="#85c936"/>
      <stop offset="0.563" stop-color="#63c32b"/>
      <stop offset="0.831" stop-color="#35bb1c"/>
      <stop offset="1" stop-color="#14b512"/>
    </linearGradient>
    <linearGradient id="linear-gradient-9" y1="0.5" x2="1" y2="0.5" gradientUnits="objectBoundingBox">
      <stop offset="0" stop-color="#ffc533"/>
      <stop offset="0.254" stop-color="#fab92a"/>
      <stop offset="0.704" stop-color="#ed9b12"/>
      <stop offset="1" stop-color="#e38400"/>
    </linearGradient>
    <linearGradient id="linear-gradient-10" y1="0.5" x2="1" y2="0.5" gradientUnits="objectBoundingBox">
      <stop offset="0.004" stop-color="#f78c00"/>
      <stop offset="1" stop-color="#f7d200"/>
    </linearGradient>
    <linearGradient id="linear-gradient-11" x1="1.069" y1="0.779" x2="0.737" y2="0.625" gradientUnits="objectBoundingBox">
      <stop offset="0.004" stop-color="#870071"/>
      <stop offset="0.602" stop-color="#bc2735"/>
      <stop offset="1" stop-color="#e3440c"/>
    </linearGradient>
    <linearGradient id="linear-gradient-12" y1="0.5" x2="1" y2="0.5" gradientUnits="objectBoundingBox">
      <stop offset="0.004" stop-color="#870071"/>
      <stop offset="0.701" stop-color="#b40735"/>
      <stop offset="1" stop-color="#c90b1b"/>
    </linearGradient>
    <linearGradient id="linear-gradient-13" x1="1.012" y1="0.631" x2="0.144" y2="0.409" xlink:href="#linear-gradient-11"/>
    <linearGradient id="linear-gradient-14" y1="0.5" x2="1" y2="0.5" gradientUnits="objectBoundingBox">
      <stop offset="0.004" stop-color="#cf0495"/>
      <stop offset="1" stop-color="#ff8052"/>
    </linearGradient>
    <linearGradient id="linear-gradient-15" x1="1.155" y1="0.628" x2="0.442" y2="0.25" gradientUnits="objectBoundingBox">
      <stop offset="0" stop-color="#a60a2a"/>
      <stop offset="0.361" stop-color="#c82c18"/>
      <stop offset="0.775" stop-color="#ea4d06"/>
      <stop offset="1" stop-color="#f75a00"/>
    </linearGradient>
    <linearGradient id="linear-gradient-16" y1="0.5" x2="1" y2="0.5" gradientUnits="objectBoundingBox">
      <stop offset="0" stop-color="#8a0000"/>
      <stop offset="0.669" stop-color="#b40"/>
      <stop offset="1" stop-color="#d16200"/>
    </linearGradient>
    <linearGradient id="linear-gradient-17" x1="1.223" y1="0.647" x2="-0.228" y2="0.352" xlink:href="#linear-gradient-15"/>
    <linearGradient id="linear-gradient-18" y1="0.5" x2="1" y2="0.5" gradientUnits="objectBoundingBox">
      <stop offset="0" stop-color="#c41d1d"/>
      <stop offset="0.114" stop-color="#cd301c"/>
      <stop offset="0.391" stop-color="#e25b1a"/>
      <stop offset="0.641" stop-color="#f27a19"/>
      <stop offset="0.852" stop-color="#fb8d19"/>
      <stop offset="1" stop-color="#ff9419"/>
    </linearGradient>
    <linearGradient id="linear-gradient-19" x1="-0.417" y1="0.159" x2="0.84" y2="1.051" gradientUnits="objectBoundingBox">
      <stop offset="0" stop-color="#35009e"/>
      <stop offset="1" stop-color="#9a00bd"/>
    </linearGradient>
    <linearGradient id="linear-gradient-20" x1="-0.505" y1="0.5" x2="0.981" y2="0.5" gradientUnits="objectBoundingBox">
      <stop offset="0" stop-color="#00aad4"/>
      <stop offset="0.142" stop-color="#009fd2"/>
      <stop offset="1" stop-color="#0466c7"/>
    </linearGradient>
    <linearGradient id="linear-gradient-21" x1="0.38" y1="0.979" x2="0.624" y2="0.006" gradientUnits="objectBoundingBox">
      <stop offset="0" stop-color="#004191"/>
      <stop offset="1" stop-color="#005cb8"/>
    </linearGradient>
    <linearGradient id="linear-gradient-22" x1="0.054" y1="0.5" x2="0.988" y2="0.5" xlink:href="#linear-gradient-20"/>
    <linearGradient id="linear-gradient-23" y1="0.5" x2="1" y2="0.5" gradientUnits="objectBoundingBox">
      <stop offset="0" stop-color="#40d6f5"/>
      <stop offset="0.033" stop-color="#3fd3f4"/>
      <stop offset="1" stop-color="#379aeb"/>
    </linearGradient>
    <linearGradient id="linear-gradient-24" x1="0.005" y1="0.048" x2="0.986" y2="0.944" xlink:href="#linear-gradient-19"/>
    <linearGradient id="linear-gradient-25" y1="0.5" x2="1" y2="0.5" gradientUnits="objectBoundingBox">
      <stop offset="0" stop-color="#4b64f2"/>
      <stop offset="0.51" stop-color="#8b67f8"/>
      <stop offset="1" stop-color="#c66bff"/>
    </linearGradient>
  </defs>
  <g id="Grupo_158016" data-name="Grupo 158016" transform="translate(-1271.34 -101.02)">
    <g id="Grupo_150101" data-name="Grupo 150101" transform="translate(1271.34 138.572)">
      <g id="Grupo_150100" data-name="Grupo 150100">
        <g id="Grupo_150098" data-name="Grupo 150098">
          <path id="Trazado_201836" data-name="Trazado 201836" d="M1288.472,178.956c0,23.267,16.334,51.559,36.484,63.192V200.02Z" transform="translate(-1275.578 -178.956)" fill="#d1d1d1"/>
          <path id="Trazado_201837" data-name="Trazado 201837" d="M1267.34,191.154c0,23.267,16.334,51.559,36.484,63.192V212.218Z" transform="translate(-1267.34 -183.712)" fill="url(#linear-gradient)"/>
        </g>
        <path id="Trazado_201838" data-name="Trazado 201838" d="M1267.34,186.4l12.893-7.443,36.484,21.064-12.893,7.443Z" transform="translate(-1267.34 -178.956)" fill="url(#linear-gradient-2)"/>
        <path id="Trazado_201839" data-name="Trazado 201839" d="M1327.136,220.921l12.894-7.443v42.128l-12.894,7.443Z" transform="translate(-1290.652 -192.415)" fill="url(#linear-gradient-3)"/>
        <g id="Grupo_150099" data-name="Grupo 150099" transform="translate(14.139 26.999)">
          <path id="Trazado_201840" data-name="Trazado 201840" d="M1300.28,236.333l-6.582-3.8-1.362,2.787-1.821-1.051,5.608-11.062,1.752,1.012,5.624,17.546-1.856-1.071Zm-.619-1.994-2.672-8.549-2.671,5.464Z" transform="translate(-1290.514 -223.206)" fill="#fff"/>
        </g>
      </g>
    </g>
    <g id="Grupo_150115" data-name="Grupo 150115" transform="translate(1291.454 101.02)">
      <g id="Grupo_150102" data-name="Grupo 150102" transform="translate(0 25.214)">
        <path id="Trazado_201841" data-name="Trazado 201841" d="M1306.862,148.685l10.976-6.34,37.876,24.9-11.336,6.47Z" transform="translate(-1306.862 -142.346)" fill="url(#linear-gradient-4)"/>
        <path id="Trazado_201842" data-name="Trazado 201842" d="M1377.795,237.009l10.976-6.34-9.446-47.307-10.976,6.34Z" transform="translate(-1330.833 -158.336)" fill="url(#linear-gradient-5)"/>
      </g>
      <g id="Grupo_150103" data-name="Grupo 150103" transform="translate(0.143 0.044)">
        <path id="Trazado_201843" data-name="Trazado 201843" d="M1354.107,147.983l.394.262-16.845-47.152a19.362,19.362,0,0,0-8.461,2.456c-.084.046-.166.1-.25.144s-.166.1-.249.144-.166.1-.25.145-.166.1-.25.144-.166.1-.25.144-.166.1-.25.144-.166.1-.25.144-.166.1-.249.144-.167.1-.25.145-.166.1-.249.144-.166.1-.25.144-.166.1-.25.144-.166.1-.25.144-.166.1-.25.144-.166.1-.249.144-.166.1-.25.145-.166.1-.25.144-.166.1-.25.144-.166.1-.25.144-.166.1-.25.144-.166.1-.25.144-.166.1-.249.144-.166.1-.25.145-.166.1-.25.144-.167.1-.25.144-.165.1-.249.144-.166.1-.25.144-.166.1-.249.144-.167.1-.25.144-.166.1-.25.145-.166.1-.25.143-.166.1-.25.145-.166.1-.25.144-.166.1-.25.144-.166.1-.25.144-.166.1-.249.145-.166.1-.25.144-.166.1-.25.144-.166.1-.25.144-.166.1-.25.144-.166.1-.25.144-.166.1-.25.145-.166.1-.249.144c-6.275,3.443-10.458,10.559-11.372,20.675l36.428,24.164-.145-.406.394.261-.145-.406.394.262-.145-.406.394.262-.145-.406.395.262-.145-.406.395.262-.145-.406.395.262-.145-.406.394.261-.145-.406.394.262-.145-.406.394.262-.145-.406.394.262-.145-.406.395.262-.145-.406.395.262-.145-.406.395.262-.145-.406.394.261-.145-.406.394.262-.145-.406.394.262-.145-.406.395.262-.145-.406.395.262-.145-.406.395.262-.145-.406.395.262-.145-.406.394.261-.145-.406.394.262-.145-.406.394.262-.145-.406.394.262-.145-.406.395.262-.145-.406.395.262-.145-.406.394.261-.145-.405.394.261-.145-.406.394.262-.145-.406.394.262-.145-.406.395.262-.145-.406.395.262-.145-.406.395.262-.145-.406.394.261-.145-.406.394.262-.145-.406.394.262-.145-.406.394.262-.145-.406.395.262-.145-.406.395.262-.145-.406.395.262-.145-.406.394.261-.145-.405.394.261-.145-.406.394.262Z" transform="translate(-1307.097 -101.093)" fill="url(#linear-gradient-6)"/>
        <path id="Trazado_201844" data-name="Trazado 201844" d="M1356.038,154.584l10.976-6.34-16.845-47.152-10.976,6.34Z" transform="translate(-1319.61 -101.093)" fill="url(#linear-gradient-7)"/>
        <path id="Trazado_201845" data-name="Trazado 201845" d="M1343.525,158.635l-16.845-47.152c-10.734.669-18.313,8.934-19.583,22.988Z" transform="translate(-1307.097 -105.143)" fill="url(#linear-gradient-8)"/>
      </g>
      <g id="Grupo_150104" data-name="Grupo 150104" transform="translate(39.685 52.104)">
        <path id="Trazado_201846" data-name="Trazado 201846" d="M1398.3,236.573c.083-.048.167-.1.249-.145s.167-.095.249-.144.167-.095.25-.144.167-.095.25-.144.167-.1.25-.144.167-.1.25-.145.167-.095.25-.144.167-.095.25-.144.167-.095.249-.144.168-.095.25-.144.167-.095.249-.144.167-.095.25-.144.167-.1.25-.144.167-.1.25-.145.167-.095.249-.144.167-.095.25-.144.167-.095.25-.144.167-.095.25-.144.167-.095.25-.144.167-.1.25-.144.167-.1.25-.145.167-.095.25-.144.167-.095.249-.144.167-.095.25-.144.167-.095.25-.144.167-.1.25-.144.167-.1.25-.145.167-.095.248-.144.167-.095.25-.144.167-.095.25-.144.167-.095.25-.144.167-.095.25-.144.167-.1.25-.144.167-.1.25-.144.167-.1.25-.145.167-.095.249-.144.167-.095.25-.144.167-.095.25-.144.167-.095.25-.144.167-.1.25-.144.167-.1.25-.145a20.561,20.561,0,0,0,8.466-9.877l-34.108-34.371.1.5-.348-.351.1.5-.348-.351.1.495-.348-.351.1.495-.348-.351.1.495-.349-.351.1.495-.348-.351.1.495-.348-.351.1.5-.348-.351.1.5-.348-.351.1.5-.348-.351.1.495-.348-.351.1.495-.348-.351.1.495-.348-.351.1.5-.348-.351.1.5-.348-.351.1.5-.348-.351.1.495-.348-.351.1.495-.348-.351.1.495-.348-.351.1.495-.348-.351.1.5-.348-.351.1.5-.348-.351.1.5-.348-.351.1.495-.348-.351.1.495-.348-.351.1.495-.348-.351.1.495-.348-.351.1.5-.348-.351.1.5-.348-.351.1.495-.348-.351.1.495-.348-.351.1.495-.348-.351.1.495-.348-.351.1.495-.348-.351.1.5-.348-.351.1.5-.348-.351.1.5-.348-.351.1.495-.348-.351.1.495-.348-.351.1.495-.348-.351.1.5-.349-.351.1.5-.348-.351.1.5-.348-.351.1.495-.348-.351,9.179,45.971c6.426,1.575,12.155.859,16.712-1.867.083-.048.167-.1.25-.144S1398.214,236.622,1398.3,236.573Z" transform="translate(-1371.905 -186.417)" fill="url(#linear-gradient-9)"/>
        <path id="Trazado_201847" data-name="Trazado 201847" d="M1371.905,192.757l10.976-6.34,34.108,34.371-10.976,6.34Z" transform="translate(-1371.905 -186.417)" fill="#bd3c00"/>
        <path id="Trazado_201848" data-name="Trazado 201848" d="M1371.905,196.808l9.179,45.971c11.366,2.785,20.559-1.591,24.929-11.6Z" transform="translate(-1371.905 -190.468)" fill="url(#linear-gradient-10)"/>
      </g>
      <g id="Grupo_150105" data-name="Grupo 150105" transform="translate(42.678 52.696)">
        <path id="Trazado_201849" data-name="Trazado 201849" d="M1394.8,187.387l31.8,32.048a38.946,38.946,0,0,0,2.081-13.176c0-.923-.032-1.854-.08-2.791Z" transform="translate(-1383.823 -187.387)" fill="url(#linear-gradient-11)"/>
        <path id="Trazado_201850" data-name="Trazado 201850" d="M1376.81,193.727l10.976-6.34,33.8,16.081-10.976,6.34Z" transform="translate(-1376.81 -187.387)" fill="url(#linear-gradient-12)"/>
        <path id="Trazado_201851" data-name="Trazado 201851" d="M1428.933,236.049l10.976-6.34.487-12.681,1.513-3.285-10.976,6.34Z" transform="translate(-1397.131 -197.662)" fill="url(#linear-gradient-13)"/>
        <path id="Trazado_201852" data-name="Trazado 201852" d="M1376.81,197.778l31.8,32.047a38.938,38.938,0,0,0,2.081-13.176c0-.922-.032-1.854-.081-2.79Z" transform="translate(-1376.81 -191.438)" fill="url(#linear-gradient-14)"/>
      </g>
      <g id="Grupo_150106" data-name="Grupo 150106" transform="translate(41.892 43.862)">
        <path id="Trazado_201853" data-name="Trazado 201853" d="M1427.93,195.463a76.219,76.219,0,0,0-5.954-22.554l-28.465,6.18Z" transform="translate(-1382.535 -172.909)" fill="url(#linear-gradient-15)"/>
        <path id="Trazado_201854" data-name="Trazado 201854" d="M1403.986,179.248l10.976-6.34-28.465,6.18-10.976,6.34Z" transform="translate(-1375.521 -172.909)" fill="url(#linear-gradient-16)"/>
        <path id="Trazado_201855" data-name="Trazado 201855" d="M1428.128,201.8l10.976-6.34-5.954-22.554-10.976,6.34Z" transform="translate(-1393.709 -172.909)" fill="url(#linear-gradient-17)"/>
        <path id="Trazado_201856" data-name="Trazado 201856" d="M1409.94,205.853a76.189,76.189,0,0,0-5.954-22.554l-28.465,6.18Z" transform="translate(-1375.521 -176.959)" fill="url(#linear-gradient-18)"/>
      </g>
      <path id="Trazado_201857" data-name="Trazado 201857" d="M1389.4,153.7l29.856-6.482c-6.275-13.579-16.054-26.042-27.25-33.757Z" transform="translate(-1339.041 -105.871)" fill="url(#linear-gradient-19)"/>
      <g id="Grupo_150107" data-name="Grupo 150107" transform="translate(21.47)">
        <path id="Trazado_201858" data-name="Trazado 201858" d="M1360.04,101.02l16.056,44.945,2.5-38.646c-.588-.37-1.177-.732-1.772-1.075C1370.805,102.766,1365.11,101.088,1360.04,101.02Z" transform="translate(-1349.064 -101.02)" fill="url(#linear-gradient-20)"/>
        <path id="Trazado_201859" data-name="Trazado 201859" d="M1368.366,156.329c-.029-.134,10.976-6.34,10.976-6.34l2.5-38.646-10.976,6.339Z" transform="translate(-1352.31 -105.044)" fill="url(#linear-gradient-21)"/>
        <path id="Trazado_201860" data-name="Trazado 201860" d="M1353.026,101.02l-10.976,6.34,18.56,6.3,10.976-6.34Z" transform="translate(-1342.05 -101.02)" fill="url(#linear-gradient-22)"/>
        <path id="Trazado_201861" data-name="Trazado 201861" d="M1342.05,111.41l16.056,44.945,2.5-38.647c-.588-.37-1.178-.732-1.773-1.075C1352.815,113.157,1347.12,111.478,1342.05,111.41Z" transform="translate(-1342.05 -105.071)" fill="url(#linear-gradient-23)"/>
      </g>
      <path id="Trazado_201862" data-name="Trazado 201862" d="M1402.935,153.558l10.976-6.34-27.25-33.756-10.976,6.34Z" transform="translate(-1333.693 -105.871)" fill="url(#linear-gradient-24)"/>
      <path id="Trazado_201863" data-name="Trazado 201863" d="M1371.413,164.091l29.857-6.482c-6.275-13.579-16.054-26.042-27.25-33.757Z" transform="translate(-1332.028 -109.922)" fill="url(#linear-gradient-25)"/>
      <g id="Grupo_150108" data-name="Grupo 150108" transform="translate(28.949 14.628)">
        <path id="Trazado_201864" data-name="Trazado 201864" d="M1357.141,126.63v.422l-1.519,3.04-.568-.328,1.486-2.94-1.718-.992v.775l-.516-.3v-1.315Z" transform="translate(-1354.308 -124.994)" fill="#fff"/>
        <path id="Trazado_201865" data-name="Trazado 201865" d="M1359.951,130.475a2.14,2.14,0,0,1-.242-1,.868.868,0,0,1,.242-.716.539.539,0,0,1,.633.038,1.623,1.623,0,0,1,.63.689,2.134,2.134,0,0,1,.239,1,.879.879,0,0,1-.239.721q-.239.187-.63-.04A1.64,1.64,0,0,1,1359.951,130.475Zm1.02.344a.754.754,0,0,0,.14-.53,1.617,1.617,0,0,0-.14-.691.961.961,0,0,0-.386-.444c-.161-.093-.289-.092-.384,0a.738.738,0,0,0-.143.524,1.618,1.618,0,0,0,.143.69.965.965,0,0,0,.384.445C1360.749,130.911,1360.877,130.912,1360.97,130.819Zm1.879-.673.414.239-2.566,2.857-.413-.239Zm-.518,3.751a2.149,2.149,0,0,1-.239-1,.881.881,0,0,1,.239-.721.537.537,0,0,1,.63.038,1.66,1.66,0,0,1,.635.694,2.139,2.139,0,0,1,.241,1,.869.869,0,0,1-.241.716.541.541,0,0,1-.635-.038A1.638,1.638,0,0,1,1362.331,133.9Zm1.014.334a.737.737,0,0,0,.143-.525,1.6,1.6,0,0,0-.143-.689.955.955,0,0,0-.384-.445c-.164-.1-.293-.1-.385,0a.752.752,0,0,0-.14.53,1.617,1.617,0,0,0,.14.69.957.957,0,0,0,.385.444Q1363.2,134.373,1363.345,134.231Z" transform="translate(-1356.414 -126.43)" fill="#fff"/>
      </g>
      <g id="Grupo_150109" data-name="Grupo 150109" transform="translate(47.202 28.503)">
        <path id="Trazado_201866" data-name="Trazado 201866" d="M1385.6,148.532v4.339l-.531-.306v-3.8l-.848-.489v-.54Z" transform="translate(-1384.225 -147.736)" fill="#fff"/>
        <path id="Trazado_201867" data-name="Trazado 201867" d="M1390.682,154.28a1.714,1.714,0,0,1,.172.737.782.782,0,0,1-.182.574.6.6,0,0,1-.52.143,2.186,2.186,0,0,1-.794-.3,3.532,3.532,0,0,1-.786-.609,2.733,2.733,0,0,1-.518-.743,1.854,1.854,0,0,1-.182-.784.74.74,0,0,1,.168-.541.552.552,0,0,1,.492-.125,2.256,2.256,0,0,1-.392-.6,1.594,1.594,0,0,1-.134-.635.721.721,0,0,1,.168-.529.547.547,0,0,1,.475-.134,1.882,1.882,0,0,1,.709.266,3.257,3.257,0,0,1,.717.556,2.5,2.5,0,0,1,.477.685,1.7,1.7,0,0,1,.17.724.715.715,0,0,1-.137.476.473.473,0,0,1-.395.153A2.525,2.525,0,0,1,1390.682,154.28Zm-.623.84q.257-.065.257-.431a1.219,1.219,0,0,0-.257-.716,2.214,2.214,0,0,0-.7-.613,1.022,1.022,0,0,0-.7-.2q-.253.062-.252.422a1.251,1.251,0,0,0,.252.725,2.146,2.146,0,0,0,.7.616A1.011,1.011,0,0,0,1390.059,155.12Zm-1.3-3.783q-.22.061-.22.384a1.1,1.1,0,0,0,.217.633,1.84,1.84,0,0,0,.6.535.89.89,0,0,0,.615.168c.148-.038.222-.165.222-.38a1.106,1.106,0,0,0-.228-.644,1.9,1.9,0,0,0-.609-.54A.838.838,0,0,0,1388.755,151.336Z" transform="translate(-1385.646 -148.899)" fill="#fff"/>
        <path id="Trazado_201868" data-name="Trazado 201868" d="M1393.751,155.458a2.135,2.135,0,0,1-.242-.995.868.868,0,0,1,.242-.716.539.539,0,0,1,.633.037,1.623,1.623,0,0,1,.63.689,2.138,2.138,0,0,1,.24,1,.879.879,0,0,1-.24.721q-.238.187-.63-.04A1.642,1.642,0,0,1,1393.751,155.458Zm1.02.344a.757.757,0,0,0,.14-.53,1.625,1.625,0,0,0-.14-.691.965.965,0,0,0-.387-.444q-.242-.139-.384,0a.738.738,0,0,0-.142.524,1.618,1.618,0,0,0,.142.69.964.964,0,0,0,.384.445C1394.548,155.894,1394.678,155.9,1394.771,155.8Zm1.878-.672.414.239-2.566,2.857-.412-.239Zm-.517,3.751a2.144,2.144,0,0,1-.239-1,.88.88,0,0,1,.239-.721q.239-.187.63.038a1.65,1.65,0,0,1,.634.694,2.139,2.139,0,0,1,.241,1,.872.872,0,0,1-.241.716.541.541,0,0,1-.634-.038A1.64,1.64,0,0,1,1396.131,158.881Zm1.014.335a.736.736,0,0,0,.143-.525,1.6,1.6,0,0,0-.143-.69.951.951,0,0,0-.383-.444c-.165-.1-.293-.1-.387,0a.755.755,0,0,0-.139.53,1.629,1.629,0,0,0,.139.691.954.954,0,0,0,.387.443C1396.923,159.31,1397.052,159.31,1397.145,159.216Z" transform="translate(-1387.844 -150.046)" fill="#fff"/>
      </g>
      <g id="Grupo_150110" data-name="Grupo 150110" transform="translate(64.116 73.363)">
        <path id="Trazado_201869" data-name="Trazado 201869" d="M1414.758,224.82a1.722,1.722,0,0,1,.171.737.788.788,0,0,1-.182.574.6.6,0,0,1-.52.143,2.174,2.174,0,0,1-.794-.3,3.515,3.515,0,0,1-.786-.609,2.763,2.763,0,0,1-.519-.742,1.867,1.867,0,0,1-.181-.785.74.74,0,0,1,.168-.541.552.552,0,0,1,.491-.124,2.27,2.27,0,0,1-.392-.605,1.593,1.593,0,0,1-.134-.635.721.721,0,0,1,.169-.529.548.548,0,0,1,.475-.134,1.883,1.883,0,0,1,.709.266,3.221,3.221,0,0,1,.716.557,2.483,2.483,0,0,1,.477.684,1.7,1.7,0,0,1,.17.724.715.715,0,0,1-.137.476.476.476,0,0,1-.395.154A2.559,2.559,0,0,1,1414.758,224.82Zm-.624.84c.172-.044.258-.187.258-.431a1.213,1.213,0,0,0-.258-.716,2.2,2.2,0,0,0-.7-.614,1.017,1.017,0,0,0-.7-.195q-.252.061-.251.421a1.253,1.253,0,0,0,.251.725,2.136,2.136,0,0,0,.7.616A1.014,1.014,0,0,0,1414.135,225.66Zm-1.3-3.784q-.22.061-.22.385a1.092,1.092,0,0,0,.218.633,1.839,1.839,0,0,0,.6.535.888.888,0,0,0,.615.168c.148-.037.222-.165.222-.379a1.105,1.105,0,0,0-.228-.644,1.9,1.9,0,0,0-.609-.54A.839.839,0,0,0,1412.831,221.876Z" transform="translate(-1411.946 -221.26)" fill="#fff"/>
        <path id="Trazado_201870" data-name="Trazado 201870" d="M1417.826,226a2.132,2.132,0,0,1-.242-.995.867.867,0,0,1,.242-.716.539.539,0,0,1,.633.038,1.633,1.633,0,0,1,.631.688,2.14,2.14,0,0,1,.239,1,.878.878,0,0,1-.239.721c-.16.124-.37.112-.631-.039A1.643,1.643,0,0,1,1417.826,226Zm1.02.344a.754.754,0,0,0,.14-.53,1.619,1.619,0,0,0-.14-.691.962.962,0,0,0-.386-.443c-.161-.093-.289-.092-.384,0a.737.737,0,0,0-.143.524,1.616,1.616,0,0,0,.143.69.968.968,0,0,0,.384.445C1418.624,226.435,1418.753,226.436,1418.846,226.343Zm1.879-.673.414.24-2.566,2.857-.412-.239Zm-.518,3.751a2.14,2.14,0,0,1-.239-1,.879.879,0,0,1,.239-.721q.24-.187.63.039a1.652,1.652,0,0,1,.635.693,2.148,2.148,0,0,1,.241,1,.874.874,0,0,1-.241.717.543.543,0,0,1-.635-.038A1.646,1.646,0,0,1,1420.206,229.421Zm1.014.336a.738.738,0,0,0,.143-.525,1.608,1.608,0,0,0-.143-.69.954.954,0,0,0-.384-.444c-.164-.1-.293-.1-.386,0a.754.754,0,0,0-.14.53,1.624,1.624,0,0,0,.14.691.953.953,0,0,0,.386.443C1421,229.851,1421.126,229.851,1421.22,229.756Z" transform="translate(-1414.144 -222.407)" fill="#fff"/>
      </g>
      <g id="Grupo_150111" data-name="Grupo 150111" transform="translate(52.534 87.955)">
        <path id="Trazado_201871" data-name="Trazado 201871" d="M1395.787,250.153v.54l-2.7-1.56v-.421l1.53-.821a.918.918,0,0,0,.376-.319.8.8,0,0,0,.1-.4,1.147,1.147,0,0,0-.207-.649,1.753,1.753,0,0,0-.592-.531q-.622-.36-.961-.084l-.365-.577a.761.761,0,0,1,.577-.15,2,2,0,0,1,.8.287,2.749,2.749,0,0,1,.939.868,1.942,1.942,0,0,1,.348,1.084,1.2,1.2,0,0,1-.129.583,1.135,1.135,0,0,1-.488.425l-1.149.613Z" transform="translate(-1392.963 -245.176)" fill="#fff"/>
        <path id="Trazado_201872" data-name="Trazado 201872" d="M1400.763,251.217a2.007,2.007,0,0,1,.289,1.013.923.923,0,0,1-.161.579.548.548,0,0,1-.48.2,1.73,1.73,0,0,1-.781-.274,4.093,4.093,0,0,1-.774-.586,3.8,3.8,0,0,1-.606-.737l.247-.348a3.279,3.279,0,0,0,.494.623,3.131,3.131,0,0,0,.639.5.893.893,0,0,0,.652.171c.155-.046.233-.189.233-.429a1.2,1.2,0,0,0-.231-.691,2.13,2.13,0,0,0-.7-.6l-.3-.173v-.434l.945-.793-1.809-1.045v-.539l2.48,1.432v.421l-.982.834A2.78,2.78,0,0,1,1400.763,251.217Z" transform="translate(-1395.024 -246.141)" fill="#fff"/>
        <path id="Trazado_201873" data-name="Trazado 201873" d="M1403.74,252.879a2.135,2.135,0,0,1-.242-1,.867.867,0,0,1,.242-.716.54.54,0,0,1,.633.037,1.64,1.64,0,0,1,.631.689,2.144,2.144,0,0,1,.239,1,.879.879,0,0,1-.239.721c-.16.125-.37.112-.631-.038A1.645,1.645,0,0,1,1403.74,252.879Zm1.019.344a.752.752,0,0,0,.14-.53,1.618,1.618,0,0,0-.14-.691.953.953,0,0,0-.386-.443c-.161-.093-.289-.093-.384,0a.742.742,0,0,0-.143.526,1.618,1.618,0,0,0,.143.689.957.957,0,0,0,.384.445C1404.538,253.314,1404.666,253.314,1404.759,253.222Zm1.879-.672.414.238-2.566,2.858-.413-.239Zm-.518,3.751a2.145,2.145,0,0,1-.239-1,.88.88,0,0,1,.239-.721c.16-.125.369-.112.631.039a1.65,1.65,0,0,1,.634.694,2.148,2.148,0,0,1,.241,1,.872.872,0,0,1-.241.716.539.539,0,0,1-.634-.038A1.627,1.627,0,0,1,1406.12,256.3Zm1.015.334a.74.74,0,0,0,.143-.525,1.617,1.617,0,0,0-.143-.689.964.964,0,0,0-.384-.446c-.165-.094-.293-.1-.386,0a.754.754,0,0,0-.139.53,1.614,1.614,0,0,0,.139.691.959.959,0,0,0,.386.444C1406.912,256.731,1407.04,256.729,1407.135,256.635Z" transform="translate(-1397.07 -247.478)" fill="#fff"/>
      </g>
      <g id="Grupo_150113" data-name="Grupo 150113" transform="translate(9.584 20.552)">
        <path id="Trazado_201877" data-name="Trazado 201877" d="M1325.394,139.681v.539l-2.7-1.558v-.421l1.53-.822a.909.909,0,0,0,.375-.32.791.791,0,0,0,.1-.4,1.148,1.148,0,0,0-.206-.649,1.77,1.77,0,0,0-.593-.531q-.623-.36-.96-.084l-.366-.576a.757.757,0,0,1,.578-.15,1.987,1.987,0,0,1,.8.287,2.747,2.747,0,0,1,.94.868,1.94,1.94,0,0,1,.348,1.084,1.2,1.2,0,0,1-.129.582,1.136,1.136,0,0,1-.489.425l-1.148.614Z" transform="translate(-1322.57 -134.705)" fill="#fff"/>
        <path id="Trazado_201878" data-name="Trazado 201878" d="M1328.663,142.007a3.67,3.67,0,0,1-.545-1.08,4.234,4.234,0,0,1-.2-1.305,2.389,2.389,0,0,1,.2-1.075.77.77,0,0,1,.545-.45,1.176,1.176,0,0,1,.792.194,2.616,2.616,0,0,1,.786.716,3.675,3.675,0,0,1,.545,1.08,4.238,4.238,0,0,1,.2,1.305,2.39,2.39,0,0,1-.2,1.075.771.771,0,0,1-.545.451,1.169,1.169,0,0,1-.786-.192A2.625,2.625,0,0,1,1328.663,142.007Zm1.514.157a1.566,1.566,0,0,0,.271-1.082,3.294,3.294,0,0,0-.271-1.4,1.826,1.826,0,0,0-.722-.845c-.3-.175-.547-.171-.727.009a1.566,1.566,0,0,0-.271,1.082,3.3,3.3,0,0,0,.271,1.4,1.827,1.827,0,0,0,.727.847Q1329.906,142.436,1330.177,142.165Z" transform="translate(-1324.656 -136.022)" fill="#fff"/>
        <path id="Trazado_201879" data-name="Trazado 201879" d="M1334.007,142.787a2.135,2.135,0,0,1-.242-.995.87.87,0,0,1,.242-.716.542.542,0,0,1,.633.038,1.632,1.632,0,0,1,.63.689,2.132,2.132,0,0,1,.239,1,.881.881,0,0,1-.239.722q-.239.187-.63-.04A1.637,1.637,0,0,1,1334.007,142.787Zm1.02.344a.757.757,0,0,0,.14-.53,1.63,1.63,0,0,0-.14-.69.961.961,0,0,0-.387-.443c-.16-.093-.289-.092-.383,0a.736.736,0,0,0-.143.524,1.609,1.609,0,0,0,.143.69.958.958,0,0,0,.383.445C1334.8,143.223,1334.933,143.224,1335.027,143.131Zm1.879-.672.413.239-2.566,2.857-.413-.239Zm-.518,3.751a2.146,2.146,0,0,1-.239-1,.881.881,0,0,1,.239-.721c.159-.125.369-.112.63.038a1.647,1.647,0,0,1,.634.695,2.133,2.133,0,0,1,.241,1,.87.87,0,0,1-.241.716.54.54,0,0,1-.634-.038A1.634,1.634,0,0,1,1336.387,146.21Zm1.014.334a.741.741,0,0,0,.142-.525,1.618,1.618,0,0,0-.142-.69.954.954,0,0,0-.384-.444c-.165-.1-.293-.1-.387,0a.755.755,0,0,0-.139.53,1.624,1.624,0,0,0,.139.69.955.955,0,0,0,.387.443C1337.179,146.639,1337.307,146.639,1337.4,146.545Z" transform="translate(-1326.934 -137.156)" fill="#fff"/>
      </g>
      <g id="Grupo_150114" data-name="Grupo 150114" transform="translate(60.736 55.671)">
        <path id="Trazado_201880" data-name="Trazado 201880" d="M1407.786,193.06V197.4l-.531-.307v-3.8l-.848-.49v-.539Z" transform="translate(-1406.406 -192.263)" fill="#fff"/>
        <path id="Trazado_201881" data-name="Trazado 201881" d="M1410.828,199.343a3.639,3.639,0,0,1-.545-1.081,4.239,4.239,0,0,1-.2-1.3,2.4,2.4,0,0,1,.2-1.075.767.767,0,0,1,.545-.451,1.177,1.177,0,0,1,.792.193,2.627,2.627,0,0,1,.786.718,3.706,3.706,0,0,1,.545,1.08,4.246,4.246,0,0,1,.2,1.3,2.4,2.4,0,0,1-.2,1.075.769.769,0,0,1-.545.451,1.166,1.166,0,0,1-.786-.19A2.639,2.639,0,0,1,1410.828,199.343Zm1.513.157a1.562,1.562,0,0,0,.271-1.082,3.286,3.286,0,0,0-.271-1.4,1.814,1.814,0,0,0-.721-.845c-.3-.176-.547-.173-.728.009a1.565,1.565,0,0,0-.27,1.082,3.3,3.3,0,0,0,.27,1.4,1.825,1.825,0,0,0,.728.848Q1412.071,199.773,1412.341,199.5Z" transform="translate(-1407.84 -193.494)" fill="#fff"/>
        <path id="Trazado_201882" data-name="Trazado 201882" d="M1416.169,200.121a2.141,2.141,0,0,1-.242-1,.87.87,0,0,1,.242-.716.539.539,0,0,1,.633.038,1.628,1.628,0,0,1,.631.689,2.14,2.14,0,0,1,.239,1,.875.875,0,0,1-.239.72c-.159.124-.369.112-.631-.038A1.645,1.645,0,0,1,1416.169,200.121Zm1.019.344a.749.749,0,0,0,.14-.53,1.61,1.61,0,0,0-.14-.691.954.954,0,0,0-.386-.444c-.161-.093-.289-.093-.384,0a.742.742,0,0,0-.142.525,1.617,1.617,0,0,0,.142.689.961.961,0,0,0,.384.445C1416.966,200.557,1417.1,200.557,1417.188,200.465Zm1.879-.672.414.239-2.566,2.857-.413-.239Zm-.517,3.751a2.141,2.141,0,0,1-.239-1,.88.88,0,0,1,.239-.721q.239-.187.63.039a1.657,1.657,0,0,1,.635.694,2.143,2.143,0,0,1,.24.995.874.874,0,0,1-.24.717.542.542,0,0,1-.635-.038A1.635,1.635,0,0,1,1418.549,203.543Zm1.014.334a.735.735,0,0,0,.143-.525,1.611,1.611,0,0,0-.143-.69.955.955,0,0,0-.384-.445c-.165-.1-.293-.1-.386,0a.755.755,0,0,0-.139.53,1.62,1.62,0,0,0,.139.691.957.957,0,0,0,.386.443C1419.341,203.973,1419.468,203.972,1419.563,203.878Z" transform="translate(-1410.118 -194.626)" fill="#fff"/>
      </g>
    </g>
  </g>
</svg>
