<svg xmlns="http://www.w3.org/2000/svg" width="150" height="150" viewBox="0 0 150 150">
  <g id="Grupo_158149" data-name="Grupo 158149" transform="translate(554 656.171)">
    <g id="Grupo_158050" data-name="Grupo 158050" transform="translate(-344 -592.006)">
      <g id="Grupo_157964" data-name="Grupo 157964" transform="translate(-935 -1930.109)">
        <g id="Elipse_12654" data-name="Elipse 12654" transform="translate(725 1865.944)" fill="#fff" stroke="#77b43a" stroke-width="4">
          <circle cx="75" cy="75" r="75" stroke="none"/>
          <circle cx="75" cy="75" r="73" fill="none"/>
        </g>
        <g id="Grupo_157258" data-name="Grupo 157258" transform="translate(754 1515.299)">
          <path id="Trazado_210457" data-name="Trazado 210457" d="M46.221,381.609a44.376,44.376,0,1,0,40.895,61.406l.023.036C99.3,414.157,78,381.609,46.221,381.609Z" transform="translate(-0.576 -0.608)" fill="#dce736"/>
          <path id="Trazado_210458" data-name="Trazado 210458" d="M49.331,391.654a37.423,37.423,0,1,0,36.132,47.077l.013.019C91.867,415.02,73.767,391.654,49.331,391.654Z" transform="translate(-3.686 -3.716)" fill="#e4e3e1"/>
          <g id="Grupo_157257" data-name="Grupo 157257" transform="translate(25.182 403.306)">
            <path id="Trazado_210459" data-name="Trazado 210459" d="M44.555,417.111c-4.583,0-8.088,1.941-8.088,7.279v7.657c0,5.339,3.5,7.28,8.088,7.28,4.53,0,8.089-1.941,8.089-7.28V424.39C52.644,419.052,49.085,417.111,44.555,417.111Zm2.7,14.937c0,1.78-1.024,2.588-2.7,2.588a2.325,2.325,0,0,1-2.642-2.588v-7.657a2.325,2.325,0,0,1,2.642-2.588c1.672,0,2.7.809,2.7,2.588Z" transform="translate(-36.467 -414.9)" fill="#75b62f"/>
            <path id="Trazado_210460" data-name="Trazado 210460" d="M72.847,417.791,53.866,456.67a2.7,2.7,0,0,1-2.426,1.348,2.826,2.826,0,0,1-2.75-3.882l18.927-38.879a2.376,2.376,0,0,1,2.264-1.348C72.133,413.909,73.7,416.086,72.847,417.791Z" transform="translate(-40.171 -413.909)" fill="#75b62f"/>
            <path id="Trazado_210461" data-name="Trazado 210461" d="M80.4,442.255c-4.584,0-8.089,1.941-8.089,7.28v7.657c0,5.339,3.505,7.28,8.089,7.28,4.529,0,8.088-1.941,8.088-7.28v-7.657C88.485,444.2,84.926,442.255,80.4,442.255Zm2.7,14.937c0,1.78-1.025,2.589-2.7,2.589a2.326,2.326,0,0,1-2.643-2.589v-7.657a2.326,2.326,0,0,1,2.643-2.588c1.671,0,2.7.809,2.7,2.588Z" transform="translate(-47.558 -422.681)" fill="#75b62f"/>
          </g>
          <path id="Trazado_210462" data-name="Trazado 210462" d="M40.037,432.048v-7.657c0-4.617,2.622-6.691,6.294-7.169a13.713,13.713,0,0,0-1.777-.111c-4.583,0-8.088,1.941-8.088,7.279v7.657c0,5.339,3.5,7.28,8.088,7.28a13.716,13.716,0,0,0,1.777-.112C42.659,438.739,40.037,436.664,40.037,432.048Z" transform="translate(-11.285 -11.594)" fill="#75b62f"/>
          <path id="Trazado_210463" data-name="Trazado 210463" d="M52.26,454.136l18.927-38.879a2.277,2.277,0,0,1,.581-.771,3.335,3.335,0,0,0-1.887-.578,2.377,2.377,0,0,0-2.265,1.348L48.69,454.136a2.826,2.826,0,0,0,2.75,3.882,3.021,3.021,0,0,0,1.776-.577A2.638,2.638,0,0,1,52.26,454.136Z" transform="translate(-14.988 -10.603)" fill="#75b62f"/>
          <path id="Trazado_210464" data-name="Trazado 210464" d="M75.879,457.192v-7.657c0-4.616,2.622-6.691,6.3-7.169a13.726,13.726,0,0,0-1.777-.111c-4.584,0-8.089,1.941-8.089,7.28v7.657c0,5.339,3.505,7.28,8.089,7.28a13.735,13.735,0,0,0,1.777-.112C78.5,463.883,75.879,461.808,75.879,457.192Z" transform="translate(-22.376 -19.375)" fill="#75b62f"/>
          <path id="Trazado_210465" data-name="Trazado 210465" d="M118.9,469.731,107.47,451.987a1.123,1.123,0,0,0-1.886,0L94.15,469.731a1.122,1.122,0,0,0,.943,1.729h5.125a.84.84,0,0,1,.841.84v17.686a1.961,1.961,0,0,0,1.962,1.961h7.013A1.961,1.961,0,0,0,112,489.986V472.3a.84.84,0,0,1,.84-.84h5.125A1.121,1.121,0,0,0,118.9,469.731Z" transform="translate(-29.079 -22.228)" fill="#3d46c2"/>
          <path id="Trazado_210466" data-name="Trazado 210466" d="M5.432,425.969a44.441,44.441,0,0,1,42.613-44.323q-.906-.035-1.823-.037a44.359,44.359,0,1,0,0,88.719c.6,0,1.191-.014,1.786-.039A44.456,44.456,0,0,1,5.432,425.969Z" transform="translate(-0.576 -0.608)" fill="#dce736"/>
          <path id="Trazado_210467" data-name="Trazado 210467" d="M15.488,428.408A37.548,37.548,0,0,1,51.09,391.7c-.584-.028-1.168-.046-1.759-.046a37.423,37.423,0,0,0,0,74.846q.9,0,1.786-.045A37.527,37.527,0,0,1,15.488,428.408Z" transform="translate(-3.686 -3.716)" fill="#d1d0cf"/>
          <path id="Trazado_210468" data-name="Trazado 210468" d="M97.721,469.731l10.592-16.436-.842-1.308a1.123,1.123,0,0,0-1.886,0L94.151,469.731a1.121,1.121,0,0,0,.942,1.729h3.571A1.122,1.122,0,0,1,97.721,469.731Z" transform="translate(-29.079 -22.228)" fill="#3d46c2"/>
          <path id="Trazado_210469" data-name="Trazado 210469" d="M107.429,498.943V481.257a.84.84,0,0,0-.84-.84h-3.571a.841.841,0,0,1,.841.84v17.686a1.962,1.962,0,0,0,1.962,1.962h3.57A1.962,1.962,0,0,1,107.429,498.943Z" transform="translate(-31.879 -31.184)" fill="#3d46c2"/>
          <path id="Trazado_210470" data-name="Trazado 210470" d="M78.21,447.8v-7.657c0-5.477-3.436-8.618-9.427-8.618a10.323,10.323,0,0,0-6.649,1.987l7.688-15.748c1.3-2.609-.934-5.813-4.166-5.813a3.714,3.714,0,0,0-3.469,2.1l-8.869,18.215a11.385,11.385,0,0,0,.141-1.83v-7.657c0-5.477-3.436-8.619-9.427-8.619S34.6,417.3,34.6,422.775v7.657c0,5.477,3.436,8.619,9.427,8.619,3.138,0,5.575-.862,7.184-2.469l-7.951,16.331a3.834,3.834,0,0,0,.208,3.749c1.8,2.92,6.134,2.588,7.374-.037L59.4,439.11q-.042.5-.043,1.029V447.8c0,5.477,3.436,8.618,9.428,8.618S78.21,453.272,78.21,447.8ZM50.781,430.432c0,1.469,0,5.941-6.75,5.941-4.542,0-6.749-1.944-6.749-5.941v-7.657c0-4,2.208-5.941,6.749-5.941,6.75,0,6.75,4.472,6.75,5.941Zm-2.355,25.048a1.664,1.664,0,0,1-2.676-.226,1.167,1.167,0,0,1-.084-1.156L64.6,415.2a1.055,1.055,0,0,1,1.054-.579c1.289,0,2.152,1.176,1.768,1.945l-.006.011C67.411,416.592,48.432,455.467,48.427,455.479ZM75.532,447.8c0,1.469,0,5.941-6.749,5.941-4.542,0-6.749-1.944-6.749-5.941v-7.657c0-4,2.208-5.941,6.749-5.941,6.749,0,6.749,4.471,6.749,5.941Z" transform="translate(-10.708 -9.996)"/>
          <path id="Trazado_210471" data-name="Trazado 210471" d="M46.473,421.941a3.634,3.634,0,0,0-3.982,3.927v7.657a3.635,3.635,0,0,0,3.982,3.928,3.7,3.7,0,0,0,4.035-3.928v-7.657A3.694,3.694,0,0,0,46.473,421.941Zm1.357,11.584c0,.829-.21,1.25-1.358,1.25-1.01,0-1.3-.28-1.3-1.25v-7.657c0-.97.293-1.25,1.3-1.25,1.148,0,1.358.421,1.358,1.25Z" transform="translate(-13.149 -13.089)"/>
          <path id="Trazado_210472" data-name="Trazado 210472" d="M82.315,447.084a3.634,3.634,0,0,0-3.981,3.928v7.657a3.633,3.633,0,0,0,3.981,3.927,3.7,3.7,0,0,0,4.035-3.927v-7.657A3.7,3.7,0,0,0,82.315,447.084Zm1.358,11.585c0,.829-.21,1.25-1.358,1.25-1.012,0-1.3-.28-1.3-1.25v-7.657c0-.97.292-1.25,1.3-1.25,1.148,0,1.358.421,1.358,1.25Z" transform="translate(-24.241 -20.869)"/>
          <path id="Trazado_210473" data-name="Trazado 210473" d="M91.229,445.395a45.2,45.2,0,0,0,3.162-13.725,1.339,1.339,0,0,0-2.672-.188,42.488,42.488,0,0,1-2.295,11.112l-3.029-4.7A38.917,38.917,0,1,0,73.8,458.019v5.39a42.75,42.75,0,0,1-21.966,7.956,1.339,1.339,0,0,0,.093,2.674c.032,0,.063,0,.1,0A45.382,45.382,0,0,0,73.8,466.657v5.034a2.463,2.463,0,0,0,2.46,2.46h8.693a2.463,2.463,0,0,0,2.46-2.46V453.663h4.627a2.46,2.46,0,0,0,2.068-3.792ZM73.8,454.412a35.926,35.926,0,1,1,10.54-19.7l-1.665-2.582a2.46,2.46,0,0,0-4.136,0L67.108,449.87a2.462,2.462,0,0,0,2.068,3.792H73.8Zm12.276-3.427a1.339,1.339,0,0,0-1.34,1.338v19.15H76.481v-19.15a1.338,1.338,0,0,0-1.339-1.338H69.575L80.61,433.86l11.035,17.126Z" transform="translate(-3.109 -3.109)"/>
          <path id="Trazado_210474" data-name="Trazado 210474" d="M42.481,470.926c.032,0,.063,0,.1,0a1.339,1.339,0,0,0,.093-2.674A43.02,43.02,0,1,1,88.61,422.314a1.339,1.339,0,0,0,2.672-.189,45.7,45.7,0,1,0-48.8,48.8Z" transform="translate(0 0)"/>
        </g>
      </g>
    </g>
  </g>
</svg>
