<svg xmlns="http://www.w3.org/2000/svg" xmlns:xlink="http://www.w3.org/1999/xlink" width="108.241" height="74.257" viewBox="0 0 108.241 74.257">
  <defs>
    <linearGradient id="linear-gradient" y1="0.5" x2="1" y2="0.5" gradientUnits="objectBoundingBox">
      <stop offset="0" stop-color="#1d32b5"/>
      <stop offset="0.538" stop-color="#6532d0"/>
      <stop offset="1" stop-color="#a033e6"/>
    </linearGradient>
    <linearGradient id="linear-gradient-2" x1="0.075" y1="0.666" x2="0.64" y2="0.296" gradientUnits="objectBoundingBox">
      <stop offset="0" stop-color="#326abf"/>
      <stop offset="0.834" stop-color="#08a3a5"/>
      <stop offset="1" stop-color="#00b0a0"/>
    </linearGradient>
    <linearGradient id="linear-gradient-3" x1="0.04" y1="0.751" x2="1.006" y2="0.426" xlink:href="#linear-gradient-2"/>
    <linearGradient id="linear-gradient-4" y1="0.5" x2="1" y2="0.5" gradientUnits="objectBoundingBox">
      <stop offset="0" stop-color="#6ea6fa"/>
      <stop offset="0.951" stop-color="#37dfd5"/>
      <stop offset="1" stop-color="#35e3d4"/>
    </linearGradient>
    <clipPath id="clip-path">
      <path id="Trazado_201814" data-name="Trazado 201814" d="M941.359,778.718c.082-8.058-5.195-16.131-15.844-22.279a57.184,57.184,0,0,0-6.161-3.063l-13.338,10.451c.1.043.2.092.3.136l-.3.232c.1.043.2.092.3.136l-.3.232c.1.043.2.092.3.136l-.3.232c.1.043.2.092.3.136l-.3.231c.1.043.2.093.3.136l-.3.231c.1.043.2.093.3.136l-.3.232c.1.043.2.092.3.136l-.3.232c.1.043.2.092.3.136l-.3.232c.1.043.2.092.3.136l-.3.232c.1.043.2.092.3.136l-.3.232c.1.043.2.092.3.136l-.3.231c.1.043.2.092.3.136l-.3.231c.1.044.2.093.3.136l-.3.232c.1.043.2.092.3.136l-.3.232c.1.043.2.092.3.136l-.3.232c.1.043.2.092.3.136l-.3.232c.1.043.2.092.3.136l-.3.231c.1.043.2.092.3.136l-.3.231c.1.044.2.092.3.136l-.3.232c.1.043.2.092.3.136l-.3.232c.1.043.2.092.3.136l-.3.232c.1.043.2.092.3.136l-.3.232c.1.043.2.092.3.136l-.3.231c.1.043.2.092.3.136l-.3.231c.1.043.2.092.3.136l-.3.231c.1.043.2.093.3.136l-.3.232c.1.043.2.092.3.136l-.3.232c.1.043.2.092.3.136l-.3.232c.1.043.2.092.3.136l-.3.232c.1.043.2.092.3.136l-.3.232c.1.043.2.092.3.136l-.3.231c.1.043.2.093.3.136l-.3.231a33.59,33.59,0,0,1,3.6,1.791,20.365,20.365,0,0,1,7.583,7.035,20.36,20.36,0,0,1-7.583,7.035,41.726,41.726,0,0,1-15.175,4.871l.14.345c-.047.007-.093.016-.14.022l.14.345-.14.022.14.345-.14.022.14.346-.14.021.14.346c-.047.006-.093.016-.14.021l.14.346c-.047.007-.093.016-.14.021l.14.346-.14.022.14.346-.14.022.14.345c-.047.007-.093.016-.14.022l.14.346c-.047.006-.093.015-.14.021l.14.346-.14.021.14.346c-.047.007-.093.016-.14.021l.14.346c-.047.007-.093.016-.14.021l.14.346-.14.022.14.345-.14.022.14.345-.14.022.14.346c-.047.006-.093.015-.14.021l.14.346-.14.021.14.346c-.047.006-.093.016-.14.021l.14.346c-.047.006-.093.016-.14.021l.14.346c-.047.007-.093.016-.14.022l.14.345-.14.022.14.345-.14.022.14.346-.14.021.14.346-.14.021.14.346-.14.021.14.346c-.047.006-.093.016-.14.022l.14.346-.14.022.14.345c-.047.007-.093.016-.14.022l.14.345c-.047.007-.093.016-.14.022l.14.346-.14.021.14.346-.14.021,5.116,12.643a71.356,71.356,0,0,0,25.955-8.335c10.649-6.148,15.926-14.221,15.844-22.279,0-.123,0-.245,0-.368s0-.245,0-.368,0-.245,0-.368,0-.245,0-.368,0-.245,0-.368,0-.245,0-.367,0-.245,0-.368,0-.245,0-.367,0-.245,0-.368,0-.245,0-.368,0-.245,0-.368,0-.245,0-.367,0-.245,0-.368,0-.245,0-.368,0-.245,0-.368,0-.245,0-.367,0-.245,0-.368,0-.245,0-.367,0-.245,0-.368,0-.245,0-.367,0-.245,0-.368,0-.245,0-.368,0-.245,0-.368,0-.245,0-.368,0-.245,0-.368,0-.245,0-.368,0-.245,0-.368,0-.245,0-.367,0-.245,0-.368,0-.245,0-.368S941.361,778.841,941.359,778.718Z" transform="translate(-894.444 -753.376)" fill="url(#linear-gradient)"/>
    </clipPath>
    <linearGradient id="linear-gradient-7" y1="0.5" x2="1" y2="0.5" gradientUnits="objectBoundingBox">
      <stop offset="0" stop-color="#4b64f2"/>
      <stop offset="0.51" stop-color="#8b67f8"/>
      <stop offset="1" stop-color="#c66bff"/>
    </linearGradient>
    <linearGradient id="linear-gradient-8" x1="0.502" y1="0.974" x2="0.497" y2="0.046" gradientUnits="objectBoundingBox">
      <stop offset="0.004" stop-color="#ba3e00"/>
      <stop offset="1" stop-color="#e68a00"/>
    </linearGradient>
    <linearGradient id="linear-gradient-9" x1="0.505" y1="0.971" x2="0.495" y2="0.026" xlink:href="#linear-gradient-8"/>
    <linearGradient id="linear-gradient-10" x1="0.375" y1="-0.196" x2="0.626" y2="0.898" gradientUnits="objectBoundingBox">
      <stop offset="0.004" stop-color="#ff8219"/>
      <stop offset="1" stop-color="#ffd942"/>
    </linearGradient>
    <linearGradient id="linear-gradient-11" x1="0.505" y1="0.961" x2="0.491" y2="-0.039" gradientUnits="objectBoundingBox">
      <stop offset="0" stop-color="#018000"/>
      <stop offset="0.223" stop-color="#1c8f00"/>
      <stop offset="0.55" stop-color="#3da200"/>
      <stop offset="0.82" stop-color="#52ae00"/>
      <stop offset="1" stop-color="#5ab300"/>
    </linearGradient>
    <linearGradient id="linear-gradient-12" x1="0.516" y1="0.95" x2="0.48" y2="-0.043" xlink:href="#linear-gradient-11"/>
    <linearGradient id="linear-gradient-13" x1="0" y1="0.5" x2="1" y2="0.5" xlink:href="#linear-gradient-11"/>
    <linearGradient id="linear-gradient-14" x1="0.838" y1="0.217" x2="0.034" y2="0.928" gradientUnits="objectBoundingBox">
      <stop offset="0.004" stop-color="#b51a05"/>
      <stop offset="0.996" stop-color="#e07400"/>
    </linearGradient>
    <linearGradient id="linear-gradient-15" x1="0.169" y1="-0.059" x2="0.724" y2="0.935" gradientUnits="objectBoundingBox">
      <stop offset="0.004" stop-color="#d11515"/>
      <stop offset="1" stop-color="#ffc342"/>
    </linearGradient>
    <linearGradient id="linear-gradient-16" x1="0.5" x2="0.5" y2="1" gradientUnits="objectBoundingBox">
      <stop offset="0" stop-color="#12ad11"/>
      <stop offset="0.106" stop-color="#21b213"/>
      <stop offset="0.525" stop-color="#5bc51c"/>
      <stop offset="0.835" stop-color="#7fd121"/>
      <stop offset="1" stop-color="#8dd624"/>
    </linearGradient>
    <linearGradient id="linear-gradient-18" x1="0.5" y1="0" x2="0.5" y2="1" xlink:href="#linear-gradient-11"/>
  </defs>
  <g id="Grupo_158015" data-name="Grupo 158015" transform="translate(-800.017 -744)">
    <g id="Grupo_150092" data-name="Grupo 150092" transform="translate(800.017 744)">
      <g id="Grupo_150066" data-name="Grupo 150066" transform="translate(16.511 2.27)">
        <path id="Trazado_201806" data-name="Trazado 201806" d="M851.191,759.533,842.763,747.5a66.665,66.665,0,0,0-17.32,6.51l15.627,9.335A38.974,38.974,0,0,1,851.191,759.533Z" transform="translate(-825.443 -747.496)" fill="#787878"/>
      </g>
      <g id="Grupo_150067" data-name="Grupo 150067" transform="translate(33.831 0.145)">
        <path id="Trazado_201807" data-name="Trazado 201807" d="M869.348,757.143l-2.172-12.92a88.122,88.122,0,0,0-15.061,2.125l8.428,12.037A51.52,51.52,0,0,1,869.348,757.143Z" transform="translate(-852.115 -744.223)" fill="#b0b0b0"/>
      </g>
      <g id="Grupo_150068" data-name="Grupo 150068" transform="translate(48.892)">
        <path id="Trazado_201808" data-name="Trazado 201808" d="M899.307,760.539l13.338-10.451c-10.985-4.686-24.343-6.667-37.336-5.944l2.172,12.92A49.816,49.816,0,0,1,899.307,760.539Z" transform="translate(-875.309 -744)" fill="#979797"/>
      </g>
      <g id="Grupo_150072" data-name="Grupo 150072" transform="translate(48.892)">
        <g id="Grupo_150069" data-name="Grupo 150069" transform="translate(0 11.764)">
          <path id="Trazado_201809" data-name="Trazado 201809" d="M899.307,778.656,912.645,768.2c-10.985-4.685-24.343-6.667-37.336-5.943l2.172,12.919A49.833,49.833,0,0,1,899.307,778.656Z" transform="translate(-875.309 -762.116)" fill="url(#linear-gradient-2)"/>
        </g>
        <g id="Grupo_150070" data-name="Grupo 150070" transform="translate(2.171 9.43)">
          <path id="Trazado_201810" data-name="Trazado 201810" d="M900.48,765.631v11.764l-13.789-6.989-8.038,3.514V762.156s12.99-3.635,13.26-3.635S900.48,765.631,900.48,765.631Z" transform="translate(-878.653 -758.521)" fill="url(#linear-gradient-3)"/>
        </g>
        <g id="Grupo_150071" data-name="Grupo 150071">
          <path id="Trazado_201811" data-name="Trazado 201811" d="M899.307,760.539l13.338-10.451c-10.985-4.686-24.343-6.667-37.336-5.944l2.172,12.92A49.816,49.816,0,0,1,899.307,760.539Z" transform="translate(-875.309 -744)" fill="url(#linear-gradient-4)"/>
        </g>
      </g>
      <g id="Grupo_150076" data-name="Grupo 150076" transform="translate(61.318 6.089)">
        <g id="Grupo_150074" data-name="Grupo 150074">
          <path id="Trazado_201812" data-name="Trazado 201812" d="M941.359,778.718c.082-8.058-5.195-16.131-15.844-22.279a57.184,57.184,0,0,0-6.161-3.063l-13.338,10.451c.1.043.2.092.3.136l-.3.232c.1.043.2.092.3.136l-.3.232c.1.043.2.092.3.136l-.3.232c.1.043.2.092.3.136l-.3.231c.1.043.2.093.3.136l-.3.231c.1.043.2.093.3.136l-.3.232c.1.043.2.092.3.136l-.3.232c.1.043.2.092.3.136l-.3.232c.1.043.2.092.3.136l-.3.232c.1.043.2.092.3.136l-.3.232c.1.043.2.092.3.136l-.3.231c.1.043.2.092.3.136l-.3.231c.1.044.2.093.3.136l-.3.232c.1.043.2.092.3.136l-.3.232c.1.043.2.092.3.136l-.3.232c.1.043.2.092.3.136l-.3.232c.1.043.2.092.3.136l-.3.231c.1.043.2.092.3.136l-.3.231c.1.044.2.092.3.136l-.3.232c.1.043.2.092.3.136l-.3.232c.1.043.2.092.3.136l-.3.232c.1.043.2.092.3.136l-.3.232c.1.043.2.092.3.136l-.3.231c.1.043.2.092.3.136l-.3.231c.1.043.2.092.3.136l-.3.231c.1.043.2.093.3.136l-.3.232c.1.043.2.092.3.136l-.3.232c.1.043.2.092.3.136l-.3.232c.1.043.2.092.3.136l-.3.232c.1.043.2.092.3.136l-.3.232c.1.043.2.092.3.136l-.3.231c.1.043.2.093.3.136l-.3.231a33.59,33.59,0,0,1,3.6,1.791,20.365,20.365,0,0,1,7.583,7.035,20.36,20.36,0,0,1-7.583,7.035,41.726,41.726,0,0,1-15.175,4.871l.14.345c-.047.007-.093.016-.14.022l.14.345-.14.022.14.345-.14.022.14.346-.14.021.14.346c-.047.006-.093.016-.14.021l.14.346c-.047.007-.093.016-.14.021l.14.346-.14.022.14.346-.14.022.14.345c-.047.007-.093.016-.14.022l.14.346c-.047.006-.093.015-.14.021l.14.346-.14.021.14.346c-.047.007-.093.016-.14.021l.14.346c-.047.007-.093.016-.14.021l.14.346-.14.022.14.345-.14.022.14.345-.14.022.14.346c-.047.006-.093.015-.14.021l.14.346-.14.021.14.346c-.047.006-.093.016-.14.021l.14.346c-.047.006-.093.016-.14.021l.14.346c-.047.007-.093.016-.14.022l.14.345-.14.022.14.345-.14.022.14.346-.14.021.14.346-.14.021.14.346-.14.021.14.346c-.047.006-.093.016-.14.022l.14.346-.14.022.14.345c-.047.007-.093.016-.14.022l.14.345c-.047.007-.093.016-.14.022l.14.346-.14.021.14.346-.14.021,5.116,12.643a71.356,71.356,0,0,0,25.955-8.335c10.649-6.148,15.926-14.221,15.844-22.279,0-.123,0-.245,0-.368s0-.245,0-.368,0-.245,0-.368,0-.245,0-.368,0-.245,0-.368,0-.245,0-.367,0-.245,0-.368,0-.245,0-.367,0-.245,0-.368,0-.245,0-.368,0-.245,0-.368,0-.245,0-.367,0-.245,0-.368,0-.245,0-.368,0-.245,0-.368,0-.245,0-.367,0-.245,0-.368,0-.245,0-.367,0-.245,0-.368,0-.245,0-.367,0-.245,0-.368,0-.245,0-.368,0-.245,0-.368,0-.245,0-.368,0-.245,0-.368,0-.245,0-.368,0-.245,0-.368,0-.245,0-.367,0-.245,0-.368,0-.245,0-.368S941.361,778.841,941.359,778.718Z" transform="translate(-894.444 -753.376)" fill="url(#linear-gradient)"/>
          <g id="Grupo_150073" data-name="Grupo 150073" clip-path="url(#clip-path)">
            <path id="Trazado_201813" data-name="Trazado 201813" d="M912.265,769.47v11.764l15.113,17.62s5.582-20.888,5.582-21.248-6.213-6.842-6.213-6.842Z" transform="translate(-900.693 -759.019)" fill="url(#linear-gradient)"/>
          </g>
        </g>
        <path id="Trazado_201815" data-name="Trazado 201815" d="M912.265,769.371v11.764l2.425.959s.608-9.335.568-9.457-1.3-3.449-1.3-3.449Z" transform="translate(-900.693 -758.92)" fill="#3232bd"/>
        <g id="Grupo_150075" data-name="Grupo 150075">
          <path id="Trazado_201816" data-name="Trazado 201816" d="M906.016,763.827a33.473,33.473,0,0,1,3.6,1.79c12.356,7.134,12.356,18.7,0,25.835a41.738,41.738,0,0,1-15.175,4.87l5.116,12.642a71.356,71.356,0,0,0,25.955-8.335c21.136-12.2,21.136-31.988,0-44.191a57.184,57.184,0,0,0-6.161-3.063Z" transform="translate(-894.444 -753.376)" fill="url(#linear-gradient-7)"/>
        </g>
      </g>
      <g id="Grupo_150080" data-name="Grupo 150080" transform="translate(33.831 0.145)">
        <g id="Grupo_150077" data-name="Grupo 150077" transform="translate(0 11.765)">
          <path id="Trazado_201817" data-name="Trazado 201817" d="M869.348,775.259l-2.172-12.919a88.176,88.176,0,0,0-15.061,2.125l8.428,12.037A51.587,51.587,0,0,1,869.348,775.259Z" transform="translate(-852.115 -762.34)" fill="url(#linear-gradient-8)"/>
        </g>
        <g id="Grupo_150078" data-name="Grupo 150078" transform="translate(8.428 12.016)">
          <path id="Trazado_201818" data-name="Trazado 201818" d="M873.9,763.631V775.4l-5.947-1.564-2.858,2.806V764.873l4.3-2.146Z" transform="translate(-865.094 -762.727)" fill="url(#linear-gradient-9)"/>
        </g>
        <g id="Grupo_150079" data-name="Grupo 150079">
          <path id="Trazado_201819" data-name="Trazado 201819" d="M869.348,757.143l-2.172-12.92a88.122,88.122,0,0,0-15.061,2.125l8.428,12.037A51.52,51.52,0,0,1,869.348,757.143Z" transform="translate(-852.115 -744.223)" fill="url(#linear-gradient-10)"/>
        </g>
      </g>
      <g id="Grupo_150084" data-name="Grupo 150084" transform="translate(16.511 2.27)">
        <g id="Grupo_150081" data-name="Grupo 150081" transform="translate(0 11.764)">
          <path id="Trazado_201820" data-name="Trazado 201820" d="M851.191,777.649l-8.428-12.037a66.709,66.709,0,0,0-17.32,6.51l15.627,9.335A38.951,38.951,0,0,1,851.191,777.649Z" transform="translate(-825.443 -765.612)" fill="url(#linear-gradient-11)"/>
        </g>
        <g id="Grupo_150082" data-name="Grupo 150082" transform="translate(15.627 11.661)">
          <path id="Trazado_201821" data-name="Trazado 201821" d="M859.629,765.829v11.764l-7.556-.391-2.565,4.2V769.638l4.455-4.184Z" transform="translate(-849.508 -765.454)" fill="url(#linear-gradient-12)"/>
        </g>
        <g id="Grupo_150083" data-name="Grupo 150083">
          <path id="Trazado_201822" data-name="Trazado 201822" d="M851.191,759.533,842.763,747.5a66.665,66.665,0,0,0-17.32,6.51l15.627,9.335A38.974,38.974,0,0,1,851.191,759.533Z" transform="translate(-825.443 -747.496)" fill="url(#linear-gradient-13)"/>
        </g>
      </g>
      <g id="Grupo_150086" data-name="Grupo 150086" transform="translate(0 8.78)">
        <path id="Trazado_201823" data-name="Trazado 201823" d="M831.835,767.032c.107-.06.214-.117.321-.176l-15.627-9.335c-.221.123-.442.245-.66.371-10.522,6.075-15.8,14.03-15.843,21.992,0,.123,0,.245,0,.368s0,.245,0,.368,0,.245,0,.368,0,.245,0,.368,0,.245,0,.368,0,.245,0,.367,0,.245,0,.368,0,.245,0,.368,0,.245,0,.368,0,.245,0,.367,0,.245,0,.368,0,.245,0,.368,0,.245,0,.368,0,.245,0,.368,0,.245,0,.368,0,.245,0,.368,0,.245,0,.368,0,.245,0,.367,0,.245,0,.368,0,.245,0,.368,0,.245,0,.368,0,.245,0,.368,0,.245,0,.368,0,.245,0,.368,0,.245,0,.368,0,.245,0,.367,0,.245,0,.368,0,.245,0,.368,0,.245,0,.368,0,.245,0,.367,0,.245,0,.368a20.2,20.2,0,0,0,3.9,12.156l20.856-4.854c-.073-.106-.13-.214-.2-.321l.2-.047c-.073-.106-.13-.214-.2-.321l.2-.047c-.073-.106-.13-.214-.2-.321l.2-.047c-.073-.106-.13-.214-.2-.321l.2-.047c-.073-.106-.13-.215-.2-.321l.2-.046c-.073-.106-.13-.215-.2-.321l.2-.046c-.073-.107-.13-.215-.2-.321l.2-.047c-.073-.106-.13-.214-.2-.321l.2-.047c-.073-.106-.13-.214-.2-.321l.2-.047c-.073-.106-.13-.214-.2-.321l.2-.047c-.073-.106-.13-.214-.2-.321l.2-.047c-.073-.106-.13-.214-.2-.321l.2-.046c-.073-.106-.13-.215-.2-.321l.2-.047c-.073-.105-.13-.214-.2-.321l.2-.047c-.073-.106-.13-.214-.2-.321l.2-.047c-.073-.106-.13-.214-.2-.321l.2-.047c-.073-.106-.13-.214-.2-.321l.2-.047c-.073-.106-.13-.214-.2-.321l.2-.047c-.073-.106-.13-.215-.2-.321l.2-.047c-.073-.105-.13-.214-.2-.321l.2-.047c-.073-.105-.13-.214-.2-.321l.2-.047c-.073-.106-.13-.214-.2-.321l.2-.047c-.073-.106-.13-.214-.2-.321l.2-.047c-.073-.106-.13-.214-.2-.321l.2-.047c-.073-.106-.13-.215-.2-.321l.2-.047c-.073-.106-.13-.215-.2-.321l.2-.046c-.073-.106-.13-.215-.2-.321l.2-.047c-.073-.106-.13-.214-.2-.321l.2-.047c-.073-.106-.13-.214-.2-.321l.2-.047c-.073-.106-.13-.214-.2-.321l.2-.047c-.073-.106-.13-.214-.2-.321l.2-.047c-.073-.106-.13-.215-.2-.321l.2-.046c-.219-.315-.408-.635-.6-.955a20.352,20.352,0,0,1,7.575-7.029c.128-.074.262-.142.391-.215l-.321-.192c.107-.059.214-.116.321-.176l-.321-.192.321-.176-.321-.192.321-.176-.321-.192.321-.176-.321-.192c.107-.06.214-.117.321-.176l-.321-.192c.107-.06.214-.117.321-.177l-.321-.192c.107-.059.214-.116.321-.176l-.321-.192c.107-.059.214-.116.321-.176l-.321-.192.321-.176-.321-.192.321-.176-.321-.192.321-.176-.321-.192c.107-.06.214-.117.321-.177l-.321-.191c.107-.06.214-.117.321-.177l-.321-.192c.107-.059.214-.116.321-.176l-.321-.192.321-.176-.321-.192.321-.176-.321-.192.321-.176-.321-.192.321-.176-.321-.192c.107-.06.214-.117.321-.177l-.321-.192c.107-.059.214-.116.321-.176l-.321-.192c.107-.059.214-.116.321-.176l-.321-.192.321-.176-.321-.192.321-.176-.321-.192.321-.176-.321-.192.321-.176-.321-.192c.107-.06.214-.117.321-.177l-.321-.192c.107-.059.214-.116.321-.176l-.321-.192c.107-.059.214-.116.321-.176l-.321-.192.321-.176-.321-.192.321-.176-.321-.192.321-.176Z" transform="translate(-800.017 -757.521)" fill="url(#linear-gradient-14)"/>
        <path id="Trazado_201824" data-name="Trazado 201824" d="M848.388,771.9v11.764l-2.075.722,1.421-11.648Z" transform="translate(-816.25 -762.562)" fill="#b51a05"/>
        <g id="Grupo_150085" data-name="Grupo 150085">
          <path id="Trazado_201825" data-name="Trazado 201825" d="M831.764,767.071c.128-.074.262-.142.391-.214l-15.627-9.335c-.221.123-.442.245-.66.371-15.817,9.133-19.8,22.511-11.939,33.78l20.856-4.853C820.192,780.231,822.517,772.41,831.764,767.071Z" transform="translate(-800.017 -757.521)" fill="url(#linear-gradient-15)"/>
        </g>
      </g>
      <g id="Grupo_150091" data-name="Grupo 150091" transform="translate(3.912 38.079)">
        <g id="Grupo_150087" data-name="Grupo 150087" transform="translate(0 11.764)">
          <path id="Trazado_201826" data-name="Trazado 201826" d="M833.876,826.841a21.387,21.387,0,0,1-6.979-6.086l-20.856,4.854A36.6,36.6,0,0,0,817.98,836.02c13.722,7.923,32.979,10.7,50.584,8.335l-5.116-12.643C853.155,833.094,841.9,831.473,833.876,826.841Z" transform="translate(-806.041 -820.755)" fill="url(#linear-gradient-16)"/>
        </g>
        <g id="Grupo_150088" data-name="Grupo 150088" transform="translate(0)">
          <path id="Trazado_201827" data-name="Trazado 201827" d="M833.876,808.726a21.4,21.4,0,0,1-6.979-6.087l-20.856,4.853A36.584,36.584,0,0,0,817.98,817.9c13.722,7.923,32.979,10.7,50.584,8.335L863.447,813.6C853.155,814.978,841.9,813.357,833.876,808.726Z" transform="translate(-806.041 -802.639)" fill="#75b62f"/>
        </g>
        <g id="Grupo_150089" data-name="Grupo 150089" transform="translate(0 4.854)">
          <path id="Trazado_201828" data-name="Trazado 201828" d="M806.041,810.114v11.764l62.523,18.745V828.859Z" transform="translate(-806.041 -810.114)" fill="url(#linear-gradient-16)"/>
        </g>
        <g id="Grupo_150090" data-name="Grupo 150090" transform="translate(0)">
          <path id="Trazado_201829" data-name="Trazado 201829" d="M833.876,808.726a21.4,21.4,0,0,1-6.979-6.087l-20.856,4.853A36.584,36.584,0,0,0,817.98,817.9c13.722,7.923,32.979,10.7,50.584,8.335L863.447,813.6C853.155,814.978,841.9,813.357,833.876,808.726Z" transform="translate(-806.041 -802.639)" fill="url(#linear-gradient-18)"/>
        </g>
      </g>
    </g>
  </g>
</svg>
