<svg xmlns="http://www.w3.org/2000/svg" xmlns:xlink="http://www.w3.org/1999/xlink" width="125" height="106.078" viewBox="0 0 125 106.078">
  <defs>
    <linearGradient id="linear-gradient" x1="0.497" y1="0.718" x2="0.508" y2="-0.031" gradientUnits="objectBoundingBox">
      <stop offset="0" stop-color="#db7800"/>
      <stop offset="0.996" stop-color="#cf5300"/>
    </linearGradient>
    <linearGradient id="linear-gradient-2" x1="0.5" x2="0.5" y2="1" gradientUnits="objectBoundingBox">
      <stop offset="0" stop-color="#018000"/>
      <stop offset="0.223" stop-color="#1c8f00"/>
      <stop offset="0.55" stop-color="#3da200"/>
      <stop offset="0.82" stop-color="#52ae00"/>
      <stop offset="1" stop-color="#5ab300"/>
    </linearGradient>
    <linearGradient id="linear-gradient-4" x1="0" y1="0.5" x2="1" y2="0.5" xlink:href="#linear-gradient-2"/>
    <linearGradient id="linear-gradient-8" x1="-0.03" y1="0.5" x2="9.296" y2="0.5" gradientUnits="objectBoundingBox">
      <stop offset="0.004" stop-color="#870071"/>
      <stop offset="0.809" stop-color="#c20948"/>
      <stop offset="1" stop-color="#d10c3f"/>
    </linearGradient>
    <linearGradient id="linear-gradient-9" x1="-8.004" y1="0.5" x2="0.999" y2="0.5" xlink:href="#linear-gradient-8"/>
    <clipPath id="clip-path">
      <path id="Trazado_201771" data-name="Trazado 201771" d="M553.391,652.692l.1-.055-29.608-17.095-30.047,17.348.1.055-.1.055.1.055-.1.055.1.055-.1.055.1.055-.1.055.1.055-.1.055.1.055-.1.055.1.055-.1.055.1.055-.1.055.1.055-.1.055.1.055-.1.055.1.055-.1.055.1.055-.1.055.1.055-.1.055.1.055-.1.055.1.055-.1.055.1.055-.1.055.1.055-.1.055.1.055-.1.055.1.055-.1.055.1.055-.1.055.1.055-.1.055.1.055-.1.055.1.055-.1.055.1.055-.1.055.1.055-.1.055.1.055-.1.055.1.055-.1.055.1.055-.1.055.1.055-.1.055.1.055-.1.055.1.055-.1.055,9.338,5.392h0l.091.055c.058.034.117.069.173.1l.007.005c.165.1.317.21.459.318a9.119,9.119,0,0,1-2.349.667c-2.1.354-3.849,1.337-4.354,2.446a1.338,1.338,0,0,0-.13.615,1.045,1.045,0,0,0,0,.11,1.043,1.043,0,0,0,0,.11,1.045,1.045,0,0,0,0,.11,1.037,1.037,0,0,0,0,.109,1.045,1.045,0,0,0,0,.11,1.044,1.044,0,0,0,0,.11,1.045,1.045,0,0,0,0,.11,1.045,1.045,0,0,0,0,.11,1.044,1.044,0,0,0,0,.11,1.044,1.044,0,0,0,0,.11,1.045,1.045,0,0,0,0,.11,1.045,1.045,0,0,0,0,.11,1.035,1.035,0,0,0,0,.109,1.046,1.046,0,0,0,0,.11,1.044,1.044,0,0,0,0,.11,1.046,1.046,0,0,0,0,.11,1.042,1.042,0,0,0,0,.11,1.046,1.046,0,0,0,0,.11,1.044,1.044,0,0,0,0,.11,1.046,1.046,0,0,0,0,.11,1.042,1.042,0,0,0,0,.11,1.046,1.046,0,0,0,0,.11,1.035,1.035,0,0,0,0,.109,1.045,1.045,0,0,0,0,.11,1.045,1.045,0,0,0,0,.11,1.045,1.045,0,0,0,0,.11,1.044,1.044,0,0,0,0,.11,1.044,1.044,0,0,0,0,.11,1.044,1.044,0,0,0,0,.11,1.046,1.046,0,0,0,0,.11,1.283,1.283,0,0,0,.772,1.175,10.422,10.422,0,0,0,.93.491,5.847,5.847,0,0,0,3.442.6,3.946,3.946,0,0,0,.671-.188l.035-.013.038-.016.094-.038.008,0a4.011,4.011,0,0,0,.6-.324l.012-.008c.071-.047.141-.1.207-.146l0,0c.034-.026.068-.052.1-.078a3.4,3.4,0,0,0,1.18-1.711c.013-.051.027-.1.041-.15a3.643,3.643,0,0,1,1.282-1.95,4.138,4.138,0,0,1,1.869-.753,5.266,5.266,0,0,1,3.331.535l11.749,6.783,11.57-6.68a.7.7,0,0,0,.428-.649.452.452,0,0,0,0-.11.452.452,0,0,0,0-.11.452.452,0,0,0,0-.11.451.451,0,0,0,0-.11.449.449,0,0,0,0-.109.452.452,0,0,0,0-.11.452.452,0,0,0,0-.11.452.452,0,0,0,0-.11.452.452,0,0,0,0-.11.452.452,0,0,0,0-.11.452.452,0,0,0,0-.11.452.452,0,0,0,0-.11.452.452,0,0,0,0-.11.449.449,0,0,0,0-.109.452.452,0,0,0,0-.11.452.452,0,0,0,0-.11.452.452,0,0,0,0-.11.451.451,0,0,0,0-.11.452.452,0,0,0,0-.11.452.452,0,0,0,0-.11.452.452,0,0,0,0-.11.453.453,0,0,0,0-.11.452.452,0,0,0,0-.11.449.449,0,0,0,0-.109.451.451,0,0,0,0-.11.453.453,0,0,0,0-.11.452.452,0,0,0,0-.11.452.452,0,0,0,0-.11.451.451,0,0,0,0-.11.453.453,0,0,0,0-.11.485.485,0,0,0-.125-.388l0,0,0,0c-.572-.651-1.141-.678-2.392-.592l-.26.019a7.863,7.863,0,0,1-4.446-.6,3.469,3.469,0,0,1-.621-.416c.064-.068.13-.136.2-.2l0,0c.07-.066.144-.132.221-.2l.066-.055c.059-.049.119-.1.182-.145l.079-.06q.1-.074.2-.147l.067-.047c.095-.064.193-.128.295-.191l.011-.007c.081-.05.163-.1.247-.148l.051-.028.1-.054c.078-.043.157-.086.238-.128l.114-.059c.082-.042.167-.084.252-.125l.108-.052c.122-.057.247-.114.375-.17a7.984,7.984,0,0,1,4.969-.483c2.091.471,3.881,1.843,4.354,3.335l.011.035c0,.005,0,.01.005.015a1.382,1.382,0,0,0,1.137.73,2.547,2.547,0,0,0,1.673-.238l10.941-6.317-.1-.055.1-.055-.1-.055.1-.055-.1-.055.1-.055-.1-.055.1-.055-.1-.055.1-.055-.1-.055.1-.055-.1-.055.1-.055-.1-.055.1-.055-.1-.055.1-.055-.1-.055.1-.055-.1-.055.1-.055-.1-.055.1-.055-.1-.055.1-.055-.1-.055.1-.055-.1-.055.1-.055-.1-.055.1-.055-.1-.055.1-.055-.1-.055.1-.055-.1-.055.1-.055-.1-.055.1-.055-.1-.055.1-.055-.1-.055.1-.055-.1-.055.1-.055-.1-.055.1-.055-.1-.055.1-.055-.1-.055.1-.055-.1-.055.1-.055-.1-.055.1-.055-.1-.055.1-.055-.1-.055.1-.055Z" transform="translate(-493.832 -635.543)" fill="#80880c"/>
    </clipPath>
    <linearGradient id="linear-gradient-10" x1="-12.807" y1="0.5" x2="6.957" y2="0.5" xlink:href="#linear-gradient-8"/>
    <clipPath id="clip-path-2">
      <path id="Trazado_201798" data-name="Trazado 201798" d="M553.476,787l.1-.055-10.783-6.226a4.815,4.815,0,0,1-.5-.33q.132-.08.279-.153a13.743,13.743,0,0,1,3.485-.884c2.409-.41,3.884-.713,3.862-1.729,0-.019,0-.038,0-.057s0-.034,0-.052,0-.038,0-.057,0-.034,0-.052,0-.038,0-.057,0-.034,0-.052,0-.038,0-.057,0-.035,0-.053,0-.038,0-.057,0-.034,0-.053,0-.038,0-.057,0-.034,0-.053,0-.038,0-.057,0-.034,0-.052,0-.038,0-.057,0-.034,0-.052,0-.038,0-.057,0-.034,0-.052,0-.038,0-.057,0-.034,0-.052,0-.038,0-.057,0-.034,0-.052,0-.038,0-.057,0-.034,0-.052,0-.038,0-.057,0-.034,0-.053,0-.038,0-.057,0-.035,0-.053,0-.038,0-.057,0-.034,0-.053,0-.038,0-.057,0-.034,0-.052,0-.038,0-.057,0-.034,0-.052,0-.038,0-.057,0-.034,0-.052,0-.038,0-.057,0-.034,0-.052,0-.038,0-.057,0-.034,0-.052,0-.038,0-.057,0-.034,0-.052,0-.038,0-.057,0-.035,0-.053,0-.038,0-.057,0-.034,0-.053,0-.038,0-.057,0-.034,0-.053,0-.038,0-.057,0-.034,0-.053,0-.038,0-.057,0-.034,0-.052,0-.038,0-.057,0-.034,0-.052,0-.038,0-.057,0-.034,0-.052,0-.038,0-.057,0-.034,0-.052,0-.038,0-.057,0-.034,0-.052,0-.038,0-.057,0-.034,0-.052a3.066,3.066,0,0,0-2.266-2.621,6.256,6.256,0,0,0-1.167-.328,7.032,7.032,0,0,0-2.734.048,3.928,3.928,0,0,0-.841.268q-.081.039-.151.081a1.587,1.587,0,0,0-.721,1.179c-.02.087-.039.178-.059.274a3.994,3.994,0,0,1-1.478,2.618,3.132,3.132,0,0,1-.45.305,5.178,5.178,0,0,1-2.7.546,6.959,6.959,0,0,1-3.2-.862l-10.479-6.05-10.453,6.036c-1.82,1.051-1.719,1.355-1.714,1.368a.073.073,0,0,0,.017.021c-.028.059-.019.086-.017.089a.074.074,0,0,0,.017.021c-.028.059-.019.086-.017.089a.074.074,0,0,0,.017.021c-.028.059-.019.086-.017.089a.073.073,0,0,0,.017.021c-.028.059-.019.086-.017.089a.075.075,0,0,0,.017.021c-.028.059-.019.086-.017.089a.072.072,0,0,0,.017.021c-.028.059-.019.086-.017.089a.072.072,0,0,0,.017.021c-.028.059-.019.086-.017.089a.072.072,0,0,0,.017.021c-.028.059-.019.086-.017.089a.073.073,0,0,0,.017.021c-.028.059-.019.086-.017.089a.065.065,0,0,0,.017.021c-.028.059-.019.086-.017.089a.073.073,0,0,0,.017.02c-.028.059-.019.086-.017.089a.072.072,0,0,0,.017.021c-.028.059-.019.086-.017.089a.073.073,0,0,0,.017.02c-.028.059-.019.086-.017.089a.074.074,0,0,0,.017.021c-.028.059-.019.086-.017.089a.072.072,0,0,0,.017.021c-.028.059-.019.086-.017.089a.074.074,0,0,0,.017.021c-.028.059-.019.086-.017.089a.074.074,0,0,0,.017.021c-.028.059-.019.086-.017.089a.074.074,0,0,0,.017.021c-.028.059-.019.086-.017.089a.073.073,0,0,0,.017.021c-.028.059-.019.085-.017.089a.075.075,0,0,0,.017.021c-.028.059-.019.086-.017.089a.073.073,0,0,0,.017.021c-.028.059-.019.086-.017.089a.073.073,0,0,0,.017.021c-.028.059-.019.086-.017.089a.072.072,0,0,0,.017.021c-.028.059-.019.086-.017.089a.074.074,0,0,0,.017.021c-.028.059-.019.086-.017.089a.073.073,0,0,0,.017.021c-.028.059-.019.086-.017.089a.072.072,0,0,0,.017.021c-.028.059-.019.086-.017.089a.073.073,0,0,0,.017.02c-.028.059-.019.086-.017.089a.074.074,0,0,0,.017.021c-.028.059-.019.086-.017.089a.068.068,0,0,0,.017.021c-.028.059-.019.086-.017.089a.072.072,0,0,0,.017.021c-.028.059-.019.086-.017.089a.073.073,0,0,0,.017.021c-.028.059-.019.086-.017.089a6.907,6.907,0,0,0,1.826.476,11.452,11.452,0,0,1,4.668,1.6c-.043.031-.085.062-.131.093a5.176,5.176,0,0,1-.5.29l-.006,0c-.082.042-.166.082-.252.121l-.016.008c-.084.038-.17.074-.257.109l-.022.009c-.087.035-.175.067-.265.1l-.024.009c-.09.031-.182.061-.274.089l-.023.007c-.094.028-.188.056-.285.081l-.017,0c-.1.026-.2.05-.3.072h-.005q-.31.069-.629.116h-.007q-.152.022-.306.039l-.026,0q-.148.016-.3.027l-.037,0c-.1.007-.193.012-.29.016l-.041,0c-.1,0-.192.005-.287.005h-.042c-.1,0-.192,0-.288-.006l-.036,0c-.1,0-.195-.01-.291-.018l-.023,0c-.1-.009-.2-.019-.3-.031a3.9,3.9,0,0,1-3.163-1.792,3.076,3.076,0,0,0-2.707-1.661,4.31,4.31,0,0,0-2.379.51L494.209,786.7l.095.055-.095.055.095.055-.095.055.095.055-.095.055.095.055-.095.055.095.055-.095.055.095.055-.095.055.095.055-.095.055.095.055-.095.055.095.055-.095.055.095.055-.095.055.095.055-.095.055.095.055-.095.055.095.055-.095.055.095.055-.095.055.095.055-.095.055.095.055-.095.055.095.055-.095.055.095.055-.095.055.095.055-.095.055.095.055-.095.055.095.055-.095.055.095.055-.095.055.095.055-.095.055.095.055-.095.055.095.055-.095.055.095.055-.095.055.095.055-.095.055.095.055-.095.055.095.055-.095.055.095.055-.095.055.095.055-.095.055,29.9,17.263,29.462-17.01-.1-.055.1-.055-.1-.055.1-.055-.1-.055.1-.055-.1-.055.1-.055-.1-.055.1-.055-.1-.055.1-.055-.1-.055.1-.055-.1-.055.1-.055-.1-.055.1-.055-.1-.055.1-.055-.1-.055.1-.055-.1-.055.1-.055-.1-.055.1-.055-.1-.055.1-.055-.1-.055.1-.055-.1-.055.1-.055-.1-.055.1-.055-.1-.055.1-.055-.1-.055.1-.055-.1-.055.1-.055-.1-.055.1-.055-.1-.055.1-.055-.1-.055.1-.055-.1-.055.1-.055-.1-.055.1-.055-.1-.055.1-.055-.1-.055.1-.055-.1-.055.1-.055-.1-.055.1-.055-.1-.055.1-.055Z" transform="translate(-494.209 -769.686)" fill="url(#linear-gradient)"/>
    </clipPath>
    <linearGradient id="linear-gradient-12" x1="0.5" y1="0.775" x2="0.5" y2="0.025" gradientUnits="objectBoundingBox">
      <stop offset="0.004" stop-color="#de5900"/>
      <stop offset="1" stop-color="#f09502"/>
    </linearGradient>
    <linearGradient id="linear-gradient-13" x1="0.5" y1="2.619" x2="0.5" y2="-0.143" xlink:href="#linear-gradient-12"/>
    <linearGradient id="linear-gradient-14" x1="0.415" y1="5.566" x2="0.522" y2="-0.947" xlink:href="#linear-gradient"/>
    <linearGradient id="linear-gradient-15" x1="0" y1="0.5" x2="1" y2="0.5" xlink:href="#linear-gradient-12"/>
    <linearGradient id="linear-gradient-16" y1="0.5" x2="1" y2="0.5" gradientUnits="objectBoundingBox">
      <stop offset="0.004" stop-color="#ff8219"/>
      <stop offset="0.345" stop-color="#ffa429"/>
      <stop offset="0.774" stop-color="#ffca3b"/>
      <stop offset="1" stop-color="#ffd942"/>
    </linearGradient>
    <linearGradient id="linear-gradient-17" x1="0" y1="0.5" x2="1" y2="0.5" xlink:href="#linear-gradient"/>
  </defs>
  <g id="Grupo_158059" data-name="Grupo 158059" transform="translate(15167 11418.082)">
    <g id="Grupo_158014" data-name="Grupo 158014" transform="translate(-15561.035 -11992.264)">
      <g id="Grupo_150048" data-name="Grupo 150048" transform="translate(461.01 574.182)">
        <g id="Grupo_150047" data-name="Grupo 150047" transform="translate(0.921 0.911)">
          <path id="Trazado_201752" data-name="Trazado 201752" d="M590.462,620.656l-.711-.309,8.174-18.836a3,3,0,0,1,1.291-1.436l8.011-4.477.379.677-8.011,4.477a2.227,2.227,0,0,0-.958,1.066Z" transform="translate(-589.751 -595.598)" fill="#fcfdea"/>
        </g>
        <circle id="Elipse_12773" data-name="Elipse 12773" cx="1.26" cy="1.26" r="1.26" transform="translate(0 24.522)" fill="#fcfdea"/>
        <circle id="Elipse_12774" data-name="Elipse 12774" cx="1.26" cy="1.26" r="1.26" transform="translate(17.253 0)" fill="#fcfdea"/>
      </g>
      <g id="Grupo_150050" data-name="Grupo 150050" transform="translate(499.392 615.633)">
        <g id="Grupo_150049" data-name="Grupo 150049" transform="translate(0.921 0.943)">
          <path id="Trazado_201753" data-name="Trazado 201753" d="M689.462,727.656l-.711-.309,8.174-18.836a3,3,0,0,1,1.291-1.436l8.011-4.477.379.677-8.011,4.477a2.227,2.227,0,0,0-.958,1.066Z" transform="translate(-688.751 -702.598)" fill="#fcfdea"/>
        </g>
        <circle id="Elipse_12775" data-name="Elipse 12775" cx="1.26" cy="1.26" r="1.26" transform="translate(0 24.554)" fill="#fcfdea"/>
        <circle id="Elipse_12776" data-name="Elipse 12776" cx="1.26" cy="1.26" r="1.26" transform="translate(17.123 0)" fill="#fcfdea"/>
      </g>
      <g id="Grupo_150052" data-name="Grupo 150052" transform="translate(399.278 615.569)">
        <g id="Grupo_150051" data-name="Grupo 150051" transform="translate(1.062 1.008)">
          <path id="Trazado_201754" data-name="Trazado 201754" d="M448.032,727.656l-8.174-18.835a2.227,2.227,0,0,0-.958-1.069l-8.011-4.477.378-.677,8.011,4.477a3,3,0,0,1,1.292,1.439l8.173,18.834Z" transform="translate(-430.888 -702.598)" fill="#fcfdea"/>
        </g>
        <circle id="Elipse_12777" data-name="Elipse 12777" cx="1.26" cy="1.26" r="1.26" transform="translate(17.317 24.619)" fill="#fcfdea"/>
        <circle id="Elipse_12778" data-name="Elipse 12778" cx="1.26" cy="1.26" r="1.26" transform="translate(0 0)" fill="#fcfdea"/>
      </g>
      <g id="Grupo_150064" data-name="Grupo 150064" transform="translate(394.035 589.511)">
        <g id="Grupo_150053" data-name="Grupo 150053" transform="translate(61.561 33.939)">
          <path id="Trazado_201755" data-name="Trazado 201755" d="M583.335,735.027v2.929l3.893-.307s.048-2.553,0-2.585S583.335,735.027,583.335,735.027Z" transform="translate(-579.489 -729.328)" fill="url(#linear-gradient-2)"/>
          <path id="Trazado_201756" data-name="Trazado 201756" d="M578.71,768.833l-5.3-1Z" transform="translate(-573.414 -749.414)" fill="url(#linear-gradient-2)"/>
          <path id="Trazado_201757" data-name="Trazado 201757" d="M633.266,740.4l.1-.055-29.9-17.263L592.52,729.4h0a5.313,5.313,0,0,1-3.444.49,2.85,2.85,0,0,1-2.351-1.533l-.01-.032v0a4.357,4.357,0,0,0-2.838-2.455c-.14-.045-.281-.083-.424-.116a5.2,5.2,0,0,0-3.27.349c-2.359,1.024-2.846,2.066-2.916,2.628,0,.018,0,.036-.005.053a1.308,1.308,0,0,0,0,.17c0,.037,0,.073,0,.11s0,.073,0,.11,0,.073,0,.109,0,.074,0,.11,0,.074,0,.11,0,.074,0,.11,0,.074,0,.11,0,.073,0,.11,0,.073,0,.11,0,.073,0,.11,0,.073,0,.11,0,.073,0,.109,0,.074,0,.11,0,.074,0,.11,0,.074,0,.11,0,.074,0,.11,0,.073,0,.11,0,.073,0,.11,0,.073,0,.11,0,.073,0,.11,0,.073,0,.11,0,.073,0,.109,0,.074,0,.11,0,.074,0,.11,0,.074,0,.11,0,.074,0,.11,0,.073,0,.11,0,.073,0,.11,0,.073,0,.11,0,.073,0,.11a1.281,1.281,0,0,0,.061.451,1.538,1.538,0,0,0,.7.818q.052.031.108.061a3.521,3.521,0,0,0,1.446.387,11.483,11.483,0,0,0,1.587-.047,7.468,7.468,0,0,1,3.145.232l-10.888,6.287.095.055-.095.055.095.055-.095.055.095.055-.095.055.095.055-.095.055.095.055-.095.055.095.055-.095.055.095.055-.095.055.095.055-.095.055.095.055-.095.055.095.055-.095.055.095.055-.095.055.095.055-.095.055.095.055-.095.055.095.055-.095.055.095.055-.095.055.095.055-.095.055.095.055-.095.055.095.055-.095.055.095.055-.095.055.095.055-.095.055.095.055-.095.055.095.055-.095.055.095.055-.095.055.095.055-.095.055.095.055-.095.055.095.055-.095.055.095.055-.095.055.095.055-.095.055.095.055-.095.055.095.055-.095.055.095.055-.095.055,10.479,6.051a4.468,4.468,0,0,0,2.054.565,2.308,2.308,0,0,0,1.61-.423,3.227,3.227,0,0,0,1.168-2.151c.2-.979.43-2.089,2.893-2.632h0a9.952,9.952,0,0,1,4.213,0,8.58,8.58,0,0,1,1.3.393,5.667,5.667,0,0,1,2.232,1.477,4.368,4.368,0,0,1-.992.517,18.327,18.327,0,0,1-3.328.772,12.214,12.214,0,0,0-2.835.68c-.433.215-.679-.575-.726-.2-.009.07-.009,1.232,0,1.3a.954.954,0,0,0,0,.11.954.954,0,0,0,0,.11.952.952,0,0,0,0,.11.956.956,0,0,0,0,.11.946.946,0,0,0,0,.109.954.954,0,0,0,0,.11.954.954,0,0,0,0,.11.954.954,0,0,0,0,.11.954.954,0,0,0,0,.11.954.954,0,0,0,0,.11.952.952,0,0,0,0,.11.954.954,0,0,0,0,.11.954.954,0,0,0,0,.11.946.946,0,0,0,0,.109.956.956,0,0,0,0,.11.952.952,0,0,0,0,.11.954.954,0,0,0,0,.11.954.954,0,0,0,0,.11.952.952,0,0,0,0,.11.954.954,0,0,0,0,.11.956.956,0,0,0,0,.11.952.952,0,0,0,0,.11.954.954,0,0,0,0,.11.946.946,0,0,0,0,.109.954.954,0,0,0,0,.11.954.954,0,0,0,0,.11.954.954,0,0,0,0,.11.952.952,0,0,0,0,.11.956.956,0,0,0,0,.11.952.952,0,0,0,0,.11,1.73,1.73,0,0,0,1.044,1.4l10.783,6.226,30.046-17.348-.1-.055.1-.055-.1-.055.1-.055-.1-.055.1-.055-.1-.055.1-.055-.1-.055.1-.055-.1-.055.1-.055-.1-.055.1-.055-.1-.055.1-.055-.1-.055.1-.055-.1-.055.1-.055-.1-.055.1-.055-.1-.055.1-.055-.1-.055.1-.055-.1-.055.1-.055-.1-.055.1-.055-.1-.055.1-.055-.1-.055.1-.055-.1-.055.1-.055-.1-.055.1-.055-.1-.055.1-.055-.1-.055.1-.055-.1-.055.1-.055-.1-.055.1-.055-.1-.055.1-.055-.1-.055.1-.055-.1-.055.1-.055-.1-.055.1-.055-.1-.055.1-.055-.1-.055.1-.055-.1-.055.1-.055Z" transform="translate(-573.414 -722.016)" fill="url(#linear-gradient-4)"/>
          <path id="Trazado_201758" data-name="Trazado 201758" d="M573.414,765.092v4.471L578.807,768Z" transform="translate(-573.414 -747.737)" fill="url(#linear-gradient-2)"/>
          <path id="Trazado_201759" data-name="Trazado 201759" d="M603.461,720.328l-10.941,6.317h0a5.311,5.311,0,0,1-3.444.49,2.85,2.85,0,0,1-2.351-1.534l-.01-.031v0a4.356,4.356,0,0,0-2.838-2.455c-.14-.045-.281-.084-.424-.116a5.2,5.2,0,0,0-3.27.349c-2.359,1.024-2.846,2.066-2.916,2.628,0,.018,0,.036-.005.053a1.279,1.279,0,0,0,.059.511,1.538,1.538,0,0,0,.7.818c.035.021.071.042.108.061a3.515,3.515,0,0,0,1.446.386,11.463,11.463,0,0,0,1.587-.047,6.514,6.514,0,0,1,3.577.428,3.141,3.141,0,0,1,.871.7l.011.012,0,0,0,0c.009.01.016.021.024.031.564.683.326,1.5-.606,2.035l-.054.031-11.57,6.68,10.479,6.051a4.466,4.466,0,0,0,2.054.565,2.309,2.309,0,0,0,1.61-.423,3.228,3.228,0,0,0,1.168-2.151c.2-.979.43-2.089,2.893-2.632h0a9.96,9.96,0,0,1,4.213,0,8.58,8.58,0,0,1,1.3.393c1.9.745,3.007,2,3.038,3.449.018.825-.588,1.479-1.8,1.945a18.328,18.328,0,0,1-3.328.772,12.2,12.2,0,0,0-2.835.68,1.171,1.171,0,0,0-.726.9c-.066.53.314,1.075,1.042,1.5l10.783,6.226,30.046-17.348Z" transform="translate(-573.414 -720.328)" fill="url(#linear-gradient-4)"/>
          <path id="Trazado_201760" data-name="Trazado 201760" d="M650.537,782.2v4.469l30.047-17.348v-4.469Z" transform="translate(-620.636 -747.593)" fill="url(#linear-gradient-4)"/>
        </g>
        <g id="Grupo_150055" data-name="Grupo 150055" transform="translate(0 34.193)">
          <g id="Grupo_150054" data-name="Grupo 150054" transform="translate(0 1.068)">
            <path id="Trazado_201761" data-name="Trazado 201761" d="M473.6,740.887l.095-.055-11.749-6.783a2.54,2.54,0,0,0-1.607-.276,2.472,2.472,0,0,0-1.928,2.024,4.594,4.594,0,0,1-2.206,2.635,6.137,6.137,0,0,1-1.95.711,8.818,8.818,0,0,1-6.176-1.348,4,4,0,0,1-.359-.241,9.3,9.3,0,0,1,4.838-2.171,3.988,3.988,0,0,0,2.2-.812.575.575,0,0,0,.136-.428.65.65,0,0,0,0-.11.648.648,0,0,0,0-.11.649.649,0,0,0,0-.11.648.648,0,0,0,0-.11.65.65,0,0,0,0-.11.648.648,0,0,0,0-.11.649.649,0,0,0,0-.11.648.648,0,0,0,0-.11.645.645,0,0,0,0-.109.648.648,0,0,0,0-.11.649.649,0,0,0,0-.11.649.649,0,0,0,0-.11.649.649,0,0,0,0-.11.648.648,0,0,0,0-.11.65.65,0,0,0,0-.11.649.649,0,0,0,0-.11.648.648,0,0,0,0-.11.644.644,0,0,0,0-.109.649.649,0,0,0,0-.11.649.649,0,0,0,0-.11.648.648,0,0,0,0-.11.649.649,0,0,0,0-.11.649.649,0,0,0,0-.11.648.648,0,0,0,0-.11.648.648,0,0,0,0-.11.649.649,0,0,0,0-.11.648.648,0,0,0,0-.11.645.645,0,0,0,0-.109.648.648,0,0,0,0-.11.65.65,0,0,0,0-.11,1.077,1.077,0,0,0-.25-.7,3.459,3.459,0,0,0-.959-.859c-.085-.055-.171-.109-.264-.162l-9.338-5.392-29.462,17.01.1.055-.1.055.1.055-.1.055.1.055-.1.055.1.055-.1.055.1.055-.1.055.1.055-.1.055.1.055-.1.055.1.055-.1.055.1.055-.1.055.1.055-.1.055.1.055-.1.055.1.055-.1.055.1.055-.1.055.1.055-.1.055.1.055-.1.055.1.055-.1.055.1.055-.1.055.1.055-.1.055.1.055-.1.055.1.055-.1.055.1.055-.1.055.1.055-.1.055.1.055-.1.055.1.055-.1.055.1.055-.1.055.1.055-.1.055.1.055-.1.055.1.055-.1.055.1.055-.1.055.1.055-.1.055.1.055-.1.055,29.608,17.095,10.265-5.927a6.971,6.971,0,0,1,3.844-.8c.088.006.176.014.267.024a5.963,5.963,0,0,1,2.279.68,3.994,3.994,0,0,1,1.63,1.676,2.253,2.253,0,0,0,1.848,1.088,5.54,5.54,0,0,0,3.441-.729,1.36,1.36,0,0,0,.742-1.14.938.938,0,0,0,0-.11.94.94,0,0,0,0-.11.94.94,0,0,0,0-.11.934.934,0,0,0,0-.109.938.938,0,0,0,0-.11.94.94,0,0,0,0-.11.94.94,0,0,0,0-.11.939.939,0,0,0,0-.11.94.94,0,0,0,0-.11.94.94,0,0,0,0-.11.939.939,0,0,0,0-.11.94.94,0,0,0,0-.11.934.934,0,0,0,0-.109.939.939,0,0,0,0-.11.941.941,0,0,0,0-.11.938.938,0,0,0,0-.11.94.94,0,0,0,0-.11.939.939,0,0,0,0-.11.941.941,0,0,0,0-.11.938.938,0,0,0,0-.11.941.941,0,0,0,0-.11.938.938,0,0,0,0-.11.934.934,0,0,0,0-.109.94.94,0,0,0,0-.11.94.94,0,0,0,0-.11.938.938,0,0,0,0-.11.941.941,0,0,0,0-.11.939.939,0,0,0,0-.11.94.94,0,0,0,0-.11.94.94,0,0,0,0-.11,1.081,1.081,0,0,0-.19-.644c-.695-1.1-2.615-1.461-4.308-1.781-.263-.05-.524-.1-.775-.151l10.419-6.015-.095-.055.095-.055-.095-.055.095-.055-.095-.055.095-.055-.095-.055.095-.055-.095-.055.095-.055-.095-.055.095-.055-.095-.055.095-.055-.095-.055.095-.055-.095-.055.095-.055-.095-.055.095-.055-.095-.055.095-.055-.095-.055.095-.055-.095-.055.095-.055-.095-.055.095-.055-.095-.055.095-.055-.095-.055.095-.055-.095-.055.095-.055-.095-.055.095-.055-.095-.055.095-.055-.095-.055.095-.055-.095-.055.095-.055-.095-.055.095-.055-.095-.055.095-.055-.095-.055.095-.055-.095-.055.095-.055-.095-.055.095-.055-.095-.055.095-.055-.095-.055.095-.055-.095-.055.095-.055L473.6,741l.095-.055Z" transform="translate(-414.627 -723.738)" fill="#0f1567"/>
          </g>
          <path id="Trazado_201762" data-name="Trazado 201762" d="M555.762,765.074v3.92l-7.108-1.833Z" transform="translate(-496.692 -747.98)" fill="#0f1567"/>
          <path id="Trazado_201763" data-name="Trazado 201763" d="M510.232,739.138v3.57s-5.318-2.38-5.27-2.417S510.232,739.138,510.232,739.138Z" transform="translate(-469.939 -732.099)" fill="#0f1567"/>
          <path id="Trazado_201764" data-name="Trazado 201764" d="M548.074,795.469v3.251l-3.574-1.87Z" transform="translate(-494.148 -766.59)" fill="#0f1567"/>
          <path id="Trazado_201765" data-name="Trazado 201765" d="M444.235,755.087,454.5,749.16a6.971,6.971,0,0,1,3.844-.8c.087.006.176.014.267.024a5.962,5.962,0,0,1,2.279.68,4,4,0,0,1,1.63,1.676,2.253,2.253,0,0,0,1.848,1.088,5.54,5.54,0,0,0,3.441-.729c.518-.343,1.034-.912.552-1.675-.695-1.1-2.615-1.461-4.308-1.781-1.39-.262-2.7-.511-2.991-1.206-.174-.421.074-.873.838-1.455l.041-.027,1.3-.841,10.455-6.036-11.749-6.783a2.541,2.541,0,0,0-1.607-.276,2.472,2.472,0,0,0-1.928,2.024,4.593,4.593,0,0,1-2.206,2.635,6.137,6.137,0,0,1-1.95.711,8.819,8.819,0,0,1-6.176-1.349c-1.163-.689-1.548-1.629-1.084-2.648.656-1.442,2.891-2.713,5.563-3.164a3.991,3.991,0,0,0,2.2-.812c.219-.262.18-.605-.114-1.021a3.458,3.458,0,0,0-.959-.859c-.085-.055-.171-.109-.264-.162l-9.338-5.392-29.462,17.01Z" transform="translate(-414.627 -720.982)" fill="#0f1567"/>
          <path id="Trazado_201766" data-name="Trazado 201766" d="M414.627,764.827v4.48L444.235,786.4v-4.48Z" transform="translate(-414.627 -747.829)" fill="#0f1567"/>
        </g>
        <g id="Grupo_150058" data-name="Grupo 150058" transform="translate(30.708 0)">
          <path id="Trazado_201767" data-name="Trazado 201767" d="M493.832,677.533V682s6.488-3.609,6.416-3.609S493.832,677.533,493.832,677.533Z" transform="translate(-493.832 -660.185)" fill="url(#linear-gradient-8)"/>
          <path id="Trazado_201768" data-name="Trazado 201768" d="M637.2,676.879v4.468s-6.076,3.439-6.027,3.422c.028-.009-1.516-4.1.17-6.314C632.589,676.821,637.2,676.879,637.2,676.879Z" transform="translate(-577.549 -659.784)" fill="url(#linear-gradient-9)"/>
          <g id="Grupo_150057" data-name="Grupo 150057" transform="translate(0 1.069)">
            <path id="Trazado_201769" data-name="Trazado 201769" d="M553.391,652.692l.1-.055-29.608-17.095-30.047,17.348.1.055-.1.055.1.055-.1.055.1.055-.1.055.1.055-.1.055.1.055-.1.055.1.055-.1.055.1.055-.1.055.1.055-.1.055.1.055-.1.055.1.055-.1.055.1.055-.1.055.1.055-.1.055.1.055-.1.055.1.055-.1.055.1.055-.1.055.1.055-.1.055.1.055-.1.055.1.055-.1.055.1.055-.1.055.1.055-.1.055.1.055-.1.055.1.055-.1.055.1.055-.1.055.1.055-.1.055.1.055-.1.055.1.055-.1.055.1.055-.1.055.1.055-.1.055.1.055-.1.055.1.055-.1.055.1.055-.1.055,9.338,5.392h0l.091.055c.058.034.117.069.173.1l.007.005c.165.1.317.21.459.318a9.119,9.119,0,0,1-2.349.667c-2.1.354-3.849,1.337-4.354,2.446a1.338,1.338,0,0,0-.13.615,1.045,1.045,0,0,0,0,.11,1.043,1.043,0,0,0,0,.11,1.045,1.045,0,0,0,0,.11,1.037,1.037,0,0,0,0,.109,1.045,1.045,0,0,0,0,.11,1.044,1.044,0,0,0,0,.11,1.045,1.045,0,0,0,0,.11,1.045,1.045,0,0,0,0,.11,1.044,1.044,0,0,0,0,.11,1.044,1.044,0,0,0,0,.11,1.045,1.045,0,0,0,0,.11,1.045,1.045,0,0,0,0,.11,1.035,1.035,0,0,0,0,.109,1.046,1.046,0,0,0,0,.11,1.044,1.044,0,0,0,0,.11,1.046,1.046,0,0,0,0,.11,1.042,1.042,0,0,0,0,.11,1.046,1.046,0,0,0,0,.11,1.044,1.044,0,0,0,0,.11,1.046,1.046,0,0,0,0,.11,1.042,1.042,0,0,0,0,.11,1.046,1.046,0,0,0,0,.11,1.035,1.035,0,0,0,0,.109,1.045,1.045,0,0,0,0,.11,1.045,1.045,0,0,0,0,.11,1.045,1.045,0,0,0,0,.11,1.044,1.044,0,0,0,0,.11,1.044,1.044,0,0,0,0,.11,1.044,1.044,0,0,0,0,.11,1.046,1.046,0,0,0,0,.11,1.283,1.283,0,0,0,.772,1.175,10.422,10.422,0,0,0,.93.491,5.847,5.847,0,0,0,3.442.6,3.946,3.946,0,0,0,.671-.188l.035-.013.038-.016.094-.038.008,0a4.011,4.011,0,0,0,.6-.324l.012-.008c.071-.047.141-.1.207-.146l0,0c.034-.026.068-.052.1-.078a3.4,3.4,0,0,0,1.18-1.711c.013-.051.027-.1.041-.15a3.643,3.643,0,0,1,1.282-1.95,4.138,4.138,0,0,1,1.869-.753,5.266,5.266,0,0,1,3.331.535l11.749,6.783,11.57-6.68a.7.7,0,0,0,.428-.649.452.452,0,0,0,0-.11.452.452,0,0,0,0-.11.452.452,0,0,0,0-.11.451.451,0,0,0,0-.11.449.449,0,0,0,0-.109.452.452,0,0,0,0-.11.452.452,0,0,0,0-.11.452.452,0,0,0,0-.11.452.452,0,0,0,0-.11.452.452,0,0,0,0-.11.452.452,0,0,0,0-.11.452.452,0,0,0,0-.11.452.452,0,0,0,0-.11.449.449,0,0,0,0-.109.452.452,0,0,0,0-.11.452.452,0,0,0,0-.11.452.452,0,0,0,0-.11.451.451,0,0,0,0-.11.452.452,0,0,0,0-.11.452.452,0,0,0,0-.11.452.452,0,0,0,0-.11.453.453,0,0,0,0-.11.452.452,0,0,0,0-.11.449.449,0,0,0,0-.109.451.451,0,0,0,0-.11.453.453,0,0,0,0-.11.452.452,0,0,0,0-.11.452.452,0,0,0,0-.11.451.451,0,0,0,0-.11.453.453,0,0,0,0-.11.485.485,0,0,0-.125-.388l0,0,0,0c-.572-.651-1.141-.678-2.392-.592l-.26.019a7.863,7.863,0,0,1-4.446-.6,3.469,3.469,0,0,1-.621-.416c.064-.068.13-.136.2-.2l0,0c.07-.066.144-.132.221-.2l.066-.055c.059-.049.119-.1.182-.145l.079-.06q.1-.074.2-.147l.067-.047c.095-.064.193-.128.295-.191l.011-.007c.081-.05.163-.1.247-.148l.051-.028.1-.054c.078-.043.157-.086.238-.128l.114-.059c.082-.042.167-.084.252-.125l.108-.052c.122-.057.247-.114.375-.17a7.984,7.984,0,0,1,4.969-.483c2.091.471,3.881,1.843,4.354,3.335l.011.035c0,.005,0,.01.005.015a1.382,1.382,0,0,0,1.137.73,2.547,2.547,0,0,0,1.673-.238l10.941-6.317-.1-.055.1-.055-.1-.055.1-.055-.1-.055.1-.055-.1-.055.1-.055-.1-.055.1-.055-.1-.055.1-.055-.1-.055.1-.055-.1-.055.1-.055-.1-.055.1-.055-.1-.055.1-.055-.1-.055.1-.055-.1-.055.1-.055-.1-.055.1-.055-.1-.055.1-.055-.1-.055.1-.055-.1-.055.1-.055-.1-.055.1-.055-.1-.055.1-.055-.1-.055.1-.055-.1-.055.1-.055-.1-.055.1-.055-.1-.055.1-.055-.1-.055.1-.055-.1-.055.1-.055-.1-.055.1-.055-.1-.055.1-.055-.1-.055.1-.055-.1-.055.1-.055-.1-.055.1-.055-.1-.055.1-.055Z" transform="translate(-493.832 -635.543)" fill="#80880c"/>
            <g id="Grupo_150056" data-name="Grupo 150056" clip-path="url(#clip-path)">
              <path id="Trazado_201770" data-name="Trazado 201770" d="M518.7,694.627v5.543l-26.349-3.149L486.1,688.9s2.266-5.311,2.266-5.5.732-3.589.732-3.589v-2.275l19.732,3.727Z" transform="translate(-489.096 -661.254)" fill="#80880c"/>
            </g>
          </g>
          <path id="Trazado_201772" data-name="Trazado 201772" d="M596.376,702.66v2.145l-3.028-.862Z" transform="translate(-554.766 -675.57)" fill="url(#linear-gradient-10)"/>
          <path id="Trazado_201773" data-name="Trazado 201773" d="M502.174,711.425v-1.158l1.133-.3.073,1.91Z" transform="translate(-498.94 -680.045)" fill="#940268"/>
          <path id="Trazado_201774" data-name="Trazado 201774" d="M523.879,632.787l-30.047,17.348,9.338,5.392h0l.091.055c.058.035.117.069.173.1l.007,0a4.671,4.671,0,0,1,1.337,1.191,1.4,1.4,0,0,1,.071,1.847,5.6,5.6,0,0,1-3.3,1.347c-2.1.354-3.849,1.337-4.354,2.446a1.215,1.215,0,0,0,.642,1.68,10.454,10.454,0,0,0,.93.491,5.848,5.848,0,0,0,3.442.6,3.985,3.985,0,0,0,.671-.188l.035-.013.038-.016.094-.038.008,0a4.021,4.021,0,0,0,.6-.324l.012-.009c.071-.047.141-.1.207-.146l0,0c.034-.026.068-.052.1-.078a3.4,3.4,0,0,0,1.18-1.711c.013-.05.027-.1.041-.15a3.642,3.642,0,0,1,1.282-1.95,4.138,4.138,0,0,1,1.869-.753,5.271,5.271,0,0,1,3.331.536l11.749,6.783,11.57-6.68c.434-.251.559-.632.3-.927l0,0,0,0c-.572-.651-1.141-.678-2.392-.592l-.26.019a7.863,7.863,0,0,1-4.446-.6,2.311,2.311,0,0,1-1.434-2.19,1.919,1.919,0,0,1,.031-.214c0-.023.01-.045.015-.067.011-.05.024-.1.039-.15.007-.024.015-.049.023-.074.017-.05.036-.1.057-.15.009-.021.017-.043.026-.064.031-.071.066-.141.105-.211l0,0c.038-.069.081-.137.126-.205.014-.021.029-.041.043-.062q.052-.075.11-.149l.054-.067q.062-.076.13-.152l.049-.055c.064-.069.131-.137.2-.205l0,0c.07-.066.144-.132.221-.2l.066-.055c.059-.049.119-.1.182-.145l.079-.06q.1-.074.2-.147l.067-.047c.095-.064.193-.128.295-.192l.011-.007c.081-.05.163-.1.247-.148l.051-.028.1-.054c.078-.043.157-.086.238-.128l.114-.059c.082-.042.167-.084.252-.125l.108-.052c.122-.057.247-.114.375-.17a7.983,7.983,0,0,1,4.969-.483c2.091.471,3.881,1.843,4.354,3.335l.011.035.005.015a1.382,1.382,0,0,0,1.137.73,2.548,2.548,0,0,0,1.673-.238l10.941-6.317Z" transform="translate(-493.832 -632.787)" fill="#dce736"/>
        </g>
        <g id="Grupo_150063" data-name="Grupo 150063" transform="translate(30.854 53.075)">
          <path id="Trazado_201796" data-name="Trazado 201796" d="M553.476,787l.1-.055-10.783-6.226a4.815,4.815,0,0,1-.5-.33q.132-.08.279-.153a13.743,13.743,0,0,1,3.485-.884c2.409-.41,3.884-.713,3.862-1.729,0-.019,0-.038,0-.057s0-.034,0-.052,0-.038,0-.057,0-.034,0-.052,0-.038,0-.057,0-.034,0-.052,0-.038,0-.057,0-.035,0-.053,0-.038,0-.057,0-.034,0-.053,0-.038,0-.057,0-.034,0-.053,0-.038,0-.057,0-.034,0-.052,0-.038,0-.057,0-.034,0-.052,0-.038,0-.057,0-.034,0-.052,0-.038,0-.057,0-.034,0-.052,0-.038,0-.057,0-.034,0-.052,0-.038,0-.057,0-.034,0-.052,0-.038,0-.057,0-.034,0-.053,0-.038,0-.057,0-.035,0-.053,0-.038,0-.057,0-.034,0-.053,0-.038,0-.057,0-.034,0-.052,0-.038,0-.057,0-.034,0-.052,0-.038,0-.057,0-.034,0-.052,0-.038,0-.057,0-.034,0-.052,0-.038,0-.057,0-.034,0-.052,0-.038,0-.057,0-.034,0-.052,0-.038,0-.057,0-.035,0-.053,0-.038,0-.057,0-.034,0-.053,0-.038,0-.057,0-.034,0-.053,0-.038,0-.057,0-.034,0-.053,0-.038,0-.057,0-.034,0-.052,0-.038,0-.057,0-.034,0-.052,0-.038,0-.057,0-.034,0-.052,0-.038,0-.057,0-.034,0-.052,0-.038,0-.057,0-.034,0-.052,0-.038,0-.057,0-.034,0-.052a3.066,3.066,0,0,0-2.266-2.621,6.256,6.256,0,0,0-1.167-.328,7.032,7.032,0,0,0-2.734.048,3.928,3.928,0,0,0-.841.268q-.081.039-.151.081a1.587,1.587,0,0,0-.721,1.179c-.02.087-.039.178-.059.274a3.994,3.994,0,0,1-1.478,2.618,3.132,3.132,0,0,1-.45.305,5.178,5.178,0,0,1-2.7.546,6.959,6.959,0,0,1-3.2-.862l-10.479-6.05-10.453,6.036c-1.82,1.051-1.719,1.355-1.714,1.368a.073.073,0,0,0,.017.021c-.028.059-.019.086-.017.089a.074.074,0,0,0,.017.021c-.028.059-.019.086-.017.089a.074.074,0,0,0,.017.021c-.028.059-.019.086-.017.089a.073.073,0,0,0,.017.021c-.028.059-.019.086-.017.089a.075.075,0,0,0,.017.021c-.028.059-.019.086-.017.089a.072.072,0,0,0,.017.021c-.028.059-.019.086-.017.089a.072.072,0,0,0,.017.021c-.028.059-.019.086-.017.089a.072.072,0,0,0,.017.021c-.028.059-.019.086-.017.089a.073.073,0,0,0,.017.021c-.028.059-.019.086-.017.089a.065.065,0,0,0,.017.021c-.028.059-.019.086-.017.089a.073.073,0,0,0,.017.02c-.028.059-.019.086-.017.089a.072.072,0,0,0,.017.021c-.028.059-.019.086-.017.089a.073.073,0,0,0,.017.02c-.028.059-.019.086-.017.089a.074.074,0,0,0,.017.021c-.028.059-.019.086-.017.089a.072.072,0,0,0,.017.021c-.028.059-.019.086-.017.089a.074.074,0,0,0,.017.021c-.028.059-.019.086-.017.089a.074.074,0,0,0,.017.021c-.028.059-.019.086-.017.089a.074.074,0,0,0,.017.021c-.028.059-.019.086-.017.089a.073.073,0,0,0,.017.021c-.028.059-.019.085-.017.089a.075.075,0,0,0,.017.021c-.028.059-.019.086-.017.089a.073.073,0,0,0,.017.021c-.028.059-.019.086-.017.089a.073.073,0,0,0,.017.021c-.028.059-.019.086-.017.089a.072.072,0,0,0,.017.021c-.028.059-.019.086-.017.089a.074.074,0,0,0,.017.021c-.028.059-.019.086-.017.089a.073.073,0,0,0,.017.021c-.028.059-.019.086-.017.089a.072.072,0,0,0,.017.021c-.028.059-.019.086-.017.089a.073.073,0,0,0,.017.02c-.028.059-.019.086-.017.089a.074.074,0,0,0,.017.021c-.028.059-.019.086-.017.089a.068.068,0,0,0,.017.021c-.028.059-.019.086-.017.089a.072.072,0,0,0,.017.021c-.028.059-.019.086-.017.089a.073.073,0,0,0,.017.021c-.028.059-.019.086-.017.089a6.907,6.907,0,0,0,1.826.476,11.452,11.452,0,0,1,4.668,1.6c-.043.031-.085.062-.131.093a5.176,5.176,0,0,1-.5.29l-.006,0c-.082.042-.166.082-.252.121l-.016.008c-.084.038-.17.074-.257.109l-.022.009c-.087.035-.175.067-.265.1l-.024.009c-.09.031-.182.061-.274.089l-.023.007c-.094.028-.188.056-.285.081l-.017,0c-.1.026-.2.05-.3.072h-.005q-.31.069-.629.116h-.007q-.152.022-.306.039l-.026,0q-.148.016-.3.027l-.037,0c-.1.007-.193.012-.29.016l-.041,0c-.1,0-.192.005-.287.005h-.042c-.1,0-.192,0-.288-.006l-.036,0c-.1,0-.195-.01-.291-.018l-.023,0c-.1-.009-.2-.019-.3-.031a3.9,3.9,0,0,1-3.163-1.792,3.076,3.076,0,0,0-2.707-1.661,4.31,4.31,0,0,0-2.379.51L494.209,786.7l.095.055-.095.055.095.055-.095.055.095.055-.095.055.095.055-.095.055.095.055-.095.055.095.055-.095.055.095.055-.095.055.095.055-.095.055.095.055-.095.055.095.055-.095.055.095.055-.095.055.095.055-.095.055.095.055-.095.055.095.055-.095.055.095.055-.095.055.095.055-.095.055.095.055-.095.055.095.055-.095.055.095.055-.095.055.095.055-.095.055.095.055-.095.055.095.055-.095.055.095.055-.095.055.095.055-.095.055.095.055-.095.055.095.055-.095.055.095.055-.095.055.095.055-.095.055.095.055-.095.055.095.055-.095.055.095.055-.095.055,29.9,17.263,29.462-17.01-.1-.055.1-.055-.1-.055.1-.055-.1-.055.1-.055-.1-.055.1-.055-.1-.055.1-.055-.1-.055.1-.055-.1-.055.1-.055-.1-.055.1-.055-.1-.055.1-.055-.1-.055.1-.055-.1-.055.1-.055-.1-.055.1-.055-.1-.055.1-.055-.1-.055.1-.055-.1-.055.1-.055-.1-.055.1-.055-.1-.055.1-.055-.1-.055.1-.055-.1-.055.1-.055-.1-.055.1-.055-.1-.055.1-.055-.1-.055.1-.055-.1-.055.1-.055-.1-.055.1-.055-.1-.055.1-.055-.1-.055.1-.055-.1-.055.1-.055-.1-.055.1-.055-.1-.055.1-.055-.1-.055.1-.055Z" transform="translate(-494.209 -769.686)" fill="url(#linear-gradient)"/>
          <g id="Grupo_150062" data-name="Grupo 150062" clip-path="url(#clip-path-2)">
            <path id="Trazado_201797" data-name="Trazado 201797" d="M538.818,785.245v1.468l.131,4.337,7.766,1.454s1.2-4.531,1.2-4.567-1.672-2.811-1.672-2.811l-3.816-.376-2.641.061Z" transform="translate(-521.523 -778.91)" fill="url(#linear-gradient-12)"/>
          </g>
        </g>
        <path id="Trazado_201799" data-name="Trazado 201799" d="M538.818,786.028v2.105l6.128-1.874Z" transform="translate(-490.669 -726.617)" fill="url(#linear-gradient-13)"/>
        <path id="Trazado_201800" data-name="Trazado 201800" d="M627.9,778.644v2.218l-5.577,2.113s-1.239-3.278-.534-3.546S627.9,778.644,627.9,778.644Z" transform="translate(-541.34 -722.095)" fill="url(#linear-gradient-14)"/>
        <path id="Trazado_201801" data-name="Trazado 201801" d="M494.209,810.924v4.422l29.9,17.263v-4.467Z" transform="translate(-463.355 -741.861)" fill="url(#linear-gradient-15)"/>
        <path id="Trazado_201802" data-name="Trazado 201802" d="M545.472,795.469v5.052l-5.222-4.362Z" transform="translate(-491.546 -732.397)" fill="#2f83ce"/>
        <path id="Trazado_201803" data-name="Trazado 201803" d="M524.109,801.2l29.462-17.01-10.783-6.226c-1.091-.63-1.657-1.464-1.554-2.288a2.147,2.147,0,0,1,1.335-1.6,13.743,13.743,0,0,1,3.485-.884c2.409-.41,3.884-.713,3.862-1.729a3.066,3.066,0,0,0-2.266-2.621,6.256,6.256,0,0,0-1.167-.328,7.033,7.033,0,0,0-2.734.048,3.916,3.916,0,0,0-.841.268q-.081.039-.151.081a1.587,1.587,0,0,0-.721,1.179c-.02.087-.039.178-.059.274a3.994,3.994,0,0,1-1.478,2.618,3.156,3.156,0,0,1-.45.305,5.173,5.173,0,0,1-2.7.546,6.954,6.954,0,0,1-3.2-.861l-10.479-6.05-10.453,6.036c-1.82,1.051-1.719,1.355-1.714,1.368a6.9,6.9,0,0,0,1.826.476c1.868.353,4.426.837,5.415,2.4.6.945.278,1.926-.878,2.692a5.164,5.164,0,0,1-.5.29l-.006,0c-.082.042-.166.082-.252.121l-.016.007c-.084.038-.17.074-.257.109l-.022.009c-.087.034-.175.067-.265.1l-.024.008c-.09.031-.182.061-.274.09l-.023.007c-.094.028-.188.055-.285.081l-.017,0q-.148.038-.3.072h-.005q-.31.069-.629.116h-.007c-.1.015-.2.028-.306.039l-.026,0c-.1.01-.2.02-.3.027l-.037,0c-.1.007-.193.012-.29.016l-.041,0q-.144.005-.287,0h-.042c-.1,0-.192,0-.288-.006l-.036,0c-.1,0-.195-.01-.291-.018l-.023,0q-.151-.012-.3-.031a3.9,3.9,0,0,1-3.163-1.791,3.077,3.077,0,0,0-2.707-1.661,4.316,4.316,0,0,0-2.379.51l-10.265,5.927Z" transform="translate(-463.355 -714.923)" fill="url(#linear-gradient-16)"/>
        <path id="Trazado_201804" data-name="Trazado 201804" d="M600.794,811.613v4.409l-29.462,17.01V828.56S600.794,811.613,600.794,811.613Z" transform="translate(-510.578 -742.282)" fill="url(#linear-gradient-17)"/>
        <path id="Trazado_201805" data-name="Trazado 201805" d="M444.235,755.087,454.5,749.16a6.971,6.971,0,0,1,3.844-.8c.087.006.176.014.267.024a5.962,5.962,0,0,1,2.279.68,4,4,0,0,1,1.63,1.676,2.253,2.253,0,0,0,1.848,1.088,5.54,5.54,0,0,0,3.441-.729c.518-.343,1.034-.912.552-1.675-.695-1.1-2.615-1.461-4.308-1.781-1.39-.262-2.7-.511-2.991-1.206-.174-.421.074-.873.838-1.455l.041-.027,1.3-.841,10.455-6.036-11.749-6.783a2.541,2.541,0,0,0-1.607-.276,2.472,2.472,0,0,0-1.928,2.024,4.593,4.593,0,0,1-2.206,2.635,6.137,6.137,0,0,1-1.95.711,8.819,8.819,0,0,1-6.176-1.349c-1.163-.689-1.548-1.629-1.084-2.648.656-1.442,2.891-2.713,5.563-3.164a3.991,3.991,0,0,0,2.2-.812c.219-.262.18-.605-.114-1.021a3.458,3.458,0,0,0-.959-.859c-.085-.055-.171-.109-.264-.162l-9.338-5.392-29.462,17.01Z" transform="translate(-414.627 -686.789)" fill="#3d46c2"/>
      </g>
    </g>
  </g>
</svg>
