<svg xmlns="http://www.w3.org/2000/svg" width="150" height="150" viewBox="0 0 150 150">
  <g id="Grupo_158085" data-name="Grupo 158085" transform="translate(10313 9574.782)">
    <g id="Grupo_149967" data-name="Grupo 149967" transform="translate(-11038 -11440.602)">
      <g id="Elipse_12654" data-name="Elipse 12654" transform="translate(725 1865.819)" fill="#fff" stroke="#77b43a" stroke-width="4">
        <circle cx="75" cy="75" r="75" stroke="none"/>
        <circle cx="75" cy="75" r="73" fill="none"/>
      </g>
      <g id="Grupo_151425" data-name="Grupo 151425" transform="translate(747.7 1464.519)">
        <g id="Grupo_151423" data-name="Grupo 151423" transform="translate(9.429 433.429)">
          <g id="Grupo_151409" data-name="Grupo 151409" transform="translate(15.719 74.309)">
            <path id="Trazado_203225" data-name="Trazado 203225" d="M39.084,493.548v2.859a8.581,8.581,0,0,1-8.574,8.574,8.588,8.588,0,0,1-8.574-8.574v-2.859Z" transform="translate(-21.935 -493.548)" fill="#3d46c2"/>
          </g>
          <g id="Grupo_151410" data-name="Grupo 151410" transform="translate(10.003 62.877)">
            <path id="Trazado_203226" data-name="Trazado 203226" d="M43.013,484.258a2.866,2.866,0,0,1,2.857,2.859,2.878,2.878,0,0,1-2.857,2.857H20.149a2.866,2.866,0,0,1-2.859-2.857,2.878,2.878,0,0,1,2.859-2.859H43.013Z" transform="translate(-17.29 -484.258)" fill="#ccd1d9"/>
          </g>
          <g id="Grupo_151411" data-name="Grupo 151411" transform="translate(12.862 68.593)">
            <path id="Trazado_203227" data-name="Trazado 203227" d="M39.619,488.9a2.867,2.867,0,0,1,2.859,2.859,2.88,2.88,0,0,1-2.859,2.857H22.47a2.866,2.866,0,0,1-2.857-2.857A2.878,2.878,0,0,1,22.47,488.9Z" transform="translate(-19.613 -488.903)" fill="#ccd1d9"/>
          </g>
          <g id="Grupo_151412" data-name="Grupo 151412" transform="translate(0 10.003)">
            <path id="Trazado_203228" data-name="Trazado 203228" d="M19.164,479.874a7.154,7.154,0,0,1-6.144-10.8,7.116,7.116,0,0,1,.043-12.676,7.11,7.11,0,0,1,6.1-10.818c.2,0,.386.043.572.058a7.145,7.145,0,0,1,13.718,2.8v45.728H19.164a2.878,2.878,0,0,1-2.857-2.859,2.866,2.866,0,0,1,2.857-2.857h2.859V487.02S19.164,482.732,19.164,479.874Z" transform="translate(-9.161 -441.29)" fill="#f0d0b4"/>
          </g>
          <g id="Grupo_151413" data-name="Grupo 151413" transform="translate(24.294 10.192)">
            <path id="Trazado_203229" data-name="Trazado 203229" d="M32.176,441.469a2.882,2.882,0,0,0-3.273,2.844v49.816h14.29a2.866,2.866,0,0,0,2.859-2.859,2.878,2.878,0,0,0-2.859-2.857H40.336v-1.429a24.361,24.361,0,0,0,8.2-7.146,23.971,23.971,0,0,0,4.488-11.432,23.423,23.423,0,0,0,.171-2.859,24.3,24.3,0,0,0-21.02-24.079Z" transform="translate(-28.903 -441.443)" fill="#dce736"/>
          </g>
          <g id="Grupo_151414" data-name="Grupo 151414" transform="translate(33.512 28.581)">
            <path id="Trazado_203230" data-name="Trazado 203230" d="M42.052,457.23a2.858,2.858,0,0,1-2.014,4.873,6.932,6.932,0,0,1-3.644-1.042l.385-2.288a2.867,2.867,0,0,1,2.815-2.386h.443A2.8,2.8,0,0,1,42.052,457.23Z" transform="translate(-36.394 -456.387)" fill="#fcd770"/>
          </g>
          <g id="Grupo_151415" data-name="Grupo 151415" transform="translate(65.736 65.736)">
            <path id="Trazado_203231" data-name="Trazado 203231" d="M72.584,486.581a10,10,0,1,1-10,10A10,10,0,0,1,72.584,486.581Z" transform="translate(-62.581 -486.581)" fill="#75b62f"/>
          </g>
          <g id="Grupo_151416" data-name="Grupo 151416" transform="translate(65.736)">
            <path id="Trazado_203232" data-name="Trazado 203232" d="M72.584,433.161a10,10,0,1,1-10,10A10,10,0,0,1,72.584,433.161Z" transform="translate(-62.581 -433.161)" fill="#75b62f"/>
          </g>
          <g id="Grupo_151417" data-name="Grupo 151417" transform="translate(65.736 32.868)">
            <path id="Trazado_203233" data-name="Trazado 203233" d="M72.584,459.871a10,10,0,1,1-10,10A10,10,0,0,1,72.584,459.871Z" transform="translate(-62.581 -459.871)" fill="#75b62f"/>
          </g>
          <g id="Grupo_151418" data-name="Grupo 151418" transform="translate(72.881 7.145)">
            <circle id="Elipse_12787" data-name="Elipse 12787" cx="2.858" cy="2.858" r="2.858" fill="#fc6e51"/>
          </g>
          <g id="Grupo_151419" data-name="Grupo 151419" transform="translate(62.877 22.865)">
            <circle id="Elipse_12788" data-name="Elipse 12788" cx="2.858" cy="2.858" r="2.858" fill="#fc6e51"/>
          </g>
          <g id="Grupo_151420" data-name="Grupo 151420" transform="translate(62.877 57.161)">
            <circle id="Elipse_12789" data-name="Elipse 12789" cx="2.858" cy="2.858" r="2.858" fill="#fc6e51"/>
          </g>
          <g id="Grupo_151421" data-name="Grupo 151421" transform="translate(72.881 72.881)">
            <circle id="Elipse_12790" data-name="Elipse 12790" cx="2.858" cy="2.858" r="2.858" fill="#fc6e51"/>
          </g>
          <g id="Grupo_151422" data-name="Grupo 151422" transform="translate(72.881 40.013)">
            <circle id="Elipse_12791" data-name="Elipse 12791" cx="2.858" cy="2.858" r="2.858" fill="#fc6e51"/>
          </g>
        </g>
        <g id="Grupo_151424" data-name="Grupo 151424" transform="translate(8 432)">
          <path id="Trazado_203234" data-name="Trazado 203234" d="M16.129,452.545h2.859a1.429,1.429,0,0,1,1.429-1.429v-2.859A4.292,4.292,0,0,0,16.129,452.545Z" transform="translate(-6.126 -428.252)"/>
          <path id="Trazado_203235" data-name="Trazado 203235" d="M27.384,454.868a4.292,4.292,0,0,0-4.287-4.287v2.857a1.429,1.429,0,0,1,1.429,1.43Z" transform="translate(-4.519 -427.716)"/>
          <path id="Trazado_203236" data-name="Trazado 203236" d="M14.968,458.978v2.857a4.292,4.292,0,0,0,4.287-4.287H16.4A1.43,1.43,0,0,1,14.968,458.978Z" transform="translate(-6.394 -426.11)"/>
          <path id="Trazado_203237" data-name="Trazado 203237" d="M71.513,499.8a4.287,4.287,0,1,0-4.287-4.287A4.294,4.294,0,0,0,71.513,499.8Zm0-5.717a1.429,1.429,0,1,1-1.43,1.43A1.43,1.43,0,0,1,71.513,494.083Z" transform="translate(5.655 -418.345)"/>
          <path id="Trazado_203238" data-name="Trazado 203238" d="M71.513,473.091a4.287,4.287,0,1,0-4.287-4.287A4.293,4.293,0,0,0,71.513,473.091Zm0-5.716a1.429,1.429,0,1,1-1.43,1.429A1.429,1.429,0,0,1,71.513,467.375Z" transform="translate(5.655 -424.503)"/>
          <path id="Trazado_203239" data-name="Trazado 203239" d="M71.513,446.38a4.287,4.287,0,1,0-4.287-4.287A4.293,4.293,0,0,0,71.513,446.38Zm0-5.716a1.429,1.429,0,1,1-1.43,1.429A1.429,1.429,0,0,1,71.513,440.665Z" transform="translate(5.655 -430.661)"/>
          <path id="Trazado_203240" data-name="Trazado 203240" d="M73.833,477.729a11.432,11.432,0,1,0,0-2.857H58.423a26.007,26.007,0,0,0,.653-2.859h4.655a4.292,4.292,0,0,0,4.287-4.287v-5.716a1.429,1.429,0,0,1,1.429-1.429H71.14a4.287,4.287,0,1,0,0-2.859H69.448a4.292,4.292,0,0,0-4.286,4.287v5.716a1.431,1.431,0,0,1-1.43,1.43H59.4c.026-.475.044-.951.044-1.43a25.583,25.583,0,0,0-4.286-14.137v-7.3a1.429,1.429,0,0,1,1.429-1.429H73.833a11.432,11.432,0,1,0,0-2.859H56.587A4.292,4.292,0,0,0,52.3,446.29V450a25.57,25.57,0,0,0-15.114-7.766,4.349,4.349,0,0,0-3.428,1.029,4.258,4.258,0,0,0-1.024,1.36,8.562,8.562,0,0,0-13.585,1.671,8.586,8.586,0,0,0-8.29,8.571,8.367,8.367,0,0,0,.618,3.143,8.524,8.524,0,0,0-.012,13.728,8.537,8.537,0,0,0,6.688,11.6,19.651,19.651,0,0,0,2.45,5.822h-1.17a4.277,4.277,0,0,0-1.114,8.408,4.249,4.249,0,0,0,2.857,5.716,4.251,4.251,0,0,0,2.544,5.619V510.6a10,10,0,0,0,20.006,0V508.9a4.247,4.247,0,0,0,2.544-5.619,4.252,4.252,0,0,0,2.859-5.716,4.277,4.277,0,0,0-1.115-8.408h10a1.429,1.429,0,0,1,1.429,1.429v15.719a4.293,4.293,0,0,0,4.287,4.287h10.1a11.432,11.432,0,1,0,0-2.859h-10.1a1.429,1.429,0,0,1-1.429-1.429V490.59a4.292,4.292,0,0,0-4.287-4.287H51.5a25.747,25.747,0,0,0,2.567-2.859h9.66a1.431,1.431,0,0,1,1.43,1.43v5.716a4.292,4.292,0,0,0,4.286,4.287H71.14a4.287,4.287,0,1,0,0-2.859H69.448a1.429,1.429,0,0,1-1.429-1.429v-5.716a4.292,4.292,0,0,0-4.287-4.287H55.988a25.776,25.776,0,0,0,1.424-2.859Zm11.335-10a8.574,8.574,0,1,1-8.574,8.574A8.583,8.583,0,0,1,85.168,467.725Zm-10-10a1.429,1.429,0,1,1-1.43,1.43A1.429,1.429,0,0,1,75.165,457.722Zm10-22.864a8.574,8.574,0,1,1-8.574,8.573A8.582,8.582,0,0,1,85.168,434.859Zm0,65.735a8.574,8.574,0,1,1-8.574,8.574A8.583,8.583,0,0,1,85.168,500.593Zm-10-8.574a1.429,1.429,0,1,1-1.43,1.429A1.429,1.429,0,0,1,75.165,492.019Zm-40.013,2.859V465.632l2.676-1.783,2.866,2.866a8.092,8.092,0,0,0,.7.62L36.8,494.877Zm-15.72-2.859h4.287v-3.294l-.24-.359a20.1,20.1,0,0,1-2.414-5.081,8.584,8.584,0,0,0,6.942-8.413H25.148a5.716,5.716,0,1,1-11.124-1.816,8.579,8.579,0,0,0,11.124-8.187H22.29a5.716,5.716,0,1,1-8.306-5.062l1.361-.7-.79-1.311a5.612,5.612,0,0,1-.839-2.932,5.723,5.723,0,0,1,5.716-5.717c.053,0,.106.012.158.02.1.014.2.027.3.033l1.025.082.4-.945a5.716,5.716,0,0,1,10.975,2.24v44.3H19.432a1.429,1.429,0,0,1,0-2.859Zm14.29,25.722a7.153,7.153,0,0,1-7.145-7.145v-1.429h14.29V510.6A7.153,7.153,0,0,1,33.722,517.741ZM42.3,506.309H25.148a1.429,1.429,0,0,1,0-2.857H42.3a1.429,1.429,0,0,1,0,2.857Zm2.859-5.716H22.29a1.429,1.429,0,0,1,0-2.859H45.155a1.429,1.429,0,0,1,0,2.859Zm-.676-12.7-.754.4v3.717h4.287a1.429,1.429,0,0,1,0,2.859H39.7l4.355-26.121a8.357,8.357,0,0,0,2.534.4,4.287,4.287,0,1,0,0-8.574h-.438a4.27,4.27,0,0,0-4.185,3.359l-3.772-3.769L35.152,462.2V446.487a1.4,1.4,0,0,1,.487-1.072,1.442,1.442,0,0,1,1.164-.347A22.863,22.863,0,0,1,44.48,487.9Zm.049-22.006.208-1.26a1.424,1.424,0,0,1,1.409-1.194h.438a1.429,1.429,0,0,1,0,2.859,5.47,5.47,0,0,1-2.055-.4Z" transform="translate(-8 -432)"/>
        </g>
      </g>
    </g>
  </g>
</svg>
