<svg xmlns="http://www.w3.org/2000/svg" width="150" height="150" viewBox="0 0 150 150">
  <g id="Grupo_158084" data-name="Grupo 158084" transform="translate(10615 9556.001)">
    <g id="Grupo_149966" data-name="Grupo 149966" transform="translate(-10925 -11421.82)">
      <g id="Elipse_12654" data-name="Elipse 12654" transform="translate(310 1865.819)" fill="#fff" stroke="#77b43a" stroke-width="4">
        <circle cx="75" cy="75" r="75" stroke="none"/>
        <circle cx="75" cy="75" r="73" fill="none"/>
      </g>
      <g id="Grupo_151408" data-name="Grupo 151408" transform="translate(271.78 1535.584)">
        <path id="Trazado_203205" data-name="Trazado 203205" d="M161.7,391.32c0,7.774-3.137,18.413-8.277,27.513-3.094,5.477-9.842,12.512-9.842,18.793h-13.59v-75.5C147.507,362.127,161.7,374.773,161.7,391.32Z" transform="translate(-16.774 -0.735)" fill="#dce736"/>
        <path id="Trazado_203206" data-name="Trazado 203206" d="M129.994,400.759h13.59v18.12h-13.59Z" transform="translate(-16.774 -13.697)" fill="#3d46c2"/>
        <path id="Trazado_203207" data-name="Trazado 203207" d="M82.272,391.32c0,7.774,3.137,18.413,8.277,27.513,3.1,5.477,9.843,12.512,9.843,18.793h13.59v-75.5C96.469,362.127,82.272,374.773,82.272,391.32Z" transform="translate(-0.762 -0.735)" fill="#75b62f"/>
        <path id="Trazado_203208" data-name="Trazado 203208" d="M134.632,481.84h-24.9a3.02,3.02,0,0,1-3.02-3.02v-.106a2.846,2.846,0,0,1,2.879-2.813c.047,0,.094,0,.141.005h24.9a2.847,2.847,0,0,1,3.015,2.667c0,.047,0,.094,0,.141v.106A3.02,3.02,0,0,1,134.632,481.84Z" transform="translate(-8.963 -38.909)" fill="#3d46c2"/>
        <rect id="Rectángulo_295851" data-name="Rectángulo 295851" width="31.71" height="6.146" rx="3.073" transform="translate(97.365 442.931)" fill="#3d46c2"/>
        <path id="Trazado_203209" data-name="Trazado 203209" d="M116.745,382.751l-.663,3.153a17.968,17.968,0,0,0-2.873.774l-2.164-2.415a21.058,21.058,0,0,0-4.433,2.592l1,3.047a18.152,18.152,0,0,0-2.108,2.108l-3.047-1a21.051,21.051,0,0,0-2.592,4.434l2.415,2.164a17.9,17.9,0,0,0-.775,2.874l-3.152.662a19.316,19.316,0,0,0,0,5.15l3.152.662a17.924,17.924,0,0,0,.775,2.874l-2.416,2.164a21.108,21.108,0,0,0,2.592,4.434l3.047-1a18.258,18.258,0,0,0,2.108,2.108l-1,3.048a21.072,21.072,0,0,0,4.433,2.591l2.164-2.415a17.929,17.929,0,0,0,2.874.775l.662,3.152a21.263,21.263,0,0,0,2.576.173v-42.28A21.386,21.386,0,0,0,116.745,382.751Z" transform="translate(-6.1 -7.598)" fill="#f85316"/>
        <path id="Trazado_203210" data-name="Trazado 203210" d="M123.894,420.374a12.08,12.08,0,1,1,0-24.16" transform="translate(-10.674 -12.172)" fill="#f7edd3"/>
        <circle id="Elipse_12783" data-name="Elipse 12783" cx="3.02" cy="3.02" r="3.02" transform="translate(119.26 370.452)" fill="#fccc38"/>
        <circle id="Elipse_12784" data-name="Elipse 12784" cx="3.02" cy="3.02" r="3.02" transform="translate(131.34 378.002)" fill="#fccc38"/>
        <circle id="Elipse_12785" data-name="Elipse 12785" cx="3.02" cy="3.02" r="3.02" transform="translate(138.889 397.631)" fill="#fccc38"/>
        <circle id="Elipse_12786" data-name="Elipse 12786" cx="3.02" cy="3.02" r="3.02" transform="translate(122.28 415.751)" fill="#fccc38"/>
        <path id="Trazado_203211" data-name="Trazado 203211" d="M152.594,467.871l-2.807-1.112a25.592,25.592,0,0,1,1.41-2.95l2.644,1.46a22.57,22.57,0,0,0-1.247,2.6Z" transform="translate(-23.415 -34.852)"/>
        <path id="Trazado_203212" data-name="Trazado 203212" d="M156.92,460.041l-2.535-1.64c.566-.876,1.158-1.743,1.752-2.595l2.479,1.725c-.575.826-1.148,1.663-1.7,2.51Z" transform="translate(-24.958 -32.167)"/>
        <path id="Trazado_203213" data-name="Trazado 203213" d="M162.154,452.47l-2.48-1.722c.595-.859,1.163-1.694,1.672-2.5l2.556,1.607C163.37,450.7,162.777,451.573,162.154,452.47Z" transform="translate(-26.732 -29.63)"/>
        <path id="Trazado_203214" data-name="Trazado 203214" d="M167.075,444.434l-2.663-1.424q.708-1.326,1.358-2.685l2.725,1.3Q167.817,443.046,167.075,444.434Z" transform="translate(-28.322 -26.973)"/>
        <path id="Trazado_203215" data-name="Trazado 203215" d="M171.1,435.963l-2.779-1.182c.4-.928.769-1.862,1.12-2.8l2.827,1.062Q171.717,434.509,171.1,435.963Z" transform="translate(-29.633 -24.174)"/>
        <path id="Trazado_203216" data-name="Trazado 203216" d="M178.276,408.9l-3.01-.254c.078-.92.118-1.815.118-2.657l0-.277,3.02-.023,0,.3C178.4,406.916,178.36,407.9,178.276,408.9Z" transform="translate(-31.964 -15.351)"/>
        <path id="Trazado_203217" data-name="Trazado 203217" d="M174.906,399.564a26.112,26.112,0,0,0-.5-2.863l2.94-.687a29.369,29.369,0,0,1,.562,3.193Z" transform="translate(-31.674 -12.105)"/>
        <path id="Trazado_203218" data-name="Trazado 203218" d="M172.6,390.833a26.232,26.232,0,0,0-1.126-2.681l2.714-1.322a29.035,29.035,0,0,1,1.257,2.991Z" transform="translate(-30.692 -9.024)"/>
        <path id="Trazado_203219" data-name="Trazado 203219" d="M168.491,382.855a27.383,27.383,0,0,0-1.688-2.374l2.366-1.879a30.555,30.555,0,0,1,1.876,2.64Z" transform="translate(-29.124 -6.263)"/>
        <path id="Trazado_203220" data-name="Trazado 203220" d="M162.808,375.969a28.547,28.547,0,0,0-2.152-1.975l1.924-2.326a31.366,31.366,0,0,1,2.381,2.183Z" transform="translate(-27.062 -3.937)"/>
        <path id="Trazado_203221" data-name="Trazado 203221" d="M155.86,370.424c-.8-.54-1.647-1.05-2.509-1.516l1.436-2.657c.948.514,1.876,1.074,2.758,1.666Z" transform="translate(-24.611 -2.119)"/>
        <path id="Trazado_203222" data-name="Trazado 203222" d="M147.98,366.375c-.885-.376-1.811-.718-2.752-1.016l.914-2.878c1.03.328,2.046.7,3.019,1.116Z" transform="translate(-21.885 -0.854)"/>
        <path id="Trazado_203223" data-name="Trazado 203223" d="M139.491,363.9c-.948-.211-1.923-.381-2.9-.506l.386-3c1.063.139,2.128.324,3.164.553Z" transform="translate(-18.989 -0.154)"/>
        <path id="Trazado_203224" data-name="Trazado 203224" d="M141.909,396.121a4.522,4.522,0,0,0-4.251,3.02h-9.339V393.1h6.04a1.51,1.51,0,0,0,1.51-1.51h0v-6.318a4.532,4.532,0,1,0-3.019,0v4.809h-4.53v-3.02a1.51,1.51,0,0,0-1.509-1.51H123.79v-7.828a4.53,4.53,0,1,0-3.02,0v7.828h-6.04V361.445a1.509,1.509,0,0,0-1.509-1.51h0c-18.628,0-33.22,13.486-33.22,30.7,0,8.178,3.247,19.006,8.473,28.256.939,1.66,2.164,3.407,3.46,5.255,2.74,3.907,5.791,8.3,6.122,12.125a4.292,4.292,0,0,0-1.814,3.584,4.486,4.486,0,0,0,1,2.8A4.654,4.654,0,0,0,95.855,446a4.535,4.535,0,0,0,4.53,4.53h25.67a4.559,4.559,0,0,0,4.53-4.587V445.9a4.511,4.511,0,0,0-1.39-3.253,4.656,4.656,0,0,0,1-2.893,4.33,4.33,0,0,0-4.338-4.322c-.064,0-.128,0-.191,0H114.73V406.692h3.02v4.53a1.509,1.509,0,0,0,1.509,1.51h4.531v1.788a4.53,4.53,0,1,0,3.02,0v-3.3a1.511,1.511,0,0,0-1.51-1.51h-4.53v-3.019h6.04a1.51,1.51,0,0,0,1.51-1.51h0v-3.02h9.339a4.522,4.522,0,1,0,4.251-6.04Zm-7.55-16.609a1.51,1.51,0,1,1-1.51,1.51A1.509,1.509,0,0,1,134.36,379.512Zm-39.954,42.9c-1.253-1.787-2.437-3.475-3.3-5.008-4.91-8.689-8.082-19.2-8.082-26.77,0-15.058,12.483-26.953,28.689-27.65v10.549c-.4.03-.809.067-1.247.12a1.511,1.511,0,0,0-1.3,1.187l-.46,2.188q-.568.135-1.134.3l-1.5-1.678a1.508,1.508,0,0,0-1.716-.382,22.74,22.74,0,0,0-4.75,2.773,1.511,1.511,0,0,0-.526,1.677l.693,2.112c-.285.268-.563.547-.832.831l-2.11-.693a1.519,1.519,0,0,0-1.676.525,22.681,22.681,0,0,0-2.776,4.753,1.51,1.51,0,0,0,.382,1.716l1.679,1.5q-.169.56-.3,1.122l-2.348.469a1.509,1.509,0,0,0-1.215,1.48V398.7a1.509,1.509,0,0,0,1.215,1.48l2.348.469q.134.562.3,1.122l-1.68,1.5a1.512,1.512,0,0,0-.382,1.716,22.681,22.681,0,0,0,2.776,4.753,1.517,1.517,0,0,0,1.676.525l2.11-.693c.27.284.547.563.832.831l-.693,2.109a1.511,1.511,0,0,0,.525,1.677,22.678,22.678,0,0,0,4.752,2.777,1.513,1.513,0,0,0,1.716-.382l1.505-1.678q.565.169,1.134.3l.459,2.187a1.51,1.51,0,0,0,1.3,1.189c.438.053.847.09,1.248.12v16.728h-10.7c-.617-4.45-3.769-8.977-6.6-13.019Zm5.225-26.294a13.605,13.605,0,0,0,12.08,13.5v5.193l-.25-1.189a1.51,1.51,0,0,0-1.21-1.176,16.45,16.45,0,0,1-2.631-.71,1.512,1.512,0,0,0-1.635.415l-1.42,1.583a19.654,19.654,0,0,1-2.273-1.334l.656-2a1.512,1.512,0,0,0-.46-1.625,16.64,16.64,0,0,1-1.932-1.932,1.517,1.517,0,0,0-1.623-.456l-1.994.656a19.534,19.534,0,0,1-1.336-2.274l1.585-1.42a1.512,1.512,0,0,0,.413-1.635,16.381,16.381,0,0,1-.709-2.631,1.509,1.509,0,0,0-1.191-1.212l-2.111-.422v-2.672l2.111-.422a1.51,1.51,0,0,0,1.191-1.212,16.516,16.516,0,0,1,.709-2.632,1.511,1.511,0,0,0-.414-1.635L95.6,387.466a19.817,19.817,0,0,1,1.335-2.274l1.995.656a1.517,1.517,0,0,0,1.623-.457,16.893,16.893,0,0,1,1.934-1.936,1.509,1.509,0,0,0,.457-1.621l-.655-2a19.7,19.7,0,0,1,2.273-1.334l1.42,1.583a1.515,1.515,0,0,0,1.635.415,16.316,16.316,0,0,1,2.631-.71,1.508,1.508,0,0,0,1.21-1.175l.25-1.189v5.192a13.6,13.6,0,0,0-12.08,13.5Zm12.08-10.449v20.9a10.556,10.556,0,0,1,0-20.9Zm14.345,61.841h-25.67a1.537,1.537,0,0,1-1.512-1.564c0-.017,0-.034,0-.052a1.511,1.511,0,0,1,1.51-1.51h25.67a1.538,1.538,0,0,1,1.512,1.563l0,.052A1.511,1.511,0,0,1,126.055,447.514Zm-.387-9.059a1.383,1.383,0,0,1,1.5,1.251,1.47,1.47,0,0,1,.006.153,1.512,1.512,0,0,1-1.51,1.51h-24.9a1.538,1.538,0,0,1-1.512-1.564l0-.052a1.364,1.364,0,0,1,1.421-1.3c.03,0,.059,0,.088.007Zm-.369-21.193a1.51,1.51,0,1,1-1.51,1.51A1.51,1.51,0,0,1,125.3,417.261Zm-3.02-45.3a1.51,1.51,0,1,1-1.51,1.51A1.511,1.511,0,0,1,122.279,371.961Zm3.02,31.71H114.73v-15.1H125.3Zm16.61-1.51a1.51,1.51,0,1,1,1.51-1.51A1.51,1.51,0,0,1,141.909,402.161Z"/>
      </g>
    </g>
  </g>
</svg>
