<svg xmlns="http://www.w3.org/2000/svg" width="417.425" height="162.7" viewBox="0 0 417.425 162.7">
  <g id="Grupo_158130" data-name="Grupo 158130" transform="translate(9940 -230.855)">
    <g id="Grupo_157990" data-name="Grupo 157990" transform="translate(-9950.518 -1638.484)">
      <g id="Grupo_154276" data-name="Grupo 154276" transform="translate(181.539 1869.34)">
        <path id="Rectángulo_296145" data-name="Rectángulo 296145" d="M13.549,0H61.668A13.549,13.549,0,0,1,75.218,13.549v67.8a0,0,0,0,1,0,0H0a0,0,0,0,1,0,0v-67.8A13.549,13.549,0,0,1,13.549,0Z" transform="translate(0 0)" fill="#dce736"/>
        <path id="Rectángulo_296146" data-name="Rectángulo 296146" d="M0,0H75.218a0,0,0,0,1,0,0V67.8A13.549,13.549,0,0,1,61.668,81.35H13.549A13.549,13.549,0,0,1,0,67.8V0A0,0,0,0,1,0,0Z" transform="translate(0 81.35)" fill="#75b62f"/>
        <g id="Grupo_154272" data-name="Grupo 154272" transform="translate(8.445 148.116)">
          <path id="Trazado_206411" data-name="Trazado 206411" d="M336.944,2142.739q-.109-.34-.234-.7l-.25-.715h-2.553l-.248.717q-.124.36-.232.7H331.9q.369-1.056.7-1.952t.648-1.688q.317-.792.625-1.5t.639-1.391h1.394q.322.679.635,1.391t.63,1.5q.317.792.649,1.688t.7,1.952Zm-1.767-5.054q-.049.142-.144.387t-.216.566q-.121.322-.271.708t-.3.81h1.869q-.15-.426-.291-.813t-.267-.708l-.222-.566Q335.236,2137.824,335.177,2137.685Z" transform="translate(-331.9 -2136.053)" fill="#fff"/>
          <path id="Trazado_206412" data-name="Trazado 206412" d="M347.271,2142.76a3.177,3.177,0,0,1-2.428-.887,3.535,3.535,0,0,1-.835-2.518,3.873,3.873,0,0,1,.255-1.448,3.125,3.125,0,0,1,.7-1.075,2.919,2.919,0,0,1,1.056-.665,3.816,3.816,0,0,1,1.33-.227,4.268,4.268,0,0,1,.754.062,4.826,4.826,0,0,1,.594.141,2.86,2.86,0,0,1,.424.165c.113.056.195.1.245.132l-.425,1.188a3.6,3.6,0,0,0-.7-.273,3.347,3.347,0,0,0-.91-.114,2.007,2.007,0,0,0-.665.114,1.513,1.513,0,0,0-.575.363,1.805,1.805,0,0,0-.4.646,2.7,2.7,0,0,0-.151.962,3.45,3.45,0,0,0,.1.845,1.788,1.788,0,0,0,.321.674,1.535,1.535,0,0,0,.58.448,2.065,2.065,0,0,0,.868.165,3.92,3.92,0,0,0,.575-.038,4.022,4.022,0,0,0,.453-.089,2.358,2.358,0,0,0,.349-.118c.1-.044.191-.085.273-.122l.405,1.179a3.429,3.429,0,0,1-.877.339A5.131,5.131,0,0,1,347.271,2142.76Z" transform="translate(-337.067 -2135.941)" fill="#fff"/>
          <path id="Trazado_206413" data-name="Trazado 206413" d="M359.1,2136.2h1.471v6.535H359.1v-2.772h-2.471v2.772h-1.472V2136.2h1.472v2.5H359.1Z" transform="translate(-341.827 -2136.053)" fill="#fff"/>
          <path id="Trazado_206414" data-name="Trazado 206414" d="M367.238,2136.2h1.471v6.535h-1.471Z" transform="translate(-346.981 -2136.053)" fill="#fff"/>
          <path id="Trazado_206415" data-name="Trazado 206415" d="M372.436,2142.739V2136.2h4.414v1.235h-2.942v1.283h2.612v1.207h-2.612v1.575h3.159v1.235Z" transform="translate(-349.199 -2136.053)" fill="#fff"/>
          <path id="Trazado_206416" data-name="Trazado 206416" d="M384.048,2142.739q-.39-.823-.77-1.709t-.721-1.752q-.341-.867-.628-1.66t-.495-1.415h1.622q.183.567.408,1.222t.457,1.3l.447,1.245q.214.595.409,1.028.184-.43.4-1.025t.451-1.245q.233-.65.457-1.3t.409-1.225h1.566q-.22.625-.506,1.416t-.625,1.658q-.34.868-.717,1.754t-.766,1.706Z" transform="translate(-353.04 -2136.053)" fill="#fff"/>
          <path id="Trazado_206417" data-name="Trazado 206417" d="M397.287,2142.739q-.109-.34-.234-.7c-.084-.24-.167-.477-.25-.715H394.25l-.248.717q-.124.36-.232.7h-1.528q.369-1.056.7-1.952t.648-1.688q.317-.792.624-1.5t.639-1.391h1.395q.322.679.635,1.391t.63,1.5q.317.792.649,1.688t.7,1.952Zm-1.767-5.054q-.049.142-.144.387t-.216.566q-.121.322-.271.708t-.3.81h1.869q-.15-.426-.291-.813t-.267-.708q-.126-.321-.222-.566T395.52,2137.685Z" transform="translate(-357.652 -2136.053)" fill="#fff"/>
          <path id="Trazado_206418" data-name="Trazado 206418" d="M407.434,2142.768q-.537,0-1.07-.033a7.449,7.449,0,0,1-1.108-.155v-6.337a9.349,9.349,0,0,1,.99-.127c.358-.029.692-.042,1-.042a6.827,6.827,0,0,1,1.146.089,2.707,2.707,0,0,1,.9.307,1.6,1.6,0,0,1,.589.571,1.666,1.666,0,0,1,.213.872,1.384,1.384,0,0,1-.755,1.235,1.543,1.543,0,0,1,.849.641,1.845,1.845,0,0,1,.226.915,1.756,1.756,0,0,1-.75,1.546A3.926,3.926,0,0,1,407.434,2142.768Zm-.745-4.055h.717a1.993,1.993,0,0,0,.971-.174.6.6,0,0,0,.292-.561.577.577,0,0,0-.3-.557,1.945,1.945,0,0,0-.887-.16c-.126,0-.261,0-.405,0s-.273.011-.386.023Zm0,1.122v1.688c.107.012.223.022.349.028s.264.009.415.009a2.543,2.543,0,0,0,1.066-.188.7.7,0,0,0,.406-.7.684.684,0,0,0-.34-.646,1.987,1.987,0,0,0-.971-.193Z" transform="translate(-363.206 -2135.997)" fill="#fff"/>
          <path id="Trazado_206419" data-name="Trazado 206419" d="M420.677,2141.476v1.264h-4.366V2136.2h1.471v5.271Z" transform="translate(-367.924 -2136.053)" fill="#fff"/>
          <path id="Trazado_206420" data-name="Trazado 206420" d="M425.573,2142.739V2136.2h4.414v1.235h-2.942v1.283h2.612v1.207h-2.612v1.575H430.2v1.235Z" transform="translate(-371.877 -2136.053)" fill="#fff"/>
        </g>
        <g id="Grupo_154273" data-name="Grupo 154273" transform="translate(15.86 19.205)">
          <path id="Trazado_206421" data-name="Trazado 206421" d="M377.98,1954q-.718-2.238-1.541-4.6t-1.643-4.7H358.025q-.813,2.35-1.63,4.711T354.872,1954H344.834q2.424-6.939,4.6-12.827t4.257-11.092q2.083-5.2,4.1-9.883t4.2-9.14h9.163q2.116,4.462,4.171,9.14t4.14,9.883q2.085,5.2,4.264,11.092T388.333,1954Zm-11.614-33.212q-.323.935-.946,2.545T364,1927.05q-.8,2.11-1.779,4.647t-2,5.321H372.5q-.986-2.792-1.909-5.337t-1.755-4.656q-.832-2.11-1.459-3.719T366.366,1920.784Z" transform="translate(-344.834 -1911.056)" fill="#fff"/>
        </g>
        <g id="Grupo_154275" data-name="Grupo 154275" transform="translate(11.439 94.711)">
          <g id="Grupo_154274" data-name="Grupo 154274">
            <path id="Trazado_206422" data-name="Trazado 206422" d="M378.643,2058.652a13.715,13.715,0,0,1,13.2-.346l2.46-2.46a17.042,17.042,0,0,0-15.916-.846,13.9,13.9,0,0,1,.281,2.755C378.668,2058.062,378.656,2058.357,378.643,2058.652Z" transform="translate(-354.733 -2047.32)" fill="#fff"/>
            <path id="Trazado_206423" data-name="Trazado 206423" d="M390.375,2070.483a13.518,13.518,0,0,1,1.525,6.267,13.731,13.731,0,1,1-27.463,0,9.632,9.632,0,0,1,.051-1.052,13.676,13.676,0,0,1-3.383,1.372,17.078,17.078,0,0,0,34.153-.32,16.727,16.727,0,0,0-2.422-8.728Z" transform="translate(-347.358 -2053.55)" fill="#fff"/>
            <path id="Trazado_206424" data-name="Trazado 206424" d="M382.958,2085.982a10.659,10.659,0,0,0,10.64-10.657,10.3,10.3,0,0,0-.771-3.938l-2.7,2.7a6.12,6.12,0,0,1,.117,1.241,7.3,7.3,0,1,1-7.289-7.29,6.178,6.178,0,0,1,1.24.117l2.7-2.7a10.293,10.293,0,0,0-3.938-.771,10.649,10.649,0,1,0,0,21.3Z" transform="translate(-352.135 -2052.125)" fill="#fff"/>
            <path id="Trazado_206425" data-name="Trazado 206425" d="M408.863,2051.383l-4.026-.688a.648.648,0,0,1-.53-.528l-.705-4.053a.494.494,0,0,0-.837-.265l-1.844,1.844a1.1,1.1,0,0,0-.321.776v3.544l-11.31,11.309a4.088,4.088,0,0,0-3.144.03,4.2,4.2,0,1,0,5.5,5.445,4.1,4.1,0,0,0,.012-3.1l11.312-11.311h3.543a1.1,1.1,0,0,0,.776-.322l1.84-1.84A.5.5,0,0,0,408.863,2051.383Z" transform="translate(-356.936 -2044.025)" fill="#fff"/>
            <path id="Trazado_206426" data-name="Trazado 206426" d="M357.981,2053.205a10.429,10.429,0,1,0-10.429,10.429A10.429,10.429,0,0,0,357.981,2053.205Zm-5.7-1.3-5.243,5.243a1.6,1.6,0,0,1-2.265,0l-2.6-2.606a1.6,1.6,0,0,1,2.265-2.265l1.471,1.472,4.11-4.109a1.6,1.6,0,1,1,2.265,2.265Z" transform="translate(-337.123 -2042.776)" fill="#fff"/>
          </g>
        </g>
      </g>
      <g id="Grupo_154280" data-name="Grupo 154280" transform="translate(352.725 1869.34)">
        <path id="Rectángulo_296147" data-name="Rectángulo 296147" d="M13.549,0H61.668A13.549,13.549,0,0,1,75.218,13.549v67.8a0,0,0,0,1,0,0H0a0,0,0,0,1,0,0v-67.8A13.549,13.549,0,0,1,13.549,0Z" transform="translate(0 0)" fill="#dce736"/>
        <path id="Rectángulo_296148" data-name="Rectángulo 296148" d="M0,0H75.218a0,0,0,0,1,0,0V67.8A13.549,13.549,0,0,1,61.668,81.35H13.549A13.549,13.549,0,0,1,0,67.8V0A0,0,0,0,1,0,0Z" transform="translate(0 81.35)" fill="#75b62f"/>
        <g id="Grupo_154277" data-name="Grupo 154277" transform="translate(7.597 148.116)">
          <path id="Trazado_206427" data-name="Trazado 206427" d="M634.466,2136.2v1.254h-1.971v5.281h-1.471v-5.281h-1.971V2136.2Z" transform="translate(-629.053 -2136.053)" fill="#fff"/>
          <path id="Trazado_206428" data-name="Trazado 206428" d="M640.141,2136.2h1.471v6.535h-1.471Z" transform="translate(-633.785 -2136.053)" fill="#fff"/>
          <path id="Trazado_206429" data-name="Trazado 206429" d="M646.934,2136.2q.169.311.392.768t.463.99q.242.533.478,1.09t.445,1.047q.207-.49.444-1.047t.477-1.09q.241-.532.463-.99t.393-.768h1.339q.094.65.174,1.457t.142,1.679q.061.872.113,1.749t.09,1.65h-1.434q-.028-.952-.076-2.074t-.141-2.264l-.379.877q-.208.482-.411.962t-.393.92q-.189.437-.322.75h-1.028q-.132-.312-.322-.75t-.393-.92q-.2-.482-.412-.962t-.378-.877q-.094,1.142-.141,2.264t-.076,2.074H645.01q.038-.773.09-1.65t.113-1.749q.061-.873.142-1.679t.174-1.457Z" transform="translate(-635.863 -2136.053)" fill="#fff"/>
          <path id="Trazado_206430" data-name="Trazado 206430" d="M660.1,2142.739V2136.2h4.413v1.235h-2.942v1.283h2.612v1.207h-2.612v1.575h3.159v1.235Z" transform="translate(-642.301 -2136.053)" fill="#fff"/>
          <path id="Trazado_206431" data-name="Trazado 206431" d="M669.161,2140.794H671.9v1.273h-2.735Z" transform="translate(-646.17 -2138.012)" fill="#fff"/>
          <path id="Trazado_206432" data-name="Trazado 206432" d="M677.837,2142.768q-.537,0-1.07-.033a7.449,7.449,0,0,1-1.108-.155v-6.337a9.33,9.33,0,0,1,.99-.127c.358-.029.692-.042,1-.042a6.826,6.826,0,0,1,1.146.089,2.713,2.713,0,0,1,.9.307,1.6,1.6,0,0,1,.589.571,1.666,1.666,0,0,1,.213.872,1.384,1.384,0,0,1-.755,1.235,1.543,1.543,0,0,1,.849.641,1.845,1.845,0,0,1,.227.915,1.756,1.756,0,0,1-.75,1.546A3.926,3.926,0,0,1,677.837,2142.768Zm-.745-4.055h.717a2,2,0,0,0,.971-.174.6.6,0,0,0,.292-.561.577.577,0,0,0-.3-.557,1.944,1.944,0,0,0-.887-.16c-.126,0-.261,0-.405,0s-.273.011-.387.023Zm0,1.122v1.688q.161.019.349.028c.125.007.264.009.415.009a2.545,2.545,0,0,0,1.066-.188.7.7,0,0,0,.405-.7.683.683,0,0,0-.34-.646,1.988,1.988,0,0,0-.971-.193Z" transform="translate(-648.943 -2135.997)" fill="#fff"/>
          <path id="Trazado_206433" data-name="Trazado 206433" d="M692.728,2139.355a4.012,4.012,0,0,1-.25,1.475,3.035,3.035,0,0,1-.684,1.066,2.792,2.792,0,0,1-1.032.646,3.756,3.756,0,0,1-1.288.218,3.658,3.658,0,0,1-1.263-.218,2.894,2.894,0,0,1-1.038-.646,3.026,3.026,0,0,1-.7-1.066,3.952,3.952,0,0,1-.254-1.475,3.83,3.83,0,0,1,.264-1.476,3.142,3.142,0,0,1,.712-1.07,2.92,2.92,0,0,1,1.038-.65,3.547,3.547,0,0,1,1.24-.218,3.641,3.641,0,0,1,1.264.218,2.863,2.863,0,0,1,1.037.65,3.063,3.063,0,0,1,.7,1.07A3.956,3.956,0,0,1,692.728,2139.355Zm-4.989,0a2.967,2.967,0,0,0,.118.867,1.975,1.975,0,0,0,.339.665,1.5,1.5,0,0,0,.542.429,1.857,1.857,0,0,0,1.466,0,1.491,1.491,0,0,0,.547-.429,1.988,1.988,0,0,0,.339-.665,2.974,2.974,0,0,0,.117-.867,3.024,3.024,0,0,0-.117-.873,1.974,1.974,0,0,0-.339-.669,1.489,1.489,0,0,0-.547-.43,1.719,1.719,0,0,0-.731-.151,1.672,1.672,0,0,0-.735.155,1.558,1.558,0,0,0-.542.434,1.976,1.976,0,0,0-.339.67A2.987,2.987,0,0,0,687.739,2139.355Z" transform="translate(-653.45 -2135.941)" fill="#fff"/>
          <path id="Trazado_206434" data-name="Trazado 206434" d="M702.2,2142.872a3.289,3.289,0,0,1-1.188-.194,2.21,2.21,0,0,1-.826-.538,2.146,2.146,0,0,1-.48-.82,3.368,3.368,0,0,1-.156-1.052V2136.2h1.471v3.942a2.195,2.195,0,0,0,.09.674,1.243,1.243,0,0,0,.245.453.876.876,0,0,0,.377.25,1.5,1.5,0,0,0,.486.075,1.189,1.189,0,0,0,.872-.33,1.541,1.541,0,0,0,.335-1.122V2136.2h1.471v4.064a3.325,3.325,0,0,1-.16,1.056,2.164,2.164,0,0,1-.491.825,2.193,2.193,0,0,1-.839.533A3.47,3.47,0,0,1,702.2,2142.872Z" transform="translate(-659.137 -2136.053)" fill="#fff"/>
          <path id="Trazado_206435" data-name="Trazado 206435" d="M715.726,2142.739q-.632-1.122-1.367-2.216a22.6,22.6,0,0,0-1.566-2.066v4.282h-1.453V2136.2h1.2q.311.311.688.764t.769.966q.39.515.778,1.066t.726,1.062V2136.2h1.462v6.535Z" transform="translate(-664.171 -2136.053)" fill="#fff"/>
          <path id="Trazado_206436" data-name="Trazado 206436" d="M729.5,2139.411a3.817,3.817,0,0,1-.264,1.48,2.741,2.741,0,0,1-.75,1.047,3.2,3.2,0,0,1-1.183.622,5.484,5.484,0,0,1-1.565.208q-.4,0-.925-.033a7.438,7.438,0,0,1-1.037-.136v-6.366a8.823,8.823,0,0,1,1.061-.127q.551-.033.948-.032a5.7,5.7,0,0,1,1.523.188,3.119,3.119,0,0,1,1.174.594,2.641,2.641,0,0,1,.754,1.038A3.929,3.929,0,0,1,729.5,2139.411Zm-4.253,2.074c.069.006.15.011.241.014s.2,0,.325,0a2.167,2.167,0,0,0,1.636-.557,2.128,2.128,0,0,0,.533-1.537,1.844,1.844,0,0,0-2.122-2.084c-.1,0-.2,0-.311,0a2.994,2.994,0,0,0-.3.023Z" transform="translate(-669.479 -2135.997)" fill="#fff"/>
        </g>
        <g id="Grupo_154278" data-name="Grupo 154278" transform="translate(19.825 19.205)">
          <path id="Trazado_206437" data-name="Trazado 206437" d="M685.952,1911.056v8.241H673V1954h-9.666v-34.7H650.385v-8.241Z" transform="translate(-650.385 -1911.056)" fill="#fff"/>
        </g>
        <g id="Grupo_154279" data-name="Grupo 154279" transform="translate(15.024 94.228)">
          <path id="Trazado_206438" data-name="Trazado 206438" d="M676.518,2056.2a1.836,1.836,0,0,0-1.837,1.836v10.549a1.835,1.835,0,0,0,.953,1.609l7.535,4.134a1.836,1.836,0,1,0,1.766-3.219l-6.581-3.612v-9.462A1.836,1.836,0,0,0,676.518,2056.2Z" transform="translate(-655.953 -2048.023)" fill="#fff"/>
          <path id="Trazado_206439" data-name="Trazado 206439" d="M698.858,2097.266a1.979,1.979,0,1,0,2.8-.1A1.979,1.979,0,0,0,698.858,2097.266Z" transform="translate(-666.044 -2065.279)" fill="#fff"/>
          <path id="Trazado_206440" data-name="Trazado 206440" d="M689.139,2104.262a1.979,1.979,0,1,0,2.622.981A1.98,1.98,0,0,0,689.139,2104.262Z" transform="translate(-661.629 -2068.457)" fill="#fff"/>
          <path id="Trazado_206441" data-name="Trazado 206441" d="M677.483,2107.007a1.979,1.979,0,1,0,2.047,1.909A1.979,1.979,0,0,0,677.483,2107.007Z" transform="translate(-656.333 -2069.705)" fill="#fff"/>
          <path id="Trazado_206442" data-name="Trazado 206442" d="M687.045,2062.134a1.1,1.1,0,0,0-.968-.577h-2.986a20.552,20.552,0,1,0-27.914,20.133,1.809,1.809,0,0,0,.66.123,1.836,1.836,0,0,0,.661-3.549,16.891,16.891,0,1,1,22.921-16.707h-2.89a1.1,1.1,0,0,0-.924,1.7l4.774,7.345a1.1,1.1,0,0,0,1.848,0L687,2063.26A1.1,1.1,0,0,0,687.045,2062.134Z" transform="translate(-642.01 -2041.934)" fill="#fff"/>
        </g>
      </g>
      <g id="Grupo_154284" data-name="Grupo 154284" transform="translate(267.049 1869.34)">
        <path id="Rectángulo_296149" data-name="Rectángulo 296149" d="M13.549,0H61.668A13.549,13.549,0,0,1,75.218,13.549v67.8a0,0,0,0,1,0,0H0a0,0,0,0,1,0,0v-67.8A13.549,13.549,0,0,1,13.549,0Z" transform="translate(0 0)" fill="#dce736"/>
        <path id="Rectángulo_296150" data-name="Rectángulo 296150" d="M0,0H75.218a0,0,0,0,1,0,0V67.8A13.549,13.549,0,0,1,61.668,81.35H13.549A13.549,13.549,0,0,1,0,67.8V0A0,0,0,0,1,0,0Z" transform="translate(0 81.35)" fill="#75b62f"/>
        <g id="Grupo_154281" data-name="Grupo 154281" transform="translate(13.557 148.192)">
          <path id="Trazado_206443" data-name="Trazado 206443" d="M491.9,2136.073a4.048,4.048,0,0,1,2.254.523,1.819,1.819,0,0,1,.782,1.627,1.84,1.84,0,0,1-.316,1.117,2.085,2.085,0,0,1-.91.674q.2.246.415.561t.429.66q.212.344.41.717t.367.731h-1.645l-.365-.651q-.185-.33-.378-.641t-.383-.589q-.189-.278-.379-.5h-.726v2.386h-1.471v-6.441a8.372,8.372,0,0,1,1-.132Q491.5,2136.073,491.9,2136.073Zm.085,1.254q-.161,0-.288.009l-.24.019v1.773h.414a2.505,2.505,0,0,0,1.188-.208.749.749,0,0,0,.358-.707.719.719,0,0,0-.363-.683A2.242,2.242,0,0,0,491.988,2137.327Z" transform="translate(-489.989 -2136.073)" fill="#fff"/>
          <path id="Trazado_206444" data-name="Trazado 206444" d="M500.962,2142.739V2136.2h4.413v1.235h-2.942v1.283h2.612v1.207h-2.612v1.575h3.16v1.235Z" transform="translate(-494.672 -2136.129)" fill="#fff"/>
          <path id="Trazado_206445" data-name="Trazado 206445" d="M515.3,2141.476v1.264h-4.366V2136.2H512.4v5.271Z" transform="translate(-498.926 -2136.129)" fill="#fff"/>
          <path id="Trazado_206446" data-name="Trazado 206446" d="M520.193,2142.739V2136.2h4.414v1.235h-2.942v1.283h2.612v1.207h-2.612v1.575h3.159v1.235Z" transform="translate(-502.879 -2136.129)" fill="#fff"/>
          <path id="Trazado_206447" data-name="Trazado 206447" d="M531.806,2142.739q-.39-.823-.77-1.709t-.721-1.752q-.342-.867-.628-1.66t-.495-1.415h1.622q.183.567.408,1.222t.458,1.3l.447,1.245q.213.595.409,1.028.184-.43.4-1.025t.452-1.245q.233-.65.457-1.3t.409-1.225h1.566q-.219.625-.505,1.416t-.625,1.658q-.34.868-.716,1.754t-.766,1.706Z" transform="translate(-506.72 -2136.129)" fill="#fff"/>
          <path id="Trazado_206448" data-name="Trazado 206448" d="M545.045,2142.739q-.109-.34-.235-.7c-.083-.24-.167-.477-.25-.715h-2.552q-.124.358-.248.717t-.232.7H540q.369-1.056.7-1.952t.648-1.688q.316-.792.624-1.5t.639-1.391h1.395q.322.679.635,1.391t.63,1.5q.317.792.649,1.688t.7,1.952Zm-1.768-5.054q-.049.142-.144.387t-.216.566q-.121.322-.271.708t-.3.81h1.869q-.15-.426-.291-.813t-.267-.708q-.127-.321-.222-.566T543.278,2137.685Z" transform="translate(-511.332 -2136.129)" fill="#fff"/>
          <path id="Trazado_206449" data-name="Trazado 206449" d="M557.4,2142.739q-.632-1.122-1.367-2.216a22.712,22.712,0,0,0-1.566-2.066v4.282h-1.453V2136.2h1.2q.311.311.688.764t.769.966q.39.515.778,1.066t.726,1.062V2136.2h1.461v6.535Z" transform="translate(-516.886 -2136.129)" fill="#fff"/>
          <path id="Trazado_206450" data-name="Trazado 206450" d="M569.876,2136.2v1.254h-1.971v5.281h-1.471v-5.281h-1.971V2136.2Z" transform="translate(-521.772 -2136.129)" fill="#fff"/>
        </g>
        <g id="Grupo_154282" data-name="Grupo 154282" transform="translate(20.042 18.957)">
          <path id="Trazado_206451" data-name="Trazado 206451" d="M513.881,1910.624q9.667,0,14.809,3.439t5.143,10.689a12.082,12.082,0,0,1-2.076,7.343,13.667,13.667,0,0,1-5.979,4.43q1.3,1.612,2.727,3.687t2.819,4.337q1.394,2.263,2.7,4.71t2.417,4.8H525.63q-1.182-2.106-2.4-4.276t-2.487-4.213q-1.275-2.045-2.519-3.873t-2.488-3.315h-4.771v15.677H501.3v-42.321a55.033,55.033,0,0,1,6.537-.867Q511.217,1910.625,513.881,1910.624Zm.558,8.241q-1.054,0-1.89.062t-1.58.124V1930.7H513.7q5.451,0,7.807-1.363a4.926,4.926,0,0,0,2.354-4.647,4.728,4.728,0,0,0-2.385-4.492A14.763,14.763,0,0,0,514.439,1918.865Z" transform="translate(-501.303 -1910.624)" fill="#fff"/>
        </g>
        <g id="Grupo_154283" data-name="Grupo 154283" transform="translate(11.015 98.195)">
          <path id="Trazado_206452" data-name="Trazado 206452" d="M502.217,2082.18a16.663,16.663,0,1,1,16.663-16.663A16.681,16.681,0,0,1,502.217,2082.18Zm0-30.088a13.426,13.426,0,1,0,13.426,13.426A13.441,13.441,0,0,0,502.217,2052.092Z" transform="translate(-485.555 -2048.855)" fill="#fff"/>
          <path id="Trazado_206453" data-name="Trazado 206453" d="M536.868,2082.18a16.663,16.663,0,1,1,16.663-16.663A16.682,16.682,0,0,1,536.868,2082.18Zm0-30.088a13.426,13.426,0,1,0,13.426,13.426A13.441,13.441,0,0,0,536.868,2052.092Z" transform="translate(-500.342 -2048.855)" fill="#fff"/>
        </g>
      </g>
      <g id="Grupo_154288" data-name="Grupo 154288" transform="translate(10.518 1869.34)">
        <path id="Rectángulo_296151" data-name="Rectángulo 296151" d="M13.549,0H61.668A13.549,13.549,0,0,1,75.218,13.549v67.8a0,0,0,0,1,0,0H0a0,0,0,0,1,0,0v-67.8A13.549,13.549,0,0,1,13.549,0Z" transform="translate(0 0)" fill="#dce736"/>
        <path id="Rectángulo_296152" data-name="Rectángulo 296152" d="M0,0H75.218a0,0,0,0,1,0,0V67.8A13.549,13.549,0,0,1,61.668,81.35H13.549A13.549,13.549,0,0,1,0,67.8V0A0,0,0,0,1,0,0Z" transform="translate(0 81.35)" fill="#75b62f"/>
        <g id="Grupo_154285" data-name="Grupo 154285" transform="translate(17.442 148.116)">
          <path id="Trazado_206454" data-name="Trazado 206454" d="M51.438,2141.5a2.147,2.147,0,0,0,.514-.052.938.938,0,0,0,.325-.142.47.47,0,0,0,.17-.212.752.752,0,0,0,.048-.273.632.632,0,0,0-.3-.533,4.316,4.316,0,0,0-1.037-.457c-.214-.076-.428-.163-.641-.26a2.385,2.385,0,0,1-.576-.368,1.772,1.772,0,0,1-.415-.537,1.692,1.692,0,0,1-.16-.769,1.907,1.907,0,0,1,.17-.816,1.744,1.744,0,0,1,.481-.618,2.207,2.207,0,0,1,.754-.392,3.414,3.414,0,0,1,1-.136,3.982,3.982,0,0,1,1.933.453l-.424,1.159a4.08,4.08,0,0,0-.608-.25,2.636,2.636,0,0,0-.807-.109,1.482,1.482,0,0,0-.759.146.494.494,0,0,0-.231.448.516.516,0,0,0,.085.3.828.828,0,0,0,.241.221,2.047,2.047,0,0,0,.358.179c.135.053.284.108.448.165q.509.189.886.373a2.379,2.379,0,0,1,.628.429,1.562,1.562,0,0,1,.372.575,2.309,2.309,0,0,1,.123.8,1.7,1.7,0,0,1-.641,1.419,3.1,3.1,0,0,1-1.934.505,5.367,5.367,0,0,1-.782-.052,5.127,5.127,0,0,1-.618-.127,3.446,3.446,0,0,1-.462-.161,3.273,3.273,0,0,1-.326-.16l.415-1.169a3.561,3.561,0,0,0,1.773.415Z" transform="translate(-49.25 -2135.941)" fill="#fff"/>
          <path id="Trazado_206455" data-name="Trazado 206455" d="M61.494,2136.073a4.094,4.094,0,0,1,2.245.513,1.864,1.864,0,0,1,.782,1.684,1.888,1.888,0,0,1-.792,1.7,4.1,4.1,0,0,1-2.263.523H61v2.188H59.532v-6.441a8.36,8.36,0,0,1,1.019-.132Q61.088,2136.073,61.494,2136.073Zm.095,1.254c-.107,0-.213,0-.316.009s-.194.013-.269.019v1.886h.462a2.5,2.5,0,0,0,1.15-.208.8.8,0,0,0,.386-.773.927.927,0,0,0-.1-.452.761.761,0,0,0-.283-.288,1.284,1.284,0,0,0-.448-.151A3.676,3.676,0,0,0,61.588,2137.327Z" transform="translate(-53.638 -2135.997)" fill="#fff"/>
          <path id="Trazado_206456" data-name="Trazado 206456" d="M70.127,2142.739V2136.2H74.54v1.235H71.6v1.283H74.21v1.207H71.6v1.575h3.159v1.235Z" transform="translate(-58.16 -2136.053)" fill="#fff"/>
          <path id="Trazado_206457" data-name="Trazado 206457" d="M82.866,2142.76a3.175,3.175,0,0,1-2.428-.887,3.533,3.533,0,0,1-.835-2.518,3.873,3.873,0,0,1,.255-1.448,3.124,3.124,0,0,1,.7-1.075,2.925,2.925,0,0,1,1.056-.665,3.816,3.816,0,0,1,1.33-.227,4.272,4.272,0,0,1,.754.062,4.812,4.812,0,0,1,.594.141,2.86,2.86,0,0,1,.424.165c.114.056.195.1.245.132l-.424,1.188a3.606,3.606,0,0,0-.7-.273,3.34,3.34,0,0,0-.91-.114,2,2,0,0,0-.665.114,1.516,1.516,0,0,0-.576.363,1.806,1.806,0,0,0-.4.646,2.715,2.715,0,0,0-.151.962,3.422,3.422,0,0,0,.1.845,1.786,1.786,0,0,0,.32.674,1.542,1.542,0,0,0,.58.448,2.062,2.062,0,0,0,.867.165,3.921,3.921,0,0,0,.576-.038,4.012,4.012,0,0,0,.452-.089,2.312,2.312,0,0,0,.349-.118c.1-.044.192-.085.273-.122l.406,1.179a3.43,3.43,0,0,1-.877.339A5.135,5.135,0,0,1,82.866,2142.76Z" transform="translate(-62.204 -2135.941)" fill="#fff"/>
          <path id="Trazado_206458" data-name="Trazado 206458" d="M90.757,2136.2h1.471v6.535H90.757Z" transform="translate(-66.964 -2136.053)" fill="#fff"/>
          <path id="Trazado_206459" data-name="Trazado 206459" d="M95.955,2142.739V2136.2h4.376v1.235h-2.9v1.368h2.584v1.236H97.426v2.7Z" transform="translate(-69.182 -2136.053)" fill="#fff"/>
          <path id="Trazado_206460" data-name="Trazado 206460" d="M105.4,2136.2h1.471v6.535H105.4Z" transform="translate(-73.212 -2136.053)" fill="#fff"/>
          <path id="Trazado_206461" data-name="Trazado 206461" d="M113.366,2142.76a3.177,3.177,0,0,1-2.428-.887,3.533,3.533,0,0,1-.835-2.518,3.873,3.873,0,0,1,.255-1.448,3.117,3.117,0,0,1,.7-1.075,2.918,2.918,0,0,1,1.056-.665,3.816,3.816,0,0,1,1.33-.227,4.272,4.272,0,0,1,.754.062,4.813,4.813,0,0,1,.594.141,2.87,2.87,0,0,1,.425.165c.113.056.195.1.245.132l-.424,1.188a3.6,3.6,0,0,0-.7-.273,3.348,3.348,0,0,0-.91-.114,2.006,2.006,0,0,0-.665.114,1.514,1.514,0,0,0-.575.363,1.806,1.806,0,0,0-.4.646,2.7,2.7,0,0,0-.151.962,3.45,3.45,0,0,0,.1.845,1.8,1.8,0,0,0,.32.674,1.542,1.542,0,0,0,.58.448,2.063,2.063,0,0,0,.868.165,3.918,3.918,0,0,0,.575-.038,4.023,4.023,0,0,0,.453-.089,2.357,2.357,0,0,0,.349-.118c.1-.044.191-.085.273-.122l.405,1.179a3.43,3.43,0,0,1-.877.339A5.132,5.132,0,0,1,113.366,2142.76Z" transform="translate(-75.22 -2135.941)" fill="#fff"/>
        </g>
        <g id="Grupo_154286" data-name="Grupo 154286" transform="translate(21.963 18.275)">
          <path id="Trazado_206462" data-name="Trazado 206462" d="M71.513,1945.993a13.918,13.918,0,0,0,3.377-.341,6.193,6.193,0,0,0,2.138-.929,3.114,3.114,0,0,0,1.115-1.394,4.975,4.975,0,0,0,.31-1.8,4.154,4.154,0,0,0-1.983-3.5,28.39,28.39,0,0,0-6.816-3q-2.107-.744-4.213-1.7a15.492,15.492,0,0,1-3.78-2.416,11.524,11.524,0,0,1-2.726-3.532,11.053,11.053,0,0,1-1.054-5.049,12.507,12.507,0,0,1,1.116-5.36,11.443,11.443,0,0,1,3.16-4.058,14.454,14.454,0,0,1,4.957-2.572,22.267,22.267,0,0,1,6.569-.9,26.258,26.258,0,0,1,12.7,2.974l-2.788,7.622a26.536,26.536,0,0,0-4-1.642,17.342,17.342,0,0,0-5.3-.712,9.717,9.717,0,0,0-4.988.96,3.24,3.24,0,0,0-1.518,2.943,3.4,3.4,0,0,0,.557,1.983,5.415,5.415,0,0,0,1.58,1.457,13.871,13.871,0,0,0,2.354,1.177q1.332.527,2.944,1.084,3.346,1.24,5.825,2.448a15.585,15.585,0,0,1,4.12,2.819,10.23,10.23,0,0,1,2.448,3.78,15.2,15.2,0,0,1,.805,5.267,11.185,11.185,0,0,1-4.213,9.325q-4.215,3.316-12.7,3.315a35.352,35.352,0,0,1-5.143-.341,33.289,33.289,0,0,1-4.058-.837A23.353,23.353,0,0,1,59.275,1952a22.968,22.968,0,0,1-2.138-1.054l2.726-7.684a24.209,24.209,0,0,0,4.741,1.89A24.592,24.592,0,0,0,71.513,1945.993Z" transform="translate(-57.137 -1909.435)" fill="#fff"/>
        </g>
        <g id="Grupo_154287" data-name="Grupo 154287" transform="translate(12.637 96.095)">
          <path id="Trazado_206463" data-name="Trazado 206463" d="M62.5,2071.433a1.727,1.727,0,0,0-1.11-2.176l-3.079-1-2.521-3.106a4.692,4.692,0,0,0-3.657-1.741H48.779c-3.959,0-6.961,6.777-7.788,8.854a1.727,1.727,0,0,0,3.209,1.278,24.347,24.347,0,0,1,2.568-4.795l-.238,6.743-2.721,12.668a1.918,1.918,0,0,0,1.473,2.279,1.978,1.978,0,0,0,.4.043,1.919,1.919,0,0,0,1.874-1.516l2.688-12.512H51v12.109a1.919,1.919,0,1,0,3.838,0v-12.9l-.229-6.49,1.347,1.66a1.724,1.724,0,0,0,.808.555l3.565,1.156A1.721,1.721,0,0,0,62.5,2071.433Z" transform="translate(-40.868 -2052.966)" fill="#fff"/>
          <circle id="Elipse_12957" data-name="Elipse 12957" cx="3.84" cy="3.84" r="3.84" transform="translate(5.193 2.707) rotate(-13.283)" fill="#fff"/>
          <path id="Trazado_206464" data-name="Trazado 206464" d="M105.522,2045.19H78.915a1.07,1.07,0,0,0-1.07,1.07v12.765l.112.038a4.267,4.267,0,0,1-.112,8.156v3.562a1.07,1.07,0,0,0,1.07,1.07H90.852v8.135H87.531a1.366,1.366,0,0,0,0,2.732H96.9a1.366,1.366,0,0,0,0-2.732h-3.32v-8.135h11.939a1.07,1.07,0,0,0,1.07-1.07v-24.52A1.07,1.07,0,0,0,105.522,2045.19Zm-6.25,21.53H85.163a1.366,1.366,0,0,1,0-2.731h14.11a1.366,1.366,0,1,1,0,2.731Zm0-6.832H85.163a1.366,1.366,0,0,1,0-2.731h14.11a1.366,1.366,0,1,1,0,2.731Zm0-6.832H85.163a1.366,1.366,0,0,1,0-2.732h14.11a1.366,1.366,0,1,1,0,2.732Z" transform="translate(-56.648 -2045.19)" fill="#fff"/>
        </g>
      </g>
      <g id="Grupo_154292" data-name="Grupo 154292" transform="translate(96.028 1869.34)">
        <path id="Rectángulo_296153" data-name="Rectángulo 296153" d="M13.549,0H61.668A13.549,13.549,0,0,1,75.218,13.549v67.8a0,0,0,0,1,0,0H0a0,0,0,0,1,0,0v-67.8A13.549,13.549,0,0,1,13.549,0Z" transform="translate(0 0)" fill="#dce736"/>
        <path id="Trazado_210644" data-name="Trazado 210644" d="M0,0H75.218V67.8A13.549,13.549,0,0,1,61.668,81.35H13.549A13.549,13.549,0,0,1,0,67.8Z" transform="translate(0 81.35)" fill="#75b62f"/>
        <g id="Grupo_154289" data-name="Grupo 154289" transform="translate(6.032 148.116)">
          <path id="Trazado_206465" data-name="Trazado 206465" d="M180.441,2136.2q.17.311.392.768t.464.99q.241.533.477,1.09t.444,1.047l.444-1.047q.237-.557.478-1.09t.463-.99q.223-.457.393-.768h1.339q.095.65.174,1.457t.142,1.679q.062.872.113,1.749t.089,1.65H184.42q-.028-.952-.075-2.074t-.142-2.264q-.17.4-.378.877t-.412.962q-.2.48-.393.92t-.322.75h-1.028q-.133-.312-.322-.75t-.393-.92q-.2-.482-.412-.962t-.378-.877q-.095,1.142-.142,2.264t-.076,2.074h-1.433q.037-.773.089-1.65t.113-1.749q.062-.873.142-1.679t.175-1.457Z" transform="translate(-178.517 -2136.053)" fill="#fff"/>
          <path id="Trazado_206466" data-name="Trazado 206466" d="M193.6,2142.739V2136.2h4.414v1.235h-2.942v1.283h2.612v1.207h-2.612v1.575h3.159v1.235Z" transform="translate(-184.955 -2136.053)" fill="#fff"/>
          <path id="Trazado_206467" data-name="Trazado 206467" d="M207.464,2142.739q-.109-.34-.234-.7l-.25-.715h-2.553l-.248.717q-.124.36-.232.7H202.42q.369-1.056.7-1.952t.648-1.688q.317-.792.625-1.5t.639-1.391h1.394q.322.679.635,1.391t.63,1.5q.317.792.649,1.688t.7,1.952Zm-1.767-5.054q-.049.142-.144.387t-.216.566q-.121.322-.271.708t-.3.81h1.869q-.15-.426-.291-.813t-.267-.708q-.126-.321-.222-.566T205.7,2137.685Z" transform="translate(-188.718 -2136.053)" fill="#fff"/>
          <path id="Trazado_206468" data-name="Trazado 206468" d="M217.226,2141.5a2.147,2.147,0,0,0,.514-.052.937.937,0,0,0,.325-.142.471.471,0,0,0,.17-.212.752.752,0,0,0,.047-.273.632.632,0,0,0-.3-.533,4.316,4.316,0,0,0-1.037-.457q-.322-.114-.641-.26a2.384,2.384,0,0,1-.576-.368,1.772,1.772,0,0,1-.415-.537,1.692,1.692,0,0,1-.16-.769,1.907,1.907,0,0,1,.17-.816,1.744,1.744,0,0,1,.481-.618,2.207,2.207,0,0,1,.754-.392,3.414,3.414,0,0,1,1-.136,3.982,3.982,0,0,1,1.933.453l-.424,1.159a4.08,4.08,0,0,0-.608-.25,2.636,2.636,0,0,0-.807-.109,1.482,1.482,0,0,0-.759.146.493.493,0,0,0-.231.448.516.516,0,0,0,.085.3.828.828,0,0,0,.241.221,2.047,2.047,0,0,0,.358.179c.135.053.284.108.448.165q.509.189.886.373a2.379,2.379,0,0,1,.628.429,1.561,1.561,0,0,1,.372.575,2.309,2.309,0,0,1,.123.8,1.7,1.7,0,0,1-.641,1.419,3.1,3.1,0,0,1-1.934.505,5.362,5.362,0,0,1-.782-.052,5.128,5.128,0,0,1-.618-.127,3.446,3.446,0,0,1-.462-.161,3.275,3.275,0,0,1-.326-.16l.415-1.169a3.707,3.707,0,0,0,.722.287A3.746,3.746,0,0,0,217.226,2141.5Z" transform="translate(-194.103 -2135.941)" fill="#fff"/>
          <path id="Trazado_206469" data-name="Trazado 206469" d="M227.806,2142.872a3.29,3.29,0,0,1-1.188-.194,2.205,2.205,0,0,1-.825-.538,2.146,2.146,0,0,1-.481-.82,3.368,3.368,0,0,1-.155-1.052V2136.2h1.471v3.942a2.215,2.215,0,0,0,.089.674,1.243,1.243,0,0,0,.245.453.879.879,0,0,0,.377.25,1.5,1.5,0,0,0,.486.075,1.188,1.188,0,0,0,.872-.33,1.541,1.541,0,0,0,.335-1.122V2136.2H230.5v4.064a3.327,3.327,0,0,1-.161,1.056,2.165,2.165,0,0,1-.491.825,2.19,2.19,0,0,1-.839.533A3.469,3.469,0,0,1,227.806,2142.872Z" transform="translate(-198.421 -2136.053)" fill="#fff"/>
          <path id="Trazado_206470" data-name="Trazado 206470" d="M238.866,2136.073a4.046,4.046,0,0,1,2.253.523,1.818,1.818,0,0,1,.783,1.627,1.84,1.84,0,0,1-.316,1.117,2.084,2.084,0,0,1-.91.674q.2.246.415.561t.429.66q.212.344.41.717t.368.731h-1.645l-.365-.651q-.185-.33-.378-.641t-.383-.589q-.189-.278-.379-.5h-.726v2.386h-1.471v-6.441a8.359,8.359,0,0,1,1-.132Q238.459,2136.073,238.866,2136.073Zm.085,1.254c-.107,0-.2,0-.288.009l-.241.019v1.773h.415a2.505,2.505,0,0,0,1.188-.208.749.749,0,0,0,.358-.707.719.719,0,0,0-.363-.683A2.244,2.244,0,0,0,238.95,2137.327Z" transform="translate(-203.455 -2135.997)" fill="#fff"/>
          <path id="Trazado_206471" data-name="Trazado 206471" d="M252.326,2142.739q-.109-.34-.234-.7l-.25-.715h-2.553l-.248.717q-.124.36-.232.7h-1.528q.369-1.056.7-1.952t.648-1.688q.317-.792.625-1.5t.639-1.391h1.394q.322.679.635,1.391t.63,1.5q.317.792.649,1.688t.7,1.952Zm-1.767-5.054q-.049.142-.144.387t-.216.566q-.121.322-.271.708t-.3.81h1.869q-.15-.426-.291-.813t-.267-.708q-.126-.321-.222-.566T250.559,2137.685Z" transform="translate(-207.864 -2136.053)" fill="#fff"/>
          <path id="Trazado_206472" data-name="Trazado 206472" d="M262.473,2142.768q-.537,0-1.07-.033a7.449,7.449,0,0,1-1.108-.155v-6.337a9.35,9.35,0,0,1,.99-.127c.359-.029.692-.042,1-.042a6.822,6.822,0,0,1,1.146.089,2.706,2.706,0,0,1,.9.307,1.607,1.607,0,0,1,.59.571,1.672,1.672,0,0,1,.212.872,1.384,1.384,0,0,1-.755,1.235,1.543,1.543,0,0,1,.849.641,1.845,1.845,0,0,1,.226.915,1.756,1.756,0,0,1-.75,1.546A3.927,3.927,0,0,1,262.473,2142.768Zm-.745-4.055h.717a1.993,1.993,0,0,0,.971-.174.6.6,0,0,0,.292-.561.577.577,0,0,0-.3-.557,1.941,1.941,0,0,0-.886-.16c-.126,0-.261,0-.406,0s-.273.011-.386.023Zm0,1.122v1.688q.16.019.349.028c.126.007.264.009.415.009a2.543,2.543,0,0,0,1.066-.188.7.7,0,0,0,.406-.7.684.684,0,0,0-.34-.646,1.986,1.986,0,0,0-.971-.193Z" transform="translate(-213.417 -2135.997)" fill="#fff"/>
          <path id="Trazado_206473" data-name="Trazado 206473" d="M275.716,2141.476v1.264H271.35V2136.2h1.471v5.271Z" transform="translate(-218.135 -2136.053)" fill="#fff"/>
          <path id="Trazado_206474" data-name="Trazado 206474" d="M280.612,2142.739V2136.2h4.414v1.235h-2.942v1.283H284.7v1.207h-2.612v1.575h3.159v1.235Z" transform="translate(-222.088 -2136.053)" fill="#fff"/>
        </g>
        <g id="Grupo_154290" data-name="Grupo 154290" transform="translate(13.505 19.205)">
          <path id="Trazado_206475" data-name="Trazado 206475" d="M204.2,1911.056q1.118,2.045,2.578,5.05t3.044,6.507q1.584,3.5,3.138,7.156t2.92,6.878q1.366-3.221,2.92-6.878t3.137-7.156q1.585-3.5,3.045-6.507t2.578-5.05h8.8q.619,4.275,1.146,9.573t.929,11.03q.4,5.732.743,11.494t.589,10.844h-9.418q-.186-6.258-.5-13.632t-.929-14.871q-1.12,2.6-2.487,5.763t-2.7,6.32q-1.336,3.16-2.579,6.041t-2.114,4.926h-6.754q-.871-2.045-2.114-4.926t-2.58-6.041q-1.336-3.161-2.7-6.32t-2.486-5.763q-.62,7.5-.929,14.871t-.5,13.632h-9.418q.247-5.081.588-10.844t.744-11.494q.4-5.731.929-11.03t1.146-9.573Z" transform="translate(-191.555 -1911.056)" fill="#fff"/>
        </g>
        <g id="Grupo_154291" data-name="Grupo 154291" transform="translate(20.411 92.033)">
          <path id="Trazado_206476" data-name="Trazado 206476" d="M237.088,2049.8H231.46v3.411h2.217a.923.923,0,0,1,.91.938v30.275a.9.9,0,0,1-.91.91H207.951a.922.922,0,0,1-.938-.91v-30.275a.947.947,0,0,1,.938-.938h2.189V2049.8h-5.6a.946.946,0,0,0-.938.938v37.1a.922.922,0,0,0,.938.91h32.549a.9.9,0,0,0,.91-.91v-37.1A.922.922,0,0,0,237.088,2049.8Z" transform="translate(-203.601 -2043.097)" fill="#fff"/>
          <path id="Trazado_206477" data-name="Trazado 206477" d="M220.884,2049.454H234.7a.9.9,0,0,0,.9-.9v-4.287a.9.9,0,0,0-.9-.9h-3.4v-1.751a3.5,3.5,0,1,0-7.005,0v1.751h-3.4a.9.9,0,0,0-.9.9v4.287A.9.9,0,0,0,220.884,2049.454Zm6.907-9.124a1.278,1.278,0,1,1-1.278,1.279A1.282,1.282,0,0,1,227.791,2040.329Z" transform="translate(-210.591 -2038.105)" fill="#fff"/>
          <path id="Trazado_206478" data-name="Trazado 206478" d="M218.918,2089.862H234.54a1.421,1.421,0,0,0,0-2.843H218.918a1.421,1.421,0,1,0,0,2.843Z" transform="translate(-209.531 -2058.98)" fill="#fff"/>
          <path id="Trazado_206479" data-name="Trazado 206479" d="M218.918,2101.3H234.54a1.421,1.421,0,0,0,0-2.843H218.918a1.421,1.421,0,1,0,0,2.843Z" transform="translate(-209.531 -2063.86)" fill="#fff"/>
          <path id="Rectángulo_296155" data-name="Rectángulo 296155" d="M.967,0H3.193A.968.968,0,0,1,4.16.968V3.731a.968.968,0,0,1-.968.968H.967A.967.967,0,0,1,0,3.732V.967A.967.967,0,0,1,.967,0Z" transform="translate(8.86 20.225)" fill="#fff"/>
          <path id="Rectángulo_296156" data-name="Rectángulo 296156" d="M.991,0H3.168A.992.992,0,0,1,4.16.992V6.55a.992.992,0,0,1-.992.992H.992A.992.992,0,0,1,0,6.55V.991A.991.991,0,0,1,.991,0Z" transform="translate(15.118 17.382)" fill="#fff"/>
          <path id="Rectángulo_296157" data-name="Rectángulo 296157" d="M.991,0H3.168A.992.992,0,0,1,4.16.992v8.4a.991.991,0,0,1-.991.991H.992A.992.992,0,0,1,0,9.392V.991A.991.991,0,0,1,.991,0Z" transform="translate(21.377 14.539)" fill="#fff"/>
        </g>
      </g>
    </g>
  </g>
</svg>
