<svg xmlns="http://www.w3.org/2000/svg" width="100.139" height="101.129" viewBox="0 0 100.139 101.129">
  <g id="Grupo_158106" data-name="Grupo 158106" transform="translate(10712 4840.598)">
    <g id="Grupo_157320" data-name="Grupo 157320" transform="translate(-10714.51 -5238.111)">
      <g id="Grupo_157318" data-name="Grupo 157318" transform="translate(4.126 400.12)">
        <g id="Grupo_157299" data-name="Grupo 157299" transform="translate(3.23 9.691)">
          <g id="Grupo_157298" data-name="Grupo 157298">
            <path id="Trazado_210532" data-name="Trazado 210532" d="M66.14,479.27v-.146a5.451,5.451,0,0,0-3.391-5.055c-.017-.016-.033-.016-.065-.032a5.443,5.443,0,0,0-5.96,1.179l-.113.113-9.142-9.142.113-.113a5.442,5.442,0,0,0,1.179-5.96c-.016-.032-.016-.048-.032-.064a5.451,5.451,0,0,0-5.056-3.391h-.145V443.737h.145a5.455,5.455,0,0,0,5.056-3.376l.032-.1a5.417,5.417,0,0,0-1.179-5.944l-.113-.113,8.189-8.188-1.066-2.132a13.121,13.121,0,0,1-1.373-5.847,12.931,12.931,0,0,1,1.792-6.605H9.611A1.615,1.615,0,0,0,8,413.05V485.73H72.6V479.27Z" transform="translate(-7.996 -411.435)" fill="#e6e9ed"/>
          </g>
        </g>
        <g id="Grupo_157300" data-name="Grupo 157300" transform="translate(9.691 45.224)">
          <path id="Trazado_210533" data-name="Trazado 210533" d="M28.23,453.276v9.691a1.619,1.619,0,0,1-1.615,1.615H16.925a1.619,1.619,0,0,1-1.615-1.615v-9.691a1.619,1.619,0,0,1,1.615-1.615h9.691a1.62,1.62,0,0,1,1.615,1.615Z" transform="translate(-15.31 -451.661)" fill="#75b62f"/>
        </g>
        <g id="Grupo_157301" data-name="Grupo 157301" transform="translate(9.691 16.151)">
          <path id="Trazado_210534" data-name="Trazado 210534" d="M49.227,428.439h-32.3a1.615,1.615,0,0,1-1.615-1.615v-6.461a1.616,1.616,0,0,1,1.615-1.616h32.3Z" transform="translate(-15.31 -418.748)" fill="#75b62f"/>
        </g>
        <g id="Grupo_157302" data-name="Grupo 157302" transform="translate(9.691 64.604)">
          <path id="Trazado_210535" data-name="Trazado 210535" d="M28.23,475.218v9.691a1.62,1.62,0,0,1-1.615,1.615H16.925a1.619,1.619,0,0,1-1.615-1.615v-9.691a1.62,1.62,0,0,1,1.615-1.616h9.691A1.62,1.62,0,0,1,28.23,475.218Z" transform="translate(-15.31 -473.602)" fill="#75b62f"/>
        </g>
        <g id="Grupo_157303" data-name="Grupo 157303" transform="translate(19.381 83.986)">
          <path id="Trazado_210536" data-name="Trazado 210536" d="M74.734,495.608V508.4a2.768,2.768,0,0,1-.63.065H26.28V495.544H74.1A2.77,2.77,0,0,1,74.734,495.608Z" transform="translate(-26.28 -495.544)" fill="#75b62f"/>
        </g>
        <g id="Grupo_157304" data-name="Grupo 157304" transform="translate(12.92 83.986)">
          <path id="Trazado_210537" data-name="Trazado 210537" d="M18.966,495.544h6.461v12.921H18.966Z" transform="translate(-18.966 -495.544)" fill="#ffeaa7"/>
        </g>
        <g id="Grupo_157305" data-name="Grupo 157305" transform="translate(0 83.986)">
          <path id="Trazado_210538" data-name="Trazado 210538" d="M7.569,496.416a6.447,6.447,0,0,1,3.23-.872h6.46v12.921H10.8a6.465,6.465,0,0,1-4.571-11.032,6.81,6.81,0,0,1,1.341-1.018Z" transform="translate(-4.339 -495.544)" fill="#ccd1d9"/>
        </g>
        <g id="Grupo_157306" data-name="Grupo 157306" transform="translate(67.835 84.051)">
          <path id="Trazado_210539" data-name="Trazado 210539" d="M95.735,499.945a2.154,2.154,0,0,1,0,4.135l-14.02,4.168a3.822,3.822,0,0,1-.581.161V495.617a3.935,3.935,0,0,1,.581.162Z" transform="translate(-81.134 -495.617)" fill="#ccd1d9"/>
        </g>
        <g id="Grupo_157307" data-name="Grupo 157307" transform="translate(63.587 58.144)">
          <path id="Trazado_210540" data-name="Trazado 210540" d="M82.188,466.288l2.632,9.223a19.507,19.507,0,0,1-8.5,0l2.633-9.223Z" transform="translate(-76.325 -466.288)" fill="#e6e9ed"/>
        </g>
        <g id="Grupo_157308" data-name="Grupo 157308" transform="translate(64.718 50.069)">
          <path id="Trazado_210541" data-name="Trazado 210541" d="M80.722,457.146l3.117,2.084-1.5,5.992h-3.23l-1.5-5.992Z" transform="translate(-77.605 -457.146)" fill="#ccd1d9"/>
        </g>
        <g id="Grupo_157309" data-name="Grupo 157309" transform="translate(69.45 46.16)">
          <path id="Trazado_210542" data-name="Trazado 210542" d="M96.062,461.443l1.065,4.829A19.377,19.377,0,0,1,85.6,473.928l-2.632-9.223,1.5-5.992,1.729,1.147,2.858-7.139a12.262,12.262,0,0,1,3.505,2.423,12.7,12.7,0,0,1,3.505,6.3Z" transform="translate(-82.963 -452.721)" fill="#ff826e"/>
        </g>
        <g id="Grupo_157310" data-name="Grupo 157310" transform="translate(52.055 46.16)">
          <path id="Trazado_210543" data-name="Trazado 210543" d="M75.932,458.713l1.5,5.992L74.8,473.928a19.377,19.377,0,0,1-11.532-7.656l1.066-4.829a12.7,12.7,0,0,1,3.505-6.3,12.258,12.258,0,0,1,3.5-2.423L74.2,459.86Z" transform="translate(-63.27 -452.721)" fill="#ff826e"/>
        </g>
        <g id="Grupo_157311" data-name="Grupo 157311" transform="translate(60.13 45.224)">
          <path id="Trazado_210544" data-name="Trazado 210544" d="M87.821,452.6l-2.858,7.139-1.729-1.147-3.117-2.084L77,458.59l-1.728,1.147L72.412,452.6a12.353,12.353,0,0,1,2.859-.936l4.845,3.23,4.846-3.23a12.36,12.36,0,0,1,2.858.936Z" transform="translate(-72.412 -451.661)" fill="#fc6e51"/>
        </g>
        <g id="Grupo_157312" data-name="Grupo 157312" transform="translate(80.352 25.842)">
          <path id="Trazado_210545" data-name="Trazado 210545" d="M98.939,429.719a3.24,3.24,0,0,1,3.23,3.23,3.254,3.254,0,0,1-3.23,3.23H95.305a13.328,13.328,0,0,0,.4-3.23v-3.23Z" transform="translate(-95.305 -429.719)" fill="#f0d0b4"/>
        </g>
        <g id="Grupo_157313" data-name="Grupo 157313" transform="translate(54.914 16.151)">
          <path id="Trazado_210546" data-name="Trazado 210546" d="M92.349,428.439v3.23a13.328,13.328,0,0,1-.4,3.23c-.1.372-.21.727-.339,1.082a12.862,12.862,0,0,1-8.576,8.092,12.811,12.811,0,0,1-7.2,0,12.834,12.834,0,0,1-8.576-8.092c-.13-.355-.243-.71-.339-1.082a13.284,13.284,0,0,1-.4-3.23v-6.59a6.321,6.321,0,0,1,6.331-6.332,6.235,6.235,0,0,1,3.246.9l6.574,3.941V421.7a9.943,9.943,0,0,0-.323-2.585h.017a18.745,18.745,0,0,1,9.142,6.574l.856,1.131Z" transform="translate(-66.507 -418.748)" fill="#f0d0b4"/>
        </g>
        <g id="Grupo_157314" data-name="Grupo 157314" transform="translate(62.99 41.476)">
          <path id="Trazado_210547" data-name="Trazado 210547" d="M84.1,447.435l1.244,3.731-4.846,3.23-4.845-3.23,1.244-3.731v-.016a12.811,12.811,0,0,0,7.2,0Z" transform="translate(-75.649 -447.419)" fill="#f0d0b4"/>
        </g>
        <g id="Grupo_157315" data-name="Grupo 157315" transform="translate(38.763 23.823)">
          <path id="Trazado_210548" data-name="Trazado 210548" d="M106.367,445.6v12.921h-.146a5.451,5.451,0,0,0-5.055,3.391c-.016.017-.016.033-.033.064a5.442,5.442,0,0,0,1.179,5.96l.113.113L93.284,477.2l-.113-.113a5.443,5.443,0,0,0-5.96-1.179c-.033.016-.049.016-.064.032a5.452,5.452,0,0,0-3.392,5.055v.146H70.833v-.146a5.451,5.451,0,0,0-3.391-5.055c-.017-.016-.033-.016-.065-.032a5.443,5.443,0,0,0-5.96,1.179l-.113.113-9.142-9.142.113-.113a5.442,5.442,0,0,0,1.179-5.96c-.016-.032-.016-.048-.032-.064a5.452,5.452,0,0,0-5.056-3.391h-.145V445.6h.145a5.455,5.455,0,0,0,5.056-3.376l.032-.1a5.417,5.417,0,0,0-1.179-5.944l-.113-.113,8.189-8.188.791,1.566a3.24,3.24,0,0,0-3.23,3.23,3.253,3.253,0,0,0,3.23,3.23h3.634c.1.372.209.727.339,1.082a19.381,19.381,0,1,0,24.356,0c.129-.355.242-.71.339-1.082h3.634a3.254,3.254,0,0,0,3.23-3.23,3.24,3.24,0,0,0-3.23-3.23l.291-1.728.049-.291,8.641,8.641-.113.113a5.442,5.442,0,0,0-1.179,5.96c.017.032.017.049.033.065a5.452,5.452,0,0,0,5.055,3.392Z" transform="translate(-48.222 -427.434)" fill="#dce736"/>
        </g>
        <g id="Grupo_157316" data-name="Grupo 157316" transform="translate(48.454)">
          <path id="Trazado_210549" data-name="Trazado 210549" d="M91.5,424.691l-.856-1.131a18.745,18.745,0,0,0-9.142-6.574h-.017a9.943,9.943,0,0,1,.323,2.585v1.889l-6.574-3.941a6.235,6.235,0,0,0-3.246-.9,6.321,6.321,0,0,0-6.331,6.332v3.359h-3.23l-.791-1.566-1.066-2.132a13.121,13.121,0,0,1-1.373-5.847,12.931,12.931,0,0,1,1.792-6.605,12.338,12.338,0,0,1,2.035-2.633,12.983,12.983,0,0,1,9.239-3.827h8.915a45.22,45.22,0,0,0,16.781-3.23l-1.616,8.075,4.846,1.616a33.264,33.264,0,0,0-6.121,14.132l-.049.291-.291,1.728H91.5Z" transform="translate(-59.193 -400.464)" fill="#b27946"/>
        </g>
        <g id="Grupo_157317" data-name="Grupo 157317" transform="translate(48.454 25.842)">
          <path id="Trazado_210550" data-name="Trazado 210550" d="M66.057,436.18H62.423a3.253,3.253,0,0,1-3.23-3.23,3.24,3.24,0,0,1,3.23-3.23h3.23v3.23A13.284,13.284,0,0,0,66.057,436.18Z" transform="translate(-59.193 -429.719)" fill="#f0d0b4"/>
        </g>
      </g>
      <g id="Grupo_157319" data-name="Grupo 157319" transform="translate(2.51 397.513)">
        <circle id="Elipse_13002" data-name="Elipse 13002" cx="1.615" cy="1.615" r="1.615" transform="translate(74.296 26.833)"/>
        <circle id="Elipse_13003" data-name="Elipse 13003" cx="1.615" cy="1.615" r="1.615" transform="translate(61.375 26.833)"/>
        <path id="Trazado_210551" data-name="Trazado 210551" d="M83.534,436.557a3.612,3.612,0,0,1-6.461,0l-.17-.341-2.889,1.445.17.339a6.842,6.842,0,0,0,12.239,0l.17-.341L83.7,436.214Z" transform="translate(-10.853 -402.029)"/>
        <path id="Trazado_210552" data-name="Trazado 210552" d="M102.5,440.5h-1.615a3.927,3.927,0,0,1-2.654-6.772l1.142-1.142-9.164-9.164a31.654,31.654,0,0,1,5.658-12.641l1.345-1.793-5.619-1.874,1.921-9.6-2.768,1.108a43.367,43.367,0,0,1-16.174,3.114H65.646A14.68,14.68,0,0,0,53.488,408.2H8.971a3.233,3.233,0,0,0-3.23,3.23v72.722a8.048,8.048,0,0,0,4.846,14.494H71.339a4.5,4.5,0,0,0,1.657-.3l14.026-4.156a3.779,3.779,0,0,0,0-7.246l-13.884-4.1a4.786,4.786,0,0,0-1.8-.348H10.586a8.051,8.051,0,0,0-1.616.163V411.425H51.855a14.567,14.567,0,0,0,.66,11.558l.546,1.093-7.369,7.367-1.035,1.248,1.142,1.142a3.926,3.926,0,0,1-2.912,6.664H41.272v6.461H31.581v3.23h9.691v4.846l.151,1.615h1.616a3.927,3.927,0,0,1,2.654,6.772l-1.142,1.141,10.279,10.279,1.248,1.035,1.142-1.142a3.927,3.927,0,0,1,6.666,2.911v1.615H78.421l1.616-.151v-1.616a3.925,3.925,0,0,1,6.77-2.654l1.142,1.142L98.227,465.7l1.036-1.248-1.142-1.142a3.926,3.926,0,0,1,2.912-6.664h1.615V442.113ZM73.576,486.33l3.23.957v6.566l-3.23.959Zm-3.23,9.081H25.122v-9.691H70.346Zm-48.454,0h-3.23v-9.691h3.23Zm64.6-4.845a.545.545,0,0,1-.392.525l-6.068,1.8v-4.651l6.068,1.8A.546.546,0,0,1,86.5,490.567Zm-71.065-4.846v9.691H10.586a4.845,4.845,0,1,1,0-9.691Zm66.694-31.829a7.078,7.078,0,0,0-2.088,5.04v5.447a17.657,17.657,0,0,1-2.711,1.129l-2.078-7.274.838-3.353,1.48.987,2.9-7.255a11.015,11.015,0,0,1,4.622,6.736L86,459.425a17.952,17.952,0,0,1-2.729,2.843v-3.335a3.873,3.873,0,0,1,1.142-2.757Zm-20.328,0-2.284,2.285a3.866,3.866,0,0,1,1.142,2.755v3.335a17.913,17.913,0,0,1-2.729-2.843l.906-4.077a11.012,11.012,0,0,1,4.622-6.738l2.9,7.255,1.48-.987.838,3.353L66.6,465.506a17.414,17.414,0,0,1-2.712-1.127v-5.447a7.078,7.078,0,0,0-2.088-5.04ZM55.81,427.577h1.615v1.615a14.372,14.372,0,0,0,.1,1.616H55.81a1.615,1.615,0,1,1,0-3.23ZM76.8,419.191a17.045,17.045,0,0,1,5.935,4.993l.526.7v4.308a11.306,11.306,0,1,1-22.611,0v-6.6a4.707,4.707,0,0,1,7.131-4.038l9.021,5.41v-4.745C76.806,419.214,76.8,419.2,76.8,419.191Zm-4.489,37.458h-.71l-.918-3.671,1.273-.848,1.273.848Zm-5.486-9.555,3.431,2.287-2.386,1.589-1.5-3.751c.151-.045.3-.085.455-.125Zm9.216,3.878-2.385-1.589,3.43-2.287c.154.04.306.08.456.125Zm-1.161-6.287-2.924,1.949-2.923-1.949.4-1.191a14.429,14.429,0,0,0,2.525.234,14.611,14.611,0,0,0,2.526-.234Zm-8.554-2.092-.462,1.386a14.271,14.271,0,0,0-10.193,10.67l-.148.66a17.723,17.723,0,0,1,3.7-19.118,14.621,14.621,0,0,0,7.1,6.4Zm5.235,17.287h.793l1.8,6.31a17.73,17.73,0,0,1-2.2.15,18.082,18.082,0,0,1-2.2-.15Zm16.828-4.571-.147-.66A14.269,14.269,0,0,0,78.053,443.98l-.462-1.386a14.627,14.627,0,0,0,7.1-6.4,17.722,17.722,0,0,1,3.7,19.116Zm-1.992-24.5a14.372,14.372,0,0,0,.1-1.616v-1.615h1.616a1.615,1.615,0,0,1,0,3.23ZM65.646,404.965h8.923A46.53,46.53,0,0,0,89.2,402.621l-1.331,6.656,4.143,1.382a34.918,34.918,0,0,0-5.2,13.313l-.064.375H86.5v-5.122a12.563,12.563,0,0,0-3.7-8.942l-2.284,2.284a9.353,9.353,0,0,1,2.757,6.658v.671a20.249,20.249,0,0,0-7.037-4.451,12.574,12.574,0,0,0-3.127-5.16l-2.284,2.284a9.349,9.349,0,0,1,2.707,5.666l-4.077-2.445A7.937,7.937,0,0,0,57.426,422.6v1.751h-.617l-1.4-2.811a11.448,11.448,0,0,1,10.24-16.573ZM99.418,453.57a7.158,7.158,0,0,0-4.5,10.871l-7.081,7.079a7.106,7.106,0,0,0-6.651-.573,7.03,7.03,0,0,0-4.215,5.082H66.965a7.112,7.112,0,0,0-4.3-5.109,7.031,7.031,0,0,0-6.575.612l-7.081-7.079a7.117,7.117,0,0,0,.575-6.651,7.035,7.035,0,0,0-5.083-4.218v-10.01a7.132,7.132,0,0,0,5.117-4.316A7.024,7.024,0,0,0,49,432.7l2.176-2.176a4.836,4.836,0,0,0,4.634,3.509h1.016a21,21,0,1,0,30.271,0h1.016a4.834,4.834,0,0,0,4.634-3.51l2.164,2.165a7.117,7.117,0,0,0-.575,6.651,7.033,7.033,0,0,0,5.083,4.217Z" transform="translate(-2.51 -397.513)"/>
        <path id="Trazado_210553" data-name="Trazado 210553" d="M31.766,501.029H35v3.23h-3.23Z" transform="translate(-5.923 -409.591)"/>
        <path id="Trazado_210554" data-name="Trazado 210554" d="M39.08,501.029h3.229v3.23H39.08Z" transform="translate(-6.777 -409.591)"/>
        <path id="Trazado_210555" data-name="Trazado 210555" d="M46.393,501.029h3.23v3.23h-3.23Z" transform="translate(-7.63 -409.591)"/>
        <path id="Trazado_210556" data-name="Trazado 210556" d="M53.707,501.029h3.23v3.23h-3.23Z" transform="translate(-8.483 -409.591)"/>
        <path id="Trazado_210557" data-name="Trazado 210557" d="M26.4,471.623H16.711a3.233,3.233,0,0,0-3.23,3.23v9.691a3.233,3.233,0,0,0,3.23,3.229H26.4a3.233,3.233,0,0,0,3.23-3.229v-9.022l2.757-2.757-2.284-2.284-1.786,1.786A3.21,3.21,0,0,0,26.4,471.623Zm0,12.921H16.711v-9.691h9.022l-4.177,4.176-2.088-2.088-2.283,2.283,4.372,4.372,4.846-4.845Z" transform="translate(-3.79 -406.027)"/>
        <path id="Trazado_210558" data-name="Trazado 210558" d="M35.423,475.431h12.92v3.23H35.423Z" transform="translate(-6.35 -406.604)"/>
        <path id="Trazado_210559" data-name="Trazado 210559" d="M35.423,482.745h6.46v3.23h-6.46Z" transform="translate(-6.35 -407.458)"/>
        <path id="Trazado_210560" data-name="Trazado 210560" d="M46.393,482.745h3.23v3.23h-3.23Z" transform="translate(-7.63 -407.458)"/>
        <path id="Trazado_210561" data-name="Trazado 210561" d="M30.105,448.54l-1.786,1.786a3.193,3.193,0,0,0-1.917-.645H16.711a3.233,3.233,0,0,0-3.23,3.23V462.6a3.233,3.233,0,0,0,3.23,3.23H26.4a3.233,3.233,0,0,0,3.23-3.23V453.58l2.757-2.757ZM26.4,462.6H16.711v-9.691h9.022l-4.177,4.177L19.468,455l-2.283,2.284,4.372,4.372,4.846-4.846Z" transform="translate(-3.79 -403.467)"/>
        <path id="Trazado_210562" data-name="Trazado 210562" d="M35.423,460.8h6.46v3.23h-6.46Z" transform="translate(-6.35 -404.897)"/>
        <path id="Trazado_210563" data-name="Trazado 210563" d="M13.481,442.518H39.323v3.23H13.481Z" transform="translate(-3.79 -402.764)"/>
        <path id="Trazado_210564" data-name="Trazado 210564" d="M13.481,435.2h6.461v3.23H13.481Z" transform="translate(-3.79 -401.911)"/>
        <path id="Trazado_210565" data-name="Trazado 210565" d="M24.452,435.2H43.833v3.23H24.452Z" transform="translate(-5.07 -401.911)"/>
        <path id="Trazado_210566" data-name="Trazado 210566" d="M49.014,420.15v-3.23h-32.3a3.233,3.233,0,0,0-3.23,3.23v6.461a3.233,3.233,0,0,0,3.23,3.23h32.3v-3.23h-32.3V420.15Z" transform="translate(-3.79 -399.777)"/>
      </g>
    </g>
  </g>
</svg>
