<svg xmlns="http://www.w3.org/2000/svg" xmlns:xlink="http://www.w3.org/1999/xlink" width="412.617" height="309.546" viewBox="0 0 412.617 309.546">
  <defs>
    <clipPath id="clip-path">
      <path id="Trazado_210261" data-name="Trazado 210261" d="M397.721,1952.071c9.415.038,25.421,4.9,29.375,16.948s-.941,39.356-29.375,40.674-35.59-29.752-31.447-40.3S378.843,1951.993,397.721,1952.071Z" transform="translate(-365.189 -1952.07)" fill="#e5f0f8"/>
    </clipPath>
    <clipPath id="clip-path-2">
      <path id="Trazado_210275" data-name="Trazado 210275" d="M511.027,1952.071c-9.416.038-25.422,4.9-29.376,16.948s.942,39.356,29.376,40.674,35.59-29.752,31.447-40.3S529.9,1951.993,511.027,1952.071Z" transform="translate(-480.456 -1952.07)" fill="none"/>
    </clipPath>
  </defs>
  <g id="Grupo_158137" data-name="Grupo 158137" transform="translate(-371.476 5117.732)">
    <g id="Grupo_158041" data-name="Grupo 158041" transform="translate(-344 -592.006)">
      <g id="Grupo_157952" data-name="Grupo 157952" transform="translate(578.182 -6184.293)">
        <path id="Trazado_210170" data-name="Trazado 210170" d="M499.624,1961.163S618.563,1637.738,400.3,1659.63c-93.485,9.376-76.033,66.262-117.321,119.488-26.762,34.5-78.234,6.277-97.523,36.425s3.379,116.108,11.33,145.619Z" transform="translate(-7.439 0)" fill="#eaf086"/>
        <path id="Trazado_210171" data-name="Trazado 210171" d="M299.587,1966.327a8.386,8.386,0,0,0-7.372-3.572c-.091,0-.185.012-.278.02a8.393,8.393,0,0,0-5.321,14.147v0a8.525,8.525,0,0,0,1.274,1.094,4.778,4.778,0,0,1,1.98,3.359l-.388.006a.411.411,0,0,0-.286.123c-.014.014-.025.029-.038.045a.388.388,0,1,1,.051.772c-.008.007-.014.016-.021.023a.409.409,0,0,0,.319.67.4.4,0,0,0-.287.125l-.034.039a.42.42,0,0,0-.081.251.292.292,0,1,1,.127.527.111.111,0,0,0-.013.016.4.4,0,0,0-.1.274.407.407,0,0,0,.413.4l.421-.006a2.778,2.778,0,0,0,.029.3,2.726,2.726,0,0,0,.342.942h0c.032.054.065.106.1.158.017.026.036.051.055.075s.049.067.075.1l.058.07c.032.036.064.071.1.106l.047.049c.048.047.1.093.149.138l.056.044c.038.031.077.061.117.091l.061.044c.047.032.1.063.145.092l.036.023c.061.035.124.068.188.1l.06.027c.048.021.1.042.146.06l.065.025c.061.022.124.042.188.059l.021.006c.071.019.143.034.216.047l.065.01c.055.008.11.016.167.02l.067.006c.076.006.152.008.229.007l.459-.007a2.752,2.752,0,0,0,2.683-2.378c.007-.051.011-.1.014-.155s0-.093.007-.14v0l.382-.006a.409.409,0,0,0,.286-.123.4.4,0,0,0,.117-.289.415.415,0,0,0-.415-.4.408.408,0,0,0,.4-.413.294.294,0,1,1-.128-.528.4.4,0,0,0,.012-.553.408.408,0,0,0-.311-.138.413.413,0,0,0,.4-.415.4.4,0,0,0-.087-.243.409.409,0,0,0-.329-.158l-.386.006a4.791,4.791,0,0,1,1.88-3.418,8.394,8.394,0,0,0,1.866-11.543Z" transform="translate(-26.95 -55.76)" fill="#fff"/>
        <path id="Trazado_210172" data-name="Trazado 210172" d="M558.987,1814.306a9.13,9.13,0,0,0,11.465,2.908l9.732,13.778,2.388-1.686-9.731-13.777a9.135,9.135,0,1,0-13.853-1.223Zm13.321-9.408a7.149,7.149,0,1,1-9.964-1.715A7.17,7.17,0,0,1,572.308,1804.9Z" transform="translate(-76.997 -25.903)" fill="#fff"/>
        <g id="Grupo_157194" data-name="Grupo 157194" transform="translate(485.855 1915.051)">
          <path id="Trazado_210173" data-name="Trazado 210173" d="M564.095,2017.363s7.93-31.635,27.7-41.4,40.868,3.6,35.51,17.658c-4.62,12.12-23.617-2.782-38.4,3.077s-17.11,20.662-17.11,20.662Z" transform="translate(-564.095 -1972.622)" fill="#75b62f"/>
          <path id="Trazado_210174" data-name="Trazado 210174" d="M623.866,1986.748s-21.217-12.091-36.959-.912-20.723,33.081-20.723,33.081" transform="translate(-564.478 -1974.175)" fill="none" stroke="#6adb6a" stroke-miterlimit="10" stroke-width="1.091"/>
          <line id="Línea_1178" data-name="Línea 1178" x1="4.936" y2="2.152" transform="translate(51.03 6.918)" fill="none" stroke="#6adb6a" stroke-miterlimit="10" stroke-width="1.091"/>
          <line id="Línea_1179" data-name="Línea 1179" x1="9.832" y2="4.611" transform="translate(39.005 2.306)" fill="none" stroke="#6adb6a" stroke-miterlimit="10" stroke-width="1.091"/>
          <line id="Línea_1180" data-name="Línea 1180" x1="5.115" y2="6.042" transform="translate(28.95 2.306)" fill="none" stroke="#6adb6a" stroke-miterlimit="10" stroke-width="1.091"/>
          <line id="Línea_1181" data-name="Línea 1181" x1="2.299" y2="5.565" transform="translate(22.069 6.356)" fill="none" stroke="#6adb6a" stroke-miterlimit="10" stroke-width="1.091"/>
          <line id="Línea_1182" data-name="Línea 1182" x1="7.578" y1="12.537" transform="translate(45.92 7.736)" fill="none" stroke="#6adb6a" stroke-miterlimit="10" stroke-width="1.091"/>
          <line id="Línea_1183" data-name="Línea 1183" x1="6.95" y1="11.162" transform="translate(33.16 7.314)" fill="none" stroke="#6adb6a" stroke-miterlimit="10" stroke-width="1.091"/>
          <line id="Línea_1184" data-name="Línea 1184" x1="10.449" y1="1.298" transform="translate(17.855 15.466)" fill="none" stroke="#6adb6a" stroke-miterlimit="10" stroke-width="1.091"/>
          <line id="Línea_1185" data-name="Línea 1185" x1="5.989" y2="1.966" transform="translate(10.151 23.096)" fill="none" stroke="#6adb6a" stroke-miterlimit="10" stroke-width="1.091"/>
        </g>
        <g id="Grupo_157195" data-name="Grupo 157195" transform="translate(478.87 1866.295)">
          <path id="Trazado_210175" data-name="Trazado 210175" d="M555.725,2006.511s-5.6-106.038,45.052-92.373-39.508,70.814-39.431,92.373Z" transform="translate(-555.542 -1912.922)" fill="#dce736"/>
          <path id="Trazado_210176" data-name="Trazado 210176" d="M558.273,2008.934s1.768-55.4,37.871-82.8" transform="translate(-556.042 -1915.345)" fill="none" stroke="#40a87b" stroke-miterlimit="10" stroke-width="1.091"/>
          <line id="Línea_1186" data-name="Línea 1186" y1="19.104" x2="0.902" transform="translate(24.267 7.754)" fill="none" stroke="#40a87b" stroke-miterlimit="10" stroke-width="1.091"/>
          <line id="Línea_1187" data-name="Línea 1187" x1="24.403" y2="3.181" transform="translate(28.19 18.942)" fill="none" stroke="#40a87b" stroke-miterlimit="10" stroke-width="1.091"/>
          <line id="Línea_1188" data-name="Línea 1188" x1="25.801" y2="3.006" transform="translate(17.301 35.246)" fill="none" stroke="#40a87b" stroke-miterlimit="10" stroke-width="1.091"/>
          <line id="Línea_1189" data-name="Línea 1189" x1="19.928" y2="2.816" transform="translate(10.273 51.404)" fill="none" stroke="#40a87b" stroke-miterlimit="10" stroke-width="1.091"/>
          <line id="Línea_1190" data-name="Línea 1190" x2="4.568" y2="11.098" transform="translate(8.362 36.307)" fill="none" stroke="#40a87b" stroke-miterlimit="10" stroke-width="1.091"/>
          <line id="Línea_1191" data-name="Línea 1191" x2="3.894" y2="15.624" transform="translate(15.867 18.296)" fill="none" stroke="#40a87b" stroke-miterlimit="10" stroke-width="1.091"/>
          <line id="Línea_1192" data-name="Línea 1192" x2="3.639" y2="7.253" transform="translate(4.098 54.833)" fill="none" stroke="#40a87b" stroke-miterlimit="10" stroke-width="1.091"/>
          <line id="Línea_1193" data-name="Línea 1193" x1="14.28" y2="4.502" transform="translate(5.481 66.383)" fill="none" stroke="#40a87b" stroke-miterlimit="10" stroke-width="1.091"/>
        </g>
        <g id="Grupo_157196" data-name="Grupo 157196" transform="translate(137.293 1920.774)">
          <path id="Trazado_210177" data-name="Trazado 210177" d="M193.171,2018.659s-6.918-27.6-24.163-36.113-35.651,3.143-30.978,15.4c4.03,10.573,20.6-2.427,33.5,2.684s14.927,18.024,14.927,18.024Z" transform="translate(-137.293 -1979.63)" fill="#75b62f"/>
          <path id="Trazado_210178" data-name="Trazado 210178" d="M142.278,1991.953s18.508-10.547,32.241-.8,18.077,28.858,18.077,28.858" transform="translate(-138.207 -1980.985)" fill="none" stroke="#6adb6a" stroke-miterlimit="10" stroke-width="0.952"/>
          <line id="Línea_1194" data-name="Línea 1194" x2="4.306" y2="1.877" transform="translate(7.056 6.035)" fill="none" stroke="#6adb6a" stroke-miterlimit="10" stroke-width="0.952"/>
          <line id="Línea_1195" data-name="Línea 1195" x2="8.577" y2="4.023" transform="translate(13.275 2.012)" fill="none" stroke="#6adb6a" stroke-miterlimit="10" stroke-width="0.952"/>
          <line id="Línea_1196" data-name="Línea 1196" x2="4.462" y2="5.271" transform="translate(26.162 2.012)" fill="none" stroke="#6adb6a" stroke-miterlimit="10" stroke-width="0.952"/>
          <line id="Línea_1197" data-name="Línea 1197" x2="2.006" y2="4.854" transform="translate(34.62 5.545)" fill="none" stroke="#6adb6a" stroke-miterlimit="10" stroke-width="0.952"/>
          <line id="Línea_1198" data-name="Línea 1198" y1="10.936" x2="6.611" transform="translate(9.209 6.748)" fill="none" stroke="#6adb6a" stroke-miterlimit="10" stroke-width="0.952"/>
          <line id="Línea_1199" data-name="Línea 1199" y1="9.737" x2="6.063" transform="translate(20.888 6.38)" fill="none" stroke="#6adb6a" stroke-miterlimit="10" stroke-width="0.952"/>
          <line id="Línea_1200" data-name="Línea 1200" y1="1.133" x2="9.115" transform="translate(31.187 13.492)" fill="none" stroke="#6adb6a" stroke-miterlimit="10" stroke-width="0.952"/>
          <line id="Línea_1201" data-name="Línea 1201" x2="5.225" y2="1.715" transform="translate(41.799 20.148)" fill="none" stroke="#6adb6a" stroke-miterlimit="10" stroke-width="0.952"/>
        </g>
        <g id="Grupo_157197" data-name="Grupo 157197" transform="translate(146.333 1878.242)">
          <path id="Trazado_210179" data-name="Trazado 210179" d="M201.134,2009.193s4.881-92.5-39.3-80.581,34.465,61.774,34.4,80.581Z" transform="translate(-148.362 -1927.552)" fill="#dce736"/>
          <path id="Trazado_210180" data-name="Trazado 210180" d="M203.377,2011.307s-1.543-48.329-33.037-72.226" transform="translate(-152.391 -1929.665)" fill="none" stroke="#40a87b" stroke-miterlimit="10" stroke-width="0.952"/>
          <line id="Línea_1202" data-name="Línea 1202" x1="0.787" y1="16.665" transform="translate(30.976 6.764)" fill="none" stroke="#40a87b" stroke-miterlimit="10" stroke-width="0.952"/>
          <line id="Línea_1203" data-name="Línea 1203" x2="21.287" y2="2.775" transform="translate(7.053 16.524)" fill="none" stroke="#40a87b" stroke-miterlimit="10" stroke-width="0.952"/>
          <line id="Línea_1204" data-name="Línea 1204" x2="22.508" y2="2.622" transform="translate(15.332 30.747)" fill="none" stroke="#40a87b" stroke-miterlimit="10" stroke-width="0.952"/>
          <line id="Línea_1205" data-name="Línea 1205" x2="17.384" y2="2.457" transform="translate(26.586 44.843)" fill="none" stroke="#40a87b" stroke-miterlimit="10" stroke-width="0.952"/>
          <line id="Línea_1206" data-name="Línea 1206" x1="3.985" y2="9.681" transform="translate(41.653 31.672)" fill="none" stroke="#40a87b" stroke-miterlimit="10" stroke-width="0.952"/>
          <line id="Línea_1207" data-name="Línea 1207" x1="3.397" y2="13.63" transform="translate(35.693 15.961)" fill="none" stroke="#40a87b" stroke-miterlimit="10" stroke-width="0.952"/>
          <line id="Línea_1208" data-name="Línea 1208" x1="3.175" y2="6.327" transform="translate(46.183 47.834)" fill="none" stroke="#40a87b" stroke-miterlimit="10" stroke-width="0.952"/>
          <line id="Línea_1209" data-name="Línea 1209" x2="12.457" y2="3.928" transform="translate(35.693 57.909)" fill="none" stroke="#40a87b" stroke-miterlimit="10" stroke-width="0.952"/>
        </g>
        <g id="Grupo_157198" data-name="Grupo 157198" transform="translate(151.229 1776.766)">
          <rect id="Rectángulo_296202" data-name="Rectángulo 296202" width="3.285" height="8.971" transform="translate(0 12.964)" fill="#e5f0f8"/>
          <rect id="Rectángulo_296203" data-name="Rectángulo 296203" width="3.285" height="13.586" transform="translate(5.203 8.349)" fill="#e5f0f8"/>
          <rect id="Rectángulo_296204" data-name="Rectángulo 296204" width="3.285" height="20.456" transform="translate(10.406 1.479)" fill="#e5f0f8"/>
          <rect id="Rectángulo_296205" data-name="Rectángulo 296205" width="3.285" height="16.218" transform="translate(15.609 5.717)" fill="#e5f0f8"/>
          <rect id="Rectángulo_296206" data-name="Rectángulo 296206" width="3.285" height="14.43" transform="translate(20.812 7.505)" fill="#e5f0f8"/>
          <rect id="Rectángulo_296207" data-name="Rectángulo 296207" width="3.285" height="17.943" transform="translate(26.015 3.992)" fill="#e5f0f8"/>
          <rect id="Rectángulo_296208" data-name="Rectángulo 296208" width="3.285" height="21.935" transform="translate(31.218)" fill="#e5f0f8"/>
        </g>
        <rect id="Rectángulo_296209" data-name="Rectángulo 296209" width="335.254" height="8.919" rx="4.46" transform="translate(173.681 1959.194)" fill="#0775ef"/>
        <g id="Grupo_157199" data-name="Grupo 157199" transform="translate(442.027 1812.38)">
          <line id="Línea_1210" data-name="Línea 1210" x2="92.578" transform="translate(0 36.071)" fill="none" stroke="#bbdbf3" stroke-linecap="round" stroke-linejoin="round" stroke-width="0.505" stroke-dasharray="3.016"/>
          <line id="Línea_1211" data-name="Línea 1211" x2="92.578" transform="translate(0 30.059)" fill="none" stroke="#bbdbf3" stroke-linecap="round" stroke-linejoin="round" stroke-width="0.505" stroke-dasharray="3.016"/>
          <line id="Línea_1212" data-name="Línea 1212" x1="92.578" transform="translate(0 24.047)" fill="none" stroke="#bbdbf3" stroke-linecap="round" stroke-linejoin="round" stroke-width="0.505" stroke-dasharray="3.016"/>
          <line id="Línea_1213" data-name="Línea 1213" x2="92.578" transform="translate(0 18.036)" fill="none" stroke="#bbdbf3" stroke-linecap="round" stroke-linejoin="round" stroke-width="0.505" stroke-dasharray="3.016"/>
          <line id="Línea_1214" data-name="Línea 1214" x2="92.578" transform="translate(0 12.024)" fill="none" stroke="#bbdbf3" stroke-linecap="round" stroke-linejoin="round" stroke-width="0.505" stroke-dasharray="3.016"/>
          <line id="Línea_1215" data-name="Línea 1215" x2="92.578" transform="translate(0 6.012)" fill="none" stroke="#bbdbf3" stroke-linecap="round" stroke-linejoin="round" stroke-width="0.505" stroke-dasharray="3.016"/>
          <line id="Línea_1216" data-name="Línea 1216" x2="92.578" fill="none" stroke="#bbdbf3" stroke-linecap="round" stroke-linejoin="round" stroke-width="0.505" stroke-dasharray="3.016"/>
          <path id="Trazado_210181" data-name="Trazado 210181" d="M510.6,1857.536s4.408-2.162,7.8.515,7.411,9.159,21.2,8.633,21.05,3.74,29.848,8.3c11.014,5.71,19.351-2.712,22.747-10.183a11.93,11.93,0,0,1,10.839-7.162" transform="translate(-510.459 -1848.703)" fill="none" stroke="#2ec6fc" stroke-linecap="round" stroke-linejoin="round" stroke-width="1.009"/>
          <path id="Trazado_210182" data-name="Trazado 210182" d="M510.6,1884.286s4.613-7.666,15.832-5.687,23.159,1.979,31.8-4.033c5.308-3.691,12.352-12.6,25.114-4.922s17.047,7.411,19.691,7.1" transform="translate(-510.459 -1850.519)" fill="none" stroke="#f74242" stroke-linecap="round" stroke-linejoin="round" stroke-width="1.009"/>
          <circle id="Elipse_12987" data-name="Elipse 12987" cx="2.464" cy="2.464" r="2.464" transform="translate(10.696 29.856) rotate(-76.718)" fill="#fff" stroke="#f74242" stroke-linecap="round" stroke-linejoin="round" stroke-width="1.009"/>
          <circle id="Elipse_12988" data-name="Elipse 12988" cx="2.464" cy="2.464" r="2.464" transform="translate(32.94 30.577) rotate(-76.717)" fill="#fff" stroke="#f74242" stroke-linecap="round" stroke-linejoin="round" stroke-width="1.009"/>
          <circle id="Elipse_12989" data-name="Elipse 12989" cx="2.464" cy="2.464" r="2.464" transform="translate(60.44 13.634)" fill="#fff" stroke="#f74242" stroke-linecap="round" stroke-linejoin="round" stroke-width="1.009"/>
          <circle id="Elipse_12990" data-name="Elipse 12990" cx="2.464" cy="2.464" r="2.464" transform="translate(22.063 19.584) rotate(-76.718)" fill="#fff" stroke="#2ec6fc" stroke-linecap="round" stroke-linejoin="round" stroke-width="1.009"/>
          <circle id="Elipse_12991" data-name="Elipse 12991" cx="2.464" cy="2.464" r="2.464" transform="translate(63.527 25.698)" fill="#fff" stroke="#2ec6fc" stroke-linecap="round" stroke-linejoin="round" stroke-width="1.009"/>
          <circle id="Elipse_12992" data-name="Elipse 12992" cx="2.464" cy="2.464" r="2.464" transform="translate(84.23 11.879) rotate(-76.718)" fill="#fff" stroke="#2ec6fc" stroke-linecap="round" stroke-linejoin="round" stroke-width="1.009"/>
          <circle id="Elipse_12993" data-name="Elipse 12993" cx="2.464" cy="2.464" r="2.464" transform="translate(83.098 27.393) rotate(-76.717)" fill="#fff" stroke="#f74242" stroke-linecap="round" stroke-linejoin="round" stroke-width="1.009"/>
        </g>
        <g id="Grupo_157202" data-name="Grupo 157202" transform="translate(418.805 1658.657)">
          <g id="Grupo_157201" data-name="Grupo 157201">
            <g id="Grupo_157200" data-name="Grupo 157200">
              <path id="Trazado_210183" data-name="Trazado 210183" d="M493.023,1710.362a12.2,12.2,0,0,1-11.029,11.938,52.525,52.525,0,0,0,6.406,16.4,12.212,12.212,0,0,1,16.858,17.466,53.552,53.552,0,0,0,10.226,5.182c1.608.6,3.248,1.131,4.9,1.573.323.1.664.18.984.261a12.221,12.221,0,0,1,24.273.419,52.285,52.285,0,0,0,16.356-6.4,12.218,12.218,0,0,1,17.49-16.84,52.65,52.65,0,0,0,6.991-16.125,12.214,12.214,0,0,1,.466-24.259,52.4,52.4,0,0,0-6.4-16.376,12.17,12.17,0,0,1-14.795.034,8.976,8.976,0,0,1-1.424-1.244,12.184,12.184,0,0,1-.617-16.26,53.274,53.274,0,0,0-9.621-4.97c-1.608-.6-3.231-1.156-4.882-1.619-.551-.154-1.1-.309-1.649-.441a12.165,12.165,0,0,1-12.317,10.585,12.551,12.551,0,0,1-3.279-.491,12.221,12.221,0,0,1-8.656-10.517,52.272,52.272,0,0,0-16.355,6.4,12.219,12.219,0,0,1-17.491,16.84,53.235,53.235,0,0,0-7.012,16.128A12.185,12.185,0,0,1,493.023,1710.362Zm23.418-17.908a25.6,25.6,0,0,1,9.785-5.932,25.942,25.942,0,0,1,14.241-.626,23.527,23.527,0,0,1,4.872,1.686,25.938,25.938,0,0,1,13.892,15.764,25.94,25.94,0,0,1-6.758,26.481,23.812,23.812,0,0,1-2.772,2.3,25.808,25.808,0,0,1-25.49,2.843,25.474,25.474,0,0,1-8.418-5.819,26.945,26.945,0,0,1-2.632-3.2A25.948,25.948,0,0,1,516.441,1692.453Z" transform="translate(-481.994 -1658.677)" fill="#93acbf"/>
            </g>
          </g>
        </g>
        <g id="Grupo_157208" data-name="Grupo 157208" transform="translate(181.462 1702.138)">
          <g id="Grupo_157207" data-name="Grupo 157207">
            <path id="Trazado_210184" data-name="Trazado 210184" d="M203.8,1952.613l-8.677-3.855,15.479.49-.183,3.984Z" transform="translate(-192.063 -1755.335)" fill="#bbdbf3"/>
            <path id="Trazado_210185" data-name="Trazado 210185" d="M541.157,1712.838l8.312,5.11-2.845,21.95Z" transform="translate(-255.497 -1712.087)" fill="#bbdbf3"/>
            <path id="Trazado_210186" data-name="Trazado 210186" d="M207.736,1909.815h253.77a7.053,7.053,0,0,0,6.851-6.062l18.967-160.591.031-.243,1.646-13.9.372-3.156.167-1.434c.395-3.331-.971-7.33-4.347-7.33l-253.443-5.182a7.05,7.05,0,0,0-6.851,6.032l-22.557,185.8A5.288,5.288,0,0,0,207.736,1909.815Z" transform="translate(-193.378 -1711.918)" fill="#bbdbf3"/>
            <path id="Trazado_210187" data-name="Trazado 210187" d="M450.574,1905.832H196.814a5.217,5.217,0,0,1-5.393-5.94l22.71-182.06a7.017,7.017,0,0,1,6.856-5.912H474.142a5.218,5.218,0,0,1,5.4,5.912l-22.113,182.06A7.013,7.013,0,0,1,450.574,1905.832Z" transform="translate(-191.377 -1711.918)" fill="#fff"/>
            <path id="Trazado_210188" data-name="Trazado 210188" d="M473.391,1721.109l-.5,4.054-21.254,174.814H201.206L223.5,1721.109Z" transform="translate(-193.179 -1713.603)" fill="#bbdbf3"/>
            <path id="Trazado_210189" data-name="Trazado 210189" d="M473.666,1726.073l-21.254,174.814h-247L227.2,1726.073Z" transform="translate(-193.949 -1714.513)" fill="#e5f0f8"/>
            <path id="Trazado_210190" data-name="Trazado 210190" d="M551.22,1750.083l.068.038.031-.243c-.031.069-.061.129-.091.2Z" transform="translate(-257.342 -1718.877)" fill="#f74242"/>
            <g id="Grupo_157206" data-name="Grupo 157206" transform="translate(11.462 11.561)">
              <path id="Trazado_210191" data-name="Trazado 210191" d="M205.411,1900.887H452.425l21.241-174.814H227.2Z" transform="translate(-205.411 -1726.073)" fill="#e5f0f8"/>
              <path id="Trazado_210192" data-name="Trazado 210192" d="M497.7,1742.588h21.732l.41-3.373H498.114Z" transform="translate(-258.993 -1728.482)" fill="#bbdbf3"/>
              <path id="Trazado_210193" data-name="Trazado 210193" d="M392.642,1749.7H475.35l-1.4,11.481H227.39l1.431-11.481Z" transform="translate(-209.44 -1730.405)" fill="#bbdbf3"/>
              <path id="Trazado_210194" data-name="Trazado 210194" d="M464.969,1742.588H486.7l.411-3.373H465.382Z" transform="translate(-252.993 -1728.482)" fill="#bbdbf3"/>
              <path id="Trazado_210195" data-name="Trazado 210195" d="M432.236,1742.588h21.732l.412-3.373H432.65Z" transform="translate(-246.992 -1728.482)" fill="#bbdbf3"/>
              <path id="Trazado_210196" data-name="Trazado 210196" d="M488.779,1757.56h27.557l.277-2.279H489.057Z" transform="translate(-257.357 -1731.428)" fill="#fff"/>
              <path id="Trazado_210197" data-name="Trazado 210197" d="M447.272,1757.56h27.557l.278-2.279H447.551Z" transform="translate(-249.749 -1731.428)" fill="#fff"/>
              <path id="Trazado_210198" data-name="Trazado 210198" d="M405.765,1757.56h27.557l.279-2.279H406.045Z" transform="translate(-242.14 -1731.428)" fill="#fff"/>
              <path id="Trazado_210199" data-name="Trazado 210199" d="M364.258,1757.56h27.557l.28-2.279H364.538Z" transform="translate(-234.531 -1731.428)" fill="#fff"/>
              <path id="Trazado_210200" data-name="Trazado 210200" d="M284.879,1744.733h31.587l1.276-10.318H286.159Z" transform="translate(-219.979 -1727.603)" fill="none" stroke="#bbdbf3" stroke-miterlimit="10" stroke-width="1.25"/>
              <path id="Trazado_210201" data-name="Trazado 210201" d="M240.833,1744.733h31.587l1.281-10.318H242.118Z" transform="translate(-211.905 -1727.603)" fill="#bbdbf3"/>
              <g id="Grupo_157203" data-name="Grupo 157203" transform="translate(179.362 37.226)">
                <path id="Trazado_210202" data-name="Trazado 210202" d="M493.586,1826.183l6.632-54.528H431.712l-6.679,54.528Z" transform="translate(-425.034 -1771.655)" fill="#bbdbf3"/>
                <path id="Trazado_210203" data-name="Trazado 210203" d="M428.636,1824.048h63.339l5.964-49.028h-63.3Z" transform="translate(-425.694 -1772.272)" fill="#fff"/>
                <path id="Trazado_210204" data-name="Trazado 210204" d="M491.975,1826.96l-15.261-21.707-14.474,15.552-14.092-29.9-19.513,36.057Z" transform="translate(-425.694 -1775.184)" fill="#bbdbf3"/>
                <path id="Trazado_210205" data-name="Trazado 210205" d="M469.051,1788.741a2.775,2.775,0,0,0,2.813,3.2,3.721,3.721,0,0,0,3.6-3.2,2.775,2.775,0,0,0-2.813-3.2A3.722,3.722,0,0,0,469.051,1788.741Z" transform="translate(-433.098 -1774.201)" fill="#bbdbf3"/>
              </g>
              <g id="Grupo_157204" data-name="Grupo 157204" transform="translate(99.5 37.226)">
                <path id="Trazado_210206" data-name="Trazado 210206" d="M395.8,1826.183l6.687-54.528H333.979l-6.734,54.528Z" transform="translate(-327.246 -1771.655)" fill="#bbdbf3"/>
                <path id="Trazado_210207" data-name="Trazado 210207" d="M330.852,1824.048h63.339l6.014-49.028H336.9Z" transform="translate(-327.907 -1772.272)" fill="#fff"/>
                <path id="Trazado_210208" data-name="Trazado 210208" d="M394.191,1826.96l-15.239-21.707-14.49,15.552L350.4,1790.9l-19.549,36.057Z" transform="translate(-327.907 -1775.184)" fill="#bbdbf3"/>
                <path id="Trazado_210209" data-name="Trazado 210209" d="M371.312,1788.741a2.772,2.772,0,0,0,2.811,3.2,3.725,3.725,0,0,0,3.6-3.2,2.772,2.772,0,0,0-2.81-3.2A3.727,3.727,0,0,0,371.312,1788.741Z" transform="translate(-335.319 -1774.201)" fill="#bbdbf3"/>
              </g>
              <g id="Grupo_157205" data-name="Grupo 157205" transform="translate(19.638 37.226)">
                <path id="Trazado_210210" data-name="Trazado 210210" d="M298.01,1826.183l6.742-54.528H236.246l-6.789,54.528Z" transform="translate(-229.457 -1771.655)" fill="#bbdbf3"/>
                <path id="Trazado_210211" data-name="Trazado 210211" d="M233.067,1824.048h63.339l6.063-49.028h-63.3Z" transform="translate(-230.119 -1772.272)" fill="#fff"/>
                <path id="Trazado_210212" data-name="Trazado 210212" d="M296.406,1826.96l-15.217-21.707-14.505,15.552-14.031-29.9-19.585,36.057Z" transform="translate(-230.119 -1775.184)" fill="#bbdbf3"/>
                <path id="Trazado_210213" data-name="Trazado 210213" d="M273.573,1788.741a2.768,2.768,0,0,0,2.807,3.2,3.73,3.73,0,0,0,3.6-3.2,2.768,2.768,0,0,0-2.807-3.2A3.73,3.73,0,0,0,273.573,1788.741Z" transform="translate(-237.54 -1774.201)" fill="#bbdbf3"/>
              </g>
              <path id="Trazado_210214" data-name="Trazado 210214" d="M431,1850.163h56.291l.461-3.786H431.467Z" transform="translate(-246.766 -1748.127)" fill="#fff"/>
              <path id="Trazado_210215" data-name="Trazado 210215" d="M426.973,1858.8h61.154l.461-3.787H427.436Z" transform="translate(-246.027 -1749.71)" fill="#fff"/>
              <path id="Trazado_210216" data-name="Trazado 210216" d="M420.853,1871.933h68.577l.337-2.769H421.192Z" transform="translate(-244.905 -1752.304)" fill="#fff"/>
              <path id="Trazado_210217" data-name="Trazado 210217" d="M419.823,1880.339h68.583l.337-2.769h-68.58Z" transform="translate(-244.717 -1753.845)" fill="#fff"/>
              <path id="Trazado_210218" data-name="Trazado 210218" d="M418.794,1888.746h68.588l.337-2.77H419.133Z" transform="translate(-244.528 -1755.386)" fill="#fff"/>
              <path id="Trazado_210219" data-name="Trazado 210219" d="M417.764,1897.155h68.594l.337-2.77H418.1Z" transform="translate(-244.339 -1756.928)" fill="#fff"/>
              <path id="Trazado_210220" data-name="Trazado 210220" d="M416.733,1905.565h68.6l.337-2.771h-68.6Z" transform="translate(-244.15 -1758.469)" fill="#fff"/>
              <path id="Trazado_210221" data-name="Trazado 210221" d="M415.7,1913.977h68.606l.337-2.771h-68.6Z" transform="translate(-243.961 -1760.011)" fill="#fff"/>
              <path id="Trazado_210222" data-name="Trazado 210222" d="M414.673,1922.39h68.612l.337-2.771h-68.61Z" transform="translate(-243.773 -1761.553)" fill="#fff"/>
              <path id="Trazado_210223" data-name="Trazado 210223" d="M235.4,1850.163h56.291l.468-3.786H235.873Z" transform="translate(-210.909 -1748.127)" fill="#fff"/>
              <path id="Trazado_210224" data-name="Trazado 210224" d="M231.354,1858.8h61.154l.468-3.787H231.825Z" transform="translate(-210.167 -1749.71)" fill="#fff"/>
              <path id="Trazado_210225" data-name="Trazado 210225" d="M225.208,1871.933h68.577l.342-2.769H225.553Z" transform="translate(-209.041 -1752.304)" fill="#fff"/>
              <path id="Trazado_210226" data-name="Trazado 210226" d="M224.161,1880.339h68.582l.342-2.769h-68.58Z" transform="translate(-208.849 -1753.845)" fill="#fff"/>
              <path id="Trazado_210227" data-name="Trazado 210227" d="M223.115,1888.746H291.7l.342-2.77H223.46Z" transform="translate(-208.657 -1755.386)" fill="#fff"/>
              <path id="Trazado_210228" data-name="Trazado 210228" d="M222.068,1897.155h68.594l.342-2.77H222.413Z" transform="translate(-208.465 -1756.928)" fill="#fff"/>
              <path id="Trazado_210229" data-name="Trazado 210229" d="M221.021,1905.565h68.6l.343-2.771h-68.6Z" transform="translate(-208.273 -1758.469)" fill="#fff"/>
              <path id="Trazado_210230" data-name="Trazado 210230" d="M219.974,1913.977H288.58l.343-2.771h-68.6Z" transform="translate(-208.081 -1760.011)" fill="#fff"/>
              <path id="Trazado_210231" data-name="Trazado 210231" d="M218.926,1922.39h68.612l.343-2.771h-68.61Z" transform="translate(-207.889 -1761.553)" fill="#fff"/>
              <path id="Trazado_210232" data-name="Trazado 210232" d="M333.2,1850.163h56.291l.465-3.786H333.67Z" transform="translate(-228.838 -1748.127)" fill="#fff"/>
              <path id="Trazado_210233" data-name="Trazado 210233" d="M329.163,1858.8h61.154l.465-3.787H329.631Z" transform="translate(-228.097 -1749.71)" fill="#fff"/>
              <path id="Trazado_210234" data-name="Trazado 210234" d="M323.03,1871.933h68.577l.34-2.769H323.372Z" transform="translate(-226.973 -1752.304)" fill="#fff"/>
              <path id="Trazado_210235" data-name="Trazado 210235" d="M321.992,1880.339h68.582l.34-2.769h-68.58Z" transform="translate(-226.783 -1753.845)" fill="#fff"/>
              <path id="Trazado_210236" data-name="Trazado 210236" d="M320.954,1888.746h68.588l.34-2.77H321.3Z" transform="translate(-226.592 -1755.386)" fill="#fff"/>
              <path id="Trazado_210237" data-name="Trazado 210237" d="M319.916,1897.155H388.51l.34-2.77H320.258Z" transform="translate(-226.402 -1756.928)" fill="#fff"/>
              <path id="Trazado_210238" data-name="Trazado 210238" d="M318.877,1905.565h68.6l.34-2.771h-68.6Z" transform="translate(-226.212 -1758.469)" fill="#fff"/>
              <path id="Trazado_210239" data-name="Trazado 210239" d="M317.838,1913.977h68.606l.34-2.771h-68.6Z" transform="translate(-226.021 -1760.011)" fill="#fff"/>
              <path id="Trazado_210240" data-name="Trazado 210240" d="M316.8,1922.39h68.612l.34-2.771h-68.61Z" transform="translate(-225.831 -1761.553)" fill="#fff"/>
              <path id="Trazado_210241" data-name="Trazado 210241" d="M353.8,1935.268l-14.4-7.318h30.61Z" transform="translate(-229.974 -1763.081)" fill="#bbdbf3"/>
            </g>
          </g>
          <path id="Trazado_210242" data-name="Trazado 210242" d="M368.829,2001.006H323.366l5.724-46.787h45.463Z" transform="translate(-215.573 -1756.336)" fill="#bbdbf3"/>
          <path id="Trazado_210243" data-name="Trazado 210243" d="M361.82,2001.006H316.358l5.724-46.787h45.463Z" transform="translate(-214.288 -1756.336)" fill="#fff"/>
          <path id="Rectángulo_296210" data-name="Rectángulo 296210" d="M0,0H116.247a4.579,4.579,0,0,1,4.579,4.579v7.811a0,0,0,0,1,0,0H0a0,0,0,0,1,0,0V0A0,0,0,0,1,0,0Z" transform="translate(82.299 244.671)" fill="#bbdbf3"/>
          <path id="Rectángulo_296211" data-name="Rectángulo 296211" d="M3.853,0H98.544A3.853,3.853,0,0,1,102.4,3.853v8.538a0,0,0,0,1,0,0H0a0,0,0,0,1,0,0V3.853A3.853,3.853,0,0,1,3.853,0Z" transform="translate(68.958 244.671)" fill="#fff"/>
        </g>
        <g id="Grupo_157215" data-name="Grupo 157215" transform="translate(307.407 1896.051)">
          <path id="Trazado_210244" data-name="Trazado 210244" d="M364.9,1963.311l114.3,3.5a31.012,31.012,0,0,1,22.088,10.237l29.12,32.314a2.251,2.251,0,0,1-1.328,3.731l-1.845.284a5.612,5.612,0,0,1-5.217-2.015l-23.079-28.517a31.011,31.011,0,0,0-24.073-11.5l-116.4-.126Z" transform="translate(-347.952 -1951.916)" fill="#93acbf"/>
          <path id="Trazado_210245" data-name="Trazado 210245" d="M519.286,1963.311l-114.3,3.5A31.012,31.012,0,0,0,382.9,1977.05l-29.12,32.314a2.251,2.251,0,0,0,1.328,3.731l1.845.284a5.612,5.612,0,0,0,5.217-2.015l23.079-28.517a31.009,31.009,0,0,1,24.072-11.5l116.4-.126Z" transform="translate(-346.986 -1951.916)" fill="#93acbf"/>
          <path id="Trazado_210246" data-name="Trazado 210246" d="M533.347,1962.373a40.208,40.208,0,0,1-13.478-4.656c-6.5-3.954-19.772-8.756-32.341-8.333s-20.126,2.613-25.209,6.5-6.285,4.237-10.592,3.531a94.24,94.24,0,0,0-23.021,0c-4.307.706-5.508.354-10.592-3.531s-12.64-6.073-25.209-6.5-25.845,4.378-32.341,8.333a40.208,40.208,0,0,1-13.478,4.656,1.791,1.791,0,0,0-1.493,1.768v2.842a1.786,1.786,0,0,0,1.561,1.779c2.023.247,5.461,1.094,6.912,4,2.118,4.237,3.248,17.8,11.722,27.116s18.925,14.829,36.155,10.875,23.585-19.208,25.986-26.551a45.459,45.459,0,0,0,2.471-12.146s-2.471-2.331-1.2-4.59,11.016-2.331,11.016-2.331,9.745.071,11.016,2.331-1.2,4.59-1.2,4.59A45.459,45.459,0,0,0,452.5,1984.2c2.4,7.344,8.756,22.6,25.986,26.551s27.682-1.553,36.155-10.875,9.6-22.879,11.722-27.116c1.451-2.9,4.89-3.749,6.912-4a1.786,1.786,0,0,0,1.562-1.779v-2.842A1.791,1.791,0,0,0,533.347,1962.373Z" transform="translate(-345.592 -1949.358)" fill="#586773"/>
          <g id="Grupo_157211" data-name="Grupo 157211" transform="translate(16.005 2.215)">
            <path id="Trazado_210247" data-name="Trazado 210247" d="M397.721,1952.071c9.415.038,25.421,4.9,29.375,16.948s-.941,39.356-29.375,40.674-35.59-29.752-31.447-40.3S378.843,1951.993,397.721,1952.071Z" transform="translate(-365.189 -1952.07)" fill="#e5f0f8"/>
            <g id="Grupo_157210" data-name="Grupo 157210" clip-path="url(#clip-path)">
              <g id="Grupo_157209" data-name="Grupo 157209" transform="translate(-9.793 -15.801)">
                <path id="Trazado_210248" data-name="Trazado 210248" d="M388.2,1964.022l-4.826,7.219-24.9-.025,6.427-7.905Z" transform="translate(-354.164 -1938.33)" fill="#93acbf"/>
                <path id="Trazado_210249" data-name="Trazado 210249" d="M408.975,1964.65,406.737,1968l-2.328,3.479h-4.63l.776-1.16,3.879-5.807Z" transform="translate(-361.737 -1938.55)" fill="#93acbf"/>
                <path id="Trazado_210250" data-name="Trazado 210250" d="M355.592,2018.661l3.022,2.017a5.7,5.7,0,0,1-1.666,0l-1.846-.286a2.25,2.25,0,0,1-1.322-3.732l12.2-13.541Z" transform="translate(-353.198 -1945.628)" fill="#6da8c6"/>
                <path id="Trazado_210251" data-name="Trazado 210251" d="M403.131,1968.781l-2.328,3.479-3.4,5.08v.008a30.681,30.681,0,0,0-7.228,6.5l-10.069,12.437,16.063-24.026.776-1.16A30.315,30.315,0,0,1,403.131,1968.781Z" transform="translate(-358.131 -1939.333)" fill="#93acbf"/>
                <path id="Trazado_210252" data-name="Trazado 210252" d="M536.467,1971.217l-32.405.033h-.016l-51.686.065h-2.3l-29.988.033a30.576,30.576,0,0,0-8.24,1.127l.809-1.209,2.973-4.442a.613.613,0,0,1,.122-.008l36.529-1.119h.1l77.672-2.385Z" transform="translate(-363.946 -1938.33)" fill="#93acbf"/>
                <path id="Trazado_210253" data-name="Trazado 210253" d="M418.16,1936.806l-14.626,21.878-8.665-.269,17.174-25.692Z" transform="translate(-360.837 -1932.723)" fill="#fff"/>
                <path id="Trazado_210254" data-name="Trazado 210254" d="M376.376,2002.49l-13.459,20.139-3.087-2.066a5.618,5.618,0,0,0,3.553-2.017Z" transform="translate(-354.413 -1945.512)" fill="#f2fdff"/>
                <path id="Trazado_210255" data-name="Trazado 210255" d="M392.788,1973.029a30.948,30.948,0,0,0-7.023,5.8l-16.9,18.767,16.415-24.573Z" transform="translate(-356.069 -1940.11)" fill="#fff"/>
                <path id="Trazado_210256" data-name="Trazado 210256" d="M427.993,1944.027l-11.049,16.537-5.9-.18,12.8-19.142Z" transform="translate(-363.801 -1934.284)" fill="#fff"/>
                <path id="Trazado_210257" data-name="Trazado 210257" d="M415.155,1964.862l-1.477,2.213-2.973,4.442-.809,1.209a30.949,30.949,0,0,0-8.608,3.863l3.4-5.08,2.328-3.479,2.238-3.348Z" transform="translate(-362.014 -1938.581)" fill="#bbdbf3"/>
                <path id="Trazado_210258" data-name="Trazado 210258" d="M403.6,1974.531l-32.5,48.632-4.165-2.785,28.06-41.976v-.008A30.948,30.948,0,0,1,403.6,1974.531Z" transform="translate(-355.715 -1940.387)" fill="#fff"/>
                <path id="Trazado_210259" data-name="Trazado 210259" d="M396.432,1964.451l-3.879,5.806-.776,1.16-16.063,24.026-.016.025L362.7,2011.523a5.617,5.617,0,0,1-3.553,2.017l-3.022-2.017,10.388-15.542.008-.008,16.9-18.767a30.951,30.951,0,0,1,7.023-5.8l-7.513-.008,4.827-7.219Z" transform="translate(-353.735 -1938.49)" fill="#bbdbf3"/>
                <path id="Trazado_210260" data-name="Trazado 210260" d="M539.042,2013.387l-1.838.286a5.621,5.621,0,0,1-5.219-2.017l-23.079-28.518a31,31,0,0,0-24.075-11.5l-32.291-.033h-2.3l-37.419-.049,2.973-4.442,1.477-2.213,35.174,1.086h.1l36.627,1.119a31.02,31.02,0,0,1,15.059,4.434h.016a31.481,31.481,0,0,1,7.007,5.8l29.122,32.315A2.25,2.25,0,0,1,539.042,2013.387Z" transform="translate(-364.127 -1938.622)" fill="#93acbf"/>
              </g>
            </g>
          </g>
          <path id="Trazado_210262" data-name="Trazado 210262" d="M511.027,1952.071c-9.416.038-25.422,4.9-29.376,16.948s.942,39.356,29.376,40.674,35.59-29.752,31.447-40.3S529.9,1951.993,511.027,1952.071Z" transform="translate(-370.315 -1949.855)" fill="#e5f0f8"/>
          <path id="Trazado_210263" data-name="Trazado 210263" d="M353.128,1969.414a1.318,1.318,0,1,1-1.318-1.318A1.319,1.319,0,0,1,353.128,1969.414Z" transform="translate(-346.49 -1952.793)" fill="#93acbf"/>
          <g id="Grupo_157214" data-name="Grupo 157214" transform="translate(110.141 2.215)">
            <g id="Grupo_157213" data-name="Grupo 157213" clip-path="url(#clip-path-2)">
              <g id="Grupo_157212" data-name="Grupo 157212" transform="translate(-67.21 -9.692)">
                <path id="Trazado_210264" data-name="Trazado 210264" d="M559.006,2014.974l-1.838.286a5.621,5.621,0,0,1-5.219-2.017l-23.079-28.518a31.129,31.129,0,0,0-7.146-6.452l3.161-4.712h.008a31.37,31.37,0,0,1,6.321,5.366l29.122,32.315A2.25,2.25,0,0,1,559.006,2014.974Z" transform="translate(-420.811 -1946.318)" fill="#93acbf"/>
                <path id="Trazado_210265" data-name="Trazado 210265" d="M488.727,1964.772l-1.576,2.335-2.981,4.435-34.316.041-51.694-.065a31.026,31.026,0,0,1,15.068-4.434l36.627-1.119Z" transform="translate(-398.159 -1944.706)" fill="#93acbf"/>
                <path id="Trazado_210266" data-name="Trazado 210266" d="M523.364,1964.252l-3.773,5.61-1.054,1.568-2.091,3.1a31.4,31.4,0,0,0-3.781-1.5l1.078-1.593,2.05-3.046,2.679-3.985Z" transform="translate(-419.15 -1944.611)" fill="#93acbf"/>
                <path id="Trazado_210267" data-name="Trazado 210267" d="M557.388,1971.217l-31.433.033,4.933-7.325,20.065-.613Z" transform="translate(-421.586 -1944.439)" fill="#93acbf"/>
                <path id="Trazado_210268" data-name="Trazado 210268" d="M516.767,1964.442l-2.679,3.985-2.05,3.046-1.078,1.593a30.541,30.541,0,0,0-7.594-1.446l.09-.139,2.981-4.435,1.576-2.335Z" transform="translate(-417.445 -1944.646)" fill="#bbdbf3"/>
                <path id="Trazado_210269" data-name="Trazado 210269" d="M498.015,1973.231a30.541,30.541,0,0,1,7.594,1.446l-25.537,37.95-5.9-3.969Z" transform="translate(-412.094 -1946.257)" fill="#fff"/>
                <path id="Trazado_210270" data-name="Trazado 210270" d="M528.459,1944.171,517.81,1960l-8.755.27,13.5-20.065Z" transform="translate(-418.488 -1940.202)" fill="#fff"/>
                <path id="Trazado_210271" data-name="Trazado 210271" d="M524.367,1971.387h-.988c.229.147.466.286.694.433l-3.161,4.712a30.827,30.827,0,0,0-3.618-2.034l2.091-3.1,1.054-1.568,3.773-5.61,5.088-.155Z" transform="translate(-419.999 -1944.576)" fill="#bbdbf3"/>
                <path id="Trazado_210272" data-name="Trazado 210272" d="M511.741,1976.841a30.832,30.832,0,0,1,3.618,2.034l-24.932,37.052-3.43-2.3Z" transform="translate(-414.444 -1946.919)" fill="#fff"/>
                <path id="Trazado_210273" data-name="Trazado 210273" d="M524.745,1973.031h.988l-.286.433h-.008C525.211,1973.317,524.974,1973.178,524.745,1973.031Z" transform="translate(-421.364 -1946.22)" fill="#deecff"/>
                <path id="Trazado_210274" data-name="Trazado 210274" d="M539.518,1947.773l-8.665,12.879-5.088.155,10.323-15.345Z" transform="translate(-421.551 -1941.167)" fill="#fff"/>
              </g>
            </g>
          </g>
          <path id="Trazado_210276" data-name="Trazado 210276" d="M361.1,1969.414a1.318,1.318,0,1,1-1.318-1.318A1.318,1.318,0,0,1,361.1,1969.414Z" transform="translate(-347.952 -1952.793)" fill="#93acbf"/>
          <path id="Trazado_210277" data-name="Trazado 210277" d="M569.192,1969.414a1.318,1.318,0,1,0,1.318-1.318A1.318,1.318,0,0,0,569.192,1969.414Z" transform="translate(-386.582 -1952.793)" fill="#93acbf"/>
          <path id="Trazado_210278" data-name="Trazado 210278" d="M561.216,1969.414a1.318,1.318,0,1,0,1.318-1.318A1.319,1.319,0,0,0,561.216,1969.414Z" transform="translate(-385.119 -1952.793)" fill="#93acbf"/>
        </g>
        <g id="Grupo_157218" data-name="Grupo 157218" transform="translate(165.015 1658.611)">
          <path id="Trazado_210279" data-name="Trazado 210279" d="M231.614,1658.621A60.388,60.388,0,0,1,292,1719.007c0,1-.029,2-.075,2.988l-5.836-.981-4.2,4.174-3.464-.55-13.082-2.074-13.1-2.073-13.213-2.1-3.193-.5-.29-.84-5.742-2.129.672,3.343,3.762,3.362,1.383-3.5,3.427.569,13.166,2.194,13.073,2.185,13.054,2.176,3.446.579,2.615,5.312,6.154,1.027a58.327,58.327,0,0,1-1.971,6.882l-13.016-3.007-13.073-3.025-13.335-3.082-.439-.1-.224-.859-5.584-2.521.439,3.38,3.277,3.37c.261-.27.514-.551.766-.84v-.009l1.1-2.3.5.122,13.334,3.193,13.055,3.128,13,3.11a60.386,60.386,0,1,1-56.773-80.986Z" transform="translate(-171.237 -1658.621)" fill="#75b62f"/>
          <path id="Trazado_210280" data-name="Trazado 210280" d="M187.745,1727.421a47.144,47.144,0,0,0,90.613,12.048l-13.054-3.128-13.334-3.193-.5-.122-1.1,2.3v.009c-.252.29-.5.57-.766.84l-3.277-3.37-.439-3.38,5.584,2.521.224.859.439.1,13.335,3.082,13.073,3.025a46.41,46.41,0,0,0,2.773-10.794l-13.054-2.176-13.073-2.185-13.166-2.194-3.427-.569-1.382,3.5-3.763-3.362-.672-3.343,5.742,2.129.29.84,3.193.5,13.213,2.1,13.1,2.073,13.082,2.074c.014-.113.027-.225.04-.337,2.906-25.568-16.456-49.664-42.063-52.2A47.2,47.2,0,0,0,187.745,1727.421Z" transform="translate(-174.207 -1661.593)" fill="#fff"/>
          <path id="Trazado_210281" data-name="Trazado 210281" d="M203.64,1724.949a33.912,33.912,0,0,0,64.635,14.361l-13.334-3.193-.5-.122-1.1,2.3v.009c-.252.29-.5.57-.766.84l-3.277-3.371-.439-3.38,5.584,2.521.224.859.439.1,13.335,3.082a33.544,33.544,0,0,0,2.791-9.945l-13.073-2.185-13.166-2.195-3.427-.569-1.382,3.5-3.763-3.362-.672-3.343,5.742,2.129.29.84,3.193.5,13.213,2.1,13.1,2.073a34.5,34.5,0,0,0,.187-3.557,33.914,33.914,0,1,0-67.829,0Z" transform="translate(-177.177 -1664.563)" fill="#75b62f"/>
          <path id="Trazado_210282" data-name="Trazado 210282" d="M265.592,1746.088l-1.1,2.3a18.454,18.454,0,0,0,1.606-2.176Z" transform="translate(-188.332 -1674.655)" fill="#fff"/>
          <path id="Trazado_210283" data-name="Trazado 210283" d="M219.841,1727.919a20.668,20.668,0,0,0,35.7,14.193l-3.277-3.37-.439-3.38,5.584,2.521.224.859.439.1a20.42,20.42,0,0,0,3.054-9.048l-13.166-2.194-3.427-.569-1.382,3.5-3.763-3.362-.672-3.343,5.742,2.129.29.84,3.193.5,13.213,2.1q.055-.742.056-1.485a20.683,20.683,0,0,0-41.366,0Z" transform="translate(-180.147 -1667.533)" fill="#fff"/>
          <path id="Trazado_210284" data-name="Trazado 210284" d="M236.054,1730.892a7.442,7.442,0,1,0,14.884,0c0-.1,0-.215-.009-.318L247.5,1730l-1.382,3.5-3.763-3.362-.672-3.343,5.742,2.129.29.84,3.193.5a7.441,7.441,0,0,0-14.856.616Z" transform="translate(-183.119 -1670.505)" fill="#f74242"/>
          <path id="Trazado_210285" data-name="Trazado 210285" d="M302.464,1738.644l3.464.55,4.2-4.174,5.836.981c-.065,1.456-.2,2.913-.363,4.342-.019.149-.038.3-.056.458-.028.215-.056.42-.094.635-.019.177-.047.345-.074.523-.206,1.419-.467,2.83-.784,4.212l-6.154-1.027-2.615-5.312-3.446-.579C302.418,1739.054,302.445,1738.849,302.464,1738.644Z" transform="translate(-195.278 -1672.626)" fill="#de3c3c"/>
          <path id="Trazado_210286" data-name="Trazado 210286" d="M286.4,1737.423l13.054,2.176c.038-.2.065-.4.084-.607l-13.082-2.074Z" transform="translate(-192.348 -1672.974)" fill="#e5f0f8"/>
          <path id="Trazado_210287" data-name="Trazado 210287" d="M270.389,1734.772l13.073,2.185.056-.5-13.1-2.073Z" transform="translate(-189.413 -1672.509)" fill="#de3c3c"/>
          <path id="Trazado_210288" data-name="Trazado 210288" d="M254.245,1731.808a2.875,2.875,0,0,1,.019.3l13.166,2.195.029-.392Z" transform="translate(-186.454 -1672.037)" fill="#e5f0f8"/>
          <path id="Trazado_210289" data-name="Trazado 210289" d="M242.949,1727.554l.672,3.343,3.763,3.362,1.382-3.5,3.427.569a2.873,2.873,0,0,0-.019-.3l-3.193-.5-.29-.84Z" transform="translate(-184.383 -1671.258)" fill="#de3c3c"/>
          <path id="Trazado_210290" data-name="Trazado 210290" d="M298.767,1753.874l13,3.11c.065-.178.131-.364.2-.56l-13.016-3.007C298.889,1753.566,298.833,1753.725,298.767,1753.874Z" transform="translate(-194.615 -1675.999)" fill="#de3c3c"/>
          <path id="Trazado_210291" data-name="Trazado 210291" d="M282.783,1750.067l13.054,3.128c.066-.15.122-.308.178-.457l-13.073-3.025C282.895,1749.834,282.839,1749.956,282.783,1750.067Z" transform="translate(-191.685 -1675.32)" fill="#e5f0f8"/>
          <path id="Trazado_210292" data-name="Trazado 210292" d="M266.456,1746.182l13.334,3.193c.056-.112.112-.234.159-.354l-13.335-3.082A1.366,1.366,0,0,1,266.456,1746.182Z" transform="translate(-188.692 -1674.628)" fill="#de3c3c"/>
          <path id="Trazado_210293" data-name="Trazado 210293" d="M259,1741.675l.439,3.38,3.277,3.37c.261-.27.514-.551.766-.84v-.009l1.1-2.3.5.122a1.363,1.363,0,0,0,.158-.244l-.439-.1-.224-.859Z" transform="translate(-187.326 -1673.846)" fill="#e5f0f8"/>
          <path id="Trazado_210294" data-name="Trazado 210294" d="M263.552,1749.752l.243.243.523-1.083C264.066,1749.2,263.813,1749.482,263.552,1749.752Z" transform="translate(-188.16 -1675.173)" fill="#f74242"/>
          <g id="Grupo_157216" data-name="Grupo 157216" transform="translate(57.64 4.118)">
            <line id="Línea_1217" data-name="Línea 1217" x1="76.016" y2="44.831" transform="translate(3.25 7.713)" fill="none" stroke="#586773" stroke-linecap="round" stroke-linejoin="round" stroke-width="1.205"/>
            <path id="Trazado_210295" data-name="Trazado 210295" d="M317.073,1681.876l19.114-11.273.966-6.94-19.114,11.273Z" transform="translate(-255.611 -1663.664)" fill="#f9ecb8"/>
            <path id="Trazado_210296" data-name="Trazado 210296" d="M317.073,1683.434l19.114-11.273,6.541,2.513-19.114,11.273Z" transform="translate(-255.611 -1665.221)" fill="#f9e181"/>
            <path id="Trazado_210297" data-name="Trazado 210297" d="M302.7,1691.786l8.654-5.1.612-6.731-8.654,5.1Z" transform="translate(-252.975 -1666.649)" fill="#f9ecb8"/>
            <path id="Trazado_210298" data-name="Trazado 210298" d="M302.7,1693.3l8.654-5.1,6.186,2.721-8.654,5.1Z" transform="translate(-252.975 -1668.16)" fill="#f9e181"/>
            <path id="Trazado_210299" data-name="Trazado 210299" d="M245.087,1722.427l3.973,6.737-5.507.917-1.738-3.524Z" transform="translate(-241.815 -1674.436)" fill="#93acbf"/>
          </g>
          <g id="Grupo_157217" data-name="Grupo 157217" transform="translate(70.033 22.923)">
            <line id="Línea_1218" data-name="Línea 1218" x1="79.525" y2="38.263" transform="translate(2.58 7.494)" fill="none" stroke="#586773" stroke-linecap="round" stroke-linejoin="round" stroke-width="1.205"/>
            <path id="Trazado_210300" data-name="Trazado 210300" d="M334.719,1703.144l20-9.621,1.548-6.834-20,9.622Z" transform="translate(-271.239 -1686.689)" fill="#f9ecb8"/>
            <path id="Trazado_210301" data-name="Trazado 210301" d="M334.719,1704.678l20-9.621,6.306,3.055-20,9.621Z" transform="translate(-271.239 -1688.223)" fill="#f9e181"/>
            <path id="Trazado_210302" data-name="Trazado 210302" d="M319.679,1711.6l9.054-4.356,1.177-6.655-9.054,4.356Z" transform="translate(-268.482 -1689.237)" fill="#f9ecb8"/>
            <path id="Trazado_210303" data-name="Trazado 210303" d="M319.679,1713.1l9.054-4.356,5.935,3.233-9.054,4.356Z" transform="translate(-268.482 -1690.731)" fill="#f9e181"/>
            <path id="Trazado_210304" data-name="Trazado 210304" d="M259.976,1737.163l3.391,7.048-4.206.34-2.171-4.211Z" transform="translate(-256.99 -1695.942)" fill="#93acbf"/>
          </g>
        </g>
        <g id="Grupo_157224" data-name="Grupo 157224" transform="translate(193.731 1747.523)">
          <path id="Trazado_210305" data-name="Trazado 210305" d="M251.957,1873.652l-10.747-.182.563-11.285.269-5.4.015-.269,8.409-3.535.274,3.814.2,2.779Z" transform="translate(-212.781 -1783.163)" fill="#fdae97"/>
          <path id="Trazado_210306" data-name="Trazado 210306" d="M227.6,1920.183l-4.52,37.411a8.6,8.6,0,0,0,10.158,9.735c4.671-.908,6.459-4.515,7.3-9.879,1.61-10.3,7.236-41.188,7.236-41.188Z" transform="translate(-209.439 -1794.763)" fill="#3d46c2"/>
          <path id="Trazado_210307" data-name="Trazado 210307" d="M260.789,1918.757l-16.6,1.114.083,18.392,1.97,2.914,1.827,17.731,16.8-1.343Z" transform="translate(-213.327 -1795.22)" fill="#3d46c2"/>
          <rect id="Rectángulo_296212" data-name="Rectángulo 296212" width="35.055" height="10.885" rx="5.442" transform="matrix(0.554, -0.833, 0.833, 0.554, 0, 112.189)" fill="#dce736"/>
          <path id="Trazado_210308" data-name="Trazado 210308" d="M297.23,1876.19l-4.424,5.921-5.76-3.507,6.514-6.391,4.7.864Z" transform="translate(-221.183 -1786.688)" fill="#e89780"/>
          <path id="Trazado_210309" data-name="Trazado 210309" d="M273.3,1903.605c2.684,1.561,6.022.9,7.393-1.476l6.782-12.393,2.392-4.393,2.5-4.573-4.163-2.877-2.956-2.042-.285-.2-3.038,4.507-2.79,4.129-8.21,12.159C269.562,1898.818,270.621,1902.045,273.3,1903.605Z" transform="translate(-218.12 -1787.318)" fill="#dce736"/>
          <path id="Trazado_210310" data-name="Trazado 210310" d="M246.553,1871.66c3.944.087,5.623-1.873,6.13-2.644l-1.475-.666-9.751-.491-1.172.376A6.98,6.98,0,0,0,246.553,1871.66Z" transform="translate(-212.611 -1785.89)" fill="#fdae97"/>
          <path id="Trazado_210311" data-name="Trazado 210311" d="M258.335,1896.2l.234,16.126H228.212l.36-40.655,10.417-3.764c.117.214.243.438.4.671l.039.048c.564.719,1.643,1.4,4.668,1.469,2.519.059,3.754-.292,4.455-.749l.01-.01a2.652,2.652,0,0,0,.777-.826l9.834,2.169-.662,20.522Z" transform="translate(-210.398 -1785.899)" fill="#dce736"/>
          <path id="Trazado_210312" data-name="Trazado 210312" d="M219.247,2003.071l15.615-.011,4.707-36.338a8.617,8.617,0,1,0-17.139-1.8,8.247,8.247,0,0,0-.035,1.22l-2.719,31.895-.43,5.039Z" transform="translate(-208.755 -1802.267)" fill="#3d46c2"/>
          <path id="Trazado_210313" data-name="Trazado 210313" d="M276.366,1902.984h0a5.509,5.509,0,0,1-7.388-2.4l-11.025-21.63a5.508,5.508,0,0,1,2.4-7.388h0a5.508,5.508,0,0,1,7.388,2.4l11.025,21.629A5.508,5.508,0,0,1,276.366,1902.984Z" transform="translate(-215.741 -1786.46)" fill="#dce736"/>
          <g id="Grupo_157220" data-name="Grupo 157220" transform="translate(25.362)">
            <path id="Trazado_210314" data-name="Trazado 210314" d="M368.484,1847.495a46.142,46.142,0,1,0-65.2-2.563A46.187,46.187,0,0,0,368.484,1847.495Zm-61.931-5.6a41.677,41.677,0,1,1,58.9,2.328A41.676,41.676,0,0,1,306.554,1841.891Z" transform="translate(-247.279 -1767.49)" fill="#3d46c2"/>
            <path id="Trazado_210315" data-name="Trazado 210315" d="M366.45,1845.215a41.682,41.682,0,1,0-58.9-2.328A41.683,41.683,0,0,0,366.45,1845.215Zm-57.232-3.865a39.408,39.408,0,1,1,55.7,2.2A39.411,39.411,0,0,1,309.218,1841.35Z" transform="translate(-248.274 -1768.486)" fill="#586773"/>
            <g id="Grupo_157219" data-name="Grupo 157219" transform="translate(50.475 6.708)">
              <path id="Trazado_210316" data-name="Trazado 210316" d="M309.727,1841.859a39.408,39.408,0,1,1,55.7,2.2A39.411,39.411,0,0,1,309.727,1841.859Z" transform="translate(-299.259 -1775.704)" fill="#fff" opacity="0.5"/>
            </g>
            <path id="Trazado_210317" data-name="Trazado 210317" d="M288.333,1878.016l-1.75-1.793,18.261-16.869,1.64,1.894Z" transform="translate(-246.46 -1784.33)" fill="#93acbf"/>
            <path id="Trazado_210318" data-name="Trazado 210318" d="M238.266,1917.6c-.009-.007-.011-.014-.019-.02a2.973,2.973,0,0,1,.167-4.209l37.861-34.992,1.3,1.333.8.814.951.979,1.108,1.137-37.98,35.1A2.972,2.972,0,0,1,238.266,1917.6Z" transform="translate(-237.454 -1787.818)" fill="#586773"/>
            <path id="Trazado_210319" data-name="Trazado 210319" d="M238.448,1918.079a.145.145,0,0,1,.033-.029l40.078-37.045.951.979,1.108,1.137-37.98,35.1A2.972,2.972,0,0,1,238.448,1918.079Z" transform="translate(-237.636 -1788.3)" fill="#93acbf"/>
            <path id="Trazado_210320" data-name="Trazado 210320" d="M359.747,1791.972,338.7,1828.227l-.185.318-10.426-15.831-6.908,4.554,14.105,21.405,3.461-.1,3.571-.1,24.588-42.352Z" transform="translate(-252.802 -1771.978)" fill="#dce736"/>
          </g>
          <path id="Trazado_210321" data-name="Trazado 210321" d="M252.976,1847.857s.085-3.718-.933-3.718S251.326,1847.848,252.976,1847.857Z" transform="translate(-214.659 -1781.541)" fill="#332b27"/>
          <path id="Trazado_210322" data-name="Trazado 210322" d="M251.067,1869.51l-4.455,7.042-4.668-7.762c.564.719,1.643,1.4,4.668,1.468C249.132,1870.317,250.366,1869.967,251.067,1869.51Z" transform="translate(-212.915 -1786.06)" fill="#d6eaff"/>
          <path id="Trazado_210323" data-name="Trazado 210323" d="M255.5,1910.208c-.065.473-2.894,1.08-5,.857-1.78-.187-5.838-1.062-7.032-1.328l.448-5.678a14.7,14.7,0,0,0,2.178-.24c1.654-.332,6.252-.72,6.3-.052s-3.046,1.563-2.8,1.824,2.679.129,3.705-.011,3.192-.786,3.614-.351-.039,1.2-.039,1.2.8-.345.921.193-.982,1.384-.982,1.384.417-.241.408.384-2.09,1.322-2.09,1.322A.386.386,0,0,1,255.5,1910.208Z" transform="translate(-213.195 -1792.405)" fill="#fdae97"/>
          <path id="Trazado_210324" data-name="Trazado 210324" d="M248.858,1965.016l4.01,37.769h15.341l-2.46-37.976a10.574,10.574,0,0,0-.127-1.261c-.421-4.743-4.19-8.285-8.933-7.872A8.626,8.626,0,0,0,248.858,1965.016Z" transform="translate(-214.177 -1801.982)" fill="#3d46c2"/>
          <path id="Trazado_210325" data-name="Trazado 210325" d="M238.608,1900.9l-5.431-1.094-4.916-.984-13.118-2.638c-2.715-.361-5.277,1.855-5.694,4.934s1.475,5.9,4.192,6.263l13.693,1.011,4.976.372,5.142.381Z" transform="translate(-206.948 -1791.076)" fill="#dce736"/>
          <path id="Trazado_210326" data-name="Trazado 210326" d="M252.134,1865.1l-6.041-4.4,5.745.292Z" transform="translate(-213.676 -1784.577)" fill="#ea9d85"/>
          <path id="Trazado_210327" data-name="Trazado 210327" d="M249.924,1844.7l1.637,5.953.561,2.043c.443,1.613.648,4.131-1.015,5.183a6.479,6.479,0,0,1-6.617-.429c-2.258-1.415-8.458-8.88-3.961-13.5S249.57,1843.9,249.924,1844.7Z" transform="translate(-212.363 -1781.131)" fill="#fdae97"/>
          <path id="Trazado_210328" data-name="Trazado 210328" d="M240.935,1842.88s1.688-3.329,3.154-3.08-.087,1.54-.087,1.54,4.858-1.279,6.491,1.877-6.041,2.212-6.041,2.212,1.519,1.891,0,2.076a2.817,2.817,0,0,1-2.214-.461s1.515,2.808.671,3.7.2,3.429,1.143,4.15a3.087,3.087,0,0,0,3.422-.236,3.176,3.176,0,0,1,1.759-.9c.484-.053,1.63.238,2.124.158a1.9,1.9,0,0,0,.688-.363,8.606,8.606,0,0,1,.272,1.211c.038.721.394,3.941-3.259,4.091a7.387,7.387,0,0,1-7.41-4.267l-.466,2.076a7.264,7.264,0,0,0-1.718-3.48c-1.276-1.143-2.879-6.435-.57-8.473,0,0-1.985,1.136-1.73-.284C237.357,1843.348,240.935,1842.88,240.935,1842.88Z" transform="translate(-212.035 -1780.743)" fill="#332b27"/>
          <g id="Grupo_157221" data-name="Grupo 157221" transform="translate(26.362 71.473)">
            <path id="Trazado_210329" data-name="Trazado 210329" d="M241.89,1856.753c.435,1.133.462,1.874-.427,2.215a2.079,2.079,0,0,1-2.6-1.217,2,2,0,0,1,.822-2.67C240.574,1854.739,241.455,1855.62,241.89,1856.753Z" transform="translate(-238.679 -1855.007)" fill="#fdae97"/>
          </g>
          <path id="Trazado_210330" data-name="Trazado 210330" d="M248,1852.31c.1.375.382.624.624.558s.355-.424.252-.8-.382-.623-.625-.557S247.9,1851.937,248,1852.31Z" transform="translate(-214.019 -1782.891)" fill="#332b27"/>
          <path id="Trazado_210331" data-name="Trazado 210331" d="M253.348,1850.841c.1.374-.01.732-.252.8s-.522-.183-.625-.557.011-.731.252-.8S253.245,1850.467,253.348,1850.841Z" transform="translate(-214.838 -1782.666)" fill="#332b27"/>
          <path id="Trazado_210332" data-name="Trazado 210332" d="M249.088,1855.114c-.02.375-.643.646-1.389.605s-1.334-.379-1.314-.755.643-.646,1.389-.605S249.109,1854.738,249.088,1855.114Z" transform="translate(-213.729 -1783.414)" fill="#e89780"/>
          <path id="Trazado_210333" data-name="Trazado 210333" d="M254.2,1852.611l.364,1.328c-.541.219-1.042.19-1.2-.08C253.184,1853.536,253.556,1852.98,254.2,1852.611Z" transform="translate(-215 -1783.094)" fill="#e89780"/>
          <path id="Trazado_210334" data-name="Trazado 210334" d="M240.158,1857.5a3.108,3.108,0,0,1,1.132.231c-.342-1.149-1.175-1.193-1.175-1.193" transform="translate(-212.58 -1783.814)" fill="none" stroke="#ea9d85" stroke-linecap="round" stroke-linejoin="round" stroke-width="0.343"/>
          <path id="Trazado_210335" data-name="Trazado 210335" d="M250.377,1852.183l1.483,2.163a.58.58,0,0,1-.045.711l-.273.308-.28.315" transform="translate(-214.461 -1783.016)" fill="none" stroke="#332b27" stroke-miterlimit="10" stroke-width="0.22"/>
          <path id="Trazado_210336" data-name="Trazado 210336" d="M247.08,1851.517a2.072,2.072,0,0,1,1.59-1.013" transform="translate(-213.857 -1782.708)" fill="none" stroke="#332b27" stroke-miterlimit="10" stroke-width="0.22"/>
          <path id="Trazado_210337" data-name="Trazado 210337" d="M253.307,1849.378a1.447,1.447,0,0,0-1.575.218" transform="translate(-214.71 -1782.476)" fill="none" stroke="#332b27" stroke-miterlimit="10" stroke-width="0.22"/>
          <path id="Trazado_210338" data-name="Trazado 210338" d="M252.536,1868.039l-4.875,2.086,2.562,3.112,2.917-4.6Z" transform="translate(-213.963 -1785.922)" fill="#fff"/>
          <path id="Trazado_210339" data-name="Trazado 210339" d="M241.642,1867.474l4.837,2.547L244.172,1873l-2.962-5.109Z" transform="translate(-212.781 -1785.819)" fill="#fff"/>
          <path id="Trazado_210340" data-name="Trazado 210340" d="M256.393,2019.27l-.411-5.9h11.494l.449,5.9Z" transform="translate(-215.489 -1812.564)" fill="#fdae97"/>
          <path id="Trazado_210341" data-name="Trazado 210341" d="M267.679,2016.041l-11.7-2.674h11.494Z" transform="translate(-215.489 -1812.564)" fill="#ea9d85"/>
          <path id="Trazado_210342" data-name="Trazado 210342" d="M233.007,2019.267l.441-5.912-11.773.01-.2,5.9Z" transform="translate(-209.163 -1812.562)" fill="#fdae97"/>
          <path id="Trazado_210343" data-name="Trazado 210343" d="M299.456,1870.594l-1.8-.245a1.163,1.163,0,0,0-1.184.6l-1.746,3.281a1.158,1.158,0,0,0,.807,1.68l1.934.371a1.163,1.163,0,0,0,1.272-.643l1.61-3.409A1.157,1.157,0,0,0,299.456,1870.594Z" transform="translate(-222.567 -1786.344)" fill="#fdae97"/>
          <path id="Trazado_210344" data-name="Trazado 210344" d="M233.247,2016.653l-11.527-3.288,11.773-.01Z" transform="translate(-209.208 -1812.562)" fill="#ea9d85"/>
          <path id="Trazado_210345" data-name="Trazado 210345" d="M240.511,1869.445l5.84,9.393,5.762-8.787" transform="translate(-212.653 -1786.18)" fill="none" stroke="#fff" stroke-linecap="round" stroke-linejoin="round" stroke-width="0.179"/>
          <line id="Línea_1219" data-name="Línea 1219" x1="2.226" y1="0.406" transform="translate(14.449 106.37)" fill="none" stroke="#322a28" stroke-linecap="round" stroke-linejoin="round" stroke-width="0.179"/>
          <line id="Línea_1220" data-name="Línea 1220" y1="2.044" x2="1.36" transform="translate(18.006 102.732)" fill="none" stroke="#322a28" stroke-linecap="round" stroke-linejoin="round" stroke-width="0.179"/>
          <path id="Trazado_210346" data-name="Trazado 210346" d="M273.678,2025.492H256.706l-.029-.691-.208-4.574h11.55a6.061,6.061,0,0,1,3.764,1.715,5.786,5.786,0,0,1,1.751,2.859A4.206,4.206,0,0,1,273.678,2025.492Z" transform="translate(-215.578 -1813.821)" fill="#322a28"/>
          <path id="Trazado_210347" data-name="Trazado 210347" d="M273.725,2026.519H256.752l-.029-.691h16.856A4.206,4.206,0,0,1,273.725,2026.519Z" transform="translate(-215.625 -1814.848)" fill="#fff1f0"/>
          <g id="Grupo_157222" data-name="Grupo 157222" transform="translate(50.154 205.552)">
            <path id="Trazado_210348" data-name="Trazado 210348" d="M270.444,2020.977s-1.467-2.575-2.455-1.557,2.455,1.557,2.455,1.557" transform="translate(-267.811 -2019.182)" fill="none" stroke="#fff1f0" stroke-linecap="round" stroke-linejoin="round" stroke-width="0.272"/>
            <path id="Trazado_210349" data-name="Trazado 210349" d="M270.4,2021.489l.516-.512s1.468-2.575,2.455-1.557-2.455,1.557-2.455,1.557" transform="translate(-268.286 -2019.182)" fill="none" stroke="#fff1f0" stroke-linecap="round" stroke-linejoin="round" stroke-width="0.272"/>
            <line id="Línea_1221" data-name="Línea 1221" x1="0.394" y1="0.513" transform="translate(2.633 1.795)" fill="none" stroke="#fff1f0" stroke-linecap="round" stroke-linejoin="round" stroke-width="0.272"/>
          </g>
          <path id="Trazado_210350" data-name="Trazado 210350" d="M214.648,2025.492H231.62l.029-.691.208-4.574h-11.55a6.063,6.063,0,0,0-3.764,1.715,5.779,5.779,0,0,0-1.75,2.859A4.125,4.125,0,0,0,214.648,2025.492Z" transform="translate(-207.912 -1813.821)" fill="#322a28"/>
          <path id="Trazado_210351" data-name="Trazado 210351" d="M214.648,2026.519H231.62l.029-.691H214.794A4.125,4.125,0,0,0,214.648,2026.519Z" transform="translate(-207.912 -1814.848)" fill="#fff1f0"/>
          <g id="Grupo_157223" data-name="Grupo 157223" transform="translate(9.417 205.708)">
            <path id="Trazado_210352" data-name="Trazado 210352" d="M221.154,2021.167s1.467-2.574,2.455-1.557-2.455,1.557-2.455,1.557" transform="translate(-218.521 -2019.372)" fill="none" stroke="#fff1f0" stroke-linecap="round" stroke-linejoin="round" stroke-width="0.272"/>
            <path id="Trazado_210353" data-name="Trazado 210353" d="M221.079,2021.68l-.516-.513s-1.467-2.574-2.455-1.557,2.455,1.557,2.455,1.557" transform="translate(-217.93 -2019.372)" fill="none" stroke="#fff1f0" stroke-linecap="round" stroke-linejoin="round" stroke-width="0.272"/>
            <line id="Línea_1222" data-name="Línea 1222" y1="0.513" x2="0.394" transform="translate(2.239 1.795)" fill="none" stroke="#fff1f0" stroke-linecap="round" stroke-linejoin="round" stroke-width="0.272"/>
          </g>
          <path id="Trazado_210354" data-name="Trazado 210354" d="M247.218,1947.713l.552-4.522,2.775-1.915,2.255-9.186" transform="translate(-213.882 -1797.664)" fill="none" stroke="#fff" stroke-miterlimit="10" stroke-width="0.394"/>
          <line id="Línea_1223" data-name="Línea 1223" x1="10.916" transform="translate(41.52 196.175)" fill="none" stroke="#fff" stroke-miterlimit="10" stroke-width="0.394"/>
          <line id="Línea_1224" data-name="Línea 1224" x1="10.916" transform="translate(12.313 196.175)" fill="none" stroke="#fff" stroke-miterlimit="10" stroke-width="0.394"/>
          <line id="Línea_1225" data-name="Línea 1225" x2="13.846" y2="2.801" transform="translate(17.814 107.026)" fill="none" stroke="#322a28" stroke-linecap="round" stroke-linejoin="round" stroke-width="0.179"/>
          <line id="Línea_1226" data-name="Línea 1226" x2="7.547" y2="0.56" transform="translate(17.814 117.132)" fill="none" stroke="#322a28" stroke-linecap="round" stroke-linejoin="round" stroke-width="0.179"/>
          <path id="Trazado_210355" data-name="Trazado 210355" d="M250.973,1858.544c.044.336.54.548,1.107.473s.99-.408.945-.744-.539-.548-1.106-.473S250.929,1858.208,250.973,1858.544Z" transform="translate(-214.57 -1784.043)" fill="#fdae97"/>
        </g>
        <g id="Grupo_157225" data-name="Grupo 157225" transform="translate(468.312 1863.957)">
          <path id="Trazado_210356" data-name="Trazado 210356" d="M559.321,1911.028a5.853,5.853,0,0,0-1.756-.833,1.349,1.349,0,0,1-2.676-.135,5.785,5.785,0,0,0-1.83.648,1.349,1.349,0,0,1-1.989,1.8,5.782,5.782,0,0,0-.831,1.754,1.349,1.349,0,0,1-.139,2.676,5.826,5.826,0,0,0,.65,1.832,1.349,1.349,0,0,1,1.8,1.989,5.778,5.778,0,0,0,1.754.831,1.349,1.349,0,0,1,2.676.135,5.8,5.8,0,0,0,1.83-.648,1.349,1.349,0,0,1,1.99-1.8,5.823,5.823,0,0,0,.831-1.755,1.348,1.348,0,0,1,.138-2.675,5.787,5.787,0,0,0-.648-1.83,1.349,1.349,0,0,1-1.8-1.99Zm-1.26,2.944a2.866,2.866,0,1,1-4.05-.208A2.866,2.866,0,0,1,558.061,1913.972Z" transform="translate(-543.986 -1910.06)" fill="#fff"/>
          <path id="Trazado_210357" data-name="Trazado 210357" d="M552.011,1931.4a3.17,3.17,0,1,1-1.432-4.251A3.17,3.17,0,0,1,552.011,1931.4Zm3.541.1a6.453,6.453,0,0,0,.143-2.145,1.492,1.492,0,0,1-.95-2.809,6.421,6.421,0,0,0-1.411-1.619,1.493,1.493,0,0,1-2.658-1.316,6.424,6.424,0,0,0-2.143-.141,1.492,1.492,0,0,1-2.809.947,6.458,6.458,0,0,0-1.62,1.413,1.492,1.492,0,0,1-1.317,2.657,6.4,6.4,0,0,0-.141,2.143,1.492,1.492,0,0,1,.95,2.808,6.421,6.421,0,0,0,1.41,1.619,1.492,1.492,0,0,1,2.658,1.316,6.406,6.406,0,0,0,2.143.142,1.492,1.492,0,0,1,2.809-.946,6.391,6.391,0,0,0,1.619-1.411,1.492,1.492,0,0,1,1.316-2.658Z" transform="translate(-542.614 -1912.512)" fill="#fff"/>
        </g>
        <g id="Grupo_157226" data-name="Grupo 157226" transform="translate(367.1 1667.63)">
          <path id="Trazado_210358" data-name="Trazado 210358" d="M418.684,1686.54v-2.274l13.125-7.1v3.473l-8.767,4.767,8.767,4.767v3.473Z" transform="translate(-418.684 -1671.039)" fill="#fff"/>
          <path id="Trazado_210359" data-name="Trazado 210359" d="M439.162,1695.109l-2.153-.947,8.093-24.5,2.153,1.01Z" transform="translate(-422.043 -1669.664)" fill="#fff"/>
          <path id="Trazado_210360" data-name="Trazado 210360" d="M465.314,1684.267v2.274l-13.124,7.1v-3.473l8.767-4.767-8.767-4.767v-3.473Z" transform="translate(-424.826 -1671.039)" fill="#fff"/>
        </g>
        <g id="Grupo_157229" data-name="Grupo 157229" transform="translate(353.367 1807.363)">
          <path id="Trazado_210361" data-name="Trazado 210361" d="M402.225,1875.011c-.238.422,1.679,2.649,3.515,3.755,1.555.939,5.374,2.719,6.5,3.235l3.118-4.867a14.882,14.882,0,0,1-1.615-1.53c-1.134-1.281-4.615-4.412-5.065-3.9s1.506,3.131,1.143,3.188-2.245-1.537-2.991-2.279-2.1-2.592-2.707-2.5-.706,1-.706,1-.434-.768-.863-.409-.053,1.721-.053,1.721-.19-.45-.564.061.88,2.35.88,2.35A.391.391,0,0,0,402.225,1875.011Z" transform="translate(-401.868 -1846.143)" fill="#fdae97"/>
          <path id="Trazado_210362" data-name="Trazado 210362" d="M460.489,1840.763a8.521,8.521,0,0,1,7.607,8.7c.05,4.91.94,7.437,3.908,6.866,0,0-8.314,4.822-19.27.568,0,0,1.374-1.629,1.566-5.316S460.489,1840.763,460.489,1840.763Z" transform="translate(-411.193 -1840.763)" fill="#322a28"/>
          <path id="Trazado_210363" data-name="Trazado 210363" d="M435.552,1895.594h0a5.338,5.338,0,0,0,7.209-2.164l10.427-19.374a5.338,5.338,0,0,0-2.164-7.209h0a5.338,5.338,0,0,0-7.209,2.164l-10.427,19.374A5.337,5.337,0,0,0,435.552,1895.594Z" transform="translate(-407.531 -1845.429)" fill="#f74242"/>
          <path id="Trazado_210364" data-name="Trazado 210364" d="M461.261,1910.082c3.485,4.562,4.8,14.02,2.576,24.209s-2.973,16.887-2.973,16.887a8.6,8.6,0,1,1-17.079-2.1l3.542-39Z" transform="translate(-409.54 -1853.47)" fill="#3d46c2"/>
          <path id="Trazado_210365" data-name="Trazado 210365" d="M462.262,1864.286l9.313,4.218s-2.071,23.976-2.285,26.6a29.878,29.878,0,0,0,.589,6.584h-22.32s.268-12.846-1.231-16.432c-1.015-2.43-1.713-3.907-1.124-6.69s4.9-7.7,4.2-12.521l4.858-1.556Z" transform="translate(-409.773 -1845.075)" fill="#dce736"/>
          <path id="Trazado_210366" data-name="Trazado 210366" d="M483.389,1899.971h0a5.338,5.338,0,0,0,3.168-6.828l-7.565-20.66a5.338,5.338,0,0,0-6.827-3.168h0a5.337,5.337,0,0,0-3.167,6.828l7.564,20.66A5.338,5.338,0,0,0,483.389,1899.971Z" transform="translate(-414.115 -1845.938)" fill="#f74242"/>
          <path id="Trazado_210367" data-name="Trazado 210367" d="M454.912,1846.361s-1.268-3.117,1.779-4.061Z" transform="translate(-411.544 -1841.045)" fill="#332b27"/>
          <path id="Trazado_210368" data-name="Trazado 210368" d="M456.348,1851.263V1862.1a3.032,3.032,0,0,0,3.04,2.587,5.385,5.385,0,0,0,4.644-2.276l.345-.5.008-.008-1.151-10.633Z" transform="translate(-411.855 -1842.688)" fill="#fdae97"/>
          <path id="Trazado_210369" data-name="Trazado 210369" d="M456.349,1861.847l4.8-5.222-4.8,1.805Z" transform="translate(-411.855 -1843.671)" fill="#e89780"/>
          <path id="Trazado_210370" data-name="Trazado 210370" d="M460.45,1854.909a6.338,6.338,0,0,1-6.491.247c-1.6-1.068-1.336-3.531-.86-5.094l0-.012c.1-.323.24-.777.4-1.292.611-2.02,1.514-5.01,1.514-5.01.394-1.58,4.921-5.135,9.206-.5S462.7,1853.585,460.45,1854.909Z" transform="translate(-411.193 -1840.797)" fill="#fdae97"/>
          <path id="Trazado_210371" data-name="Trazado 210371" d="M455.7,1843.074s.059,1.894,2.711,3.159,5.171,3.2,4.854,6a7.334,7.334,0,0,0,.642,4.375,18.287,18.287,0,0,1,2.153-6.437,6.052,6.052,0,0,0,.147-5.643C464.42,1841.239,459.806,1838.743,455.7,1843.074Z" transform="translate(-411.737 -1840.763)" fill="#322a28"/>
          <path id="Trazado_210372" data-name="Trazado 210372" d="M464.3,1853.819c-.571.844-.733,1.443-.071,1.891a1.746,1.746,0,0,0,2.355-.5,1.683,1.683,0,0,0-.165-2.338C465.752,1852.424,464.865,1852.977,464.3,1853.819Z" transform="translate(-413.22 -1842.953)" fill="#fdae97"/>
          <path id="Trazado_210373" data-name="Trazado 210373" d="M466,1854.686a1.245,1.245,0,0,0-1.04-.028c.384-.961,1.539-.573,1.539-.573" transform="translate(-413.435 -1843.191)" fill="none" stroke="#e89780" stroke-linecap="round" stroke-linejoin="round" stroke-width="0.155"/>
          <path id="Trazado_210374" data-name="Trazado 210374" d="M459.1,1850.827c-.105.379-.39.631-.635.563s-.359-.43-.253-.809.39-.631.635-.563S459.2,1850.448,459.1,1850.827Z" transform="translate(-412.189 -1842.457)" fill="#2c3447"/>
          <path id="Trazado_210375" data-name="Trazado 210375" d="M455.339,1849.393c-.1.349-.359.582-.586.519s-.331-.4-.234-.747.359-.583.586-.52S455.436,1849.042,455.339,1849.393Z" transform="translate(-411.513 -1842.206)" fill="#2c3447"/>
          <path id="Trazado_210376" data-name="Trazado 210376" d="M440.018,2002.609h15.118l5.19-44.436.066-1.018a8.577,8.577,0,0,0-8.845-8.578,8.672,8.672,0,0,0-8.32,8.08Z" transform="translate(-408.862 -1860.526)" fill="#3d46c2"/>
          <path id="Trazado_210377" data-name="Trazado 210377" d="M460.561,1850.038s-.5-1.156-1.481-1.061" transform="translate(-412.356 -1842.268)" fill="none" stroke="#2c3447" stroke-miterlimit="10" stroke-width="0.23"/>
          <path id="Trazado_210378" data-name="Trazado 210378" d="M455.766,1847.9a1.421,1.421,0,0,0-1.279.179" transform="translate(-411.514 -1842.057)" fill="none" stroke="#2c3447" stroke-miterlimit="10" stroke-width="0.23"/>
          <path id="Trazado_210379" data-name="Trazado 210379" d="M472.18,2002.608h14.427l-4.578-45.9-.013-.159a8.586,8.586,0,0,0-17.151.6,7.318,7.318,0,0,0,.04.777Z" transform="translate(-413.417 -1860.526)" fill="#3d46c2"/>
          <path id="Trazado_210380" data-name="Trazado 210380" d="M412.781,1885.715l17.654,11.171,1.045.867c2.129,1.475,5.25.708,6.926-1.71s1.3-5.6-.832-7.079L417.8,1877.881l-.438.678-3.118,4.867Z" transform="translate(-403.869 -1847.567)" fill="#f74242"/>
          <path id="Trazado_210381" data-name="Trazado 210381" d="M456.707,1849.91s-.565,1.865-1.731,1.788a2.417,2.417,0,0,0,.665.67" transform="translate(-411.604 -1842.44)" fill="none" stroke="#2c3447" stroke-miterlimit="10" stroke-width="0.23"/>
          <path id="Trazado_210382" data-name="Trazado 210382" d="M456.708,1910.087l.2,1.251,6.475,39.566a8.605,8.605,0,1,0,17.116-1.8s-.781-6.694-.907-17.125c-.1-8.079-1.931-14.6-4.813-18.812a14.937,14.937,0,0,0-2.755-3.082Z" transform="translate(-411.921 -1853.471)" fill="#3d46c2"/>
          <path id="Trazado_210383" data-name="Trazado 210383" d="M455.029,1854.716a1.8,1.8,0,0,0,2.337-.249" transform="translate(-411.614 -1843.275)" fill="none" stroke="#2c3447" stroke-miterlimit="10" stroke-width="0.23"/>
          <path id="Trazado_210384" data-name="Trazado 210384" d="M460.895,1852.88c.011.41-.631.76-1.434.782s-1.464-.292-1.476-.7.631-.76,1.434-.782S460.883,1852.47,460.895,1852.88Z" transform="translate(-412.155 -1842.855)" fill="#e89780"/>
          <path id="Trazado_210385" data-name="Trazado 210385" d="M454.034,1851.608c-.13.218-.457.279-.849.194.1-.323.24-.777.4-1.292C454,1850.895,454.2,1851.336,454.034,1851.608Z" transform="translate(-411.276 -1842.55)" fill="#e89780"/>
          <path id="Trazado_210386" data-name="Trazado 210386" d="M463.935,1856.273a.655.655,0,1,0,.8-.463A.655.655,0,0,0,463.935,1856.273Z" transform="translate(-413.242 -1843.517)" fill="none" stroke="#fff" stroke-miterlimit="10" stroke-width="0.203"/>
          <path id="Trazado_210387" data-name="Trazado 210387" d="M491.6,2024.485H480.468l-1.445-2.2.033,2.2H476.6l.22-6.358-.538-3.393h9.07l.034,3.393Z" transform="translate(-415.51 -1872.655)" fill="#fdae97"/>
          <path id="Trazado_210388" data-name="Trazado 210388" d="M455.927,1864.476l.562,11.39,7.466-11.036a5.385,5.385,0,0,1-4.644,2.276A3.647,3.647,0,0,1,455.927,1864.476Z" transform="translate(-411.778 -1845.11)" fill="#bbdbf3"/>
          <path id="Trazado_210389" data-name="Trazado 210389" d="M464.856,1863.53l-5.568,3.312,1.177,2.06,5.176-4.412Z" transform="translate(-412.394 -1844.936)" fill="#fff"/>
          <path id="Trazado_210390" data-name="Trazado 210390" d="M456.224,1864.112l2.4,2.837-1.449,1.749-1.511-4.064Z" transform="translate(-411.73 -1845.043)" fill="#fff"/>
          <g id="Grupo_157228" data-name="Grupo 157228" transform="translate(7.682 30.937)">
            <path id="Trazado_210391" data-name="Trazado 210391" d="M418.158,1902l29.982,1.257-6.883-22.779-29.982-1.257Z" transform="translate(-411.275 -1878.75)" fill="#a5bbd6"/>
            <g id="Grupo_157227" data-name="Grupo 157227">
              <path id="Trazado_210392" data-name="Trazado 210392" d="M449.34,1905.177l10.168-8.261-29-1.216-11.15,8.219Z" transform="translate(-412.757 -1881.771)" fill="#89a5c7"/>
              <path id="Trazado_210393" data-name="Trazado 210393" d="M418.877,1901.423l29.982,1.257-6.883-22.779-29.982-1.257Z" transform="translate(-411.406 -1878.644)" fill="#a5bbd6"/>
              <path id="Trazado_210394" data-name="Trazado 210394" d="M411.862,1878.644l-.587.473,29.982,1.257,6.883,22.779.587-.473-6.883-22.779Z" transform="translate(-411.275 -1878.644)" fill="#89a5c7"/>
              <path id="Trazado_210395" data-name="Trazado 210395" d="M466.226,1897.189l.281,1.1-10.168,8.261-.334-1.106Z" transform="translate(-419.474 -1882.044)" fill="#586773"/>
            </g>
            <path id="Trazado_210396" data-name="Trazado 210396" d="M428.213,1893.716c-.034.813,1.427,1.534,3.263,1.611s3.352-.519,3.386-1.332-1.427-1.534-3.263-1.611S428.247,1892.9,428.213,1893.716Z" transform="translate(-414.38 -1881.161)" fill="#89a5c7"/>
          </g>
          <path id="Trazado_210397" data-name="Trazado 210397" d="M443.545,2024.485l2.662-1.982-.227,1.982h2.478l1.218-6.358.655-3.393h-9.608l-.37,3.393-7.71,6.358Z" transform="translate(-407.51 -1872.655)" fill="#fdae97"/>
          <path id="Trazado_210398" data-name="Trazado 210398" d="M485.461,2018.889l6.215,6.358H480.539l-1.445-2.2.033,2.2h-2.452l.22-6.358Z" transform="translate(-415.582 -1873.416)" fill="#322a28"/>
          <path id="Trazado_210399" data-name="Trazado 210399" d="M443.545,2025.247l2.662-1.982-.227,1.982h2.478l1.218-6.358h-9.322l-7.71,6.358Z" transform="translate(-407.51 -1873.416)" fill="#322a28"/>
          <path id="Trazado_210400" data-name="Trazado 210400" d="M441.053,1900.07c-.434.443.033,1.223.033,1.223s-.81-.356-.932.185c-.119.5.836,1.3.961,1.4-.091-.044-.4-.153-.39.4.006.607,1.911,1.282,2.092,1.344a.4.4,0,0,0-.356.5c.074.488,2.935,1.123,5.067.915,1.8-.18,5.9-1.049,7.128-1.311l-.324-5.754a14.432,14.432,0,0,1-2.282-.266c-1.681-.351-6.342-.768-6.4-.091s3.081,1.607,2.826,1.868-2.715.114-3.756-.029S441.48,1899.63,441.053,1900.07Z" transform="translate(-408.885 -1851.302)" fill="#fdae97"/>
          <path id="Trazado_210401" data-name="Trazado 210401" d="M457.391,1896.547l.1,1.74.324,5.754.087,1.528,22.312-.37c2.59-.089,4.627-2.567,4.53-5.508s-2.314-5.269-4.911-5.176l-1.682.286-.008,0Z" transform="translate(-412.047 -1850.616)" fill="#f74242"/>
          <path id="Trazado_210402" data-name="Trazado 210402" d="M462.52,1895.03l10.65-.895-2.189-5.979" transform="translate(-412.987 -1849.451)" fill="none" stroke="#2c3447" stroke-miterlimit="10" stroke-width="0.23"/>
          <line id="Línea_1227" data-name="Línea 1227" x2="4.841" transform="translate(59.789 54.722)" fill="none" stroke="#2c3447" stroke-miterlimit="10" stroke-width="0.23"/>
          <path id="Trazado_210403" data-name="Trazado 210403" d="M457.73,1850.518a1.064,1.064,0,1,0,1.517-.75A1.218,1.218,0,0,0,457.73,1850.518Z" transform="translate(-412.076 -1842.398)" fill="none" stroke="#fff" stroke-miterlimit="10" stroke-width="0.3"/>
          <path id="Trazado_210404" data-name="Trazado 210404" d="M454,1849.091a1.064,1.064,0,1,0,1.517-.75A1.22,1.22,0,0,0,454,1849.091Z" transform="translate(-411.393 -1842.137)" fill="none" stroke="#fff" stroke-miterlimit="10" stroke-width="0.3"/>
          <line id="Línea_1228" data-name="Línea 1228" x1="1.233" y1="0.424" transform="translate(44.6 7.41)" fill="none" stroke="#fff" stroke-miterlimit="10" stroke-width="0.3"/>
        </g>
      </g>
    </g>
  </g>
</svg>
