<svg xmlns="http://www.w3.org/2000/svg" width="95.923" height="92.828" viewBox="0 0 95.923 92.828">
  <g id="Grupo_158105" data-name="Grupo 158105" transform="translate(10935.923 4824.533)">
    <g id="surface1" transform="translate(-10934.924 -5299.183)">
      <path id="Trazado_203763" data-name="Trazado 203763" d="M7.38,476.841H75.455a6.188,6.188,0,0,1,6.188,6.188V551.1a6.188,6.188,0,0,1-6.188,6.189H7.38A6.189,6.189,0,0,1,1.192,551.1V483.029A6.189,6.189,0,0,1,7.38,476.841Z" transform="translate(-0.644 -0.644)" fill="#75b62f"/>
      <path id="Trazado_203764" data-name="Trazado 203764" d="M14.338,561.156h64.98a6.188,6.188,0,0,0,6.188-6.189V489.987Z" transform="translate(-4.507 -4.507)" fill="#dce736"/>
      <path id="Trazado_203765" data-name="Trazado 203765" d="M7.765,483.414h3.094v3.094H7.765Z" transform="translate(-2.576 -2.576)" fill="#5eb3d1"/>
      <path id="Trazado_203766" data-name="Trazado 203766" d="M16.529,483.414h3.094v3.094H16.529Z" transform="translate(-5.151 -2.576)" fill="#5eb3d1"/>
      <path id="Trazado_203767" data-name="Trazado 203767" d="M25.293,483.414h3.095v3.094H25.293Z" transform="translate(-7.727 -2.576)" fill="#5eb3d1"/>
      <path id="Trazado_203768" data-name="Trazado 203768" d="M7.765,492.178H78.934v3.095H7.765Z" transform="translate(-2.576 -5.151)" fill="#5eb3d1"/>
      <path id="Trazado_203769" data-name="Trazado 203769" d="M36.248,509.706h26.3V512.8h-26.3Z" transform="translate(-10.946 -10.302)" fill="#5eb3d1"/>
      <path id="Trazado_203770" data-name="Trazado 203770" d="M36.248,518.47h10.83v3.095H36.248Z" transform="translate(-10.946 -12.878)" fill="#5eb3d1"/>
      <path id="Trazado_203771" data-name="Trazado 203771" d="M55.968,518.47h21.66v3.095H55.968Z" transform="translate(-16.741 -12.878)" fill="#5eb3d1"/>
      <path id="Trazado_203772" data-name="Trazado 203772" d="M77.878,509.706H93.349V512.8H77.878Z" transform="translate(-23.18 -10.302)" fill="#5eb3d1"/>
      <path id="Trazado_203773" data-name="Trazado 203773" d="M15.5,520.8a7.736,7.736,0,1,1,7.736-7.736A7.736,7.736,0,0,1,15.5,520.8Zm0-12.378a4.642,4.642,0,1,0,4.641,4.642A4.642,4.642,0,0,0,15.5,508.418Z" transform="translate(-2.576 -9.015)" fill="#5eb3d1"/>
      <path id="Trazado_203774" data-name="Trazado 203774" d="M36.248,536h26.3v3.094h-26.3Z" transform="translate(-10.946 -18.029)" fill="#5eb3d1"/>
      <path id="Trazado_203775" data-name="Trazado 203775" d="M36.248,544.763h10.83v3.094H36.248Z" transform="translate(-10.946 -20.605)" fill="#5eb3d1"/>
      <path id="Trazado_203776" data-name="Trazado 203776" d="M55.968,544.763h21.66v3.094H55.968Z" transform="translate(-16.741 -20.605)" fill="#5eb3d1"/>
      <path id="Trazado_203777" data-name="Trazado 203777" d="M77.878,536H93.349v3.094H77.878Z" transform="translate(-23.18 -18.029)" fill="#5eb3d1"/>
      <path id="Trazado_203778" data-name="Trazado 203778" d="M15.5,547.088a7.736,7.736,0,1,1,7.736-7.735A7.736,7.736,0,0,1,15.5,547.088Zm0-12.377a4.641,4.641,0,1,0,4.641,4.641A4.642,4.642,0,0,0,15.5,534.711Z" transform="translate(-2.576 -16.741)" fill="#5eb3d1"/>
      <path id="Trazado_203779" data-name="Trazado 203779" d="M36.248,562.292h26.3v3.094h-26.3Z" transform="translate(-10.946 -25.756)" fill="#5eb3d1"/>
      <path id="Trazado_203780" data-name="Trazado 203780" d="M36.248,571.055h10.83v3.095H36.248Z" transform="translate(-10.946 -28.331)" fill="#5eb3d1"/>
      <path id="Trazado_203781" data-name="Trazado 203781" d="M55.968,571.055h21.66v3.095H55.968Z" transform="translate(-16.741 -28.331)" fill="#5eb3d1"/>
      <path id="Trazado_203782" data-name="Trazado 203782" d="M77.878,562.292H93.349v3.094H77.878Z" transform="translate(-23.18 -25.756)" fill="#5eb3d1"/>
      <path id="Trazado_203783" data-name="Trazado 203783" d="M15.5,573.381a7.736,7.736,0,1,1,7.736-7.736A7.736,7.736,0,0,1,15.5,573.381ZM15.5,561a4.641,4.641,0,1,0,4.641,4.641A4.641,4.641,0,0,0,15.5,561Z" transform="translate(-2.576 -24.468)" fill="#5eb3d1"/>
      <path id="Trazado_203784" data-name="Trazado 203784" d="M17.172,510.868l9.282-9.283,2.188,2.188-9.283,9.283Z" transform="translate(-5.34 -7.916)" fill="#e34b87"/>
      <path id="Trazado_203785" data-name="Trazado 203785" d="M17.169,537.158l9.283-9.282,2.188,2.188-9.283,9.283Z" transform="translate(-5.339 -15.642)" fill="#e34b87"/>
      <path id="Trazado_203786" data-name="Trazado 203786" d="M17.168,563.451l9.283-9.282,2.188,2.188-9.283,9.283Z" transform="translate(-5.339 -23.369)" fill="#e34b87"/>
      <path id="Trazado_203787" data-name="Trazado 203787" d="M114.625,564.232a21.66,21.66,0,1,1-21.66-21.66A21.659,21.659,0,0,1,114.625,564.232Z" transform="translate(-21.249 -19.961)" fill="#3d46c2"/>
      <path id="Trazado_203788" data-name="Trazado 203788" d="M89.161,577.567a1.451,1.451,0,0,1-.248-.02,1.54,1.54,0,0,1-1.137-.835l-3.095-6.189,2.769-1.383,2.134,4.269,17.048-17.048,2.188,2.188L90.254,577.114A1.543,1.543,0,0,1,89.161,577.567Z" transform="translate(-25.18 -24.013)" fill="#bf3d75"/>
      <path id="Trazado_203789" data-name="Trazado 203789" d="M86.489,587.369A21.632,21.632,0,0,0,116.1,557.756Z" transform="translate(-25.711 -24.423)" fill="#3d46c2"/>
      <path id="Trazado_203790" data-name="Trazado 203790" d="M6.737,558.2H46.962V555.1H6.737A4.642,4.642,0,0,1,2.1,550.459V482.386a4.641,4.641,0,0,1,4.641-4.641H74.811a4.642,4.642,0,0,1,4.641,4.641V517.97h3.094V482.386a7.745,7.745,0,0,0-7.736-7.736H6.737A7.745,7.745,0,0,0-1,482.386v68.074A7.745,7.745,0,0,0,6.737,558.2Z" transform="translate(0 0)" fill="#75b62f"/>
      <path id="Trazado_203791" data-name="Trazado 203791" d="M7.765,483.414h3.094v3.094H7.765Z" transform="translate(-2.576 -2.576)"/>
      <path id="Trazado_203792" data-name="Trazado 203792" d="M16.529,483.414h3.094v3.094H16.529Z" transform="translate(-5.151 -2.576)"/>
      <path id="Trazado_203793" data-name="Trazado 203793" d="M25.293,483.414h3.095v3.094H25.293Z" transform="translate(-7.727 -2.576)"/>
      <path id="Trazado_203794" data-name="Trazado 203794" d="M7.765,492.178H78.934v3.095H7.765Z" transform="translate(-2.576 -5.151)"/>
      <path id="Trazado_203795" data-name="Trazado 203795" d="M23.67,501.584l-3.93,3.93a7.756,7.756,0,1,0,2.188,2.187l3.929-3.929ZM15.481,516.6a4.642,4.642,0,1,1,0-9.283,4.569,4.569,0,0,1,1.988.465l-3.082,3.082,2.188,2.188,3.083-3.081a4.556,4.556,0,0,1,.465,1.988A4.642,4.642,0,0,1,15.481,516.6Z" transform="translate(-2.556 -7.915)"/>
      <path id="Trazado_203796" data-name="Trazado 203796" d="M36.248,509.706h26.3V512.8h-26.3Z" transform="translate(-10.946 -10.302)"/>
      <path id="Trazado_203797" data-name="Trazado 203797" d="M36.248,518.47h10.83v3.095H36.248Z" transform="translate(-10.946 -12.878)"/>
      <path id="Trazado_203798" data-name="Trazado 203798" d="M55.968,518.47h21.66v3.095H55.968Z" transform="translate(-16.741 -12.878)"/>
      <path id="Trazado_203799" data-name="Trazado 203799" d="M77.878,509.706H93.349V512.8H77.878Z" transform="translate(-23.18 -10.302)"/>
      <path id="Trazado_203800" data-name="Trazado 203800" d="M23.67,527.876l-3.93,3.93a7.758,7.758,0,1,0,2.188,2.188l3.929-3.93Zm-8.188,15.019a4.641,4.641,0,1,1,0-9.283,4.549,4.549,0,0,1,1.988.465l-3.082,3.081,2.188,2.188,3.083-3.08a4.555,4.555,0,0,1,.465,1.988A4.641,4.641,0,0,1,15.481,542.895Z" transform="translate(-2.556 -15.642)"/>
      <path id="Trazado_203801" data-name="Trazado 203801" d="M36.248,536h26.3v3.094h-26.3Z" transform="translate(-10.946 -18.029)"/>
      <path id="Trazado_203802" data-name="Trazado 203802" d="M36.248,544.763h10.83v3.094H36.248Z" transform="translate(-10.946 -20.605)"/>
      <path id="Trazado_203803" data-name="Trazado 203803" d="M55.968,544.763H68.345v3.094H55.968Z" transform="translate(-16.741 -20.605)"/>
      <path id="Trazado_203804" data-name="Trazado 203804" d="M77.878,536h6.189v3.094H77.878Z" transform="translate(-23.18 -18.029)"/>
      <path id="Trazado_203805" data-name="Trazado 203805" d="M23.67,554.169l-3.93,3.93a7.758,7.758,0,1,0,2.188,2.188l3.929-3.93Zm-8.188,15.018a4.641,4.641,0,1,1,0-9.283,4.561,4.561,0,0,1,1.988.464l-3.082,3.082,2.188,2.188,3.083-3.08a4.559,4.559,0,0,1,.465,1.988A4.642,4.642,0,0,1,15.481,569.188Z" transform="translate(-2.556 -23.369)"/>
      <path id="Trazado_203806" data-name="Trazado 203806" d="M36.248,562.292H56.361v3.094H36.248Z" transform="translate(-10.946 -25.756)"/>
      <path id="Trazado_203807" data-name="Trazado 203807" d="M36.248,571.055h10.83v3.095H36.248Z" transform="translate(-10.946 -28.331)"/>
      <path id="Trazado_203808" data-name="Trazado 203808" d="M55.968,571.055h6.188v3.095H55.968Z" transform="translate(-16.741 -28.331)"/>
      <path id="Trazado_203809" data-name="Trazado 203809" d="M92.321,586.795a23.207,23.207,0,1,0-23.207-23.207A23.207,23.207,0,0,0,92.321,586.795Zm0-43.32a20.113,20.113,0,1,1-20.113,20.113A20.112,20.112,0,0,1,92.321,543.475Z" transform="translate(-20.605 -19.317)"/>
      <path id="Trazado_203810" data-name="Trazado 203810" d="M87.461,569.139l-2.769,1.383,3.094,6.188a1.546,1.546,0,0,0,1.138.835,1.5,1.5,0,0,0,.24.02,1.543,1.543,0,0,0,1.094-.453l18.566-18.566-2.188-2.188L89.588,573.408Z" transform="translate(-25.183 -24.013)"/>
    </g>
  </g>
</svg>
