<svg xmlns="http://www.w3.org/2000/svg" width="166" height="166" viewBox="0 0 166 166">
  <g id="Grupo_158139" data-name="Grupo 158139" transform="translate(740 3960.674)">
    <g id="Grupo_158043" data-name="Grupo 158043" transform="translate(-344 -592.006)">
      <g id="Grupo_158006" data-name="Grupo 158006" transform="translate(-935 -6633)">
        <circle id="Elipse_12771" data-name="Elipse 12771" cx="83" cy="83" r="83" transform="translate(539 3264.332)" fill="#fff"/>
        <g id="Grupo_157243" data-name="Grupo 157243" transform="translate(571 2981.443)">
          <g id="Grupo_157231" data-name="Grupo 157231" transform="translate(64.615 369.479)">
            <path id="Trazado_210405" data-name="Trazado 210405" d="M121,414.5H148.66v36.073H121Z" transform="translate(-121.004 -414.5)" fill="#3d46c2"/>
          </g>
          <g id="Grupo_157232" data-name="Grupo 157232" transform="translate(87.061 369.479)">
            <path id="Trazado_210406" data-name="Trazado 210406" d="M163.038,414.5h5.211v36.073h-5.211Z" transform="translate(-163.038 -414.5)" fill="#80b4fb"/>
          </g>
          <g id="Grupo_157233" data-name="Grupo 157233" transform="translate(9.303 381.503)">
            <path id="Trazado_210407" data-name="Trazado 210407" d="M17.421,437.018H45.077v24.049H17.421Z" transform="translate(-17.421 -437.018)" fill="#75b62f"/>
          </g>
          <g id="Grupo_157234" data-name="Grupo 157234" transform="translate(31.748 381.503)">
            <path id="Trazado_210408" data-name="Trazado 210408" d="M59.455,437.018h5.211v24.049H59.455Z" transform="translate(-59.455 -437.018)" fill="#75b62f"/>
          </g>
          <g id="Grupo_157235" data-name="Grupo 157235" transform="translate(1.487 405.552)">
            <path id="Trazado_210409" data-name="Trazado 210409" d="M2.785,482.054h98.6v6.413H2.785Z" transform="translate(-2.785 -482.054)" fill="#4073c8"/>
          </g>
          <g id="Grupo_157236" data-name="Grupo 157236" transform="translate(94.877 405.552)">
            <path id="Trazado_210410" data-name="Trazado 210410" d="M177.675,482.054h5.211v6.413h-5.211Z" transform="translate(-177.675 -482.054)" fill="#30579d"/>
          </g>
          <g id="Grupo_157237" data-name="Grupo 157237" transform="translate(36.959 356.252)">
            <path id="Trazado_210411" data-name="Trazado 210411" d="M69.213,389.73H96.869v49.3H69.213Z" transform="translate(-69.213 -389.73)" fill="#dce736"/>
          </g>
          <g id="Grupo_157238" data-name="Grupo 157238" transform="translate(59.405 356.252)">
            <path id="Trazado_210412" data-name="Trazado 210412" d="M111.247,389.73h5.21v49.3h-5.21Z" transform="translate(-111.247 -389.73)" fill="#b7e445"/>
          </g>
          <g id="Grupo_157241" data-name="Grupo 157241" transform="translate(39.059 319.377)">
            <g id="Grupo_157239" data-name="Grupo 157239">
              <path id="Trazado_210413" data-name="Trazado 210413" d="M86.671,321.791l2.071,4.2a2,2,0,0,0,1.509,1.1l4.632.673a2,2,0,0,1,1.111,3.418l-3.352,3.267a2.005,2.005,0,0,0-.576,1.774l.791,4.614a2,2,0,0,1-2.908,2.112l-4.144-2.178a2,2,0,0,0-1.865,0L79.8,342.944a2,2,0,0,1-2.908-2.112l.791-4.614a2,2,0,0,0-.576-1.774l-3.352-3.267a2,2,0,0,1,1.111-3.418l4.632-.673a2,2,0,0,0,1.509-1.1l2.072-4.2A2,2,0,0,1,86.671,321.791Z" transform="translate(-73.146 -320.674)" fill="#f85316"/>
            </g>
            <g id="Grupo_157240" data-name="Grupo 157240" transform="translate(3.713 6.468)">
              <path id="Trazado_210414" data-name="Trazado 210414" d="M99.235,336.821a2,2,0,0,0-1.111-3.419l-4.241-.616A11.522,11.522,0,0,1,82.4,343.354a11.642,11.642,0,0,1-1.715-.128l-.557,3.25a2,2,0,0,0,2.908,2.112l4.144-2.178a2,2,0,0,1,1.865,0l4.143,2.178a2,2,0,0,0,2.908-2.112l-.791-4.614a2,2,0,0,1,.576-1.774Z" transform="translate(-80.1 -332.787)" fill="#f85316"/>
            </g>
          </g>
          <g id="Grupo_157242" data-name="Grupo 157242" transform="translate(0 317.89)">
            <path id="Trazado_210415" data-name="Trazado 210415" d="M74.769,334.211a.516.516,0,0,1,.149.458l-.791,4.614a3.491,3.491,0,0,0,5.065,3.68l4.143-2.178a.516.516,0,0,1,.482,0l4.143,2.178a3.491,3.491,0,0,0,5.065-3.68l-.791-4.614a.519.519,0,0,1,.149-.458l3.352-3.267a3.491,3.491,0,0,0-1.935-5.955l-4.632-.673a.516.516,0,0,1-.389-.283l-2.071-4.2a3.491,3.491,0,0,0-6.261,0l-2.072,4.2a.518.518,0,0,1-.389.283l-4.632.673a3.491,3.491,0,0,0-1.935,5.955Zm-1.407-5.927a.5.5,0,0,1,.418-.352l4.632-.673a3.489,3.489,0,0,0,2.628-1.91l2.072-4.2a.517.517,0,0,1,.927,0l2.072,4.2a3.49,3.49,0,0,0,2.628,1.91l4.632.673a.517.517,0,0,1,.286.882l-3.351,3.267a3.489,3.489,0,0,0-1,3.09l.791,4.614a.517.517,0,0,1-.75.545L85.2,338.152a3.495,3.495,0,0,0-3.249,0l-4.143,2.179a.517.517,0,0,1-.75-.545l.791-4.614a3.491,3.491,0,0,0-1-3.09l-3.352-3.268a.5.5,0,0,1-.131-.53Z" transform="translate(-32.788 -317.89)"/>
            <path id="Trazado_210416" data-name="Trazado 210416" d="M119.112,354.4a1.486,1.486,0,0,0,.712,1.978l3.407,1.6a1.487,1.487,0,0,0,1.266-2.691l-3.407-1.6A1.486,1.486,0,0,0,119.112,354.4Z" transform="translate(-55.441 -334.504)"/>
            <path id="Trazado_210417" data-name="Trazado 210417" d="M124.961,345.258h3.407a1.487,1.487,0,0,0,0-2.974h-3.407a1.487,1.487,0,1,0,0,2.974Z" transform="translate(-57.54 -329.258)"/>
            <path id="Trazado_210418" data-name="Trazado 210418" d="M59.438,357.266a1.486,1.486,0,0,0,1.979.712l3.407-1.6a1.487,1.487,0,0,0-1.267-2.691l-3.407,1.6a1.487,1.487,0,0,0-.712,1.978Z" transform="translate(-27.633 -334.504)"/>
            <path id="Trazado_210419" data-name="Trazado 210419" d="M56.281,345.258h3.407a1.487,1.487,0,0,0,0-2.974H56.281a1.487,1.487,0,1,0,0,2.974Z" transform="translate(-25.534 -329.258)"/>
            <path id="Trazado_210420" data-name="Trazado 210420" d="M100.088,436.245H93.758V401.66a1.486,1.486,0,0,0-1.487-1.487H84.414a1.487,1.487,0,1,0,0,2.974h6.37v33.1H66.1v-33.1H77.475a1.487,1.487,0,0,0,0-2.974H66.1V388.432a1.486,1.486,0,0,0-1.487-1.487H36.959a1.486,1.486,0,0,0-1.487,1.487v7.417a1.487,1.487,0,0,0,2.974,0v-5.93H63.129v46.326H38.445V402.788a1.487,1.487,0,1,0-2.974,0V412.2H21.246a1.487,1.487,0,1,0,0,2.974H35.471v21.076H10.79V415.169h3.517a1.487,1.487,0,1,0,0-2.974h-5a1.487,1.487,0,0,0-1.487,1.487v22.563H1.487A1.487,1.487,0,0,0,0,437.732v6.413a1.487,1.487,0,0,0,1.487,1.487h98.6a1.487,1.487,0,0,0,1.487-1.487v-6.413A1.487,1.487,0,0,0,100.088,436.245ZM98.6,442.658H2.974v-3.439H98.6Z" transform="translate(0 -350.07)"/>
          </g>
        </g>
      </g>
    </g>
  </g>
</svg>
