<svg xmlns="http://www.w3.org/2000/svg" width="150" height="150" viewBox="0 0 150 150">
  <g id="Grupo_158086" data-name="Grupo 158086" transform="translate(9953 9554.388)">
    <g id="Grupo_149968" data-name="Grupo 149968" transform="translate(-11078 -11420.207)">
      <g id="Elipse_12654" data-name="Elipse 12654" transform="translate(1125 1865.819)" fill="#fff" stroke="#77b43a" stroke-width="4">
        <circle cx="75" cy="75" r="75" stroke="none"/>
        <circle cx="75" cy="75" r="73" fill="none"/>
      </g>
      <g id="Grupo_151440" data-name="Grupo 151440" transform="translate(1149.143 1489.962)">
        <g id="Grupo_151438" data-name="Grupo 151438" transform="translate(9.382 409.382)">
          <g id="Grupo_151426" data-name="Grupo 151426" transform="translate(35.944 74.654)">
            <path id="Trazado_203241" data-name="Trazado 203241" d="M60.867,493.161v2.765a5.53,5.53,0,1,1-11.061,0v-2.765Z" transform="translate(-49.806 -493.161)" fill="#aab2bd"/>
          </g>
          <g id="Grupo_151427" data-name="Grupo 151427" transform="translate(33.18 69.124)">
            <path id="Trazado_203242" data-name="Trazado 203242" d="M60.535,486.968a2.772,2.772,0,0,1,2.764,2.765,2.784,2.784,0,0,1-2.764,2.764H49.474a2.772,2.772,0,0,1-2.764-2.764,2.783,2.783,0,0,1,2.764-2.765Z" transform="translate(-46.71 -486.968)" fill="#ccd1d9"/>
          </g>
          <g id="Grupo_151428" data-name="Grupo 151428" transform="translate(30.415 63.594)">
            <path id="Trazado_203243" data-name="Trazado 203243" d="M60.2,486.3H46.378a2.773,2.773,0,0,1-2.765-2.765,2.785,2.785,0,0,1,2.765-2.765H62.967a2.773,2.773,0,0,1,2.765,2.765,2.785,2.785,0,0,1-2.765,2.765Z" transform="translate(-43.613 -480.774)" fill="#ccd1d9"/>
          </g>
          <g id="Grupo_151429" data-name="Grupo 151429" transform="translate(17.972 12.442)">
            <path id="Trazado_203244" data-name="Trazado 203244" d="M76.682,446.985a23.5,23.5,0,0,1-12.443,20.737v1.383A2.785,2.785,0,0,1,67,471.87a2.773,2.773,0,0,1-2.765,2.765H42.12a2.765,2.765,0,0,1,0-5.529v-1.383a23.648,23.648,0,0,1-9.678-9.677,23.3,23.3,0,0,1-2.765-11.061,23.5,23.5,0,0,1,42.65-13.617,23.4,23.4,0,0,1,4.355,13.617Z" transform="translate(-29.677 -423.483)" fill="#dce736"/>
          </g>
          <g id="Grupo_151430" data-name="Grupo 151430" transform="translate(24.885 19.355)">
            <path id="Trazado_203245" data-name="Trazado 203245" d="M70.6,443.668v8.3l-2.212.788a16.077,16.077,0,0,1-.732,1.742l1.022,2.115L62.8,462.484l-2.115-1.023a16.078,16.078,0,0,1-1.742.733l-.788,2.212H49.862l-.788-2.212a16.079,16.079,0,0,1-1.742-.733l-2.115,1.023-5.875-5.876,1.022-2.115a16.079,16.079,0,0,1-.732-1.742l-2.212-.788v-8.3l2.212-.788a16.079,16.079,0,0,1,.732-1.742l-1.022-2.115,5.875-5.876,2.115,1.023a16.067,16.067,0,0,1,1.742-.733l.788-2.212h8.295l.788,2.212a15.892,15.892,0,0,1,1.742.733l2.115-1.023,5.875,5.876-1.022,2.115a16.077,16.077,0,0,1,.732,1.742Zm-6.912,4.147a9.678,9.678,0,1,0-9.678,9.678A9.67,9.67,0,0,0,63.687,447.815Z" transform="translate(-37.419 -431.226)" fill="#75b62f"/>
          </g>
          <g id="Grupo_151431" data-name="Grupo 151431" transform="translate(31.797 26.268)">
            <path id="Trazado_203246" data-name="Trazado 203246" d="M54.839,438.968a9.677,9.677,0,1,1-9.678,9.677A9.67,9.67,0,0,1,54.839,438.968Zm4.147,9.677a4.147,4.147,0,1,0-4.147,4.148A4.142,4.142,0,0,0,58.986,448.645Z" transform="translate(-45.161 -438.968)" fill="#fcd770"/>
          </g>
          <g id="Grupo_151432" data-name="Grupo 151432" transform="translate(77.419)">
            <path id="Trazado_203247" data-name="Trazado 203247" d="M101.788,409.548v16.59h-5.53v-16.59Z" transform="translate(-96.258 -409.548)" fill="#75b62f"/>
          </g>
          <g id="Grupo_151433" data-name="Grupo 151433" transform="translate(66.359 5.53)">
            <path id="Trazado_203248" data-name="Trazado 203248" d="M89.4,415.742V426.8h-5.53v-11.06Z" transform="translate(-83.871 -415.742)" fill="#75b62f"/>
          </g>
          <g id="Grupo_151434" data-name="Grupo 151434" transform="translate(71.889 2.765)">
            <path id="Trazado_203249" data-name="Trazado 203249" d="M95.594,412.645V426.47H90.065V412.645Z" transform="translate(-90.065 -412.645)" fill="#75b62f"/>
          </g>
          <g id="Grupo_151435" data-name="Grupo 151435" transform="translate(0 60.829)">
            <path id="Trazado_203250" data-name="Trazado 203250" d="M34.433,485.972v11.06a2.773,2.773,0,0,1-2.764,2.765H12.313a2.774,2.774,0,0,1-2.765-2.765v-11.06a2.774,2.774,0,0,1,2.765-2.765H24.756l2.295-4.59a1.709,1.709,0,0,1,3.235.774v3.816h1.383A2.773,2.773,0,0,1,34.433,485.972Z" transform="translate(-9.548 -477.677)" fill="#75b62f"/>
          </g>
          <g id="Grupo_151436" data-name="Grupo 151436" transform="translate(0 0)">
            <circle id="Elipse_12792" data-name="Elipse 12792" cx="11.06" cy="11.06" r="11.06" fill="#dce736"/>
          </g>
          <g id="Grupo_151437" data-name="Grupo 151437" transform="translate(60.829 60.829)">
            <circle id="Elipse_12793" data-name="Elipse 12793" cx="11.06" cy="11.06" r="11.06" fill="#dce736"/>
          </g>
        </g>
        <g id="Grupo_151439" data-name="Grupo 151439" transform="translate(8 408)">
          <path id="Trazado_203251" data-name="Trazado 203251" d="M84.731,489.854l-1.955,1.955,3.743,3.742,9.272-9.272-1.955-1.954-7.317,7.317Z" transform="translate(-16.012 -416.178)"/>
          <path id="Trazado_203252" data-name="Trazado 203252" d="M25.707,416.2l-7.317,7.317L16.6,421.725l-1.955,1.955,3.743,3.742,9.272-9.272Z" transform="translate(-8.712 -408.878)"/>
          <path id="Trazado_203253" data-name="Trazado 203253" d="M54.673,437.419a11.06,11.06,0,1,0,11.06,11.06A11.073,11.073,0,0,0,54.673,437.419Zm0,19.355a8.295,8.295,0,1,1,8.295-8.3A8.3,8.3,0,0,1,54.673,456.774Z" transform="translate(-11.816 -411.152)"/>
          <path id="Trazado_203254" data-name="Trazado 203254" d="M55.336,443.613a5.53,5.53,0,1,0,5.53,5.529A5.536,5.536,0,0,0,55.336,443.613Zm0,8.295a2.765,2.765,0,1,1,2.765-2.765A2.768,2.768,0,0,1,55.336,451.908Z" transform="translate(-12.48 -411.816)"/>
          <path id="Trazado_203255" data-name="Trazado 203255" d="M69.02,440.982l1.156-2.417-7.247-7.25-2.418,1.156c-.214-.1-.433-.186-.651-.271l-.891-2.523H48.717l-.891,2.525c-.218.086-.435.175-.651.271l-2.418-1.155-7.247,7.25,1.156,2.416c-.1.217-.187.434-.271.651l-2.524.889v10.251l2.524.892q.129.325.271.651l-1.156,2.418,7.247,7.247,2.418-1.155c.216.095.433.187.651.27l.891,2.524H58.969l.891-2.524q.325-.129.651-.27l2.418,1.155,7.247-7.247-1.156-2.418c.1-.217.187-.434.271-.651l2.524-.89V442.525l-2.524-.892q-.129-.325-.271-.651Zm.03,9.836-1.926.679-.215.633a13.515,13.515,0,0,1-.66,1.584l-.3.6.883,1.844-4.482,4.482-1.846-.883-.6.3a13.392,13.392,0,0,1-1.583.66l-.634.215-.678,1.928H50.674L50,460.931l-.635-.216a13.35,13.35,0,0,1-1.583-.659l-.6-.3-1.846.884-4.482-4.482.884-1.845-.3-.6a13.607,13.607,0,0,1-.659-1.585l-.216-.633-1.924-.68V444.48l1.926-.679.215-.633a13.469,13.469,0,0,1,.66-1.585l.3-.6-.883-1.845,4.482-4.482,1.846.882.6-.3a13.443,13.443,0,0,1,1.584-.66l.633-.217.678-1.923h6.337l.679,1.925.633.217a13.516,13.516,0,0,1,1.585.659l.6.3,1.846-.882,4.482,4.482-.884,1.844.3.6a13.659,13.659,0,0,1,.659,1.584l.216.633,1.924.679Z" transform="translate(-10.986 -410.323)"/>
          <path id="Trazado_203256" data-name="Trazado 203256" d="M14.194,488.516H30.783v2.765H14.194Z" transform="translate(-8.664 -416.627)"/>
          <path id="Trazado_203257" data-name="Trazado 203257" d="M29.677,494.71h2.765v2.764H29.677Z" transform="translate(-10.323 -417.291)"/>
          <path id="Trazado_203258" data-name="Trazado 203258" d="M14.194,494.71h11.06v2.764H14.194Z" transform="translate(-8.664 -417.291)"/>
          <path id="Trazado_203259" data-name="Trazado 203259" d="M76.314,427.354h17.4V408H85.419v2.765h-5.53v2.765H74.359V425.4l-4.237,4.235A24.853,24.853,0,0,0,26.164,442.2c-.071.583-.119,1.163-.15,1.743H23.207a1.384,1.384,0,0,1-1.382-1.382V432.8a12.442,12.442,0,1,0-2.765,0v9.759a4.152,4.152,0,0,0,4.147,4.147h2.821A24.89,24.89,0,0,0,27.93,455H21.825a4.152,4.152,0,0,0-4.147,4.147v15.208h-5.53A4.152,4.152,0,0,0,8,478.506v11.06a4.152,4.152,0,0,0,4.147,4.147H31.5a4.152,4.152,0,0,0,4.147-4.147v-11.06a4.152,4.152,0,0,0-4.147-4.147V471.92a3.091,3.091,0,0,0-5.856-1.382l-1.911,3.821H20.443V459.151a1.383,1.383,0,0,1,1.382-1.382H29.29a24.81,24.81,0,0,0,8.569,8.776,4.134,4.134,0,0,0,.86,7.653,4.114,4.114,0,0,0,2.765,5.53,4.109,4.109,0,0,0,2.461,5.436V486.8a6.912,6.912,0,1,0,13.825,0v-1.637a4.109,4.109,0,0,0,2.461-5.436,4.114,4.114,0,0,0,2.765-5.53,4.133,4.133,0,0,0,.857-7.653A24.847,24.847,0,0,0,75.7,446.709h2.811a1.384,1.384,0,0,1,1.382,1.382V468.91a12.442,12.442,0,1,0,2.765,0V448.092a4.152,4.152,0,0,0-4.147-4.147H75.668a24.878,24.878,0,0,0-3.9-12.043Zm11.87-16.589h2.765V424.59H88.183Zm-2.764,2.765v11.06H82.654V413.53Zm-8.3,2.764h2.765v8.3H77.123Zm-66.358,4.148a9.677,9.677,0,1,1,9.678,9.677A9.689,9.689,0,0,1,10.765,420.443Zm14.679,56.681,2.673-5.347a.339.339,0,0,1,.62.144v5.2H31.5a1.383,1.383,0,0,1,1.382,1.383v11.06a1.383,1.383,0,0,1-1.382,1.382H12.147a1.382,1.382,0,0,1-1.382-1.382v-11.06a1.383,1.383,0,0,1,1.382-1.383Zm65.5,4.148a9.677,9.677,0,1,1-9.677-9.678A9.689,9.689,0,0,1,90.948,481.272Zm-40.092,9.677a4.152,4.152,0,0,1-4.147-4.147v-1.382H55V486.8A4.152,4.152,0,0,1,50.857,490.948Zm5.53-8.295H45.326a1.383,1.383,0,0,1,0-2.765H56.387a1.383,1.383,0,0,1,0,2.765Zm2.764-5.53H42.562a1.382,1.382,0,1,1,0-2.764H59.151a1.382,1.382,0,1,1,0,2.764Zm2.112-12.282-.729.39v3.6h1.382a1.383,1.383,0,0,1,0,2.765H39.8a1.383,1.383,0,0,1,0-2.765h1.382v-3.6l-.729-.39a22.119,22.119,0,1,1,20.814,0Z" transform="translate(-8 -408)"/>
        </g>
      </g>
    </g>
  </g>
</svg>
