<svg xmlns="http://www.w3.org/2000/svg" width="97.426" height="96.375" viewBox="0 0 97.426 96.375">
  <g id="Grupo_158108" data-name="Grupo 158108" transform="translate(10299.431 4838.221)">
    <g id="Grupo_157334" data-name="Grupo 157334" transform="translate(-10299.431 -5216.756)">
      <g id="Grupo_157332" data-name="Grupo 157332" transform="translate(1.554 380.089)">
        <g id="Grupo_157321" data-name="Grupo 157321">
          <path id="Trazado_210567" data-name="Trazado 210567" d="M20.108,398.721l-8.083,3.59A6.235,6.235,0,0,0,8.326,408v6.84H6.772a4.493,4.493,0,0,0-1.881.4l-1.943-6.793a21.813,21.813,0,0,1,20.969-27.809H36.259a21.814,21.814,0,0,1,20.969,27.809l-1.943,6.793a4.493,4.493,0,0,0-1.881-.4H51.85v-6.218a6.215,6.215,0,0,0-6.217-6.217H31.969a20.956,20.956,0,0,1-11.86-3.684Z" transform="translate(-2.108 -380.643)" fill="#b27946"/>
        </g>
        <g id="Grupo_157322" data-name="Grupo 157322" transform="translate(6.218 59.24)">
          <path id="Trazado_210568" data-name="Trazado 210568" d="M54.065,472.782a9.787,9.787,0,0,0-5.036-8.55l-5.813-3.249H43.2a21.273,21.273,0,0,1-6.233,2.441v.5h3.109a1.559,1.559,0,0,1,1.554,1.554v7.772H38.521v9.327h3.109v4.663a1.558,1.558,0,0,1-1.554,1.554H24.531a1.558,1.558,0,0,1-1.554-1.554V465.476a1.559,1.559,0,0,1,1.554-1.554H27.64v-.5a21.269,21.269,0,0,1-6.234-2.441H21.39l-5.363,3-.451.249A9.8,9.8,0,0,0,13.4,479.715a9.687,9.687,0,0,0,4.772,2.611l-1.415,12.685H47.847l-1.415-12.685a9.731,9.731,0,0,0,7.632-9.544Z" transform="translate(-10.541 -460.984)" fill="#75b62f"/>
        </g>
        <g id="Grupo_157323" data-name="Grupo 157323" transform="translate(65.287 40.415)">
          <path id="Trazado_210569" data-name="Trazado 210569" d="M112.412,439.465v16.2a1.558,1.558,0,0,1-1.554,1.554H92.2a1.558,1.558,0,0,1-1.554-1.554V437.009a1.559,1.559,0,0,1,1.554-1.555h18.653a1.559,1.559,0,0,1,1.554,1.555Z" transform="translate(-90.65 -435.454)" fill="#dce736"/>
        </g>
        <g id="Grupo_157324" data-name="Grupo 157324" transform="translate(65.287 9.327)">
          <path id="Trazado_210570" data-name="Trazado 210570" d="M112.412,397.3v16.2a1.559,1.559,0,0,1-1.554,1.555H92.2A1.559,1.559,0,0,1,90.65,413.5V394.846a1.558,1.558,0,0,1,1.554-1.554h18.653a1.558,1.558,0,0,1,1.554,1.554Z" transform="translate(-90.65 -393.292)" fill="#dce736"/>
        </g>
        <g id="Grupo_157325" data-name="Grupo 157325" transform="translate(18.654 62.177)">
          <path id="Trazado_210571" data-name="Trazado 210571" d="M46.059,483.622v4.663a1.558,1.558,0,0,1-1.554,1.554H28.96a1.558,1.558,0,0,1-1.554-1.554V466.522a1.559,1.559,0,0,1,1.554-1.554h3.109v1.554a1.559,1.559,0,0,0,1.554,1.554h6.218a1.559,1.559,0,0,0,1.554-1.554v-1.554H44.5a1.559,1.559,0,0,1,1.554,1.554v7.772H38.287a4.663,4.663,0,1,0,0,9.327h7.772Z" transform="translate(-27.406 -464.968)" fill="#e6e9ed"/>
        </g>
        <g id="Grupo_157326" data-name="Grupo 157326" transform="translate(23.317 59.069)">
          <path id="Trazado_210572" data-name="Trazado 210572" d="M43.057,463.364v2.051a1.559,1.559,0,0,1-1.554,1.554H35.284a1.559,1.559,0,0,1-1.554-1.554v-3.109a1.559,1.559,0,0,1,1.554-1.554H41.5a1.559,1.559,0,0,1,1.554,1.554Z" transform="translate(-33.73 -460.752)" fill="#b4dd7f"/>
        </g>
        <g id="Grupo_157327" data-name="Grupo 157327" transform="translate(24.871 71.504)">
          <path id="Trazado_210573" data-name="Trazado 210573" d="M45.165,477.617v9.327H40.5a4.663,4.663,0,0,1,0-9.327Z" transform="translate(-35.838 -477.617)" fill="#f0d0b4"/>
        </g>
        <g id="Grupo_157328" data-name="Grupo 157328" transform="translate(49.524 34.198)">
          <path id="Trazado_210574" data-name="Trazado 210574" d="M72.926,427.426a4.658,4.658,0,0,1-1.881,8.923H69.273a22.672,22.672,0,0,0,.218-3.109v-6.217h1.554A4.492,4.492,0,0,1,72.926,427.426Z" transform="translate(-69.273 -427.022)" fill="#f0d0b4"/>
        </g>
        <g id="Grupo_157329" data-name="Grupo 157329" transform="translate(6.218 18.078)">
          <path id="Trazado_210575" data-name="Trazado 210575" d="M54.065,421.28V427.5a22.674,22.674,0,0,1-.218,3.109,21.79,21.79,0,0,1-10.632,15.715H43.2a21.273,21.273,0,0,1-6.233,2.441v-1.057a1.559,1.559,0,0,0-1.554-1.554H29.194a1.559,1.559,0,0,0-1.554,1.554v1.057a21.269,21.269,0,0,1-6.234-2.441H21.39a21.79,21.79,0,0,1-10.632-15.715,22.673,22.673,0,0,1-.218-3.109V414.441a6.235,6.235,0,0,1,3.7-5.689l8.083-3.59a20.956,20.956,0,0,0,11.86,3.684H47.847a6.215,6.215,0,0,1,6.217,6.217Z" transform="translate(-10.541 -405.161)" fill="#f0d0b4"/>
        </g>
        <g id="Grupo_157330" data-name="Grupo 157330" transform="translate(0 34.198)">
          <path id="Trazado_210576" data-name="Trazado 210576" d="M8.326,427.022v6.217a22.671,22.671,0,0,0,.218,3.109H6.772a4.657,4.657,0,0,1-1.881-8.923,4.492,4.492,0,0,1,1.881-.4Z" transform="translate(-2.108 -427.022)" fill="#f0d0b4"/>
        </g>
        <g id="Grupo_157331" data-name="Grupo 157331" transform="translate(21.762 46.633)">
          <path id="Trazado_210577" data-name="Trazado 210577" d="M44.057,443.887l-.42,1.694a5.978,5.978,0,0,1-11.6,0l-.42-1.694Z" transform="translate(-31.622 -443.887)" fill="#ff826e"/>
        </g>
      </g>
      <g id="Grupo_157333" data-name="Grupo 157333" transform="translate(0 378.535)">
        <path id="Trazado_210578" data-name="Trazado 210578" d="M29.827,445.4a7.527,7.527,0,0,0,14.606,0l.906-3.625H28.921Zm11.523-.516a4.419,4.419,0,0,1-8.44,0Z" transform="translate(-7.596 -395.146)"/>
        <path id="Trazado_210579" data-name="Trazado 210579" d="M29.3,426.915a6.218,6.218,0,1,0-12.435,0h3.109a3.109,3.109,0,0,1,6.218,0Z" transform="translate(-4.43 -389.609)"/>
        <path id="Trazado_210580" data-name="Trazado 210580" d="M52.6,420.7a6.224,6.224,0,0,0-6.217,6.218h3.109a3.109,3.109,0,0,1,6.218,0h3.109A6.224,6.224,0,0,0,52.6,420.7Z" transform="translate(-12.181 -389.609)"/>
        <path id="Trazado_210581" data-name="Trazado 210581" d="M91.65,415.093H110.3a3.112,3.112,0,0,0,3.109-3.109V396.475l7.269-6.663-2.1-2.292-5.324,4.881a3.1,3.1,0,0,0-2.952-2.179H91.65a3.112,3.112,0,0,0-3.109,3.109v18.653A3.112,3.112,0,0,0,91.65,415.093Zm0-21.762H110.3v1.777l-9.28,8.507L97.412,400l-2.2,2.2,5.715,5.716,9.373-8.593v12.659H91.65Z" transform="translate(-23.255 -380.895)"/>
        <path id="Trazado_210582" data-name="Trazado 210582" d="M118.579,429.684l-5.324,4.881a3.1,3.1,0,0,0-2.952-2.181H91.65a3.112,3.112,0,0,0-3.109,3.109v18.653a3.112,3.112,0,0,0,3.109,3.109H110.3a3.112,3.112,0,0,0,3.109-3.109V438.638l7.269-6.662ZM110.3,454.146H91.65V435.494H110.3v1.776l-9.28,8.508-3.612-3.611-2.2,2.2,5.715,5.715,9.373-8.593Z" transform="translate(-23.255 -391.969)"/>
        <path id="Trazado_210583" data-name="Trazado 210583" d="M88.541,475.509h9.327v3.109H88.541Z" transform="translate(-23.255 -404.005)"/>
        <path id="Trazado_210584" data-name="Trazado 210584" d="M105.406,475.509h12.435v3.109H105.406Z" transform="translate(-27.684 -404.005)"/>
        <path id="Trazado_210585" data-name="Trazado 210585" d="M88.541,483.941h24.871v3.109H88.541Z" transform="translate(-23.255 -406.219)"/>
        <path id="Trazado_210586" data-name="Trazado 210586" d="M88.541,492.374H91.65v3.109H88.541Z" transform="translate(-23.255 -408.434)"/>
        <path id="Trazado_210587" data-name="Trazado 210587" d="M96.974,492.374h3.109v3.109H96.974Z" transform="translate(-25.47 -408.434)"/>
        <path id="Trazado_210588" data-name="Trazado 210588" d="M105.406,492.374h3.109v3.109h-3.109Z" transform="translate(-27.684 -408.434)"/>
        <path id="Trazado_210589" data-name="Trazado 210589" d="M59.069,401.9a23.4,23.4,0,0,0-23.37-23.37H23.37A23.366,23.366,0,0,0,.9,408.324l1.616,5.66a6.2,6.2,0,0,0,3.7,11.184h.5a23.555,23.555,0,0,0,8.944,14.047L13.69,440.31l-1.565-2.084-2.487,1.865L11,441.9a11.314,11.314,0,0,0,2.714,19.886L12.253,474.91H46.815l-1.458-13.121a11.331,11.331,0,0,0,1.662-20.568l-3.608-2a23.566,23.566,0,0,0,8.944-14.047h.5a6.2,6.2,0,0,0,3.7-11.184l1.616-5.66A23.328,23.328,0,0,0,59.069,401.9ZM6.218,422.06a3.109,3.109,0,1,1,0-6.218V420.5c0,.523.032,1.039.068,1.555Zm12.433,19.05c.316.167.639.32.964.474a3.091,3.091,0,0,0-.962,2.238v3.111l-3.083-4.11Zm13.992,5.821a3.112,3.112,0,0,0,3.109-3.109h1.554v6.218H31.089a6.218,6.218,0,1,0,0,12.435h6.217v3.109H21.762V443.821h1.554a3.112,3.112,0,0,0,3.109,3.109Zm-6.218-3.109v-3.109h6.218v3.109Zm4.664,15.545a3.109,3.109,0,1,1,0-6.218H34.2v6.218ZM9.327,451.133a8.222,8.222,0,0,1,3.536-6.743l4.281,5.708a6.786,6.786,0,0,0-4.253,1.951l2.2,2.2a3.718,3.718,0,0,1,2.652-1.1h.911v6.218h-1.1A8.241,8.241,0,0,1,9.327,451.133ZM43.342,471.8H15.726l1.04-9.367c.263.018.526.041.791.041h1.1v3.109a3.112,3.112,0,0,0,3.109,3.109H37.306a3.112,3.112,0,0,0,3.109-3.109v-3.109h1.1c.267,0,.528-.022.791-.041Zm2.166-27.864a8.232,8.232,0,0,1-4,15.428H37.306v-6.218h4.02a3.725,3.725,0,0,1,2.653,1.1l2.2-2.2a6.813,6.813,0,0,0-4.853-2.01h-.911v-6.218a3.091,3.091,0,0,0-.962-2.238c.324-.154.648-.307.964-.474ZM49.742,420.5A20.336,20.336,0,0,1,35.6,439.786a3.1,3.1,0,0,0-2.952-2.183H26.425a3.1,3.1,0,0,0-2.952,2.183A20.336,20.336,0,0,1,9.327,420.5V407.447a4.662,4.662,0,0,1,2.77-4.26l7.353-3.268a22.442,22.442,0,0,0,11.967,3.487H45.079a4.669,4.669,0,0,1,4.663,4.663Zm3.109,1.555h-.068c.035-.516.068-1.032.068-1.555v-4.663a3.109,3.109,0,1,1,0,6.218Zm0-9.327v-4.664a7.78,7.78,0,0,0-7.772-7.772H31.416a19.35,19.35,0,0,1-16.133-8.635L12.7,393.388a22.557,22.557,0,0,0,3.874,4.407l-5.736,2.549a7.781,7.781,0,0,0-4.617,7.1v5.285a6.207,6.207,0,0,0-.8.08L3.89,407.471a20.257,20.257,0,0,1,19.48-25.827H35.7a20.262,20.262,0,0,1,19.482,25.827l-1.526,5.342a6.256,6.256,0,0,0-.8-.08Z" transform="translate(0 -378.535)"/>
      </g>
    </g>
  </g>
</svg>
