<svg xmlns="http://www.w3.org/2000/svg" width="150" height="150" viewBox="0 0 150 150">
  <g id="Grupo_158151" data-name="Grupo 158151" transform="translate(764 361.256)">
    <g id="Grupo_158052" data-name="Grupo 158052" transform="translate(-344 -592.006)">
      <g id="Grupo_157966" data-name="Grupo 157966" transform="translate(-935 -2007.194)">
        <g id="Elipse_12654" data-name="Elipse 12654" transform="translate(515 2237.944)" fill="#fff" stroke="#77b43a" stroke-width="4">
          <circle cx="75" cy="75" r="75" stroke="none"/>
          <circle cx="75" cy="75" r="73" fill="none"/>
        </g>
        <g id="Grupo_157269" data-name="Grupo 157269" transform="translate(509.994 1894.887)">
          <g id="Grupo_157268" data-name="Grupo 157268" transform="translate(37.231 375.2)">
            <g id="Grupo_157264" data-name="Grupo 157264" transform="translate(0 11.388)">
              <path id="Trazado_210483" data-name="Trazado 210483" d="M80.953,391.847l33.8,19.513v39.026a1.936,1.936,0,0,1-.992,1.717l-32.8,18.94a1.939,1.939,0,0,1-1.984,0l-32.8-18.94a1.937,1.937,0,0,1-.992-1.717V411.36l33.8-19.513a1.939,1.939,0,0,1,1.984,0Z" transform="translate(-40.029 -391.574)" fill="#f2d1a5" fill-rule="evenodd"/>
              <path id="Trazado_210484" data-name="Trazado 210484" d="M45.172,437.9V424.346l34.789,16.119-4.879,12.417a1.9,1.9,0,0,1-2.709.726Z" transform="translate(-40.029 -400.593)" fill="#ecba78" fill-rule="evenodd"/>
              <path id="Trazado_210485" data-name="Trazado 210485" d="M78.008,438.958,43.219,418.873l-4.879,8.45a1.987,1.987,0,0,0,.726,2.709l31.353,18.1a1.988,1.988,0,0,0,2.709-.726Z" transform="translate(-38.076 -399.087)" fill="#f2d1a5" fill-rule="evenodd"/>
              <path id="Trazado_210486" data-name="Trazado 210486" d="M127.7,419.08a1.968,1.968,0,0,1,.259,1v37.881a1.937,1.937,0,0,1-.992,1.717l-32.8,18.94a1.98,1.98,0,0,1-.992.273V439.015Z" transform="translate(-53.238 -399.144)" fill="#ecba78" fill-rule="evenodd"/>
              <path id="Trazado_210487" data-name="Trazado 210487" d="M127.959,437.9V424.346L93.17,440.465l4.879,12.417a1.9,1.9,0,0,0,2.709.726Z" transform="translate(-53.238 -400.593)" fill="#e3a76f" fill-rule="evenodd"/>
              <path id="Trazado_210488" data-name="Trazado 210488" d="M93.17,438.958l34.789-20.086,4.879,8.45a1.988,1.988,0,0,1-.726,2.709l-31.353,18.1a1.988,1.988,0,0,1-2.709-.726Z" transform="translate(-53.238 -399.087)" fill="#ecba78" fill-rule="evenodd"/>
              <path id="Trazado_210489" data-name="Trazado 210489" d="M80.953,391.847l33.8,19.513L79.961,431.446,45.173,411.36l33.8-19.513A1.939,1.939,0,0,1,80.953,391.847Z" transform="translate(-40.029 -391.574)" fill="#ecba78" fill-rule="evenodd"/>
              <path id="Trazado_210490" data-name="Trazado 210490" d="M94.162,391.848l33.8,19.513L93.17,431.446V391.575a1.979,1.979,0,0,1,.992.273Z" transform="translate(-53.238 -391.575)" fill="#e3a76f" fill-rule="evenodd"/>
            </g>
            <g id="Grupo_157265" data-name="Grupo 157265" transform="translate(1.995)">
              <circle id="Elipse_12998" data-name="Elipse 12998" cx="14.152" cy="14.152" r="14.152" transform="translate(0 0.003)" fill="#75b62f"/>
              <path id="Trazado_210491" data-name="Trazado 210491" d="M60.03,375.862a14.153,14.153,0,1,1,0,28.307q-.436,0-.865-.027a14.153,14.153,0,0,0,0-28.253C59.451,375.871,59.74,375.862,60.03,375.862Z" transform="translate(-45.875 -375.862)" fill="#75b62f" fill-rule="evenodd"/>
            </g>
            <g id="Grupo_157266" data-name="Grupo 157266" transform="translate(49.792 2.399)">
              <circle id="Elipse_12999" data-name="Elipse 12999" cx="14.151" cy="14.151" r="14.151" fill="#75b62f"/>
              <path id="Trazado_210492" data-name="Trazado 210492" d="M125.988,379.2a14.153,14.153,0,1,1,0,28.307q-.436,0-.866-.027a14.153,14.153,0,0,0,0-28.253q.431-.026.866-.027Z" transform="translate(-111.824 -379.18)" fill="#75b62f" fill-rule="evenodd"/>
            </g>
            <g id="Grupo_157267" data-name="Grupo 157267" transform="translate(25.773 9.817)">
              <circle id="Elipse_13000" data-name="Elipse 13000" cx="14.152" cy="14.152" r="14.152" transform="translate(0 0.004)" fill="#dce736"/>
              <path id="Trazado_210493" data-name="Trazado 210493" d="M92.841,389.406a14.153,14.153,0,1,1,0,28.307c-.291,0-.579-.01-.865-.027a14.153,14.153,0,0,0,0-28.253c.286-.017.575-.027.865-.027Z" transform="translate(-78.682 -389.406)" fill="#dce736" fill-rule="evenodd"/>
            </g>
          </g>
          <path id="Trazado_210494" data-name="Trazado 210494" d="M79.894,403.442a1.182,1.182,0,0,0,.27-.992c-.087-.719-.533-1.6-3.235-2.043-4.273-.7-5.273-2.949-5.358-4.71a4.974,4.974,0,0,1,4.067-5.038V390a1.526,1.526,0,0,1,3.053,0v.651a5.686,5.686,0,0,1,4.048,3.417,1.526,1.526,0,0,1-2.815,1.18,2.946,2.946,0,0,0-3.495-1.634c-.315.072-1.879.5-1.808,1.94.018.383.067,1.4,2.8,1.846,3.521.578,5.463,2.156,5.77,4.687a4.222,4.222,0,0,1-.992,3.357,6.109,6.109,0,0,1-3.513,1.858v.61a1.526,1.526,0,1,1-3.052,0v-.637a5.7,5.7,0,0,1-4.5-4.141,1.526,1.526,0,1,1,2.962-.739,3.005,3.005,0,0,0,3.208,1.99,3.731,3.731,0,0,0,2.582-.939Zm24.024-7.4a1.184,1.184,0,0,0,.27-.994c-.087-.718-.533-1.6-3.235-2.041-4.274-.7-5.273-2.949-5.358-4.71a4.974,4.974,0,0,1,4.066-5.038V382.6a1.526,1.526,0,0,1,3.053,0v.65a5.685,5.685,0,0,1,4.048,3.417,1.526,1.526,0,1,1-2.814,1.181,2.943,2.943,0,0,0-3.495-1.634c-.315.072-1.879.5-1.809,1.94.019.382.068,1.4,2.8,1.847,3.521.578,5.463,2.153,5.77,4.687a4.221,4.221,0,0,1-.992,3.357,6.123,6.123,0,0,1-3.513,1.856v.612a1.526,1.526,0,1,1-3.053,0v-.637a5.7,5.7,0,0,1-4.494-4.144,1.526,1.526,0,0,1,2.962-.739,3.007,3.007,0,0,0,3.208,1.992A3.73,3.73,0,0,0,103.918,396.046Zm-50.536,3.573a1.527,1.527,0,0,1-1.526-1.526v-.639a5.7,5.7,0,0,1-4.5-4.142,1.526,1.526,0,1,1,2.962-.739,3.009,3.009,0,0,0,3.208,1.99,3.728,3.728,0,0,0,2.582-.938,1.181,1.181,0,0,0,.27-.992c-.087-.719-.533-1.6-3.235-2.043-4.274-.7-5.273-2.947-5.358-4.71a4.974,4.974,0,0,1,4.067-5.038v-.662a1.526,1.526,0,0,1,3.052,0v.649a5.685,5.685,0,0,1,4.048,3.417,1.526,1.526,0,1,1-2.814,1.181,2.945,2.945,0,0,0-3.495-1.633c-.314.071-1.879.5-1.809,1.94.02.382.068,1.4,2.8,1.845,3.521.578,5.463,2.156,5.77,4.687a4.221,4.221,0,0,1-.992,3.358,6.108,6.108,0,0,1-3.513,1.858v.612a1.527,1.527,0,0,1-1.526,1.526Zm30.206,34.864,32.121-18.546-4.34-7.518L79.248,426.963ZM110.4,445.6,78.689,463.9V432.1l3.019,5.229a1.525,1.525,0,0,0,2.085.56L110.4,422.526ZM43.925,422.526l26.609,15.362a1.526,1.526,0,0,0,2.085-.56l3.019-5.229v31.8L43.925,445.6Zm-.968-14.107-4.341,7.518,32.122,18.546,4.34-7.521Zm10.425-3.6a15.644,15.644,0,0,1-4.27-.594l-3.662,2.113,31.713,18.309,31.713-18.309-1.022-.59a15.664,15.664,0,0,1-15.922-1.532,15.677,15.677,0,0,1-30.079-1.884,15.622,15.622,0,0,1-8.471,2.487ZM40.754,389.137a12.625,12.625,0,0,0,20.733,9.679A15.625,15.625,0,0,1,65.958,388a12.627,12.627,0,0,0-25.2,1.137Zm49.037,9.814A12.627,12.627,0,1,0,77.164,411.58,12.642,12.642,0,0,0,89.791,398.951Zm11.4-20.022a12.607,12.607,0,0,0-12.274,9.658,15.569,15.569,0,0,1,3.8,12.329,12.626,12.626,0,1,0,8.472-21.987Zm17.929,36.8-5.867-10.162a1.534,1.534,0,0,0-.56-.557h0l-1.884-1.087A15.675,15.675,0,1,0,86.412,386.3a15.625,15.625,0,0,0-17.718-.534A15.678,15.678,0,1,0,45.587,402.73l-3.951,2.282v0a1.515,1.515,0,0,0-.56.557L35.21,415.733a1.525,1.525,0,0,0,.559,2.083l5.1,2.947v25.713a1.525,1.525,0,0,0,.763,1.322L76.4,467.87a1.526,1.526,0,0,0,1.526,0L112.691,447.8a1.525,1.525,0,0,0,.763-1.322V420.763l5.1-2.948A1.525,1.525,0,0,0,119.116,415.733Z" fill-rule="evenodd"/>
        </g>
      </g>
    </g>
  </g>
</svg>
