<svg xmlns="http://www.w3.org/2000/svg" xmlns:xlink="http://www.w3.org/1999/xlink" width="257.788" height="332.587" viewBox="0 0 257.788 332.587">
  <defs>
    <linearGradient id="linear-gradient" x1="0.5" x2="0.5" y2="1" gradientUnits="objectBoundingBox">
      <stop offset="0" stop-color="#12ad11"/>
      <stop offset="0.106" stop-color="#21b213"/>
      <stop offset="0.525" stop-color="#5bc51c"/>
      <stop offset="0.835" stop-color="#7fd121"/>
      <stop offset="1" stop-color="#8dd624"/>
    </linearGradient>
    <linearGradient id="linear-gradient-5" x1="0.583" y1="-0.937" x2="0.442" y2="1.286" xlink:href="#linear-gradient"/>
    <linearGradient id="linear-gradient-6" x1="0.5" y1="-0.116" x2="0.5" y2="0.852" gradientUnits="objectBoundingBox">
      <stop offset="0.004" stop-color="#d11515"/>
      <stop offset="1" stop-color="#ffc342"/>
    </linearGradient>
    <linearGradient id="linear-gradient-7" x1="0.5" y1="0" x2="0.5" y2="1" xlink:href="#linear-gradient-6"/>
  </defs>
  <g id="Grupo_158091" data-name="Grupo 158091" transform="translate(10320 8383.14)">
    <g id="Grupo_157968" data-name="Grupo 157968" transform="translate(-10499.832 -8438.368)">
      <path id="Trazado_202441" data-name="Trazado 202441" d="M579.495,651.357c0,6.258-5.5,12.106-15.014,17.067a.916.916,0,0,1-.151.074l-.055-.008-53.344,23.853-45.17-16.3-38.672,2.965,52.261-27.281L463.1,640.986l-6.6-4.361-21.954-19.554c13.307-2.083,28.255,1.778,44.045,1.778.41,0,.817,0,1.224.008,7.583.027,14.964.322,22.055.864q2.19.163,4.337.364c.48.043.961.089,1.441.136,1.232.116,2.459.244,3.671.379,6.076.67,11.889,1.522,17.381,2.537,14.5,2.68,26.741,6.483,35.567,11.045.074.038.144.074.205.108C574,639.251,579.495,645.1,579.495,651.357Z" transform="translate(-141.875 -322.028)" fill="#3a508e" opacity="0.5"/>
      <g id="Grupo_150518" data-name="Grupo 150518" transform="translate(237.415 198.945)">
        <path id="Trazado_202442" data-name="Trazado 202442" d="M360.494,392.433l-.288,181.679v2.157c-.329,0-.887-2.153-1.221-2.153a287.351,287.351,0,0,1-44.047-3.257l.288-175.175a287.344,287.344,0,0,1,44.047-3.257C359.683,392.428,360.089,392.428,360.494,392.433Z" transform="translate(-314.939 -392.428)" fill="url(#linear-gradient)"/>
        <path id="Trazado_202443" data-name="Trazado 202443" d="M507.7,446.277l-.794,117.949c-1.446.951-2.959,3.064-4.675,3.956-17.611,9.18-49.509,10.943-85.384,11.051V401.114C426.354,400.361,507.7,446.277,507.7,446.277Z" transform="translate(-373.415 -397.406)" fill="url(#linear-gradient)"/>
        <path id="Trazado_202444" data-name="Trazado 202444" d="M635.476,445.721V571.287c-1.115,5.1-6.464,9.852-15.011,13.953V428.654C629.981,433.615,635.476,439.459,635.476,445.721Z" transform="translate(-490.248 -413.214)" fill="url(#linear-gradient)"/>
        <path id="Trazado_202445" data-name="Trazado 202445" d="M460.555,424.934c0,6.258-5.5,12.106-15.015,17.067a.953.953,0,0,1-.151.073l-.054-.008L360.883,425.4l-.225-.046-.248-.05-16.246-10.743-6.6-4.361-21.954-14.519a287.583,287.583,0,0,1,44.044-3.257c.41,0,.817,0,1.224.008,7.583.027,14.964.321,22.055.863q2.19.163,4.338.364c.48.043.96.09,1.441.136,1.231.116,2.459.244,3.671.38,6.076.67,11.889,1.522,17.381,2.537,14.5,2.68,26.741,6.483,35.567,11.045.073.039.143.074.205.108C455.059,412.828,460.555,418.676,460.555,424.934Z" transform="translate(-315.327 -392.427)" fill="url(#linear-gradient)"/>
        <path id="Trazado_202446" data-name="Trazado 202446" d="M460.555,424.934c0,6.258-5.5,12.106-15.015,17.067a.953.953,0,0,1-.151.073l-.054-.008L360.883,425.4l-.225-.046-.248-.05-16.246-10.743-6.6-4.361-21.954-14.519a287.583,287.583,0,0,1,44.044-3.257c.41,0,.817,0,1.224.008,7.583.027,14.964.321,22.055.863q2.19.163,4.338.364c.48.043.96.09,1.441.136,1.231.116,2.459.244,3.671.38,6.076.67,11.889,1.522,17.381,2.537,14.5,2.68,26.741,6.483,35.567,11.045.073.039.143.074.205.108C455.059,412.828,460.555,418.676,460.555,424.934Z" transform="translate(-315.327 -392.427)" fill="url(#linear-gradient-5)" style="mix-blend-mode: color-dodge;isolation: isolate"/>
      </g>
      <g id="Grupo_150519" data-name="Grupo 150519" transform="translate(180.234 229.637)">
        <rect id="Rectángulo_295837" data-name="Rectángulo 295837" width="99.768" height="92.193" transform="translate(0.339 32.187)" fill="url(#linear-gradient-6)"/>
        <path id="Trazado_202447" data-name="Trazado 202447" d="M280.884,496.641l-99.659-.014a10.734,10.734,0,0,1-.45-3.076c0-12.752,22.782-23.787,55.946-29.111l.131.058Z" transform="translate(-180.775 -464.44)" fill="url(#linear-gradient-7)"/>
      </g>
      <g id="Grupo_150520" data-name="Grupo 150520" transform="translate(179.832 302.583)">
        <path id="Trazado_202448" data-name="Trazado 202448" d="M268.076,636.406v77.8L331.7,715.99v-80.4Z" transform="translate(-230.466 -635.591)" fill="#c6d124"/>
        <path id="Trazado_202449" data-name="Trazado 202449" d="M281.059,635.6l-63.617,25.364-15.5,3.68L181.147,648.2,179.868,641l-.036-4.1Z" transform="translate(-179.832 -635.596)" fill="#eaf086"/>
        <path id="Trazado_202450" data-name="Trazado 202450" d="M217.442,662.705v53.221c-21.548-5.567-35.849-13.932-37.61-23.382V638.635c1.072,9.031,13.58,17.116,33,22.8Q215.073,662.086,217.442,662.705Z" transform="translate(-179.832 -637.338)" fill="#dce736"/>
      </g>
      <g id="Grupo_150521" data-name="Grupo 150521" transform="translate(218.627 328.662)">
        <path id="Trazado_202451" data-name="Trazado 202451" d="M420.183,708.794l-5.856,20.192-80.85,9.91-62.622-16.316.019-.008,61.475-25.792Z" transform="translate(-270.855 -696.781)" fill="#94b700"/>
        <path id="Trazado_202452" data-name="Trazado 202452" d="M420.2,724.967v29.8q-1.594.973-3.378,1.9c-17.575,9.161-48.879,15.3-84.661,15.431h-.225c-.329,0-.662,0-1,0a287.36,287.36,0,0,1-44.047-3.257c-5.653-.883-11.008-1.932-16.008-3.126v-26.98q6.121,1.351,12.855,2.405a287.344,287.344,0,0,0,44.047,3.257c.333,0,.667,0,1,0h.225c35.781-.135,67.085-6.27,84.661-15.431a53.655,53.655,0,0,0,4.747-2.766Q419.347,725.6,420.2,724.967Z" transform="translate(-270.872 -712.954)" fill="#677f00"/>
      </g>
      <g id="Grupo_150539" data-name="Grupo 150539" transform="translate(212.628 55.229)">
        <path id="Trazado_202453" data-name="Trazado 202453" d="M421.259,397.89c-5.492-1.015-11.3-1.867-17.381-2.537-1.124-.126-2.263-.244-3.4-.353l-.269-.028-.5-.046c-.312-.03-.623-.061-.934-.088l0,0c-1.433-.131-2.876-.257-4.332-.364l-45.37,16.9-.518.194v29.054l-12.9,2.625,2.518,7.321,17.5-4.976V415.74l25.85-10.929,7.827,6.579Z" transform="translate(-302.03 -249.887)" fill="#6b342d" opacity="0.5" style="mix-blend-mode: multiply;isolation: isolate"/>
        <g id="Grupo_150538" data-name="Grupo 150538">
          <g id="Grupo_150523" data-name="Grupo 150523" transform="translate(31.016 154.099)">
            <path id="Trazado_202454" data-name="Trazado 202454" d="M329.815,520.225c-.028-.192.019.2,0,0,.019.423.1.238.156.638,1.608,2.573,6.8,2.352,8.064-.145-.022-.2-.029-.2-.056-.395C336.659,522.77,331.409,522.777,329.815,520.225Z" transform="translate(-329.698 -476.108)"/>
            <path id="Trazado_202455" data-name="Trazado 202455" d="M330.317,504.4a16.693,16.693,0,0,0-.647,6.562c1.608,2.573,6.935,2.536,8.2.039a21.366,21.366,0,0,0-2.029-6.973Z" transform="translate(-329.553 -466.846)" fill="#472522"/>
            <g id="Grupo_150522" data-name="Grupo 150522" transform="translate(41.353)">
              <path id="Trazado_202456" data-name="Trazado 202456" d="M434.569,416.788c.121,2.328,1.962,3.517,6.291,4.619a1.4,1.4,0,0,1,1.042,1.239l.07,1.043a1.128,1.128,0,0,1-.878.64c-6.829,1-7.468-.028-8.294-.276-.505-.152-1.327-.655-1.415-1.031l-.876.728-3.419-.567c-.524-2.453-.7-3.315-.263-4.852Z" transform="translate(-426.58 -416.788)" fill="#472522"/>
              <path id="Trazado_202457" data-name="Trazado 202457" d="M441.042,427.877c-6.829,1-7.468-.028-8.294-.276-.505-.152-1.327-.655-1.415-1.031l-.876.728-3.42-.567c-.225-1.051-.384-1.809-.46-2.454a17.066,17.066,0,0,0,.508,3.166l3.42.567.876-.728c.087.376.91.879,1.415,1.031.826.249,1.464,1.274,8.293.276a1.129,1.129,0,0,0,.878-.64l-.048-.711A1.127,1.127,0,0,1,441.042,427.877Z" transform="translate(-426.578 -421.085)"/>
            </g>
          </g>
          <g id="Grupo_150526" data-name="Grupo 150526" transform="translate(22.873 46.443)">
            <path id="Trazado_202458" data-name="Trazado 202458" d="M314.44,198.036q-2.071-4.172-3.74-1.765c-.948,1.9.963,4.842,2.869,5.128Z" transform="translate(-310.448 -182.096)" fill="#ffb288"/>
            <path id="Trazado_202459" data-name="Trazado 202459" d="M351.372,194.9q1.672-4.347,3.685-2.075c1.2,1.827-.443,4.928-2.391,5.371Z" transform="translate(-333.93 -180.178)" fill="#ffb288"/>
            <path id="Trazado_202460" data-name="Trazado 202460" d="M335.248,232.867l.025-12.61-9.163.3,1.023,11.7Z" transform="translate(-319.434 -196.364)" fill="#ed8366"/>
            <path id="Trazado_202461" data-name="Trazado 202461" d="M325.1,196.9h0c-4.43.3-8.279-2.77-8.552-6.821l-.657-9.715c-.274-4.051,3.127-7.61,7.557-7.91h0c4.43-.3,8.279,2.77,8.553,6.821l.657,9.715C332.934,193.042,329.534,196.6,325.1,196.9Z" transform="translate(-313.564 -168.925)" fill="#ffb288"/>
            <path id="Trazado_202462" data-name="Trazado 202462" d="M329.9,230.886h0a7.794,7.794,0,0,1-2.577-.2l.481,5.5,8.115.617.019-9.691A7.863,7.863,0,0,1,329.9,230.886Z" transform="translate(-320.128 -200.294)" fill="#ffb288"/>
            <path id="Trazado_202463" data-name="Trazado 202463" d="M319.578,165.8c2.918-1.314,4.216.926,3.229,2.167,0,0-2.265,1.468-1.082.3C323.3,166.709,321.833,165.619,319.578,165.8Z" transform="translate(-315.687 -164.888)" fill="#682a2a"/>
            <path id="Trazado_202464" data-name="Trazado 202464" d="M341.459,195.074l-.606.073a1.325,1.325,0,0,1-1.47-1.154h0a1.325,1.325,0,0,1,1.154-1.47l.606-.073a1.325,1.325,0,0,1,1.47,1.154h0A1.325,1.325,0,0,1,341.459,195.074Z" transform="translate(-327.045 -180.403)" fill="#fff"/>
            <path id="Trazado_202465" data-name="Trazado 202465" d="M325.9,196.12l-.605.073a1.326,1.326,0,0,1-1.47-1.154h0a1.325,1.325,0,0,1,1.154-1.47l.605-.073a1.325,1.325,0,0,1,1.47,1.154h0A1.326,1.326,0,0,1,325.9,196.12Z" transform="translate(-318.12 -181.004)" fill="#fff"/>
            <path id="Trazado_202466" data-name="Trazado 202466" d="M337.325,188.517c1.034-.709,2.575-.726,4.473-.254.264-.015.464-.326.443-.692h0c-.02-.366-.254-.653-.519-.637a8.016,8.016,0,0,0-4.472.254c-.264.015-.464.326-.443.692h0C336.827,188.245,337.061,188.532,337.325,188.517Z" transform="translate(-325.572 -177.128)" fill="#682a2a"/>
            <path id="Trazado_202467" data-name="Trazado 202467" d="M324.752,189.3c-1.131-.548-2.661-.336-4.473.411-.265.024-.508-.254-.542-.619h0c-.034-.364.156-.682.42-.707a8.064,8.064,0,0,1,4.473-.411c.265-.024.508.254.542.618h0C325.205,188.958,325.016,189.276,324.752,189.3Z" transform="translate(-315.776 -177.755)" fill="#682a2a"/>
            <path id="Trazado_202468" data-name="Trazado 202468" d="M326.321,192.986a4.946,4.946,0,0,0-3.039.516.306.306,0,0,1-.352-.25h0a.306.306,0,0,1,.249-.352,3.962,3.962,0,0,1,3.04-.516.306.306,0,0,1,.352.249h0A.306.306,0,0,1,326.321,192.986Z" transform="translate(-317.608 -180.321)" fill="#e5846a"/>
            <path id="Trazado_202469" data-name="Trazado 202469" d="M342.3,191.993a4.947,4.947,0,0,0-3.083-.006.306.306,0,0,1-.3-.306h0a.306.306,0,0,1,.306-.3,3.961,3.961,0,0,1,3.083.006.306.306,0,0,1,.3.306h0A.305.305,0,0,1,342.3,191.993Z" transform="translate(-326.778 -179.618)" fill="#e5846a"/>
            <path id="Trazado_202470" data-name="Trazado 202470" d="M329.632,212.04a14.867,14.867,0,0,0,5.434-.286.492.492,0,0,1,.563.691c-1.815,3.7-5.154,2.53-6.477.339A.492.492,0,0,1,329.632,212.04Z" transform="translate(-321.138 -191.477)" fill="#f58d6c"/>
            <path id="Trazado_202471" data-name="Trazado 202471" d="M331.282,212.787a11.184,11.184,0,0,0,4.334-.228.305.305,0,0,1,.351.421c-1.385,3.012-4.049,2.01-5,.259A.309.309,0,0,1,331.282,212.787Z" transform="translate(-322.198 -191.942)" fill="#fff"/>
            <path id="Trazado_202472" data-name="Trazado 202472" d="M323.006,174.847c1.424,2.6,2.419,5.869,9.664,3.651C327.541,179.347,324.55,176.409,323.006,174.847Z" transform="translate(-317.654 -170.308)" fill="#682a2a"/>
            <g id="Grupo_150524" data-name="Grupo 150524" transform="translate(8.891 12.941)">
              <path id="Trazado_202473" data-name="Trazado 202473" d="M331.485,195.326a12.992,12.992,0,0,1-.038,2.426,4.717,4.717,0,0,0,.021,2.262c.569,1.141,2.655.635,3.616.452,1.009-.191.582-1.732-.425-1.541-.445.085-1.654.394-2.057.091l.367.478a8.086,8.086,0,0,1,.107-2.089,11.284,11.284,0,0,0,.008-2.078c-.1-1.013-1.7-1.024-1.6,0Z" transform="translate(-331.309 -194.562)" fill="#f08c6c"/>
            </g>
            <g id="Grupo_150525" data-name="Grupo 150525" transform="translate(10.777 23.931)">
              <path id="Trazado_202474" data-name="Trazado 202474" d="M336.506,221.944a.8.8,0,0,0,0-1.6.8.8,0,0,0,0,1.6Z" transform="translate(-335.734 -220.346)" fill="#f08c6c"/>
            </g>
            <path id="Trazado_202475" data-name="Trazado 202475" d="M327.06,195.083a.915.915,0,1,1-.991-.832A.915.915,0,0,1,327.06,195.083Z" transform="translate(-318.932 -181.44)" fill="#3e2c27"/>
            <path id="Trazado_202476" data-name="Trazado 202476" d="M343.269,193.775a.915.915,0,1,1-.991-.832A.915.915,0,0,1,343.269,193.775Z" transform="translate(-328.233 -180.69)" fill="#3e2c27"/>
            <path id="Trazado_202477" data-name="Trazado 202477" d="M327.868,195.3a.344.344,0,1,1-.372-.312A.344.344,0,0,1,327.868,195.3Z" transform="translate(-320.049 -181.867)" fill="#fff"/>
            <path id="Trazado_202478" data-name="Trazado 202478" d="M344.059,194.118a.344.344,0,1,1-.373-.312A.344.344,0,0,1,344.059,194.118Z" transform="translate(-329.34 -181.186)" fill="#fff"/>
            <path id="Trazado_202479" data-name="Trazado 202479" d="M316.652,169.476c1.871,3.148,7.676,3.067,11.875,2.452l.681,5.891.518-.035s-.425-1.735.873-1.718l-.275-3.287c.334-3.746-4.4-11.442-12.686-7.472-3.632-.234-7.576,4.51-6.332,9.406l.458,2.949c1.686-.245,1.457,1.5,1.457,1.5l.482-.037-.112-5.047C315.57,172.938,316.187,171.7,316.652,169.476Z" transform="translate(-310.807 -164.198)" fill="#682a2a"/>
          </g>
          <path id="Trazado_202480" data-name="Trazado 202480" d="M336.351,283.663c-2.46-21.139-2.168-31.969-4.259-39.035l-18.183-3.885-6.9,7.534c5.2,3.552,6.428,29.835,5.737,35.831C321.909,285.019,329.211,288.184,336.351,283.663Z" transform="translate(-285.603 -161.676)" fill="#fff"/>
          <path id="Trazado_202481" data-name="Trazado 202481" d="M343.851,329.215l22.03,3.293c2.7.464,4.477,1.972,4.535,5.283L373.3,367.4a12.844,12.844,0,0,1-7.88.686l-2.324-26.071-25.59.04c-1.138.179-4.969,4.831-4.969,5.935l-.613,57.171a12.431,12.431,0,0,1-9.855.663l-2.512-69.428,18.086-2.761Z" transform="translate(-292.8 -212.441)" fill="#564953"/>
          <g id="Grupo_150527" data-name="Grupo 150527" transform="translate(25.242 120.523)">
            <path id="Trazado_202482" data-name="Trazado 202482" d="M323.907,411.612a13.151,13.151,0,0,1-3.735-.7l-.73-20.272-.586-26.715-2.848-25.8,5.733-.116Z" transform="translate(-316.007 -338.01)" fill="#3f363d"/>
            <path id="Trazado_202483" data-name="Trazado 202483" d="M387.96,350.693l-20.6-3.344-6.9,4.969h-.414l24.705,1.1,3.9,25.066a15.064,15.064,0,0,0,1.921.31Z" transform="translate(-341.277 -343.369)" fill="#3f363d"/>
            <path id="Trazado_202484" data-name="Trazado 202484" d="M321.964,392.23l1.071,34.387,3.49-11.052-.684-23.251Z" transform="translate(-319.425 -369.121)" fill="#333" opacity="0.4" style="mix-blend-mode: multiply;isolation: isolate"/>
          </g>
          <path id="Trazado_202485" data-name="Trazado 202485" d="M344.006,243.036a15.723,15.723,0,0,0,1.363-6.357l-2.068-1.558c.309,2.111-1.665,3.656-3.13,3.947Z" transform="translate(-304.63 -158.45)" fill="#e0e0e0"/>
          <path id="Trazado_202486" data-name="Trazado 202486" d="M327.257,243.149a16.018,16.018,0,0,1-4-7.447l1.7-1.71c-.026,2.006,3.9,4.193,5.506,4.445Z" transform="translate(-294.926 -157.802)" fill="#e0e0e0"/>
          <path id="Trazado_202487" data-name="Trazado 202487" d="M337.483,244.181l-1.98,3.156,1.975,2.3,1.207,31.216,3.873,3.157,2.945-4.324s-4.877-25.579-5.889-30.318l.355-2.6Z" transform="translate(-301.951 -163.649)" fill="#3d46c2"/>
          <path id="Trazado_202488" data-name="Trazado 202488" d="M308.036,256.788c1.3,14.626-.366,32.271.012,42.945l14.252,1.014a2.414,2.414,0,0,0,2.166-1.853l-.566-30.93-3.784-8.075-4.613-7.745Z" transform="translate(-286.165 -168.217)" fill="#3f363d"/>
          <g id="Grupo_150528" data-name="Grupo 150528" transform="translate(21.749 86.923)" opacity="0.4" style="mix-blend-mode: multiply;isolation: isolate">
            <path id="Trazado_202489" data-name="Trazado 202489" d="M310.82,303.959c-.4-10.52.986-30.423-.34-44.785l-2.67,1.66c1.3,14.626-.244,32.259.134,42.933Z" transform="translate(-307.81 -259.174)" fill="#333"/>
          </g>
          <g id="Grupo_150531" data-name="Grupo 150531" transform="translate(40.739)">
            <path id="Trazado_202490" data-name="Trazado 202490" d="M417.882,164.717l.905-3.188-1.276-3.3,1.018-4.663c1.318.421,1.152,2.593.764,3.506l-.072.151.236-1.548,5.322,2.3-.888,3.489-1.681,2.22-1.034,3.945-3.766-1.975Z" transform="translate(-389.688 -111.654)" fill="#ffb288"/>
            <g id="Grupo_150529" data-name="Grupo 150529" transform="translate(29.299 43.127)">
              <path id="Trazado_202491" data-name="Trazado 202491" d="M428.8,162.806a.707.707,0,0,1-1.006.476,1.052,1.052,0,0,1-.546-1.037l-.132.451a1.054,1.054,0,0,0,.512,1.209.707.707,0,0,0,1.006-.475l.719-2.454a.953.953,0,0,0,.033-.172Z" transform="translate(-424.532 -158.934)" fill="#f58d6c"/>
              <path id="Trazado_202492" data-name="Trazado 202492" d="M425.444,161.17a.748.748,0,0,1-1.065.5l-.022-.01a1.113,1.113,0,0,1-.575-1.107l-.132.451a1.116,1.116,0,0,0,.542,1.279l.022.01a.748.748,0,0,0,1.065-.5l.812-2.77a1.08,1.08,0,0,0,.033-.173Z" transform="translate(-422.544 -157.813)" fill="#f58d6c"/>
              <path id="Trazado_202493" data-name="Trazado 202493" d="M422.945,158.735a.748.748,0,0,1-1.065.5l-.022-.01a1.113,1.113,0,0,1-.575-1.107l-.132.451a1.116,1.116,0,0,0,.543,1.279l.021.01a.748.748,0,0,0,1.065-.5l.812-2.77a.991.991,0,0,0,.033-.172Z" transform="translate(-421.11 -156.416)" fill="#f58d6c"/>
              <path id="Trazado_202494" data-name="Trazado 202494" d="M431.527,165.429a.674.674,0,0,1-.994.377,1.01,1.01,0,0,1-.478-.87l-.112.308a1.013,1.013,0,0,0,.425,1.185.674.674,0,0,0,.994-.376l.7-1.908a.924.924,0,0,0,.053-.315Z" transform="translate(-426.147 -160.67)" fill="#f58d6c"/>
            </g>
            <path id="Trazado_202495" data-name="Trazado 202495" d="M435.279,171.373,352.367,78.951l.961-.868L436.24,170.5Z" transform="translate(-352.367 -68.342)" fill="#564953"/>
            <g id="Grupo_150530" data-name="Grupo 150530" transform="translate(2.1)">
              <path id="Trazado_202496" data-name="Trazado 202496" d="M405.383,92.016l-3.2-3.189,2.653-2.354,4.439-.082,1.212,1.351-.191,1.044L407.5,89.946l-1.436,1.166-.685.9Z" transform="translate(-383.053 -73.11)" fill="#9e2121"/>
              <path id="Trazado_202497" data-name="Trazado 202497" d="M357.3,74.464s13.57-11.657,18.313-7.377a79.222,79.222,0,0,1,8.129,8.556s-2.151-.8-6.471,1.094c-2.754,1.209-10.91,7.824-10.91,7.824Z" transform="translate(-357.295 -61.491)" fill="#ff4a2c"/>
              <path id="Trazado_202498" data-name="Trazado 202498" d="M403.1,61.943l15.429-6.714-5.321,9.723L427.747,66l-18.92,8.272c-3.281,1.248-4.4-1.2-.924-2.475,4.751-1.557,1.551-2.538,2.117-2.418Z" transform="translate(-383.579 -55.229)" fill="#db1f1b"/>
            </g>
            <path id="Trazado_202499" data-name="Trazado 202499" d="M429.761,158.771l-.719,2.453a.707.707,0,0,1-1.006.476h0a1.054,1.054,0,0,1-.512-1.209l.719-2.453a.707.707,0,0,1,1.006-.476h0A1.054,1.054,0,0,1,429.761,158.771Z" transform="translate(-395.469 -113.903)" fill="#ffb288"/>
            <path id="Trazado_202500" data-name="Trazado 202500" d="M426.542,156.052l-.812,2.77a.735.735,0,0,1-1.032.519l-.021-.01a1.1,1.1,0,0,1-.51-1.264l.812-2.77a.735.735,0,0,1,1.032-.519l.02.01A1.1,1.1,0,0,1,426.542,156.052Z" transform="translate(-393.541 -112.308)" fill="#ffb288"/>
            <path id="Trazado_202501" data-name="Trazado 202501" d="M423.774,154.028l-.783,2.67a.721.721,0,0,1-1.026.485l-.021-.01a1.076,1.076,0,0,1-.523-1.234l.783-2.67a.722.722,0,0,1,1.027-.485l.02.01A1.076,1.076,0,0,1,423.774,154.028Z" transform="translate(-391.967 -111.161)" fill="#ffb288"/>
            <path id="Trazado_202502" data-name="Trazado 202502" d="M431.015,160.705l-.7,1.908a1.014,1.014,0,0,0,.425,1.185h0a.674.674,0,0,0,.994-.376l.7-1.908a1.014,1.014,0,0,0-.425-1.185h0A.673.673,0,0,0,431.015,160.705Z" transform="translate(-397.064 -115.479)" fill="#ffb288"/>
          </g>
          <g id="Grupo_150532" data-name="Grupo 150532" transform="translate(67.589 50.808)">
            <path id="Trazado_202503" data-name="Trazado 202503" d="M420.455,180.146c.309-1.605.632-3.132,1.054-4.539l-5.031-1.167-1.115,4.37Z" transform="translate(-415.363 -174.44)" fill="#e0e0e0"/>
          </g>
          <path id="Trazado_202504" data-name="Trazado 202504" d="M354.1,201.85c8.165-2.169,16.517-6.216,18.384-8.607,3.17-5.429,6.995-10.457,8.283-17.985l5.588,1.614c-1.86,10.032-1.5,10.411-4.573,18.078a8.942,8.942,0,0,1-3.461,5.347c-9.774,7.576-20.435,13.255-19.568,14.079Z" transform="translate(-312.624 -124.101)" fill="#3f363d"/>
          <path id="Trazado_202505" data-name="Trazado 202505" d="M350.887,237.508l.867,6.635-.348,7.6-1.029,7.56,2.851,28.988c.087.985.4,1.662,1.433,1.687a1.38,1.38,0,0,0,1.166-.586s7.468-2.162,6.659-7c-1.5-8.971-1.151-21.025-1.837-30.158l.061-13.042Z" transform="translate(-310.486 -159.82)" fill="#3f363d"/>
          <path id="Trazado_202506" data-name="Trazado 202506" d="M347.518,233.862l3.892.932.094,3.431-1.842-.372,1.658,1.571-2.05,24.221-.824-8.019S349.407,238.939,347.518,233.862Z" transform="translate(-308.845 -157.728)" fill="#564953"/>
          <g id="Grupo_150536" data-name="Grupo 150536" transform="translate(0 127.909)">
            <g id="Grupo_150535" data-name="Grupo 150535" transform="translate(0 10.281)">
              <g id="Grupo_150534" data-name="Grupo 150534">
                <path id="Trazado_202507" data-name="Trazado 202507" d="M287.356,384.685c.188-2.6,1.9-4.577,3.83-4.406s3.336,2.419,3.148,5.023a5.984,5.984,0,0,1-.589,2.219,5.07,5.07,0,0,0,1.2-2.967c.188-2.6-1.494-4.877-3.757-5.077s-4.251,1.748-4.439,4.352a5.158,5.158,0,0,0,.986,3.473A6.01,6.01,0,0,1,287.356,384.685Z" transform="translate(-273.968 -379.463)" fill="#60312b"/>
                <g id="Grupo_150533" data-name="Grupo 150533" transform="translate(0 2.879)">
                  <path id="Trazado_202508" data-name="Trazado 202508" d="M257.558,400.694l1.047-14.475-1.823,23.335,7.122.63,3.392-8.629Z" transform="translate(-256.781 -386.219)" fill="#512a27"/>
                  <path id="Trazado_202509" data-name="Trazado 202509" d="M273.49,430.829l22.051,1.932.59-8.86-19.248-1.7Zm10.453-6.121-5.2-.459.134-1.861,5.2.459Z" transform="translate(-266.369 -406.865)" fill="#472522"/>
                  <path id="Trazado_202510" data-name="Trazado 202510" d="M326.611,406.7l1.047-14.475L326.611,406.7Z" transform="translate(-296.849 -389.668)" fill="#7e3d31"/>
                  <path id="Trazado_202511" data-name="Trazado 202511" d="M258.6,400.694l9.737.861,7.058-13.944-15.749-1.392Z" transform="translate(-257.827 -386.219)" fill="#7e3d31"/>
                  <path id="Trazado_202512" data-name="Trazado 202512" d="M301.745,390.656,300.7,405.131l-19.248-1.7,7.058-13.942Z" transform="translate(-270.935 -388.093)" fill="#6b342d"/>
                  <path id="Trazado_202513" data-name="Trazado 202513" d="M285.3,424.225l5.644.556.13-2.03-5.644-.556Z" transform="translate(-273.146 -406.862)" fill="#abcce0"/>
                </g>
              </g>
            </g>
            <path id="Trazado_202514" data-name="Trazado 202514" d="M291.685,356.562l.463,3.725,2.738,2.5.989,5.262c-1.528.387-2.3-1.876-2.3-3.021l.008-.194.433,1.685-6.434.962-.612-4.014.751-3.236-.661-4.557,4.7-.337Z" transform="translate(-274.101 -355.34)" fill="#ffb288"/>
            <path id="Trazado_202515" data-name="Trazado 202515" d="M291.657,380.6l-.333-2.88a.961.961,0,0,1,.82-1.088h0a.983.983,0,0,1,1.049.89l.333,2.881a.961.961,0,0,1-.82,1.088h0A.983.983,0,0,1,291.657,380.6Z" transform="translate(-276.597 -367.556)" fill="#ffb288"/>
            <path id="Trazado_202516" data-name="Trazado 202516" d="M295.31,380.025l-.376-3.252a1,1,0,0,1,.828-1.147l.026,0a1.022,1.022,0,0,1,1.07.946l.376,3.252a1,1,0,0,1-.828,1.147l-.026,0A1.022,1.022,0,0,1,295.31,380.025Z" transform="translate(-278.668 -366.976)" fill="#ffb288"/>
            <path id="Trazado_202517" data-name="Trazado 202517" d="M299.1,379.093l-.376-3.252a1.017,1.017,0,0,1,.868-1.152l.026,0a1.041,1.041,0,0,1,1.11.941l.376,3.252a1.016,1.016,0,0,1-.868,1.152l-.026,0A1.041,1.041,0,0,1,299.1,379.093Z" transform="translate(-280.842 -366.438)" fill="#ffb288"/>
            <path id="Trazado_202518" data-name="Trazado 202518" d="M290.142,381.417l-.12-2.323a.95.95,0,0,0-.949-.92h0a.911.911,0,0,0-.851.982l.12,2.323a.949.949,0,0,0,.95.919h0A.911.911,0,0,0,290.142,381.417Z" transform="translate(-274.821 -368.442)" fill="#ffb288"/>
          </g>
          <g id="Grupo_150537" data-name="Grupo 150537" transform="translate(13.12 126.852)">
            <path id="Trazado_202519" data-name="Trazado 202519" d="M293.921,352.86c0,2.839-.345,4.109-.406,5.677l-5.95-.278.032-5Z" transform="translate(-287.565 -352.86)" fill="#e0e0e0"/>
          </g>
          <path id="Trazado_202520" data-name="Trazado 202520" d="M303.18,234.5c-1.721.446-4.483,1.684-10.936,6.539-2.556,7.988-5.946,17.255-6.5,25.189-.519,7.048-.318,15.96-.136,22.742l7.8-.5,1.068-20.821,3.17-19.639,6.178-.962Z" transform="translate(-273.208 -158.095)" fill="#3f363d"/>
          <path id="Trazado_202521" data-name="Trazado 202521" d="M322.24,233.992l-3.721,1.5,1.62,3.962,1.943-1.022-1.288,2.53,9.155,19.437-.055-4.451S321.809,234.345,322.24,233.992Z" transform="translate(-292.206 -157.802)" fill="#564953"/>
        </g>
      </g>
      <path id="Trazado_202522" data-name="Trazado 202522" d="M283.748,689.872c5.331.835,10.927,1.521,16.732,2.046l40.4-29.079-7.57-27.24,0,26.076h-.942L270.9,687.467h0Q277.019,688.819,283.748,689.872Z" transform="translate(-52.254 -333.013)" fill="#677f00" opacity="0.2" style="mix-blend-mode: multiply;isolation: isolate"/>
    </g>
  </g>
</svg>
