<svg xmlns="http://www.w3.org/2000/svg" width="315" height="315" viewBox="0 0 315 315">
  <g id="Grupo_158117" data-name="Grupo 158117" transform="translate(10385 2767.881)">
    <g id="Grupo_158072" data-name="Grupo 158072">
      <g id="Grupo_158028" data-name="Grupo 158028" transform="translate(295 -2130.489)">
        <rect id="Rectángulo_296022" data-name="Rectángulo 296022" width="315" height="315" transform="translate(-10680 -637.393)" fill="#edf6e4"/>
        <g id="Grupo_153485" data-name="Grupo 153485" transform="translate(-10621.956 -567.098)">
          <path id="Trazado_205317" data-name="Trazado 205317" d="M116.912,2358.147a91.784,91.784,0,0,1-3.713-22.329q-.041-.974-.061-1.945" transform="translate(-106.436 -2241.466)" fill="#75b62f" stroke="#75b62f" stroke-width="1.27"/>
          <path id="Trazado_205318" data-name="Trazado 205318" d="M252.285,2487.827a91.268,91.268,0,0,1-24.605-3.743" transform="translate(-155.428 -2305.715)" fill="#75b62f" stroke="#75b62f" stroke-width="1.27"/>
          <path id="Trazado_205319" data-name="Trazado 205319" d="M415.858,2384.091a91.465,91.465,0,0,1-10.99,21.447" transform="translate(-231.215 -2262.946)" fill="#75b62f" stroke="#75b62f" stroke-width="1.27"/>
          <path id="Trazado_205320" data-name="Trazado 205320" d="M373.378,2205.747a92.106,92.106,0,0,1,15.878,16.379" transform="translate(-217.746 -2186.664)" fill="#75b62f" stroke="#75b62f" stroke-width="1.27"/>
          <path id="Trazado_205321" data-name="Trazado 205321" d="M184.086,2189.662A91.156,91.156,0,0,1,205.38,2179.1" transform="translate(-136.782 -2175.265)" fill="#75b62f" stroke="#75b62f" stroke-width="1.27"/>
          <path id="Trazado_205322" data-name="Trazado 205322" d="M412.571,2412.376,402,2414.922l-2.546-10.57" transform="translate(-228.9 -2271.612)" fill="#75b62f" stroke="#75b62f" stroke-width="1.27"/>
          <path id="Trazado_205323" data-name="Trazado 205323" d="M233.465,2489.073l-5.843-9.169,9.169-5.843" transform="translate(-155.403 -2301.428)" fill="#75b62f" stroke="#75b62f" stroke-width="1.27"/>
          <path id="Trazado_205324" data-name="Trazado 205324" d="M101.426,2342.375l6.772-8.505,8.506,6.772" transform="translate(-101.426 -2241.465)" fill="#75b62f" stroke="#75b62f" stroke-width="1.27"/>
          <path id="Trazado_205325" data-name="Trazado 205325" d="M201.078,2172.4l11.554,3.783-4.124,10.06" transform="translate(-144.05 -2172.401)" fill="#75b62f" stroke="#75b62f" stroke-width="1.27"/>
          <path id="Trazado_205326" data-name="Trazado 205326" d="M394.1,2215.214l-.8,10.843-10.843-.8" transform="translate(-221.628 -2190.713)" fill="#75b62f" stroke="#75b62f" stroke-width="1.27"/>
        </g>
        <g id="Grupo_153489" data-name="Grupo 153489" transform="translate(-10522.269 -434.751)">
          <g id="Grupo_153486" data-name="Grupo 153486" transform="translate(0 0)">
            <circle id="Elipse_12908" data-name="Elipse 12908" cx="39.705" cy="39.705" r="39.705" transform="translate(0 79.405) rotate(-89.349)" fill="#3d46c2"/>
          </g>
          <g id="Grupo_153487" data-name="Grupo 153487" transform="translate(15.867 50.617)">
            <path id="Trazado_205327" data-name="Trazado 205327" d="M309.957,2501.628a.678.678,0,0,1,.027.187.658.658,0,0,1-.66.653.6.6,0,0,1-.62-.47l-.44-1.448a.083.083,0,0,0-.094-.067h-3.022c-.054,0-.085.021-.094.063l-.427,1.452a.6.6,0,0,1-.62.47.657.657,0,0,1-.659-.653.677.677,0,0,1,.026-.187l2.666-9.049a.654.654,0,0,1,1.253,0Zm-2.121-2.532-1.137-3.907c0-.016-.011-.025-.033-.025s-.034.009-.034.025l-1.163,3.9c-.018.058,0,.087.054.087h2.259C307.835,2499.176,307.854,2499.149,307.836,2499.1Z" transform="translate(-303.347 -2492.112)" fill="#fff"/>
            <path id="Trazado_205328" data-name="Trazado 205328" d="M322.979,2501.814a.627.627,0,0,1-.193.459.642.642,0,0,1-.473.194.617.617,0,0,1-.587-.373l-3.132-6.384a.055.055,0,0,0-.05-.027.047.047,0,0,0-.017.04v6.091a.629.629,0,0,1-.191.459.617.617,0,0,1-.455.194.657.657,0,0,1-.66-.653v-9.049a.628.628,0,0,1,.192-.467.648.648,0,0,1,.469-.186.612.612,0,0,1,.581.366l3.137,6.394a.044.044,0,0,0,.055.01c.012,0,.018-.009.018-.026v-6.091a.633.633,0,0,1,.191-.46.62.62,0,0,1,.456-.193.657.657,0,0,1,.66.653Z" transform="translate(-309.281 -2492.112)" fill="#fff"/>
            <path id="Trazado_205329" data-name="Trazado 205329" d="M336.169,2501.628a.677.677,0,0,1,.027.187.658.658,0,0,1-.66.653.6.6,0,0,1-.62-.47l-.44-1.448a.083.083,0,0,0-.094-.067H331.36c-.054,0-.085.021-.094.063l-.427,1.452a.6.6,0,0,1-.62.47.657.657,0,0,1-.659-.653.676.676,0,0,1,.026-.187l2.666-9.049a.653.653,0,0,1,1.253,0Zm-2.121-2.532-1.137-3.907c0-.016-.011-.025-.033-.025s-.034.009-.034.025l-1.162,3.9c-.018.058,0,.087.053.087h2.259C334.048,2499.176,334.066,2499.149,334.048,2499.1Z" transform="translate(-314.559 -2492.112)" fill="#fff"/>
            <path id="Trazado_205330" data-name="Trazado 205330" d="M348.667,2501.814a.66.66,0,0,1-.653.653H344.1a.66.66,0,0,1-.653-.653v-9.049a.653.653,0,0,1,1.306,0v8.316a.071.071,0,0,0,.08.08h3.185a.64.64,0,0,1,.46.187A.621.621,0,0,1,348.667,2501.814Z" transform="translate(-320.497 -2492.112)" fill="#fff"/>
            <path id="Trazado_205331" data-name="Trazado 205331" d="M358.419,2493.063l-2.136,4.343a.1.1,0,0,0-.032.08v4.33a.653.653,0,0,1-1.306,0v-4.334a.131.131,0,0,0-.019-.079l-2.136-4.343a.67.67,0,0,1-.07-.293.621.621,0,0,1,.193-.466.658.658,0,0,1,.473-.186.618.618,0,0,1,.586.36l1.6,3.252a.023.023,0,0,0,.026.027.024.024,0,0,0,.027-.027l1.6-3.252a.619.619,0,0,1,.587-.36.655.655,0,0,1,.473.188.625.625,0,0,1,.193.469A.8.8,0,0,1,358.419,2493.063Z" transform="translate(-324.465 -2492.112)" fill="#fff"/>
            <path id="Trazado_205332" data-name="Trazado 205332" d="M370.815,2501.814a.627.627,0,0,1-.193.459.641.641,0,0,1-.473.194h-4.425a.646.646,0,0,1-.473-.192.622.622,0,0,1-.193-.457.557.557,0,0,1,.078-.291l3.945-8.036c.027-.048.013-.073-.04-.073h-3.315a.649.649,0,0,1-.475-.194.644.644,0,0,1,0-.92.644.644,0,0,1,.473-.193h4.425a.643.643,0,0,1,.473.193.629.629,0,0,1,.193.46.7.7,0,0,1-.067.293l-3.945,8.036c-.026.044-.013.067.04.067h3.305a.654.654,0,0,1,.473.187A.621.621,0,0,1,370.815,2501.814Z" transform="translate(-329.742 -2492.112)" fill="#fff"/>
            <path id="Trazado_205333" data-name="Trazado 205333" d="M382.628,2501.814a.66.66,0,0,1-.653.653h-3.918a.661.661,0,0,1-.654-.653v-9.049a.66.66,0,0,1,.654-.653h3.918a.653.653,0,0,1,0,1.307H378.79a.07.07,0,0,0-.08.08v3.066c0,.044.026.066.08.066h2.666a.661.661,0,0,1,.653.653.621.621,0,0,1-.193.467.638.638,0,0,1-.46.187H378.79a.07.07,0,0,0-.08.08v3.065a.071.071,0,0,0,.08.08h3.185a.64.64,0,0,1,.46.187A.623.623,0,0,1,382.628,2501.814Z" transform="translate(-335.023 -2492.112)" fill="#fff"/>
          </g>
          <g id="Grupo_153488" data-name="Grupo 153488" transform="translate(28.479 13.331)">
            <path id="Trazado_205334" data-name="Trazado 205334" d="M345.748,2432.614a12.135,12.135,0,0,0-14.418-1.325,12.287,12.287,0,0,0-5.591,13.431" transform="translate(-325.385 -2428.052)" fill="none" stroke="#fff" stroke-linecap="round" stroke-linejoin="round" stroke-width="1.27"/>
            <path id="Trazado_205335" data-name="Trazado 205335" d="M332.322,2457.6a12.134,12.134,0,0,0,14.419,1.326,12.286,12.286,0,0,0,5.591-13.431" transform="translate(-328.352 -2434.889)" fill="none" stroke="#fff" stroke-linecap="round" stroke-linejoin="round" stroke-width="1.27"/>
            <path id="Trazado_205336" data-name="Trazado 205336" d="M356.94,2426.958l.7,4.633-4.637.743" transform="translate(-337.198 -2426.958)" fill="none" stroke="#fff" stroke-linecap="round" stroke-linejoin="round" stroke-width="1.27"/>
            <path id="Trazado_205337" data-name="Trazado 205337" d="M332.687,2470.327l-.753-4.624,4.628-.8" transform="translate(-328.186 -2443.189)" fill="none" stroke="#fff" stroke-linecap="round" stroke-linejoin="round" stroke-width="1.27"/>
          </g>
        </g>
        <g id="Grupo_153492" data-name="Grupo 153492" transform="translate(-10545.612 -606.489)">
          <g id="Grupo_153490" data-name="Grupo 153490">
            <circle id="Elipse_12909" data-name="Elipse 12909" cx="39.705" cy="39.705" r="39.705" fill="#3d46c2" stroke="#999" stroke-miterlimit="10" stroke-width="0.011"/>
          </g>
          <g id="Grupo_153491" data-name="Grupo 153491" transform="translate(21.958 52.669)">
            <path id="Trazado_205338" data-name="Trazado 205338" d="M278.957,2203.439a2.526,2.526,0,0,1-2.519,2.519h-2.572a.644.644,0,0,1-.473-.194.628.628,0,0,1-.193-.459v-9.049a.629.629,0,0,1,.193-.46.645.645,0,0,1,.473-.193h2.572a2.438,2.438,0,0,1,1.779.733,2.4,2.4,0,0,1,.74,1.772Zm-1.306,0v-5.331a1.149,1.149,0,0,0-.357-.846,1.168,1.168,0,0,0-.853-.353h-1.868c-.045,0-.067.026-.067.08v7.583c0,.053.022.08.067.08h1.868a1.211,1.211,0,0,0,1.21-1.213Z" transform="translate(-273.2 -2195.602)" fill="#fff"/>
            <path id="Trazado_205339" data-name="Trazado 205339" d="M290.8,2205.3a.66.66,0,0,1-.653.653H286.23a.66.66,0,0,1-.653-.653v-9.049a.659.659,0,0,1,.653-.654h3.918a.653.653,0,0,1,0,1.307h-3.185a.07.07,0,0,0-.079.08v3.065c0,.044.026.067.079.067h2.666a.661.661,0,0,1,.653.653.622.622,0,0,1-.193.467.638.638,0,0,1-.46.187h-2.666a.071.071,0,0,0-.079.08v3.065a.071.071,0,0,0,.079.08h3.185a.638.638,0,0,1,.46.187A.621.621,0,0,1,290.8,2205.3Z" transform="translate(-278.494 -2195.602)" fill="#fff"/>
            <path id="Trazado_205340" data-name="Trazado 205340" d="M302.241,2196.256a.629.629,0,0,1-.194.46.649.649,0,0,1-.475.193h-3.2c-.045,0-.067.026-.067.08v3.065a.059.059,0,0,0,.067.067h2.675a.647.647,0,0,1,.475.194.649.649,0,0,1,0,.926.658.658,0,0,1-.475.187h-2.675c-.045,0-.067.027-.067.08v3.8a.631.631,0,0,1-.192.459.618.618,0,0,1-.455.194.657.657,0,0,1-.659-.653v-9.049a.629.629,0,0,1,.193-.46.645.645,0,0,1,.473-.193h3.9a.645.645,0,0,1,.473.193A.63.63,0,0,1,302.241,2196.256Z" transform="translate(-283.382 -2195.602)" fill="#fff"/>
            <path id="Trazado_205341" data-name="Trazado 205341" d="M309.763,2205.3a.631.631,0,0,1-.192.459.618.618,0,0,1-.455.194.657.657,0,0,1-.66-.653v-9.049a.656.656,0,0,1,.66-.654.619.619,0,0,1,.455.193.633.633,0,0,1,.192.46Z" transform="translate(-288.28 -2195.602)" fill="#fff"/>
            <path id="Trazado_205342" data-name="Trazado 205342" d="M318.845,2205.3a.628.628,0,0,1-.193.459.644.644,0,0,1-.473.194.616.616,0,0,1-.587-.373l-3.132-6.384a.055.055,0,0,0-.05-.027.049.049,0,0,0-.017.04v6.091a.63.63,0,0,1-.191.459.619.619,0,0,1-.455.194.657.657,0,0,1-.66-.653v-9.049a.625.625,0,0,1,.192-.467.647.647,0,0,1,.469-.187.612.612,0,0,1,.581.366l3.137,6.394a.043.043,0,0,0,.055.01c.012,0,.018-.009.018-.026v-6.09a.632.632,0,0,1,.191-.46.621.621,0,0,1,.456-.193.656.656,0,0,1,.659.654Z" transform="translate(-290.261 -2195.602)" fill="#fff"/>
            <path id="Trazado_205343" data-name="Trazado 205343" d="M330.722,2205.3a.66.66,0,0,1-.653.653h-3.918a.661.661,0,0,1-.653-.653v-9.049a.66.66,0,0,1,.653-.654h3.918a.653.653,0,0,1,0,1.307h-3.185a.07.07,0,0,0-.08.08v3.065c0,.044.026.067.08.067h2.665a.66.66,0,0,1,.653.653.622.622,0,0,1-.193.467.64.64,0,0,1-.46.187h-2.665a.071.071,0,0,0-.08.08v3.065a.071.071,0,0,0,.08.08h3.185a.637.637,0,0,1,.46.187A.621.621,0,0,1,330.722,2205.3Z" transform="translate(-295.569 -2195.602)" fill="#fff"/>
          </g>
          <path id="Trazado_205344" data-name="Trazado 205344" d="M302.326,2154.276c-1.887-1.612-5.866-4.979-9.548-8.091a2.289,2.289,0,0,1-.579-2.3,8.325,8.325,0,0,0,.35-2.392v-1.034a8.449,8.449,0,0,0-13.3-6.922,10.353,10.353,0,0,0-2.059,2.061,8.4,8.4,0,0,0-1.533,4.861v1.034a8.4,8.4,0,0,0,1.533,4.861,10.353,10.353,0,0,0,2.059,2.061,8.417,8.417,0,0,0,9.3.261,1.805,1.805,0,0,1,2.2.159l8.638,8.646c.571.572,1.732,1.121,2.4.663a4.757,4.757,0,0,0,1.378-1.514C303.552,2155.923,302.94,2154.8,302.326,2154.276ZM281,2145.611a7.285,7.285,0,0,1-2.047-2.051,5.784,5.784,0,0,1-.538-1.158,5.333,5.333,0,0,1,0-2.86,5.8,5.8,0,0,1,.538-1.158,7.3,7.3,0,0,1,2.047-2.051,6.007,6.007,0,0,1,8.785,3.21,5.3,5.3,0,0,1,0,2.857,6.006,6.006,0,0,1-8.785,3.21Z" transform="translate(-252.291 -2115.729)" fill="none" stroke="#fff" stroke-linecap="round" stroke-linejoin="round" stroke-width="1.354"/>
        </g>
        <g id="Grupo_153496" data-name="Grupo 153496" transform="translate(-10478.297 -534.606)">
          <g id="Grupo_153493" data-name="Grupo 153493" transform="translate(0 0)">
            <circle id="Elipse_12910" data-name="Elipse 12910" cx="39.705" cy="39.705" r="39.705" transform="translate(0 11.434) rotate(-8.279)" fill="#88bf10"/>
          </g>
          <g id="Grupo_153494" data-name="Grupo 153494" transform="translate(20.7 56.884)">
            <path id="Trazado_205345" data-name="Trazado 205345" d="M396.278,2338.372a.653.653,0,0,1-1.307,0v-6.1c0-.009-.009-.018-.026-.027a.053.053,0,0,0-.04.013l-1.866,3.825a.658.658,0,0,1-1.173,0L390,2332.255a.053.053,0,0,0-.04-.013c-.018.009-.026.018-.026.027v6.1a.653.653,0,0,1-1.306,0v-9.049a.645.645,0,0,1,.646-.653.6.6,0,0,1,.58.366l2.564,5.195c.015.037.03.033.046-.012l2.564-5.194a.609.609,0,0,1,.592-.355.649.649,0,0,1,.464.187.62.62,0,0,1,.2.467Z" transform="translate(-388.628 -2328.617)" fill="#fff"/>
            <path id="Trazado_205346" data-name="Trazado 205346" d="M409.592,2338.372a.66.66,0,0,1-.653.654h-3.918a.66.66,0,0,1-.653-.654v-9.049a.66.66,0,0,1,.653-.653h3.918a.653.653,0,0,1,0,1.306h-3.185a.071.071,0,0,0-.08.08v3.065c0,.045.026.066.08.066h2.665a.655.655,0,0,1,.46,1.12.638.638,0,0,1-.46.187h-2.665a.071.071,0,0,0-.08.08v3.065a.07.07,0,0,0,.08.08h3.185a.641.641,0,0,1,.46.187A.622.622,0,0,1,409.592,2338.372Z" transform="translate(-395.36 -2328.617)" fill="#fff"/>
            <path id="Trazado_205347" data-name="Trazado 205347" d="M422.393,2338.186a.674.674,0,0,1,.026.186.657.657,0,0,1-.659.654.6.6,0,0,1-.62-.47l-.441-1.449a.083.083,0,0,0-.094-.066h-3.022c-.054,0-.085.021-.094.063l-.427,1.453a.6.6,0,0,1-.62.47.657.657,0,0,1-.66-.654.675.675,0,0,1,.026-.186l2.666-9.049a.654.654,0,0,1,1.253,0Zm-2.121-2.531-1.137-3.907c0-.016-.011-.025-.034-.025s-.034.008-.034.025l-1.162,3.9c-.018.058,0,.087.054.087h2.259C420.272,2335.734,420.29,2335.707,420.272,2335.654Z" transform="translate(-400.243 -2328.617)" fill="#fff"/>
            <path id="Trazado_205348" data-name="Trazado 205348" d="M435.108,2336.5a2.524,2.524,0,0,1-2.519,2.53h-.719a2.419,2.419,0,0,1-1.586-.573,2.514,2.514,0,0,1-.88-1.453.608.608,0,0,1,.1-.487.707.707,0,0,1,.421-.287.632.632,0,0,1,.494.1.64.64,0,0,1,.281.42,1.15,1.15,0,0,0,.414.7,1.171,1.171,0,0,0,.762.273h.722a1.149,1.149,0,0,0,.849-.359,1.192,1.192,0,0,0,.354-.866v-.44a1.517,1.517,0,0,0-.363-1.006,1.5,1.5,0,0,0-.929-.527l-.773-.133a2.761,2.761,0,0,1-1.713-.973,2.808,2.808,0,0,1-.673-1.866v-.44a2.447,2.447,0,0,1,.74-1.785,2.414,2.414,0,0,1,1.779-.746h.719a2.43,2.43,0,0,1,1.633.6,2.456,2.456,0,0,1,.846,1.532.653.653,0,0,1-.114.487.612.612,0,0,1-.434.26.638.638,0,0,1-.488-.121.629.629,0,0,1-.26-.43,1.16,1.16,0,0,0-.408-.733,1.174,1.174,0,0,0-.782-.289h-.722a1.157,1.157,0,0,0-.849.355,1.18,1.18,0,0,0-.354.865v.441a1.56,1.56,0,0,0,.363,1.019,1.482,1.482,0,0,0,.929.536l.773.133a2.85,2.85,0,0,1,2.386,2.823Z" transform="translate(-406.046 -2328.577)" fill="#fff"/>
            <path id="Trazado_205349" data-name="Trazado 205349" d="M447.445,2336.546a2.526,2.526,0,0,1-2.519,2.519h-.72a2.525,2.525,0,0,1-2.519-2.519v-7.223a.657.657,0,0,1,.659-.653.617.617,0,0,1,.455.194.633.633,0,0,1,.192.46v7.234a1.152,1.152,0,0,0,.356.848,1.17,1.17,0,0,0,.854.354h.726a1.169,1.169,0,0,0,.853-.354,1.152,1.152,0,0,0,.357-.848v-7.234a.633.633,0,0,1,.191-.46.618.618,0,0,1,.455-.194.657.657,0,0,1,.66.653Z" transform="translate(-411.323 -2328.617)" fill="#fff"/>
            <path id="Trazado_205350" data-name="Trazado 205350" d="M459.824,2331.989a2.416,2.416,0,0,1-.4,1.346,2.517,2.517,0,0,1-1.053.92.078.078,0,0,0-.04.106l1.439,3.771a.588.588,0,0,1,.053.24.626.626,0,0,1-.194.46.65.65,0,0,1-.476.194.621.621,0,0,1-.616-.424l-1.527-4.04a.1.1,0,0,0-.107-.068H455.44q-.067,0-.067.08v3.8a.63.63,0,0,1-.191.46.619.619,0,0,1-.455.194.657.657,0,0,1-.66-.654v-9.049a.626.626,0,0,1,.193-.459.642.642,0,0,1,.473-.194h2.572a2.437,2.437,0,0,1,1.779.733,2.4,2.4,0,0,1,.739,1.772Zm-1.306,0v-.813a1.153,1.153,0,0,0-.356-.846,1.17,1.17,0,0,0-.854-.353H455.44c-.045,0-.068.027-.068.08v3.052c0,.053.022.079.068.079h1.868a1.168,1.168,0,0,0,.854-.353A1.15,1.15,0,0,0,458.518,2331.989Z" transform="translate(-416.618 -2328.617)" fill="#fff"/>
            <path id="Trazado_205351" data-name="Trazado 205351" d="M471.638,2338.372a.661.661,0,0,1-.654.654h-3.918a.661.661,0,0,1-.653-.654v-9.049a.661.661,0,0,1,.653-.653h3.918a.653.653,0,0,1,0,1.306H467.8a.071.071,0,0,0-.08.08v3.065c0,.045.027.066.08.066h2.665a.66.66,0,0,1,.653.654.621.621,0,0,1-.193.466.64.64,0,0,1-.46.187H467.8a.071.071,0,0,0-.08.08v3.065a.07.07,0,0,0,.08.08h3.185a.64.64,0,0,1,.46.187A.622.622,0,0,1,471.638,2338.372Z" transform="translate(-421.899 -2328.617)" fill="#fff"/>
          </g>
          <g id="Grupo_153495" data-name="Grupo 153495" transform="translate(36.445 21.678)">
            <path id="Trazado_205352" data-name="Trazado 205352" d="M433.341,2276.065c0,4.976-8.6,16.68-8.6,16.68s-8.6-11.7-8.6-16.68a8.609,8.609,0,1,1,17.2,0Z" transform="translate(-416.141 -2267.057)" fill="none" stroke="#fff" stroke-linecap="round" stroke-linejoin="round" stroke-width="1.354"/>
            <path id="Trazado_205353" data-name="Trazado 205353" d="M432.468,2278.772a5.148,5.148,0,1,1-5.141-5.387A5.268,5.268,0,0,1,432.468,2278.772Z" transform="translate(-418.725 -2269.764)" fill="none" stroke="#fff" stroke-linecap="round" stroke-linejoin="round" stroke-width="1.354"/>
          </g>
        </g>
        <g id="Grupo_153500" data-name="Grupo 153500" transform="translate(-10648.496 -565.122)">
          <g id="Grupo_153497" data-name="Grupo 153497" transform="translate(0 0)">
            <circle id="Elipse_12911" data-name="Elipse 12911" cx="39.705" cy="39.705" r="39.705" transform="translate(0 9.703) rotate(-7.018)" fill="#75b62f"/>
          </g>
          <g id="Grupo_153498" data-name="Grupo 153498" transform="translate(21.111 57.373)">
            <path id="Trazado_205354" data-name="Trazado 205354" d="M97.444,2277.525a.738.738,0,0,1,.053.278.639.639,0,0,1-.193.471.632.632,0,0,1-.46.192.6.6,0,0,1-.586-.369,1.133,1.133,0,0,0-1.093-.685h-.72a1.154,1.154,0,0,0-.846.353,1.17,1.17,0,0,0-.353.859v5.4a1.205,1.205,0,0,0,1.2,1.2h.72a1.106,1.106,0,0,0,1.079-.674.658.658,0,0,1,1.253.274.712.712,0,0,1-.066.294,2.532,2.532,0,0,1-.933,1.026,2.456,2.456,0,0,1-1.333.386h-.72a2.4,2.4,0,0,1-1.772-.739,2.431,2.431,0,0,1-.733-1.777v-5.391a2.431,2.431,0,0,1,.733-1.776,2.4,2.4,0,0,1,1.772-.739h.72a2.554,2.554,0,0,1,2.279,1.418Z" transform="translate(-91.94 -2276.107)" fill="#fff"/>
            <path id="Trazado_205355" data-name="Trazado 205355" d="M109.669,2284.013a2.523,2.523,0,0,1-2.519,2.516h-.719a2.524,2.524,0,0,1-2.519-2.516v-5.391a2.525,2.525,0,0,1,2.519-2.516h.719a2.524,2.524,0,0,1,2.519,2.516Zm-1.306.01v-5.4a1.21,1.21,0,0,0-1.209-1.212h-.726a1.211,1.211,0,0,0-1.21,1.212v5.4a1.149,1.149,0,0,0,.357.846,1.168,1.168,0,0,0,.853.353h.726a1.169,1.169,0,0,0,.853-.353A1.151,1.151,0,0,0,108.363,2284.023Z" transform="translate(-97.061 -2276.107)" fill="#fff"/>
            <path id="Trazado_205356" data-name="Trazado 205356" d="M122.037,2285.856a.626.626,0,0,1-.193.459.641.641,0,0,1-.473.194.616.616,0,0,1-.587-.373l-3.131-6.384a.057.057,0,0,0-.05-.026.049.049,0,0,0-.017.04v6.09a.631.631,0,0,1-.191.459.617.617,0,0,1-.455.194.657.657,0,0,1-.66-.653v-9.049a.624.624,0,0,1,.191-.466.648.648,0,0,1,.469-.187.612.612,0,0,1,.581.365l3.137,6.395a.044.044,0,0,0,.054.01c.012,0,.018-.009.018-.027v-6.09a.632.632,0,0,1,.191-.46.621.621,0,0,1,.455-.193.655.655,0,0,1,.66.653Z" transform="translate(-102.351 -2276.127)" fill="#fff"/>
            <path id="Trazado_205357" data-name="Trazado 205357" d="M134.375,2276.807a.626.626,0,0,1-.193.459.643.643,0,0,1-.473.194h-1.479a.07.07,0,0,0-.08.08v8.316a.653.653,0,0,1-1.306,0v-8.316a.07.07,0,0,0-.08-.08h-1.479a.643.643,0,0,1-.473-.194.643.643,0,0,1,0-.92.647.647,0,0,1,.473-.193h4.424a.647.647,0,0,1,.473.193A.63.63,0,0,1,134.375,2276.807Z" transform="translate(-107.628 -2276.127)" fill="#fff"/>
            <path id="Trazado_205358" data-name="Trazado 205358" d="M146.712,2279.472a2.411,2.411,0,0,1-.4,1.346,2.5,2.5,0,0,1-1.052.92.079.079,0,0,0-.04.107l1.439,3.771a.587.587,0,0,1,.053.24.624.624,0,0,1-.194.459.648.648,0,0,1-.476.194.621.621,0,0,1-.616-.423l-1.527-4.04a.105.105,0,0,0-.108-.068h-1.463q-.067,0-.067.08v3.8a.629.629,0,0,1-.192.459.615.615,0,0,1-.455.194.657.657,0,0,1-.659-.653v-9.049a.629.629,0,0,1,.193-.46.647.647,0,0,1,.473-.193h2.572a2.438,2.438,0,0,1,1.779.733,2.4,2.4,0,0,1,.739,1.772Zm-1.306,0v-.813a1.15,1.15,0,0,0-.357-.846,1.17,1.17,0,0,0-.853-.353h-1.868c-.045,0-.067.026-.067.08v3.052q0,.08.067.08H144.2a1.168,1.168,0,0,0,.853-.353A1.149,1.149,0,0,0,145.406,2279.472Z" transform="translate(-112.905 -2276.127)" fill="#fff"/>
            <path id="Trazado_205359" data-name="Trazado 205359" d="M159.049,2284.013a2.523,2.523,0,0,1-2.519,2.516h-.719a2.524,2.524,0,0,1-2.519-2.516v-5.391a2.525,2.525,0,0,1,2.519-2.516h.719a2.524,2.524,0,0,1,2.519,2.516Zm-1.306.01v-5.4a1.21,1.21,0,0,0-1.209-1.212h-.726a1.211,1.211,0,0,0-1.21,1.212v5.4a1.149,1.149,0,0,0,.357.846,1.168,1.168,0,0,0,.853.353h.726a1.169,1.169,0,0,0,.853-.353A1.15,1.15,0,0,0,157.743,2284.023Z" transform="translate(-118.182 -2276.107)" fill="#fff"/>
            <path id="Trazado_205360" data-name="Trazado 205360" d="M170.893,2285.856a.661.661,0,0,1-.653.653h-3.918a.661.661,0,0,1-.653-.653v-9.049a.653.653,0,0,1,1.306,0v8.316a.071.071,0,0,0,.08.08h3.185a.639.639,0,0,1,.46.187A.623.623,0,0,1,170.893,2285.856Z" transform="translate(-123.476 -2276.127)" fill="#fff"/>
          </g>
          <g id="Grupo_153499" data-name="Grupo 153499" transform="translate(28.856 22.574)">
            <path id="Trazado_205361" data-name="Trazado 205361" d="M109.918,2229.63c.105.088.213.17.326.247a4.076,4.076,0,0,0,.336.233c.191.121.281.674.263,1.252a1.579,1.579,0,0,0,1.071,1.425,1.6,1.6,0,0,0,1.676-.63c.3-.5.672-.916.9-.916.137,0,.273,0,.409-.017s.274-.017.409-.034c.224-.03.651.336,1.012.79a1.6,1.6,0,0,0,1.745.407,1.573,1.573,0,0,0,.874-1.552c-.1-.569-.077-1.126.092-1.272.1-.088.2-.181.3-.272a3.345,3.345,0,0,0,.288-.289c.152-.167.722-.155,1.293-.036a1.594,1.594,0,0,0,1.6-.8,1.559,1.559,0,0,0-.336-1.747c-.445-.373-.789-.812-.754-1.032.022-.133.038-.267.056-.4a3.192,3.192,0,0,0,.034-.4c.007-.224.452-.579.966-.852a1.477,1.477,0,0,0-.686-2.76c-.582,0-1.13-.119-1.248-.31-.072-.115-.145-.229-.215-.344s-.157-.221-.239-.33c-.135-.178-.03-.731.19-1.265a1.565,1.565,0,0,0-.519-1.7,1.6,1.6,0,0,0-1.8.021c-.448.369-.947.635-1.161.562-.128-.044-.258-.087-.387-.13s-.263-.065-.4-.1c-.219-.051-.5-.541-.674-1.092a1.5,1.5,0,0,0-2.865.186c-.1.568-.315,1.091-.525,1.169-.128.047-.255.1-.381.149s-.246.116-.367.176c-.2.1-.729-.1-1.222-.4a1.6,1.6,0,0,0-1.782.208,1.569,1.569,0,0,0-.291,1.753c.286.5.469,1.041.353,1.233a3.254,3.254,0,0,0-.19.36c-.058.122-.117.244-.171.367-.09.206-.619.391-1.2.469a1.475,1.475,0,0,0-.318,2.824c.547.2,1.034.5,1.07.72a3.426,3.426,0,0,0,.087.4c.034.131.068.262.108.392.065.215-.221.693-.611,1.123a1.564,1.564,0,0,0-.1,1.775,1.6,1.6,0,0,0,1.694.586C109.187,2229.568,109.744,2229.486,109.918,2229.63Zm1.549-1.406a4.945,4.945,0,0,1-1.533-6.212,5.017,5.017,0,0,1,2.479-2.355,5.039,5.039,0,0,1,6.194,1.791,4.977,4.977,0,0,1-3.846,7.728A5.016,5.016,0,0,1,111.467,2228.224Z" transform="translate(-105.474 -2215.299)" fill="none" stroke="#fff" stroke-width="1.27"/>
            <path id="Trazado_205362" data-name="Trazado 205362" d="M137.71,2235.116a1.4,1.4,0,0,0-1.652-.595,1.376,1.376,0,0,0-.669,1.608c.2.583.343,1.125.225,1.257-.07.08-.138.163-.2.25s-.124.173-.179.264c-.093.15-.652.181-1.276.168a1.257,1.257,0,0,0-.273,2.5c.611.12,1.15.268,1.209.436.035.1.076.2.118.3a2.994,2.994,0,0,0,.143.286c.086.154-.168.653-.493,1.179a1.372,1.372,0,0,0,.306,1.713,1.4,1.4,0,0,0,1.741-.228c.41-.466.81-.856.984-.823.106.02.212.036.318.051s.215.015.322.017c.177,0,.484.47.782,1.012a1.4,1.4,0,0,0,1.653.595,1.378,1.378,0,0,0,.668-1.609c-.2-.583-.343-1.125-.225-1.256a3.1,3.1,0,0,0,.2-.249c.062-.086.124-.174.179-.264.093-.151.652-.181,1.276-.168a1.257,1.257,0,0,0,.273-2.5c-.611-.12-1.15-.269-1.209-.435-.034-.1-.076-.2-.118-.3a2.966,2.966,0,0,0-.143-.286c-.086-.155.169-.654.493-1.18a1.372,1.372,0,0,0-.305-1.712,1.4,1.4,0,0,0-1.742.228c-.41.465-.81.855-.983.822-.106-.019-.212-.035-.318-.051s-.214-.015-.321-.017C138.315,2236.124,138.009,2235.658,137.71,2235.116Zm.88,3.082a1.642,1.642,0,0,1,1.317.962,1.606,1.606,0,0,1-.176,1.6,1.636,1.636,0,0,1-2.814-.3,1.611,1.611,0,0,1,.176-1.606A1.654,1.654,0,0,1,138.59,2238.2Z" transform="translate(-117.079 -2223.484)" fill="none" stroke="#fff" stroke-width="1.27"/>
          </g>
        </g>
        <g id="Grupo_153503" data-name="Grupo 153503" transform="translate(-10631.258 -454.451)">
          <circle id="Elipse_12912" data-name="Elipse 12912" cx="39.412" cy="39.412" r="39.412" transform="matrix(0.068, -0.998, 0.998, 0.068, 0, 78.642)" fill="#dce736"/>
          <g id="Grupo_153501" data-name="Grupo 153501" transform="translate(29.986 18.704)">
            <line id="Línea_1156" data-name="Línea 1156" y2="27.138" transform="translate(3.377)" fill="none" stroke="#fff" stroke-linecap="round" stroke-linejoin="round" stroke-width="1.27"/>
            <line id="Línea_1157" data-name="Línea 1157" x1="27.013" transform="translate(0 23.52)" fill="none" stroke="#fff" stroke-linecap="round" stroke-linejoin="round" stroke-width="1.27"/>
            <path id="Trazado_205363" data-name="Trazado 205363" d="M148.509,2425.8l5.476-5.5,2.322,2.333,8.945-8.986v0h-3.4" transform="translate(-142.25 -2406.938)" fill="none" stroke="#fff" stroke-linecap="round" stroke-linejoin="round" stroke-width="1.27"/>
          </g>
          <g id="Grupo_153502" data-name="Grupo 153502" transform="translate(19.382 54.99)">
            <path id="Trazado_205364" data-name="Trazado 205364" d="M120.347,2475.078a.631.631,0,0,1-.192.46.617.617,0,0,1-.455.193.656.656,0,0,1-.659-.653v-9.049a.657.657,0,0,1,.659-.653.618.618,0,0,1,.455.194.63.63,0,0,1,.192.459Z" transform="translate(-119.041 -2465.349)" fill="#fff"/>
            <path id="Trazado_205365" data-name="Trazado 205365" d="M131.334,2475.078a.653.653,0,0,1-1.306,0v-6.1c0-.009-.009-.018-.027-.027a.057.057,0,0,0-.04.013l-1.866,3.825a.658.658,0,0,1-1.173,0l-1.866-3.825a.058.058,0,0,0-.04-.013c-.018.009-.027.018-.027.027v6.1a.653.653,0,0,1-1.306,0v-9.049a.625.625,0,0,1,.191-.467.632.632,0,0,1,.455-.187.594.594,0,0,1,.58.366l2.564,5.195c.015.037.031.033.046-.012l2.564-5.194a.607.607,0,0,1,.591-.355.65.65,0,0,1,.464.187.618.618,0,0,1,.2.467Z" transform="translate(-121.027 -2465.349)" fill="#fff"/>
            <path id="Trazado_205366" data-name="Trazado 205366" d="M145.172,2468.694a2.4,2.4,0,0,1-.742,1.773,2.448,2.448,0,0,1-1.784.732h-1.858c-.045,0-.067.027-.067.08v3.8a.633.633,0,0,1-.191.46.618.618,0,0,1-.456.193.656.656,0,0,1-.659-.653v-9.049a.627.627,0,0,1,.193-.459.644.644,0,0,1,.473-.194h2.572a2.437,2.437,0,0,1,1.779.733,2.4,2.4,0,0,1,.739,1.772Zm-1.306,0v-.813a1.152,1.152,0,0,0-.357-.846,1.17,1.17,0,0,0-.853-.353h-1.868c-.045,0-.067.027-.067.08v3.052c0,.053.022.079.067.079h1.868a1.167,1.167,0,0,0,.853-.353A1.148,1.148,0,0,0,143.866,2468.694Z" transform="translate(-127.755 -2465.349)" fill="#fff"/>
            <path id="Trazado_205367" data-name="Trazado 205367" d="M157.509,2468.694a2.411,2.411,0,0,1-.4,1.346,2.513,2.513,0,0,1-1.053.92.079.079,0,0,0-.04.106l1.439,3.771a.586.586,0,0,1,.053.24.627.627,0,0,1-.194.46.649.649,0,0,1-.476.193.621.621,0,0,1-.616-.424l-1.527-4.04a.1.1,0,0,0-.107-.067h-1.463c-.045,0-.068.027-.068.08v3.8a.631.631,0,0,1-.191.46.618.618,0,0,1-.455.193.656.656,0,0,1-.66-.653v-9.049a.627.627,0,0,1,.193-.459.644.644,0,0,1,.473-.194h2.572a2.437,2.437,0,0,1,1.779.733,2.4,2.4,0,0,1,.739,1.772Zm-1.306,0v-.813a1.154,1.154,0,0,0-.356-.846,1.17,1.17,0,0,0-.853-.353h-1.868c-.045,0-.068.027-.068.08v3.052c0,.053.022.079.068.079h1.868a1.167,1.167,0,0,0,.853-.353A1.15,1.15,0,0,0,156.2,2468.694Z" transform="translate(-133.032 -2465.349)" fill="#fff"/>
            <path id="Trazado_205368" data-name="Trazado 205368" d="M169.847,2473.235a2.524,2.524,0,0,1-2.519,2.516h-.72a2.523,2.523,0,0,1-2.519-2.516v-5.39a2.524,2.524,0,0,1,2.519-2.516h.72a2.525,2.525,0,0,1,2.519,2.516Zm-1.306.01v-5.4a1.212,1.212,0,0,0-1.21-1.213h-.726a1.211,1.211,0,0,0-1.21,1.213v5.4a1.149,1.149,0,0,0,.356.847,1.172,1.172,0,0,0,.854.353h.726a1.171,1.171,0,0,0,.853-.353A1.15,1.15,0,0,0,168.541,2473.245Z" transform="translate(-138.31 -2465.329)" fill="#fff"/>
            <path id="Trazado_205369" data-name="Trazado 205369" d="M182.744,2466.216l-2.665,9.049a.654.654,0,0,1-1.253,0l-2.666-9.049a.677.677,0,0,1-.026-.187.625.625,0,0,1,.191-.467.646.646,0,0,1,.468-.187.6.6,0,0,1,.62.47l2.005,6.808c0,.008.011.016.034.025.022-.009.034-.017.034-.025l2.005-6.808a.6.6,0,0,1,.62-.47.646.646,0,0,1,.468.187.625.625,0,0,1,.192.467A.678.678,0,0,1,182.744,2466.216Z" transform="translate(-143.461 -2465.349)" fill="#fff"/>
            <path id="Trazado_205370" data-name="Trazado 205370" d="M195.242,2475.078a.659.659,0,0,1-.653.653h-3.918a.659.659,0,0,1-.653-.653v-9.049a.66.66,0,0,1,.653-.653h3.918a.653.653,0,0,1,0,1.306H191.4a.071.071,0,0,0-.08.08v3.065c0,.045.026.066.08.066h2.666a.655.655,0,0,1,.46,1.12.638.638,0,0,1-.46.186H191.4a.071.071,0,0,0-.08.08v3.066a.07.07,0,0,0,.08.08h3.185a.641.641,0,0,1,.46.187A.622.622,0,0,1,195.242,2475.078Z" transform="translate(-149.4 -2465.349)" fill="#fff"/>
          </g>
        </g>
        <g id="Grupo_153504" data-name="Grupo 153504" transform="translate(-10547.909 -470.348)">
          <path id="Trazado_205371" data-name="Trazado 205371" d="M248.248,2344.748a14.869,14.869,0,0,0-3.011.228,11.878,11.878,0,0,0-10.313,10.5h.091a8.835,8.835,0,0,1,7.21-3.468c5.248,0,8.944,3.833,8.944,9.583,0,5.476-3.7,10.5-9.9,10.5-6.3,0-10.45-4.928-10.45-12.641,0-5.84,2.054-10.449,5.02-13.37a16.147,16.147,0,0,1,9.491-4.381,19.278,19.278,0,0,1,2.92-.229Zm-1.141,17.112c0-4.244-2.418-6.8-6.115-6.8a6.591,6.591,0,0,0-5.8,3.651,3.74,3.74,0,0,0-.41,1.734c.045,4.883,2.327,8.533,6.571,8.533C244.78,2368.979,247.107,2366.1,247.107,2361.86Z" transform="translate(-230.816 -2341.462)" fill="#75b62f"/>
          <path id="Trazado_205372" data-name="Trazado 205372" d="M289.106,2357.677a10.185,10.185,0,0,1,4.107,8.35c0,8.123-5.567,11.682-10.587,11.682-5.932,0-10.587-4.335-10.587-11.317,0-7.393,4.7-11.728,11.362-11.728h6.662c1.506,0,4.152.046,4.974-.046l-.137,3.058c-1.05,0-2.555,0-5.8-.137Zm.137,8.35c0-3.7-1.917-8.35-6.479-8.35s-6.617,4.381-6.617,8.533c0,4.837,2.784,8.488,6.617,8.488C286.369,2374.7,289.243,2371.047,289.243,2366.027Z" transform="translate(-248.449 -2347.09)" fill="#75b62f"/>
        </g>
        <g id="Grupo_153505" data-name="Grupo 153505" transform="translate(-10553.02 -514.866)">
          <path id="Trazado_205373" data-name="Trazado 205373" d="M256.608,2278.067a4.59,4.59,0,0,1-4.58,4.6H250.72a4.4,4.4,0,0,1-2.884-1.042,4.563,4.563,0,0,1-1.6-2.641,1.1,1.1,0,0,1,.183-.885,1.276,1.276,0,0,1,.765-.521,1.148,1.148,0,0,1,.9.181,1.164,1.164,0,0,1,.51.763,2.093,2.093,0,0,0,.754,1.272,2.128,2.128,0,0,0,1.385.5h1.312a2.089,2.089,0,0,0,1.543-.654,2.165,2.165,0,0,0,.644-1.575v-.8a2.762,2.762,0,0,0-.661-1.83,2.715,2.715,0,0,0-1.689-.957l-1.4-.242a5.028,5.028,0,0,1-3.114-1.769,5.106,5.106,0,0,1-1.224-3.393v-.8a4.452,4.452,0,0,1,1.345-3.247,4.392,4.392,0,0,1,3.235-1.357h1.308a4.42,4.42,0,0,1,2.968,1.091,4.466,4.466,0,0,1,1.539,2.786,1.187,1.187,0,0,1-.207.885,1.111,1.111,0,0,1-.79.473,1.161,1.161,0,0,1-.887-.22,1.141,1.141,0,0,1-.474-.782,2.1,2.1,0,0,0-.741-1.332,2.139,2.139,0,0,0-1.422-.526H250.7a2.1,2.1,0,0,0-1.543.646,2.141,2.141,0,0,0-.644,1.572v.8a2.83,2.83,0,0,0,.66,1.852,2.689,2.689,0,0,0,1.689.975l1.405.242a5.182,5.182,0,0,1,4.338,5.133Z" transform="translate(-232.26 -2263.671)" fill="#75b62f"/>
          <path id="Trazado_205374" data-name="Trazado 205374" d="M270.947,2281.48a1.148,1.148,0,0,1-.348.835,1.123,1.123,0,0,1-.828.351,1.193,1.193,0,0,1-1.2-1.187v-16.453a1.193,1.193,0,0,1,1.2-1.187,1.126,1.126,0,0,1,.828.351,1.151,1.151,0,0,1,.348.836Z" transform="translate(-241.855 -2263.743)" fill="#75b62f"/>
          <path id="Trazado_205375" data-name="Trazado 205375" d="M287.2,2280.947a1.174,1.174,0,0,1,.121.533,1.2,1.2,0,0,1-1.188,1.187,1.091,1.091,0,0,1-1.067-.678l-2.916-5.908c-.026-.081-.053-.081-.079,0l-2.916,5.908a1.091,1.091,0,0,1-1.066.678,1.2,1.2,0,0,1-1.187-1.187,1.183,1.183,0,0,1,.12-.533l3.708-7.584a.317.317,0,0,0,0-.242l-3.708-7.584a1.177,1.177,0,0,1,.231-1.357,1.162,1.162,0,0,1,.836-.339,1.093,1.093,0,0,1,1.066.654l2.916,5.908q.04.122.079,0l2.916-5.908a1.094,1.094,0,0,1,1.067-.654,1.2,1.2,0,0,1,1.188,1.187,1.123,1.123,0,0,1-.121.509l-3.708,7.584a.314.314,0,0,0,0,.243Z" transform="translate(-245.417 -2263.743)" fill="#75b62f"/>
          <path id="Trazado_205376" data-name="Trazado 205376" d="M231.651,2316.589a4.175,4.175,0,0,1-4.168,4.186h-1.43a4.165,4.165,0,0,1-4.071-3.344.437.437,0,0,1,.389-.605.453.453,0,0,1,.608.387,3.189,3.189,0,0,0,1.105,1.83,3.016,3.016,0,0,0,1.981.715H227.5a3,3,0,0,0,2.211-.933,3.072,3.072,0,0,0,.924-2.242v-.872a3.757,3.757,0,0,0-.9-2.484,3.636,3.636,0,0,0-2.295-1.3l-1.5-.267a4.663,4.663,0,0,1-2.908-1.647,4.783,4.783,0,0,1-1.139-3.174v-.848a4.072,4.072,0,0,1,1.229-2.98,4.027,4.027,0,0,1,2.959-1.236h1.436a4.05,4.05,0,0,1,2.7.994,4.166,4.166,0,0,1,1.437,2.544.456.456,0,0,1-.44.582.437.437,0,0,1-.586-.416,3.153,3.153,0,0,0-1.075-1.929,3.048,3.048,0,0,0-2.052-.757h-1.442a3.023,3.023,0,0,0-2.224.938,3.084,3.084,0,0,0-.928,2.252v.852a3.843,3.843,0,0,0,3.2,3.822l1.5.267a4.672,4.672,0,0,1,2.909,1.646,4.743,4.743,0,0,1,1.139,3.146Z" transform="translate(-221.886 -2279.97)" fill="#75b62f"/>
          <path id="Trazado_205377" data-name="Trazado 205377" d="M244.455,2320.247a.455.455,0,0,1-.521.509.444.444,0,0,1-.5-.509v-17.833a.445.445,0,0,1,.5-.509.456.456,0,0,1,.521.509Z" transform="translate(-231.104 -2280.024)" fill="#75b62f"/>
          <path id="Trazado_205378" data-name="Trazado 205378" d="M259.493,2316.625a4.179,4.179,0,0,1-4.168,4.167H253.9a4.178,4.178,0,0,1-4.168-4.167v-10.637a4.177,4.177,0,0,1,4.168-4.168h1.43a4.143,4.143,0,0,1,3.756,2.35.45.45,0,0,1-.243.678.478.478,0,0,1-.7-.242,2.909,2.909,0,0,0-2.819-1.769H253.88a3.15,3.15,0,0,0-3.134,3.155v10.652a3.155,3.155,0,0,0,3.145,3.13h1.439a3.159,3.159,0,0,0,3.145-3.135v-4.691c0-.1-.041-.145-.122-.145h-3.316a.509.509,0,1,1,0-1.018h3.949a.45.45,0,0,1,.509.509Z" transform="translate(-233.795 -2279.988)" fill="#75b62f"/>
          <path id="Trazado_205379" data-name="Trazado 205379" d="M284.758,2320.239a.455.455,0,0,1-.52.51.444.444,0,0,1-.5-.509v-15.362c0-.016-.021-.032-.061-.049a.1.1,0,0,0-.061.024l-5.161,10.516a.51.51,0,0,1-.921,0l-5.161-10.516a.1.1,0,0,0-.061-.024c-.041.017-.061.033-.061.049v15.362a.444.444,0,0,1-.5.509.455.455,0,0,1-.521-.51v-17.832a.477.477,0,0,1,.406-.51.494.494,0,0,1,.573.322l5.72,11.655q.06.122.122,0l5.719-11.655a.494.494,0,0,1,.573-.322.478.478,0,0,1,.406.51Z" transform="translate(-242.995 -2280.016)" fill="#75b62f"/>
          <path id="Trazado_205380" data-name="Trazado 205380" d="M310.813,2320.1a.47.47,0,0,1-.366.654.454.454,0,0,1-.634-.361l-1.02-3.418a.156.156,0,0,0-.17-.145H301.5a.153.153,0,0,0-.17.137l-1.006,3.42c-.095.343-.3.466-.619.369a.469.469,0,0,1-.358-.654l5.235-17.81a.48.48,0,0,1,.485-.387.49.49,0,0,1,.508.364Zm-2.388-4.43-3.274-11.225a.109.109,0,0,0-.1-.046.088.088,0,0,0-.065.04l-3.273,11.225c-.017.1.015.149.1.149h6.515C308.409,2315.814,308.441,2315.767,308.425,2315.672Z" transform="translate(-255.006 -2280.024)" fill="#75b62f"/>
        </g>
      </g>
    </g>
  </g>
</svg>
