<svg xmlns="http://www.w3.org/2000/svg" width="150" height="150" viewBox="0 0 150 150">
  <g id="Grupo_158150" data-name="Grupo 158150" transform="translate(134 656.171)">
    <g id="Grupo_158051" data-name="Grupo 158051" transform="translate(-344 -592.006)">
      <g id="Grupo_157965" data-name="Grupo 157965" transform="translate(-915 -1930.109)">
        <g id="Elipse_12654" data-name="Elipse 12654" transform="translate(1125 1865.944)" fill="#fff" stroke="#77b43a" stroke-width="4">
          <circle cx="75" cy="75" r="75" stroke="none"/>
          <circle cx="75" cy="75" r="73" fill="none"/>
        </g>
        <g id="Grupo_157263" data-name="Grupo 157263" transform="translate(1093.316 1487.854)">
          <g id="Grupo_157262" data-name="Grupo 157262" transform="translate(73.005 407.41)">
            <g id="Grupo_157260" data-name="Grupo 157260" transform="translate(4.507)">
              <path id="Trazado_210475" data-name="Trazado 210475" d="M129.675,424.517v0Zm-20.892-7.6v0Zm-.066,67.078a17.43,17.43,0,0,0,7.181,1.543h6.638a17.636,17.636,0,0,0,17.583-17.565l.023-43.422a5.233,5.233,0,0,0-10.466-.033l.016-5.467a5.227,5.227,0,0,0-10.454-.007v-6.349a5.227,5.227,0,0,0-10.455-.007v4.229a5.227,5.227,0,0,0-10.454,0l0,35.2c-.034,3.7-3.591,4.425-5.354,2.728L86.662,448.5a5.227,5.227,0,1,0-7.4,7.387l7.005,6.91Z" transform="translate(-77.744 -407.463)" fill="#efc7a4" fill-rule="evenodd"/>
              <g id="Grupo_157259" data-name="Grupo 157259" transform="translate(3.852 0.695)">
                <path id="Trazado_210476" data-name="Trazado 210476" d="M86.7,449.956l1.147,1.148.054.054,5.234,5.26c.056.055.114.106.173.155h0a5.242,5.242,0,0,1-4.867-1.151l-6.691-6.7a5.237,5.237,0,0,1,4.949,1.233Z" transform="translate(-81.749 -409.732)" fill="#d5a889" fill-rule="evenodd"/>
                <path id="Trazado_210477" data-name="Trazado 210477" d="M131.655,449.535a1.316,1.316,0,1,1-2.631,0V414.8a5.236,5.236,0,0,1,2.631,4.534c-.03,9.726,0,19.721,0,30.2Z" transform="translate(-83.56 -408.439)" fill="#d5a889" fill-rule="evenodd"/>
                <path id="Trazado_210478" data-name="Trazado 210478" d="M120.789,449.281a1.316,1.316,0,1,1-2.631,0l0-41.1a5.238,5.238,0,0,1,2.63,4.535q0,18.147,0,36.56Z" transform="translate(-83.143 -408.186)" fill="#d5a889" fill-rule="evenodd"/>
                <path id="Trazado_210479" data-name="Trazado 210479" d="M109.883,449.45a1.315,1.315,0,1,1-2.63,0l.024-36.867a5.24,5.24,0,0,1,2.628,4.255Z" transform="translate(-82.726 -408.354)" fill="#d5a889" fill-rule="evenodd"/>
                <path id="Trazado_210480" data-name="Trazado 210480" d="M139.868,477.673l.021-57.16a5.243,5.243,0,0,1,2.629,4.374l-.006,15.952-.014,27.633a17.417,17.417,0,0,1-2.63,9.2Z" transform="translate(-83.975 -408.658)" fill="#d5a889" fill-rule="evenodd"/>
              </g>
            </g>
            <g id="Grupo_157261" data-name="Grupo 157261" transform="translate(0 54.647)">
              <circle id="Elipse_12997" data-name="Elipse 12997" cx="17.955" cy="17.955" r="17.955" fill="#75b62f"/>
              <path id="Trazado_210481" data-name="Trazado 210481" d="M81.561,475.612l2.822-2.822a.945.945,0,0,1,1.334,0l5.612,5.611,5.611-5.611a.945.945,0,0,1,1.334,0l2.822,2.822a.945.945,0,0,1,0,1.334l-5.612,5.611,5.612,5.611a.946.946,0,0,1,0,1.335l-2.822,2.821a.945.945,0,0,1-1.334,0l-5.611-5.611-5.612,5.611a.945.945,0,0,1-1.334,0L81.561,489.5a.945.945,0,0,1,0-1.334l5.612-5.612-5.612-5.611A.945.945,0,0,1,81.561,475.612Z" transform="translate(-73.373 -464.601)" fill="#f4f6f8" fill-rule="evenodd"/>
            </g>
          </g>
          <path id="Trazado_210482" data-name="Trazado 210482" d="M94.181,479.079a1.319,1.319,0,0,0,0,1.866l5.344,5.344-2.287,2.289-5.345-5.345a1.321,1.321,0,0,0-1.868,0l-5.344,5.345-2.287-2.289,5.344-5.344a1.319,1.319,0,0,0,0-1.866l-5.344-5.345,2.287-2.289,5.344,5.345a1.322,1.322,0,0,0,1.868,0l5.345-5.345,2.287,2.289Zm8.146-6.279-4.155-4.156a1.321,1.321,0,0,0-1.868,0l-5.344,5.344-5.345-5.344a1.319,1.319,0,0,0-1.868,0L79.593,472.8a1.319,1.319,0,0,0,0,1.868l5.344,5.343-5.344,5.344a1.32,1.32,0,0,0,0,1.869l4.156,4.156a1.318,1.318,0,0,0,1.867,0l5.345-5.344,5.344,5.344a1.318,1.318,0,0,0,1.867,0l4.156-4.156a1.321,1.321,0,0,0,0-1.868l-5.344-5.345,5.344-5.343a1.319,1.319,0,0,0,0-1.868Zm36.24-4.884.023-43.42a3.924,3.924,0,0,0-3.905-3.909h0a3.9,3.9,0,0,0-2.764,1.147,3.864,3.864,0,0,0-1.155,2.733v.027l.017,24.705a1.321,1.321,0,1,1-2.642,0l-.016-24.711v-.037l.015-5.461a3.919,3.919,0,0,0-3.9-3.9h0a3.922,3.922,0,0,0-3.907,3.9l0,30.209a1.321,1.321,0,1,1-2.642,0l0-30.21V412.64a3.919,3.919,0,0,0-3.9-3.908h0a3.921,3.921,0,0,0-3.906,3.9v4.238l-.03,32.328a1.32,1.32,0,0,1-1.32,1.32h0A1.322,1.322,0,0,1,107.2,449.2l.03-32.328v-.008a3.924,3.924,0,0,0-3.9-3.9h0a3.922,3.922,0,0,0-3.905,3.9l0,35.2a4.749,4.749,0,0,1-2.76,4.571,4.519,4.519,0,0,1-4.83-.891.2.2,0,0,0-.021-.02l-6.316-6.348a3.86,3.86,0,0,0-2.76-1.138h0a3.906,3.906,0,0,0-2.765,6.66l6.466,6.378a19.277,19.277,0,0,1,23.548,21.857,16.08,16.08,0,0,0,5.683,1.03H122.3a16.279,16.279,0,0,0,16.264-16.246ZM90.96,496.646a16.635,16.635,0,1,0-16.635-16.635A16.652,16.652,0,0,0,90.96,496.646Zm48.349-76.777a6.5,6.5,0,0,0-4.624-1.923h0a6.509,6.509,0,0,0-3.9,1.292V419a6.56,6.56,0,0,0-6.542-6.552h0a6.486,6.486,0,0,0-3.907,1.3v-1.1a6.56,6.56,0,0,0-6.543-6.55h0a6.569,6.569,0,0,0-6.477,5.583,6.491,6.491,0,0,0-3.973-1.353h0a6.562,6.562,0,0,0-6.547,6.545l0,35.185a2.152,2.152,0,0,1-1.142,2.15,1.877,1.877,0,0,1-1.968-.352l-6.307-6.34a6.492,6.492,0,0,0-4.629-1.913h0a6.547,6.547,0,0,0-4.626,11.174l5.5,5.426a19.276,19.276,0,1,0,25.767,23.524,18.652,18.652,0,0,0,6.291,1.083H122.3a18.922,18.922,0,0,0,18.905-18.885l.023-43.42a6.512,6.512,0,0,0-1.921-4.629Z" fill-rule="evenodd"/>
        </g>
      </g>
    </g>
  </g>
</svg>
