<svg xmlns="http://www.w3.org/2000/svg" xmlns:xlink="http://www.w3.org/1999/xlink" width="293.496" height="292.85" viewBox="0 0 293.496 292.85">
  <defs>
    <clipPath id="clip-path">
      <circle id="Elipse_12811" data-name="Elipse 12811" cx="32.778" cy="32.778" r="32.778" fill="none"/>
    </clipPath>
  </defs>
  <g id="Grupo_158112" data-name="Grupo 158112" transform="translate(10974.996 3611.941)">
    <g id="Grupo_158067" data-name="Grupo 158067">
      <g id="Grupo_158023" data-name="Grupo 158023" transform="translate(-297 -458)">
        <circle id="Elipse_12805" data-name="Elipse 12805" cx="32.772" cy="32.772" r="32.772" transform="translate(-10564.024 -3151.69)" fill="#eaf086"/>
        <circle id="Elipse_12806" data-name="Elipse 12806" cx="32.772" cy="32.772" r="32.772" transform="translate(-10564.024 -2939.445)" fill="#eaf086"/>
        <circle id="Elipse_12807" data-name="Elipse 12807" cx="32.772" cy="32.772" r="32.772" transform="translate(-10669.504 -3065.857) rotate(-45)" fill="#eaf086"/>
        <circle id="Elipse_12808" data-name="Elipse 12808" cx="32.772" cy="32.772" r="32.772" transform="translate(-10485.694 -2959.734) rotate(-45)" fill="#eaf086"/>
        <circle id="Elipse_12809" data-name="Elipse 12809" cx="32.772" cy="32.772" r="32.772" transform="translate(-10485.694 -3065.857) rotate(-45)" fill="#eaf086"/>
        <circle id="Elipse_12810" data-name="Elipse 12810" cx="32.772" cy="32.772" r="32.772" transform="translate(-10669.504 -2959.734) rotate(-45)" fill="#eaf086"/>
        <g id="Grupo_152388" data-name="Grupo 152388" transform="translate(-10655.935 -3098.635)">
          <g id="Grupo_152387" data-name="Grupo 152387" transform="translate(0)" clip-path="url(#clip-path)">
            <path id="Trazado_204390" data-name="Trazado 204390" d="M323.647,1923.874a32.778,32.778,0,1,1-65.556,0" transform="translate(-258.091 -1891.096)" fill="none" stroke="#fff" stroke-miterlimit="10" stroke-width="1.195"/>
          </g>
        </g>
        <g id="Grupo_152390" data-name="Grupo 152390" transform="translate(-10564.03 -3151.696)">
          <g id="Grupo_152389" data-name="Grupo 152389" clip-path="url(#clip-path)">
            <path id="Trazado_204391" data-name="Trazado 204391" d="M528.138,1805.811a32.778,32.778,0,1,1-65.556,0" transform="translate(-462.582 -1773.033)" fill="none" stroke="#fff" stroke-miterlimit="10" stroke-width="1.195"/>
          </g>
        </g>
        <g id="Grupo_152392" data-name="Grupo 152392" transform="translate(-10472.125 -3098.635)">
          <g id="Grupo_152391" data-name="Grupo 152391" clip-path="url(#clip-path)">
            <path id="Trazado_204392" data-name="Trazado 204392" d="M732.629,1923.874a32.778,32.778,0,1,1-65.556,0" transform="translate(-667.073 -1891.096)" fill="none" stroke="#fff" stroke-miterlimit="10" stroke-width="1.195"/>
          </g>
        </g>
        <g id="Grupo_152394" data-name="Grupo 152394" transform="translate(-10472.125 -2992.512)">
          <g id="Grupo_152393" data-name="Grupo 152393" clip-path="url(#clip-path)">
            <path id="Trazado_204393" data-name="Trazado 204393" d="M732.629,2160a32.778,32.778,0,0,1-65.556,0" transform="translate(-667.073 -2127.222)" fill="none" stroke="#fff" stroke-miterlimit="10" stroke-width="1.195"/>
          </g>
        </g>
        <g id="Grupo_152396" data-name="Grupo 152396" transform="translate(-10564.03 -2939.451)">
          <g id="Grupo_152395" data-name="Grupo 152395" transform="translate(0 0)" clip-path="url(#clip-path)">
            <path id="Trazado_204394" data-name="Trazado 204394" d="M528.138,2278.062a32.778,32.778,0,1,1-65.556,0" transform="translate(-462.582 -2245.284)" fill="none" stroke="#fff" stroke-miterlimit="10" stroke-width="1.195"/>
          </g>
        </g>
        <g id="Grupo_152398" data-name="Grupo 152398" transform="translate(-10655.935 -2992.512)">
          <g id="Grupo_152397" data-name="Grupo 152397" transform="translate(0)" clip-path="url(#clip-path)">
            <path id="Trazado_204395" data-name="Trazado 204395" d="M323.647,2160a32.778,32.778,0,0,1-65.556,0" transform="translate(-258.091 -2127.222)" fill="none" stroke="#fff" stroke-miterlimit="10" stroke-width="1.195"/>
          </g>
        </g>
        <g id="Grupo_152399" data-name="Grupo 152399" transform="translate(-10552.307 -3138.018)">
          <path id="Trazado_204396" data-name="Trazado 204396" d="M541.24,1794.459l-.523-.612a9.4,9.4,0,0,1-2.212-6.98h0a3.625,3.625,0,0,1,1.318-2.87,11.678,11.678,0,0,0-13.2-19.162h0a11.63,11.63,0,0,0-5.218,6.18l-1.023,2.16a2.434,2.434,0,0,0,.1,1.97c.711.968-1.623,3.619-2.542,4.534l-.078.131a1.287,1.287,0,0,0,.6,1.843l.689.293a.937.937,0,0,1,.489,1.245l-.186.417a.836.836,0,0,0,.024.732l.36.683-.421.479a.838.838,0,0,0-.191.72l.178.872-.1.207a2.568,2.568,0,0,0-.177,1.74h0a2.571,2.571,0,0,0,1.968,1.891l.925.173,0,.008h0a5.141,5.141,0,0,1,4.015,3.858,2.363,2.363,0,0,1-.24,1.683l-2.638,4.857h20.4l-.082-1.36A9.393,9.393,0,0,0,541.24,1794.459Z" transform="translate(-504.642 -1763.315)" fill="#fff"/>
          <path id="Trazado_204397" data-name="Trazado 204397" d="M491.491,1794.459l.523-.612a9.4,9.4,0,0,0,2.212-6.98h0a3.625,3.625,0,0,0-1.318-2.87,11.678,11.678,0,0,1,13.2-19.162h0a11.629,11.629,0,0,1,5.218,6.18l1.023,2.16a2.435,2.435,0,0,1-.1,1.97c-.711.968,1.623,3.619,2.542,4.534l.078.131a1.287,1.287,0,0,1-.6,1.843l-.689.293a.937.937,0,0,0-.489,1.245l.186.417a.836.836,0,0,1-.024.732l-.36.683.421.479a.838.838,0,0,1,.191.72l-.178.872.1.207a2.57,2.57,0,0,1,.177,1.74h0a2.57,2.57,0,0,1-1.968,1.891l-.925.173v.008h0a5.14,5.14,0,0,0-4.014,3.858,2.363,2.363,0,0,0,.24,1.683l2.638,4.857h-20.4l.082-1.36A9.393,9.393,0,0,1,491.491,1794.459Z" transform="translate(-488.667 -1763.315)" fill="#75b62f"/>
          <path id="Trazado_204398" data-name="Trazado 204398" d="M492.154,1801.513l.082-1.36a9.4,9.4,0,0,1,2.244-5.693l.523-.612a9.394,9.394,0,0,0,2.212-6.98h0A3.624,3.624,0,0,0,495.9,1784a11.678,11.678,0,0,1,13.2-19.162h0a11.628,11.628,0,0,1,5.217,6.18l1.024,2.16a2.434,2.434,0,0,1-.1,1.97c-.711.968,1.623,3.619,2.542,4.534l.078.131a1.288,1.288,0,0,1-.6,1.843l-.689.293a.937.937,0,0,0-.49,1.245l.187.417a.837.837,0,0,1-.024.732l-.36.683.421.479a.838.838,0,0,1,.191.72l-.178.872.1.207a2.573,2.573,0,0,1,.177,1.74h0a2.572,2.572,0,0,1-1.968,1.891l-.925.173v.008h0a5.14,5.14,0,0,0-4.014,3.858,2.361,2.361,0,0,0,.24,1.683l2.637,4.857" transform="translate(-490.312 -1763.315)" fill="none" stroke="#54504f" stroke-linecap="round" stroke-linejoin="round" stroke-width="2.391"/>
          <path id="Trazado_204399" data-name="Trazado 204399" d="M546.555,1801.513l-.082-1.36a9.393,9.393,0,0,0-2.244-5.693l-.523-.612a9.4,9.4,0,0,1-2.212-6.98h0a3.625,3.625,0,0,1,1.318-2.87,11.678,11.678,0,0,0-13.2-19.162h0a11.63,11.63,0,0,0-5.218,6.18l-1.023,2.16a2.433,2.433,0,0,0,.1,1.97c.71.968-1.623,3.619-2.542,4.534l-.078.131a1.287,1.287,0,0,0,.6,1.843l.689.293a.937.937,0,0,1,.49,1.245l-.187.417a.837.837,0,0,0,.024.732l.36.683-.421.479a.836.836,0,0,0-.191.72l.178.872-.1.207a2.571,2.571,0,0,0-.176,1.74h0a2.57,2.57,0,0,0,1.967,1.891l.926.173,0,.008h0a5.141,5.141,0,0,1,4.015,3.858,2.366,2.366,0,0,1-.24,1.683l-2.638,4.857" transform="translate(-506.288 -1763.315)" fill="none" stroke="#54504f" stroke-linecap="round" stroke-linejoin="round" stroke-width="2.391"/>
        </g>
        <g id="Grupo_152401" data-name="Grupo 152401" transform="translate(-10458.185 -3087.56)">
          <path id="Rectángulo_295976" data-name="Rectángulo 295976" d="M0,0H6.64a0,0,0,0,1,0,0V14.009a3.32,3.32,0,0,1-3.32,3.32h0A3.32,3.32,0,0,1,0,14.009V0A0,0,0,0,1,0,0Z" transform="translate(21.477 26.077)" fill="#fff"/>
          <path id="Trazado_204400" data-name="Trazado 204400" d="M739.132,1875.745a11.535,11.535,0,1,0,11.536,11.536A11.536,11.536,0,0,0,739.132,1875.745Zm0,19.78a8.245,8.245,0,1,1,8.245-8.244A8.244,8.244,0,0,1,739.132,1895.525Z" transform="translate(-714.335 -1875.673)" fill="#29a8df"/>
          <rect id="Rectángulo_295977" data-name="Rectángulo 295977" width="3.058" height="2.934" transform="translate(23.268 23.143)" fill="#fff"/>
          <g id="Grupo_152400" data-name="Grupo 152400" transform="translate(0 0)">
            <path id="Rectángulo_295978" data-name="Rectángulo 295978" d="M3.113,0h.221A3.113,3.113,0,0,1,6.447,3.113V6.089a0,0,0,0,1,0,0H0a0,0,0,0,1,0,0V3.113A3.113,3.113,0,0,1,3.113,0Z" transform="translate(0.806)" fill="#75b62f"/>
            <rect id="Rectángulo_295979" data-name="Rectángulo 295979" width="8.059" height="2.66" transform="translate(0 6.089)" fill="#29a8df"/>
            <rect id="Rectángulo_295980" data-name="Rectángulo 295980" width="8.059" height="25.674" transform="translate(0 8.748)" fill="#fff"/>
            <path id="Trazado_204401" data-name="Trazado 204401" d="M698.09,1952.176v.1l2.423,5.344h3.213l2.423-5.344v-.1Z" transform="translate(-698.09 -1917.754)" fill="#fff"/>
            <path id="Trazado_204402" data-name="Trazado 204402" d="M706.694,1964.279h-3.213l1.607,3.543Z" transform="translate(-701.058 -1924.417)" fill="#29a8df"/>
            <path id="Trazado_204403" data-name="Trazado 204403" d="M709.138,1920.82l-4.029,8.887-4.029-8.887v-25.77h8.059Z" transform="translate(-699.736 -1886.302)" fill="none" stroke="#54504f" stroke-linecap="round" stroke-linejoin="round" stroke-width="2.391"/>
            <path id="Rectángulo_295981" data-name="Rectángulo 295981" d="M3.113,0h.221A3.113,3.113,0,0,1,6.447,3.113V6.089a0,0,0,0,1,0,0H0a0,0,0,0,1,0,0V3.113A3.113,3.113,0,0,1,3.113,0Z" transform="translate(2.149)" fill="none" stroke="#54504f" stroke-linecap="round" stroke-linejoin="round" stroke-width="2.391"/>
            <rect id="Rectángulo_295982" data-name="Rectángulo 295982" width="8.059" height="2.66" transform="translate(1.343 6.089)" fill="none" stroke="#54504f" stroke-linecap="round" stroke-linejoin="round" stroke-width="2.391"/>
            <line id="Línea_1145" data-name="Línea 1145" x2="3.1" transform="translate(3.823 39.987)" fill="none" stroke="#54504f" stroke-linecap="round" stroke-linejoin="round" stroke-width="2.391"/>
            <line id="Línea_1146" data-name="Línea 1146" y2="25.77" transform="translate(6.716 8.748)" fill="none" stroke="#54504f" stroke-linecap="round" stroke-linejoin="round" stroke-width="2.391"/>
            <line id="Línea_1147" data-name="Línea 1147" y2="25.77" transform="translate(4.029 8.748)" fill="none" stroke="#54504f" stroke-linecap="round" stroke-linejoin="round" stroke-width="2.391"/>
            <line id="Línea_1148" data-name="Línea 1148" x1="8.059" transform="translate(1.343 34.518)" fill="none" stroke="#54504f" stroke-linecap="round" stroke-linejoin="round" stroke-width="2.391"/>
          </g>
          <path id="Rectángulo_295983" data-name="Rectángulo 295983" d="M0,0H6.64a0,0,0,0,1,0,0V14.009a3.32,3.32,0,0,1-3.32,3.32h0A3.32,3.32,0,0,1,0,14.009V0A0,0,0,0,1,0,0Z" transform="translate(22.82 26.077)" fill="none" stroke="#54504f" stroke-linecap="round" stroke-linejoin="round" stroke-width="2.391"/>
          <path id="Trazado_204404" data-name="Trazado 204404" d="M742.121,1875.745a11.535,11.535,0,1,0,11.536,11.536A11.535,11.535,0,0,0,742.121,1875.745Zm0,19.78a8.245,8.245,0,1,1,8.244-8.244A8.245,8.245,0,0,1,742.121,1895.525Z" transform="translate(-715.981 -1875.673)" fill="#75b62f" stroke="#54504f" stroke-linecap="round" stroke-linejoin="round" stroke-width="2.391"/>
          <rect id="Rectángulo_295984" data-name="Rectángulo 295984" width="3.058" height="2.934" transform="translate(24.611 23.143)" fill="none" stroke="#54504f" stroke-linecap="round" stroke-linejoin="round" stroke-width="2.391"/>
        </g>
        <g id="Grupo_152406" data-name="Grupo 152406" transform="translate(-10459.393 -2984.408)">
          <path id="Rectángulo_295985" data-name="Rectángulo 295985" d="M0,0H17.307a0,0,0,0,1,0,0V4.247A8.653,8.653,0,0,1,8.653,12.9h0A8.653,8.653,0,0,1,0,4.247V0A0,0,0,0,1,0,0Z" transform="translate(10.025 36.447)" fill="#75b62f"/>
          <path id="Trazado_204405" data-name="Trazado 204405" d="M729.612,2150.57q0-.216-.011-.428a13.989,13.989,0,0,1,2.386-8.736,12.528,12.528,0,1,0-20.626.02,14.112,14.112,0,0,1,2.37,8.75c-.009.191-.012.382-.008.576" transform="translate(-702.966 -2114.283)" fill="#dce736"/>
          <path id="Trazado_204406" data-name="Trazado 204406" d="M732.6,2150.57q0-.216-.012-.428a13.992,13.992,0,0,1,2.386-8.736,12.528,12.528,0,1,0-20.626.02,14.109,14.109,0,0,1,2.37,8.75c-.009.191-.012.382-.008.576" transform="translate(-704.612 -2114.283)" fill="none" stroke="#54504f" stroke-linecap="round" stroke-linejoin="round" stroke-width="2.391"/>
          <path id="Rectángulo_295986" data-name="Rectángulo 295986" d="M0,0H17.307a0,0,0,0,1,0,0V4.247A8.653,8.653,0,0,1,8.653,12.9h0A8.653,8.653,0,0,1,0,4.247V0A0,0,0,0,1,0,0Z" transform="translate(11.368 36.447)" fill="none" stroke="#54504f" stroke-linecap="round" stroke-linejoin="round" stroke-width="2.391"/>
          <path id="Trazado_204407" data-name="Trazado 204407" d="M732.885,2199.1h0a5.768,5.768,0,0,1-5.768-5.768V2186.2h11.536v7.132A5.768,5.768,0,0,1,732.885,2199.1Z" transform="translate(-712.864 -2149.749)" fill="none" stroke="#54504f" stroke-linecap="round" stroke-linejoin="round" stroke-width="2.391"/>
          <path id="Trazado_204408" data-name="Trazado 204408" d="M736.768,2199.1h0a2.6,2.6,0,0,1-2.6-2.6v-10.3h5.2v10.3A2.6,2.6,0,0,1,736.768,2199.1Z" transform="translate(-716.746 -2149.749)" fill="none" stroke="#54504f" stroke-linecap="round" stroke-linejoin="round" stroke-width="2.391"/>
          <g id="Grupo_152402" data-name="Grupo 152402" transform="translate(20.021 0)">
            <line id="Línea_1149" data-name="Línea 1149" y2="4.801" fill="none" stroke="#54504f" stroke-linecap="round" stroke-linejoin="round" stroke-width="2.391"/>
          </g>
          <g id="Grupo_152403" data-name="Grupo 152403" transform="translate(0 20.021)">
            <line id="Línea_1150" data-name="Línea 1150" x1="4.801" transform="translate(35.242)" fill="none" stroke="#54504f" stroke-linecap="round" stroke-linejoin="round" stroke-width="2.391"/>
            <line id="Línea_1151" data-name="Línea 1151" x1="4.801" fill="none" stroke="#54504f" stroke-linecap="round" stroke-linejoin="round" stroke-width="2.391"/>
          </g>
          <g id="Grupo_152404" data-name="Grupo 152404" transform="translate(5.864 5.864)">
            <line id="Línea_1152" data-name="Línea 1152" x1="3.395" y2="3.395" transform="translate(24.92)" fill="none" stroke="#54504f" stroke-linecap="round" stroke-linejoin="round" stroke-width="2.391"/>
            <line id="Línea_1153" data-name="Línea 1153" x1="3.395" y2="3.395" transform="translate(0 24.92)" fill="none" stroke="#54504f" stroke-linecap="round" stroke-linejoin="round" stroke-width="2.391"/>
          </g>
          <g id="Grupo_152405" data-name="Grupo 152405" transform="translate(5.864 5.864)">
            <line id="Línea_1154" data-name="Línea 1154" x1="3.395" y1="3.395" transform="translate(24.92 24.92)" fill="none" stroke="#54504f" stroke-linecap="round" stroke-linejoin="round" stroke-width="2.391"/>
            <line id="Línea_1155" data-name="Línea 1155" x1="3.395" y1="3.395" fill="none" stroke="#54504f" stroke-linecap="round" stroke-linejoin="round" stroke-width="2.391"/>
          </g>
        </g>
        <g id="Grupo_152407" data-name="Grupo 152407" transform="translate(-10554.54 -2927.08)">
          <path id="Trazado_204409" data-name="Trazado 204409" d="M511.374,2278.327v-5.2h-5.289a8.9,8.9,0,0,0-.665-1.6l3.741-3.74-3.68-3.68-3.741,3.741a8.9,8.9,0,0,0-1.6-.665v-5.289h-5.2v5.289a8.881,8.881,0,0,0-1.6.665l-3.741-3.741-3.68,3.68,3.741,3.74a8.864,8.864,0,0,0-.665,1.6H483.7v5.2h5.289a8.871,8.871,0,0,0,.665,1.6l-3.741,3.741,3.68,3.679,3.741-3.74a8.915,8.915,0,0,0,1.6.665v5.289h5.2v-5.289a8.931,8.931,0,0,0,1.6-.665l3.741,3.74,3.68-3.679-3.741-3.741a8.906,8.906,0,0,0,.665-1.6Zm-13.839.393a2.995,2.995,0,1,1,2.995-2.995A2.995,2.995,0,0,1,497.536,2278.72Z" transform="translate(-483.697 -2248.75)" fill="#75b62f"/>
          <path id="Trazado_204410" data-name="Trazado 204410" d="M560.76,2241.536l-4.527,2.613-4.527-2.613v-5.227l4.527-2.613,4.527,2.613Z" transform="translate(-521.141 -2233.229)" fill="#75b62f"/>
          <path id="Trazado_204411" data-name="Trazado 204411" d="M559.8,2240.2a8.792,8.792,0,0,0-4.271-7.544v8.307L551,2243.577l-4.527-2.613v-8.307a8.8,8.8,0,0,0,1.9,15.944l-1.017,20.6a3.645,3.645,0,0,0,3.641,3.825h0a3.645,3.645,0,0,0,3.64-3.825l-1.017-20.6A8.8,8.8,0,0,0,559.8,2240.2Z" transform="translate(-515.909 -2232.656)" fill="#fff"/>
          <path id="Trazado_204412" data-name="Trazado 204412" d="M514.362,2278.327v-5.2h-5.29a8.862,8.862,0,0,0-.664-1.6l3.741-3.74-3.68-3.68-3.741,3.741a8.879,8.879,0,0,0-1.6-.665v-5.289h-5.2v5.289a8.88,8.88,0,0,0-1.6.665l-3.741-3.741-3.68,3.68,3.741,3.74a8.86,8.86,0,0,0-.664,1.6h-5.29v5.2h5.29a8.867,8.867,0,0,0,.664,1.6l-3.741,3.741,3.68,3.679,3.741-3.74a8.915,8.915,0,0,0,1.6.665v5.289h5.2v-5.289a8.913,8.913,0,0,0,1.6-.665l3.741,3.74,3.68-3.679-3.741-3.741a8.869,8.869,0,0,0,.664-1.6Zm-13.839.393a2.995,2.995,0,1,1,2.994-2.995A2.995,2.995,0,0,1,500.524,2278.72Z" transform="translate(-485.342 -2248.75)" fill="none" stroke="#54504f" stroke-linecap="round" stroke-linejoin="round" stroke-width="2.391"/>
          <path id="Trazado_204413" data-name="Trazado 204413" d="M563.749,2241.536l-4.527,2.613-4.527-2.613v-5.227l4.527-2.613,4.527,2.613Z" transform="translate(-522.786 -2233.229)" fill="none" stroke="#54504f" stroke-linecap="round" stroke-linejoin="round" stroke-width="2.391"/>
          <path id="Trazado_204414" data-name="Trazado 204414" d="M562.788,2240.2a8.792,8.792,0,0,0-4.271-7.544v8.307l-4.527,2.613-4.527-2.613v-8.307a8.8,8.8,0,0,0,1.9,15.944l-1.017,20.6a3.645,3.645,0,0,0,3.641,3.825h0a3.645,3.645,0,0,0,3.641-3.825l-1.017-20.6A8.8,8.8,0,0,0,562.788,2240.2Z" transform="translate(-517.555 -2232.656)" fill="none" stroke="#54504f" stroke-linecap="round" stroke-linejoin="round" stroke-width="2.391"/>
        </g>
        <g id="Grupo_152408" data-name="Grupo 152408" transform="translate(-10649.473 -2986.05)">
          <circle id="Elipse_12817" data-name="Elipse 12817" cx="18.157" cy="18.157" r="18.157" transform="translate(6.815 8.159)" fill="#75b62f"/>
          <path id="Trazado_204415" data-name="Trazado 204415" d="M304.2,2151.951l-.462-.438a13.155,13.155,0,0,1-1.181-1.372,12.173,12.173,0,0,1-1.4-2.465,12.5,12.5,0,0,1-.921-3.607,12.68,12.68,0,0,1,2.607-9.008l.207-.265c.071-.087.146-.171.219-.257l.222-.257.236-.248.218-.23.258-.246.263-.246.264-.226a13.138,13.138,0,0,1,2.343-1.59,13.454,13.454,0,0,1,5.624-1.53,13.625,13.625,0,0,1,8.468,2.469,14.261,14.261,0,0,1,2.2,1.9c.087.094.18.191.261.284l.234.276c.159.181.306.372.45.563s.284.384.418.581.261.4.385.6a14.151,14.151,0,0,1,1.2,2.5,14.535,14.535,0,0,1,.876,5.033,14.7,14.7,0,0,1-2.1,7.462,16.053,16.053,0,0,1-1.288,1.816l-.519.595-4.179-4.179.356-.328a10.179,10.179,0,0,0,.911-1.023,9.2,9.2,0,0,0,1.091-1.849,9.51,9.51,0,0,0,.745-2.738,9.715,9.715,0,0,0-.861-5.217c-.071-.148-.139-.3-.222-.443s-.156-.3-.248-.437-.174-.29-.273-.429l-.144-.213c-.048-.069-.093-.125-.14-.19a10.365,10.365,0,0,0-1.457-1.571,10.21,10.21,0,0,0-1.8-1.257,10.5,10.5,0,0,0-4.367-1.249,10.777,10.777,0,0,0-4.6.75,11.1,11.1,0,0,0-6.195,6.356,11.572,11.572,0,0,0-.742,4,11.744,11.744,0,0,0,1.612,5.977,13.029,13.029,0,0,0,1.018,1.467Z" transform="translate(-287.726 -2117.141)" fill="#dce736"/>
          <circle id="Elipse_12818" data-name="Elipse 12818" cx="22.191" cy="22.191" r="22.191" transform="translate(0 9.216) rotate(-11.985)" fill="none" stroke="#54504f" stroke-linecap="round" stroke-linejoin="round" stroke-width="2.391"/>
          <circle id="Elipse_12819" data-name="Elipse 12819" cx="18.157" cy="18.157" r="18.157" transform="translate(8.159 8.159)" fill="none" stroke="#54504f" stroke-linecap="round" stroke-linejoin="round" stroke-width="2.391"/>
          <path id="Trazado_204416" data-name="Trazado 204416" d="M307.192,2151.951l-.461-.438a13.2,13.2,0,0,1-1.182-1.372,12.172,12.172,0,0,1-1.4-2.465,12.473,12.473,0,0,1-.921-3.607,12.68,12.68,0,0,1,2.607-9.008l.207-.265c.071-.087.146-.171.219-.257l.222-.257.236-.248.218-.23.258-.246.262-.246.264-.226a13.12,13.12,0,0,1,2.343-1.59,13.454,13.454,0,0,1,5.624-1.53,13.628,13.628,0,0,1,8.468,2.469,14.237,14.237,0,0,1,2.2,1.9c.087.094.181.191.262.284l.234.276c.159.181.306.372.45.563s.284.384.418.581.261.4.384.6a14.088,14.088,0,0,1,1.2,2.5,14.547,14.547,0,0,1,.877,5.033,14.693,14.693,0,0,1-2.1,7.462,16.009,16.009,0,0,1-1.288,1.816l-.519.595-4.179-4.179.356-.328a10.244,10.244,0,0,0,.911-1.023,9.227,9.227,0,0,0,1.091-1.849,9.51,9.51,0,0,0,.745-2.738,9.76,9.76,0,0,0-.223-3.42,9.659,9.659,0,0,0-.638-1.8c-.07-.148-.139-.3-.222-.443s-.157-.3-.248-.437-.174-.29-.273-.429l-.144-.213c-.048-.069-.093-.125-.14-.19a10.39,10.39,0,0,0-1.457-1.571,10.211,10.211,0,0,0-1.8-1.257,10.5,10.5,0,0,0-4.367-1.249,10.775,10.775,0,0,0-4.6.75,11.1,11.1,0,0,0-6.2,6.356,11.582,11.582,0,0,0-.742,4,11.744,11.744,0,0,0,1.612,5.977,13.029,13.029,0,0,0,1.018,1.467Z" transform="translate(-289.372 -2117.141)" fill="none" stroke="#54504f" stroke-linecap="round" stroke-linejoin="round" stroke-width="2.391"/>
          <path id="Trazado_204417" data-name="Trazado 204417" d="M323.9,2123.344A22.191,22.191,0,1,0,313.3,2152.88,22.191,22.191,0,0,0,323.9,2123.344Zm-20.071,27.622a18.157,18.157,0,1,1,18.157-18.157A18.157,18.157,0,0,1,303.832,2150.966Z" transform="translate(-277.517 -2106.494)" fill="none" stroke="#54504f" stroke-linecap="round" stroke-linejoin="round" stroke-width="2.391"/>
          <path id="Trazado_204418" data-name="Trazado 204418" d="M322.428,2153.336l1.332-3.708,14.78-3.89-12.4,8.929Z" transform="translate(-299.975 -2125.832)" fill="#29a8df"/>
          <path id="Trazado_204419" data-name="Trazado 204419" d="M325.416,2153.336l1.332-3.708,14.78-3.89-12.4,8.929Z" transform="translate(-301.621 -2125.832)" fill="#dce736" stroke="#54504f" stroke-linecap="round" stroke-linejoin="round" stroke-width="2.391"/>
        </g>
        <g id="Grupo_152409" data-name="Grupo 152409" transform="translate(-10640.821 -3095.912)">
          <path id="Trazado_204420" data-name="Trazado 204420" d="M322.05,1961.082a4.183,4.183,0,0,0,.115-.918,6.267,6.267,0,0,0-7.608-6.108,6,6,0,0,1-.462-2.024,6.264,6.264,0,0,1,12.527-.02C326.625,1954.3,323.9,1958.493,322.05,1961.082Z" transform="translate(-304.038 -1905.868)" fill="#29a8df"/>
          <path id="Trazado_204421" data-name="Trazado 204421" d="M319.049,1966.374s-.776-6.972.516-9.017a4.379,4.379,0,0,1,6.04-1.364l.027.018a8.01,8.01,0,0,0,.748-2.911,7.352,7.352,0,0,0-14.7.023C311.682,1957.183,319.049,1966.374,319.049,1966.374Z" transform="translate(-302.707 -1905.868)" fill="#75b62f"/>
          <path id="Trazado_204422" data-name="Trazado 204422" d="M327.485,1955.491a4.4,4.4,0,0,1,1.109.5l.027.018a8.012,8.012,0,0,0,.748-2.911,7.352,7.352,0,0,0-14.7.023c.007,4.061,7.373,13.251,7.373,13.251s-.776-6.972.515-9.017" transform="translate(-304.352 -1905.868)" fill="none" stroke="#54504f" stroke-linecap="round" stroke-linejoin="round" stroke-width="2.391"/>
          <path id="Trazado_204423" data-name="Trazado 204423" d="M325.039,1961.082a4.213,4.213,0,0,0,.115-.918,6.268,6.268,0,0,0-7.609-6.108,6.009,6.009,0,0,1-.462-2.024,6.263,6.263,0,0,1,12.527-.02C329.613,1954.3,326.89,1958.493,325.039,1961.082Z" transform="translate(-305.684 -1905.868)" fill="none" stroke="#54504f" stroke-linecap="round" stroke-linejoin="round" stroke-width="2.391"/>
          <path id="Trazado_204424" data-name="Trazado 204424" d="M326.078,1868.283,317.38,1857l-8.694,11.282,1.343,26.325h14.7Z" transform="translate(-301.061 -1857)" fill="#fff"/>
          <circle id="Elipse_12820" data-name="Elipse 12820" cx="2.384" cy="2.384" r="2.384" transform="translate(13.937 9.603)" fill="#75b62f"/>
          <path id="Trazado_204425" data-name="Trazado 204425" d="M326.643,1943.969H314.283l1.343-3.291H325.3Z" transform="translate(-304.142 -1903.07)" fill="#fff"/>
          <path id="Trazado_204426" data-name="Trazado 204426" d="M344.918,1917.8l8.444,8.068-8.969,2.216Z" transform="translate(-320.72 -1890.472)" fill="#fff"/>
          <path id="Trazado_204427" data-name="Trazado 204427" d="M300.164,1917.8l-8.444,8.068,8.969,2.216Z" transform="translate(-291.72 -1890.472)" fill="#fff"/>
          <rect id="Rectángulo_295987" data-name="Rectángulo 295987" width="2.283" height="10.284" transform="translate(15.179 27.323)" fill="#fff"/>
          <path id="Trazado_204428" data-name="Trazado 204428" d="M329.066,1868.283l-8.7-11.282-8.694,11.282,1.343,26.325h14.7Z" transform="translate(-302.707 -1857)" fill="none" stroke="#54504f" stroke-linecap="round" stroke-linejoin="round" stroke-width="2.391"/>
          <circle id="Elipse_12821" data-name="Elipse 12821" cx="2.384" cy="2.384" r="2.384" transform="translate(15.28 9.603)" fill="none" stroke="#54504f" stroke-linecap="round" stroke-linejoin="round" stroke-width="2.391"/>
          <path id="Trazado_204429" data-name="Trazado 204429" d="M329.632,1943.969H317.271l1.343-3.291h9.675Z" transform="translate(-305.787 -1903.07)" fill="none" stroke="#54504f" stroke-linecap="round" stroke-linejoin="round" stroke-width="2.391"/>
          <path id="Trazado_204430" data-name="Trazado 204430" d="M347.906,1917.8l8.444,8.068-8.969,2.216Z" transform="translate(-322.365 -1890.472)" fill="none" stroke="#54504f" stroke-linecap="round" stroke-linejoin="round" stroke-width="2.391"/>
          <path id="Trazado_204431" data-name="Trazado 204431" d="M303.152,1917.8l-8.444,8.068,8.969,2.216Z" transform="translate(-293.365 -1890.472)" fill="none" stroke="#54504f" stroke-linecap="round" stroke-linejoin="round" stroke-width="2.391"/>
          <rect id="Rectángulo_295988" data-name="Rectángulo 295988" width="2.283" height="10.284" transform="translate(16.523 27.323)" fill="none" stroke="#54504f" stroke-linecap="round" stroke-linejoin="round" stroke-width="2.391"/>
        </g>
        <g id="Grupo_152410" data-name="Grupo 152410" transform="translate(-10664.897 -3141.497)">
          <path id="Trazado_204432" data-name="Trazado 204432" d="M823.707,2034.5a134.635,134.635,0,0,0,0-66.114" transform="translate(-560.538 -1872.74)" fill="#dce736" stroke="#dce736" stroke-linecap="round" stroke-linejoin="round" stroke-width="14.046"/>
          <path id="Trazado_204433" data-name="Trazado 204433" d="M615.909,2297.541a133.279,133.279,0,0,0,48.311-25.109" transform="translate(-446.132 -2040.139)" fill="#dce736" stroke="#dce736" stroke-linecap="round" stroke-linejoin="round" stroke-width="14.046"/>
          <path id="Trazado_204434" data-name="Trazado 204434" d="M354.1,2277.568a133.2,133.2,0,0,0,45.4,22.8" transform="translate(-301.988 -2042.966)" fill="#dce736" stroke="#dce736" stroke-linecap="round" stroke-linejoin="round" stroke-width="14.046"/>
          <path id="Trazado_204435" data-name="Trazado 204435" d="M242.272,1968.384a134.622,134.622,0,0,0,0,66.114" transform="translate(-238.15 -1872.74)" fill="#dce736" stroke="#dce736" stroke-linecap="round" stroke-linejoin="round" stroke-width="14.046"/>
          <path id="Trazado_204436" data-name="Trazado 204436" d="M385.031,1755.573a133.5,133.5,0,0,0-57.212,33.058" transform="translate(-287.519 -1755.573)" fill="#dce736" stroke="#dce736" stroke-linecap="round" stroke-linejoin="round" stroke-width="14.046"/>
          <path id="Trazado_204437" data-name="Trazado 204437" d="M673.121,1788.631a133.5,133.5,0,0,0-57.212-33.058" transform="translate(-446.132 -1755.573)" fill="#dce736" stroke="#dce736" stroke-linecap="round" stroke-linejoin="round" stroke-width="14.046"/>
        </g>
        <path id="Trazado_204438" data-name="Trazado 204438" d="M230.979,1974.316l7.344-5.932,4.342,8.382" transform="translate(-10899.099 -5014.237)" fill="#dce736" stroke="#dce736" stroke-linecap="round" stroke-linejoin="round" stroke-width="14.046"/>
        <path id="Trazado_204439" data-name="Trazado 204439" d="M435.5,1748.064l8.816,3.375-5.072,7.962" transform="translate(-11011.702 -4892.936)" fill="#dce736" stroke="#dce736" stroke-linecap="round" stroke-linejoin="round" stroke-width="14.046"/>
        <path id="Trazado_204440" data-name="Trazado 204440" d="M730.227,1808.367l1.43,9.331-9.429-.467" transform="translate(-11169.564 -4926.137)" fill="#dce736" stroke="#dce736" stroke-linecap="round" stroke-linejoin="round" stroke-width="14.046"/>
        <path id="Trazado_204441" data-name="Trazado 204441" d="M825.761,2099.293l-7.355,5.918-4.326-8.391" transform="translate(-11220.135 -5084.95)" fill="#dce736" stroke="#dce736" stroke-linecap="round" stroke-linejoin="round" stroke-width="14.046"/>
        <path id="Trazado_204442" data-name="Trazado 204442" d="M624.748,2321.829l-8.837-3.322,5.023-7.993" transform="translate(-11111.03 -5202.602)" fill="#dce736" stroke="#dce736" stroke-linecap="round" stroke-linejoin="round" stroke-width="14.046"/>
        <path id="Trazado_204443" data-name="Trazado 204443" d="M356.393,2286.2l-2.306-9.154,9.431-.427" transform="translate(-10966.879 -5183.94)" fill="#dce736" stroke="#dce736" stroke-linecap="round" stroke-linejoin="round" stroke-width="14.046"/>
        <g id="Grupo_152425" data-name="Grupo 152425" transform="translate(-10649.906 -3080.562)">
          <g id="Grupo_152412" data-name="Grupo 152412" transform="translate(71.09 53.559)">
            <g id="Grupo_152411" data-name="Grupo 152411">
              <path id="Trazado_204444" data-name="Trazado 204444" d="M459.223,2023.2l-.094-1.805,1.373-.376v-7.164a1.806,1.806,0,0,0-.075-.649.719.719,0,0,0-.4-.291l-.978-.546.113-1.56q1.955-.151,3.29-.235t2.144-.085a11.882,11.882,0,0,1,4.165.6,4.256,4.256,0,0,1,2.294,1.9,7.057,7.057,0,0,1,.724,3.441,7.174,7.174,0,0,1-1.241,4.382,5.669,5.669,0,0,1-2.943,2,16.294,16.294,0,0,1-4.635.555Q460.934,2023.372,459.223,2023.2Zm8.612-2.9a7.987,7.987,0,0,0,.311-1.467,13.352,13.352,0,0,0,.141-1.862,4.731,4.731,0,0,0-.875-3.14,3.322,3.322,0,0,0-2.661-1.015q-.245,0-.452.019l-.395.038v7.709a11.52,11.52,0,0,0,1.429.094A6.767,6.767,0,0,0,467.835,2020.307Z" transform="translate(-445.854 -2010.416)" fill="#75b62f"/>
              <path id="Trazado_204445" data-name="Trazado 204445" d="M489.089,2021.582l1.373-.376V2014a1.8,1.8,0,0,0-.076-.649.715.715,0,0,0-.395-.292l-.94-.545.056-1.693h10.211q.131,1.975.132,3.855l-1.392.094-1.335-1.655-2.839-.076v3.065l4-.338v2.9l-4-.432v3.027l3.121-.057,1.448-1.654,1.391.094q-.075,1.974-.282,3.855h-10.38Z" transform="translate(-462.37 -2010.601)" fill="#75b62f"/>
              <path id="Trazado_204446" data-name="Trazado 204446" d="M515.242,2022.81q.094-1.861.3-3.459l1.448-.282.94,1.6a6.151,6.151,0,0,0,1.993.394,9.77,9.77,0,0,0,1.279-.169c.025-.251.038-.42.038-.508a1.282,1.282,0,0,0-.151-.686,1.94,1.94,0,0,0-.658-.527q-.508-.292-1.824-.874a6.592,6.592,0,0,1-2.332-1.7,3.383,3.383,0,0,1-.715-2.153,3.716,3.716,0,0,1,1.316-3.027,5.491,5.491,0,0,1,3.61-1.091,11.453,11.453,0,0,1,2.209.216,8.771,8.771,0,0,1,1.928.593q-.038,1.054-.169,2.614l-.056.809-1.372.207-1.429-1.824a5.883,5.883,0,0,0-1.693-.207,3.05,3.05,0,0,0-.959.113,2.594,2.594,0,0,0-.094.583,1.275,1.275,0,0,0,.206.724,2.406,2.406,0,0,0,.734.639,16.063,16.063,0,0,0,1.56.818,16.091,16.091,0,0,1,2.276,1.26,3.386,3.386,0,0,1,1.081,1.137,3.065,3.065,0,0,1,.311,1.439,3.424,3.424,0,0,1-1.486,2.933,6.892,6.892,0,0,1-4.1,1.072A14.509,14.509,0,0,1,515.242,2022.81Z" transform="translate(-476.789 -2010.324)" fill="#75b62f"/>
              <path id="Trazado_204447" data-name="Trazado 204447" d="M539.208,2021.582l1.373-.376V2014a1.813,1.813,0,0,0-.075-.649.718.718,0,0,0-.4-.292l-.978-.564.094-1.674h6.036l.075,1.918-1.354.376v7.333a1.594,1.594,0,0,0,.066.583.719.719,0,0,0,.348.263l.959.583-.057,1.617h-6Z" transform="translate(-489.942 -2010.601)" fill="#75b62f"/>
              <path id="Trazado_204448" data-name="Trazado 204448" d="M556.63,2021.8a6.93,6.93,0,0,1-1.6-4.965,7.324,7.324,0,0,1,.771-3.469,5.223,5.223,0,0,1,2.238-2.228,7.378,7.378,0,0,1,3.478-.771,12.112,12.112,0,0,1,4.758.978q-.188,1.8-.527,3.61l-1.429.094-1.185-1.73a6.948,6.948,0,0,0-2.332-.338,11.429,11.429,0,0,0-1.58.132,4.747,4.747,0,0,0-.526,1.5,10.351,10.351,0,0,0-.188,2.031,5.042,5.042,0,0,0,.865,3.225,3.31,3.31,0,0,0,2.689,1.081,11.011,11.011,0,0,0,1.147-.075V2019.5a1.331,1.331,0,0,0-.056-.489.813.813,0,0,0-.32-.263l-.715-.357.076-1.279.432-.075q.207-.038,1.467-.235a19.761,19.761,0,0,1,2.106-.235,3.1,3.1,0,0,1,.282.809v4.927a10.973,10.973,0,0,1-2.426.856,11.7,11.7,0,0,1-2.652.31A6.306,6.306,0,0,1,556.63,2021.8Z" transform="translate(-498.696 -2010.347)" fill="#75b62f"/>
              <path id="Trazado_204449" data-name="Trazado 204449" d="M586.559,2015.49l.32,4.927a1.466,1.466,0,0,0,.094.564.9.9,0,0,0,.338.282l.977.658-.075,1.58h-4.889l-.094-2.05,1.015-.245.076-7.408a1.411,1.411,0,0,0-.057-.489.9.9,0,0,0-.263-.3l-.7-.527.132-1.655h3.893l5.679,7.277-.263-4.193a1.546,1.546,0,0,0-.094-.583.911.911,0,0,0-.338-.282l-.978-.639.057-1.58h4.851l.076,1.918-.959.414-.076,10.173-2.162.715Z" transform="translate(-514.221 -2010.601)" fill="#75b62f"/>
              <path id="Trazado_204450" data-name="Trazado 204450" d="M432.391,2071.864l1.636-.451v-8.142l-1.579.132-1.391,1.673-1.373-.113q0-1.561.151-3.93H441.6q.15,2.369.151,3.93l-1.354.113-1.41-1.673-1.542-.132v7.39a1.839,1.839,0,0,0,.057.583.643.643,0,0,0,.32.263l1.166.7-.075,1.5h-6.431Z" transform="translate(-429.683 -2038.243)" fill="#75b62f"/>
              <path id="Trazado_204451" data-name="Trazado 204451" d="M458.841,2071.733l1.185-.32v-7.2a2.032,2.032,0,0,0-.066-.649.655.655,0,0,0-.367-.291l-.79-.451.057-1.787h5.866l.094,1.918-1.391.376v2.746l4.287-.113v-1.749a1.794,1.794,0,0,0-.076-.649.715.715,0,0,0-.395-.291l-.921-.527.094-1.711h5.773l.075,1.975-1.147.319v7.334a1.592,1.592,0,0,0,.066.583.713.713,0,0,0,.329.263l.771.451-.075,1.749h-5.717l-.094-1.937,1.316-.357v-2.8l-4.287-.188v2.238a1.593,1.593,0,0,0,.066.583.716.716,0,0,0,.348.263l1,.583-.075,1.616h-5.829Z" transform="translate(-445.716 -2038.243)" fill="#75b62f"/>
              <path id="Trazado_204452" data-name="Trazado 204452" d="M491.011,2071.789l1.373-.376v-7.2a1.793,1.793,0,0,0-.076-.649.715.715,0,0,0-.395-.291l-.978-.564.093-1.674h6.036l.075,1.918-1.354.376v7.334a1.593,1.593,0,0,0,.066.583.719.719,0,0,0,.348.263l.959.583-.056,1.616h-6Z" transform="translate(-463.407 -2038.243)" fill="#75b62f"/>
              <path id="Trazado_204453" data-name="Trazado 204453" d="M510.5,2065.7l.32,4.927a1.477,1.477,0,0,0,.094.564.9.9,0,0,0,.338.282l.978.658-.075,1.579h-4.889l-.094-2.05,1.015-.244.075-7.409a1.4,1.4,0,0,0-.057-.489.892.892,0,0,0-.263-.3l-.7-.526.131-1.655h3.893l5.679,7.277-.263-4.193a1.549,1.549,0,0,0-.094-.583.909.909,0,0,0-.338-.282l-.978-.64.057-1.579h4.851l.075,1.918-.959.414-.075,10.173-2.162.715Z" transform="translate(-472.344 -2038.243)" fill="#75b62f"/>
              <path id="Trazado_204454" data-name="Trazado 204454" d="M538.376,2071.733l1.184-.32v-7.2a2.052,2.052,0,0,0-.066-.649.656.656,0,0,0-.367-.291l-.79-.451.056-1.787h5.867l.094,1.918-1.391.376v3.535l3.29-3.554a.278.278,0,0,0,.075-.207.274.274,0,0,0-.056-.169l-.546-.658.207-1.241H550.3l.226,1.279-4.306,4.607,4.607,5.942v.846h-3.591l-4.268-5.66v2.614a1.608,1.608,0,0,0,.065.564.746.746,0,0,0,.348.3l1,.565-.075,1.616H538.47Z" transform="translate(-489.505 -2038.243)" fill="#75b62f"/>
              <path id="Trazado_204455" data-name="Trazado 204455" d="M567.951,2071.789l1.372-.376v-7.2a1.809,1.809,0,0,0-.075-.649.719.719,0,0,0-.4-.291l-.977-.564.094-1.674h6.036l.075,1.918-1.354.376v7.334a1.589,1.589,0,0,0,.066.583.714.714,0,0,0,.348.263l.959.583-.057,1.616h-6Z" transform="translate(-505.767 -2038.243)" fill="#75b62f"/>
              <path id="Trazado_204456" data-name="Trazado 204456" d="M587.436,2065.7l.32,4.927a1.466,1.466,0,0,0,.094.564.892.892,0,0,0,.338.282l.978.658-.075,1.579H584.2l-.094-2.05,1.016-.244L585.2,2064a1.424,1.424,0,0,0-.056-.489.9.9,0,0,0-.263-.3l-.7-.526.132-1.655h3.893l5.679,7.277-.263-4.193a1.55,1.55,0,0,0-.094-.583.908.908,0,0,0-.338-.282l-.978-.64.057-1.579h4.851l.076,1.918-.959.414-.076,10.173-2.162.715Z" transform="translate(-514.704 -2038.243)" fill="#75b62f"/>
              <path id="Trazado_204457" data-name="Trazado 204457" d="M616.877,2072.006a6.929,6.929,0,0,1-1.6-4.965,7.321,7.321,0,0,1,.771-3.469,5.226,5.226,0,0,1,2.238-2.229,7.381,7.381,0,0,1,3.478-.771,12.112,12.112,0,0,1,4.758.978q-.188,1.8-.527,3.61l-1.429.094-1.185-1.73a6.949,6.949,0,0,0-2.332-.338,11.508,11.508,0,0,0-1.58.132,4.769,4.769,0,0,0-.527,1.5,10.357,10.357,0,0,0-.187,2.031,5.04,5.04,0,0,0,.865,3.225,3.31,3.31,0,0,0,2.689,1.081,11.081,11.081,0,0,0,1.147-.075v-1.373a1.332,1.332,0,0,0-.056-.489.811.811,0,0,0-.32-.263l-.715-.357.076-1.279.432-.075q.207-.037,1.467-.235a19.7,19.7,0,0,1,2.106-.235,3.094,3.094,0,0,1,.282.809v4.926a10.925,10.925,0,0,1-2.426.856,11.7,11.7,0,0,1-2.652.311A6.306,6.306,0,0,1,616.877,2072.006Z" transform="translate(-531.866 -2037.989)" fill="#75b62f"/>
            </g>
          </g>
          <g id="Grupo_152414" data-name="Grupo 152414" transform="translate(93.537)">
            <g id="Grupo_152413" data-name="Grupo 152413">
              <path id="Trazado_204458" data-name="Trazado 204458" d="M479.645,1896.459l.638-.174v-3.344a.837.837,0,0,0-.035-.3.336.336,0,0,0-.183-.135l-.436-.253.026-.786h4.741q.061.917.061,1.79l-.646.043-.62-.768-1.318-.035v1.423l1.859-.157v1.344l-1.859-.2v1.406l1.449-.026.672-.769.646.043q-.035.917-.131,1.79h-4.819Z" transform="translate(-479.628 -1891.325)" fill="#54504f"/>
              <path id="Trazado_204459" data-name="Trazado 204459" d="M493.373,1893.49l-.192,2.584v.035a.213.213,0,0,0,.122.218l.542.227-.088.794h-2.173l-.088-.777.4-.244.5-3.37a1.075,1.075,0,0,0,.009-.149.224.224,0,0,0-.049-.157.855.855,0,0,0-.179-.131l-.4-.227.053-.829h2.505l1.249,4.068,1.24-4.068h2.34l.035.917-.559.139.471,3.422a.932.932,0,0,0,.074.271,2.094,2.094,0,0,0,.223.315l.183.236-.052.585h-2.6l-.079-.8.716-.183-.3-2.924-1.118,3.946-1.493.131Z" transform="translate(-486.162 -1891.325)" fill="#54504f"/>
              <path id="Trazado_204460" data-name="Trazado 204460" d="M510.218,1896.331l.637-.175v-3.326a.834.834,0,0,0-.035-.3.331.331,0,0,0-.183-.135l-.454-.253.053-.707q.663-.1,1.257-.153t1.275-.048a4.7,4.7,0,0,1,1.515.2,1.547,1.547,0,0,1,.838.629,2.127,2.127,0,0,1,.267,1.135,1.738,1.738,0,0,1-.659,1.44,2.819,2.819,0,0,1-1.8.524l-.48-.017v.664a.749.749,0,0,0,.03.271.335.335,0,0,0,.153.122l.533.314-.035.707h-2.864Zm3.475-2.235a4.1,4.1,0,0,0,.1-.9,1.089,1.089,0,0,0-.2-.733.813.813,0,0,0-.633-.218c-.1,0-.271.012-.515.035v1.859a2.586,2.586,0,0,0,.559.053A1.822,1.822,0,0,0,513.693,1894.1Z" transform="translate(-496.451 -1891.197)" fill="#54504f"/>
              <path id="Trazado_204461" data-name="Trazado 204461" d="M520.479,1896.4l.271-.165,2.043-4.951,1.484-.131,1.746,4.714q.087.227.122.3a1.217,1.217,0,0,0,.131.192l.157.2-.053.62h-2.453l-.087-.829.62-.157-.28-.882-1.772.026-.192.55a.43.43,0,0,0-.026.131.154.154,0,0,0,.022.092.143.143,0,0,0,.074.048l.6.253-.087.768h-2.288Zm2.855-3.754-.576,1.676,1.126.053Z" transform="translate(-502.119 -1891.154)" fill="#54504f"/>
              <path id="Trazado_204462" data-name="Trazado 204462" d="M533.663,1896.494l.76-.209V1892.5l-.733.061-.646.777-.637-.052q0-.725.07-1.825h5.466q.069,1.1.07,1.825l-.629.052-.655-.777-.716-.061v3.431a.849.849,0,0,0,.027.271.3.3,0,0,0,.148.122l.541.323-.035.7h-2.986Z" transform="translate(-508.686 -1891.325)" fill="#54504f"/>
              <path id="Trazado_204463" data-name="Trazado 204463" d="M545.944,1896.433l.55-.148v-3.344a.957.957,0,0,0-.031-.3.3.3,0,0,0-.17-.135l-.367-.209.026-.829h2.724l.044.89-.646.175v1.275l1.991-.053v-.812a.85.85,0,0,0-.035-.3.336.336,0,0,0-.183-.135l-.428-.244.044-.795h2.68l.035.917-.533.148v3.4a.744.744,0,0,0,.031.271.335.335,0,0,0,.153.122l.358.209-.035.812H549.5l-.044-.9.611-.166v-1.3l-1.991-.087v1.039a.745.745,0,0,0,.031.271.336.336,0,0,0,.162.122l.462.271-.035.751h-2.707Z" transform="translate(-516.13 -1891.325)" fill="#54504f"/>
              <path id="Trazado_204464" data-name="Trazado 204464" d="M560.879,1896.459l.637-.174v-3.344a.835.835,0,0,0-.035-.3.336.336,0,0,0-.183-.135l-.454-.261.044-.777h2.8l.035.89-.628.175v3.4a.735.735,0,0,0,.031.271.334.334,0,0,0,.161.122l.445.271-.026.751h-2.785Z" transform="translate(-524.343 -1891.325)" fill="#54504f"/>
              <path id="Trazado_204465" data-name="Trazado 204465" d="M568.187,1896.267l2.733-3.641-1.231.088-.69.75-.689-.131.235-1.868h4.383l.087,1-2.811,3.728,1.685-.1.611-.777.733.166q-.148,1.292-.235,1.877h-4.749Z" transform="translate(-528.386 -1891.325)" fill="#54504f"/>
              <path id="Trazado_204466" data-name="Trazado 204466" d="M580.287,1896.459l.637-.174v-3.344a.85.85,0,0,0-.035-.3.336.336,0,0,0-.184-.135l-.436-.253.027-.786h4.741q.061.917.061,1.79l-.646.043-.62-.768-1.318-.035v1.423l1.859-.157v1.344l-1.859-.2v1.406l1.449-.026.672-.769.646.043q-.034.917-.131,1.79H580.33Z" transform="translate(-535.038 -1891.325)" fill="#54504f"/>
            </g>
          </g>
          <g id="Grupo_152416" data-name="Grupo 152416" transform="translate(194.631 52.897)">
            <g id="Grupo_152415" data-name="Grupo 152415">
              <path id="Trazado_204467" data-name="Trazado 204467" d="M704.643,2014.754l-.044-.838.638-.175v-3.326a.831.831,0,0,0-.035-.3.333.333,0,0,0-.183-.135l-.454-.253.052-.725q.908-.07,1.528-.109t1-.039a5.513,5.513,0,0,1,1.934.279,1.975,1.975,0,0,1,1.065.882,3.276,3.276,0,0,1,.336,1.6,3.333,3.333,0,0,1-.576,2.034,2.632,2.632,0,0,1-1.366.929,7.563,7.563,0,0,1-2.152.258Q705.437,2014.832,704.643,2014.754Zm4-1.345a3.764,3.764,0,0,0,.144-.681,6.187,6.187,0,0,0,.065-.864,2.195,2.195,0,0,0-.406-1.458,1.54,1.54,0,0,0-1.235-.471c-.076,0-.146,0-.21.009l-.183.018v3.58a5.422,5.422,0,0,0,.664.044A3.154,3.154,0,0,0,708.641,2013.409Z" transform="translate(-704.564 -2008.852)" fill="#54504f"/>
              <path id="Trazado_204468" data-name="Trazado 204468" d="M718.509,2014l.637-.175v-3.344a.846.846,0,0,0-.035-.3.335.335,0,0,0-.184-.135l-.436-.253.027-.786h4.741q.061.917.061,1.79l-.646.043-.62-.768-1.318-.035v1.423l1.859-.157v1.344l-1.859-.2v1.406l1.449-.027.672-.768.646.043q-.035.917-.131,1.79h-4.819Z" transform="translate(-712.232 -2008.937)" fill="#54504f"/>
              <path id="Trazado_204469" data-name="Trazado 204469" d="M730.611,2014l.637-.175v-3.344a.833.833,0,0,0-.035-.3.335.335,0,0,0-.183-.135l-.436-.253.026-.786h4.741q.061.917.061,1.79l-.646.043-.62-.768-1.318-.035v1.554l1.86-.166v1.345l-1.86-.2v.908a.73.73,0,0,0,.031.271.33.33,0,0,0,.161.122l.524.314-.026.707h-2.872Z" transform="translate(-718.895 -2008.937)" fill="#54504f"/>
              <path id="Trazado_204470" data-name="Trazado 204470" d="M742.5,2014l.638-.175v-3.344a.842.842,0,0,0-.035-.3.335.335,0,0,0-.183-.135l-.454-.262.044-.777h2.8l.035.891-.629.175v3.4a.73.73,0,0,0,.031.271.33.33,0,0,0,.161.122l.445.271-.027.75h-2.785Z" transform="translate(-725.429 -2008.937)" fill="#54504f"/>
              <path id="Trazado_204471" data-name="Trazado 204471" d="M751.544,2011.172l.148,2.287a.676.676,0,0,0,.044.262.417.417,0,0,0,.157.131l.454.305-.035.733h-2.27l-.044-.951.471-.114.035-3.439a.64.64,0,0,0-.027-.227.407.407,0,0,0-.122-.14l-.323-.245.061-.769H751.9l2.637,3.379-.122-1.947a.721.721,0,0,0-.044-.271.426.426,0,0,0-.157-.131l-.454-.3.026-.734h2.253l.035.891-.445.192-.035,4.723-1,.332Z" transform="translate(-729.579 -2008.937)" fill="#54504f"/>
              <path id="Trazado_204472" data-name="Trazado 204472" d="M764.488,2014l.637-.175v-3.344a.833.833,0,0,0-.035-.3.335.335,0,0,0-.183-.135l-.436-.253.026-.786h4.741q.061.917.061,1.79l-.646.043-.62-.768-1.318-.035v1.423l1.86-.157v1.344l-1.86-.2v1.406l1.449-.027.672-.768.646.043q-.035.917-.131,1.79h-4.819Z" transform="translate(-737.546 -2008.937)" fill="#54504f"/>
            </g>
          </g>
          <g id="Grupo_152418" data-name="Grupo 152418" transform="translate(194.827 158.866)">
            <g id="Grupo_152417" data-name="Grupo 152417">
              <path id="Trazado_204473" data-name="Trazado 204473" d="M705.036,2249.939l.637-.175v-3.344a.847.847,0,0,0-.035-.3.334.334,0,0,0-.183-.135l-.454-.262.044-.777h2.8l.035.891-.629.174v3.405a.744.744,0,0,0,.031.271.33.33,0,0,0,.161.122l.445.271-.026.751h-2.785Z" transform="translate(-705.001 -2244.805)" fill="#54504f"/>
              <path id="Trazado_204474" data-name="Trazado 204474" d="M712.713,2250.692l-.044-.838.637-.175v-3.326a.834.834,0,0,0-.035-.3.332.332,0,0,0-.183-.135l-.454-.253.053-.725q.907-.069,1.528-.109t1-.039a5.506,5.506,0,0,1,1.934.28,1.971,1.971,0,0,1,1.065.881,3.272,3.272,0,0,1,.336,1.6,3.33,3.33,0,0,1-.576,2.034,2.63,2.63,0,0,1-1.366.93,7.569,7.569,0,0,1-2.152.257Q713.507,2250.77,712.713,2250.692Zm4-1.344a3.725,3.725,0,0,0,.144-.681,6.126,6.126,0,0,0,.066-.864,2.2,2.2,0,0,0-.406-1.458,1.542,1.542,0,0,0-1.235-.471c-.076,0-.146,0-.209.009l-.183.018v3.579a5.323,5.323,0,0,0,.663.044A3.15,3.15,0,0,0,716.711,2249.347Z" transform="translate(-709.203 -2244.72)" fill="#54504f"/>
              <path id="Trazado_204475" data-name="Trazado 204475" d="M726.58,2249.939l.637-.175v-3.344a.834.834,0,0,0-.035-.3.331.331,0,0,0-.183-.135l-.437-.253.026-.786h4.74q.061.917.061,1.79l-.646.043-.62-.769-1.318-.035v1.423l1.859-.157v1.344l-1.859-.2v1.405l1.449-.026.672-.768.646.043q-.034.917-.131,1.79h-4.819Z" transform="translate(-716.872 -2244.805)" fill="#54504f"/>
              <path id="Trazado_204476" data-name="Trazado 204476" d="M738.489,2249.881l.271-.166,2.043-4.95,1.484-.131,1.746,4.715c.059.152.1.25.122.3a1.248,1.248,0,0,0,.131.192l.157.2-.052.62h-2.453l-.087-.829.62-.157-.28-.882-1.772.026-.192.55a.429.429,0,0,0-.026.131.159.159,0,0,0,.021.092.143.143,0,0,0,.074.048l.6.253-.088.769h-2.287Zm2.855-3.754-.576,1.676,1.126.052Z" transform="translate(-723.438 -2244.634)" fill="#54504f"/>
              <path id="Trazado_204477" data-name="Trazado 204477" d="M751.673,2249.974l.76-.209v-3.78l-.733.061-.646.777-.637-.053q0-.724.07-1.825h5.465q.069,1.1.07,1.825l-.628.053-.655-.777-.716-.061v3.431a.851.851,0,0,0,.026.271.3.3,0,0,0,.148.122l.542.323-.035.7h-2.986Z" transform="translate(-730.005 -2244.805)" fill="#54504f"/>
              <path id="Trazado_204478" data-name="Trazado 204478" d="M763.954,2249.939l.637-.175v-3.344a.832.832,0,0,0-.035-.3.333.333,0,0,0-.183-.135l-.436-.253.026-.786H768.7q.061.917.061,1.79l-.646.043-.62-.769-1.318-.035v1.423l1.86-.157v1.344l-1.86-.2v1.405l1.449-.026.672-.768.646.043q-.035.917-.131,1.79H764Z" transform="translate(-737.449 -2244.805)" fill="#54504f"/>
            </g>
          </g>
          <g id="Grupo_152420" data-name="Grupo 152420" transform="translate(92.429 213.351)">
            <g id="Grupo_152419" data-name="Grupo 152419">
              <path id="Trazado_204479" data-name="Trazado 204479" d="M477.2,2370.984l.637-.175v-3.326a.841.841,0,0,0-.035-.3.333.333,0,0,0-.183-.135l-.454-.253.052-.707q.664-.1,1.257-.153t1.275-.048a4.678,4.678,0,0,1,1.515.2,1.546,1.546,0,0,1,.838.629,2.126,2.126,0,0,1,.266,1.135,1.739,1.739,0,0,1-.659,1.44,2.822,2.822,0,0,1-1.8.524l-.48-.018v.663a.733.733,0,0,0,.031.271.326.326,0,0,0,.153.122l.533.315-.035.707H477.24Zm3.475-2.235a4.106,4.106,0,0,0,.1-.9,1.09,1.09,0,0,0-.2-.734.815.815,0,0,0-.633-.218q-.148,0-.515.035v1.86a2.589,2.589,0,0,0,.559.053A1.818,1.818,0,0,0,480.671,2368.749Z" transform="translate(-477.161 -2365.876)" fill="#54504f"/>
              <path id="Trazado_204480" data-name="Trazado 204480" d="M489.569,2370.984l.637-.175v-3.326a.831.831,0,0,0-.035-.3.33.33,0,0,0-.183-.135l-.454-.253.053-.716a17.414,17.414,0,0,1,2.523-.192,5.037,5.037,0,0,1,1.519.188,1.546,1.546,0,0,1,.842.585,1.86,1.86,0,0,1,.266,1.052,1.627,1.627,0,0,1-.28.948,1.773,1.773,0,0,1-.794.624l1.4,2.252-.009.341h-1.589l-1.292-2.331-.384-.009v.978a.7.7,0,0,0,.031.266.4.4,0,0,0,.153.127l.375.218-.035.751h-2.7Zm3.457-2.515a2.819,2.819,0,0,0,.088-.75.844.844,0,0,0-.188-.62.873.873,0,0,0-.624-.183,4.808,4.808,0,0,0-.5.026v1.563a2.421,2.421,0,0,0,.541.052A1.949,1.949,0,0,0,493.026,2368.469Z" transform="translate(-483.973 -2365.876)" fill="#54504f"/>
              <path id="Trazado_204481" data-name="Trazado 204481" d="M503.183,2371.252a3.083,3.083,0,0,1-.711-2.226,3.7,3.7,0,0,1,.358-1.681,2.569,2.569,0,0,1,1.022-1.1,3.1,3.1,0,0,1,1.58-.384q2.916,0,2.916,2.977a3.691,3.691,0,0,1-.358,1.685,2.5,2.5,0,0,1-1.034,1.083,3.273,3.273,0,0,1-1.611.375A2.884,2.884,0,0,1,503.183,2371.252Zm3.3-.724a3.359,3.359,0,0,0,.148-.676,6.227,6.227,0,0,0,.053-.8,2.478,2.478,0,0,0-.362-1.466,1.231,1.231,0,0,0-1.061-.5,2.584,2.584,0,0,0-.96.183,1.607,1.607,0,0,0-.148.546,6.4,6.4,0,0,0-.052.868,2.76,2.76,0,0,0,.367,1.554,1.2,1.2,0,0,0,1.065.541A1.925,1.925,0,0,0,506.479,2370.528Z" transform="translate(-491.096 -2365.866)" fill="#54504f"/>
              <path id="Trazado_204482" data-name="Trazado 204482" d="M517.715,2371.147l.76-.209v-3.78l-.733.061-.646.777-.637-.052q0-.724.07-1.824h5.466q.069,1.1.07,1.824l-.629.052-.655-.777-.715-.061v3.431a.852.852,0,0,0,.026.271.3.3,0,0,0,.148.122l.541.323-.035.7h-2.986Z" transform="translate(-498.797 -2366.005)" fill="#54504f"/>
              <path id="Trazado_204483" data-name="Trazado 204483" d="M530.457,2371.252a3.083,3.083,0,0,1-.711-2.226,3.7,3.7,0,0,1,.358-1.681,2.569,2.569,0,0,1,1.022-1.1,3.1,3.1,0,0,1,1.58-.384q2.916,0,2.916,2.977a3.691,3.691,0,0,1-.358,1.685,2.5,2.5,0,0,1-1.034,1.083,3.272,3.272,0,0,1-1.611.375A2.884,2.884,0,0,1,530.457,2371.252Zm3.3-.724a3.359,3.359,0,0,0,.148-.676,6.227,6.227,0,0,0,.053-.8,2.482,2.482,0,0,0-.362-1.466,1.231,1.231,0,0,0-1.061-.5,2.584,2.584,0,0,0-.96.183,1.606,1.606,0,0,0-.148.546,6.408,6.408,0,0,0-.052.868,2.76,2.76,0,0,0,.367,1.554,1.2,1.2,0,0,0,1.065.541A1.925,1.925,0,0,0,533.752,2370.528Z" transform="translate(-506.112 -2365.866)" fill="#54504f"/>
              <path id="Trazado_204484" data-name="Trazado 204484" d="M544.988,2371.147l.76-.209v-3.78l-.734.061-.646.777-.637-.052q0-.724.07-1.824h5.465q.07,1.1.07,1.824l-.629.052-.655-.777-.716-.061v3.431a.851.851,0,0,0,.026.271.294.294,0,0,0,.148.122l.541.323-.035.7h-2.986Z" transform="translate(-513.812 -2366.005)" fill="#54504f"/>
              <path id="Trazado_204485" data-name="Trazado 204485" d="M558.344,2371.147l.751-.209v-1.152l-1.6-2.558-.4-.5.035-.611h2.558l.088.829-.568.157.917,1.554.76-1.283a.248.248,0,0,0,.035-.122.145.145,0,0,0-.1-.139l-.506-.227.061-.768h2.2l.061.821-.349.21-1.607,2.357v1.083a.744.744,0,0,0,.031.271.33.33,0,0,0,.153.122l.542.323-.035.7h-2.977Z" transform="translate(-521.17 -2366.005)" fill="#54504f"/>
              <path id="Trazado_204486" data-name="Trazado 204486" d="M570.514,2370.984l.637-.175v-3.326a.842.842,0,0,0-.035-.3.333.333,0,0,0-.183-.135l-.454-.253.052-.707q.664-.1,1.257-.153t1.275-.048a4.679,4.679,0,0,1,1.515.2,1.547,1.547,0,0,1,.838.629,2.126,2.126,0,0,1,.266,1.135,1.739,1.739,0,0,1-.659,1.44,2.822,2.822,0,0,1-1.8.524l-.48-.018v.663a.734.734,0,0,0,.031.271.327.327,0,0,0,.153.122l.533.315-.035.707h-2.863Zm3.474-2.235a4.106,4.106,0,0,0,.1-.9,1.09,1.09,0,0,0-.2-.734.816.816,0,0,0-.633-.218q-.148,0-.515.035v1.86a2.589,2.589,0,0,0,.559.053A1.817,1.817,0,0,0,573.989,2368.749Z" transform="translate(-528.539 -2365.876)" fill="#54504f"/>
              <path id="Trazado_204487" data-name="Trazado 204487" d="M582.909,2371.113l.637-.175v-3.344a.845.845,0,0,0-.035-.3.333.333,0,0,0-.183-.135l-.437-.253.027-.785h4.741q.061.916.061,1.79l-.646.044-.62-.769-1.318-.034v1.423l1.859-.157v1.345l-1.859-.2v1.406l1.449-.027.672-.768.646.043q-.034.917-.131,1.79h-4.819Z" transform="translate(-535.372 -2366.005)" fill="#54504f"/>
            </g>
          </g>
          <g id="Grupo_152422" data-name="Grupo 152422" transform="translate(15.802 158.901)">
            <g id="Grupo_152421" data-name="Grupo 152421">
              <path id="Trazado_204488" data-name="Trazado 204488" d="M307.921,2249.975l.76-.209v-3.78l-.733.061-.646.777-.637-.053q0-.724.07-1.824H312.2q.07,1.1.07,1.824l-.629.053-.655-.777-.716-.061v3.431a.847.847,0,0,0,.027.271.294.294,0,0,0,.148.122l.541.323-.035.7h-2.986Z" transform="translate(-306.664 -2244.841)" fill="#54504f"/>
              <path id="Trazado_204489" data-name="Trazado 204489" d="M320.2,2249.94l.637-.175v-3.344a.847.847,0,0,0-.035-.3.333.333,0,0,0-.183-.135l-.437-.253.027-.786h4.741q.061.916.061,1.79l-.646.043-.62-.769-1.318-.034v1.423l1.859-.157v1.344l-1.859-.2v1.405l1.449-.026.672-.768.646.043q-.034.917-.131,1.79h-4.819Z" transform="translate(-314.107 -2244.841)" fill="#54504f"/>
              <path id="Trazado_204490" data-name="Trazado 204490" d="M332.344,2250.51q.043-.865.139-1.606l.672-.131.436.742a2.856,2.856,0,0,0,.925.183,4.509,4.509,0,0,0,.594-.078c.012-.116.018-.195.018-.236a.6.6,0,0,0-.07-.319.913.913,0,0,0-.306-.244q-.236-.135-.847-.406a3.057,3.057,0,0,1-1.083-.791,1.571,1.571,0,0,1-.332-1,1.726,1.726,0,0,1,.611-1.406,2.55,2.55,0,0,1,1.676-.507,5.333,5.333,0,0,1,1.026.1,4.055,4.055,0,0,1,.895.275q-.018.489-.079,1.213l-.027.375-.637.1-.664-.847a2.742,2.742,0,0,0-.786-.1,1.432,1.432,0,0,0-.445.052,1.2,1.2,0,0,0-.044.271.589.589,0,0,0,.1.336,1.114,1.114,0,0,0,.34.3,7.46,7.46,0,0,0,.725.38,7.478,7.478,0,0,1,1.056.585,1.579,1.579,0,0,1,.5.528,1.423,1.423,0,0,1,.144.668,1.59,1.59,0,0,1-.69,1.362,3.2,3.2,0,0,1-1.9.5A6.735,6.735,0,0,1,332.344,2250.51Z" transform="translate(-320.803 -2244.712)" fill="#54504f"/>
              <path id="Trazado_204491" data-name="Trazado 204491" d="M344.576,2249.975l.76-.209v-3.78l-.733.061-.646.777-.637-.053q0-.724.07-1.824h5.465q.07,1.1.07,1.824l-.629.053-.655-.777-.716-.061v3.431a.849.849,0,0,0,.026.271.294.294,0,0,0,.148.122l.541.323-.035.7H344.62Z" transform="translate(-326.845 -2244.841)" fill="#54504f"/>
            </g>
          </g>
          <g id="Grupo_152424" data-name="Grupo 152424" transform="translate(0 52.863)">
            <g id="Grupo_152423" data-name="Grupo 152423">
              <path id="Trazado_204492" data-name="Trazado 204492" d="M271.54,2014l.637-.175v-3.344a.847.847,0,0,0-.035-.3.335.335,0,0,0-.183-.135l-.454-.262.044-.777h2.8l.035.891-.629.174v3.405a.743.743,0,0,0,.031.271.335.335,0,0,0,.162.122l.445.271-.026.75h-2.785Z" transform="translate(-271.505 -2008.903)" fill="#54504f"/>
              <path id="Trazado_204493" data-name="Trazado 204493" d="M280.627,2011.033l-.192,2.584v.035a.212.212,0,0,0,.122.218l.541.227-.087.794h-2.174l-.087-.777.4-.244.5-3.37a1.07,1.07,0,0,0,.009-.148.227.227,0,0,0-.048-.157.849.849,0,0,0-.179-.131l-.4-.227.052-.83h2.506l1.249,4.069,1.24-4.069h2.34l.035.917-.559.14.471,3.422a.937.937,0,0,0,.074.271,2.1,2.1,0,0,0,.222.314l.183.236-.052.584h-2.6l-.079-.8.716-.183-.3-2.925-1.117,3.947-1.493.131Z" transform="translate(-275.494 -2008.903)" fill="#54504f"/>
              <path id="Trazado_204494" data-name="Trazado 204494" d="M297.472,2013.873l.637-.175v-3.326a.829.829,0,0,0-.035-.3.333.333,0,0,0-.183-.135l-.454-.253.053-.708q.663-.1,1.257-.153t1.275-.048a4.685,4.685,0,0,1,1.515.2,1.546,1.546,0,0,1,.838.629,2.125,2.125,0,0,1,.267,1.135,1.739,1.739,0,0,1-.659,1.44,2.823,2.823,0,0,1-1.8.524l-.48-.017v.663a.743.743,0,0,0,.031.271.328.328,0,0,0,.153.122l.533.315-.035.707h-2.863Zm3.475-2.235a4.106,4.106,0,0,0,.1-.9,1.091,1.091,0,0,0-.2-.733.815.815,0,0,0-.633-.218q-.149,0-.516.035v1.86a2.608,2.608,0,0,0,.559.052A1.825,1.825,0,0,0,300.947,2011.639Z" transform="translate(-285.782 -2008.775)" fill="#54504f"/>
              <path id="Trazado_204495" data-name="Trazado 204495" d="M309.867,2013.975l.55-.148v-3.344a.952.952,0,0,0-.031-.3.305.305,0,0,0-.17-.135l-.367-.209.026-.83H312.6l.044.891-.646.174v3.772l1.1-.026.742-.847.672.035q-.018.733-.122,1.885h-4.479Z" transform="translate(-292.617 -2008.903)" fill="#54504f"/>
              <path id="Trazado_204496" data-name="Trazado 204496" d="M321.212,2014l.637-.175v-3.344a.833.833,0,0,0-.035-.3.335.335,0,0,0-.183-.135l-.436-.253.026-.786h4.741q.061.917.061,1.79l-.646.043-.62-.769-1.318-.035v1.423l1.86-.157v1.344l-1.86-.2v1.406l1.449-.027.672-.768.646.043q-.035.917-.131,1.79h-4.819Z" transform="translate(-298.862 -2008.903)" fill="#54504f"/>
              <path id="Trazado_204497" data-name="Trazado 204497" d="M334.939,2011.033l-.192,2.584v.035a.212.212,0,0,0,.122.218l.542.227-.088.794H333.15l-.088-.777.4-.244.5-3.37a1.063,1.063,0,0,0,.009-.148.227.227,0,0,0-.048-.157.872.872,0,0,0-.179-.131l-.4-.227.053-.83H335.9l1.248,4.069,1.24-4.069h2.34l.035.917-.559.14.471,3.422a.938.938,0,0,0,.074.271,2.119,2.119,0,0,0,.223.314l.183.236-.053.584h-2.6l-.078-.8.716-.183-.3-2.925-1.118,3.947-1.493.131Z" transform="translate(-305.396 -2008.903)" fill="#54504f"/>
              <path id="Trazado_204498" data-name="Trazado 204498" d="M351.806,2014l.637-.175v-3.344a.847.847,0,0,0-.035-.3.335.335,0,0,0-.183-.135l-.437-.253.026-.786h4.741q.061.917.061,1.79l-.646.043-.62-.769-1.318-.035v1.423l1.859-.157v1.344l-1.859-.2v1.406l1.449-.027.672-.768.646.043q-.034.917-.131,1.79h-4.819Z" transform="translate(-315.706 -2008.903)" fill="#54504f"/>
              <path id="Trazado_204499" data-name="Trazado 204499" d="M365.494,2011.172l.148,2.287a.681.681,0,0,0,.044.262.42.42,0,0,0,.157.131l.454.305-.035.733h-2.27l-.044-.951.471-.114.035-3.439a.657.657,0,0,0-.026-.227.412.412,0,0,0-.122-.14l-.323-.245.061-.769h1.807l2.637,3.379-.123-1.947a.715.715,0,0,0-.044-.271.419.419,0,0,0-.157-.131l-.454-.3.026-.734h2.253l.035.891-.445.192-.035,4.723-1,.332Z" transform="translate(-322.401 -2008.903)" fill="#54504f"/>
              <path id="Trazado_204500" data-name="Trazado 204500" d="M379.735,2014.036l.76-.209v-3.78l-.733.061-.646.777-.637-.053q0-.725.07-1.825h5.465q.069,1.1.07,1.825l-.628.053-.655-.777-.716-.061v3.431a.853.853,0,0,0,.026.271.3.3,0,0,0,.148.122l.542.323-.035.7h-2.986Z" transform="translate(-330.401 -2008.903)" fill="#54504f"/>
            </g>
          </g>
        </g>
      </g>
    </g>
  </g>
</svg>
