<svg xmlns="http://www.w3.org/2000/svg" width="166" height="166" viewBox="0 0 166 166">
  <g id="Grupo_158140" data-name="Grupo 158140" transform="translate(384 3960.674)">
    <g id="Grupo_158044" data-name="Grupo 158044" transform="translate(-344 -592.006)">
      <g id="Grupo_158005" data-name="Grupo 158005" transform="translate(-935 -6633)">
        <circle id="Elipse_12772" data-name="Elipse 12772" cx="83" cy="83" r="83" transform="translate(895 3264.332)" fill="#fff"/>
        <g id="Grupo_157255" data-name="Grupo 157255" transform="translate(922 2939.332)">
          <g id="Grupo_157253" data-name="Grupo 157253" transform="translate(9.532 361.533)">
            <g id="Grupo_157244" data-name="Grupo 157244" transform="translate(45.968 0)">
              <path id="Trazado_210421" data-name="Trazado 210421" d="M80,362.323h45.967v9.193H80Z" transform="translate(-80 -362.323)" fill="#dce736"/>
            </g>
            <g id="Grupo_157245" data-name="Grupo 157245" transform="translate(39.287 62.271)">
              <path id="Trazado_210422" data-name="Trazado 210422" d="M79.067,456.712l20.471,20.471a9.207,9.207,0,0,1-9.194,9.193L69.874,465.906a26.159,26.159,0,0,0,9.193-9.194Z" transform="translate(-69.874 -456.712)" fill="#3d46c2"/>
            </g>
            <g id="Grupo_157246" data-name="Grupo 157246" transform="translate(0 22.984)">
              <circle id="Elipse_12994" data-name="Elipse 12994" cx="26.048" cy="26.048" r="26.048" fill="#e6e9ed"/>
            </g>
            <g id="Grupo_157247" data-name="Grupo 157247" transform="translate(6.129 29.113)">
              <circle id="Elipse_12995" data-name="Elipse 12995" cx="19.919" cy="19.919" r="19.919" fill="#69d6f4"/>
            </g>
            <g id="Grupo_157248" data-name="Grupo 157248" transform="translate(7.661 0)">
              <path id="Trazado_210423" data-name="Trazado 210423" d="M43.939,363.855a6.127,6.127,0,1,1,4.045,10.726H37.258a3.074,3.074,0,0,0-3.064,3.064v3.065a3.086,3.086,0,0,0-3.064,3.064v.261a3.076,3.076,0,0,0,.9,2.176l1.257,1.256a3.076,3.076,0,0,1,.9,2.176v7.922l-4.275-3.2-1.44-1.088a15.424,15.424,0,0,1-3.2-3.187,15.046,15.046,0,0,1-1.609-2.574,16.338,16.338,0,0,1,14.617-23.658Z" transform="translate(-21.935 -362.323)" fill="#b27946"/>
            </g>
            <g id="Grupo_157249" data-name="Grupo 157249" transform="translate(12.258 35.242)">
              <path id="Trazado_210424" data-name="Trazado 210424" d="M38.1,448.915A19.9,19.9,0,0,1,28.9,443.9V427.065a12.219,12.219,0,0,1,7.661-11.323l6.129,6.129,3.065-3.064A12.219,12.219,0,0,1,53.42,430.13v16.18A19.906,19.906,0,0,1,38.1,448.915Z" transform="translate(-28.903 -415.742)" fill="#eaf086"/>
            </g>
            <g id="Grupo_157250" data-name="Grupo 157250" transform="translate(16.855 12.258)">
              <path id="Trazado_210425" data-name="Trazado 210425" d="M45.064,410.016l-6.129-6.129v-7.922a3.076,3.076,0,0,0-.9-2.176l-1.257-1.256a3.076,3.076,0,0,1-.9-2.176V390.1a3.086,3.086,0,0,1,3.064-3.064v-3.065A3.074,3.074,0,0,1,42,380.9H52.726a25.585,25.585,0,0,1,4.6,13.79l-4.6,1.533v.9a5.215,5.215,0,0,1-4.6,5.18v4.642Z" transform="translate(-35.871 -380.903)" fill="#f0d0b4"/>
            </g>
            <g id="Grupo_157251" data-name="Grupo 157251" transform="translate(70.484 58.226)">
              <path id="Trazado_210426" data-name="Trazado 210426" d="M117.161,450.581h18.387v18.387H117.161Z" transform="translate(-117.161 -450.581)" fill="#75b62f"/>
            </g>
            <g id="Grupo_157252" data-name="Grupo 157252" transform="translate(70.484 33.709)">
              <path id="Trazado_210427" data-name="Trazado 210427" d="M117.161,413.419h18.387v18.387H117.161Z" transform="translate(-117.161 -413.419)" fill="#75b62f"/>
            </g>
          </g>
          <g id="Grupo_157254" data-name="Grupo 157254" transform="translate(8 360)">
            <circle id="Elipse_12996" data-name="Elipse 12996" cx="1.532" cy="1.532" r="1.532" transform="translate(30.645 18.387)"/>
            <path id="Trazado_210428" data-name="Trazado 210428" d="M63.161,410.564a27.542,27.542,0,0,0-13.822-23.891,26.694,26.694,0,0,0-3.594-11.806,7.638,7.638,0,1,0-7.052-13.335H33.538A17.844,17.844,0,0,0,18.45,388.955a27.569,27.569,0,0,0,30.1,45.937L68.656,455h.634a10.739,10.739,0,0,0,10.726-10.726v-.635L59.908,423.532a27.389,27.389,0,0,0,3.253-12.967Zm-33.71-2.118v19.432a18.365,18.365,0,0,1-6.131-3.65l0-16.139a10.579,10.579,0,0,1,5.816-9.462l6.442,6.442,3.377-3.377a10.58,10.58,0,0,1,5.817,9.462v15.309a17.942,17.942,0,0,1-12.258,2.211V406.553L28.6,404.6l-1.372,2.741Zm-4.3-12.983,1.445,1.083a13.627,13.627,0,0,0-6.337,11.542l0,12.614a18.309,18.309,0,0,1,4.894-25.24Zm15.026,3.38v-2.454a6.715,6.715,0,0,0,2.616-1.6,6.837,6.837,0,0,0,.691-.833,18.353,18.353,0,0,1,4.355,30.269V411.154a13.646,13.646,0,0,0-7.661-12.31Zm1.533-10.837v2a3.7,3.7,0,0,1-3.7,3.7H34.048v3.064h3.064v2.43l-1.533,1.532-4.6-4.6v-7.289a4.575,4.575,0,0,0-1.347-3.252l-1.269-1.269a1.525,1.525,0,0,1-.449-1.085v-.262a1.534,1.534,0,0,1,1.532-1.533h1.533v-4.6a1.534,1.534,0,0,1,1.532-1.532h9.918a24.348,24.348,0,0,1,3.84,11.165ZM33.538,364.6H36.23a7.585,7.585,0,0,0-.65,3.064h3.065a4.6,4.6,0,1,1,4.6,4.6H32.516a4.6,4.6,0,0,0-4.6,4.6v1.794a4.606,4.606,0,0,0-3.065,4.335v.262A4.574,4.574,0,0,0,26.2,386.5l1.269,1.269a1.527,1.527,0,0,1,.449,1.085v4.86l-3.27-2.452A14.813,14.813,0,0,1,33.538,364.6ZM11.064,410.564a24.574,24.574,0,0,1,9.247-19.177,17.525,17.525,0,0,0,2.267,2.124,21.448,21.448,0,1,0,22.078-2.38,6.678,6.678,0,0,0,.113-.913l2.905-.968a24.513,24.513,0,1,1-36.612,21.315Zm65.863,34.319a7.674,7.674,0,0,1-7.027,7.027L51.234,433.245a27.8,27.8,0,0,0,7.027-7.027Z" transform="translate(-8 -360)"/>
            <path id="Trazado_210429" data-name="Trazado 210429" d="M114.839,469.71h21.452V448.258H114.839Zm3.064-18.387h15.323v15.323H117.9Z" transform="translate(-44.355 -390.032)"/>
            <path id="Trazado_210430" data-name="Trazado 210430" d="M126.635,462.484l-1.981-1.981-2.167,2.167,4.148,4.148,8.745-8.745-2.167-2.167Z" transform="translate(-46.957 -392.635)"/>
            <path id="Trazado_210431" data-name="Trazado 210431" d="M114.839,432.549h21.452V411.1H114.839Zm3.064-18.387h15.323v15.323H117.9Z" transform="translate(-44.355 -377.387)"/>
            <path id="Trazado_210432" data-name="Trazado 210432" d="M126.635,425.323l-1.981-1.981-2.167,2.167,4.148,4.148,8.745-8.745-2.167-2.167Z" transform="translate(-46.957 -379.99)"/>
            <path id="Trazado_210433" data-name="Trazado 210433" d="M77.677,360v12.258H126.71V360Zm21.452,3.064h6.129v6.129H99.129Zm-3.065,6.129H89.935v-6.129h6.129Zm12.258-6.129h6.129v6.129h-6.129Zm-27.58,0h6.129v6.129H80.742Zm42.9,6.129h-6.129v-6.129h6.129Z" transform="translate(-31.71 -360)"/>
            <path id="Trazado_210434" data-name="Trazado 210434" d="M91.613,383.226h27.58v3.064H91.613Z" transform="translate(-36.452 -367.903)"/>
            <path id="Trazado_210435" data-name="Trazado 210435" d="M91.613,392.516h27.58v3.064H91.613Z" transform="translate(-36.452 -371.064)"/>
            <path id="Trazado_210436" data-name="Trazado 210436" d="M91.613,401.806h3.064v3.065H91.613Z" transform="translate(-36.452 -374.226)"/>
            <path id="Trazado_210437" data-name="Trazado 210437" d="M128.774,401.806h3.064v3.065h-3.064Z" transform="translate(-49.097 -374.226)"/>
            <path id="Trazado_210438" data-name="Trazado 210438" d="M119.484,401.806h3.064v3.065h-3.064Z" transform="translate(-45.936 -374.226)"/>
            <path id="Trazado_210439" data-name="Trazado 210439" d="M110.194,401.806h3.064v3.065h-3.064Z" transform="translate(-42.774 -374.226)"/>
            <path id="Trazado_210440" data-name="Trazado 210440" d="M100.9,401.806h3.064v3.065H100.9Z" transform="translate(-39.613 -374.226)"/>
          </g>
        </g>
      </g>
    </g>
  </g>
</svg>
