<svg xmlns="http://www.w3.org/2000/svg" width="150" height="150" viewBox="0 0 150 150">
  <g id="Grupo_158152" data-name="Grupo 158152" transform="translate(344 361.256)">
    <g id="Grupo_158053" data-name="Grupo 158053" transform="translate(-344 -592.006)">
      <g id="Grupo_157967" data-name="Grupo 157967" transform="translate(-935 -2007.194)">
        <g id="Elipse_12654" data-name="Elipse 12654" transform="translate(935 2237.944)" fill="#fff" stroke="#77b43a" stroke-width="4">
          <circle cx="75" cy="75" r="75" stroke="none"/>
          <circle cx="75" cy="75" r="73" fill="none"/>
        </g>
        <g id="Grupo_157285" data-name="Grupo 157285" transform="translate(957 1877.055)">
          <g id="Grupo_157283" data-name="Grupo 157283" transform="translate(9.455 392.326)">
            <g id="Grupo_157270" data-name="Grupo 157270" transform="translate(40.725 31.998)">
              <path id="Trazado_210495" data-name="Trazado 210495" d="M60.917,441.838v-9h5.818v9.527a8.663,8.663,0,0,0-3.636-.8,8.455,8.455,0,0,0-2.182.291Z" transform="translate(-60.917 -432.835)" fill="#aab2bd"/>
            </g>
            <g id="Grupo_157271" data-name="Grupo 157271" transform="translate(34.907 23.272)">
              <path id="Trazado_210496" data-name="Trazado 210496" d="M71.072,421.887v7.273a1.459,1.459,0,0,1-1.455,1.454H55.073a1.459,1.459,0,0,1-1.455-1.454v-7.273Z" transform="translate(-53.618 -421.887)" fill="#ccd1d9"/>
            </g>
            <g id="Grupo_157272" data-name="Grupo 157272" transform="translate(34.907 5.818)">
              <path id="Trazado_210497" data-name="Trazado 210497" d="M71.072,414.534v2.909H53.618V405.561a12.323,12.323,0,0,1,1.324-5.571H69.749a12.332,12.332,0,0,1,1.323,5.571Z" transform="translate(-53.618 -399.99)" fill="#e6e9ed"/>
            </g>
            <g id="Grupo_157273" data-name="Grupo 157273" transform="translate(36.245)">
              <path id="Trazado_210498" data-name="Trazado 210498" d="M69.8,397.971a3.8,3.8,0,0,1,.276.538H55.3a12.28,12.28,0,0,1,4.684-5.076,5.3,5.3,0,0,1,5.411,0,12.325,12.325,0,0,1,4.407,4.538Z" transform="translate(-55.297 -392.691)" fill="#75b62f"/>
            </g>
            <g id="Grupo_157274" data-name="Grupo 157274" transform="translate(50.906 20.362)">
              <path id="Trazado_210499" data-name="Trazado 210499" d="M83.872,426.906a2.979,2.979,0,0,1-2.968,2.967H73.69a1.459,1.459,0,0,0,1.455-1.454V418.237l7.65,6.385a2.956,2.956,0,0,1,1.077,2.284Z" transform="translate(-73.69 -418.237)" fill="#75b62f"/>
            </g>
            <g id="Grupo_157275" data-name="Grupo 157275" transform="translate(26.18 20.362)">
              <path id="Trazado_210500" data-name="Trazado 210500" d="M51.4,421.146v7.273a1.459,1.459,0,0,0,1.455,1.454H45.637a2.965,2.965,0,0,1-1.891-5.25l7.65-6.385Z" transform="translate(-42.67 -418.237)" fill="#75b62f"/>
            </g>
            <g id="Grupo_157276" data-name="Grupo 157276" transform="translate(40.725 11.636)">
              <circle id="Elipse_13001" data-name="Elipse 13001" cx="2.909" cy="2.909" r="2.909" fill="#f85316"/>
            </g>
            <g id="Grupo_157277" data-name="Grupo 157277" transform="translate(17.454 40.726)">
              <path id="Trazado_210501" data-name="Trazado 210501" d="M57.9,455.42H31.722l.043-.175a7.452,7.452,0,0,1,7.229-5.643l1.164-2.328a6.3,6.3,0,0,1,10.749-.873h.014l.044-.043a8.67,8.67,0,0,1,4.028-2.284,8.455,8.455,0,0,1,2.182-.291,8.9,8.9,0,0,1,6.211,2.575l.335.334h1.7a9.942,9.942,0,0,1,7.025,2.909,9.449,9.449,0,0,1,8.421,5.207l.305.611Z" transform="translate(-31.722 -443.784)" fill="#ccd1d9"/>
            </g>
            <g id="Grupo_157278" data-name="Grupo 157278" transform="translate(5.818 52.361)">
              <path id="Trazado_210502" data-name="Trazado 210502" d="M66.576,470.018a11.636,11.636,0,1,0-23.272,0H17.124V490.38a2.917,2.917,0,0,0,2.909,2.909H89.847a2.908,2.908,0,0,0,2.909-2.909V470.018Z" transform="translate(-17.124 -458.382)" fill="#d3a06c"/>
            </g>
            <g id="Grupo_157279" data-name="Grupo 157279" transform="translate(43.634 52.361)">
              <path id="Trazado_210503" data-name="Trazado 210503" d="M108.2,468.563v1.455h-32a11.621,11.621,0,0,0-11.636-11.636H98.02A10.174,10.174,0,0,1,108.2,468.563Z" transform="translate(-64.567 -458.382)" fill="#b27946"/>
            </g>
            <g id="Grupo_157280" data-name="Grupo 157280" transform="translate(0 52.361)">
              <path id="Trazado_210504" data-name="Trazado 210504" d="M27.279,458.382h26.18a11.621,11.621,0,0,0-11.636,11.636h-32v-1.455a10.173,10.173,0,0,1,10.181-10.181Z" transform="translate(-9.825 -458.382)" fill="#b27946"/>
            </g>
            <g id="Grupo_157281" data-name="Grupo 157281" transform="translate(11.636 72.724)">
              <path id="Trazado_210505" data-name="Trazado 210505" d="M33.15,485.383V491.2a1.459,1.459,0,0,1-1.455,1.454H25.877a1.458,1.458,0,0,1-1.454-1.454v-5.818a1.458,1.458,0,0,1,1.454-1.455h5.818A1.459,1.459,0,0,1,33.15,485.383Z" transform="translate(-24.423 -483.928)" fill="#e6e9ed"/>
            </g>
            <g id="Grupo_157282" data-name="Grupo 157282" transform="translate(58.179 77.087)">
              <path id="Trazado_210506" data-name="Trazado 210506" d="M106.086,489.4v7.273a2.908,2.908,0,0,1-2.909,2.909H82.814v-8.727a1.456,1.456,0,0,1,1.455-1.455Z" transform="translate(-82.814 -489.402)" fill="#dce736"/>
            </g>
          </g>
          <g id="Grupo_157284" data-name="Grupo 157284" transform="translate(8 390.89)">
            <path id="Trazado_210507" data-name="Trazado 210507" d="M98.177,454.868a11.649,11.649,0,0,0-11.635-11.636h-9.3a10.793,10.793,0,0,0-9.012-5.8,11.3,11.3,0,0,0-7.62-2.925h-1.1a10.183,10.183,0,0,0-2.056-1.545v-7.183H67.571a4.426,4.426,0,0,0,2.833-7.827l-7.134-5.944v-8.292a13.934,13.934,0,0,0-6.731-11.889,6.822,6.822,0,0,0-6.9,0,13.935,13.935,0,0,0-6.731,11.889v8.292l-7.135,5.944a4.426,4.426,0,0,0,2.834,7.827H48.726v6.491a10.119,10.119,0,0,0-2.489,1.376,7.755,7.755,0,0,0-12.19,2.24l-.788,1.575a8.875,8.875,0,0,0-7.407,5.772H19.636A11.649,11.649,0,0,0,8,454.868v2.909h5.818v18.909a4.369,4.369,0,0,0,4.363,4.363H88a4.369,4.369,0,0,0,4.364-4.363V457.777h5.817ZM46.628,399.6h12.92a10.883,10.883,0,0,1,.813,4.118v10.427H45.816V403.716a10.927,10.927,0,0,1,.811-4.118Zm21.915,20.588a1.518,1.518,0,0,1-.972,2.684h-4.3v-7.077ZM51.135,394.321a3.8,3.8,0,0,1,3.907,0,10.887,10.887,0,0,1,2.732,2.367H48.4a10.922,10.922,0,0,1,2.733-2.367ZM38.607,422.87a1.518,1.518,0,0,1-.972-2.684l5.273-4.393v7.077Zm7.21-5.818H60.361v5.818H45.816Zm5.818,8.727h2.909v6.058a10.274,10.274,0,0,0-2.182-.24c-.244,0-.485.019-.727.035ZM34.18,440.323h.9l1.568-3.136a4.853,4.853,0,0,1,8.377-.522l1.037,1.555,2.42-1.613-.441-.662a7.27,7.27,0,0,1,9.5.705l.764.764h2.305a8.423,8.423,0,0,1,6,2.483l.426.426h.6a7.9,7.9,0,0,1,6.132,2.909H29.055A5.976,5.976,0,0,1,34.18,440.323Zm-14.544,5.818H44.869a13.091,13.091,0,0,0-4.79,8.727H10.909A8.736,8.736,0,0,1,19.636,446.141Zm-2.909,30.544V457.777H42.908v-1.454a10.189,10.189,0,0,1,8.727-10.066V478.14H18.181A1.457,1.457,0,0,1,16.727,476.685Zm66.906-5.818v7.273H80.724v-7.273Zm-5.818,7.273H74.906v-7.273h2.909Zm-5.818,0H69.088v-7.273H72Zm16,0H86.542v-7.273H89.45v5.818A1.456,1.456,0,0,1,88,478.14Zm1.455-10.182H69.088a2.912,2.912,0,0,0-2.909,2.909v7.273H54.543V446.257a10.189,10.189,0,0,1,8.727,10.066v1.454H89.45ZM66.1,454.868a13.1,13.1,0,0,0-4.791-8.727H86.542a8.736,8.736,0,0,1,8.727,8.727Z" transform="translate(-8 -390.89)"/>
            <path id="Trazado_210508" data-name="Trazado 210508" d="M31.325,482.1H25.507a2.912,2.912,0,0,0-2.909,2.909v5.818a2.912,2.912,0,0,0,2.909,2.909h5.818a2.912,2.912,0,0,0,2.909-2.909v-5.818A2.912,2.912,0,0,0,31.325,482.1Zm-5.818,8.727v-5.818h5.818l0,5.818Z" transform="translate(-10.962 -409.398)"/>
            <path id="Trazado_210509" data-name="Trazado 210509" d="M40.845,483.928h5.818v2.909H40.845Z" transform="translate(-14.665 -409.768)"/>
            <path id="Trazado_210510" data-name="Trazado 210510" d="M40.845,491.227h5.818v2.909H40.845Z" transform="translate(-14.665 -411.249)"/>
            <path id="Trazado_210511" data-name="Trazado 210511" d="M63.456,414.191a4.364,4.364,0,1,0-4.363-4.363A4.369,4.369,0,0,0,63.456,414.191Zm0-5.818A1.454,1.454,0,1,1,62,409.828,1.456,1.456,0,0,1,63.456,408.373Z" transform="translate(-18.367 -393.847)"/>
            <path id="Trazado_210512" data-name="Trazado 210512" d="M13.9,405.369v33.67h2.909v-33.67l3.227,4.035,2.272-1.818-6.954-8.692L8.4,407.585l2.272,1.818Z" transform="translate(-8.081 -392.514)" fill="#75b62f"/>
            <path id="Trazado_210513" data-name="Trazado 210513" d="M23.465,429.785l1.745-2.327v16H28.12v-16l1.745,2.327,2.327-1.745-5.527-7.37-5.527,7.37Z" transform="translate(-10.666 -396.933)" fill="#dce736"/>
            <path id="Trazado_210514" data-name="Trazado 210514" d="M108.785,405.369v33.67h2.909v-33.67l3.227,4.035,2.272-1.818-6.954-8.692-6.954,8.692,2.272,1.818Z" transform="translate(-27.335 -392.514)" fill="#75b62f"/>
            <path id="Trazado_210515" data-name="Trazado 210515" d="M98.2,427.458v16h2.909v-16l1.746,2.327,2.327-1.745-5.527-7.37-5.527,7.37,2.327,1.745Z" transform="translate(-25.476 -396.933)" fill="#dce736"/>
          </g>
        </g>
      </g>
    </g>
  </g>
</svg>
