<svg xmlns="http://www.w3.org/2000/svg" width="99.456" height="90.209" viewBox="0 0 99.456 90.209">
  <g id="Grupo_158107" data-name="Grupo 158107" transform="translate(10484.456 4835.138)">
    <g id="Grupo_151688" data-name="Grupo 151688" transform="translate(-10484.456 -5119.857)">
      <path id="Trazado_203811" data-name="Trazado 203811" d="M98.86,300.774H81.771v4.181a1.649,1.649,0,0,1-1.647,1.641H32.684a7.683,7.683,0,0,1-3.093-.787l-7.645-4.164c-.436-.238-.631-.559-.589-.872H4.26a.974.974,0,0,0-.971.971v79.7a.974.974,0,0,0,.971.971h94.6a.974.974,0,0,0,.971-.971v-79.7A.974.974,0,0,0,98.86,300.774Z" transform="translate(-1.832 -8.944)" fill="#dce736"/>
      <path id="Trazado_203812" data-name="Trazado 203812" d="M109.432,428.7a11.017,11.017,0,1,1-11.015-11.131A11.074,11.074,0,0,1,109.432,428.7Z" transform="translate(-48.69 -74.013)" fill="#ffc502"/>
      <path id="Trazado_203813" data-name="Trazado 203813" d="M46.914,428.7A11.017,11.017,0,1,1,35.9,417.572,11.074,11.074,0,0,1,46.914,428.7Z" transform="translate(-13.861 -74.013)" fill="#89c947"/>
      <path id="Trazado_203814" data-name="Trazado 203814" d="M171.962,428.7a11.017,11.017,0,1,1-11.017-11.131A11.075,11.075,0,0,1,171.962,428.7Z" transform="translate(-83.526 -74.013)" fill="#ef5050"/>
      <g id="Grupo_151687" data-name="Grupo 151687" transform="translate(11.02 305.553)">
        <path id="Trazado_203815" data-name="Trazado 203815" d="M36.147,342.483a.584.584,0,0,1-.583.583h-10.1a.584.584,0,0,1-.583-.583V332.342a.584.584,0,0,1,.583-.583h10.1a.585.585,0,0,1,.583.583Z" transform="translate(-24.881 -331.759)" fill="#75b62f"/>
        <path id="Trazado_203816" data-name="Trazado 203816" d="M36.147,384.262a.585.585,0,0,1-.583.583h-10.1a.584.584,0,0,1-.583-.583V374.121a.584.584,0,0,1,.583-.583h10.1a.584.584,0,0,1,.583.583Z" transform="translate(-24.881 -355.034)" fill="#75b62f"/>
        <path id="Trazado_203817" data-name="Trazado 203817" d="M132.686,342.483a.584.584,0,0,1-.583.583H122a.584.584,0,0,1-.583-.583V332.342a.584.584,0,0,1,.583-.583h10.1a.585.585,0,0,1,.583.583Z" transform="translate(-78.663 -331.759)" fill="#75b62f"/>
        <path id="Trazado_203818" data-name="Trazado 203818" d="M132.686,384.262a.585.585,0,0,1-.583.583H122a.584.584,0,0,1-.583-.583V374.121a.584.584,0,0,1,.583-.583h10.1a.584.584,0,0,1,.583.583Z" transform="translate(-78.663 -355.034)" fill="#75b62f"/>
      </g>
      <path id="Trazado_203819" data-name="Trazado 203819" d="M102.841,288.008a1.649,1.649,0,0,1,1.647,1.641v8.194a1.65,1.65,0,0,1-1.647,1.642H55.4a7.676,7.676,0,0,1-3.093-.788l-7.645-4.164c-.8-.433-.8-1.141,0-1.575l7.645-4.164a7.676,7.676,0,0,1,3.093-.787Z" transform="translate(-24.55 -1.832)" fill="#ffc502"/>
      <path id="Trazado_203820" data-name="Trazado 203820" d="M56.066,288.008H55.4a7.676,7.676,0,0,0-3.093.787l-7.645,4.164c-.8.433-.8,1.141,0,1.575l7.645,4.164a7.676,7.676,0,0,0,3.093.788h.664Z" transform="translate(-24.55 -1.832)" fill="#ffd5b3"/>
      <path id="Trazado_203821" data-name="Trazado 203821" d="M49.8,292.869l-5.139,2.8c-.8.433-.8,1.141,0,1.575l5.139,2.8Z" transform="translate(-24.55 -4.54)" fill="#775436"/>
      <path id="Trazado_203822" data-name="Trazado 203822" d="M168.473,297.843v-8.194a1.649,1.649,0,0,0-1.647-1.641H158.92v11.478h7.906A1.65,1.65,0,0,0,168.473,297.843Z" transform="translate(-88.534 -1.832)" fill="#f85316"/>
      <path id="Trazado_203823" data-name="Trazado 203823" d="M122.073,297.486h-5.342a1.457,1.457,0,1,0,0,2.914h4.856v78.728H46.412a1.457,1.457,0,1,0,0,2.913h75.66a2.431,2.431,0,0,0,2.428-2.428v-79.7A2.43,2.43,0,0,0,122.073,297.486Z" transform="translate(-25.044 -7.113)"/>
      <path id="Trazado_203824" data-name="Trazado 203824" d="M14.375,372.015H2.914V293.287h15.65a2.846,2.846,0,0,0,.854.693l7.645,4.165a9.076,9.076,0,0,0,3.789.965h47.44a3.106,3.106,0,0,0,3.1-3.1v-2.724h3.492a1.457,1.457,0,0,0,0-2.914H81.4v-2.556a3.1,3.1,0,0,0-3.1-3.1H30.851a9.076,9.076,0,0,0-3.789.965l-7.646,4.164a2.95,2.95,0,0,0-.7.526H2.428A2.43,2.43,0,0,0,0,292.8v79.7a2.431,2.431,0,0,0,2.428,2.428H14.375a1.457,1.457,0,0,0,0-2.913Zm57.468-84.382h6.449a.193.193,0,0,1,.19.184v8.194a.193.193,0,0,1-.19.185H71.842Zm-38.87,0H68.928v2.825H32.973Zm0,5.739H68.928V296.2H32.973Zm-6.263-4.178,1.747-.951a6.069,6.069,0,0,1,1.6-.521v8.386a6.135,6.135,0,0,1-1.6-.521l-1.746-.951ZM23.8,290.781v2.267l-2.081-1.134Z"/>
      <path id="Trazado_203825" data-name="Trazado 203825" d="M96.584,439.459A12.427,12.427,0,0,0,108.5,430.6a1.457,1.457,0,0,0-2.785-.854,9.528,9.528,0,0,1-9.131,6.8,9.674,9.674,0,1,1,9.018-12.89,1.457,1.457,0,0,0,2.752-.958,12.5,12.5,0,1,0-11.77,16.761Z" transform="translate(-46.858 -72.181)"/>
      <path id="Trazado_203826" data-name="Trazado 203826" d="M101.308,435.7v-1.146a1.457,1.457,0,0,0-2.913,0V435.7a1.457,1.457,0,0,0,2.913,0Z" transform="translate(-54.816 -82.663)"/>
      <path id="Trazado_203827" data-name="Trazado 203827" d="M122.487,435.7v-1.146a1.457,1.457,0,0,0-2.913,0V435.7a1.457,1.457,0,1,0,2.913,0Z" transform="translate(-66.615 -82.663)"/>
      <path id="Trazado_203828" data-name="Trazado 203828" d="M103.15,450.489h6.459a1.457,1.457,0,0,0,0-2.914H103.15a1.457,1.457,0,0,0,0,2.914Z" transform="translate(-56.653 -90.727)"/>
      <path id="Trazado_203829" data-name="Trazado 203829" d="M34.066,439.458a12.589,12.589,0,1,0-12.474-12.588A12.545,12.545,0,0,0,34.066,439.458Zm0-22.262a9.675,9.675,0,1,1-9.56,9.675A9.628,9.628,0,0,1,34.066,417.2Z" transform="translate(-12.029 -72.18)"/>
      <path id="Trazado_203830" data-name="Trazado 203830" d="M37.334,437.158a1.456,1.456,0,0,0,1.457-1.457v-1.146a1.457,1.457,0,0,0-2.914,0V435.7A1.457,1.457,0,0,0,37.334,437.158Z" transform="translate(-19.987 -82.663)"/>
      <path id="Trazado_203831" data-name="Trazado 203831" d="M58.513,437.158A1.457,1.457,0,0,0,59.97,435.7v-1.146a1.457,1.457,0,0,0-2.914,0V435.7A1.457,1.457,0,0,0,58.513,437.158Z" transform="translate(-31.786 -82.663)"/>
      <path id="Trazado_203832" data-name="Trazado 203832" d="M38.548,446.881a4.978,4.978,0,0,0,9.928,0,1.457,1.457,0,1,0-2.913,0,2.087,2.087,0,0,1-4.1,0,1.457,1.457,0,0,0-2.914,0Z" transform="translate(-21.475 -89.529)"/>
      <path id="Trazado_203833" data-name="Trazado 203833" d="M159.112,439.458a12.589,12.589,0,1,0-12.473-12.588A12.545,12.545,0,0,0,159.112,439.458Zm0-22.262a9.675,9.675,0,1,1-9.559,9.675A9.629,9.629,0,0,1,159.112,417.2Z" transform="translate(-81.693 -72.18)"/>
      <path id="Trazado_203834" data-name="Trazado 203834" d="M162.379,437.158a1.456,1.456,0,0,0,1.457-1.457v-1.146a1.457,1.457,0,0,0-2.914,0V435.7A1.457,1.457,0,0,0,162.379,437.158Z" transform="translate(-89.65 -82.663)"/>
      <path id="Trazado_203835" data-name="Trazado 203835" d="M183.56,437.158a1.456,1.456,0,0,0,1.457-1.457v-1.146a1.457,1.457,0,0,0-2.914,0V435.7A1.457,1.457,0,0,0,183.56,437.158Z" transform="translate(-101.45 -82.663)"/>
      <path id="Trazado_203836" data-name="Trazado 203836" d="M163.593,448.632a1.457,1.457,0,1,0,2.914,0,2.087,2.087,0,0,1,4.1,0,1.457,1.457,0,1,0,2.914,0,4.978,4.978,0,0,0-9.93,0Z" transform="translate(-91.138 -88.746)"/>
      <path id="Trazado_203837" data-name="Trazado 203837" d="M23.632,342.691h10.1a2.041,2.041,0,0,0,2.04-2.04v-8.41l.574-.578a1.456,1.456,0,0,0-1.07-2.482,2.034,2.034,0,0,0-1.544-.71h-10.1a2.041,2.041,0,0,0-2.04,2.04v10.141A2.041,2.041,0,0,0,23.632,342.691Zm.874-11.307h8.01l-3.573,3.6L27.766,333.8A1.457,1.457,0,1,0,25.7,335.85l1.8,1.813a2.018,2.018,0,0,0,1.445.6h0a2.02,2.02,0,0,0,1.444-.6l2.47-2.488v4.6H24.506Z" transform="translate(-12.029 -24.374)"/>
      <path id="Trazado_203838" data-name="Trazado 203838" d="M62.112,338.762H79.47a1.457,1.457,0,1,0,0-2.913H62.112a1.457,1.457,0,1,0,0,2.913Z" transform="translate(-33.791 -28.485)"/>
      <path id="Trazado_203839" data-name="Trazado 203839" d="M62.112,349.535H72a1.457,1.457,0,1,0,0-2.914H62.112a1.457,1.457,0,1,0,0,2.914Z" transform="translate(-33.791 -34.486)"/>
      <path id="Trazado_203840" data-name="Trazado 203840" d="M21.592,382.43a2.041,2.041,0,0,0,2.04,2.04h10.1a2.042,2.042,0,0,0,2.04-2.04V372.289a2.042,2.042,0,0,0-2.04-2.04h-10.1a2.041,2.041,0,0,0-2.04,2.04Zm2.914-9.267h8.352v8.393H24.506Z" transform="translate(-12.029 -47.649)"/>
      <path id="Trazado_203841" data-name="Trazado 203841" d="M62.112,380.541H79.47a1.457,1.457,0,0,0,0-2.914H62.112a1.457,1.457,0,1,0,0,2.914Z" transform="translate(-33.791 -51.759)"/>
      <path id="Trazado_203842" data-name="Trazado 203842" d="M73.454,389.856A1.456,1.456,0,0,0,72,388.4H62.112a1.457,1.457,0,1,0,0,2.913H72A1.457,1.457,0,0,0,73.454,389.856Z" transform="translate(-33.791 -57.76)"/>
      <path id="Trazado_203843" data-name="Trazado 203843" d="M120.171,342.69h10.1a2.041,2.041,0,0,0,2.04-2.04V330.51a2.042,2.042,0,0,0-2.04-2.04h-10.1a2.041,2.041,0,0,0-2.04,2.04v10.141A2.041,2.041,0,0,0,120.171,342.69Zm.874-11.307H129.4v8.393h-8.352Z" transform="translate(-65.811 -24.374)"/>
      <path id="Trazado_203844" data-name="Trazado 203844" d="M157.193,337.306a1.456,1.456,0,0,0,1.457,1.457h17.359a1.457,1.457,0,1,0,0-2.913H158.65A1.456,1.456,0,0,0,157.193,337.306Z" transform="translate(-87.572 -28.485)"/>
      <path id="Trazado_203845" data-name="Trazado 203845" d="M158.65,349.535h9.886a1.457,1.457,0,1,0,0-2.914H158.65a1.457,1.457,0,0,0,0,2.914Z" transform="translate(-87.572 -34.486)"/>
      <path id="Trazado_203846" data-name="Trazado 203846" d="M132.31,382.43V372.289a2.042,2.042,0,0,0-2.04-2.04h-10.1a2.041,2.041,0,0,0-2.04,2.04V382.43a2.041,2.041,0,0,0,2.04,2.04h10.1A2.042,2.042,0,0,0,132.31,382.43Zm-2.914-.874h-8.352v-8.393H129.4Z" transform="translate(-65.811 -47.649)"/>
      <path id="Trazado_203847" data-name="Trazado 203847" d="M176.009,377.627H158.651a1.457,1.457,0,1,0,0,2.914h17.358a1.457,1.457,0,0,0,0-2.914Z" transform="translate(-87.573 -51.759)"/>
      <path id="Trazado_203848" data-name="Trazado 203848" d="M168.535,391.312a1.457,1.457,0,1,0,0-2.913H158.65a1.457,1.457,0,1,0,0,2.913Z" transform="translate(-87.572 -57.76)"/>
    </g>
  </g>
</svg>
