<svg xmlns="http://www.w3.org/2000/svg" width="150" height="150" viewBox="0 0 150 150">
  <g id="Grupo_158125" data-name="Grupo 158125" transform="translate(10394 1463.18)">
    <g id="Grupo_158081" data-name="Grupo 158081">
      <g id="Grupo_158002" data-name="Grupo 158002" transform="translate(-11308 -12771)">
        <g id="Trazado_169921" data-name="Trazado 169921" transform="translate(914 11307.82)" fill="#fff">
          <path d="M 75 148 C 65.14418029785156 148 55.5842399597168 146.0701751708984 46.58572006225586 142.2641143798828 C 42.26060104370117 140.4347381591797 38.08885955810547 138.1703796386719 34.1864013671875 135.533935546875 C 30.32049942016602 132.9221801757812 26.68510055541992 129.9226989746094 23.38120079040527 126.6187973022461 C 20.07729911804199 123.3149032592773 17.07781982421875 119.6794967651367 14.46605968475342 115.8135986328125 C 11.82962036132812 111.9111404418945 9.56525993347168 107.7394027709961 7.735879898071289 103.4142837524414 C 3.92982006072998 94.41575622558594 2 84.85581970214844 2 75 C 2 65.14418029785156 3.92982006072998 55.5842399597168 7.735879898071289 46.58572006225586 C 9.56525993347168 42.26060104370117 11.82962036132812 38.08885955810547 14.46605968475342 34.1864013671875 C 17.07781982421875 30.32049942016602 20.07729911804199 26.68510055541992 23.38120079040527 23.38120079040527 C 26.68510055541992 20.07729911804199 30.32049942016602 17.07781982421875 34.1864013671875 14.46605968475342 C 38.08885955810547 11.82962036132812 42.26060104370117 9.56525993347168 46.58572006225586 7.735879898071289 C 55.5842399597168 3.92982006072998 65.14418029785156 2 75 2 C 84.85581970214844 2 94.41575622558594 3.92982006072998 103.4142837524414 7.735879898071289 C 107.7394027709961 9.56525993347168 111.9111404418945 11.82962036132812 115.8135986328125 14.46605968475342 C 119.6794967651367 17.07781982421875 123.3149032592773 20.07729911804199 126.6187973022461 23.38120079040527 C 129.9226989746094 26.68510055541992 132.9221801757812 30.32049942016602 135.533935546875 34.1864013671875 C 138.1703796386719 38.08885955810547 140.4347381591797 42.26060104370117 142.2641143798828 46.58572006225586 C 146.0701751708984 55.5842399597168 148 65.14418029785156 148 75 C 148 84.85581970214844 146.0701751708984 94.41575622558594 142.2641143798828 103.4142837524414 C 140.4347381591797 107.7394027709961 138.1703796386719 111.9111404418945 135.533935546875 115.8135986328125 C 132.9221801757812 119.6794967651367 129.9226989746094 123.3149032592773 126.6187973022461 126.6187973022461 C 123.3149032592773 129.9226989746094 119.6794967651367 132.9221801757812 115.8135986328125 135.533935546875 C 111.9111404418945 138.1703796386719 107.7394027709961 140.4347381591797 103.4142837524414 142.2641143798828 C 94.41575622558594 146.0701751708984 84.85581970214844 148 75 148 Z" stroke="none"/>
          <path d="M 75 4 C 65.41329193115234 4 56.115478515625 5.876678466796875 47.36481475830078 9.577880859375 C 43.15863800048828 11.35694885253906 39.10147857666016 13.55915832519531 35.30599975585938 16.12332153320312 C 31.54559326171875 18.663818359375 28.00929260253906 21.58152770996094 24.79541015625 24.79541015625 C 21.58152770996094 28.00929260253906 18.663818359375 31.54559326171875 16.12332153320312 35.30599975585938 C 13.55915832519531 39.10147857666016 11.35694885253906 43.15863800048828 9.577880859375 47.36481475830078 C 5.876678466796875 56.115478515625 4 65.41329193115234 4 75 C 4 84.58670806884766 5.876678466796875 93.884521484375 9.577880859375 102.6351776123047 C 11.35694885253906 106.8413619995117 13.55915832519531 110.8985214233398 16.12332153320312 114.6940002441406 C 18.663818359375 118.4544067382812 21.58152770996094 121.9907073974609 24.79541015625 125.20458984375 C 28.00929260253906 128.4184722900391 31.54559326171875 131.336181640625 35.30599975585938 133.8766784667969 C 39.10147857666016 136.4408416748047 43.15863800048828 138.6430511474609 47.36481475830078 140.422119140625 C 56.115478515625 144.1233215332031 65.41329193115234 146 75 146 C 84.58670806884766 146 93.884521484375 144.1233215332031 102.6351776123047 140.422119140625 C 106.8413619995117 138.6430511474609 110.8985214233398 136.4408416748047 114.6940002441406 133.8766784667969 C 118.4544067382812 131.336181640625 121.9907073974609 128.4184722900391 125.20458984375 125.20458984375 C 128.4184722900391 121.9907073974609 131.336181640625 118.4544067382812 133.8766784667969 114.6940002441406 C 136.4408416748047 110.8985214233398 138.6430511474609 106.8413619995117 140.422119140625 102.6351776123047 C 144.1233215332031 93.884521484375 146 84.58670806884766 146 75 C 146 65.41329193115234 144.1233215332031 56.115478515625 140.422119140625 47.36481475830078 C 138.6430511474609 43.15863800048828 136.4408416748047 39.10147857666016 133.8766784667969 35.30599975585938 C 131.336181640625 31.54559326171875 128.4184722900391 28.00929260253906 125.20458984375 24.79541015625 C 121.9907073974609 21.58152770996094 118.4544067382812 18.663818359375 114.6940002441406 16.12332153320312 C 110.8985214233398 13.55915832519531 106.8413619995117 11.35694885253906 102.6351776123047 9.577880859375 C 93.884521484375 5.876678466796875 84.58670806884766 4 75 4 M 75 0 C 116.4213638305664 0 150 33.57863616943359 150 75 C 150 116.4213638305664 116.4213638305664 150 75 150 C 33.57863616943359 150 0 116.4213638305664 0 75 C 0 33.57863616943359 33.57863616943359 0 75 0 Z" stroke="none" fill="#77b43a"/>
        </g>
        <g id="Grupo_157987" data-name="Grupo 157987" transform="translate(935 10956.756)">
          <g id="Grupo_153711" data-name="Grupo 153711" transform="translate(9.47 381.534)">
            <g id="Grupo_153690" data-name="Grupo 153690" transform="translate(23.52 44.968)">
              <path id="Trazado_205841" data-name="Trazado 205841" d="M56.683,471.744v14.7h-14.7l7.35-7.35-5.88-27.93L44.834,447l4.5,2.69,1.294-6.469v-.015a25.1,25.1,0,0,1,14,13.113l7.027,15.509,2.675-8.908h8.82l-3.072,16.42a8.712,8.712,0,0,1-15.7,3.381Z" transform="translate(-41.982 -443.211)" fill="#e6e9ed"/>
            </g>
            <g id="Grupo_153691" data-name="Grupo 153691" transform="translate(0 44.983)">
              <path id="Trazado_205842" data-name="Trazado 205842" d="M18.819,486.45H10V464.944a23.277,23.277,0,0,1,14.877-21.713L26.17,449.7l4.5-2.69,1.382,4.16L26.17,479.1l7.35,7.35Z" transform="translate(-9.999 -443.231)" fill="#e6e9ed"/>
            </g>
            <g id="Grupo_153692" data-name="Grupo 153692" transform="translate(16.171 52.921)">
              <path id="Trazado_205843" data-name="Trazado 205843" d="M40.808,454.026l5.88,27.93-7.35,7.35-7.35-7.35,5.879-27.93Z" transform="translate(-31.988 -454.026)" fill="#f85316"/>
            </g>
            <g id="Grupo_153693" data-name="Grupo 153693" transform="translate(20.668 47.041)">
              <path id="Trazado_205844" data-name="Trazado 205844" d="M40.956,446.03l2.852,1.72-1.382,4.16h-2.94L38.1,447.75Z" transform="translate(-38.104 -446.03)" fill="#ed5565"/>
            </g>
            <g id="Grupo_153694" data-name="Grupo 153694" transform="translate(23.52 44.101)">
              <path id="Trazado_205845" data-name="Trazado 205845" d="M50.626,442.9v.015l-1.294,6.469-4.5-2.69-2.852-1.72,5.88-2.94A25.207,25.207,0,0,1,50.626,442.9Z" transform="translate(-41.982 -442.032)" fill="#ccd1d9"/>
            </g>
            <g id="Grupo_153695" data-name="Grupo 153695" transform="translate(14.877 44.101)">
              <path id="Trazado_205846" data-name="Trazado 205846" d="M38.872,444.972l-2.852,1.72-4.5,2.69-1.294-6.469a21.681,21.681,0,0,1,2.764-.882Z" transform="translate(-30.229 -442.032)" fill="#ccd1d9"/>
            </g>
            <g id="Grupo_153696" data-name="Grupo 153696" transform="translate(5.88)">
              <path id="Trazado_205847" data-name="Trazado 205847" d="M37.105,393.823h-7.35a5.878,5.878,0,0,0-5.88,5.88v2.939h-1.47a4.393,4.393,0,0,0-3.367,1.558A28.844,28.844,0,0,1,18,396.528v-8.585a5.878,5.878,0,0,1,5.88-5.88H38.81a14.454,14.454,0,0,1,14.465,14.465,28.844,28.844,0,0,1-1.044,7.673,4.393,4.393,0,0,0-3.367-1.558H47.4V399.7a2.949,2.949,0,0,0-2.94-2.94h-1.47A7.366,7.366,0,0,1,37.105,393.823Z" transform="translate(-17.995 -382.063)" fill="#656d78"/>
            </g>
            <g id="Grupo_153697" data-name="Grupo 153697" transform="translate(61.742 5.88)">
              <path id="Trazado_205848" data-name="Trazado 205848" d="M99.836,390.059v6.086a21.094,21.094,0,0,0-5.88,0v-6.086Z" transform="translate(-93.956 -390.059)" fill="#ffeaa7"/>
            </g>
            <g id="Grupo_153698" data-name="Grupo 153698" transform="translate(58.802)">
              <path id="Trazado_205849" data-name="Trazado 205849" d="M101.718,383.533v2.94a1.474,1.474,0,0,1-1.47,1.47h-8.82a1.474,1.474,0,0,1-1.47-1.47v-2.94a1.474,1.474,0,0,1,1.47-1.47h8.82A1.474,1.474,0,0,1,101.718,383.533Z" transform="translate(-89.958 -382.063)" fill="#dce736"/>
            </g>
            <g id="Grupo_153699" data-name="Grupo 153699" transform="translate(72.12 8.82)">
              <path id="Trazado_205850" data-name="Trazado 205850" d="M124.15,402.377a8.325,8.325,0,0,1-2.44,5.88l-1.882,1.881h-.015a20.51,20.51,0,0,0-11.746-11.745v-.015l1.882-1.882a8.32,8.32,0,0,1,14.2,5.88Z" transform="translate(-108.068 -394.057)" fill="#dce736"/>
            </g>
            <g id="Grupo_153700" data-name="Grupo 153700" transform="translate(41.161 8.82)">
              <path id="Trazado_205851" data-name="Trazado 205851" d="M82.052,398.379v.015a20.51,20.51,0,0,0-11.746,11.745h-.015l-1.882-1.881a8.316,8.316,0,1,1,11.76-11.76Z" transform="translate(-65.97 -394.057)" fill="#dce736"/>
            </g>
            <g id="Grupo_153701" data-name="Grupo 153701" transform="translate(72.09 48.997)">
              <path id="Trazado_205852" data-name="Trazado 205852" d="M114.938,452.04a2.258,2.258,0,0,1-1.882,3.514h-.941a2.3,2.3,0,0,1-1.882-1l-2.205-3.322a20.273,20.273,0,0,0,4.675-2.543Z" transform="translate(-108.028 -448.689)" fill="#aab2bd"/>
            </g>
            <g id="Grupo_153702" data-name="Grupo 153702" transform="translate(49.981 48.997)">
              <path id="Trazado_205853" data-name="Trazado 205853" d="M85.255,451.232l-2.205,3.322a2.3,2.3,0,0,1-1.881,1h-.941a2.257,2.257,0,0,1-1.881-3.514l2.234-3.351A20.273,20.273,0,0,0,85.255,451.232Z" transform="translate(-77.964 -448.689)" fill="#aab2bd"/>
            </g>
            <g id="Grupo_153703" data-name="Grupo 153703" transform="translate(44.101 11.76)">
              <path id="Trazado_205854" data-name="Trazado 205854" d="M76,404.082a20.763,20.763,0,0,1,11.613-5.821,21.094,21.094,0,0,1,5.88,0A20.566,20.566,0,0,1,109.732,411.2a20.561,20.561,0,0,1-4.631,21.992,19.834,19.834,0,0,1-2.469,2.1,20.569,20.569,0,0,1-24.167,0,19.833,19.833,0,0,1-2.469-2.1,20.6,20.6,0,0,1,0-29.107Z" transform="translate(-69.968 -398.055)" fill="#75b62f"/>
            </g>
            <g id="Grupo_153704" data-name="Grupo 153704" transform="translate(52.921 20.58)">
              <path id="Trazado_205855" data-name="Trazado 205855" d="M93.722,410.048a11.76,11.76,0,1,1-11.76,11.76A11.757,11.757,0,0,1,93.722,410.048Z" transform="translate(-81.962 -410.048)" fill="#e6e9ed"/>
            </g>
            <g id="Grupo_153705" data-name="Grupo 153705" transform="translate(58.802 29.4)">
              <path id="Trazado_205856" data-name="Trazado 205856" d="M98.778,422.042a2.949,2.949,0,0,1,2.939,2.94,2.961,2.961,0,0,1-2.939,2.94H92.9a2.949,2.949,0,0,1-2.94-2.94,2.962,2.962,0,0,1,2.94-2.94Z" transform="translate(-89.958 -422.042)" fill="#ef7385"/>
            </g>
            <g id="Grupo_153706" data-name="Grupo 153706" transform="translate(55.861 58.802)">
              <path id="Trazado_205857" data-name="Trazado 205857" d="M100.66,463.492a4.4,4.4,0,0,1-4.409,4.41H85.96v-2.94a2.949,2.949,0,0,1,2.94-2.94H99.19A1.474,1.474,0,0,1,100.66,463.492Z" transform="translate(-85.96 -462.022)" fill="#f0d0b4"/>
            </g>
            <g id="Grupo_153707" data-name="Grupo 153707" transform="translate(35.281 20.58)">
              <path id="Trazado_205858" data-name="Trazado 205858" d="M62.811,411.606a4.414,4.414,0,0,1-3.367,7.262h-1.47v-8.82h1.47a4.393,4.393,0,0,1,3.367,1.558Z" transform="translate(-57.974 -410.048)" fill="#f0d0b4"/>
            </g>
            <g id="Grupo_153708" data-name="Grupo 153708" transform="translate(11.76 11.76)">
              <path id="Trazado_205859" data-name="Trazado 205859" d="M49.511,406.875v8.82a8.8,8.8,0,0,1-7.086,8.644,8.462,8.462,0,0,1-1.735.176H34.811a8.462,8.462,0,0,1-1.735-.176,8.8,8.8,0,0,1-7.086-8.644v-11.76a5.878,5.878,0,0,1,5.88-5.88h7.35A7.366,7.366,0,0,0,45.1,401h1.47a2.949,2.949,0,0,1,2.94,2.94Z" transform="translate(-25.991 -398.055)" fill="#f0d0b4"/>
            </g>
            <g id="Grupo_153709" data-name="Grupo 153709" transform="translate(17.641 38.044)">
              <path id="Trazado_205860" data-name="Trazado 205860" d="M44.541,433.8l1.205,6.057-5.88,2.94-5.879-2.94,1.205-6.057a8.462,8.462,0,0,0,1.735.177h5.879a8.462,8.462,0,0,0,1.735-.177Z" transform="translate(-33.987 -433.796)" fill="#f0d0b4"/>
            </g>
            <g id="Grupo_153710" data-name="Grupo 153710" transform="translate(5.88 20.58)">
              <path id="Trazado_205861" data-name="Trazado 205861" d="M23.875,410.048v8.82h-1.47a4.41,4.41,0,1,1,0-8.82Z" transform="translate(-17.995 -410.048)" fill="#f0d0b4"/>
            </g>
          </g>
          <g id="Grupo_153712" data-name="Grupo 153712" transform="translate(8 380.064)">
            <path id="Trazado_205862" data-name="Trazado 205862" d="M98.249,420.043h-5.88a4.41,4.41,0,1,0,0,8.82h5.88a4.41,4.41,0,0,0,0-8.82Zm0,5.88h-5.88a1.47,1.47,0,1,1,0-2.94h5.88a1.47,1.47,0,0,1,0,2.94Z" transform="translate(-29.157 -390.643)"/>
            <path id="Trazado_205863" data-name="Trazado 205863" d="M93.194,408.05a13.23,13.23,0,1,0,13.23,13.23A13.244,13.244,0,0,0,93.194,408.05Zm0,23.52a10.29,10.29,0,1,1,10.29-10.29A10.3,10.3,0,0,1,93.194,431.57Z" transform="translate(-27.042 -387.469)"/>
            <path id="Trazado_205864" data-name="Trazado 205864" d="M99.142,398.67a9.785,9.785,0,0,0-16.705-6.919L81.192,393a21.912,21.912,0,0,0-2.631-.728v-3.384a2.943,2.943,0,0,0,2.94-2.94V383a2.943,2.943,0,0,0-2.94-2.94h-8.82A2.943,2.943,0,0,0,66.8,383v2.94a2.943,2.943,0,0,0,2.94,2.94v3.384a21.764,21.764,0,0,0-2.628.728l-1.247-1.245a9.763,9.763,0,0,0-14.242.449,15.947,15.947,0,0,0-15.456-12.136H21.231a7.359,7.359,0,0,0-7.35,7.35V396a30.094,30.094,0,0,0,.933,7.375A5.86,5.86,0,0,0,19.76,412.4h.118a10.3,10.3,0,0,0,6.735,8.218l-.772,3.857A24.7,24.7,0,0,0,8,448.228v22.978H49.161V459.7l5.016,7.166a10.178,10.178,0,0,0,18.342-3.96l2.853-15.219h.25a5.886,5.886,0,0,0,5.879-5.88,2.943,2.943,0,0,0-2.94-2.94H68.272a4.415,4.415,0,0,0-4.41,4.41V446L62.38,450.94l-5.405-11.93a26.377,26.377,0,0,0-16.832-14.515l-.774-3.872A10.3,10.3,0,0,0,46.1,412.4h.118A5.783,5.783,0,0,0,52,405.563c.009.009.016.018.024.026l1.245,1.245a21.947,21.947,0,0,0,6.818,24.011l-1.485,2.226a3.728,3.728,0,0,0,3.1,5.793h.947a3.72,3.72,0,0,0,3.1-1.66l1.58-2.371a21.85,21.85,0,0,0,13.634,0l1.582,2.372a3.722,3.722,0,0,0,3.1,1.658H86.6a3.726,3.726,0,0,0,3.1-5.793l-1.485-2.226a21.945,21.945,0,0,0,6.819-24.011l1.245-1.245a9.716,9.716,0,0,0,2.867-6.919Zm-12.517,4.81,2.022-2.023a19,19,0,0,1,4.54,10.947H90.322v2.94h2.865a19,19,0,0,1-4.54,10.948l-2.022-2.023-2.079,2.078,2.023,2.023a19.007,19.007,0,0,1-10.947,4.54v-2.865h-2.94v2.865a19.006,19.006,0,0,1-10.948-4.54l2.023-2.023-2.079-2.078-2.022,2.023a19.01,19.01,0,0,1-4.54-10.948h2.865V412.4H55.116a19,19,0,0,1,4.54-10.947l2.022,2.023,2.079-2.079-2.023-2.023a19,19,0,0,1,10.948-4.539V397.7h2.94V394.84a19,19,0,0,1,10.947,4.539L84.546,401.4ZM69.742,383h8.82l0,2.94H69.742Zm2.94,5.88h2.94V391.9c-.488-.032-.974-.075-1.47-.075s-.982.043-1.47.075ZM16.82,406.524a2.943,2.943,0,0,1,2.94-2.94v5.88A2.943,2.943,0,0,1,16.82,406.524ZM39,427.212c.316.087.624.191.935.291l-.629,3.148-3.265-1.958Zm-6.29,8.713h.555l5.47,25.984-5.748,5.748-5.748-5.748Zm.688-2.94h-.821l-.681-2.041,1.092-.655,1.091.654Zm-6.728-2.335-.634-3.167c.306-.1.618-.188.93-.275l2.97,1.485ZM10.94,448.228A21.773,21.773,0,0,1,23.265,428.6l1.344,6.719,4.709-2.825.682,2.05-5.961,28.32,5.4,5.4H19.76v-24.99H16.82v24.99H10.94ZM66.8,443.276a1.47,1.47,0,0,1,1.47-1.47h10.29a2.943,2.943,0,0,1-2.939,2.94H66.8Zm-12.507-3.052,6.8,15-1.58,5.268,2.817.843,4.1-13.653H72.38l-2.752,14.675a7.237,7.237,0,0,1-13.042,2.818l-7.425-10.606v-11.3h-2.94v24.99H36.539l5.4-5.4L35.98,434.544l.682-2.05,4.709,2.825,1.348-6.743a23.433,23.433,0,0,1,11.575,11.647Zm-17.087-15.4-4.217,2.109-4.217-2.109L29.5,421.2c.184.01.366.028.553.028H35.93c.187,0,.369-.018.553-.028Zm6.073-13.888a7.358,7.358,0,0,1-7.35,7.35H30.051a7.358,7.358,0,0,1-7.35-7.35v-11.76a4.407,4.407,0,0,1,4.259-4.4,11.369,11.369,0,0,0,3.745,4.148l1.63-2.447a8.417,8.417,0,0,1-3.754-7.016v-.58h-2.94v.58a11.458,11.458,0,0,0,.286,2.481,7.342,7.342,0,0,0-6.166,7.23v1.47a5.832,5.832,0,0,0-2.432.541A27.242,27.242,0,0,1,16.82,396v-8.582a4.415,4.415,0,0,1,4.41-4.41H36.169A13.008,13.008,0,0,1,49.161,396a27.172,27.172,0,0,1-.509,5.189,5.826,5.826,0,0,0-2.431-.541v-1.47a4.415,4.415,0,0,0-4.41-4.41h-1.47a5.886,5.886,0,0,1-5.88-5.88H31.52a8.83,8.83,0,0,0,8.82,8.82h1.47a1.47,1.47,0,0,1,1.47,1.47Zm2.94-1.47v-5.88a2.94,2.94,0,0,1,0,5.88Zm7.886-5.953a6.846,6.846,0,0,1,9.681-9.682l.4.4a22.168,22.168,0,0,0-9.682,9.682Zm9.2,32.063a.794.794,0,0,1-.655.352h-.947a.786.786,0,0,1-.654-1.223l1.433-2.15a21.809,21.809,0,0,0,2.072,1.146Zm23.939-.871a.777.777,0,0,1,.132.436.787.787,0,0,1-.786.787h-.946a.789.789,0,0,1-.655-.35L83.744,433.7a21.811,21.811,0,0,0,2.072-1.146ZM94.2,403.511l-.4.4a22.17,22.17,0,0,0-9.681-9.682l.4-.4a6.846,6.846,0,0,1,9.682,9.682Z" transform="translate(-8 -380.064)"/>
            <circle id="Elipse_12929" data-name="Elipse 12929" cx="1.47" cy="1.47" r="1.47" transform="translate(17.64 20.58)"/>
            <circle id="Elipse_12930" data-name="Elipse 12930" cx="1.47" cy="1.47" r="1.47" transform="translate(29.401 20.58)"/>
            <path id="Trazado_205865" data-name="Trazado 205865" d="M41.865,422.983H35.986v2.94h5.879a5.886,5.886,0,0,0,5.88-5.88h-2.94A2.943,2.943,0,0,1,41.865,422.983Z" transform="translate(-15.405 -390.643)"/>
          </g>
        </g>
      </g>
    </g>
  </g>
</svg>
