<svg xmlns="http://www.w3.org/2000/svg" width="294" height="290.77" viewBox="0 0 294 290.77">
  <g id="Grupo_158113" data-name="Grupo 158113" transform="translate(10472 3667.911)">
    <g id="Grupo_158068" data-name="Grupo 158068">
      <g id="Grupo_158024" data-name="Grupo 158024" transform="translate(208 -1029.517)">
        <g id="Grupo_152434" data-name="Grupo 152434" transform="translate(-10631.869 -2607.867)">
          <g id="Grupo_152431" data-name="Grupo 152431" transform="translate(18.371 221.091)">
            <path id="Trazado_204508" data-name="Trazado 204508" d="M1894.78,731.3c-1.383,0-2.771-.022-4.127-.066a1.193,1.193,0,0,1-1.153-1.231,1.222,1.222,0,0,1,1.23-1.153,127.729,127.729,0,0,0,14.383-.356,1.193,1.193,0,0,1,.194,2.378C1901.831,731.159,1898.289,731.3,1894.78,731.3Zm-18.555-1.353a1.193,1.193,0,0,1-.175-.013,127.424,127.424,0,0,1-14.359-2.97,1.192,1.192,0,1,1,.617-2.3,125.11,125.11,0,0,0,14.089,2.913,1.193,1.193,0,0,1-.172,2.374Zm-28.014-7.507a1.2,1.2,0,0,1-.44-.085,127.452,127.452,0,0,1-13.292-6.185,1.193,1.193,0,0,1,1.13-2.1,124.841,124.841,0,0,0,13.043,6.07,1.193,1.193,0,0,1-.441,2.3Zm-25.543-13.73a1.188,1.188,0,0,1-.681-.215,128.571,128.571,0,0,1-11.529-9.052,1.193,1.193,0,0,1,1.578-1.789,126.268,126.268,0,0,0,11.315,8.884,1.193,1.193,0,0,1-.682,2.172Z" transform="translate(-1810.054 -697.357)" fill="#75b62f"/>
          </g>
          <g id="Grupo_152432" data-name="Grupo 152432" transform="translate(223.027 90.655)">
            <path id="Trazado_204509" data-name="Trazado 204509" d="M2206.49,519.507a1.194,1.194,0,0,1-1.144-1.532,124.756,124.756,0,0,0,3.287-14.006,1.193,1.193,0,0,1,2.35.411,127.348,127.348,0,0,1-3.35,14.273A1.193,1.193,0,0,1,2206.49,519.507Zm4.988-28.566c-.023,0-.047,0-.07,0a1.193,1.193,0,0,1-1.121-1.26c.141-2.437.213-4.914.213-7.363,0-2.338-.065-4.7-.194-7.027a1.193,1.193,0,0,1,2.382-.131c.131,2.367.2,4.777.2,7.158,0,2.5-.073,5.019-.217,7.5A1.193,1.193,0,0,1,2211.478,490.941Zm-1.613-28.953a1.194,1.194,0,0,1-1.174-.992,124.755,124.755,0,0,0-3.249-14.011,1.193,1.193,0,0,1,2.289-.673,127.384,127.384,0,0,1,3.311,14.28,1.193,1.193,0,0,1-.974,1.377A1.179,1.179,0,0,1,2209.865,461.988Z" transform="translate(-2205.296 -445.454)" fill="#75b62f"/>
          </g>
          <g id="Grupo_152433" data-name="Grupo 152433" transform="translate(0 0)">
            <path id="Trazado_204510" data-name="Trazado 204510" d="M1775.768,324.416a1.192,1.192,0,0,1-.961-1.9,128.477,128.477,0,0,1,9.336-11.3,1.193,1.193,0,1,1,1.749,1.622,126.211,126.211,0,0,0-9.161,11.09A1.192,1.192,0,0,1,1775.768,324.416Zm19.716-21.263a1.192,1.192,0,0,1-.777-2.1,128.352,128.352,0,0,1,11.655-8.89,1.192,1.192,0,1,1,1.335,1.976,126.419,126.419,0,0,0-11.438,8.724A1.187,1.187,0,0,1,1795.484,303.153Zm24.026-16.233a1.193,1.193,0,0,1-.551-2.252,127.239,127.239,0,0,1,13.376-6,1.193,1.193,0,1,1,.849,2.229,124.971,124.971,0,0,0-13.125,5.885A1.189,1.189,0,0,1,1819.509,286.919Zm27.095-10.308a1.193,1.193,0,0,1-.292-2.349,127.092,127.092,0,0,1,14.395-2.766,1.192,1.192,0,1,1,.314,2.364,124.887,124.887,0,0,0-14.124,2.715A1.2,1.2,0,0,1,1846.6,276.611Zm43.254-3.268c-.038,0-.076,0-.115-.006a127.772,127.772,0,0,0-14.377-.555,1.217,1.217,0,0,1-1.214-1.171,1.192,1.192,0,0,1,1.171-1.214,130.965,130.965,0,0,1,14.647.565,1.193,1.193,0,0,1-.112,2.38Z" transform="translate(-1774.576 -270.378)" fill="#75b62f"/>
          </g>
          <circle id="Elipse_12822" data-name="Elipse 12822" cx="92.751" cy="92.751" r="92.751" transform="translate(10.346 34.767)" fill="#eaf086"/>
        </g>
        <g id="Grupo_152456" data-name="Grupo 152456" transform="translate(-10680 -2575.551)">
          <g id="Decision-making" transform="translate(101.143 0)">
            <g id="Grupo_152438" data-name="Grupo 152438">
              <g id="Grupo_152435" data-name="Grupo 152435">
                <path id="Trazado_204511" data-name="Trazado 204511" d="M1879.829,359.2a19.363,19.363,0,1,1,32.85,8.639,13.665,13.665,0,0,0-3.859,9.359v7.777h-19.707Z" transform="translate(-1878.064 -333.899)" fill="#fff"/>
                <path id="Trazado_204512" data-name="Trazado 204512" d="M1907.709,385.053H1888a1.193,1.193,0,0,1,0-2.385h18.514v-6.585A14.84,14.84,0,0,1,1910.7,365.9a18.091,18.091,0,0,0,4.943-13.62,18.4,18.4,0,0,0-16.975-17.074,18.189,18.189,0,0,0-19.33,18.177,18.3,18.3,0,0,0,.537,4.411,1.193,1.193,0,1,1-2.316.575,20.668,20.668,0,0,1,5.892-20.015,20.576,20.576,0,0,1,28.984,29.185,12.468,12.468,0,0,0-3.533,8.54v7.777A1.193,1.193,0,0,1,1907.709,385.053Z" transform="translate(-1876.954 -332.788)" fill="#0059ab"/>
              </g>
              <g id="Grupo_152436" data-name="Grupo 152436" transform="translate(10.215 50.06)">
                <path id="Trazado_204513" data-name="Trazado 204513" d="M1900.409,444.365a10.146,10.146,0,0,0,17.842-6.649v-5.948h-19.267Z" transform="translate(-1897.793 -430.576)" fill="#fff"/>
                <path id="Trazado_204514" data-name="Trazado 204514" d="M1906.981,447.983a11.343,11.343,0,0,1-8.585-3.949,1.193,1.193,0,0,1,1.806-1.559,8.953,8.953,0,0,0,15.747-5.87V431.85h-18.074a1.192,1.192,0,0,1,0-2.385h19.267a1.192,1.192,0,0,1,1.193,1.192v5.948A11.378,11.378,0,0,1,1906.981,447.983Z" transform="translate(-1896.682 -429.465)" fill="#0059ab"/>
              </g>
              <g id="Grupo_152437" data-name="Grupo 152437" transform="translate(14.267 14.798)">
                <path id="Trazado_204515" data-name="Trazado 204515" d="M1909.668,372.834a1.186,1.186,0,0,1-.85-.355l-3.968-4.026a1.192,1.192,0,1,1,1.7-1.674l3.135,3.181,8.47-8.254a1.193,1.193,0,1,1,1.665,1.708L1910.5,372.5A1.189,1.189,0,0,1,1909.668,372.834Z" transform="translate(-1904.507 -361.367)" fill="#0059ab"/>
              </g>
            </g>
          </g>
          <g id="Grupo_152439" data-name="Grupo 152439" transform="translate(0 153.61)">
            <path id="Trazado_204516" data-name="Trazado 204516" d="M1702.53,641.05a9.3,9.3,0,1,0-9.3,9.3A9.3,9.3,0,0,0,1702.53,641.05Z" transform="translate(-1682.733 -630.556)" fill="#75b62f"/>
            <path id="Trazado_204517" data-name="Trazado 204517" d="M1692.117,650.434a10.494,10.494,0,1,1,10.495-10.494A10.506,10.506,0,0,1,1692.117,650.434Zm0-18.6a8.109,8.109,0,1,0,8.109,8.11A8.119,8.119,0,0,0,1692.117,631.83Z" transform="translate(-1681.623 -629.446)" fill="#0059ab"/>
          </g>
          <g id="Grupo_152440" data-name="Grupo 152440" transform="translate(18.604 137.473)">
            <path id="Trazado_204518" data-name="Trazado 204518" d="M1730.576,626.1h-11.833a1.192,1.192,0,1,1,0-2.385h10.64V599.473a1.193,1.193,0,0,1,1.193-1.192h15.946a1.192,1.192,0,1,1,0,2.384h-14.753v24.247A1.193,1.193,0,0,1,1730.576,626.1Z" transform="translate(-1717.551 -598.281)" fill="#0059ab"/>
          </g>
          <g id="Grupo_152441" data-name="Grupo 152441" transform="translate(2.929 17.284)">
            <path id="Trazado_204519" data-name="Trazado 204519" d="M1708.187,377.772a9.3,9.3,0,1,1-9.3-9.3A9.3,9.3,0,0,1,1708.187,377.772Z" transform="translate(-1688.39 -367.279)" fill="#75b62f"/>
            <path id="Trazado_204520" data-name="Trazado 204520" d="M1697.774,387.156a10.494,10.494,0,1,1,10.495-10.494A10.506,10.506,0,0,1,1697.774,387.156Zm0-18.6a8.109,8.109,0,1,0,8.109,8.109A8.118,8.118,0,0,0,1697.774,368.553Z" transform="translate(-1687.28 -366.168)" fill="#0059ab"/>
          </g>
          <g id="Grupo_152442" data-name="Grupo 152442" transform="translate(21.533 26.586)">
            <path id="Trazado_204521" data-name="Trazado 204521" d="M1765.531,411.953h-29.3a1.192,1.192,0,0,1-1.192-1.193V386.516H1724.4a1.192,1.192,0,0,1,0-2.385h11.833a1.193,1.193,0,0,1,1.193,1.193v24.245h28.1a1.193,1.193,0,0,1,0,2.385Z" transform="translate(-1723.208 -384.131)" fill="#0059ab"/>
          </g>
          <g id="Grupo_152443" data-name="Grupo 152443" transform="translate(21.533 115.507)">
            <path id="Trazado_204522" data-name="Trazado 204522" d="M1758.354,558.245H1724.4a1.192,1.192,0,1,1,0-2.385h33.953a1.192,1.192,0,1,1,0,2.385Z" transform="translate(-1723.208 -555.86)" fill="#0059ab"/>
          </g>
          <g id="Grupo_152444" data-name="Grupo 152444" transform="translate(2.929 106.205)">
            <path id="Trazado_204523" data-name="Trazado 204523" d="M1708.187,549.5a9.3,9.3,0,1,1-9.3-9.3A9.3,9.3,0,0,1,1708.187,549.5Z" transform="translate(-1688.39 -539.006)" fill="#75b62f"/>
            <path id="Trazado_204524" data-name="Trazado 204524" d="M1697.774,558.883a10.494,10.494,0,1,1,10.495-10.493A10.506,10.506,0,0,1,1697.774,558.883Zm0-18.6a8.109,8.109,0,1,0,8.109,8.11A8.119,8.119,0,0,0,1697.774,540.28Z" transform="translate(-1687.28 -537.895)" fill="#0059ab"/>
          </g>
          <g id="Grupo_152445" data-name="Grupo 152445" transform="translate(21.533 73.991)">
            <path id="Trazado_204525" data-name="Trazado 204525" d="M1778.443,478.066H1724.4a1.192,1.192,0,1,1,0-2.385h54.041a1.192,1.192,0,1,1,0,2.385Z" transform="translate(-1723.209 -475.682)" fill="#0059ab"/>
          </g>
          <g id="Grupo_152446" data-name="Grupo 152446" transform="translate(2.929 64.688)">
            <path id="Trazado_204526" data-name="Trazado 204526" d="M1708.187,469.322a9.3,9.3,0,1,1-9.3-9.3A9.3,9.3,0,0,1,1708.187,469.322Z" transform="translate(-1688.39 -458.828)" fill="#75b62f"/>
            <path id="Trazado_204527" data-name="Trazado 204527" d="M1697.774,478.705a10.494,10.494,0,1,1,10.495-10.493A10.506,10.506,0,0,1,1697.774,478.705Zm0-18.6a8.109,8.109,0,1,0,8.109,8.11A8.119,8.119,0,0,0,1697.774,460.1Z" transform="translate(-1687.28 -457.717)" fill="#0059ab"/>
          </g>
          <g id="Grupo_152455" data-name="Grupo 152455" transform="translate(45.564 24.459)">
            <g id="Grupo_152447" data-name="Grupo 152447" transform="translate(0.111 70.455)">
              <path id="Trazado_204528" data-name="Trazado 204528" d="M1772.137,573.341v-33.4a21.55,21.55,0,0,1,21.548-21.55h41.4c3.02,0,12.53-.4,16.861,9.232.128.285.269.564.386.854l10.726,26.6-6.138,31.244Z" transform="translate(-1770.944 -517.2)" fill="#fff"/>
              <path id="Trazado_204529" data-name="Trazado 204529" d="M1855.811,586.411a1.174,1.174,0,0,1-.231-.023,1.192,1.192,0,0,1-.94-1.4l6.07-30.9-10.594-26.275c-.067-.165-.144-.329-.221-.493l-.147-.317c-3.859-8.579-12.26-8.518-15.423-8.53h-41.75a20.38,20.38,0,0,0-20.355,20.357v33.4a1.193,1.193,0,0,1-2.386,0v-33.4a22.768,22.768,0,0,1,22.74-22.742l41.74,0c3.243,0,13.114-.056,17.609,9.937l.131.284c.094.2.189.4.272.61l10.727,26.607a1.2,1.2,0,0,1,.064.676l-6.138,31.244A1.193,1.193,0,0,1,1855.811,586.411Z" transform="translate(-1769.834 -516.09)" fill="#0059ab"/>
            </g>
            <g id="Grupo_152448" data-name="Grupo 152448" transform="translate(0 99.153)">
              <path id="Trazado_204530" data-name="Trazado 204530" d="M1789.6,574.422v21.7a5,5,0,0,0,5,5h22.38c4.239,0,7.936,6.255,8.063,10.492.131,4.385-3.384,8.948-7.739,8.948h-37.017a7.712,7.712,0,0,1-5.713-2.53,8.8,8.8,0,0,1-2.652-6.306V573.816Z" transform="translate(-1770.73 -572.624)" fill="#fff"/>
              <path id="Trazado_204531" data-name="Trazado 204531" d="M1816.194,620.645h-37.017a8.951,8.951,0,0,1-6.594-2.918,9.907,9.907,0,0,1-2.964-7.11V572.705a1.193,1.193,0,0,1,2.385,0v37.911a7.583,7.583,0,0,0,2.295,5.455,6.608,6.608,0,0,0,4.878,2.189h37.017a5.966,5.966,0,0,0,4.233-1.954,8.131,8.131,0,0,0,2.313-5.766c-.117-3.9-3.6-9.335-6.871-9.335h-22.38a6.2,6.2,0,0,1-6.2-6.2v-21.7a1.193,1.193,0,0,1,2.385,0v21.7a3.815,3.815,0,0,0,3.811,3.81h22.38c5.081,0,9.117,7.066,9.255,11.649a10.561,10.561,0,0,1-2.985,7.5A8.321,8.321,0,0,1,1816.194,620.645Z" transform="translate(-1769.619 -571.513)" fill="#0059ab"/>
            </g>
            <g id="Grupo_152449" data-name="Grupo 152449" transform="translate(67.104 98.494)">
              <path id="Trazado_204532" data-name="Trazado 204532" d="M1925.25,572.546c2.843,12.749,5.014,24.5,5.18,25.4a7.654,7.654,0,0,1-6.1,8.944l-12.6,2.988a7.908,7.908,0,0,1-5.735-.821l-.478-.272a7.909,7.909,0,0,1,1.39-14.371l15.379-5.17Z" transform="translate(-1900.328 -571.352)" fill="#fff"/>
              <path id="Trazado_204533" data-name="Trazado 204533" d="M1908.79,610.173a9.07,9.07,0,0,1-4.493-1.193l-.478-.272a9.056,9.056,0,0,1-4.384-9.887,9.153,9.153,0,0,1,5.984-6.65L1920.8,587a1.192,1.192,0,1,1,.76,2.26l-15.378,5.17a6.754,6.754,0,0,0-4.415,4.907,6.681,6.681,0,0,0,3.235,7.3l.478.272a6.7,6.7,0,0,0,4.87.7l12.6-2.988a6.465,6.465,0,0,0,5.2-7.561c-.237-1.284-2.384-12.857-5.172-25.361a1.193,1.193,0,1,1,2.328-.519c2.8,12.546,4.953,24.16,5.189,25.442a8.846,8.846,0,0,1-7.049,10.332l-12.543,2.977A9.143,9.143,0,0,1,1908.79,610.173Z" transform="translate(-1899.214 -570.24)" fill="#0059ab"/>
            </g>
            <g id="Grupo_152450" data-name="Grupo 152450" transform="translate(44.188 91.375)">
              <path id="Trazado_204534" data-name="Trazado 204534" d="M1890.391,603.245a7.907,7.907,0,0,1-5.735-.821l-.478-.272a7.909,7.909,0,0,1,1.39-14.371l15.379-5.17,3.781-23.818h-40.876l-6.593,54.526h40.63l.9-11.9.02-.173Z" transform="translate(-1856.068 -557.602)" fill="#dce736"/>
              <path id="Trazado_204535" data-name="Trazado 204535" d="M1896.78,613.4h-40.63a1.191,1.191,0,0,1-1.184-1.335l6.593-54.526a1.193,1.193,0,0,1,1.184-1.049h40.876a1.192,1.192,0,0,1,1.178,1.38l-3.781,23.818a1.191,1.191,0,0,1-.8.943l-15.379,5.17a6.755,6.755,0,0,0-4.415,4.907,6.68,6.68,0,0,0,3.235,7.3l.478.272a6.686,6.686,0,0,0,4.869.7l8.421-2a1.192,1.192,0,0,1,1.46,1.3l-.02.172-.9,11.854A1.193,1.193,0,0,1,1896.78,613.4Zm-39.284-2.384h38.178l.708-9.341-6.826,1.619a9.065,9.065,0,0,1-6.6-.944l-.477-.272a9.054,9.054,0,0,1-4.384-9.887,9.153,9.153,0,0,1,5.984-6.65l14.694-4.94,3.449-21.725H1863.8Z" transform="translate(-1854.957 -556.491)" fill="#dce736"/>
            </g>
            <g id="Grupo_152454" data-name="Grupo 152454" transform="translate(14.531)">
              <g id="Grupo_152451" data-name="Grupo 152451" transform="translate(18.546 60.025)">
                <path id="Trazado_204536" data-name="Trazado 204536" d="M1857.048,498.248v11.86a10.624,10.624,0,1,1-21.247,0V498.8Z" transform="translate(-1834.608 -497.056)" fill="#fff"/>
                <path id="Trazado_204537" data-name="Trazado 204537" d="M1845.314,520.814A11.829,11.829,0,0,1,1833.5,509V497.69a1.193,1.193,0,0,1,2.385,0V509a9.431,9.431,0,0,0,18.862,0v-11.86a1.193,1.193,0,0,1,2.385,0V509A11.829,11.829,0,0,1,1845.314,520.814Z" transform="translate(-1833.497 -495.946)" fill="#0059ab"/>
              </g>
              <g id="Grupo_152452" data-name="Grupo 152452" transform="translate(2.015)">
                <path id="Trazado_204538" data-name="Trazado 204538" d="M1849.921,387.391c4.579,1.438,8.122,5.682,8.122,11.876v15.493l-54.167.169V399.32a16.993,16.993,0,0,1,16.993-16.993h30.4Z" transform="translate(-1802.683 -381.134)" fill="#3d46c2"/>
                <path id="Trazado_204539" data-name="Trazado 204539" d="M1802.765,415.01a1.192,1.192,0,0,1-1.193-1.193V398.21a18.207,18.207,0,0,1,18.186-18.186h30.4a1.192,1.192,0,0,1,1.153,1.5l-1.069,4.008c4.891,2.016,7.88,6.751,7.88,12.624v15.493a1.192,1.192,0,0,1-1.189,1.192l-54.167.169Zm16.993-32.6a15.819,15.819,0,0,0-15.8,15.8v14.411l51.781-.161v-14.3c0-5.212-2.791-9.327-7.286-10.738a1.193,1.193,0,0,1-.8-1.445l.951-3.565Z" transform="translate(-1801.572 -380.024)" fill="#3d46c2"/>
              </g>
              <g id="Grupo_152453" data-name="Grupo 152453" transform="translate(0 10.142)">
                <path id="Trazado_204540" data-name="Trazado 204540" d="M1849.725,421.3v-2.283a17.1,17.1,0,0,0-17.1-17.1h-7.056a17.1,17.1,0,0,0-17.1,17.1v2.29a8.593,8.593,0,0,0,0,17.184v.7a18.693,18.693,0,0,0,18.692,18.693h3.88a18.694,18.694,0,0,0,18.693-18.693V438.5a8.6,8.6,0,1,0,0-17.2Z" transform="translate(-1798.792 -400.72)" fill="#fff"/>
                <path id="Trazado_204541" data-name="Trazado 204541" d="M1829.922,457.966h-3.879a19.909,19.909,0,0,1-19.881-19.48,9.785,9.785,0,0,1,0-19.395v-1.185a18.318,18.318,0,0,1,18.3-18.3h7.056a18.318,18.318,0,0,1,18.3,18.3v1.162a9.792,9.792,0,0,1,0,19.438A19.909,19.909,0,0,1,1829.922,457.966Zm-5.467-55.971a15.93,15.93,0,0,0-15.911,15.912v2.29a1.192,1.192,0,0,1-1.176,1.193,7.4,7.4,0,0,0,0,14.8,1.193,1.193,0,0,1,1.176,1.193v.7a17.52,17.52,0,0,0,17.5,17.5h3.879a17.52,17.52,0,0,0,17.5-17.5v-.694a1.193,1.193,0,0,1,1.192-1.193,7.406,7.406,0,0,0,0-14.811,1.192,1.192,0,0,1-1.192-1.193v-2.283a15.93,15.93,0,0,0-15.912-15.912Z" transform="translate(-1797.681 -399.61)" fill="#0059ab"/>
              </g>
            </g>
          </g>
        </g>
        <g id="Grupo_152468" data-name="Grupo 152468" transform="translate(-10531.531 -2498.427)">
          <g id="Grupo_152464" data-name="Grupo 152464" transform="translate(0)">
            <g id="Grupo_152457" data-name="Grupo 152457">
              <circle id="Elipse_12823" data-name="Elipse 12823" cx="47.136" cy="47.136" r="47.136" transform="translate(0 66.661) rotate(-45)" fill="#75b62f"/>
              <path id="Trazado_204542" data-name="Trazado 204542" d="M2052.106,613.794c-.288,0-.576,0-.865-.007a48.329,48.329,0,1,1,49.164-47.479l-1.193-.021,1.193.021a48.329,48.329,0,0,1-48.3,47.487Zm-.044-94.273a45.909,45.909,0,1,0,.823.007C2052.611,519.523,2052.336,519.521,2052.062,519.521Z" transform="translate(-1985.423 -498.804)" fill="#0059ab"/>
            </g>
            <g id="Grupo_152459" data-name="Grupo 152459" transform="translate(31.676 80.353)">
              <g id="Grupo_152458" data-name="Grupo 152458">
                <path id="Trazado_204543" data-name="Trazado 204543" d="M2099.185,657.4a8.384,8.384,0,0,0-5.707-5.128c-4.4-1.2-11.452-2.182-15.4-3.393a4.924,4.924,0,0,1-3.473-4.793l.08-4.549-18.6-.325-.079,4.549a4.922,4.922,0,0,1-3.638,4.668c-3.983,1.073-10.051,2.154-14.488,3.2a8.573,8.573,0,0,0-6.052,5.282,47.3,47.3,0,0,0,33.208,14.826C2085.915,672.052,2099.185,657.4,2099.185,657.4Z" transform="translate(-2030.636 -638.024)" fill="#fff"/>
                <path id="Trazado_204544" data-name="Trazado 204544" d="M2064.6,671.828c-.228,0-.457,0-.687-.005a48.05,48.05,0,0,1-34.1-15.246,1.191,1.191,0,0,1-.206-1.2,9.757,9.757,0,0,1,6.893-6.019c1.86-.437,4.038-.888,6.144-1.325,2.957-.613,6.014-1.246,8.307-1.864a3.747,3.747,0,0,0,2.756-3.538l.079-4.549a1.188,1.188,0,0,1,.364-.837,1.226,1.226,0,0,1,.849-.335l18.6.325a1.192,1.192,0,0,1,1.172,1.213l-.079,4.549a3.746,3.746,0,0,0,2.631,3.632c2.037.626,5.041,1.21,7.945,1.775,2.612.508,5.313,1.034,7.414,1.607a9.574,9.574,0,0,1,6.507,5.853,1.193,1.193,0,0,1-.231,1.226C2098.407,657.7,2085.369,671.828,2064.6,671.828Zm-32.474-16.258c2.471,2.585,14.03,13.6,31.823,13.868,17.817.223,30.077-10.793,32.714-13.4a7.224,7.224,0,0,0-4.606-3.721c-2.015-.549-4.672-1.066-7.241-1.567-2.966-.577-6.032-1.173-8.19-1.837a6.142,6.142,0,0,1-4.315-5.954l.059-3.356-16.219-.283-.059,3.356a6.144,6.144,0,0,1-4.52,5.8c-2.361.636-5.453,1.277-8.444,1.9-2.091.432-4.252.88-6.081,1.312A7.381,7.381,0,0,0,2032.122,655.57Z" transform="translate(-2029.525 -636.914)" fill="#0059ab"/>
              </g>
            </g>
            <g id="Grupo_152460" data-name="Grupo 152460" transform="translate(54.035 89.409)">
              <path id="Trazado_204545" data-name="Trazado 204545" d="M2085.448,661.743a17.438,17.438,0,0,1-12.376-5.287,1.193,1.193,0,0,1,1.653-1.721c10.389,9.99,21.836.934,22.318.544a1.192,1.192,0,1,1,1.5,1.853C2098.457,657.2,2092.721,661.743,2085.448,661.743Z" transform="translate(-2072.706 -654.403)" fill="#0059ab"/>
            </g>
            <g id="Grupo_152461" data-name="Grupo 152461" transform="translate(42.865 27.75)">
              <path id="Trazado_204546" data-name="Trazado 204546" d="M2092.683,541.857a8.659,8.659,0,0,0,1.1-4.23H2067.9a14.467,14.467,0,0,0-14.467,14.467v19.865l46.113.991v-20.9C2099.55,546.775,2096.581,543.08,2092.683,541.857Z" transform="translate(-2052.244 -536.434)" fill="#cff1ff"/>
              <path id="Trazado_204547" data-name="Trazado 204547" d="M2098.44,573.033l-46.139-.992a1.192,1.192,0,0,1-1.167-1.193V550.983a15.677,15.677,0,0,1,15.659-15.659h25.883a1.192,1.192,0,0,1,1.192,1.193,9.831,9.831,0,0,1-.676,3.577c3.953,1.82,6.441,5.935,6.441,10.844v20.9a1.193,1.193,0,0,1-1.193,1.192Zm-44.92-3.352,43.728.941V550.938c0-4.4-2.29-7.854-5.979-9.037a1.193,1.193,0,0,1-.74-1.74,7.449,7.449,0,0,0,.859-2.452h-24.593a13.289,13.289,0,0,0-13.274,13.274Z" transform="translate(-2051.134 -535.324)" fill="#0059ab"/>
            </g>
            <g id="Grupo_152462" data-name="Grupo 152462" transform="translate(41.15 37.267)">
              <path id="Trazado_204548" data-name="Trazado 204548" d="M2092.471,572.513V570.57a14.561,14.561,0,0,0-14.562-14.562H2071.9a14.561,14.561,0,0,0-14.562,14.562v1.949a7.315,7.315,0,0,0,0,14.628v.6a15.914,15.914,0,0,0,15.914,15.914h3.3a15.914,15.914,0,0,0,15.915-15.914v-.591a7.32,7.32,0,0,0,0-14.639Z" transform="translate(-2048.932 -554.816)" fill="#fff"/>
              <path id="Trazado_204549" data-name="Trazado 204549" d="M2075.446,603.739h-3.3a17.127,17.127,0,0,1-17.1-16.607,8.507,8.507,0,0,1-.007-16.818v-.854a15.772,15.772,0,0,1,15.754-15.754h6.006a15.772,15.772,0,0,1,15.754,15.754v.834a8.513,8.513,0,0,1-.008,16.86A17.128,17.128,0,0,1,2075.446,603.739Zm-4.654-47.649a13.384,13.384,0,0,0-13.369,13.369v1.948a1.192,1.192,0,0,1-1.176,1.193,6.123,6.123,0,0,0,0,12.244,1.192,1.192,0,0,1,1.176,1.192v.6a14.738,14.738,0,0,0,14.722,14.721h3.3a14.738,14.738,0,0,0,14.722-14.721v-.591a1.193,1.193,0,0,1,1.192-1.193,6.127,6.127,0,0,0,0-12.254,1.193,1.193,0,0,1-1.192-1.192v-1.943A13.384,13.384,0,0,0,2076.8,556.09Z" transform="translate(-2047.822 -553.705)" fill="#0059ab"/>
            </g>
            <g id="Grupo_152463" data-name="Grupo 152463" transform="translate(60.15 72.639)">
              <path id="Trazado_204550" data-name="Trazado 204550" d="M2098.484,624.319a8.246,8.246,0,0,1-11.665,0Z" transform="translate(-2085.626 -623.127)" fill="#fff"/>
              <path id="Trazado_204551" data-name="Trazado 204551" d="M2091.541,626.818a9.376,9.376,0,0,1-6.676-2.766,1.193,1.193,0,1,1,1.687-1.686,7.056,7.056,0,0,0,9.978,0,1.193,1.193,0,1,1,1.688,1.686A9.378,9.378,0,0,1,2091.541,626.818Z" transform="translate(-2084.516 -622.016)" fill="#0059ab"/>
            </g>
          </g>
          <g id="Grupo_152465" data-name="Grupo 152465" transform="translate(12.891 111.533)">
            <path id="Trazado_204552" data-name="Trazado 204552" d="M2083.579,736.313a9.755,9.755,0,0,0-3.522-.62l-36.371.371a18.689,18.689,0,0,1-7.845-1.638l-14.271-6.408a18.683,18.683,0,0,1-5.56-3.834L1996.3,704.474a2.55,2.55,0,0,1,.978-4.216l.762-.261a10.65,10.65,0,0,1,9.488,1.306l22.346,15.394,14.888-.442,54.179-3.809,3.831,2.392Z" transform="translate(-1994.359 -698.237)" fill="#fff"/>
            <path id="Trazado_204553" data-name="Trazado 204553" d="M2082.467,736.4a1.19,1.19,0,0,1-.418-.077,8.773,8.773,0,0,0-3.09-.545l-36.371.372a19.793,19.793,0,0,1-8.345-1.743L2019.97,728a19.806,19.806,0,0,1-5.915-4.078l-19.711-19.71a3.743,3.743,0,0,1,1.435-6.188l.762-.261a11.9,11.9,0,0,1,10.551,1.453l22.025,15.172,14.5-.431,54.13-3.807a1.211,1.211,0,0,1,.716.178l3.831,2.392a1.193,1.193,0,0,1-1.264,2.024l-3.5-2.186-53.792,3.783-14.937.444a1.221,1.221,0,0,1-.712-.211L2005.74,701.18a9.494,9.494,0,0,0-8.425-1.16l-.762.261a1.357,1.357,0,0,0-.521,2.244l19.711,19.71a17.418,17.418,0,0,0,5.2,3.589l14.272,6.408a18.035,18.035,0,0,0,7.344,1.534l36.371-.372a10.485,10.485,0,0,1,3.952.7,1.193,1.193,0,0,1-.419,2.31Z" transform="translate(-1993.247 -697.131)" fill="#0059ab"/>
          </g>
          <g id="Grupo_152466" data-name="Grupo 152466" transform="translate(12.891 111.533)">
            <path id="Trazado_204554" data-name="Trazado 204554" d="M2044.762,716.255l-14.888.442L2007.528,701.3A10.65,10.65,0,0,0,1998.04,700l-.762.261a2.55,2.55,0,0,0-.978,4.216l19.711,19.711a18.683,18.683,0,0,0,5.56,3.834l14.271,6.408a18.689,18.689,0,0,0,7.845,1.638l36.371-.371a9.755,9.755,0,0,1,3.522.62Z" transform="translate(-1994.359 -698.237)" fill="#fff"/>
            <path id="Trazado_204555" data-name="Trazado 204555" d="M2082.467,736.4a1.19,1.19,0,0,1-.418-.077,8.3,8.3,0,0,0-3.09-.545l-36.371.372a19.75,19.75,0,0,1-8.345-1.743L2019.97,728a19.806,19.806,0,0,1-5.915-4.078l-19.711-19.71a3.743,3.743,0,0,1,1.435-6.188l.762-.261a11.9,11.9,0,0,1,10.551,1.453l22.025,15.172,14.5-.431a1.193,1.193,0,0,1,.071,2.385l-14.889.442a1.221,1.221,0,0,1-.712-.211L2005.74,701.18a9.494,9.494,0,0,0-8.425-1.16l-.762.261a1.357,1.357,0,0,0-.521,2.244l19.711,19.71a17.418,17.418,0,0,0,5.2,3.589l14.272,6.408a17.654,17.654,0,0,0,7.344,1.534l36.371-.372a10.337,10.337,0,0,1,3.952.7,1.193,1.193,0,0,1-.419,2.31Z" transform="translate(-1993.247 -697.131)" fill="#0059ab"/>
          </g>
          <g id="Grupo_152467" data-name="Grupo 152467" transform="translate(61.446 116.276)">
            <path id="Trazado_204556" data-name="Trazado 204556" d="M2146.314,718.3l-10.51-6.263a20.961,20.961,0,0,0-14.327-3.254l-27.753,3.762a5.3,5.3,0,0,0,.645,10.522l24.254,1.385Z" transform="translate(-2088.13 -707.401)" fill="#fff"/>
            <path id="Trazado_204557" data-name="Trazado 204557" d="M2117.513,724.534c-.023,0-.046,0-.069,0l-24.254-1.385a6.5,6.5,0,0,1-.78-12.888l27.8-3.769a22.157,22.157,0,0,1,15.142,3.439l10.465,6.235a1.193,1.193,0,1,1-1.221,2.05l-10.51-6.263a19.815,19.815,0,0,0-13.556-3.1l-27.754,3.762a4.11,4.11,0,0,0,.542,8.149l24.265,1.386a1.193,1.193,0,0,1-.067,2.383Z" transform="translate(-2087.019 -706.29)" fill="#0059ab"/>
          </g>
        </g>
        <g id="Grupo_152499" data-name="Grupo 152499" transform="translate(-10539.549 -2638.394)">
          <g id="_Direct_Marketing" data-name=" Direct Marketing" transform="translate(0)">
            <g id="Grupo_152493" data-name="Grupo 152493">
              <g id="Grupo_152471" data-name="Grupo 152471" transform="translate(38.971)">
                <g id="Grupo_152469" data-name="Grupo 152469" transform="translate(8.811 12.007)">
                  <path id="Trazado_204558" data-name="Trazado 204558" d="M2051.347,245.824l-3.894-8.913Z" transform="translate(-2046.26 -235.719)" fill="#fff"/>
                  <path id="Trazado_204559" data-name="Trazado 204559" d="M2050.236,245.907a1.193,1.193,0,0,1-1.094-.716l-3.894-8.913a1.193,1.193,0,1,1,2.186-.954l3.894,8.913a1.193,1.193,0,0,1-1.093,1.67Z" transform="translate(-2045.149 -234.61)" fill="#0059ab"/>
                </g>
                <g id="Grupo_152470" data-name="Grupo 152470">
                  <path id="Trazado_204560" data-name="Trazado 204560" d="M2042.538,222.323a6.272,6.272,0,1,1-3.5-8.151A6.272,6.272,0,0,1,2042.538,222.323Z" transform="translate(-2029.245 -212.532)" fill="#cff1ff"/>
                  <path id="Trazado_204561" data-name="Trazado 204561" d="M2035.6,226.357a7.482,7.482,0,1,1,2.943-.609A7.462,7.462,0,0,1,2035.6,226.357Zm.005-12.548a5.08,5.08,0,1,0,1.877.362A5.088,5.088,0,0,0,2035.607,213.808Z" transform="translate(-2028.132 -211.422)" fill="#0059ab"/>
                </g>
              </g>
              <g id="Grupo_152474" data-name="Grupo 152474" transform="translate(0 40.083)">
                <g id="Grupo_152472" data-name="Grupo 152472" transform="translate(11.942 8.957)">
                  <path id="Trazado_204562" data-name="Trazado 204562" d="M1986.159,312.259l-7.922-3.826Z" transform="translate(-1977.044 -307.241)" fill="#fff"/>
                  <path id="Trazado_204563" data-name="Trazado 204563" d="M1985.047,312.341a1.193,1.193,0,0,1-.518-.119l-7.922-3.826a1.193,1.193,0,1,1,1.038-2.148l7.922,3.825a1.193,1.193,0,0,1-.519,2.267Z" transform="translate(-1975.932 -306.13)" fill="#0059ab"/>
                </g>
                <g id="Grupo_152473" data-name="Grupo 152473">
                  <circle id="Elipse_12824" data-name="Elipse 12824" cx="6.272" cy="6.272" r="6.272" transform="matrix(0.99, -0.144, 0.144, 0.99, 0.36, 2.164)" fill="#cff1ff"/>
                  <path id="Trazado_204564" data-name="Trazado 204564" d="M1960.332,303.77a7.472,7.472,0,1,1,2.443-.412A7.432,7.432,0,0,1,1960.332,303.77Zm.01-12.549a5.088,5.088,0,1,0,2.217.514A5.08,5.08,0,0,0,1960.342,291.22Z" transform="translate(-1952.869 -288.832)" fill="#0059ab"/>
                </g>
              </g>
              <g id="Grupo_152477" data-name="Grupo 152477" transform="translate(1.242 97.7)">
                <g id="Grupo_152475" data-name="Grupo 152475" transform="translate(12.009 0.43)">
                  <path id="Trazado_204565" data-name="Trazado 204565" d="M1988.466,403.24l-7.7,3.306Z" transform="translate(-1979.57 -402.046)" fill="#fff"/>
                  <path id="Trazado_204566" data-name="Trazado 204566" d="M1979.653,406.628a1.193,1.193,0,0,1-.471-2.289l7.7-3.306a1.193,1.193,0,0,1,.941,2.192l-7.7,3.305A1.172,1.172,0,0,1,1979.653,406.628Z" transform="translate(-1978.46 -400.935)" fill="#0059ab"/>
                </g>
                <g id="Grupo_152476" data-name="Grupo 152476">
                  <path id="Trazado_204567" data-name="Trazado 204567" d="M1966.176,402.856a6.272,6.272,0,1,1-8.151,3.5A6.272,6.272,0,0,1,1966.176,402.856Z" transform="translate(-1956.38 -401.215)" fill="#cff1ff"/>
                  <path id="Trazado_204568" data-name="Trazado 204568" d="M1962.727,415.035a7.465,7.465,0,1,1,6.941-4.7A7.427,7.427,0,0,1,1962.727,415.035Zm.015-12.544a5.079,5.079,0,1,0,1.878.362A5.087,5.087,0,0,0,1962.742,402.491Z" transform="translate(-1955.267 -400.105)" fill="#0059ab"/>
                </g>
              </g>
              <g id="Grupo_152480" data-name="Grupo 152480" transform="translate(40.146 128.35)">
                <g id="Grupo_152478" data-name="Grupo 152478" transform="translate(9.911)">
                  <path id="Trazado_204569" data-name="Trazado 204569" d="M2055.217,461.6l-3.372,8.448Z" transform="translate(-2050.652 -460.41)" fill="#fff"/>
                  <path id="Trazado_204570" data-name="Trazado 204570" d="M2050.734,470.133a1.194,1.194,0,0,1-1.108-1.635L2053,460.05a1.193,1.193,0,1,1,2.216.883l-3.372,8.449A1.194,1.194,0,0,1,2050.734,470.133Z" transform="translate(-2049.542 -459.298)" fill="#0059ab"/>
                </g>
                <g id="Grupo_152479" data-name="Grupo 152479" transform="translate(0 6.63)">
                  <circle id="Elipse_12825" data-name="Elipse 12825" cx="6.272" cy="6.272" r="6.272" transform="translate(0 8.87) rotate(-45)" fill="#2db5ff"/>
                  <path id="Trazado_204571" data-name="Trazado 204571" d="M2040.581,489.749a7.472,7.472,0,1,1,2.973-.622A7.464,7.464,0,0,1,2040.581,489.749Zm-2.026-12.126a5.079,5.079,0,1,0,6.682,2.634,5.084,5.084,0,0,0-6.682-2.634Z" transform="translate(-2031.709 -473.411)" fill="#0059ab"/>
                </g>
              </g>
              <g id="Grupo_152483" data-name="Grupo 152483" transform="translate(96.16 1.826)">
                <g id="Grupo_152481" data-name="Grupo 152481" transform="translate(0 11.858)">
                  <path id="Trazado_204572" data-name="Trazado 204572" d="M2140.881,247.253l3.574-7.1Z" transform="translate(-2139.688 -238.96)" fill="#fff"/>
                  <path id="Trazado_204573" data-name="Trazado 204573" d="M2139.769,247.334a1.193,1.193,0,0,1-1.065-1.729l3.574-7.1a1.193,1.193,0,0,1,2.131,1.073l-3.574,7.1A1.193,1.193,0,0,1,2139.769,247.334Z" transform="translate(-2138.577 -237.849)" fill="#0059ab"/>
                </g>
                <g id="Grupo_152482" data-name="Grupo 152482" transform="translate(0.146)">
                  <path id="Trazado_204574" data-name="Trazado 204574" d="M2141.5,225.527a6.272,6.272,0,1,0,3.94-7.946A6.272,6.272,0,0,0,2141.5,225.527Z" transform="translate(-2139.97 -216.059)" fill="#2db5ff"/>
                  <path id="Trazado_204575" data-name="Trazado 204575" d="M2146.319,229.882a7.473,7.473,0,1,1,2.39-.394A7.43,7.43,0,0,1,2146.319,229.882Zm0-12.548a5.08,5.08,0,1,0,4.817,3.457A5.072,5.072,0,0,0,2146.322,217.334Z" transform="translate(-2138.857 -214.949)" fill="#0059ab"/>
                </g>
              </g>
              <g id="Grupo_152486" data-name="Grupo 152486" transform="translate(128.376 41.017)">
                <g id="Grupo_152484" data-name="Grupo 152484" transform="translate(0 8.636)">
                  <path id="Trazado_204576" data-name="Trazado 204576" d="M2203.1,313.1l8.4-3.482Z" transform="translate(-2201.906 -308.425)" fill="#fff"/>
                  <path id="Trazado_204577" data-name="Trazado 204577" d="M2201.989,313.182a1.193,1.193,0,0,1-.457-2.3l8.4-3.481a1.193,1.193,0,0,1,.913,2.2l-8.4,3.481A1.182,1.182,0,0,1,2201.989,313.182Z" transform="translate(-2200.795 -307.314)" fill="#0059ab"/>
                </g>
                <g id="Grupo_152485" data-name="Grupo 152485" transform="translate(7.937)">
                  <path id="Trazado_204578" data-name="Trazado 204578" d="M2218.89,296.838a6.272,6.272,0,1,0,8.177-3.436A6.271,6.271,0,0,0,2218.89,296.838Z" transform="translate(-2217.232 -291.745)" fill="#cff1ff"/>
                  <path id="Trazado_204579" data-name="Trazado 204579" d="M2223.577,305.565a7.465,7.465,0,1,1,6.921-4.644A7.44,7.44,0,0,1,2223.577,305.565Zm.017-12.544a5.08,5.08,0,1,0,1.913.377A5.088,5.088,0,0,0,2223.594,293.021Z" transform="translate(-2216.123 -290.636)" fill="#0059ab"/>
                </g>
              </g>
              <g id="Grupo_152489" data-name="Grupo 152489" transform="translate(130.131 96.413)">
                <g id="Grupo_152487" data-name="Grupo 152487" transform="translate(0 1.752)">
                  <path id="Trazado_204580" data-name="Trazado 204580" d="M2206.488,403.309l7.7,3.306Z" transform="translate(-2205.295 -402.115)" fill="#fff"/>
                  <path id="Trazado_204581" data-name="Trazado 204581" d="M2213.08,406.7a1.172,1.172,0,0,1-.469-.1l-7.7-3.306a1.192,1.192,0,1,1,.941-2.191l7.7,3.306a1.193,1.193,0,0,1-.471,2.289Z" transform="translate(-2204.185 -401.002)" fill="#0059ab"/>
                </g>
                <g id="Grupo_152488" data-name="Grupo 152488" transform="translate(5.842 0)">
                  <circle id="Elipse_12826" data-name="Elipse 12826" cx="6.272" cy="6.272" r="6.272" transform="matrix(0.797, -0.605, 0.605, 0.797, 0, 7.584)" fill="#cff1ff"/>
                  <path id="Trazado_204582" data-name="Trazado 204582" d="M2225.491,415.1a7.463,7.463,0,1,1,2.76-.532A7.476,7.476,0,0,1,2225.491,415.1Zm-1.893-12.181a5.079,5.079,0,1,0,6.6,2.832,5.043,5.043,0,0,0-6.6-2.832Z" transform="translate(-2216.695 -398.851)" fill="#0059ab"/>
                </g>
              </g>
              <g id="Grupo_152492" data-name="Grupo 152492" transform="translate(96.991 128.387)">
                <g id="Grupo_152490" data-name="Grupo 152490" transform="translate(0.665)">
                  <path id="Trazado_204583" data-name="Trazado 204583" d="M2143.771,461.672l3.372,8.448Z" transform="translate(-2142.578 -460.48)" fill="#fff"/>
                  <path id="Trazado_204584" data-name="Trazado 204584" d="M2146.032,470.2a1.192,1.192,0,0,1-1.108-.751L2141.552,461a1.193,1.193,0,1,1,2.216-.883l3.372,8.448a1.194,1.194,0,0,1-1.107,1.635Z" transform="translate(-2141.467 -459.37)" fill="#0059ab"/>
                </g>
                <g id="Grupo_152491" data-name="Grupo 152491" transform="translate(0 8.03)">
                  <path id="Trazado_204585" data-name="Trazado 204585" d="M2151.256,477.706a6.272,6.272,0,1,0,3.252,8.252A6.271,6.271,0,0,0,2151.256,477.706Z" transform="translate(-2141.292 -475.99)" fill="#cff1ff"/>
                  <path id="Trazado_204586" data-name="Trazado 204586" d="M2147.646,489.814a7.481,7.481,0,1,1,2.739-.523A7.455,7.455,0,0,1,2147.646,489.814Zm0-12.549a5.09,5.09,0,1,0,2.023.424A5.095,5.095,0,0,0,2147.649,477.264Z" transform="translate(-2140.183 -474.878)" fill="#0059ab"/>
                </g>
              </g>
            </g>
            <g id="Grupo_152495" data-name="Grupo 152495" transform="translate(17.503 18.049)">
              <g id="Grupo_152494" data-name="Grupo 152494">
                <path id="Trazado_204587" data-name="Trazado 204587" d="M2101.818,288.62l.916,2.194a3.813,3.813,0,0,1-2.127,4.955l-6.415,2.563a44.208,44.208,0,0,1-.392,17.79l6.665,2.777a3.808,3.808,0,0,1,2.03,5.027l-4.671,10.793a3.813,3.813,0,0,1-4.979,2l-7.021-2.958c-3.424,4.879-6.274,8.144-11.69,11.62l-.32.452,2.756,5.518a3.813,3.813,0,0,1-1.989,4.993L2063.851,361a3.813,3.813,0,0,1-5.045-2.045l-2.854-6.928c-5.778,1.165-13.006.808-17.374.388l-2.749,6.883a3.814,3.814,0,0,1-4.955,2.127l-12.479-4.984a3.813,3.813,0,0,1-2.126-4.955l2.749-6.883a43.435,43.435,0,0,1-12.451-12.313l-6.747,3.058a3.813,3.813,0,0,1-5.079-1.973l-4.636-10.83a3.813,3.813,0,0,1,1.99-5l7.084-3.066a45.633,45.633,0,0,1-.262-17.986l-7.542-3.012a3.813,3.813,0,0,1-2.126-4.955l4.2-10.523a3.813,3.813,0,0,1,4.956-2.127l7.461,2.98a46.276,46.276,0,0,1,12.554-13.091l-2.958-7.021a3.813,3.813,0,0,1,2-4.98l10.792-4.671a3.807,3.807,0,0,1,5.027,2.03l2.777,6.665a44.2,44.2,0,0,1,17.79-.391l2.563-6.416a3.813,3.813,0,0,1,4.956-2.127l12.479,4.984a3.813,3.813,0,0,1,2.126,4.955l-2.562,6.416c3.448,2.724,9.078,7.581,12.489,12.505l6.278-2.917a3.813,3.813,0,0,1,5.112,1.959Z" transform="translate(-1987.781 -247.391)" fill="#fff"/>
                <path id="Trazado_204588" data-name="Trazado 204588" d="M2031.172,361.782a4.969,4.969,0,0,1-1.85-.357l-12.479-4.984a5.007,5.007,0,0,1-2.792-6.506l2.388-5.98a43.825,43.825,0,0,1-11.384-11.282l-5.854,2.651a5.006,5.006,0,0,1-6.668-2.589l-4.636-10.83a5.015,5.015,0,0,1,2.614-6.564l6.2-2.683a46.827,46.827,0,0,1-.247-16.526l-6.642-2.653a5.012,5.012,0,0,1-2.792-6.505l4.2-10.524a5.011,5.011,0,0,1,6.505-2.792l6.556,2.619a47.136,47.136,0,0,1,11.547-12.036l-2.587-6.143a5.021,5.021,0,0,1,2.625-6.538l10.792-4.671a5,5,0,0,1,6.6,2.666l2.4,5.762a44.734,44.734,0,0,1,16.317-.373l2.2-5.515a5.011,5.011,0,0,1,6.5-2.792l12.48,4.985a5.006,5.006,0,0,1,2.792,6.506l-2.234,5.593a68.345,68.345,0,0,1,11.446,11.387l5.382-2.5a5.006,5.006,0,0,1,6.711,2.571l4.54,11.889.909,2.177a5.006,5.006,0,0,1-2.785,6.523l-5.515,2.2a44.814,44.814,0,0,1-.373,16.317l5.762,2.4a5,5,0,0,1,2.665,6.6l-4.671,10.792a5.021,5.021,0,0,1-6.537,2.626l-6.138-2.586a38.375,38.375,0,0,1-10.978,10.837l2.372,4.749a5.03,5.03,0,0,1-2.582,6.62l-10.729,4.66a5.006,5.006,0,0,1-6.623-2.686l-2.485-6.032a67.044,67.044,0,0,1-15.863.308l-2.419,6.057A5.015,5.015,0,0,1,2031.172,361.782Zm-25.717-31.794a1.192,1.192,0,0,1,.977.508,42.045,42.045,0,0,0,12.12,12,1.193,1.193,0,0,1,.462,1.445l-2.749,6.883a2.62,2.62,0,0,0,1.461,3.405l12.48,4.984a2.623,2.623,0,0,0,3.4-1.462l2.749-6.883a1.2,1.2,0,0,1,1.222-.745c3.841.369,11.161.812,17.025-.37a1.191,1.191,0,0,1,1.339.715l2.854,6.928a2.619,2.619,0,0,0,3.466,1.406l10.73-4.66a2.626,2.626,0,0,0,1.367-3.43l-2.726-5.453a1.193,1.193,0,0,1,.094-1.223l.32-.452a1.178,1.178,0,0,1,.329-.314c5.242-3.365,8.036-6.568,11.357-11.3a1.193,1.193,0,0,1,1.439-.414l7.021,2.958a2.627,2.627,0,0,0,3.422-1.375l4.671-10.792a2.615,2.615,0,0,0-1.395-3.452l-6.665-2.777a1.192,1.192,0,0,1-.709-1.343,42.9,42.9,0,0,0,.387-17.329,1.193,1.193,0,0,1,.73-1.327l6.416-2.563a2.619,2.619,0,0,0,1.461-3.4l-.909-2.177c-.014-.034-4.543-11.9-4.543-11.9a2.622,2.622,0,0,0-3.5-1.3l-6.277,2.916a1.193,1.193,0,0,1-1.483-.4c-3.424-4.943-9.144-9.8-12.248-12.248a1.192,1.192,0,0,1-.368-1.378l2.562-6.416a2.619,2.619,0,0,0-1.461-3.4l-12.479-4.985a2.623,2.623,0,0,0-3.405,1.462l-2.563,6.415a1.188,1.188,0,0,1-1.326.73,42.916,42.916,0,0,0-17.328.386,1.191,1.191,0,0,1-1.344-.708l-2.777-6.664a2.614,2.614,0,0,0-3.452-1.394l-10.792,4.672a2.626,2.626,0,0,0-1.374,3.421l2.957,7.021a1.194,1.194,0,0,1-.414,1.44,44.97,44.97,0,0,0-12.235,12.759,1.191,1.191,0,0,1-1.446.463l-7.461-2.98a2.623,2.623,0,0,0-3.405,1.462l-4.2,10.524a2.622,2.622,0,0,0,1.462,3.4l7.541,3.012a1.193,1.193,0,0,1,.731,1.324,44.645,44.645,0,0,0,.257,17.527,1.192,1.192,0,0,1-.694,1.338l-7.084,3.066a2.625,2.625,0,0,0-1.368,3.436l4.636,10.83a2.619,2.619,0,0,0,3.49,1.355l6.749-3.057A1.18,1.18,0,0,1,2005.455,329.988Z" transform="translate(-1986.671 -246.28)" fill="#0059ab"/>
              </g>
            </g>
          </g>
          <g id="Grupo_152496" data-name="Grupo 152496" transform="translate(50.642 36.959)">
            <path id="Trazado_204589" data-name="Trazado 204589" d="M2079.143,285.117c-.523-.021-1.043-.018-1.56,0-.517-.013-1.036-.017-1.561,0a24.041,24.041,0,0,0-17.835,38.969,36.305,36.305,0,0,1,2.39,3.419c.092.146.189.3.29.471a35.1,35.1,0,0,1,4.523,12.569c1.053,6.419,3.861,7.715,3.861,7.715h16.665s2.808-1.3,3.861-7.715a35.11,35.11,0,0,1,4.523-12.569c.1-.168.2-.325.29-.471a36.623,36.623,0,0,1,2.389-3.419,24.04,24.04,0,0,0-17.835-38.969Z" transform="translate(-2051.782 -283.909)" fill="#75b62f"/>
            <path id="Trazado_204590" data-name="Trazado 204590" d="M2084.806,348.342h-16.665a1.2,1.2,0,0,1-.5-.109c-.346-.16-3.415-1.758-4.538-8.605a33.848,33.848,0,0,0-4.365-12.143c-.1-.167-.194-.317-.282-.458a35.037,35.037,0,0,0-2.312-3.309,25.373,25.373,0,0,1-5.472-15.724,25.118,25.118,0,0,1,24.194-25.18c.55-.021,1.1-.019,1.639,0,.48-.014,1.026-.018,1.575,0a25.118,25.118,0,0,1,24.194,25.18,25.371,25.371,0,0,1-5.472,15.724,35.128,35.128,0,0,0-2.312,3.309c-.088.141-.181.292-.279.454a33.847,33.847,0,0,0-4.369,12.148c-1.122,6.847-4.191,8.445-4.538,8.605A1.2,1.2,0,0,1,2084.806,348.342Zm-16.319-2.385h15.978c.532-.405,2.258-2.045,3.024-6.716a36.2,36.2,0,0,1,4.68-12.994c.1-.17.2-.333.3-.484a37.529,37.529,0,0,1,2.468-3.529,22.975,22.975,0,0,0,4.954-14.24,22.739,22.739,0,0,0-21.9-22.8c-.5-.02-.991-.017-1.482,0-.555-.014-1.048-.018-1.545,0a22.739,22.739,0,0,0-21.9,22.8,22.975,22.975,0,0,0,4.954,14.24,37.647,37.647,0,0,1,2.468,3.53c.094.15.2.313.3.488a36.212,36.212,0,0,1,4.677,12.99C2066.219,343.883,2067.927,345.531,2068.487,345.957Z" transform="translate(-2050.672 -282.799)" fill="#0059ab"/>
          </g>
          <g id="Grupo_152497" data-name="Grupo 152497" transform="translate(66.731 100.117)">
            <path id="Trazado_204591" data-name="Trazado 204591" d="M2084.047,407.076v9.171a2.787,2.787,0,0,0,2.787,2.787h1.779v1.516a1.824,1.824,0,0,0,1.823,1.824h4.261a1.824,1.824,0,0,0,1.823-1.824v-1.516h2.5a2.067,2.067,0,0,0,2.067-2.068v-9.891Z" transform="translate(-2082.854 -405.883)" fill="#2db5ff"/>
            <path id="Trazado_204592" data-name="Trazado 204592" d="M2093.586,422.456h-4.261a3.019,3.019,0,0,1-3.015-3.017v-.323h-.586a3.984,3.984,0,0,1-3.979-3.979v-9.171a1.193,1.193,0,0,1,1.193-1.193h17.038a1.193,1.193,0,0,1,1.193,1.193v9.891a3.264,3.264,0,0,1-3.26,3.26H2096.6v.323A3.02,3.02,0,0,1,2093.586,422.456Zm-9.457-15.3v7.979a1.6,1.6,0,0,0,1.594,1.594h1.78a1.193,1.193,0,0,1,1.192,1.193v1.516a.632.632,0,0,0,.63.632h4.261a.632.632,0,0,0,.631-.632v-1.516a1.192,1.192,0,0,1,1.192-1.193h2.5a.876.876,0,0,0,.875-.875v-8.7Z" transform="translate(-2081.744 -404.773)" fill="#0059ab"/>
          </g>
          <g id="Grupo_152498" data-name="Grupo 152498" transform="translate(59.118 49.4)">
            <path id="Trazado_204593" data-name="Trazado 204593" d="M2089.551,321.187l12.058,4.074-12.058,4.074-4.075,12.058-4.074-12.058-12.058-4.074,12.058-4.074,4.074-12.058Z" transform="translate(-2068.151 -307.937)" fill="#fff"/>
            <path id="Trazado_204594" data-name="Trazado 204594" d="M2084.365,341.474a1.192,1.192,0,0,1-1.13-.811l-3.885-11.5-11.5-3.885a1.193,1.193,0,0,1,0-2.261l11.5-3.884,3.885-11.5a1.193,1.193,0,0,1,2.26,0l3.886,11.5,11.5,3.884a1.193,1.193,0,0,1,0,2.261l-11.5,3.885-3.886,11.5A1.192,1.192,0,0,1,2084.365,341.474ZM2071.96,324.15l8.713,2.944a1.192,1.192,0,0,1,.748.749l2.944,8.714,2.945-8.715a1.194,1.194,0,0,1,.748-.748l8.714-2.944-8.714-2.943a1.194,1.194,0,0,1-.748-.748l-2.945-8.715-2.944,8.714a1.191,1.191,0,0,1-.749.749Z" transform="translate(-2067.041 -306.826)" fill="#0059ab"/>
          </g>
        </g>
      </g>
    </g>
  </g>
</svg>
