<svg xmlns="http://www.w3.org/2000/svg" width="1029" height="513" viewBox="0 0 1029 513">
  <g id="Grupo_158010" data-name="Grupo 158010" transform="translate(-285 -3165.808)">
    <path id="Trazado_213491" data-name="Trazado 213491" d="M20,0h989a20,20,0,0,1,20,20V493a20,20,0,0,1-20,20H20A20,20,0,0,1,0,493V20A20,20,0,0,1,20,0Z" transform="translate(285 3165.808)" fill="#f3f9ff"/>
    <path id="Rectángulo_40621" data-name="Rectángulo 40621" d="M193.215,264.48H387.78c3.646,0,6.6,1.877,6.6,4.191v41.783c0,2.313-2.959,4.191-6.6,4.191H193.215c-3.646,0-6.6-1.878-6.6-4.191V268.671C186.61,266.357,189.569,264.48,193.215,264.48Z" transform="translate(197.616 3085.02)" fill="#eaf086" stroke="#3e4bbf" stroke-width="2"/>
    <path id="Rectángulo_40621-2" data-name="Rectángulo 40621" d="M193.215,264.48H387.78c3.646,0,6.6,1.877,6.6,4.191v41.783c0,2.313-2.959,4.191-6.6,4.191H193.215c-3.646,0-6.6-1.878-6.6-4.191V268.671C186.61,266.357,189.569,264.48,193.215,264.48Z" transform="translate(502.89 3085.02)" fill="#eaf086" stroke="#3e4bbf" stroke-width="2"/>
    <path id="Rectángulo_40621-3" data-name="Rectángulo 40621" d="M193.215,264.48H387.78c3.646,0,6.6,1.877,6.6,4.191v41.783c0,2.313-2.959,4.191-6.6,4.191H193.215c-3.646,0-6.6-1.878-6.6-4.191V268.671C186.61,266.357,189.569,264.48,193.215,264.48Z" transform="translate(798.311 3085.02)" fill="#eaf086" stroke="#3e4bbf" stroke-width="2"/>
    <path id="Rectángulo_40621-4" data-name="Rectángulo 40621" d="M193.215,264.48H387.78c3.646,0,6.6,1.877,6.6,4.191v41.783c0,2.313-2.959,4.191-6.6,4.191H193.215c-3.646,0-6.6-1.878-6.6-4.191V268.671C186.61,266.357,189.569,264.48,193.215,264.48Z" transform="translate(197.616 3148.02)" fill="#eaf086" stroke="#3e4bbf" stroke-width="2"/>
    <path id="Rectángulo_40621-5" data-name="Rectángulo 40621" d="M193.215,264.48H387.78c3.646,0,6.6,1.877,6.6,4.191v41.783c0,2.313-2.959,4.191-6.6,4.191H193.215c-3.646,0-6.6-1.878-6.6-4.191V268.671C186.61,266.357,189.569,264.48,193.215,264.48Z" transform="translate(502.89 3148.02)" fill="#eaf086" stroke="#3e4bbf" stroke-width="2"/>
    <path id="Rectángulo_40621-6" data-name="Rectángulo 40621" d="M193.215,264.48H387.78c3.646,0,6.6,1.877,6.6,4.191v41.783c0,2.313-2.959,4.191-6.6,4.191H193.215c-3.646,0-6.6-1.878-6.6-4.191V268.671C186.61,266.357,189.569,264.48,193.215,264.48Z" transform="translate(197.228 3210.265)" fill="#eaf086" stroke="#3e4bbf" stroke-width="2"/>
    <path id="Rectángulo_40621-7" data-name="Rectángulo 40621" d="M193.215,264.48H387.78c3.646,0,6.6,1.877,6.6,4.191v41.783c0,2.313-2.959,4.191-6.6,4.191H193.215c-3.646,0-6.6-1.878-6.6-4.191V268.671C186.61,266.357,189.569,264.48,193.215,264.48Z" transform="translate(197.616 3273.02)" fill="#eaf086" stroke="#3e4bbf" stroke-width="2"/>
    <path id="Rectángulo_40621-8" data-name="Rectángulo 40621" d="M193.215,264.48H387.78c3.646,0,6.6,1.877,6.6,4.191v41.783c0,2.313-2.959,4.191-6.6,4.191H193.215c-3.646,0-6.6-1.878-6.6-4.191V268.671C186.61,266.357,189.569,264.48,193.215,264.48Z" transform="translate(197.616 3335.02)" fill="#eaf086" stroke="#3e4bbf" stroke-width="2"/>
    <path id="Trazado_213481" data-name="Trazado 213481" d="M0,70Z" transform="translate(649 3197)" fill="#dce736"/>
    <path id="Trazado_213492" data-name="Trazado 213492" d="M0,0V49.243" transform="translate(788.122 3278)" fill="none" stroke="#3e4bbf" stroke-width="2"/>
    <path id="Trazado_158597" data-name="Trazado 158597" d="M660.97,131.96h9.756l-4.878,5.809Z" transform="translate(122.273 3195.283)" fill="#3d46c2"/>
    <path id="Trazado_213493" data-name="Trazado 213493" d="M0,0V49.243" transform="translate(488.878 3278)" fill="none" stroke="#3e4bbf" stroke-width="2"/>
    <path id="Trazado_158597-2" data-name="Trazado 158597" d="M660.97,131.96h9.756l-4.878,5.809Z" transform="translate(-176.97 3195.283)" fill="#3d46c2"/>
    <path id="Trazado_213494" data-name="Trazado 213494" d="M0,0V49.243" transform="translate(1088.878 3278)" fill="none" stroke="#3e4bbf" stroke-width="2"/>
    <path id="Trazado_158597-3" data-name="Trazado 158597" d="M660.97,131.96h9.756l-4.878,5.809Z" transform="translate(423.03 3195.283)" fill="#3d46c2"/>
    <path id="Rectángulo_40621-9" data-name="Rectángulo 40621" d="M193.215,264.48H387.78c3.646,0,6.6,1.877,6.6,4.191v41.783c0,2.313-2.959,4.191-6.6,4.191H193.215c-3.646,0-6.6-1.878-6.6-4.191V268.671C186.61,266.357,189.569,264.48,193.215,264.48Z" transform="translate(197.616 2939.339)" fill="#3d46c2" stroke="#3e4bbf" stroke-width="2"/>
    <path id="Rectángulo_40621-10" data-name="Rectángulo 40621" d="M193.215,264.48H387.78c3.646,0,6.6,1.877,6.6,4.191v41.783c0,2.313-2.959,4.191-6.6,4.191H193.215c-3.646,0-6.6-1.878-6.6-4.191V268.671C186.61,266.357,189.569,264.48,193.215,264.48Z" transform="translate(497.311 2939.339)" fill="#3d46c2" stroke="#3e4bbf" stroke-width="2"/>
    <path id="Rectángulo_40621-11" data-name="Rectángulo 40621" d="M194.46,264.48H425.712c4.334,0,7.85,1.877,7.85,4.191v41.783c0,2.313-3.517,4.191-7.85,4.191H194.46c-4.334,0-7.85-1.878-7.85-4.191V268.671C186.61,266.357,190.127,264.48,194.46,264.48Z" transform="translate(777.417 2939.339)" fill="#3d46c2" stroke="#3e4bbf" stroke-width="2"/>
    <path id="Trazado_213497" data-name="Trazado 213497" d="M-48.562,0l1.977-11.375,3.336.008a3.793,3.793,0,0,1,2.609.781,2.5,2.5,0,0,1,.758,2.18,2.957,2.957,0,0,1-2.055,2.461A2.117,2.117,0,0,1-40.793-4.93a2.839,2.839,0,0,1,.309,1.586A3.318,3.318,0,0,1-41.719-.9a4.456,4.456,0,0,1-2.891.9Zm2.391-5.32-.711,4.086,2.32.008A2.78,2.78,0,0,0-42.781-1.8a2.218,2.218,0,0,0,.836-1.536,1.821,1.821,0,0,0-.32-1.435,1.745,1.745,0,0,0-1.352-.546Zm.211-1.2,2.117.008a2.727,2.727,0,0,0,1.676-.509,2,2,0,0,0,.8-1.4,1.431,1.431,0,0,0-.324-1.253,2.075,2.075,0,0,0-1.41-.462l-2.234-.008Zm12.18-.641-.664-.07a2.42,2.42,0,0,0-2.141,1.227L-37.625,0h-1.414l1.469-8.453,1.367-.008-.211.984A2.527,2.527,0,0,1-34.3-8.625a2.594,2.594,0,0,1,.672.117ZM-28.852,0a1.893,1.893,0,0,1-.055-.445l.023-.445A3.465,3.465,0,0,1-31.352.156a2.526,2.526,0,0,1-1.816-.707,2.14,2.14,0,0,1-.637-1.73,2.6,2.6,0,0,1,1.176-2.1,5.005,5.005,0,0,1,2.887-.754l1.477.008.094-.672A1.545,1.545,0,0,0-28.465-7a1.414,1.414,0,0,0-1.113-.457,2.181,2.181,0,0,0-1.285.355,1.513,1.513,0,0,0-.684.98l-1.422.008a2.266,2.266,0,0,1,.578-1.316,3.363,3.363,0,0,1,1.3-.891,4.215,4.215,0,0,1,1.648-.3,2.8,2.8,0,0,1,2.055.8,2.484,2.484,0,0,1,.617,2.043l-.687,4.188-.039.6a2.949,2.949,0,0,0,.094.852L-27.414,0ZM-31.07-1.094a2.466,2.466,0,0,0,1.285-.324,3.254,3.254,0,0,0,1.043-.941l.3-1.742-1.07-.008a4.054,4.054,0,0,0-2.047.422,1.554,1.554,0,0,0-.8,1.2,1.21,1.21,0,0,0,.277.988A1.321,1.321,0,0,0-31.07-1.094ZM-23.969,0h-1.406l1.469-8.453H-22.5ZM-22.8-11.539a.774.774,0,0,1,.6.215.8.8,0,0,1,.238.605.849.849,0,0,1-.238.6.855.855,0,0,1-.6.25.779.779,0,0,1-.6-.211.764.764,0,0,1-.227-.594.886.886,0,0,1,.234-.609A.826.826,0,0,1-22.8-11.539Zm3.953,3.078-.2,1.07a3.333,3.333,0,0,1,2.594-1.219,2.1,2.1,0,0,1,1.766.828,3.217,3.217,0,0,1,.422,2.242L-15.2,0h-1.414l.93-5.557a2.962,2.962,0,0,0,.008-.71,1.168,1.168,0,0,0-1.289-1.116A2.661,2.661,0,0,0-19.2-6.025L-20.242,0h-1.414l1.469-8.453Zm11.07,6.172q.117-.875-.961-1.234l-1.469-.43q-1.859-.641-1.8-2.125a2.341,2.341,0,0,1,1.02-1.832,3.631,3.631,0,0,1,2.27-.7,3.027,3.027,0,0,1,2.082.746,2.363,2.363,0,0,1,.77,1.9l-1.406-.008A1.319,1.319,0,0,0-7.672-7a1.576,1.576,0,0,0-1.1-.414,2.059,2.059,0,0,0-1.266.359,1.316,1.316,0,0,0-.57.922q-.1.734.9,1.07l.711.2a4.577,4.577,0,0,1,2.063.977A1.865,1.865,0,0,1-6.375-2.4a2.37,2.37,0,0,1-.516,1.375,2.948,2.948,0,0,1-1.25.895A4.18,4.18,0,0,1-9.8.156a3.3,3.3,0,0,1-2.219-.785,2.427,2.427,0,0,1-.844-1.98l1.414.008A1.5,1.5,0,0,0-11-1.461a1.732,1.732,0,0,0,1.242.43,2.436,2.436,0,0,0,1.336-.324A1.247,1.247,0,0,0-7.781-2.289ZM-1.2-10.5l-.359,2.047H-.023l-.2,1.117H-1.75l-.883,5.258a1.833,1.833,0,0,0-.008.375.6.6,0,0,0,.664.609,4.05,4.05,0,0,0,.688-.078L-1.4.008A3.847,3.847,0,0,1-2.43.148,1.476,1.476,0,0,1-3.7-.473,2.4,2.4,0,0,1-4.023-2.1l.859-5.234H-4.656l.2-1.117h1.492l.359-2.047ZM4.75-8.609a3.047,3.047,0,0,1,1.82.578A3.285,3.285,0,0,1,7.691-6.48a4.8,4.8,0,0,1,.246,2.16l-.016.172a5.685,5.685,0,0,1-.734,2.23A4.309,4.309,0,0,1,5.672-.367,3.7,3.7,0,0,1,3.633.156,3.052,3.052,0,0,1,1.816-.422,3.21,3.21,0,0,1,.7-1.953a4.931,4.931,0,0,1-.25-2.133,5.76,5.76,0,0,1,.711-2.359A4.409,4.409,0,0,1,2.691-8.066,3.652,3.652,0,0,1,4.75-8.609ZM1.875-4.078a4.8,4.8,0,0,0,0,1.023,2.507,2.507,0,0,0,.551,1.469,1.653,1.653,0,0,0,1.262.57,2.253,2.253,0,0,0,1.3-.348,2.919,2.919,0,0,0,1-1.121,4.721,4.721,0,0,0,.523-1.664,7.494,7.494,0,0,0,.023-1.211,2.6,2.6,0,0,0-.57-1.492A1.69,1.69,0,0,0,4.7-7.43a2.3,2.3,0,0,0-1.859.859,4.245,4.245,0,0,0-.945,2.313ZM14.242-7.164l-.664-.07a2.42,2.42,0,0,0-2.141,1.227L10.4,0H8.984l1.469-8.453,1.367-.008-.211.984a2.527,2.527,0,0,1,2.117-1.148,2.594,2.594,0,0,1,.672.117Zm2.859-1.3-.18.945a3.305,3.305,0,0,1,2.57-1.094,2.608,2.608,0,0,1,1.363.367,1.8,1.8,0,0,1,.77.992,3.49,3.49,0,0,1,2.8-1.359,2.235,2.235,0,0,1,1.867.852,3.042,3.042,0,0,1,.445,2.2L25.813,0H24.406l.922-5.57a2.943,2.943,0,0,0,0-.742Q25.18-7.375,23.938-7.4a2.136,2.136,0,0,0-1.4.48,2.222,2.222,0,0,0-.809,1.3L20.766,0H19.344l.938-5.562A1.786,1.786,0,0,0,20.02-6.9a1.377,1.377,0,0,0-1.129-.484,2.315,2.315,0,0,0-2.1,1.2L15.719,0H14.3l1.469-8.453ZM29.523,0H28.117l1.469-8.453h1.406Zm1.164-11.539a.774.774,0,0,1,.6.215.8.8,0,0,1,.238.605.849.849,0,0,1-.238.6.855.855,0,0,1-.6.25.779.779,0,0,1-.6-.211.764.764,0,0,1-.227-.594.886.886,0,0,1,.234-.609A.826.826,0,0,1,30.688-11.539Zm3.953,3.078-.2,1.07a3.333,3.333,0,0,1,2.594-1.219,2.1,2.1,0,0,1,1.766.828,3.217,3.217,0,0,1,.422,2.242L38.3,0H36.883l.93-5.557a2.962,2.962,0,0,0,.008-.71,1.168,1.168,0,0,0-1.289-1.116A2.661,2.661,0,0,0,34.3-6.025L33.25,0H31.836L33.3-8.453Zm6.25,4.219a6.889,6.889,0,0,1,.746-2.4A3.9,3.9,0,0,1,43-8.152a3.151,3.151,0,0,1,1.754-.465,2.6,2.6,0,0,1,2.219,1.109l.281-.945h1.3L47.141-.18a4.113,4.113,0,0,1-1.312,2.59,3.7,3.7,0,0,1-2.68.926A3.8,3.8,0,0,1,41.5,2.93a3.127,3.127,0,0,1-1.238-1.07l.8-.867a2.419,2.419,0,0,0,2.023,1.164A2.425,2.425,0,0,0,44.8,1.594a2.9,2.9,0,0,0,.926-1.687l.156-.75a3.2,3.2,0,0,1-2.414,1A2.486,2.486,0,0,1,42.1-.27a2.589,2.589,0,0,1-.9-1.164,4.759,4.759,0,0,1-.352-1.7A8.733,8.733,0,0,1,40.891-4.242Zm1.367.8a2.974,2.974,0,0,0,.387,1.728,1.461,1.461,0,0,0,1.238.644,2.561,2.561,0,0,0,2.18-1.241l.664-3.878a1.776,1.776,0,0,0-1.7-1.2,2.194,2.194,0,0,0-1.887.936,4.878,4.878,0,0,0-.871,2.614Z" transform="translate(793 3381)" fill="#14263e"/>
    <path id="Trazado_213498" data-name="Trazado 213498" d="M-82.332-11.383v1.227H-82.6a3.805,3.805,0,0,0-2.687,1A4.161,4.161,0,0,0-86.441-6.43a3.085,3.085,0,0,1,2.453-1.031,2.95,2.95,0,0,1,2.371,1.047,4.038,4.038,0,0,1,.887,2.7A4.025,4.025,0,0,1-81.687-.9,3.3,3.3,0,0,1-84.254.156,3.247,3.247,0,0,1-86.9-1.1a4.97,4.97,0,0,1-1.016-3.23v-.555a7.488,7.488,0,0,1,1.34-4.8,4.921,4.921,0,0,1,3.988-1.7Zm-1.9,5.125a2.306,2.306,0,0,0-1.367.445A2.32,2.32,0,0,0-86.465-4.7v.531A3.731,3.731,0,0,0-85.832-1.9a1.9,1.9,0,0,0,1.578.859,1.838,1.838,0,0,0,1.535-.719,2.982,2.982,0,0,0,.559-1.883,2.983,2.983,0,0,0-.566-1.895A1.816,1.816,0,0,0-84.23-6.258Zm14.242,4.016a1.064,1.064,0,0,0-.441-.91,4.249,4.249,0,0,0-1.539-.559,7.277,7.277,0,0,1-1.742-.562,2.479,2.479,0,0,1-.953-.781,1.869,1.869,0,0,1-.309-1.078,2.193,2.193,0,0,1,.879-1.758,3.432,3.432,0,0,1,2.246-.719,3.532,3.532,0,0,1,2.332.742,2.357,2.357,0,0,1,.895,1.9h-1.453a1.3,1.3,0,0,0-.5-1.023,1.888,1.888,0,0,0-1.27-.43,1.976,1.976,0,0,0-1.234.344,1.082,1.082,0,0,0-.445.9.877.877,0,0,0,.414.789,5.1,5.1,0,0,0,1.5.508,7.8,7.8,0,0,1,1.754.578,2.558,2.558,0,0,1,1,.809,1.988,1.988,0,0,1,.324,1.152,2.163,2.163,0,0,1-.906,1.816A3.8,3.8,0,0,1-71.8.156,4.257,4.257,0,0,1-73.6-.2a2.922,2.922,0,0,1-1.223-1A2.42,2.42,0,0,1-75.262-2.6h1.445a1.5,1.5,0,0,0,.582,1.152,2.258,2.258,0,0,0,1.434.426,2.331,2.331,0,0,0,1.316-.332A1.02,1.02,0,0,0-69.988-2.242ZM-67.043-4.3a4.993,4.993,0,0,1,.488-2.234A3.643,3.643,0,0,1-65.2-8.07a3.7,3.7,0,0,1,1.988-.539,3.565,3.565,0,0,1,2.793,1.2,4.6,4.6,0,0,1,1.066,3.18v.1a5.036,5.036,0,0,1-.473,2.215A3.589,3.589,0,0,1-61.172-.391a3.743,3.743,0,0,1-2.02.547,3.556,3.556,0,0,1-2.785-1.2A4.575,4.575,0,0,1-67.043-4.2Zm1.453.172a3.616,3.616,0,0,0,.652,2.258,2.088,2.088,0,0,0,1.746.852,2.075,2.075,0,0,0,1.75-.863A3.955,3.955,0,0,0-60.793-4.3a3.61,3.61,0,0,0-.66-2.254,2.1,2.1,0,0,0-1.754-.863,2.075,2.075,0,0,0-1.727.852A3.925,3.925,0,0,0-65.59-4.133Zm9.414-4.32.039.938a3.122,3.122,0,0,1,2.508-1.094A2.417,2.417,0,0,1-51.215-7.25a3.2,3.2,0,0,1,1.1-.984,3.242,3.242,0,0,1,1.6-.375q2.781,0,2.828,2.945V0h-1.445V-5.578a1.941,1.941,0,0,0-.414-1.355,1.823,1.823,0,0,0-1.391-.449,1.917,1.917,0,0,0-1.336.48,1.949,1.949,0,0,0-.617,1.293V0h-1.453V-5.539a1.613,1.613,0,0,0-1.8-1.844A1.934,1.934,0,0,0-56.1-6.172V0h-1.445V-8.453Zm19.82,4.32a5.026,5.026,0,0,1-.891,3.113A2.846,2.846,0,0,1-39.637.156,2.947,2.947,0,0,1-42.113-.977l-.07.977h-1.328V-12h1.445v4.477a2.93,2.93,0,0,1,2.414-1.086,2.863,2.863,0,0,1,2.418,1.164,5.177,5.177,0,0,1,.879,3.188ZM-37.8-4.3a3.906,3.906,0,0,0-.57-2.281,1.888,1.888,0,0,0-1.641-.8,2.122,2.122,0,0,0-2.055,1.328V-2.4A2.181,2.181,0,0,0-40-1.07a1.878,1.878,0,0,0,1.617-.8A4.153,4.153,0,0,0-37.8-4.3Zm7.352-2.859a4.331,4.331,0,0,0-.711-.055A1.9,1.9,0,0,0-33.09-6V0h-1.445V-8.453h1.406l.023.977A2.251,2.251,0,0,1-31.09-8.609a1.477,1.477,0,0,1,.641.109ZM-25.613.156a3.693,3.693,0,0,1-2.8-1.129,4.19,4.19,0,0,1-1.078-3.02v-.266a5.073,5.073,0,0,1,.48-2.246,3.748,3.748,0,0,1,1.344-1.547,3.378,3.378,0,0,1,1.871-.559A3.166,3.166,0,0,1-23.23-7.523a4.7,4.7,0,0,1,.914,3.109v.6h-5.727a3,3,0,0,0,.73,2.02,2.3,2.3,0,0,0,1.777.77,2.517,2.517,0,0,0,1.3-.312,3.259,3.259,0,0,0,.93-.828l.883.688A3.55,3.55,0,0,1-25.613.156Zm-.18-7.578a1.928,1.928,0,0,0-1.469.637A3.1,3.1,0,0,0-28-5h4.234v-.109a2.753,2.753,0,0,0-.594-1.707A1.815,1.815,0,0,0-25.793-7.422Zm9.234.266a4.331,4.331,0,0,0-.711-.055A1.9,1.9,0,0,0-19.2-6V0h-1.445V-8.453h1.406l.023.977A2.251,2.251,0,0,1-17.2-8.609a1.477,1.477,0,0,1,.641.109ZM-15.77-4.3a4.993,4.993,0,0,1,.488-2.234A3.643,3.643,0,0,1-13.922-8.07a3.7,3.7,0,0,1,1.988-.539,3.565,3.565,0,0,1,2.793,1.2,4.6,4.6,0,0,1,1.066,3.18v.1a5.036,5.036,0,0,1-.473,2.215A3.589,3.589,0,0,1-9.9-.391a3.743,3.743,0,0,1-2.02.547,3.556,3.556,0,0,1-2.785-1.2A4.575,4.575,0,0,1-15.77-4.2Zm1.453.172a3.616,3.616,0,0,0,.652,2.258,2.088,2.088,0,0,0,1.746.852,2.075,2.075,0,0,0,1.75-.863A3.955,3.955,0,0,0-9.52-4.3a3.61,3.61,0,0,0-.66-2.254,2.1,2.1,0,0,0-1.754-.863,2.075,2.075,0,0,0-1.727.852A3.925,3.925,0,0,0-14.316-4.133ZM-1.34-2.242a1.064,1.064,0,0,0-.441-.91A4.249,4.249,0,0,0-3.32-3.711a7.277,7.277,0,0,1-1.742-.562,2.479,2.479,0,0,1-.953-.781,1.869,1.869,0,0,1-.309-1.078,2.193,2.193,0,0,1,.879-1.758A3.432,3.432,0,0,1-3.2-8.609a3.532,3.532,0,0,1,2.332.742,2.357,2.357,0,0,1,.895,1.9H-1.426a1.3,1.3,0,0,0-.5-1.023,1.888,1.888,0,0,0-1.27-.43,1.976,1.976,0,0,0-1.234.344,1.082,1.082,0,0,0-.445.9.877.877,0,0,0,.414.789,5.1,5.1,0,0,0,1.5.508A7.8,7.8,0,0,1-1.215-4.3a2.558,2.558,0,0,1,1,.809A1.988,1.988,0,0,1,.105-2.344,2.163,2.163,0,0,1-.8-.527,3.8,3.8,0,0,1-3.152.156,4.257,4.257,0,0,1-4.949-.2a2.922,2.922,0,0,1-1.223-1A2.42,2.42,0,0,1-6.613-2.6h1.445a1.5,1.5,0,0,0,.582,1.152,2.258,2.258,0,0,0,1.434.426,2.331,2.331,0,0,0,1.316-.332A1.02,1.02,0,0,0-1.34-2.242ZM13.09-4.133a5.062,5.062,0,0,1-.883,3.109A2.829,2.829,0,0,1,9.816.156,3.1,3.1,0,0,1,7.395-.82V3.25H5.949v-11.7H7.27l.07.938A2.977,2.977,0,0,1,9.793-8.609,2.882,2.882,0,0,1,12.2-7.461a5.117,5.117,0,0,1,.887,3.2ZM11.645-4.3a3.735,3.735,0,0,0-.609-2.258,1.963,1.963,0,0,0-1.672-.828A2.125,2.125,0,0,0,7.395-6.219V-2.18A2.129,2.129,0,0,0,9.379-1.023a1.954,1.954,0,0,0,1.652-.824A4.077,4.077,0,0,0,11.645-4.3Zm8.5,4.3a3.036,3.036,0,0,1-.2-.891A3.225,3.225,0,0,1,17.535.156a2.984,2.984,0,0,1-2.051-.707,2.287,2.287,0,0,1-.8-1.793,2.39,2.39,0,0,1,1-2.051,4.733,4.733,0,0,1,2.824-.73h1.406v-.664A1.623,1.623,0,0,0,19.465-7a1.821,1.821,0,0,0-1.336-.449,2.108,2.108,0,0,0-1.3.391,1.151,1.151,0,0,0-.523.945H14.855A2,2,0,0,1,15.3-7.332a3.066,3.066,0,0,1,1.219-.934,4.1,4.1,0,0,1,1.691-.344,3.342,3.342,0,0,1,2.289.73,2.635,2.635,0,0,1,.859,2.012v3.891a4.757,4.757,0,0,0,.3,1.852V0Zm-2.4-1.1a2.54,2.54,0,0,0,1.289-.352,2.127,2.127,0,0,0,.883-.914V-4.1H18.785q-2.656,0-2.656,1.555a1.316,1.316,0,0,0,.453,1.063A1.742,1.742,0,0,0,17.746-1.1Zm9.969-6.055A4.331,4.331,0,0,0,27-7.211,1.9,1.9,0,0,0,25.074-6V0H23.629V-8.453h1.406l.023.977a2.251,2.251,0,0,1,2.016-1.133,1.477,1.477,0,0,1,.641.109ZM33.949,0a3.036,3.036,0,0,1-.2-.891A3.225,3.225,0,0,1,31.34.156a2.984,2.984,0,0,1-2.051-.707,2.287,2.287,0,0,1-.8-1.793,2.39,2.39,0,0,1,1-2.051,4.733,4.733,0,0,1,2.824-.73h1.406v-.664A1.623,1.623,0,0,0,33.27-7a1.821,1.821,0,0,0-1.336-.449,2.108,2.108,0,0,0-1.3.391,1.151,1.151,0,0,0-.523.945H28.66a2,2,0,0,1,.449-1.223,3.066,3.066,0,0,1,1.219-.934,4.1,4.1,0,0,1,1.691-.344,3.342,3.342,0,0,1,2.289.73,2.635,2.635,0,0,1,.859,2.012v3.891a4.757,4.757,0,0,0,.3,1.852V0Zm-2.4-1.1a2.54,2.54,0,0,0,1.289-.352,2.127,2.127,0,0,0,.883-.914V-4.1H32.59q-2.656,0-2.656,1.555a1.316,1.316,0,0,0,.453,1.063A1.742,1.742,0,0,0,31.551-1.1ZM48.535-4.133a5.062,5.062,0,0,1-.883,3.109A2.829,2.829,0,0,1,45.262.156,3.1,3.1,0,0,1,42.84-.82V3.25H41.395v-11.7h1.32l.07.938a2.977,2.977,0,0,1,2.453-1.094,2.882,2.882,0,0,1,2.41,1.148,5.117,5.117,0,0,1,.887,3.2ZM47.09-4.3a3.735,3.735,0,0,0-.609-2.258,1.963,1.963,0,0,0-1.672-.828A2.125,2.125,0,0,0,42.84-6.219V-2.18a2.129,2.129,0,0,0,1.984,1.156,1.954,1.954,0,0,0,1.652-.824A4.077,4.077,0,0,0,47.09-4.3ZM53.879.156a3.693,3.693,0,0,1-2.8-1.129A4.19,4.19,0,0,1,50-3.992v-.266a5.073,5.073,0,0,1,.48-2.246,3.748,3.748,0,0,1,1.344-1.547A3.378,3.378,0,0,1,53.7-8.609a3.166,3.166,0,0,1,2.563,1.086,4.7,4.7,0,0,1,.914,3.109v.6H51.449a3,3,0,0,0,.73,2.02,2.3,2.3,0,0,0,1.777.77,2.517,2.517,0,0,0,1.3-.312,3.259,3.259,0,0,0,.93-.828l.883.688A3.55,3.55,0,0,1,53.879.156ZM53.7-7.422a1.928,1.928,0,0,0-1.469.637A3.1,3.1,0,0,0,51.5-5H55.73v-.109a2.753,2.753,0,0,0-.594-1.707A1.815,1.815,0,0,0,53.7-7.422Zm6.516-1.031.047,1.063a3.08,3.08,0,0,1,2.531-1.219q2.68,0,2.7,3.023V0H64.051V-5.594a1.946,1.946,0,0,0-.418-1.352,1.675,1.675,0,0,0-1.277-.437,2.086,2.086,0,0,0-1.234.375,2.546,2.546,0,0,0-.828.984V0H58.848V-8.453ZM72.6-2.242a1.064,1.064,0,0,0-.441-.91,4.249,4.249,0,0,0-1.539-.559,7.277,7.277,0,0,1-1.742-.562,2.479,2.479,0,0,1-.953-.781,1.869,1.869,0,0,1-.309-1.078,2.193,2.193,0,0,1,.879-1.758,3.432,3.432,0,0,1,2.246-.719,3.532,3.532,0,0,1,2.332.742,2.357,2.357,0,0,1,.895,1.9H72.512a1.3,1.3,0,0,0-.5-1.023,1.888,1.888,0,0,0-1.27-.43,1.976,1.976,0,0,0-1.234.344,1.082,1.082,0,0,0-.445.9.877.877,0,0,0,.414.789,5.1,5.1,0,0,0,1.5.508,7.8,7.8,0,0,1,1.754.578,2.558,2.558,0,0,1,1,.809,1.988,1.988,0,0,1,.324,1.152,2.163,2.163,0,0,1-.906,1.816,3.8,3.8,0,0,1-2.352.684,4.257,4.257,0,0,1-1.8-.359,2.922,2.922,0,0,1-1.223-1A2.42,2.42,0,0,1,67.324-2.6H68.77a1.5,1.5,0,0,0,.582,1.152,2.258,2.258,0,0,0,1.434.426A2.331,2.331,0,0,0,72.1-1.355,1.02,1.02,0,0,0,72.6-2.242ZM81.145,0a3.036,3.036,0,0,1-.2-.891A3.225,3.225,0,0,1,78.535.156a2.984,2.984,0,0,1-2.051-.707,2.288,2.288,0,0,1-.8-1.793,2.39,2.39,0,0,1,1-2.051,4.733,4.733,0,0,1,2.824-.73h1.406v-.664A1.623,1.623,0,0,0,80.465-7a1.821,1.821,0,0,0-1.336-.449,2.108,2.108,0,0,0-1.3.391,1.151,1.151,0,0,0-.523.945H75.855A2,2,0,0,1,76.3-7.332a3.066,3.066,0,0,1,1.219-.934,4.1,4.1,0,0,1,1.691-.344,3.342,3.342,0,0,1,2.289.73,2.635,2.635,0,0,1,.859,2.012v3.891a4.757,4.757,0,0,0,.3,1.852V0Zm-2.4-1.1a2.54,2.54,0,0,0,1.289-.352,2.127,2.127,0,0,0,.883-.914V-4.1H79.785q-2.656,0-2.656,1.555a1.316,1.316,0,0,0,.453,1.063A1.742,1.742,0,0,0,78.746-1.1Zm9.969-6.055A4.331,4.331,0,0,0,88-7.211,1.9,1.9,0,0,0,86.074-6V0H84.629V-8.453h1.406l.023.977a2.251,2.251,0,0,1,2.016-1.133,1.477,1.477,0,0,1,.641.109Z" transform="translate(793 3444)" fill="#14263e"/>
    <path id="Trazado_213495" data-name="Trazado 213495" d="M-42.163,0V-14.219h4.375a6.644,6.644,0,0,1,3.354.845,5.89,5.89,0,0,1,2.31,2.4,7.41,7.41,0,0,1,.83,3.54v.654a7.431,7.431,0,0,1-.815,3.525,5.84,5.84,0,0,1-2.3,2.393A6.694,6.694,0,0,1-37.759,0Zm2.93-11.846v9.492h1.416A3.181,3.181,0,0,0-35.19-3.477a5.075,5.075,0,0,0,.928-3.213v-.752a5.156,5.156,0,0,0-.9-3.286,3.171,3.171,0,0,0-2.627-1.118ZM-24.487.2A5.187,5.187,0,0,1-28.271-1.23a5.068,5.068,0,0,1-1.46-3.8V-5.3a6.383,6.383,0,0,1,.615-2.847,4.515,4.515,0,0,1,1.743-1.934,4.893,4.893,0,0,1,2.573-.679,4.385,4.385,0,0,1,3.413,1.367,5.555,5.555,0,0,1,1.245,3.877v1.152H-26.87a2.622,2.622,0,0,0,.825,1.66A2.5,2.5,0,0,0-24.3-2.08a3.046,3.046,0,0,0,2.549-1.182l1.387,1.553a4.237,4.237,0,0,1-1.719,1.4A5.639,5.639,0,0,1-24.487.2Zm-.322-8.682a1.764,1.764,0,0,0-1.362.569,2.946,2.946,0,0,0-.669,1.628h3.926v-.226a2.1,2.1,0,0,0-.508-1.457A1.819,1.819,0,0,0-24.81-8.486ZM-12.817-2.92a.909.909,0,0,0-.513-.815,5.824,5.824,0,0,0-1.646-.532q-3.77-.791-3.77-3.2a2.9,2.9,0,0,1,1.167-2.349,4.708,4.708,0,0,1,3.052-.942,5.067,5.067,0,0,1,3.218.947A2.985,2.985,0,0,1-10.1-7.354h-2.822a1.366,1.366,0,0,0-.391-1,1.653,1.653,0,0,0-1.221-.4,1.689,1.689,0,0,0-1.1.322,1.017,1.017,0,0,0-.391.82.87.87,0,0,0,.444.757,4.571,4.571,0,0,0,1.5.5,12.244,12.244,0,0,1,1.777.474,2.92,2.92,0,0,1,2.236,2.842A2.756,2.756,0,0,1-11.313-.7a5.35,5.35,0,0,1-3.2.894,5.588,5.588,0,0,1-2.358-.474,3.957,3.957,0,0,1-1.616-1.3,3.018,3.018,0,0,1-.586-1.782H-16.4a1.473,1.473,0,0,0,.557,1.152,2.208,2.208,0,0,0,1.387.4,2.044,2.044,0,0,0,1.226-.308A.957.957,0,0,0-12.817-2.92Zm8.955.84a1.851,1.851,0,0,0,1.27-.43,1.506,1.506,0,0,0,.508-1.143H.562A3.62,3.62,0,0,1-.024-1.685,3.866,3.866,0,0,1-1.6-.3,4.936,4.936,0,0,1-3.813.2a4.587,4.587,0,0,1-3.574-1.44A5.7,5.7,0,0,1-8.7-5.225V-5.41a5.635,5.635,0,0,1,1.3-3.9,4.534,4.534,0,0,1,3.564-1.455A4.444,4.444,0,0,1-.654-9.634a3.994,3.994,0,0,1,1.216,3H-2.085a1.939,1.939,0,0,0-.508-1.34,1.693,1.693,0,0,0-1.289-.515,1.7,1.7,0,0,0-1.489.719,4.166,4.166,0,0,0-.5,2.333v.293a4.219,4.219,0,0,0,.5,2.347A1.721,1.721,0,0,0-3.862-2.08ZM8.5-1.074A3.539,3.539,0,0,1,5.61.2,3.338,3.338,0,0,1,3.018-.781,4.169,4.169,0,0,1,2.1-3.643v-6.924H4.927v6.834q0,1.652,1.5,1.652a2.038,2.038,0,0,0,1.973-1v-7.489h2.832V0H8.579ZM22.886-5.186A6.4,6.4,0,0,1,21.8-1.226,3.591,3.591,0,0,1,18.774.2,3.3,3.3,0,0,1,16.03-1.123L15.9,0H13.364V-15h2.822v5.381a3.214,3.214,0,0,1,2.568-1.143,3.62,3.62,0,0,1,3.032,1.421,6.408,6.408,0,0,1,1.1,4Zm-2.822-.205a4.2,4.2,0,0,0-.508-2.339,1.717,1.717,0,0,0-1.514-.737,1.862,1.862,0,0,0-1.855,1.1v4.17A1.887,1.887,0,0,0,18.062-2.08a1.742,1.742,0,0,0,1.8-1.348A6.952,6.952,0,0,0,20.063-5.391Zm10.5-2.529A7.667,7.667,0,0,0,29.546-8a2.067,2.067,0,0,0-2.1,1.084V0H24.624V-10.566H27.29l.078,1.26a2.615,2.615,0,0,1,2.354-1.455,2.957,2.957,0,0,1,.879.127ZM34.9,0H32.065V-10.566H34.9Zm-3-13.3a1.39,1.39,0,0,1,.425-1.045,1.6,1.6,0,0,1,1.157-.41,1.6,1.6,0,0,1,1.152.41,1.382,1.382,0,0,1,.43,1.045,1.386,1.386,0,0,1-.435,1.055,1.6,1.6,0,0,1-1.147.41,1.6,1.6,0,0,1-1.147-.41A1.386,1.386,0,0,1,31.9-13.3ZM43.159-7.92A7.667,7.667,0,0,0,42.144-8a2.067,2.067,0,0,0-2.1,1.084V0H37.222V-10.566h2.666l.078,1.26a2.615,2.615,0,0,1,2.354-1.455,2.957,2.957,0,0,1,.879.127Z" transform="translate(489 3237)" fill="#fcfdea"/>
    <path id="Trazado_213499" data-name="Trazado 213499" d="M-18.579,0h-2.93V-14.219h2.93Zm2.09-5.361A6.368,6.368,0,0,1-15.381-9.3a3.6,3.6,0,0,1,3.032-1.465A3.236,3.236,0,0,1-9.8-9.609V-15h2.832V0H-9.517l-.137-1.123A3.321,3.321,0,0,1-12.368.2a3.587,3.587,0,0,1-2.993-1.47A6.573,6.573,0,0,1-16.489-5.361Zm2.822.21a4.171,4.171,0,0,0,.518,2.279,1.686,1.686,0,0,0,1.5.792A1.888,1.888,0,0,0-9.8-3.185V-7.362a1.861,1.861,0,0,0-1.826-1.105Q-13.667-8.467-13.667-5.151ZM.083.2A5.187,5.187,0,0,1-3.7-1.23a5.068,5.068,0,0,1-1.46-3.8V-5.3a6.383,6.383,0,0,1,.615-2.847A4.515,4.515,0,0,1-2.8-10.083a4.893,4.893,0,0,1,2.573-.679A4.385,4.385,0,0,1,3.184-9.395,5.555,5.555,0,0,1,4.429-5.518v1.152H-2.3a2.622,2.622,0,0,0,.825,1.66A2.5,2.5,0,0,0,.269-2.08,3.046,3.046,0,0,0,2.817-3.262L4.2-1.709a4.237,4.237,0,0,1-1.719,1.4A5.639,5.639,0,0,1,.083.2ZM-.239-8.486A1.764,1.764,0,0,0-1.6-7.917a2.946,2.946,0,0,0-.669,1.628H1.655v-.226a2.1,2.1,0,0,0-.508-1.457A1.819,1.819,0,0,0-.239-8.486ZM12.153,0a3.134,3.134,0,0,1-.283-.947A3.415,3.415,0,0,1,9.2.2,3.752,3.752,0,0,1,6.631-.7,2.89,2.89,0,0,1,5.61-2.969,2.986,2.986,0,0,1,6.855-5.547a6.144,6.144,0,0,1,3.6-.908h1.3v-.605a1.741,1.741,0,0,0-.376-1.172,1.479,1.479,0,0,0-1.187-.439,1.682,1.682,0,0,0-1.118.342,1.161,1.161,0,0,0-.405.938H5.845a2.835,2.835,0,0,1,.566-1.7,3.744,3.744,0,0,1,1.6-1.226,5.837,5.837,0,0,1,2.324-.444,4.611,4.611,0,0,1,3.1.981,3.433,3.433,0,0,1,1.147,2.759v4.58A5.052,5.052,0,0,0,15-.166V0ZM9.819-1.963a2.431,2.431,0,0,0,1.152-.278,1.828,1.828,0,0,0,.781-.747V-4.8H10.7Q8.579-4.8,8.442-3.34l-.01.166A1.13,1.13,0,0,0,8.8-2.3,1.441,1.441,0,0,0,9.819-1.963ZM22.69-7.92A7.667,7.667,0,0,0,21.675-8a2.067,2.067,0,0,0-2.1,1.084V0H16.753V-10.566h2.666l.078,1.26a2.615,2.615,0,0,1,2.354-1.455,2.957,2.957,0,0,1,.879.127Z" transform="translate(788 3237)" fill="#fcfdea"/>
    <path id="Trazado_213496" data-name="Trazado 213496" d="M-31.75-5.258h-4.93v4.031h5.727V0H-38.18V-11.375h7.148v1.227H-36.68v3.664h4.93Zm3.8-3.2.047,1.063a3.08,3.08,0,0,1,2.531-1.219q2.68,0,2.7,3.023V0h-1.445V-5.594a1.946,1.946,0,0,0-.418-1.352A1.675,1.675,0,0,0-25.8-7.383a2.086,2.086,0,0,0-1.234.375,2.546,2.546,0,0,0-.828.984V0h-1.445V-8.453Zm9.422-2.047v2.047h1.578v1.117h-1.578v5.249a1.173,1.173,0,0,0,.211.763.888.888,0,0,0,.719.254,3.5,3.5,0,0,0,.688-.094V0a4.215,4.215,0,0,1-1.109.155A1.8,1.8,0,0,1-19.477-.43a2.517,2.517,0,0,1-.492-1.664V-7.336h-1.539V-8.453h1.539V-10.5Zm7.352,3.344a4.331,4.331,0,0,0-.711-.055A1.9,1.9,0,0,0-13.812-6V0h-1.445V-8.453h1.406l.023.977a2.251,2.251,0,0,1,2.016-1.133,1.477,1.477,0,0,1,.641.109ZM-6.336.156a3.693,3.693,0,0,1-2.8-1.129,4.19,4.19,0,0,1-1.078-3.02v-.266A5.073,5.073,0,0,1-9.73-6.5,3.748,3.748,0,0,1-8.387-8.051a3.378,3.378,0,0,1,1.871-.559A3.166,3.166,0,0,1-3.953-7.523a4.7,4.7,0,0,1,.914,3.109v.6H-8.766a3,3,0,0,0,.73,2.02,2.3,2.3,0,0,0,1.777.77,2.517,2.517,0,0,0,1.3-.312,3.259,3.259,0,0,0,.93-.828l.883.688A3.55,3.55,0,0,1-6.336.156Zm-.18-7.578a1.928,1.928,0,0,0-1.469.637A3.1,3.1,0,0,0-8.719-5h4.234v-.109a2.753,2.753,0,0,0-.594-1.707A1.815,1.815,0,0,0-6.516-7.422ZM1.32-1.961,3.414-8.453H4.891L1.859,0H.758L-2.3-8.453H-.828ZM7.852,0H6.406V-8.453H7.852ZM6.289-10.7a.863.863,0,0,1,.215-.594.807.807,0,0,1,.637-.242.819.819,0,0,1,.641.242A.854.854,0,0,1,8-10.7a.826.826,0,0,1-.219.586.834.834,0,0,1-.641.234.821.821,0,0,1-.637-.234A.834.834,0,0,1,6.289-10.7Zm8.8,8.453a1.064,1.064,0,0,0-.441-.91,4.249,4.249,0,0,0-1.539-.559,7.277,7.277,0,0,1-1.742-.562,2.479,2.479,0,0,1-.953-.781A1.869,1.869,0,0,1,10.1-6.133a2.193,2.193,0,0,1,.879-1.758,3.432,3.432,0,0,1,2.246-.719,3.532,3.532,0,0,1,2.332.742,2.357,2.357,0,0,1,.895,1.9H15a1.3,1.3,0,0,0-.5-1.023,1.888,1.888,0,0,0-1.27-.43,1.976,1.976,0,0,0-1.234.344,1.082,1.082,0,0,0-.445.9.877.877,0,0,0,.414.789,5.1,5.1,0,0,0,1.5.508,7.8,7.8,0,0,1,1.754.578,2.558,2.558,0,0,1,1,.809,1.988,1.988,0,0,1,.324,1.152,2.163,2.163,0,0,1-.906,1.816,3.8,3.8,0,0,1-2.352.684,4.257,4.257,0,0,1-1.8-.359,2.922,2.922,0,0,1-1.223-1A2.42,2.42,0,0,1,9.813-2.6h1.445a1.5,1.5,0,0,0,.582,1.152,2.258,2.258,0,0,0,1.434.426,2.331,2.331,0,0,0,1.316-.332A1.02,1.02,0,0,0,15.086-2.242ZM20.375-10.5v2.047h1.578v1.117H20.375v5.249a1.173,1.173,0,0,0,.211.763.888.888,0,0,0,.719.254,3.5,3.5,0,0,0,.688-.094V0a4.215,4.215,0,0,1-1.109.155A1.8,1.8,0,0,1,19.422-.43a2.517,2.517,0,0,1-.492-1.664V-7.336H17.391V-8.453H18.93V-10.5ZM28.859,0a3.036,3.036,0,0,1-.2-.891A3.225,3.225,0,0,1,26.25.156,2.984,2.984,0,0,1,24.2-.551a2.287,2.287,0,0,1-.8-1.793,2.39,2.39,0,0,1,1-2.051,4.733,4.733,0,0,1,2.824-.73h1.406v-.664A1.623,1.623,0,0,0,28.18-7a1.821,1.821,0,0,0-1.336-.449,2.108,2.108,0,0,0-1.3.391,1.151,1.151,0,0,0-.523.945H23.57a2,2,0,0,1,.449-1.223,3.066,3.066,0,0,1,1.219-.934,4.1,4.1,0,0,1,1.691-.344,3.342,3.342,0,0,1,2.289.73,2.635,2.635,0,0,1,.859,2.012v3.891a4.757,4.757,0,0,0,.3,1.852V0Zm-2.4-1.1a2.54,2.54,0,0,0,1.289-.352,2.127,2.127,0,0,0,.883-.914V-4.1H27.5q-2.656,0-2.656,1.555A1.316,1.316,0,0,0,25.3-1.484,1.742,1.742,0,0,0,26.461-1.1Zm10.8-1.141a1.064,1.064,0,0,0-.441-.91,4.249,4.249,0,0,0-1.539-.559,7.277,7.277,0,0,1-1.742-.562,2.479,2.479,0,0,1-.953-.781,1.869,1.869,0,0,1-.309-1.078,2.193,2.193,0,0,1,.879-1.758,3.432,3.432,0,0,1,2.246-.719,3.532,3.532,0,0,1,2.332.742,2.357,2.357,0,0,1,.895,1.9H37.18a1.3,1.3,0,0,0-.5-1.023,1.888,1.888,0,0,0-1.27-.43,1.976,1.976,0,0,0-1.234.344,1.082,1.082,0,0,0-.445.9.877.877,0,0,0,.414.789,5.1,5.1,0,0,0,1.5.508,7.8,7.8,0,0,1,1.754.578,2.558,2.558,0,0,1,1,.809,1.988,1.988,0,0,1,.324,1.152A2.163,2.163,0,0,1,37.8-.527a3.8,3.8,0,0,1-2.352.684,4.257,4.257,0,0,1-1.8-.359,2.922,2.922,0,0,1-1.223-1A2.42,2.42,0,0,1,31.992-2.6h1.445a1.5,1.5,0,0,0,.582,1.152,2.258,2.258,0,0,0,1.434.426,2.331,2.331,0,0,0,1.316-.332A1.02,1.02,0,0,0,37.266-2.242Z" transform="translate(487.725 3381)" fill="#14263e"/>
    <path id="Trazado_213503" data-name="Trazado 213503" d="M-72.434-4.453V0h-1.5V-11.375h4.2a4.215,4.215,0,0,1,2.926.953A3.231,3.231,0,0,1-65.754-7.9a3.189,3.189,0,0,1-1.035,2.551,4.4,4.4,0,0,1-2.965.895Zm0-1.227h2.7a2.7,2.7,0,0,0,1.844-.567,2.075,2.075,0,0,0,.641-1.64,2.143,2.143,0,0,0-.641-1.628,2.525,2.525,0,0,0-1.758-.634h-2.781ZM-59.98-7.156a4.331,4.331,0,0,0-.711-.055A1.9,1.9,0,0,0-62.621-6V0h-1.445V-8.453h1.406l.023.977a2.251,2.251,0,0,1,2.016-1.133,1.477,1.477,0,0,1,.641.109Zm6.547,6.32A3.07,3.07,0,0,1-55.91.156a2.628,2.628,0,0,1-2.059-.785,3.4,3.4,0,0,1-.715-2.324v-5.5h1.445v5.461q0,1.922,1.563,1.922a2.163,2.163,0,0,0,2.2-1.234V-8.453h1.445V0H-53.4Zm7.109.992a3.693,3.693,0,0,1-2.8-1.129A4.19,4.19,0,0,1-50.2-3.992v-.266a5.073,5.073,0,0,1,.48-2.246,3.748,3.748,0,0,1,1.344-1.547A3.378,3.378,0,0,1-46.5-8.609a3.166,3.166,0,0,1,2.563,1.086,4.7,4.7,0,0,1,.914,3.109v.6h-5.727a3,3,0,0,0,.73,2.02,2.3,2.3,0,0,0,1.777.77,2.517,2.517,0,0,0,1.3-.312,3.259,3.259,0,0,0,.93-.828l.883.688A3.55,3.55,0,0,1-46.324.156Zm-.18-7.578a1.928,1.928,0,0,0-1.469.637A3.1,3.1,0,0,0-48.707-5h4.234v-.109a2.753,2.753,0,0,0-.594-1.707A1.815,1.815,0,0,0-46.5-7.422Zm12.3,3.289A5.026,5.026,0,0,1-35.09-1.02,2.846,2.846,0,0,1-37.48.156,2.947,2.947,0,0,1-39.957-.977l-.07.977h-1.328V-12h1.445v4.477A2.93,2.93,0,0,1-37.5-8.609a2.863,2.863,0,0,1,2.418,1.164A5.177,5.177,0,0,1-34.2-4.258ZM-35.645-4.3a3.906,3.906,0,0,0-.57-2.281,1.888,1.888,0,0,0-1.641-.8A2.122,2.122,0,0,0-39.91-6.055V-2.4A2.181,2.181,0,0,0-37.84-1.07a1.878,1.878,0,0,0,1.617-.8A4.153,4.153,0,0,0-35.645-4.3ZM-27.16,0a3.036,3.036,0,0,1-.2-.891A3.225,3.225,0,0,1-29.77.156,2.984,2.984,0,0,1-31.82-.551a2.287,2.287,0,0,1-.8-1.793,2.39,2.39,0,0,1,1-2.051,4.733,4.733,0,0,1,2.824-.73h1.406v-.664A1.623,1.623,0,0,0-27.84-7a1.821,1.821,0,0,0-1.336-.449,2.108,2.108,0,0,0-1.3.391A1.151,1.151,0,0,0-31-6.109h-1.453A2,2,0,0,1-32-7.332a3.066,3.066,0,0,1,1.219-.934,4.1,4.1,0,0,1,1.691-.344,3.342,3.342,0,0,1,2.289.73,2.635,2.635,0,0,1,.859,2.012v3.891a4.757,4.757,0,0,0,.3,1.852V0Zm-2.4-1.1a2.54,2.54,0,0,0,1.289-.352,2.127,2.127,0,0,0,.883-.914V-4.1H-28.52q-2.656,0-2.656,1.555a1.316,1.316,0,0,0,.453,1.063A1.742,1.742,0,0,0-29.559-1.1Zm10.8-1.141a1.064,1.064,0,0,0-.441-.91,4.249,4.249,0,0,0-1.539-.559,7.277,7.277,0,0,1-1.742-.562,2.479,2.479,0,0,1-.953-.781,1.869,1.869,0,0,1-.309-1.078,2.193,2.193,0,0,1,.879-1.758,3.432,3.432,0,0,1,2.246-.719,3.532,3.532,0,0,1,2.332.742,2.357,2.357,0,0,1,.895,1.9H-18.84a1.3,1.3,0,0,0-.5-1.023,1.888,1.888,0,0,0-1.27-.43,1.976,1.976,0,0,0-1.234.344,1.082,1.082,0,0,0-.445.9.877.877,0,0,0,.414.789,5.1,5.1,0,0,0,1.5.508,7.8,7.8,0,0,1,1.754.578,2.558,2.558,0,0,1,1,.809,1.988,1.988,0,0,1,.324,1.152,2.163,2.163,0,0,1-.906,1.816,3.8,3.8,0,0,1-2.352.684,4.257,4.257,0,0,1-1.8-.359,2.922,2.922,0,0,1-1.223-1A2.42,2.42,0,0,1-24.027-2.6h1.445A1.5,1.5,0,0,0-22-1.449a2.258,2.258,0,0,0,1.434.426,2.331,2.331,0,0,0,1.316-.332A1.02,1.02,0,0,0-18.754-2.242ZM-11.816-4.3a4.952,4.952,0,0,1,.922-3.129A2.915,2.915,0,0,1-8.48-8.609,2.932,2.932,0,0,1-6.129-7.594V-12h1.445V0H-6.012l-.07-.906A2.943,2.943,0,0,1-8.5.156a2.887,2.887,0,0,1-2.395-1.2,5.008,5.008,0,0,1-.926-3.141Zm1.445.164a3.749,3.749,0,0,0,.594,2.25,1.92,1.92,0,0,0,1.641.813A2.108,2.108,0,0,0-6.129-2.3V-6.187a2.125,2.125,0,0,0-1.992-1.2,1.929,1.929,0,0,0-1.656.82A4.128,4.128,0,0,0-10.371-4.133ZM1.066.156A3.693,3.693,0,0,1-1.73-.973a4.19,4.19,0,0,1-1.078-3.02v-.266A5.073,5.073,0,0,1-2.328-6.5,3.748,3.748,0,0,1-.984-8.051,3.378,3.378,0,0,1,.887-8.609,3.166,3.166,0,0,1,3.449-7.523a4.7,4.7,0,0,1,.914,3.109v.6H-1.363a3,3,0,0,0,.73,2.02,2.3,2.3,0,0,0,1.777.77,2.517,2.517,0,0,0,1.3-.312,3.259,3.259,0,0,0,.93-.828l.883.688A3.55,3.55,0,0,1,1.066.156ZM.887-7.422a1.928,1.928,0,0,0-1.469.637A3.1,3.1,0,0,0-1.316-5H2.918v-.109a2.753,2.753,0,0,0-.594-1.707A1.815,1.815,0,0,0,.887-7.422Zm12.5,6.4a2.082,2.082,0,0,0,1.352-.469,1.649,1.649,0,0,0,.641-1.172h1.367a2.621,2.621,0,0,1-.5,1.383,3.293,3.293,0,0,1-1.23,1.047,3.55,3.55,0,0,1-1.629.391A3.482,3.482,0,0,1,10.641-1a4.59,4.59,0,0,1-1.02-3.152v-.242a5.089,5.089,0,0,1,.453-2.2,3.451,3.451,0,0,1,1.3-1.492,3.7,3.7,0,0,1,2-.531,3.39,3.39,0,0,1,2.363.852,3.043,3.043,0,0,1,1,2.211H15.379a1.992,1.992,0,0,0-.621-1.348,1.932,1.932,0,0,0-1.379-.527,2.023,2.023,0,0,0-1.707.793,3.724,3.724,0,0,0-.605,2.293v.273a3.65,3.65,0,0,0,.6,2.25A2.033,2.033,0,0,0,13.387-1.023Zm4.6-3.281a4.993,4.993,0,0,1,.488-2.234A3.643,3.643,0,0,1,19.836-8.07a3.7,3.7,0,0,1,1.988-.539,3.565,3.565,0,0,1,2.793,1.2,4.6,4.6,0,0,1,1.066,3.18v.1a5.036,5.036,0,0,1-.473,2.215A3.589,3.589,0,0,1,23.859-.391a3.743,3.743,0,0,1-2.02.547,3.556,3.556,0,0,1-2.785-1.2A4.575,4.575,0,0,1,17.988-4.2Zm1.453.172a3.616,3.616,0,0,0,.652,2.258,2.088,2.088,0,0,0,1.746.852,2.075,2.075,0,0,0,1.75-.863A3.955,3.955,0,0,0,24.238-4.3a3.61,3.61,0,0,0-.66-2.254,2.1,2.1,0,0,0-1.754-.863A2.075,2.075,0,0,0,20.1-6.57,3.925,3.925,0,0,0,19.441-4.133Zm9.422-4.32.047,1.063a3.08,3.08,0,0,1,2.531-1.219q2.68,0,2.7,3.023V0H32.7V-5.594a1.946,1.946,0,0,0-.418-1.352A1.675,1.675,0,0,0,31-7.383a2.086,2.086,0,0,0-1.234.375,2.546,2.546,0,0,0-.828.984V0H27.5V-8.453Zm10.852,7.43a2.082,2.082,0,0,0,1.352-.469,1.649,1.649,0,0,0,.641-1.172h1.367a2.621,2.621,0,0,1-.5,1.383,3.293,3.293,0,0,1-1.23,1.047,3.55,3.55,0,0,1-1.629.391A3.482,3.482,0,0,1,36.969-1a4.59,4.59,0,0,1-1.02-3.152v-.242a5.089,5.089,0,0,1,.453-2.2,3.451,3.451,0,0,1,1.3-1.492,3.7,3.7,0,0,1,2-.531,3.39,3.39,0,0,1,2.363.852,3.043,3.043,0,0,1,1,2.211H41.707a1.992,1.992,0,0,0-.621-1.348,1.932,1.932,0,0,0-1.379-.527A2.023,2.023,0,0,0,38-6.629a3.724,3.724,0,0,0-.605,2.293v.273a3.65,3.65,0,0,0,.6,2.25A2.033,2.033,0,0,0,39.715-1.023ZM48.207.156a3.693,3.693,0,0,1-2.8-1.129,4.19,4.19,0,0,1-1.078-3.02v-.266a5.073,5.073,0,0,1,.48-2.246,3.748,3.748,0,0,1,1.344-1.547,3.378,3.378,0,0,1,1.871-.559A3.166,3.166,0,0,1,50.59-7.523,4.7,4.7,0,0,1,51.5-4.414v.6H45.777a3,3,0,0,0,.73,2.02,2.3,2.3,0,0,0,1.777.77,2.517,2.517,0,0,0,1.3-.312,3.259,3.259,0,0,0,.93-.828l.883.688A3.55,3.55,0,0,1,48.207.156Zm-.18-7.578a1.928,1.928,0,0,0-1.469.637A3.1,3.1,0,0,0,45.824-5h4.234v-.109a2.753,2.753,0,0,0-.594-1.707A1.815,1.815,0,0,0,48.027-7.422ZM60.316-4.133a5.062,5.062,0,0,1-.883,3.109A2.829,2.829,0,0,1,57.043.156,3.1,3.1,0,0,1,54.621-.82V3.25H53.176v-11.7H54.5l.07.938A2.977,2.977,0,0,1,57.02-8.609a2.882,2.882,0,0,1,2.41,1.148,5.117,5.117,0,0,1,.887,3.2ZM58.871-4.3a3.735,3.735,0,0,0-.609-2.258,1.963,1.963,0,0,0-1.672-.828,2.125,2.125,0,0,0-1.969,1.164V-2.18a2.129,2.129,0,0,0,1.984,1.156,1.954,1.954,0,0,0,1.652-.824A4.077,4.077,0,0,0,58.871-4.3Zm5.242-6.2v2.047h1.578v1.117H64.113v5.249a1.173,1.173,0,0,0,.211.763.888.888,0,0,0,.719.254,3.5,3.5,0,0,0,.688-.094V0a4.215,4.215,0,0,1-1.109.155A1.8,1.8,0,0,1,63.16-.43a2.517,2.517,0,0,1-.492-1.664V-7.336H61.129V-8.453h1.539V-10.5ZM66.84-4.3a4.993,4.993,0,0,1,.488-2.234A3.643,3.643,0,0,1,68.688-8.07a3.7,3.7,0,0,1,1.988-.539,3.565,3.565,0,0,1,2.793,1.2,4.6,4.6,0,0,1,1.066,3.18v.1a5.036,5.036,0,0,1-.473,2.215A3.589,3.589,0,0,1,72.711-.391a3.743,3.743,0,0,1-2.02.547,3.556,3.556,0,0,1-2.785-1.2A4.575,4.575,0,0,1,66.84-4.2Zm1.453.172a3.616,3.616,0,0,0,.652,2.258,2.088,2.088,0,0,0,1.746.852,2.075,2.075,0,0,0,1.75-.863A3.955,3.955,0,0,0,73.09-4.3a3.61,3.61,0,0,0-.66-2.254,2.1,2.1,0,0,0-1.754-.863,2.075,2.075,0,0,0-1.727.852A3.925,3.925,0,0,0,68.293-4.133Z" transform="translate(1088.421 3381)" fill="#14263e"/>
    <path id="Trazado_213500" data-name="Trazado 213500" d="M-58.66-11.375l3.719,9.281,3.719-9.281h1.945V0h-1.5V-4.43l.141-4.781L-54.371,0H-55.52l-3.727-9.187L-59.1-4.43V0h-1.5V-11.375ZM-41.637,0a3.036,3.036,0,0,1-.2-.891A3.225,3.225,0,0,1-44.246.156,2.984,2.984,0,0,1-46.3-.551a2.287,2.287,0,0,1-.8-1.793,2.39,2.39,0,0,1,1-2.051,4.733,4.733,0,0,1,2.824-.73h1.406v-.664A1.623,1.623,0,0,0-42.316-7a1.821,1.821,0,0,0-1.336-.449,2.107,2.107,0,0,0-1.3.391,1.151,1.151,0,0,0-.523.945h-1.453a2,2,0,0,1,.449-1.223,3.066,3.066,0,0,1,1.219-.934,4.1,4.1,0,0,1,1.691-.344,3.342,3.342,0,0,1,2.289.73,2.635,2.635,0,0,1,.859,2.012v3.891a4.757,4.757,0,0,0,.3,1.852V0Zm-2.4-1.1a2.54,2.54,0,0,0,1.289-.352,2.127,2.127,0,0,0,.883-.914V-4.1H-43q-2.656,0-2.656,1.555A1.316,1.316,0,0,0-45.2-1.484,1.742,1.742,0,0,0-44.035-1.1Zm13.023-3.031a5.062,5.062,0,0,1-.883,3.109A2.829,2.829,0,0,1-34.285.156,3.1,3.1,0,0,1-36.707-.82V3.25h-1.445v-11.7h1.32l.07.938a2.977,2.977,0,0,1,2.453-1.094A2.882,2.882,0,0,1-31.9-7.461a5.117,5.117,0,0,1,.887,3.2ZM-32.457-4.3a3.735,3.735,0,0,0-.609-2.258,1.963,1.963,0,0,0-1.672-.828,2.125,2.125,0,0,0-1.969,1.164V-2.18a2.129,2.129,0,0,0,1.984,1.156,1.954,1.954,0,0,0,1.652-.824A4.077,4.077,0,0,0-32.457-4.3Zm8.5,4.3a3.036,3.036,0,0,1-.2-.891A3.225,3.225,0,0,1-26.566.156a2.984,2.984,0,0,1-2.051-.707,2.287,2.287,0,0,1-.8-1.793,2.39,2.39,0,0,1,1-2.051,4.733,4.733,0,0,1,2.824-.73h1.406v-.664A1.623,1.623,0,0,0-24.637-7a1.821,1.821,0,0,0-1.336-.449,2.108,2.108,0,0,0-1.3.391,1.151,1.151,0,0,0-.523.945h-1.453A2,2,0,0,1-28.8-7.332a3.066,3.066,0,0,1,1.219-.934,4.1,4.1,0,0,1,1.691-.344,3.342,3.342,0,0,1,2.289.73,2.635,2.635,0,0,1,.859,2.012v3.891a4.757,4.757,0,0,0,.3,1.852V0Zm-2.4-1.1a2.54,2.54,0,0,0,1.289-.352,2.127,2.127,0,0,0,.883-.914V-4.1h-1.133q-2.656,0-2.656,1.555a1.316,1.316,0,0,0,.453,1.063A1.742,1.742,0,0,0-26.355-1.1Zm9.492-3.2a4.952,4.952,0,0,1,.922-3.129,2.915,2.915,0,0,1,2.414-1.184,2.932,2.932,0,0,1,2.352,1.016V-12H-9.73V0h-1.328l-.07-.906A2.943,2.943,0,0,1-13.543.156a2.887,2.887,0,0,1-2.395-1.2,5.008,5.008,0,0,1-.926-3.141Zm1.445.164a3.749,3.749,0,0,0,.594,2.25,1.92,1.92,0,0,0,1.641.813A2.108,2.108,0,0,0-11.176-2.3V-6.187a2.125,2.125,0,0,0-1.992-1.2,1.929,1.929,0,0,0-1.656.82A4.128,4.128,0,0,0-15.418-4.133ZM-3.98.156a3.693,3.693,0,0,1-2.8-1.129,4.19,4.19,0,0,1-1.078-3.02v-.266A5.073,5.073,0,0,1-7.375-6.5,3.748,3.748,0,0,1-6.031-8.051,3.378,3.378,0,0,1-4.16-8.609,3.166,3.166,0,0,1-1.6-7.523,4.7,4.7,0,0,1-.684-4.414v.6H-6.41a3,3,0,0,0,.73,2.02,2.3,2.3,0,0,0,1.777.77,2.517,2.517,0,0,0,1.3-.312,3.259,3.259,0,0,0,.93-.828l.883.688A3.55,3.55,0,0,1-3.98.156Zm-.18-7.578a1.928,1.928,0,0,0-1.469.637A3.1,3.1,0,0,0-6.363-5h4.234v-.109a2.753,2.753,0,0,0-.594-1.707A1.815,1.815,0,0,0-4.16-7.422ZM8.457.156A3.693,3.693,0,0,1,5.66-.973a4.19,4.19,0,0,1-1.078-3.02v-.266A5.073,5.073,0,0,1,5.063-6.5,3.748,3.748,0,0,1,6.406-8.051a3.378,3.378,0,0,1,1.871-.559A3.166,3.166,0,0,1,10.84-7.523a4.7,4.7,0,0,1,.914,3.109v.6H6.027a3,3,0,0,0,.73,2.02,2.3,2.3,0,0,0,1.777.77,2.517,2.517,0,0,0,1.3-.312,3.259,3.259,0,0,0,.93-.828l.883.688A3.55,3.55,0,0,1,8.457.156Zm-.18-7.578a1.928,1.928,0,0,0-1.469.637A3.1,3.1,0,0,0,6.074-5h4.234v-.109a2.753,2.753,0,0,0-.594-1.707A1.815,1.815,0,0,0,8.277-7.422Zm6.508-1.031.039.938a3.122,3.122,0,0,1,2.508-1.094A2.417,2.417,0,0,1,19.746-7.25a3.2,3.2,0,0,1,1.1-.984,3.242,3.242,0,0,1,1.6-.375q2.781,0,2.828,2.945V0H23.824V-5.578a1.941,1.941,0,0,0-.414-1.355,1.823,1.823,0,0,0-1.391-.449,1.916,1.916,0,0,0-1.336.48,1.949,1.949,0,0,0-.617,1.293V0H18.613V-5.539a1.613,1.613,0,0,0-1.8-1.844,1.934,1.934,0,0,0-1.945,1.211V0H13.418V-8.453Zm19.8,4.32a5.062,5.062,0,0,1-.883,3.109A2.829,2.829,0,0,1,31.316.156,3.1,3.1,0,0,1,28.895-.82V3.25H27.449v-11.7h1.32l.07.938a2.977,2.977,0,0,1,2.453-1.094A2.882,2.882,0,0,1,33.7-7.461a5.117,5.117,0,0,1,.887,3.2ZM33.145-4.3a3.735,3.735,0,0,0-.609-2.258,1.963,1.963,0,0,0-1.672-.828,2.125,2.125,0,0,0-1.969,1.164V-2.18a2.129,2.129,0,0,0,1.984,1.156,1.954,1.954,0,0,0,1.652-.824A4.077,4.077,0,0,0,33.145-4.3Zm8.5,4.3a3.036,3.036,0,0,1-.2-.891A3.225,3.225,0,0,1,39.035.156a2.984,2.984,0,0,1-2.051-.707,2.287,2.287,0,0,1-.8-1.793,2.39,2.39,0,0,1,1-2.051,4.733,4.733,0,0,1,2.824-.73h1.406v-.664A1.623,1.623,0,0,0,40.965-7a1.821,1.821,0,0,0-1.336-.449,2.107,2.107,0,0,0-1.3.391,1.151,1.151,0,0,0-.523.945H36.355A2,2,0,0,1,36.8-7.332a3.066,3.066,0,0,1,1.219-.934,4.1,4.1,0,0,1,1.691-.344A3.342,3.342,0,0,1,42-7.879a2.635,2.635,0,0,1,.859,2.012v3.891a4.757,4.757,0,0,0,.3,1.852V0Zm-2.4-1.1a2.54,2.54,0,0,0,1.289-.352,2.127,2.127,0,0,0,.883-.914V-4.1H40.285q-2.656,0-2.656,1.555a1.316,1.316,0,0,0,.453,1.063A1.742,1.742,0,0,0,39.246-1.1Zm7.844-9.4v2.047h1.578v1.117H47.09v5.249a1.173,1.173,0,0,0,.211.763.888.888,0,0,0,.719.254,3.5,3.5,0,0,0,.688-.094V0A4.215,4.215,0,0,1,47.6.156,1.8,1.8,0,0,1,46.137-.43a2.517,2.517,0,0,1-.492-1.664V-7.336H44.105V-8.453h1.539V-10.5ZM51.926,0H50.473V-8.453h1.453Zm.016-11.992h1.75L51.6-9.7l-1.164,0ZM59.527,0a3.036,3.036,0,0,1-.2-.891A3.225,3.225,0,0,1,56.918.156a2.984,2.984,0,0,1-2.051-.707,2.287,2.287,0,0,1-.8-1.793,2.39,2.39,0,0,1,1-2.051,4.733,4.733,0,0,1,2.824-.73H59.3v-.664A1.623,1.623,0,0,0,58.848-7a1.821,1.821,0,0,0-1.336-.449,2.107,2.107,0,0,0-1.3.391,1.151,1.151,0,0,0-.523.945H54.238a2,2,0,0,1,.449-1.223,3.066,3.066,0,0,1,1.219-.934A4.1,4.1,0,0,1,57.6-8.609a3.342,3.342,0,0,1,2.289.73,2.635,2.635,0,0,1,.859,2.012v3.891a4.757,4.757,0,0,0,.3,1.852V0Zm-2.4-1.1a2.54,2.54,0,0,0,1.289-.352,2.127,2.127,0,0,0,.883-.914V-4.1H58.168q-2.656,0-2.656,1.555a1.316,1.316,0,0,0,.453,1.063A1.742,1.742,0,0,0,57.129-1.1Z" transform="translate(487.725 3444)" fill="#14263e"/>
    <path id="Trazado_213501" data-name="Trazado 213501" d="M-72.32-11.375-68.6-2.094l3.719-9.281h1.945V0h-1.5V-4.43l.141-4.781L-68.031,0H-69.18l-3.727-9.187.148,4.758V0h-1.5V-11.375ZM-55.3,0a3.036,3.036,0,0,1-.2-.891A3.225,3.225,0,0,1-57.906.156a2.984,2.984,0,0,1-2.051-.707,2.287,2.287,0,0,1-.8-1.793,2.39,2.39,0,0,1,1-2.051,4.733,4.733,0,0,1,2.824-.73h1.406v-.664A1.623,1.623,0,0,0-55.977-7a1.821,1.821,0,0,0-1.336-.449,2.107,2.107,0,0,0-1.3.391,1.151,1.151,0,0,0-.523.945h-1.453a2,2,0,0,1,.449-1.223,3.066,3.066,0,0,1,1.219-.934,4.1,4.1,0,0,1,1.691-.344,3.342,3.342,0,0,1,2.289.73,2.635,2.635,0,0,1,.859,2.012v3.891a4.757,4.757,0,0,0,.3,1.852V0Zm-2.4-1.1a2.54,2.54,0,0,0,1.289-.352,2.127,2.127,0,0,0,.883-.914V-4.1h-1.133q-2.656,0-2.656,1.555a1.316,1.316,0,0,0,.453,1.063A1.742,1.742,0,0,0-57.7-1.1Zm13.023-3.031a5.062,5.062,0,0,1-.883,3.109A2.829,2.829,0,0,1-47.945.156,3.1,3.1,0,0,1-50.367-.82V3.25h-1.445v-11.7h1.32l.07.938a2.977,2.977,0,0,1,2.453-1.094,2.882,2.882,0,0,1,2.41,1.148,5.117,5.117,0,0,1,.887,3.2ZM-46.117-4.3a3.735,3.735,0,0,0-.609-2.258A1.963,1.963,0,0,0-48.4-7.383a2.125,2.125,0,0,0-1.969,1.164V-2.18a2.129,2.129,0,0,0,1.984,1.156,1.954,1.954,0,0,0,1.652-.824A4.077,4.077,0,0,0-46.117-4.3Zm8.5,4.3a3.036,3.036,0,0,1-.2-.891A3.225,3.225,0,0,1-40.227.156a2.984,2.984,0,0,1-2.051-.707,2.287,2.287,0,0,1-.8-1.793,2.39,2.39,0,0,1,1-2.051,4.733,4.733,0,0,1,2.824-.73h1.406v-.664A1.623,1.623,0,0,0-38.3-7a1.821,1.821,0,0,0-1.336-.449,2.107,2.107,0,0,0-1.3.391,1.151,1.151,0,0,0-.523.945h-1.453a2,2,0,0,1,.449-1.223,3.066,3.066,0,0,1,1.219-.934,4.1,4.1,0,0,1,1.691-.344,3.342,3.342,0,0,1,2.289.73A2.635,2.635,0,0,1-36.4-5.867v3.891a4.757,4.757,0,0,0,.3,1.852V0Zm-2.4-1.1a2.54,2.54,0,0,0,1.289-.352,2.127,2.127,0,0,0,.883-.914V-4.1h-1.133q-2.656,0-2.656,1.555a1.316,1.316,0,0,0,.453,1.063A1.742,1.742,0,0,0-40.016-1.1Zm9.492-3.2A4.952,4.952,0,0,1-29.6-7.426a2.915,2.915,0,0,1,2.414-1.184,2.932,2.932,0,0,1,2.352,1.016V-12h1.445V0h-1.328l-.07-.906A2.943,2.943,0,0,1-27.2.156a2.887,2.887,0,0,1-2.395-1.2,5.008,5.008,0,0,1-.926-3.141Zm1.445.164a3.749,3.749,0,0,0,.594,2.25,1.92,1.92,0,0,0,1.641.813A2.108,2.108,0,0,0-24.836-2.3V-6.187a2.125,2.125,0,0,0-1.992-1.2,1.929,1.929,0,0,0-1.656.82A4.128,4.128,0,0,0-29.078-4.133ZM-17.641.156a3.693,3.693,0,0,1-2.8-1.129,4.19,4.19,0,0,1-1.078-3.02v-.266a5.073,5.073,0,0,1,.48-2.246,3.748,3.748,0,0,1,1.344-1.547,3.378,3.378,0,0,1,1.871-.559,3.166,3.166,0,0,1,2.563,1.086,4.7,4.7,0,0,1,.914,3.109v.6H-20.07a3,3,0,0,0,.73,2.02,2.3,2.3,0,0,0,1.777.77,2.517,2.517,0,0,0,1.3-.312,3.259,3.259,0,0,0,.93-.828l.883.688A3.55,3.55,0,0,1-17.641.156Zm-.18-7.578a1.928,1.928,0,0,0-1.469.637A3.1,3.1,0,0,0-20.023-5h4.234v-.109a2.753,2.753,0,0,0-.594-1.707A1.815,1.815,0,0,0-17.82-7.422ZM-5.2.156A3.693,3.693,0,0,1-8-.973a4.19,4.19,0,0,1-1.078-3.02v-.266A5.073,5.073,0,0,1-8.6-6.5,3.748,3.748,0,0,1-7.254-8.051a3.378,3.378,0,0,1,1.871-.559A3.166,3.166,0,0,1-2.82-7.523a4.7,4.7,0,0,1,.914,3.109v.6H-7.633a3,3,0,0,0,.73,2.02,2.3,2.3,0,0,0,1.777.77,2.517,2.517,0,0,0,1.3-.312,3.259,3.259,0,0,0,.93-.828l.883.688A3.55,3.55,0,0,1-5.2.156Zm-.18-7.578a1.928,1.928,0,0,0-1.469.637A3.1,3.1,0,0,0-7.586-5h4.234v-.109a2.753,2.753,0,0,0-.594-1.707A1.815,1.815,0,0,0-5.383-7.422ZM2.6-5.367,4.477-8.453H6.164L3.4-4.273,6.25,0H4.578L2.625-3.164.672,0h-1.68L1.844-4.273-.922-8.453H.75ZM14.836-4.133a5.062,5.062,0,0,1-.883,3.109A2.829,2.829,0,0,1,11.563.156,3.1,3.1,0,0,1,9.141-.82V3.25H7.7v-11.7h1.32l.07.938a2.977,2.977,0,0,1,2.453-1.094,2.882,2.882,0,0,1,2.41,1.148,5.117,5.117,0,0,1,.887,3.2ZM13.391-4.3a3.735,3.735,0,0,0-.609-2.258,1.963,1.963,0,0,0-1.672-.828A2.125,2.125,0,0,0,9.141-6.219V-2.18a2.129,2.129,0,0,0,1.984,1.156,1.954,1.954,0,0,0,1.652-.824A4.077,4.077,0,0,0,13.391-4.3ZM20.18.156a3.693,3.693,0,0,1-2.8-1.129A4.19,4.19,0,0,1,16.3-3.992v-.266a5.073,5.073,0,0,1,.48-2.246,3.748,3.748,0,0,1,1.344-1.547A3.378,3.378,0,0,1,20-8.609a3.166,3.166,0,0,1,2.563,1.086,4.7,4.7,0,0,1,.914,3.109v.6H17.75a3,3,0,0,0,.73,2.02,2.3,2.3,0,0,0,1.777.77,2.517,2.517,0,0,0,1.3-.312,3.259,3.259,0,0,0,.93-.828l.883.688A3.55,3.55,0,0,1,20.18.156ZM20-7.422a1.928,1.928,0,0,0-1.469.637A3.1,3.1,0,0,0,17.8-5h4.234v-.109a2.753,2.753,0,0,0-.594-1.707A1.815,1.815,0,0,0,20-7.422Zm9.234.266a4.331,4.331,0,0,0-.711-.055A1.9,1.9,0,0,0,26.594-6V0H25.148V-8.453h1.406l.023.977a2.251,2.251,0,0,1,2.016-1.133,1.477,1.477,0,0,1,.641.109ZM32.133,0H30.688V-8.453h1.445ZM30.57-10.7a.863.863,0,0,1,.215-.594.807.807,0,0,1,.637-.242.819.819,0,0,1,.641.242.854.854,0,0,1,.219.594.826.826,0,0,1-.219.586.834.834,0,0,1-.641.234.821.821,0,0,1-.637-.234A.834.834,0,0,1,30.57-10.7ZM37.953.156a3.693,3.693,0,0,1-2.8-1.129,4.19,4.19,0,0,1-1.078-3.02v-.266a5.073,5.073,0,0,1,.48-2.246A3.748,3.748,0,0,1,35.9-8.051a3.378,3.378,0,0,1,1.871-.559,3.166,3.166,0,0,1,2.563,1.086,4.7,4.7,0,0,1,.914,3.109v.6H35.523a3,3,0,0,0,.73,2.02,2.3,2.3,0,0,0,1.777.77,2.517,2.517,0,0,0,1.3-.312,3.259,3.259,0,0,0,.93-.828l.883.688A3.55,3.55,0,0,1,37.953.156Zm-.18-7.578a1.928,1.928,0,0,0-1.469.637A3.1,3.1,0,0,0,35.57-5H39.8v-.109a2.753,2.753,0,0,0-.594-1.707A1.815,1.815,0,0,0,37.773-7.422Zm6.516-1.031.047,1.063a3.08,3.08,0,0,1,2.531-1.219q2.68,0,2.7,3.023V0H48.125V-5.594a1.946,1.946,0,0,0-.418-1.352,1.675,1.675,0,0,0-1.277-.437,2.086,2.086,0,0,0-1.234.375,2.546,2.546,0,0,0-.828.984V0H42.922V-8.453Zm10.852,7.43a2.082,2.082,0,0,0,1.352-.469,1.649,1.649,0,0,0,.641-1.172H58.5A2.621,2.621,0,0,1,58-1.281,3.293,3.293,0,0,1,56.77-.234a3.55,3.55,0,0,1-1.629.391A3.482,3.482,0,0,1,52.395-1a4.59,4.59,0,0,1-1.02-3.152v-.242a5.089,5.089,0,0,1,.453-2.2,3.451,3.451,0,0,1,1.3-1.492,3.7,3.7,0,0,1,2-.531,3.39,3.39,0,0,1,2.363.852,3.043,3.043,0,0,1,1,2.211H57.133a1.992,1.992,0,0,0-.621-1.348,1.932,1.932,0,0,0-1.379-.527,2.023,2.023,0,0,0-1.707.793,3.724,3.724,0,0,0-.605,2.293v.273a3.65,3.65,0,0,0,.6,2.25A2.033,2.033,0,0,0,55.141-1.023ZM61.7,0H60.25V-8.453H61.7ZM60.133-10.7a.863.863,0,0,1,.215-.594.807.807,0,0,1,.637-.242.819.819,0,0,1,.641.242.854.854,0,0,1,.219.594.826.826,0,0,1-.219.586.834.834,0,0,1-.641.234.821.821,0,0,1-.637-.234A.834.834,0,0,1,60.133-10.7ZM69.227,0a3.036,3.036,0,0,1-.2-.891A3.225,3.225,0,0,1,66.617.156a2.984,2.984,0,0,1-2.051-.707,2.288,2.288,0,0,1-.8-1.793,2.39,2.39,0,0,1,1-2.051,4.733,4.733,0,0,1,2.824-.73H69v-.664A1.623,1.623,0,0,0,68.547-7a1.821,1.821,0,0,0-1.336-.449,2.108,2.108,0,0,0-1.3.391,1.151,1.151,0,0,0-.523.945H63.938a2,2,0,0,1,.449-1.223,3.066,3.066,0,0,1,1.219-.934A4.1,4.1,0,0,1,67.3-8.609a3.342,3.342,0,0,1,2.289.73,2.635,2.635,0,0,1,.859,2.012v3.891a4.757,4.757,0,0,0,.3,1.852V0Zm-2.4-1.1a2.54,2.54,0,0,0,1.289-.352A2.127,2.127,0,0,0,69-2.367V-4.1H67.867q-2.656,0-2.656,1.555a1.316,1.316,0,0,0,.453,1.063A1.742,1.742,0,0,0,66.828-1.1ZM-35.5,16.7a4.952,4.952,0,0,1,.922-3.129,2.915,2.915,0,0,1,2.414-1.184,2.932,2.932,0,0,1,2.352,1.016V9h1.445V21H-29.7l-.07-.906a2.943,2.943,0,0,1-2.414,1.063,2.887,2.887,0,0,1-2.395-1.2,5.008,5.008,0,0,1-.926-3.141Zm1.445.164a3.749,3.749,0,0,0,.594,2.25,1.92,1.92,0,0,0,1.641.813A2.108,2.108,0,0,0-29.816,18.7V14.813a2.125,2.125,0,0,0-1.992-1.2,1.929,1.929,0,0,0-1.656.82A4.128,4.128,0,0,0-34.059,16.867Zm11.438,4.289a3.693,3.693,0,0,1-2.8-1.129,4.19,4.19,0,0,1-1.078-3.02v-.266a5.073,5.073,0,0,1,.48-2.246,3.748,3.748,0,0,1,1.344-1.547,3.378,3.378,0,0,1,1.871-.559,3.166,3.166,0,0,1,2.563,1.086,4.7,4.7,0,0,1,.914,3.109v.6h-5.727a3,3,0,0,0,.73,2.02,2.3,2.3,0,0,0,1.777.77,2.517,2.517,0,0,0,1.3-.312,3.259,3.259,0,0,0,.93-.828l.883.688A3.55,3.55,0,0,1-22.621,21.156Zm-.18-7.578a1.928,1.928,0,0,0-1.469.637A3.1,3.1,0,0,0-25,16h4.234v-.109a2.753,2.753,0,0,0-.594-1.707A1.815,1.815,0,0,0-22.8,13.578ZM-16.082,21h-1.445V9h1.445Zm9.664-1.023a2.082,2.082,0,0,0,1.352-.469,1.649,1.649,0,0,0,.641-1.172h1.367a2.621,2.621,0,0,1-.5,1.383,3.293,3.293,0,0,1-1.23,1.047,3.55,3.55,0,0,1-1.629.391A3.482,3.482,0,0,1-9.164,20a4.59,4.59,0,0,1-1.02-3.152v-.242a5.089,5.089,0,0,1,.453-2.2,3.451,3.451,0,0,1,1.3-1.492,3.7,3.7,0,0,1,2-.531,3.39,3.39,0,0,1,2.363.852,3.043,3.043,0,0,1,1,2.211H-4.426a1.992,1.992,0,0,0-.621-1.348,1.932,1.932,0,0,0-1.379-.527,2.023,2.023,0,0,0-1.707.793,3.724,3.724,0,0,0-.605,2.293v.273a3.65,3.65,0,0,0,.6,2.25A2.033,2.033,0,0,0-6.418,19.977ZM.137,21H-1.309V9H.137ZM4.02,21H2.574V12.547H4.02ZM2.457,10.3a.863.863,0,0,1,.215-.594.807.807,0,0,1,.637-.242.819.819,0,0,1,.641.242.854.854,0,0,1,.219.594.826.826,0,0,1-.219.586.834.834,0,0,1-.641.234.821.821,0,0,1-.637-.234A.834.834,0,0,1,2.457,10.3ZM9.84,21.156a3.693,3.693,0,0,1-2.8-1.129,4.19,4.19,0,0,1-1.078-3.02v-.266a5.073,5.073,0,0,1,.48-2.246,3.748,3.748,0,0,1,1.344-1.547,3.378,3.378,0,0,1,1.871-.559,3.166,3.166,0,0,1,2.563,1.086,4.7,4.7,0,0,1,.914,3.109v.6H7.41a3,3,0,0,0,.73,2.02,2.3,2.3,0,0,0,1.777.77,2.517,2.517,0,0,0,1.3-.312,3.259,3.259,0,0,0,.93-.828l.883.688A3.55,3.55,0,0,1,9.84,21.156Zm-.18-7.578a1.928,1.928,0,0,0-1.469.637A3.1,3.1,0,0,0,7.457,16h4.234v-.109a2.753,2.753,0,0,0-.594-1.707A1.815,1.815,0,0,0,9.66,13.578Zm6.516-1.031.047,1.063a3.08,3.08,0,0,1,2.531-1.219q2.68,0,2.7,3.023V21H20.012V15.406a1.946,1.946,0,0,0-.418-1.352,1.675,1.675,0,0,0-1.277-.437,2.086,2.086,0,0,0-1.234.375,2.546,2.546,0,0,0-.828.984V21H14.809V12.547ZM25.6,10.5v2.047h1.578v1.117H25.6v5.249a1.173,1.173,0,0,0,.211.763.888.888,0,0,0,.719.254,3.5,3.5,0,0,0,.688-.094V21a4.215,4.215,0,0,1-1.109.155,1.8,1.8,0,0,1-1.461-.586,2.517,2.517,0,0,1-.492-1.664V13.664H22.613V12.547h1.539V10.5Zm6.773,10.656a3.693,3.693,0,0,1-2.8-1.129,4.19,4.19,0,0,1-1.078-3.02v-.266a5.073,5.073,0,0,1,.48-2.246,3.748,3.748,0,0,1,1.344-1.547,3.378,3.378,0,0,1,1.871-.559,3.166,3.166,0,0,1,2.563,1.086,4.7,4.7,0,0,1,.914,3.109v.6H29.941a3,3,0,0,0,.73,2.02,2.3,2.3,0,0,0,1.777.77,2.517,2.517,0,0,0,1.3-.312,3.259,3.259,0,0,0,.93-.828l.883.688A3.55,3.55,0,0,1,32.371,21.156Zm-.18-7.578a1.928,1.928,0,0,0-1.469.637A3.1,3.1,0,0,0,29.988,16h4.234v-.109a2.753,2.753,0,0,0-.594-1.707A1.815,1.815,0,0,0,32.191,13.578Z" transform="translate(488.453 3496.164)" fill="#14263e"/>
    <path id="Trazado_213504" data-name="Trazado 213504" d="M-46.492-1.992l3.25-9.383H-41.6L-45.82,0h-1.328l-4.211-11.375h1.633ZM-38.734,0H-40.18V-8.453h1.445ZM-40.3-10.7a.863.863,0,0,1,.215-.594.807.807,0,0,1,.637-.242.819.819,0,0,1,.641.242.854.854,0,0,1,.219.594.826.826,0,0,1-.219.586.834.834,0,0,1-.641.234.821.821,0,0,1-.637-.234A.834.834,0,0,1-40.3-10.7Zm8.8,8.453a1.064,1.064,0,0,0-.441-.91,4.249,4.249,0,0,0-1.539-.559,7.277,7.277,0,0,1-1.742-.562,2.479,2.479,0,0,1-.953-.781,1.869,1.869,0,0,1-.309-1.078,2.193,2.193,0,0,1,.879-1.758,3.432,3.432,0,0,1,2.246-.719,3.532,3.532,0,0,1,2.332.742,2.357,2.357,0,0,1,.895,1.9h-1.453a1.3,1.3,0,0,0-.5-1.023,1.888,1.888,0,0,0-1.27-.43,1.976,1.976,0,0,0-1.234.344,1.082,1.082,0,0,0-.445.9.877.877,0,0,0,.414.789,5.1,5.1,0,0,0,1.5.508,7.8,7.8,0,0,1,1.754.578,2.558,2.558,0,0,1,1,.809,1.988,1.988,0,0,1,.324,1.152,2.163,2.163,0,0,1-.906,1.816,3.8,3.8,0,0,1-2.352.684,4.257,4.257,0,0,1-1.8-.359,2.922,2.922,0,0,1-1.223-1A2.42,2.42,0,0,1-36.773-2.6h1.445a1.5,1.5,0,0,0,.582,1.152,2.258,2.258,0,0,0,1.434.426A2.331,2.331,0,0,0-32-1.355,1.02,1.02,0,0,0-31.5-2.242Zm8.547,1.406A3.07,3.07,0,0,1-25.43.156a2.628,2.628,0,0,1-2.059-.785A3.4,3.4,0,0,1-28.2-2.953v-5.5h1.445v5.461q0,1.922,1.563,1.922a2.163,2.163,0,0,0,2.2-1.234V-8.453h1.445V0h-1.375Zm8.82.836a3.036,3.036,0,0,1-.2-.891A3.225,3.225,0,0,1-16.742.156a2.984,2.984,0,0,1-2.051-.707,2.287,2.287,0,0,1-.8-1.793,2.39,2.39,0,0,1,1-2.051,4.733,4.733,0,0,1,2.824-.73h1.406v-.664A1.623,1.623,0,0,0-14.812-7a1.821,1.821,0,0,0-1.336-.449,2.108,2.108,0,0,0-1.3.391,1.151,1.151,0,0,0-.523.945h-1.453a2,2,0,0,1,.449-1.223,3.066,3.066,0,0,1,1.219-.934,4.1,4.1,0,0,1,1.691-.344,3.342,3.342,0,0,1,2.289.73,2.635,2.635,0,0,1,.859,2.012v3.891a4.757,4.757,0,0,0,.3,1.852V0Zm-2.4-1.1a2.54,2.54,0,0,0,1.289-.352,2.127,2.127,0,0,0,.883-.914V-4.1h-1.133q-2.656,0-2.656,1.555A1.316,1.316,0,0,0-17.7-1.484,1.742,1.742,0,0,0-16.531-1.1ZM-9.078,0h-1.445V-12h1.445ZM.078-10.5-.281-8.453H1.258l-.2,1.117H-.469l-.883,5.258a1.833,1.833,0,0,0-.008.375A.6.6,0,0,0-.7-1.094a4.05,4.05,0,0,0,.688-.078L-.117.008A3.847,3.847,0,0,1-1.148.148,1.476,1.476,0,0,1-2.414-.473,2.4,2.4,0,0,1-2.742-2.1l.859-5.234H-3.375l.2-1.117h1.492l.359-2.047ZM4.133-7.422A3.275,3.275,0,0,1,6.688-8.6a2.058,2.058,0,0,1,1.762.816,3.217,3.217,0,0,1,.426,2.246L7.953,0H6.539l.93-5.562a2.968,2.968,0,0,0,.008-.711A1.168,1.168,0,0,0,6.188-7.391,2.6,2.6,0,0,0,3.953-6.031L2.906,0H1.492L3.578-12H4.992ZM11.648,0H10.242l1.469-8.453h1.406Zm1.164-11.539a.774.774,0,0,1,.6.215.8.8,0,0,1,.238.605.849.849,0,0,1-.238.6.855.855,0,0,1-.6.25.779.779,0,0,1-.6-.211.764.764,0,0,1-.227-.594.886.886,0,0,1,.234-.609A.826.826,0,0,1,12.813-11.539Zm3.953,3.078-.2,1.07a3.333,3.333,0,0,1,2.594-1.219,2.1,2.1,0,0,1,1.766.828,3.217,3.217,0,0,1,.422,2.242L20.422,0H19.008l.93-5.557a2.962,2.962,0,0,0,.008-.71,1.168,1.168,0,0,0-1.289-1.116,2.661,2.661,0,0,0-2.234,1.358L15.375,0H13.961L15.43-8.453ZM25.633-3.9l-1.109.992L24.023,0H22.609L24.7-12h1.414l-1.25,7.172.867-.875,3-2.75h1.836l-3.883,3.6L29.352,0H27.8ZM32.078,0H30.672l1.469-8.453h1.406Zm1.164-11.539a.774.774,0,0,1,.6.215.8.8,0,0,1,.238.605.849.849,0,0,1-.238.6.855.855,0,0,1-.6.25.779.779,0,0,1-.6-.211.764.764,0,0,1-.227-.594.886.886,0,0,1,.234-.609A.826.826,0,0,1,33.242-11.539ZM37.2-8.461l-.2,1.07a3.333,3.333,0,0,1,2.594-1.219,2.1,2.1,0,0,1,1.766.828,3.217,3.217,0,0,1,.422,2.242L40.852,0H39.438l.93-5.557a2.962,2.962,0,0,0,.008-.71,1.168,1.168,0,0,0-1.289-1.116,2.661,2.661,0,0,0-2.234,1.358L35.8,0H34.391l1.469-8.453Zm6.25,4.219a6.889,6.889,0,0,1,.746-2.4,3.9,3.9,0,0,1,1.359-1.508A3.151,3.151,0,0,1,47.3-8.617a2.6,2.6,0,0,1,2.219,1.109l.281-.945h1.3L49.7-.18a4.113,4.113,0,0,1-1.312,2.59,3.7,3.7,0,0,1-2.68.926,3.8,3.8,0,0,1-1.645-.406,3.127,3.127,0,0,1-1.238-1.07l.8-.867a2.419,2.419,0,0,0,2.023,1.164,2.425,2.425,0,0,0,1.707-.562,2.9,2.9,0,0,0,.926-1.687l.156-.75a3.2,3.2,0,0,1-2.414,1A2.486,2.486,0,0,1,44.652-.27a2.589,2.589,0,0,1-.9-1.164,4.759,4.759,0,0,1-.352-1.7A8.733,8.733,0,0,1,43.445-4.242Zm1.367.8A2.974,2.974,0,0,0,45.2-1.714a1.461,1.461,0,0,0,1.238.644,2.561,2.561,0,0,0,2.18-1.241l.664-3.878a1.776,1.776,0,0,0-1.7-1.2,2.194,2.194,0,0,0-1.887.936,4.878,4.878,0,0,0-.871,2.614Z" transform="translate(487.725 3569)" fill="#14263e"/>
    <path id="Trazado_213505" data-name="Trazado 213505" d="M-33.008-5.258h-4.93v4.031h5.727V0h-7.227V-11.375h7.148v1.227h-5.648v3.664h4.93Zm4.4-5.242v2.047h1.578v1.117h-1.578v5.249a1.173,1.173,0,0,0,.211.763.888.888,0,0,0,.719.254,3.5,3.5,0,0,0,.688-.094V0A4.215,4.215,0,0,1-28.1.156,1.8,1.8,0,0,1-29.562-.43a2.517,2.517,0,0,1-.492-1.664V-7.336h-1.539V-8.453h1.539V-10.5Zm4.633,2.047.047,1.063A3.08,3.08,0,0,1-21.4-8.609q2.68,0,2.7,3.023V0h-1.445V-5.594a1.946,1.946,0,0,0-.418-1.352,1.675,1.675,0,0,0-1.277-.437,2.086,2.086,0,0,0-1.234.375,2.546,2.546,0,0,0-.828.984V0h-1.445V-8.453ZM-16.9-4.3a4.993,4.993,0,0,1,.488-2.234A3.643,3.643,0,0,1-15.051-8.07a3.7,3.7,0,0,1,1.988-.539,3.565,3.565,0,0,1,2.793,1.2A4.6,4.6,0,0,1-9.2-4.234v.1a5.036,5.036,0,0,1-.473,2.215A3.589,3.589,0,0,1-11.027-.391a3.743,3.743,0,0,1-2.02.547,3.556,3.556,0,0,1-2.785-1.2A4.575,4.575,0,0,1-16.9-4.2Zm1.453.172a3.616,3.616,0,0,0,.652,2.258,2.088,2.088,0,0,0,1.746.852,2.075,2.075,0,0,0,1.75-.863A3.955,3.955,0,0,0-10.648-4.3a3.61,3.61,0,0,0-.66-2.254,2.1,2.1,0,0,0-1.754-.863,2.075,2.075,0,0,0-1.727.852A3.925,3.925,0,0,0-15.445-4.133ZM-7.734-4.3A4.968,4.968,0,0,1-6.82-7.441,2.923,2.923,0,0,1-4.4-8.609,2.908,2.908,0,0,1-1.984-7.516l.07-.937h1.32V-.2a3.439,3.439,0,0,1-.973,2.586,3.589,3.589,0,0,1-2.613.945,4.348,4.348,0,0,1-1.789-.391A3.08,3.08,0,0,1-7.3,1.867L-6.555,1A2.826,2.826,0,0,0-4.281,2.148a2.214,2.214,0,0,0,1.645-.594,2.269,2.269,0,0,0,.59-1.672V-.844a2.971,2.971,0,0,1-2.367,1,2.887,2.887,0,0,1-2.4-1.2A5.224,5.224,0,0,1-7.734-4.3Zm1.453.164A3.79,3.79,0,0,0-5.7-1.887a1.9,1.9,0,0,0,1.641.816A2.117,2.117,0,0,0-2.047-2.312V-6.172A2.142,2.142,0,0,0-4.039-7.383a1.921,1.921,0,0,0-1.648.82A4.128,4.128,0,0,0-6.281-4.133ZM5.672-7.156a4.331,4.331,0,0,0-.711-.055A1.9,1.9,0,0,0,3.031-6V0H1.586V-8.453H2.992l.023.977A2.251,2.251,0,0,1,5.031-8.609a1.477,1.477,0,0,1,.641.109ZM11.906,0a3.036,3.036,0,0,1-.2-.891A3.225,3.225,0,0,1,9.3.156,2.984,2.984,0,0,1,7.246-.551a2.287,2.287,0,0,1-.8-1.793,2.39,2.39,0,0,1,1-2.051,4.733,4.733,0,0,1,2.824-.73H11.68v-.664A1.623,1.623,0,0,0,11.227-7a1.821,1.821,0,0,0-1.336-.449,2.107,2.107,0,0,0-1.3.391,1.151,1.151,0,0,0-.523.945H6.617a2,2,0,0,1,.449-1.223,3.066,3.066,0,0,1,1.219-.934,4.1,4.1,0,0,1,1.691-.344,3.342,3.342,0,0,1,2.289.73,2.635,2.635,0,0,1,.859,2.012v3.891a4.757,4.757,0,0,0,.3,1.852V0Zm-2.4-1.1A2.54,2.54,0,0,0,10.8-1.453a2.127,2.127,0,0,0,.883-.914V-4.1H10.547q-2.656,0-2.656,1.555a1.316,1.316,0,0,0,.453,1.063A1.742,1.742,0,0,0,9.508-1.1ZM16.1,0V-7.336H14.766V-8.453H16.1V-9.32a2.878,2.878,0,0,1,.727-2.1,2.745,2.745,0,0,1,2.055-.742,3.816,3.816,0,0,1,.992.132L19.8-10.867a4.151,4.151,0,0,0-.781-.07,1.41,1.41,0,0,0-1.086.411,1.669,1.669,0,0,0-.383,1.18v.893h1.8v1.117h-1.8V0Zm6.414,0H21.063V-8.453h1.453Zm.016-11.992h1.75L22.188-9.7l-1.164,0ZM30.117,0a3.036,3.036,0,0,1-.2-.891A3.225,3.225,0,0,1,27.508.156a2.984,2.984,0,0,1-2.051-.707,2.287,2.287,0,0,1-.8-1.793,2.39,2.39,0,0,1,1-2.051,4.733,4.733,0,0,1,2.824-.73h1.406v-.664A1.623,1.623,0,0,0,29.438-7,1.821,1.821,0,0,0,28.1-7.445a2.108,2.108,0,0,0-1.3.391,1.151,1.151,0,0,0-.523.945H24.828a2,2,0,0,1,.449-1.223A3.066,3.066,0,0,1,26.5-8.266a4.1,4.1,0,0,1,1.691-.344,3.342,3.342,0,0,1,2.289.73,2.635,2.635,0,0,1,.859,2.012v3.891a4.757,4.757,0,0,0,.3,1.852V0Zm-2.4-1.1a2.54,2.54,0,0,0,1.289-.352,2.127,2.127,0,0,0,.883-.914V-4.1H28.758Q26.1-4.1,26.1-2.547a1.316,1.316,0,0,0,.453,1.063A1.742,1.742,0,0,0,27.719-1.1Zm10.8-1.141a1.064,1.064,0,0,0-.441-.91,4.249,4.249,0,0,0-1.539-.559A7.277,7.277,0,0,1,34.8-4.273a2.479,2.479,0,0,1-.953-.781,1.869,1.869,0,0,1-.309-1.078,2.193,2.193,0,0,1,.879-1.758,3.432,3.432,0,0,1,2.246-.719A3.532,3.532,0,0,1,39-7.867a2.357,2.357,0,0,1,.895,1.9H38.438a1.3,1.3,0,0,0-.5-1.023,1.888,1.888,0,0,0-1.27-.43,1.976,1.976,0,0,0-1.234.344,1.082,1.082,0,0,0-.445.9.877.877,0,0,0,.414.789,5.1,5.1,0,0,0,1.5.508,7.8,7.8,0,0,1,1.754.578,2.558,2.558,0,0,1,1,.809,1.988,1.988,0,0,1,.324,1.152,2.163,2.163,0,0,1-.906,1.816,3.8,3.8,0,0,1-2.352.684,4.257,4.257,0,0,1-1.8-.359,2.922,2.922,0,0,1-1.223-1A2.42,2.42,0,0,1,33.25-2.6H34.7a1.5,1.5,0,0,0,.582,1.152,2.258,2.258,0,0,0,1.434.426,2.331,2.331,0,0,0,1.316-.332A1.02,1.02,0,0,0,38.523-2.242Z" transform="translate(487.725 3631)" fill="#14263e"/>
    <path id="Trazado_213502" data-name="Trazado 213502" d="M-91.06-5.205h-2.334V0h-2.93V-14.219h5.283A5.972,5.972,0,0,1-87.153-13.1a3.876,3.876,0,0,1,1.367,3.174,4.374,4.374,0,0,1-.63,2.427,4.3,4.3,0,0,1-1.909,1.548l3.076,5.811V0h-3.145Zm-2.334-2.373h2.363a2.42,2.42,0,0,0,1.709-.562,2.007,2.007,0,0,0,.605-1.548,2.148,2.148,0,0,0-.571-1.582,2.374,2.374,0,0,0-1.753-.576h-2.354ZM-78.882.2A5.187,5.187,0,0,1-82.666-1.23a5.068,5.068,0,0,1-1.46-3.8V-5.3a6.383,6.383,0,0,1,.615-2.847,4.515,4.515,0,0,1,1.743-1.934,4.893,4.893,0,0,1,2.573-.679,4.385,4.385,0,0,1,3.413,1.367,5.555,5.555,0,0,1,1.245,3.877v1.152h-6.729a2.622,2.622,0,0,0,.825,1.66A2.5,2.5,0,0,0-78.7-2.08a3.046,3.046,0,0,0,2.549-1.182l1.387,1.553a4.237,4.237,0,0,1-1.719,1.4A5.639,5.639,0,0,1-78.882.2ZM-79.2-8.486a1.764,1.764,0,0,0-1.362.569,2.946,2.946,0,0,0-.669,1.628h3.926v-.226a2.1,2.1,0,0,0-.508-1.457A1.819,1.819,0,0,0-79.2-8.486ZM-66.812,0a3.134,3.134,0,0,1-.283-.947A3.415,3.415,0,0,1-69.761.2a3.752,3.752,0,0,1-2.573-.9,2.89,2.89,0,0,1-1.021-2.266,2.986,2.986,0,0,1,1.245-2.578,6.144,6.144,0,0,1,3.6-.908h1.3v-.605a1.741,1.741,0,0,0-.376-1.172,1.479,1.479,0,0,0-1.187-.439,1.682,1.682,0,0,0-1.118.342,1.161,1.161,0,0,0-.405.938H-73.12a2.835,2.835,0,0,1,.566-1.7,3.744,3.744,0,0,1,1.6-1.226,5.837,5.837,0,0,1,2.324-.444,4.611,4.611,0,0,1,3.1.981A3.433,3.433,0,0,1-64.38-7.021v4.58a5.052,5.052,0,0,0,.42,2.275V0Zm-2.334-1.963a2.431,2.431,0,0,0,1.152-.278,1.828,1.828,0,0,0,.781-.747V-4.8h-1.055q-2.119,0-2.256,1.465l-.01.166a1.13,1.13,0,0,0,.371.869A1.441,1.441,0,0,0-69.146-1.963ZM-59.233,0h-2.832V-15h2.832Zm5.3,0h-2.832V-10.566h2.832Zm-3-13.3a1.39,1.39,0,0,1,.425-1.045,1.6,1.6,0,0,1,1.157-.41,1.6,1.6,0,0,1,1.152.41,1.382,1.382,0,0,1,.43,1.045,1.386,1.386,0,0,1-.435,1.055,1.6,1.6,0,0,1-1.147.41,1.6,1.6,0,0,1-1.147-.41A1.386,1.386,0,0,1-56.929-13.3Zm8.564,11.025H-43.2V0h-8.77V-1.719L-47-8.291h-4.824v-2.275h8.467V-8.9ZM-35.308,0a3.134,3.134,0,0,1-.283-.947A3.415,3.415,0,0,1-38.257.2,3.752,3.752,0,0,1-40.83-.7a2.89,2.89,0,0,1-1.021-2.266,2.986,2.986,0,0,1,1.245-2.578,6.144,6.144,0,0,1,3.6-.908h1.3v-.605a1.741,1.741,0,0,0-.376-1.172,1.479,1.479,0,0,0-1.187-.439,1.682,1.682,0,0,0-1.118.342,1.161,1.161,0,0,0-.405.938h-2.822a2.835,2.835,0,0,1,.566-1.7,3.744,3.744,0,0,1,1.6-1.226,5.837,5.837,0,0,1,2.324-.444,4.611,4.611,0,0,1,3.1.981,3.433,3.433,0,0,1,1.147,2.759v4.58a5.052,5.052,0,0,0,.42,2.275V0Zm-2.334-1.963a2.431,2.431,0,0,0,1.152-.278,1.828,1.828,0,0,0,.781-.747V-4.8h-1.055q-2.119,0-2.256,1.465l-.01.166a1.13,1.13,0,0,0,.371.869A1.441,1.441,0,0,0-37.642-1.963ZM-24.771-7.92A7.667,7.667,0,0,0-25.786-8a2.067,2.067,0,0,0-2.1,1.084V0h-2.822V-10.566h2.666l.078,1.26a2.615,2.615,0,0,1,2.354-1.455,2.957,2.957,0,0,1,.879.127Zm2.246,9.141h-2.1l5.234-15.439h2.1ZM-12.642,0h-2.93V-14.219h2.93Zm5.176-10.566.088,1.182a3.713,3.713,0,0,1,3.037-1.377,2.818,2.818,0,0,1,2.8,1.611,3.628,3.628,0,0,1,3.174-1.611,3.152,3.152,0,0,1,2.559,1,4.6,4.6,0,0,1,.84,3.013V0H2.2V-6.738a2.012,2.012,0,0,0-.352-1.313A1.558,1.558,0,0,0,.61-8.467,1.761,1.761,0,0,0-1.147-7.256L-1.138,0H-3.96V-6.729a1.988,1.988,0,0,0-.361-1.328,1.573,1.573,0,0,0-1.23-.41,1.829,1.829,0,0,0-1.738,1V0h-2.822V-10.566Zm24.18,5.381a6.337,6.337,0,0,1-1.108,3.911A3.554,3.554,0,0,1,12.612.2,3.292,3.292,0,0,1,10.024-.918v4.98H7.2V-10.566H9.819l.1,1.035a3.317,3.317,0,0,1,2.676-1.23A3.578,3.578,0,0,1,15.63-9.316a6.509,6.509,0,0,1,1.084,3.984Zm-2.822-.205a4.159,4.159,0,0,0-.522-2.275,1.7,1.7,0,0,0-1.519-.8,1.848,1.848,0,0,0-1.826,1.016v4.326A1.879,1.879,0,0,0,11.87-2.08Q13.892-2.08,13.892-5.391ZM21.44,0H18.608V-15H21.44Zm7.188.2A5.187,5.187,0,0,1,24.844-1.23a5.068,5.068,0,0,1-1.46-3.8V-5.3A6.383,6.383,0,0,1,24-8.149a4.515,4.515,0,0,1,1.743-1.934,4.893,4.893,0,0,1,2.573-.679,4.385,4.385,0,0,1,3.413,1.367,5.555,5.555,0,0,1,1.245,3.877v1.152H26.245a2.622,2.622,0,0,0,.825,1.66,2.5,2.5,0,0,0,1.743.625,3.046,3.046,0,0,0,2.549-1.182l1.387,1.553a4.237,4.237,0,0,1-1.719,1.4A5.639,5.639,0,0,1,28.628.2Zm-.322-8.682a1.764,1.764,0,0,0-1.362.569,2.946,2.946,0,0,0-.669,1.628H30.2v-.226a2.1,2.1,0,0,0-.508-1.457A1.819,1.819,0,0,0,28.306-8.486Zm8.916-2.08.088,1.182a3.713,3.713,0,0,1,3.037-1.377,2.818,2.818,0,0,1,2.8,1.611,3.628,3.628,0,0,1,3.174-1.611,3.152,3.152,0,0,1,2.559,1,4.6,4.6,0,0,1,.84,3.013V0H46.89V-6.738a2.012,2.012,0,0,0-.352-1.313,1.558,1.558,0,0,0-1.24-.415A1.761,1.761,0,0,0,43.54-7.256L43.55,0H40.728V-6.729a1.988,1.988,0,0,0-.361-1.328,1.573,1.573,0,0,0-1.23-.41,1.829,1.829,0,0,0-1.738,1V0H34.575V-10.566ZM56.753.2A5.187,5.187,0,0,1,52.969-1.23a5.068,5.068,0,0,1-1.46-3.8V-5.3a6.383,6.383,0,0,1,.615-2.847,4.515,4.515,0,0,1,1.743-1.934,4.893,4.893,0,0,1,2.573-.679,4.385,4.385,0,0,1,3.413,1.367A5.555,5.555,0,0,1,61.1-5.518v1.152H54.37a2.622,2.622,0,0,0,.825,1.66,2.5,2.5,0,0,0,1.743.625,3.046,3.046,0,0,0,2.549-1.182l1.387,1.553a4.237,4.237,0,0,1-1.719,1.4A5.639,5.639,0,0,1,56.753.2Zm-.322-8.682a1.764,1.764,0,0,0-1.362.569A2.946,2.946,0,0,0,54.4-6.289h3.926v-.226a2.1,2.1,0,0,0-.508-1.457A1.819,1.819,0,0,0,56.431-8.486Zm8.867-2.08.088,1.221a3.689,3.689,0,0,1,3.037-1.416,3.066,3.066,0,0,1,2.5.986,4.6,4.6,0,0,1,.84,2.949V0H68.94V-6.758a1.831,1.831,0,0,0-.391-1.3,1.749,1.749,0,0,0-1.3-.405,1.942,1.942,0,0,0-1.787,1.016V0H62.642V-10.566Zm11.982-2.6v2.6h1.807V-8.5H77.28v5.273a1.259,1.259,0,0,0,.225.84,1.128,1.128,0,0,0,.859.254,4.5,4.5,0,0,0,.83-.068V-.059A5.81,5.81,0,0,1,77.485.2q-2.969,0-3.027-3V-8.5H72.915v-2.07h1.543v-2.6ZM86.782,0A3.134,3.134,0,0,1,86.5-.947,3.415,3.415,0,0,1,83.833.2,3.752,3.752,0,0,1,81.26-.7a2.89,2.89,0,0,1-1.021-2.266,2.986,2.986,0,0,1,1.245-2.578,6.144,6.144,0,0,1,3.6-.908h1.3v-.605a1.741,1.741,0,0,0-.376-1.172,1.479,1.479,0,0,0-1.187-.439A1.682,1.682,0,0,0,83.7-8.33a1.161,1.161,0,0,0-.405.938H80.474a2.835,2.835,0,0,1,.566-1.7,3.744,3.744,0,0,1,1.6-1.226,5.837,5.837,0,0,1,2.324-.444,4.611,4.611,0,0,1,3.1.981,3.433,3.433,0,0,1,1.147,2.759v4.58a5.052,5.052,0,0,0,.42,2.275V0ZM84.448-1.963A2.431,2.431,0,0,0,85.6-2.241a1.828,1.828,0,0,0,.781-.747V-4.8H85.327q-2.119,0-2.256,1.465l-.01.166a1.13,1.13,0,0,0,.371.869A1.441,1.441,0,0,0,84.448-1.963ZM97.319-7.92A7.667,7.667,0,0,0,96.3-8a2.067,2.067,0,0,0-2.1,1.084V0H91.382V-10.566h2.666l.078,1.26a2.615,2.615,0,0,1,2.354-1.455,2.957,2.957,0,0,1,.879.127Z" transform="translate(1089 3237)" fill="#fcfdea"/>
  </g>
</svg>
