<svg xmlns="http://www.w3.org/2000/svg" xmlns:xlink="http://www.w3.org/1999/xlink" width="150" height="150" viewBox="0 0 150 150">
  <defs>
    <linearGradient id="linear-gradient" x1="0.5" x2="0.5" y2="1" gradientUnits="objectBoundingBox">
      <stop offset="0" stop-color="#12ad11"/>
      <stop offset="0.106" stop-color="#21b213"/>
      <stop offset="0.525" stop-color="#5bc51c"/>
      <stop offset="0.835" stop-color="#7fd121"/>
      <stop offset="1" stop-color="#8dd624"/>
    </linearGradient>
  </defs>
  <g id="Grupo_158126" data-name="Grupo 158126" transform="translate(10106 1458.18)">
    <g id="Grupo_158082" data-name="Grupo 158082">
      <g id="Grupo_158003" data-name="Grupo 158003" transform="translate(-11369 -12766)">
        <g id="Elipse_12782" data-name="Elipse 12782" transform="translate(1263 11307.82)" fill="#fff" stroke="#77b43a" stroke-width="4">
          <circle cx="75" cy="75" r="75" stroke="none"/>
          <circle cx="75" cy="75" r="73" fill="none"/>
        </g>
        <g id="Grupo_157988" data-name="Grupo 157988" transform="translate(1286 10979.473)">
          <g id="Grupo_157295" data-name="Grupo 157295" transform="translate(9.401 361.749)">
            <g id="Grupo_157286" data-name="Grupo 157286" transform="translate(57.443 15.411)">
              <path id="Trazado_210516" data-name="Trazado 210516" d="M112.879,394.876a4.2,4.2,0,0,1-7.51-1.836,3.652,3.652,0,0,1-.056-.686,4.2,4.2,0,1,1,7.566,2.522Z" transform="translate(-105.313 -388.151)" fill="#fcd770"/>
            </g>
            <g id="Grupo_157287" data-name="Grupo 157287" transform="translate(40.63 18.213)">
              <path id="Trazado_210517" data-name="Trazado 210517" d="M85.859,396.3a3.657,3.657,0,0,1,.056.686,4.2,4.2,0,1,1-8.406,0,4.228,4.228,0,0,1,4.2-4.2,4.2,4.2,0,0,1,4.147,3.517Z" transform="translate(-77.509 -392.785)" fill="#fcd770"/>
            </g>
            <g id="Grupo_157288" data-name="Grupo 157288">
              <path id="Trazado_210518" data-name="Trazado 210518" d="M38.338,376.675a14.01,14.01,0,1,1-14.01-14.01A13.94,13.94,0,0,1,38.338,376.675Z" transform="translate(-10.317 -362.665)" fill="#eaf086"/>
            </g>
            <g id="Grupo_157289" data-name="Grupo 157289" transform="translate(72.855 47.636)">
              <path id="Trazado_210519" data-name="Trazado 210519" d="M130.8,441.442h11.208v36.427H130.8Z" transform="translate(-130.8 -441.442)" fill="url(#linear-gradient)"/>
            </g>
            <g id="Grupo_157290" data-name="Grupo 157290" transform="translate(56.042 35.026)">
              <path id="Trazado_210520" data-name="Trazado 210520" d="M103,420.589H114.2v49.037H103Z" transform="translate(-102.996 -420.589)" fill="url(#linear-gradient)"/>
            </g>
            <g id="Grupo_157291" data-name="Grupo 157291" transform="translate(39.229 42.031)">
              <path id="Trazado_210521" data-name="Trazado 210521" d="M75.192,432.174H86.4v42.031H75.192Z" transform="translate(-75.192 -432.174)" fill="url(#linear-gradient)"/>
            </g>
            <g id="Grupo_157292" data-name="Grupo 157292" transform="translate(19.615 33.625)">
              <path id="Trazado_210522" data-name="Trazado 210522" d="M56.765,418.272V468.71H45.557v-2.13a12.6,12.6,0,0,0,3.082-18.045l-5.884-7.846,4.441-4.441a3.956,3.956,0,0,0-1.681-6.6l.042-.168V418.272Z" transform="translate(-42.755 -418.272)" fill="url(#linear-gradient)"/>
            </g>
            <g id="Grupo_157293" data-name="Grupo 157293" transform="translate(5.604 42.031)">
              <path id="Trazado_210523" data-name="Trazado 210523" d="M30.681,434.976h4.553a3.666,3.666,0,0,1,1.121.168,3.956,3.956,0,0,1,1.681,6.6L33.6,446.185H22.387l-2.662-9.317a3.427,3.427,0,0,1-.14-1.009,3.683,3.683,0,0,1,3.685-3.684h3.839a3.68,3.68,0,0,1,3.572,2.8Z" transform="translate(-19.585 -432.174)" fill="#dce736"/>
            </g>
            <g id="Grupo_157294" data-name="Grupo 157294" transform="translate(0 56.042)">
              <path id="Trazado_210524" data-name="Trazado 210524" d="M18.723,455.344H29.932l5.884,7.846a12.613,12.613,0,0,1-10.087,20.175h-2.8A12.609,12.609,0,0,1,12.839,463.19Z" transform="translate(-10.317 -455.344)" fill="#dce736"/>
            </g>
          </g>
          <g id="Grupo_157296" data-name="Grupo 157296" transform="translate(8 360.348)">
            <path id="Trazado_210525" data-name="Trazado 210525" d="M29.338,386.225v3.005h2.8v-3.005a3.984,3.984,0,0,0,.591-7.372L30,377.486a1.2,1.2,0,0,1,.533-2.267h.408a1.2,1.2,0,0,1,1.2,1.2v.2h2.8v-.2a3.992,3.992,0,0,0-2.8-3.8v-3.005h-2.8v3.005a3.984,3.984,0,0,0-.591,7.372l2.731,1.366a1.2,1.2,0,0,1-.534,2.267h-.408a1.2,1.2,0,0,1-1.2-1.2v-1.605h-2.8v1.605A3.992,3.992,0,0,0,29.338,386.225Z" transform="translate(-15.327 -364.011)"/>
            <path id="Trazado_210526" data-name="Trazado 210526" d="M32.14,465.3v-3.005h-2.8V465.3a3.984,3.984,0,0,0-.591,7.372l2.731,1.366a1.2,1.2,0,0,1-.534,2.267h-.408a1.2,1.2,0,0,1-1.2-1.2V473.5h-2.8v1.605a3.989,3.989,0,0,0,2.8,3.8v3.005h2.8V478.9a3.984,3.984,0,0,0,.591-7.372L30,470.165a1.2,1.2,0,0,1,.533-2.267h.408a1.2,1.2,0,0,1,1.2,1.2v.2h2.8v-.2A3.992,3.992,0,0,0,32.14,465.3Z" transform="translate(-15.327 -400.648)"/>
            <path id="Trazado_210527" data-name="Trazado 210527" d="M23.412,391.171a15.423,15.423,0,0,0,14.421-10.026l10.805,2.946c0,.025-.007.049-.007.074a5.589,5.589,0,0,0,11.158.495l6.146-1.024a5.6,5.6,0,0,0,5.113,3.332,5.544,5.544,0,0,0,3.479-1.246L90,397.331l-5.177.863.46,2.764,9.787-1.632-1.631-9.788L90.68,390l.827,4.958L76.224,383.5a5.548,5.548,0,0,0,.428-2.133,5.589,5.589,0,0,0-11.158-.495l-6.146,1.024a5.572,5.572,0,0,0-9.953-.5l-10.82-2.951a15.4,15.4,0,1,0-15.162,12.729Zm47.636-12.61a2.8,2.8,0,1,1-2.8,2.8A2.805,2.805,0,0,1,71.047,378.561Zm-16.813,2.8a2.8,2.8,0,1,1-2.8,2.8A2.8,2.8,0,0,1,54.235,381.363ZM23.412,363.15a12.61,12.61,0,1,1-12.61,12.61A12.624,12.624,0,0,1,23.412,363.15Z" transform="translate(-8 -360.348)"/>
            <path id="Trazado_210528" data-name="Trazado 210528" d="M30.417,427.163h-3.37a5.075,5.075,0,0,0-4.521-2.8H18.693a5.087,5.087,0,0,0-4.893,6.485l2.469,8.643L10.8,446.778a14.011,14.011,0,0,0,11.209,22.417h2.8a13.908,13.908,0,0,0,5.6-1.179v1.179h14.01v-53.24H30.417Zm-11.724,0h3.833a2.289,2.289,0,0,1,2.287,2.286v3.318h2.8v-2.8h3.043a2.562,2.562,0,0,1,1.812,4.372l-4.034,4.034h-9.57l-2.37-8.3a2.262,2.262,0,0,1-.088-.626A2.289,2.289,0,0,1,18.693,427.163Zm3.318,39.229a11.21,11.21,0,0,1-8.967-17.935l5.464-7.284h9.807l5.464,7.284a11.209,11.209,0,0,1-8.966,17.935Zm19.614-47.636v47.636H33.219v-.027a13.98,13.98,0,0,0,2.8-19.588L30.865,439.9l3.585-3.585a5.334,5.334,0,0,0-1.231-8.475v-9.087Z" transform="translate(-8 -382.33)"/>
            <path id="Trazado_210529" data-name="Trazado 210529" d="M72.875,474.69H86.886V429.857H72.875Zm2.8-42.031h8.406v39.229H75.677Z" transform="translate(-33.646 -387.826)"/>
            <path id="Trazado_210530" data-name="Trazado 210530" d="M100.679,470.111H114.69V418.272H100.679Zm2.8-49.037h8.406v46.235h-8.406Z" transform="translate(-44.637 -383.246)"/>
            <path id="Trazado_210531" data-name="Trazado 210531" d="M128.483,478.354h14.01V439.125h-14.01Zm2.8-36.427h8.406v33.625h-8.406Z" transform="translate(-55.628 -391.489)"/>
          </g>
        </g>
      </g>
    </g>
  </g>
</svg>
