<svg xmlns="http://www.w3.org/2000/svg" width="150" height="150" viewBox="0 0 150 150">
  <g id="Grupo_158148" data-name="Grupo 158148" transform="translate(973 656.171)">
    <g id="Grupo_158049" data-name="Grupo 158049" transform="translate(-344 -592.006)">
      <g id="Grupo_157963" data-name="Grupo 157963" transform="translate(-939 -1930.109)">
        <g id="Elipse_12654" data-name="Elipse 12654" transform="translate(310 1865.944)" fill="#fff" stroke="#77b43a" stroke-width="4">
          <circle cx="75" cy="75" r="75" stroke="none"/>
          <circle cx="75" cy="75" r="73" fill="none"/>
        </g>
        <g id="Grupo_157256" data-name="Grupo 157256" transform="translate(298 1878.944)">
          <path id="Trazado_210441" data-name="Trazado 210441" d="M208.787,400H177.726A1.726,1.726,0,0,0,176,401.726v3.451a1.726,1.726,0,0,0,1.726,1.726h1.726v3.451a3.451,3.451,0,0,0,3.451,3.451v2.3a4.39,4.39,0,0,0,4.142,4.6h12.425a4.39,4.39,0,0,0,4.142-4.6v-2.3a3.451,3.451,0,0,0,3.451-3.451V406.9h1.726a1.726,1.726,0,0,0,1.726-1.726v-3.451A1.726,1.726,0,0,0,208.787,400Z" transform="translate(-106.664 -307.443)" fill="#3d46c2"/>
          <path id="Trazado_210442" data-name="Trazado 210442" d="M192,432v3.451a3.451,3.451,0,0,0,3.451,3.451h20.708a3.451,3.451,0,0,0,3.451-3.451V432Z" transform="translate(-119.213 -332.54)" fill="#637399"/>
          <path id="Trazado_210443" data-name="Trazado 210443" d="M138.345,80.038c-16.164.791-29.489,14.661-30.348,31.6A33.905,33.905,0,0,0,122.222,141.3a4.146,4.146,0,0,1,1.69,3.415v4.31h31.925v-4.2a4.338,4.338,0,0,1,1.75-3.569,33.83,33.83,0,0,0,14.212-27.8c0-19.009-15.128-34.316-33.454-33.42Z" transform="translate(-53.282 -56.469)" fill="#dce736"/>
          <path id="Trazado_210444" data-name="Trazado 210444" d="M157.805,136c-4.765,0-8.628,3.311-8.628,7.4a6.36,6.36,0,0,0,.356,1.99A7.517,7.517,0,0,0,144,152.266a6.872,6.872,0,0,0,2.477,5.177A6.873,6.873,0,0,0,144,162.62a7.472,7.472,0,0,0,5.247,6.8c-.019.2-.07.389-.07.592,0,4.085,3.863,7.4,8.628,7.4a9.116,9.116,0,0,0,6.9-3V138.995a9.116,9.116,0,0,0-6.9-3Z" transform="translate(-81.567 -100.386)" fill="#f2d891"/>
          <path id="Trazado_210445" data-name="Trazado 210445" d="M289.183,159.731a17,17,0,0,0,0-6.044l3.524-2.165a21.01,21.01,0,0,0-5.178-9.572l-2.044,1.255a2.4,2.4,0,0,1-2.694-.069,15.335,15.335,0,0,0-2.315-1.419,2.707,2.707,0,0,1-1.4-2.449v-2.506a18.337,18.337,0,0,0-5.44-.759q-.826.011-1.633.1v13.12a6.474,6.474,0,0,1,1.883-.279,7.8,7.8,0,0,1,0,15.531A6.474,6.474,0,0,1,272,164.2v13.121a17.859,17.859,0,0,0,2.132.1,18.355,18.355,0,0,0,4.941-.769v-2.5a2.707,2.707,0,0,1,1.4-2.449,15.336,15.336,0,0,0,2.315-1.419,2.4,2.4,0,0,1,2.694-.069l2.033,1.249a21.006,21.006,0,0,0,5.189-9.566Z" transform="translate(-181.956 -100.391)" fill="#3d46c2"/>
          <path id="Trazado_210446" data-name="Trazado 210446" d="M152.283,136.4a35.581,35.581,0,0,0,14.948-29.216,36.016,36.016,0,0,0-11-26.018,32.676,32.676,0,0,0-24.267-9.125c-17.033.832-31.084,15.43-31.987,33.232a35.451,35.451,0,0,0,14.961,31.171,2.438,2.438,0,0,1,.952,2v3.364a3.432,3.432,0,0,0-1.294,2.672v3.451a3.455,3.455,0,0,0,3.451,3.451v1.726a5.168,5.168,0,0,0,3.451,4.859v.893a6.117,6.117,0,0,0,5.867,6.328h12.425a6.117,6.117,0,0,0,5.867-6.328v-.893a5.169,5.169,0,0,0,3.451-4.859v-1.726a3.455,3.455,0,0,0,3.451-3.451V144.48a3.432,3.432,0,0,0-1.294-2.672v-3.251a2.628,2.628,0,0,1,1.014-2.155ZM142.209,158.86a2.68,2.68,0,0,1-2.416,2.877H127.368a2.68,2.68,0,0,1-2.416-2.877v-.575h17.257Zm3.451-5.752a1.727,1.727,0,0,1-1.726,1.726H123.227a1.727,1.727,0,0,1-1.726-1.726v-1.726H145.66Zm-27.61-5.177V144.48h31.062l0,3.451ZM150.3,133.574a6.043,6.043,0,0,0-2.486,4.983v2.472H119.344v-2.585a5.851,5.851,0,0,0-2.429-4.83,32.021,32.021,0,0,1-13.489-28.165c.815-16.053,13.425-29.213,28.709-29.96a29.142,29.142,0,0,1,21.718,8.177,32.549,32.549,0,0,1,9.927,23.519A32.124,32.124,0,0,1,150.3,133.574Z" transform="translate(-46.988 -50.198)"/>
          <path id="Trazado_210447" data-name="Trazado 210447" d="M248,8h3.451v8.628H248Z" transform="translate(-163.133)"/>
          <path id="Trazado_210448" data-name="Trazado 210448" d="M432,216h8.628v3.451H432Z" transform="translate(-307.443 -163.133)"/>
          <path id="Trazado_210449" data-name="Trazado 210449" d="M40,216h8.628v3.451H40Z" transform="translate(0 -163.133)"/>
          <path id="Trazado_210450" data-name="Trazado 210450" d="M97.6,68.068l2.44-2.44,6.1,6.1-2.44,2.44Z" transform="translate(-45.171 -45.197)"/>
          <path id="Trazado_210451" data-name="Trazado 210451" d="M374.732,71.719l6.1-6.1,2.44,2.44-6.1,6.1Z" transform="translate(-262.528 -45.19)"/>
          <path id="Trazado_210452" data-name="Trazado 210452" d="M151.531,128c-5.71,0-10.354,4.092-10.354,9.122a6.942,6.942,0,0,0,.067.956A8.9,8.9,0,0,0,136,145.992a8.318,8.318,0,0,0,1.829,5.177A8.318,8.318,0,0,0,136,156.346a8.96,8.96,0,0,0,5.193,7.91c.305,4.791,4.826,8.606,10.338,8.606a10.794,10.794,0,0,0,8.205-3.595,1.72,1.72,0,0,0,.423-1.131V132.721a1.72,1.72,0,0,0-.423-1.131A10.794,10.794,0,0,0,151.531,128Zm5.177,39.452a7.475,7.475,0,0,1-5.177,1.963,6.448,6.448,0,0,1-6.836-5.319l2.166-1.393h2.944v-3.451h-3.451a1.728,1.728,0,0,0-.934.275l-2.6,1.676a5.565,5.565,0,0,1-3.364-4.853,5.158,5.158,0,0,1,1.886-3.878c.039-.034.056-.085.092-.123h4.925v-3.451h-5.9a4.888,4.888,0,0,1-1-2.9,5.565,5.565,0,0,1,3.543-4.92l2.14,2.14a1.725,1.725,0,0,0,1.22.506h3.451v-3.451h-2.737l-2.339-2.339a3.933,3.933,0,0,1-.1-.809c0-3.126,3.1-5.671,6.9-5.671a7.474,7.474,0,0,1,5.177,1.963Z" transform="translate(-75.292 -94.111)"/>
          <path id="Trazado_210453" data-name="Trazado 210453" d="M287.337,154.15l-2.558-1.571a18.272,18.272,0,0,0,0-4.29l2.557-1.572a1.724,1.724,0,0,0,.773-1.878,22.753,22.753,0,0,0-5.607-10.356,1.723,1.723,0,0,0-2.151-.278l-2.043,1.254a.688.688,0,0,1-.763.017,16.919,16.919,0,0,0-2.576-1.579,1.012,1.012,0,0,1-.446-.9v-2.506a1.726,1.726,0,0,0-1.239-1.655,20.033,20.033,0,0,0-5.948-.829c-.606.007-1.2.046-1.795.109A1.724,1.724,0,0,0,264,129.828v13.121a1.725,1.725,0,0,0,2.227,1.651,4.739,4.739,0,0,1,1.381-.206,6.087,6.087,0,0,1,0,12.08,4.742,4.742,0,0,1-1.381-.206A1.725,1.725,0,0,0,264,157.92v13.123a1.725,1.725,0,0,0,1.544,1.716,19.679,19.679,0,0,0,2.066.11c.091,0,.181,0,.271,0a20.183,20.183,0,0,0,5.4-.839,1.725,1.725,0,0,0,1.239-1.655v-2.5a1.013,1.013,0,0,1,.445-.9,16.948,16.948,0,0,0,2.576-1.577.685.685,0,0,1,.763.015l2.033,1.249a1.731,1.731,0,0,0,2.151-.278,22.751,22.751,0,0,0,5.618-10.35A1.727,1.727,0,0,0,287.337,154.15Zm-6.422,8.808-.8-.492a4.116,4.116,0,0,0-4.626.155,13.5,13.5,0,0,1-2.054,1.259,4.439,4.439,0,0,0-2.362,3.994v1.159a16.242,16.242,0,0,1-3.24.381c-.126,0-.253,0-.382,0v-9.493c.052,0,.1,0,.157,0a9.519,9.519,0,0,0,0-18.982c-.052,0-.1,0-.157,0v-9.493a17.33,17.33,0,0,1,3.621.374v1.166a4.439,4.439,0,0,0,2.363,4,13.5,13.5,0,0,1,2.054,1.261,4.113,4.113,0,0,0,4.626.152l.81-.5a19.334,19.334,0,0,1,3.5,6.552L282,145.943a1.723,1.723,0,0,0-.8,1.764,15.231,15.231,0,0,1,0,5.454,1.728,1.728,0,0,0,.8,1.766l2.421,1.486a19.287,19.287,0,0,1-3.51,6.545Z" transform="translate(-175.682 -94.116)"/>
          <path id="Trazado_210454" data-name="Trazado 210454" d="M208,184.88h3.451v3.451H208Z" transform="translate(-131.761 -138.726)"/>
          <path id="Trazado_210455" data-name="Trazado 210455" d="M208,272.88h3.451v3.451H208Z" transform="translate(-131.761 -207.744)"/>
          <path id="Trazado_210456" data-name="Trazado 210456" d="M192,224.88h3.451v3.451H192Z" transform="translate(-119.213 -170.098)"/>
        </g>
      </g>
    </g>
  </g>
</svg>
