<svg xmlns="http://www.w3.org/2000/svg" width="150" height="150" viewBox="0 0 150 150">
  <g id="Grupo_158120" data-name="Grupo 158120" transform="translate(11064 1735.256)">
    <g id="Grupo_158076" data-name="Grupo 158076">
      <g id="Grupo_157997" data-name="Grupo 157997" transform="translate(-11434 -10327)">
        <g id="Elipse_5958" data-name="Elipse 5958" transform="translate(370 8591.744)" fill="#fff" stroke="#77b43a" stroke-width="4">
          <circle cx="75" cy="75" r="75" stroke="none"/>
          <circle cx="75" cy="75" r="73" fill="none"/>
        </g>
        <g id="Grupo_157940" data-name="Grupo 157940" transform="translate(395.696 8234.594)">
          <circle id="Elipse_12917" data-name="Elipse 12917" cx="20.709" cy="20.709" r="20.709" transform="translate(28.222 411.205)" fill="#ffb850"/>
          <path id="Trazado_205713" data-name="Trazado 205713" d="M34.734,483.379a16.271,16.271,0,1,1-16.271-16.271,16.21,16.21,0,0,1,16.271,16.271Z" transform="translate(-0.459 -20.422)" fill="#dce736"/>
          <path id="Trazado_205714" data-name="Trazado 205714" d="M31.412,497.38v3.728a16.264,16.264,0,0,1-22.752,0V497.38a2.612,2.612,0,0,1,1.766-2.475l7.943-2.731H21.7l7.941,2.731a2.611,2.611,0,0,1,1.768,2.475Z" transform="translate(-2.033 -26.519)" fill="#ffb850"/>
          <path id="Trazado_205715" data-name="Trazado 205715" d="M14.375,501.108a16.193,16.193,0,0,0,8.518,4.388A16.275,16.275,0,0,1,8.66,501.108V497.38a2.612,2.612,0,0,1,1.766-2.475l7.943-2.731H21.7l1.19.409-6.753,2.322a2.612,2.612,0,0,0-1.766,2.475Z" transform="translate(-2.033 -26.519)" fill="#f5a30f"/>
          <path id="Trazado_205716" data-name="Trazado 205716" d="M116.651,483.379a16.271,16.271,0,1,1-16.271-16.271,16.207,16.207,0,0,1,16.271,16.271Z" transform="translate(-20.385 -20.422)" fill="#dce736"/>
          <path id="Trazado_205717" data-name="Trazado 205717" d="M113.329,497.38v3.728a16.263,16.263,0,0,1-22.751,0V497.38a2.611,2.611,0,0,1,1.768-2.475l7.941-2.731h3.334l7.943,2.731a2.612,2.612,0,0,1,1.766,2.475Z" transform="translate(-21.959 -26.519)" fill="#88b4f5"/>
          <path id="Trazado_205718" data-name="Trazado 205718" d="M96.292,501.108a16.193,16.193,0,0,0,8.519,4.388,16.275,16.275,0,0,1-14.233-4.388V497.38a2.611,2.611,0,0,1,1.768-2.475l7.941-2.731h3.334l1.19.409-6.751,2.322a2.612,2.612,0,0,0-1.768,2.475Z" transform="translate(-21.959 -26.519)" fill="#6ea2f2"/>
          <path id="Trazado_205719" data-name="Trazado 205719" d="M116.651,401.311a16.212,16.212,0,0,1-4.9,11.631v0a16.269,16.269,0,0,1-22.751,0v0a16.27,16.27,0,1,1,27.647-11.631Z" transform="translate(-20.385 -0.459)" fill="#75b62f"/>
          <path id="Trazado_205720" data-name="Trazado 205720" d="M113.329,415.309v3.732a16.269,16.269,0,0,1-22.751,0v-3.732a2.612,2.612,0,0,1,1.768-2.475l7.941-2.73h3.334l7.943,2.73A2.613,2.613,0,0,1,113.329,415.309Z" transform="translate(-21.959 -6.556)" fill="#f07281"/>
          <path id="Trazado_205721" data-name="Trazado 205721" d="M96.292,419.041a16.207,16.207,0,0,0,8.519,4.387,16.288,16.288,0,0,1-14.233-4.387v-3.732a2.612,2.612,0,0,1,1.768-2.475l7.941-2.73h3.334l1.19.409-6.751,2.32a2.613,2.613,0,0,0-1.768,2.475Z" transform="translate(-21.959 -6.556)" fill="#eb5569"/>
          <path id="Trazado_205722" data-name="Trazado 205722" d="M34.734,401.311a16.215,16.215,0,0,1-4.9,11.631v0a16.27,16.27,0,0,1-22.752,0v0a16.271,16.271,0,1,1,27.647-11.631Z" transform="translate(-0.459 -0.459)" fill="#75b62f"/>
          <path id="Trazado_205723" data-name="Trazado 205723" d="M31.412,415.309v3.732a16.27,16.27,0,0,1-22.752,0v-3.732a2.614,2.614,0,0,1,1.766-2.475l7.943-2.73H21.7l7.941,2.73A2.612,2.612,0,0,1,31.412,415.309Z" transform="translate(-2.033 -6.556)" fill="#ade194"/>
          <path id="Trazado_205724" data-name="Trazado 205724" d="M14.375,419.041a16.207,16.207,0,0,0,8.518,4.387A16.288,16.288,0,0,1,8.66,419.041v-3.732a2.614,2.614,0,0,1,1.766-2.475l7.943-2.73H21.7l1.19.409-6.753,2.32a2.613,2.613,0,0,0-1.766,2.475Z" transform="translate(-2.033 -6.556)" fill="#87d469"/>
          <circle id="Elipse_12918" data-name="Elipse 12918" cx="15.237" cy="15.237" r="15.237" transform="translate(33.681 416.683)" fill="#dce736"/>
          <path id="Trazado_205725" data-name="Trazado 205725" d="M62.144,437.842l2.324,4.71,5.2.755-3.761,3.666.888,5.177-4.649-2.444-4.65,2.444.888-5.177-3.761-3.666,5.2-.755Z" transform="translate(-13.212 -13.303)" fill="#ffb850"/>
          <circle id="Elipse_12919" data-name="Elipse 12919" cx="5.879" cy="5.879" r="5.879" transform="translate(74.116 391.783)" fill="#ffeee6"/>
          <path id="Trazado_205726" data-name="Trazado 205726" d="M106.578,405.575a5.879,5.879,0,1,1,0-10.277,5.88,5.88,0,0,0,0,10.277Z" transform="translate(-23.726 -2.774)" fill="#ffdfcf"/>
          <circle id="Elipse_12920" data-name="Elipse 12920" cx="5.879" cy="5.879" r="5.879" transform="translate(12.124 391.783)" fill="#ffcebf"/>
          <path id="Trazado_205727" data-name="Trazado 205727" d="M24.66,405.575a5.879,5.879,0,1,1,0-10.277,5.879,5.879,0,0,0,0,10.277Z" transform="translate(-3.799 -2.774)" fill="#ffb09e"/>
          <circle id="Elipse_12921" data-name="Elipse 12921" cx="5.879" cy="5.879" r="5.879" transform="translate(74.116 453.89)" fill="#ffcebf"/>
          <path id="Trazado_205728" data-name="Trazado 205728" d="M106.578,487.646a5.879,5.879,0,1,1,0-10.277,5.88,5.88,0,0,0,0,10.277Z" transform="translate(-23.726 -22.738)" fill="#ffb09e"/>
          <circle id="Elipse_12922" data-name="Elipse 12922" cx="5.879" cy="5.879" r="5.879" transform="translate(12.124 453.89)" fill="#ffeee6"/>
          <path id="Trazado_205729" data-name="Trazado 205729" d="M24.66,487.646a5.879,5.879,0,1,1,0-10.277,5.879,5.879,0,0,0,0,10.277Z" transform="translate(-3.799 -22.738)" fill="#ffdfcf"/>
          <g id="Grupo_153676" data-name="Grupo 153676" transform="translate(0.303 383.151)">
            <path id="Trazado_205730" data-name="Trazado 205730" d="M42.536,442.233a16.664,16.664,0,0,0,30.27,9.626,1.429,1.429,0,1,0-2.33-1.654,13.728,13.728,0,1,1,2.256-5.183,1.429,1.429,0,1,0,2.8.579,16.668,16.668,0,1,0-32.993-3.368Z" transform="translate(-10.576 -393.468)"/>
            <path id="Trazado_205731" data-name="Trazado 205731" d="M69.38,441.38l-4.455-.647L62.933,436.7c-.642-1.383-1.975-1.193-2.562,0l-1.993,4.037-4.454.647c-1.49.123-1.681,1.552-.792,2.437l3.224,3.142-.761,4.437q.1,2.042,2.073,1.506l3.985-2.095,3.984,2.095a1.451,1.451,0,0,0,2.073-1.506l-.761-4.437,3.224-3.142A1.331,1.331,0,0,0,69.38,441.38Zm-4.964,4.057A1.429,1.429,0,0,0,64,446.7l.4,2.325-2.087-1.1a1.434,1.434,0,0,0-1.33,0l-2.087,1.1.4-2.325a1.429,1.429,0,0,0-.411-1.265L57.2,443.791l2.333-.34a1.426,1.426,0,0,0,1.075-.781l1.044-2.115,1.043,2.115a1.428,1.428,0,0,0,1.076.781l2.333.34Z" transform="translate(-13.023 -395.94)"/>
            <path id="Trazado_205732" data-name="Trazado 205732" d="M86.122,446.352a40,40,0,0,0-.007-28.891A17.913,17.913,0,0,0,97.7,400.851a17.7,17.7,0,0,0-34.308-6.121,40,40,0,0,0-28.792-.045A17.7,17.7,0,0,0,.3,400.851a17.911,17.911,0,0,0,11.462,16.564,39.988,39.988,0,0,0-.007,28.982A17.729,17.729,0,0,0,.3,462.957a17.926,17.926,0,0,0,17.7,17.7,17.9,17.9,0,0,0,16.584-11.516,39.993,39.993,0,0,0,28.805-.045,17.7,17.7,0,1,0,22.729-22.744Zm3.82-34.494a14.813,14.813,0,0,1-19.894,0v-3.1a1.187,1.187,0,0,1,.8-1.124l7.717-2.652h2.857l7.719,2.653a1.186,1.186,0,0,1,.8,1.123v3.1Zm-14.4-14.2A4.451,4.451,0,1,1,80,402.113,4.456,4.456,0,0,1,75.544,397.662ZM80,386.008A14.833,14.833,0,0,1,92.78,408.378a4.039,4.039,0,0,0-2.711-3.451l-5.231-1.8a7.308,7.308,0,1,0-9.684,0l-5.229,1.8a4.04,4.04,0,0,0-2.714,3.452A14.833,14.833,0,0,1,80,386.008ZM5.218,408.378a14.84,14.84,0,1,1,27.628-7.527,14.749,14.749,0,0,1-2.058,7.527,4.04,4.04,0,0,0-2.711-3.451l-5.231-1.8a7.308,7.308,0,1,0-9.684,0l-5.229,1.8a4.04,4.04,0,0,0-2.714,3.452Zm17.236-10.716A4.451,4.451,0,1,1,18,393.211,4.456,4.456,0,0,1,22.454,397.662Zm-14.4,14.2v-3.1a1.187,1.187,0,0,1,.8-1.124l7.717-2.652h2.857l7.718,2.653a1.185,1.185,0,0,1,.8,1.123v3.1a14.812,14.812,0,0,1-19.894,0ZM27.95,473.964a14.813,14.813,0,0,1-19.894,0v-3.1a1.186,1.186,0,0,1,.8-1.124l7.717-2.652h2.857l7.718,2.653a1.185,1.185,0,0,1,.8,1.123Zm-14.4-14.194A4.451,4.451,0,1,1,18,464.22,4.455,4.455,0,0,1,13.552,459.77Zm49.067,6.562a37.142,37.142,0,0,1-27.249.049,18.018,18.018,0,0,0-6.143-17.109,1.428,1.428,0,0,0-1.812,2.208,15.025,15.025,0,0,1,3.374,19.005,4.039,4.039,0,0,0-2.711-3.45l-5.231-1.8a7.308,7.308,0,1,0-9.685,0l-5.229,1.8a4.04,4.04,0,0,0-2.713,3.45,14.748,14.748,0,0,1-2.058-7.527,14.989,14.989,0,0,1,19.253-14.176,1.428,1.428,0,0,0,.851-2.727,18.087,18.087,0,0,0-8.749-.451,37.135,37.135,0,0,1,.007-27.4,17.871,17.871,0,0,0,20.851-20.759,37.147,37.147,0,0,1,27.242.048A17.871,17.871,0,0,0,83.35,418.231a37.145,37.145,0,0,1,.008,27.348c-12.059-2.328-23.075,8.69-20.738,20.752Zm7.429,7.633v-3.1a1.186,1.186,0,0,1,.8-1.124l7.717-2.652h2.857l7.719,2.653a1.186,1.186,0,0,1,.8,1.123v3.1a14.815,14.815,0,0,1-19.894,0ZM80,464.22a4.451,4.451,0,1,1,4.45-4.451A4.456,4.456,0,0,1,80,464.22Zm12.785,6.265a4.038,4.038,0,0,0-2.711-3.451l-5.231-1.8a7.308,7.308,0,1,0-9.684,0l-5.229,1.8a4.04,4.04,0,0,0-2.714,3.452,14.843,14.843,0,1,1,25.57,0Z" transform="translate(-0.303 -383.151)"/>
            <path id="Trazado_205733" data-name="Trazado 205733" d="M74.2,426.09a22.161,22.161,0,0,0-13.318-7.416,1.429,1.429,0,0,0-.442,2.823,19.283,19.283,0,1,1-5.8-.029,1.429,1.429,0,0,0-.413-2.827A22.157,22.157,0,1,0,74.2,426.09Z" transform="translate(-8.817 -391.78)" fill="#75b62f"/>
          </g>
        </g>
      </g>
    </g>
  </g>
</svg>
