<svg xmlns="http://www.w3.org/2000/svg" width="440.783" height="209.065" viewBox="0 0 440.783 209.065">
  <g id="Grupo_158022" data-name="Grupo 158022" transform="translate(-879.281 -10230.69)">
    <g id="Trazado_213522" data-name="Trazado 213522" transform="translate(984 10272.756)" fill="#fff">
      <path d="M 304.5 166.5 L 0.5 166.5 L 0.5 0.5 L 304.5 0.5 L 304.5 166.5 Z" stroke="none"/>
      <path d="M 1 1 L 1 166 L 304 166 L 304 1 L 1 1 M 0 0 L 305 0 L 305 167 L 0 167 L 0 0 Z" stroke="none" fill="#707070"/>
    </g>
    <path id="Trazado_213523" data-name="Trazado 213523" d="M9.789,7.742H6.375V17H3.633V7.742H.281V5.625H9.789Zm5.125,9.414A4.345,4.345,0,0,1,11.766,16a4.006,4.006,0,0,1-1.2-3.02v-.219a5.191,5.191,0,0,1,.48-2.289,3.516,3.516,0,0,1,1.4-1.535,4.233,4.233,0,0,1,2.188-.543A3.659,3.659,0,0,1,17.445,9.5a4.344,4.344,0,0,1,1.031,3.082V13.6H13.242a1.9,1.9,0,0,0,.617,1.117,1.836,1.836,0,0,0,1.234.406,2.366,2.366,0,0,0,1.953-.875l1.2,1.422a3.363,3.363,0,0,1-1.395,1.082A4.713,4.713,0,0,1,14.914,17.156Zm-.3-6.734q-1.156,0-1.375,1.531H15.9v-.2a1.3,1.3,0,0,0-.32-.98A1.275,1.275,0,0,0,14.617,10.422Zm8.492,4.7a1.171,1.171,0,0,0,.859-.3,1.1,1.1,0,0,0,.3-.84h2.469a2.922,2.922,0,0,1-1,2.281,3.705,3.705,0,0,1-2.566.891A3.751,3.751,0,0,1,20.266,16,4.556,4.556,0,0,1,19.2,12.8v-.109a5.149,5.149,0,0,1,.473-2.262,3.441,3.441,0,0,1,1.363-1.508,4.065,4.065,0,0,1,2.109-.527,3.658,3.658,0,0,1,2.617.914,3.242,3.242,0,0,1,.969,2.477H24.266a1.445,1.445,0,0,0-.32-1.008,1.106,1.106,0,0,0-.859-.352q-1.023,0-1.2,1.3a9.206,9.206,0,0,0-.055,1.141,3.616,3.616,0,0,0,.3,1.766A1.055,1.055,0,0,0,23.109,15.125Zm7.156-6.578.086.992a2.867,2.867,0,0,1,2.414-1.148,2.412,2.412,0,0,1,1.973.789,3.757,3.757,0,0,1,.676,2.375V17H32.773V11.664a1.426,1.426,0,0,0-.258-.941,1.193,1.193,0,0,0-.937-.3,1.256,1.256,0,0,0-1.148.609V17H27.8V8.547ZM36.539,12.7a4.989,4.989,0,0,1,.492-2.254,3.52,3.52,0,0,1,1.414-1.52,4.259,4.259,0,0,1,2.164-.531A3.887,3.887,0,0,1,43.6,9.566a4.512,4.512,0,0,1,1.094,3.2v.094A4.378,4.378,0,0,1,43.6,16a3.9,3.9,0,0,1-2.973,1.16,3.942,3.942,0,0,1-2.9-1.082,4.232,4.232,0,0,1-1.18-2.934Zm2.633.164a3.145,3.145,0,0,0,.367,1.719,1.223,1.223,0,0,0,1.086.547q1.406,0,1.438-2.164V12.7q0-2.273-1.453-2.273-1.32,0-1.43,1.961ZM48.633,17H45.992V5h2.641Zm1.289-4.3a4.989,4.989,0,0,1,.492-2.254,3.52,3.52,0,0,1,1.414-1.52,4.259,4.259,0,0,1,2.164-.531,3.887,3.887,0,0,1,2.992,1.176,4.512,4.512,0,0,1,1.094,3.2v.094A4.378,4.378,0,0,1,56.98,16a3.9,3.9,0,0,1-2.973,1.16,3.942,3.942,0,0,1-2.9-1.082,4.232,4.232,0,0,1-1.18-2.934Zm2.633.164a3.145,3.145,0,0,0,.367,1.719,1.223,1.223,0,0,0,1.086.547q1.406,0,1.438-2.164V12.7q0-2.273-1.453-2.273-1.32,0-1.43,1.961Zm6.375-.148a5.708,5.708,0,0,1,.422-2.266,3.4,3.4,0,0,1,1.211-1.52A3.192,3.192,0,0,1,62.4,8.391a2.538,2.538,0,0,1,2.063.891l.094-.734h2.391V16.68a3.564,3.564,0,0,1-.52,1.941,3.334,3.334,0,0,1-1.5,1.266,5.528,5.528,0,0,1-2.281.441,4.769,4.769,0,0,1-1.8-.352,3.251,3.251,0,0,1-1.332-.914l1.1-1.547a2.414,2.414,0,0,0,1.938.867,1.568,1.568,0,0,0,1.75-1.8V16.32a2.472,2.472,0,0,1-1.914.836,3.055,3.055,0,0,1-2.5-1.184A4.9,4.9,0,0,1,58.93,12.8Zm2.641.164a3.007,3.007,0,0,0,.391,1.645,1.232,1.232,0,0,0,1.094.605,1.4,1.4,0,0,0,1.242-.57V11a1.363,1.363,0,0,0-1.227-.578,1.241,1.241,0,0,0-1.1.629A3.429,3.429,0,0,0,61.57,12.875ZM71.313,17H68.664V8.547h2.648ZM70.328,5.156h2.781L70.938,7.609l-2.148,0ZM77.766,17a2.973,2.973,0,0,1-.25-.758,2.448,2.448,0,0,1-2.031.914,3,3,0,0,1-2.031-.723,2.3,2.3,0,0,1-.836-1.816,2.364,2.364,0,0,1,1.016-2.078,5.174,5.174,0,0,1,2.953-.7H77.4v-.448q0-1.17-1.008-1.17a.824.824,0,0,0-.937.926H72.82a2.36,2.36,0,0,1,1.043-1.99,4.383,4.383,0,0,1,2.66-.765,3.843,3.843,0,0,1,2.555.789,2.743,2.743,0,0,1,.961,2.164v3.742a3.832,3.832,0,0,0,.359,1.781V17Zm-1.648-1.719a1.469,1.469,0,0,0,.816-.211,1.322,1.322,0,0,0,.465-.477V13.242h-.766q-1.375,0-1.375,1.234a.754.754,0,0,0,.242.582A.876.876,0,0,0,76.117,15.281Z" transform="translate(879 10406.242)" fill="#12263f"/>
    <path id="Trazado_213524" data-name="Trazado 213524" d="M4.461,5.625,7,13.539,9.531,5.625h3.609V17h-2.75V14.344l.266-5.437L7.906,17H6.094L3.336,8.9,3.6,14.344V17H.859V5.625ZM18.852,17.156A4.345,4.345,0,0,1,15.7,16a4.006,4.006,0,0,1-1.2-3.02v-.219a5.191,5.191,0,0,1,.48-2.289,3.516,3.516,0,0,1,1.4-1.535,4.233,4.233,0,0,1,2.188-.543A3.659,3.659,0,0,1,21.383,9.5a4.344,4.344,0,0,1,1.031,3.082V13.6H17.18a1.9,1.9,0,0,0,.617,1.117,1.836,1.836,0,0,0,1.234.406,2.366,2.366,0,0,0,1.953-.875l1.2,1.422a3.363,3.363,0,0,1-1.395,1.082A4.713,4.713,0,0,1,18.852,17.156Zm-.3-6.734q-1.156,0-1.375,1.531h2.656v-.2a1.3,1.3,0,0,0-.32-.98A1.275,1.275,0,0,0,18.555,10.422Zm10.031.508-.867-.062a1.558,1.558,0,0,0-1.594.781V17H23.492V8.547h2.469l.086,1.086A2.039,2.039,0,0,1,27.9,8.391a2.567,2.567,0,0,1,.734.094Zm4.375,4.2a1.171,1.171,0,0,0,.859-.3,1.1,1.1,0,0,0,.3-.84h2.469a2.922,2.922,0,0,1-1,2.281,3.705,3.705,0,0,1-2.566.891A3.751,3.751,0,0,1,30.117,16a4.556,4.556,0,0,1-1.062-3.2v-.109a5.149,5.149,0,0,1,.473-2.262,3.441,3.441,0,0,1,1.363-1.508A4.065,4.065,0,0,1,33,8.391a3.658,3.658,0,0,1,2.617.914,3.242,3.242,0,0,1,.969,2.477H34.117a1.445,1.445,0,0,0-.32-1.008,1.106,1.106,0,0,0-.859-.352q-1.023,0-1.2,1.3a9.206,9.206,0,0,0-.055,1.141,3.616,3.616,0,0,0,.3,1.766A1.055,1.055,0,0,0,32.961,15.125ZM42.461,17a2.973,2.973,0,0,1-.25-.758,2.448,2.448,0,0,1-2.031.914,3,3,0,0,1-2.031-.723,2.3,2.3,0,0,1-.836-1.816,2.364,2.364,0,0,1,1.016-2.078,5.174,5.174,0,0,1,2.953-.7h.813v-.448q0-1.17-1.008-1.17a.824.824,0,0,0-.937.926H37.516a2.36,2.36,0,0,1,1.043-1.99,4.383,4.383,0,0,1,2.66-.765,3.843,3.843,0,0,1,2.555.789,2.743,2.743,0,0,1,.961,2.164v3.742a3.832,3.832,0,0,0,.359,1.781V17Zm-1.648-1.719a1.469,1.469,0,0,0,.816-.211,1.322,1.322,0,0,0,.465-.477V13.242h-.766q-1.375,0-1.375,1.234a.754.754,0,0,0,.242.582A.876.876,0,0,0,40.813,15.281Zm5.047-2.57a5.164,5.164,0,0,1,.867-3.164,2.854,2.854,0,0,1,2.422-1.156,2.428,2.428,0,0,1,1.906.891V5H53.7V17H51.328l-.133-.906a2.493,2.493,0,0,1-2.062,1.063A2.849,2.849,0,0,1,46.742,16,5.327,5.327,0,0,1,45.859,12.711Zm2.633.164q0,2.25,1.313,2.25a1.3,1.3,0,0,0,1.25-.734V11.172a1.261,1.261,0,0,0-1.234-.75q-1.219,0-1.32,1.969Zm6.367-.18a4.989,4.989,0,0,1,.492-2.254,3.52,3.52,0,0,1,1.414-1.52,4.259,4.259,0,0,1,2.164-.531,3.887,3.887,0,0,1,2.992,1.176,4.512,4.512,0,0,1,1.094,3.2v.094A4.378,4.378,0,0,1,61.918,16a3.9,3.9,0,0,1-2.973,1.16,3.942,3.942,0,0,1-2.9-1.082,4.232,4.232,0,0,1-1.18-2.934Zm2.633.164a3.145,3.145,0,0,0,.367,1.719,1.223,1.223,0,0,0,1.086.547q1.406,0,1.438-2.164V12.7q0-2.273-1.453-2.273-1.32,0-1.43,1.961Z" transform="translate(889 10278.77)" fill="#12263f"/>
    <path id="Trazado_213525" data-name="Trazado 213525" d="M5.883,13.109h-4.7V11.078h4.7Zm7.2,0h-4.7V11.078h4.7Zm7.2,0h-4.7V11.078h4.7Zm7.2,0h-4.7V11.078h4.7Zm7.2,0h-4.7V11.078h4.7Zm7.2,0h-4.7V11.078h4.7Zm7.2,0h-4.7V11.078h4.7Zm7.2,0h-4.7V11.078h4.7Zm7.2,0h-4.7V11.078h4.7Zm7.2,0h-4.7V11.078h4.7Zm7.2,0h-4.7V11.078h4.7Zm7.2,0h-4.7V11.078h4.7Zm7.2,0h-4.7V11.078h4.7Zm7.2,0h-4.7V11.078h4.7Zm7.2,0h-4.7V11.078h4.7Zm7.2,0h-4.7V11.078h4.7Zm7.2,0h-4.7V11.078h4.7Zm7.2,0h-4.7V11.078h4.7Zm7.2,0h-4.7V11.078h4.7Zm7.2,0h-4.7V11.078h4.7Zm7.2,0h-4.7V11.078h4.7Zm7.2,0h-4.7V11.078h4.7Zm7.2,0h-4.7V11.078h4.7Zm7.2,0h-4.7V11.078h4.7Zm7.2,0h-4.7V11.078h4.7Zm7.2,0h-4.7V11.078h4.7Zm7.2,0h-4.7V11.078h4.7Zm7.2,0h-4.7V11.078h4.7Zm7.2,0h-4.7V11.078h4.7Zm7.2,0h-4.7V11.078h4.7Zm7.2,0h-4.7V11.078h4.7Zm7.2,0h-4.7V11.078h4.7Zm7.2,0h-4.7V11.078h4.7Zm7.2,0h-4.7V11.078h4.7Zm7.2,0h-4.7V11.078h4.7Zm7.2,0h-4.7V11.078h4.7Zm7.2,0h-4.7V11.078h4.7Zm7.2,0h-4.7V11.078h4.7Zm7.2,0h-4.7V11.078h4.7Zm7.2,0h-4.7V11.078h4.7Zm7.2,0H289V11.078h4.7Zm7.2,0h-4.7V11.078h4.7Z" transform="translate(984 10306.27)" fill="#12263f"/>
    <path id="Trazado_213526" data-name="Trazado 213526" d="M5.883,13.109h-4.7V11.078h4.7Zm7.2,0h-4.7V11.078h4.7Zm7.2,0h-4.7V11.078h4.7Zm7.2,0h-4.7V11.078h4.7Zm7.2,0h-4.7V11.078h4.7Zm7.2,0h-4.7V11.078h4.7Zm7.2,0h-4.7V11.078h4.7Zm7.2,0h-4.7V11.078h4.7Zm7.2,0h-4.7V11.078h4.7Zm7.2,0h-4.7V11.078h4.7Zm7.2,0h-4.7V11.078h4.7Zm7.2,0h-4.7V11.078h4.7Zm7.2,0h-4.7V11.078h4.7Zm7.2,0h-4.7V11.078h4.7Zm7.2,0h-4.7V11.078h4.7Zm7.2,0h-4.7V11.078h4.7Zm7.2,0h-4.7V11.078h4.7Zm7.2,0h-4.7V11.078h4.7Zm7.2,0h-4.7V11.078h4.7Zm7.2,0h-4.7V11.078h4.7Zm7.2,0h-4.7V11.078h4.7Zm7.2,0h-4.7V11.078h4.7Zm7.2,0h-4.7V11.078h4.7Zm7.2,0h-4.7V11.078h4.7Zm7.2,0h-4.7V11.078h4.7Zm7.2,0h-4.7V11.078h4.7Zm7.2,0h-4.7V11.078h4.7Zm7.2,0h-4.7V11.078h4.7Zm7.2,0h-4.7V11.078h4.7Zm7.2,0h-4.7V11.078h4.7Zm7.2,0h-4.7V11.078h4.7Zm7.2,0h-4.7V11.078h4.7Zm7.2,0h-4.7V11.078h4.7Zm7.2,0h-4.7V11.078h4.7Zm7.2,0h-4.7V11.078h4.7Zm7.2,0h-4.7V11.078h4.7Zm7.2,0h-4.7V11.078h4.7Zm7.2,0h-4.7V11.078h4.7Zm7.2,0h-4.7V11.078h4.7Zm7.2,0h-4.7V11.078h4.7Zm7.2,0H289V11.078h4.7Zm7.2,0h-4.7V11.078h4.7Z" transform="translate(984 10373.27)" fill="#12263f"/>
    <path id="Trazado_213527" data-name="Trazado 213527" d="M3.6,13.141V17H.859V5.625H5.4a5.287,5.287,0,0,1,2.309.48A3.621,3.621,0,0,1,9.262,7.473a3.734,3.734,0,0,1,.551,2.012,3.291,3.291,0,0,1-1.191,2.66,4.943,4.943,0,0,1-3.27,1Zm0-2.117H5.4a1.7,1.7,0,0,0,1.215-.4A1.48,1.48,0,0,0,7.031,9.5,1.83,1.83,0,0,0,6.6,8.227,1.522,1.522,0,0,0,5.43,7.742H3.6Zm12.664-.094-.867-.062a1.558,1.558,0,0,0-1.594.781V17H11.172V8.547h2.469l.086,1.086a2.039,2.039,0,0,1,1.852-1.242,2.567,2.567,0,0,1,.734.094ZM16.6,12.7a4.989,4.989,0,0,1,.492-2.254,3.52,3.52,0,0,1,1.414-1.52,4.259,4.259,0,0,1,2.164-.531,3.887,3.887,0,0,1,2.992,1.176,4.512,4.512,0,0,1,1.094,3.2v.094A4.378,4.378,0,0,1,23.66,16a3.9,3.9,0,0,1-2.973,1.16,3.942,3.942,0,0,1-2.9-1.082,4.232,4.232,0,0,1-1.18-2.934Zm2.633.164a3.145,3.145,0,0,0,.367,1.719,1.223,1.223,0,0,0,1.086.547q1.406,0,1.438-2.164V12.7q0-2.273-1.453-2.273-1.32,0-1.43,1.961Zm6.352-.148a5.164,5.164,0,0,1,.867-3.164,2.854,2.854,0,0,1,2.422-1.156,2.428,2.428,0,0,1,1.906.891V5h2.641V17H31.055l-.133-.906a2.493,2.493,0,0,1-2.062,1.063A2.849,2.849,0,0,1,26.469,16,5.327,5.327,0,0,1,25.586,12.711Zm2.633.164q0,2.25,1.313,2.25a1.3,1.3,0,0,0,1.25-.734V11.172a1.261,1.261,0,0,0-1.234-.75q-1.219,0-1.32,1.969Zm11.734,3.211a2.714,2.714,0,0,1-2.258,1.07,2.662,2.662,0,0,1-2.105-.809,3.4,3.4,0,0,1-.715-2.324V8.547h2.633v5.492a.946.946,0,0,0,1.055,1.086,1.376,1.376,0,0,0,1.289-.648V8.547H42.5V17H40.031Zm7.563-.961a1.171,1.171,0,0,0,.859-.3,1.1,1.1,0,0,0,.3-.84h2.469a2.922,2.922,0,0,1-1,2.281,3.705,3.705,0,0,1-2.566.891A3.751,3.751,0,0,1,44.672,16a4.556,4.556,0,0,1-1.062-3.2v-.109a5.149,5.149,0,0,1,.473-2.262,3.441,3.441,0,0,1,1.363-1.508,4.065,4.065,0,0,1,2.109-.527,3.658,3.658,0,0,1,2.617.914,3.242,3.242,0,0,1,.969,2.477H48.672a1.445,1.445,0,0,0-.32-1.008,1.106,1.106,0,0,0-.859-.352q-1.023,0-1.2,1.3a9.206,9.206,0,0,0-.055,1.141,3.616,3.616,0,0,0,.3,1.766A1.055,1.055,0,0,0,47.516,15.125Zm7.8-8.68v2.1h1.391v1.828H55.32v3.867a.987.987,0,0,0,.172.664.922.922,0,0,0,.68.188,3.862,3.862,0,0,0,.656-.047V16.93a4.859,4.859,0,0,1-1.484.227,2.758,2.758,0,0,1-2.008-.641,2.626,2.626,0,0,1-.648-1.945v-4.2H51.609V8.547h1.078v-2.1ZM57.18,12.7a4.989,4.989,0,0,1,.492-2.254,3.52,3.52,0,0,1,1.414-1.52,4.259,4.259,0,0,1,2.164-.531,3.887,3.887,0,0,1,2.992,1.176,4.512,4.512,0,0,1,1.094,3.2v.094A4.378,4.378,0,0,1,64.238,16a3.9,3.9,0,0,1-2.973,1.16,3.942,3.942,0,0,1-2.9-1.082,4.232,4.232,0,0,1-1.18-2.934Zm2.633.164a3.145,3.145,0,0,0,.367,1.719,1.223,1.223,0,0,0,1.086.547q1.406,0,1.438-2.164V12.7q0-2.273-1.453-2.273-1.32,0-1.43,1.961Z" transform="translate(889 10344.756)" fill="#12263f"/>
    <g id="Trazado_213528" data-name="Trazado 213528" transform="translate(1018 10333.756)" fill="#75b62f">
      <path d="M 105.5 10.5 L 0.5 10.5 L 0.5 0.5 L 105.5 0.5 L 105.5 10.5 Z" stroke="none"/>
      <path d="M 1 1 L 1 10 L 105 10 L 105 1 L 1 1 M 0 0 L 106 0 L 106 11 L 0 11 L 0 0 Z" stroke="none" fill="#35b816"/>
    </g>
    <g id="Trazado_213529" data-name="Trazado 213529" transform="translate(1143 10333.756)" fill="#75b62f">
      <path d="M 105.5 10.5 L 0.5 10.5 L 0.5 0.5 L 105.5 0.5 L 105.5 10.5 Z" stroke="none"/>
      <path d="M 1 1 L 1 10 L 105 10 L 105 1 L 1 1 M 0 0 L 106 0 L 106 11 L 0 11 L 0 0 Z" stroke="none" fill="#35b816"/>
    </g>
    <g id="Trazado_213530" data-name="Trazado 213530" transform="translate(1078 10350.756)" fill="#75b62f">
      <path d="M 105.5 10.5 L 0.5 10.5 L 0.5 0.5 L 105.5 0.5 L 105.5 10.5 Z" stroke="none"/>
      <path d="M 1 1 L 1 10 L 105 10 L 105 1 L 1 1 M 0 0 L 106 0 L 106 11 L 0 11 L 0 0 Z" stroke="none" fill="#35b816"/>
    </g>
    <g id="Trazado_213531" data-name="Trazado 213531" transform="translate(994 10389.756)" fill="#75b62f">
      <path d="M 105.5 10.5 L 0.5 10.5 L 0.5 0.5 L 105.5 0.5 L 105.5 10.5 Z" stroke="none"/>
      <path d="M 1 1 L 1 10 L 105 10 L 105 1 L 1 1 M 0 0 L 106 0 L 106 11 L 0 11 L 0 0 Z" stroke="none" fill="#35b816"/>
    </g>
    <g id="Trazado_213532" data-name="Trazado 213532" transform="translate(1045 10406.756)" fill="#75b62f">
      <path d="M 105.5 10.5 L 0.5 10.5 L 0.5 0.5 L 105.5 0.5 L 105.5 10.5 Z" stroke="none"/>
      <path d="M 1 1 L 1 10 L 105 10 L 105 1 L 1 1 M 0 0 L 106 0 L 106 11 L 0 11 L 0 0 Z" stroke="none" fill="#35b816"/>
    </g>
    <g id="Trazado_213533" data-name="Trazado 213533" transform="translate(1167 10406.756)" fill="#75b62f">
      <path d="M 105.5 10.5 L 0.5 10.5 L 0.5 0.5 L 105.5 0.5 L 105.5 10.5 Z" stroke="none"/>
      <path d="M 1 1 L 1 10 L 105 10 L 105 1 L 1 1 M 0 0 L 106 0 L 106 11 L 0 11 L 0 0 Z" stroke="none" fill="#35b816"/>
    </g>
    <g id="Trazado_213534" data-name="Trazado 213534" transform="translate(1098 10423.756)" fill="#75b62f">
      <path d="M 105.5 10.5 L 0.5 10.5 L 0.5 0.5 L 105.5 0.5 L 105.5 10.5 Z" stroke="none"/>
      <path d="M 1 1 L 1 10 L 105 10 L 105 1 L 1 1 M 0 0 L 106 0 L 106 11 L 0 11 L 0 0 Z" stroke="none" fill="#35b816"/>
    </g>
    <g id="Trazado_213535" data-name="Trazado 213535" transform="translate(1100 10284.756) rotate(45)" fill="#dce736">
      <path d="M 11.5 11.5 L 0.5 11.5 L 0.5 0.5 L 11.5 0.5 L 11.5 11.5 Z" stroke="none"/>
      <path d="M 1 1 L 1 11 L 11 11 L 11 1 L 1 1 M 0 0 L 12 0 L 12 12 L 0 12 L 0 0 Z" stroke="none" fill="#707070"/>
    </g>
    <g id="Trazado_213536" data-name="Trazado 213536" transform="translate(1232 10284.756) rotate(45)" fill="#dce736">
      <path d="M 11.5 11.5 L 0.5 11.5 L 0.5 0.5 L 11.5 0.5 L 11.5 11.5 Z" stroke="none"/>
      <path d="M 1 1 L 1 11 L 11 11 L 11 1 L 1 1 M 0 0 L 12 0 L 12 12 L 0 12 L 0 0 Z" stroke="none" fill="#707070"/>
    </g>
    <path id="Trazado_213537" data-name="Trazado 213537" d="M0,0V40.091" transform="translate(1067.623 10389.756) rotate(180)" fill="none" stroke="#3e4bbf" stroke-width="2"/>
    <path id="Trazado_158597" data-name="Trazado 158597" d="M660.97,131.96h6.754l-3.377,4.021Z" transform="translate(1731.97 10481.625) rotate(180)" fill="#3d46c2"/>
    <path id="Trazado_213538" data-name="Trazado 213538" d="M0,0V40.252" transform="translate(1137.11 10406.756) rotate(180)" fill="none" stroke="#3e4bbf" stroke-width="2"/>
    <path id="Trazado_158597-2" data-name="Trazado 158597" d="M660.97,131.96h7.975l-3.987,4.748Z" transform="translate(1802.067 10498.464) rotate(180)" fill="#3d46c2"/>
    <path id="Trazado_213539" data-name="Trazado 213539" d="M0,0V56.738" transform="translate(1232 10406.242) rotate(180)" fill="none" stroke="#3e4bbf" stroke-width="2"/>
    <path id="Trazado_158597-3" data-name="Trazado 158597" d="M660.97,131.96h7.975l-3.987,4.748Z" transform="translate(1896.957 10481.464) rotate(180)" fill="#3d46c2"/>
    <path id="Trazado_213540" data-name="Trazado 213540" d="M0,0V23.281" transform="translate(1232 10334.785) rotate(180)" fill="none" stroke="#3e4bbf" stroke-width="2"/>
    <path id="Trazado_158597-4" data-name="Trazado 158597" d="M660.97,131.96h7.975l-3.987,4.748Z" transform="translate(1896.957 10443.464) rotate(180)" fill="#3d46c2"/>
    <path id="Trazado_213541" data-name="Trazado 213541" d="M0,0V23.281" transform="translate(1100 10334.785) rotate(180)" fill="none" stroke="#3e4bbf" stroke-width="2"/>
    <path id="Trazado_158597-5" data-name="Trazado 158597" d="M660.97,131.96h7.975l-3.987,4.748Z" transform="translate(1764.958 10443.464) rotate(180)" fill="#3d46c2"/>
    <path id="Trazado_210642" data-name="Trazado 210642" d="M-4777.438-1090.479v36.491h67.607v11.4l23.788-29.649-23.788-26.228v7.983Z" transform="translate(6005.451 11330.448)" fill="#dce736" stroke="#707070" stroke-width="1"/>
    <path id="Trazado_213542" data-name="Trazado 213542" d="M11.013,8.585H7.172V19H4.087V8.585H.316V6.2h10.7ZM15.3,19H12.331V9.49H15.3ZM12.155,7.038A1.322,1.322,0,0,1,12.612,6,1.724,1.724,0,0,1,13.8,5.6a1.724,1.724,0,0,1,1.187.4,1.322,1.322,0,0,1,.457,1.037,1.322,1.322,0,0,1-.457,1.037,1.724,1.724,0,0,1-1.187.4,1.724,1.724,0,0,1-1.187-.4A1.322,1.322,0,0,1,12.155,7.038Zm9.571,12.138a4.889,4.889,0,0,1-3.542-1.305,4.507,4.507,0,0,1-1.354-3.4v-.246a5.84,5.84,0,0,1,.541-2.575,3.955,3.955,0,0,1,1.578-1.727,4.763,4.763,0,0,1,2.461-.611,4.117,4.117,0,0,1,3.164,1.244,4.887,4.887,0,0,1,1.16,3.467v1.151H19.846a2.135,2.135,0,0,0,.694,1.257,2.066,2.066,0,0,0,1.389.457,2.662,2.662,0,0,0,2.2-.984l1.354,1.6a3.784,3.784,0,0,1-1.569,1.217A5.3,5.3,0,0,1,21.727,19.176ZM21.393,11.6q-1.3,0-1.547,1.723h2.988v-.229a1.467,1.467,0,0,0-.36-1.1A1.434,1.434,0,0,0,21.393,11.6ZM29.725,9.49l.1,1.116a3.27,3.27,0,0,1,2.716-1.292,2.407,2.407,0,0,1,2.435,1.433,3.165,3.165,0,0,1,2.795-1.433q2.892,0,2.971,3.5V19H37.767V13a1.813,1.813,0,0,0-.246-1.063,1.048,1.048,0,0,0-.9-.334,1.4,1.4,0,0,0-1.31.782l.009.123V19H32.353V13.015a1.906,1.906,0,0,0-.237-1.081,1.045,1.045,0,0,0-.905-.334,1.42,1.42,0,0,0-1.3.782V19H26.947V9.49Zm21.533,4.825a5.735,5.735,0,0,1-1,3.538,3.2,3.2,0,0,1-2.694,1.323,2.742,2.742,0,0,1-2.153-.958v4.438H42.451V9.49H45.22l.088.879a2.742,2.742,0,0,1,2.241-1.055,3.224,3.224,0,0,1,2.733,1.3,5.805,5.805,0,0,1,.976,3.564ZM48.3,14.131q0-2.531-1.477-2.531a1.394,1.394,0,0,0-1.406.756V16.1a1.439,1.439,0,0,0,1.424.791q1.415,0,1.459-2.443Zm3.894.026a5.613,5.613,0,0,1,.554-2.536,3.96,3.96,0,0,1,1.591-1.709,4.791,4.791,0,0,1,2.435-.6,4.373,4.373,0,0,1,3.366,1.323,5.076,5.076,0,0,1,1.23,3.6v.105a4.925,4.925,0,0,1-1.235,3.529,4.384,4.384,0,0,1-3.344,1.305,4.434,4.434,0,0,1-3.261-1.217,4.761,4.761,0,0,1-1.327-3.3Zm2.962.185a3.538,3.538,0,0,0,.413,1.934,1.376,1.376,0,0,0,1.222.615q1.582,0,1.617-2.435v-.3q0-2.558-1.635-2.558-1.485,0-1.608,2.206Z" transform="translate(1237 10244.756)" fill="#12263f"/>
  </g>
</svg>
