<svg xmlns="http://www.w3.org/2000/svg" xmlns:xlink="http://www.w3.org/1999/xlink" width="440" height="118.373" viewBox="0 0 440 118.373">
  <defs>
    <linearGradient id="linear-gradient" x1="0.5" x2="0.5" y2="1" gradientUnits="objectBoundingBox">
      <stop offset="0" stop-color="#12ad11"/>
      <stop offset="0.106" stop-color="#21b213"/>
      <stop offset="0.525" stop-color="#5bc51c"/>
      <stop offset="0.835" stop-color="#7fd121"/>
      <stop offset="1" stop-color="#8dd624"/>
    </linearGradient>
    <linearGradient id="linear-gradient-2" x1="0.5" x2="0.5" y2="1" gradientUnits="objectBoundingBox">
      <stop offset="0" stop-color="#3d46c2"/>
      <stop offset="0.223" stop-color="#2b49c1"/>
      <stop offset="0.55" stop-color="#553fec"/>
      <stop offset="0.82" stop-color="#0c417d"/>
      <stop offset="1" stop-color="#4369e4"/>
    </linearGradient>
  </defs>
  <g id="Grupo_158131" data-name="Grupo 158131" transform="translate(9369 -296.448)">
    <g id="Grupo_157991" data-name="Grupo 157991" transform="translate(-9600.766 -920.112)">
      <path id="Trazado_206480" data-name="Trazado 206480" d="M845.182,1284.638a2.486,2.486,0,0,1,1.374.7v0a2.488,2.488,0,0,1,0,3.523h0a2.494,2.494,0,0,1-3.527-3.527h0a2.483,2.483,0,0,1,1.374-.7v-1.389a.415.415,0,0,1,.015-.109.388.388,0,0,1,.76.109v1.389Zm-.775-5.262a.388.388,0,0,0,.76.109.415.415,0,0,0,.015-.109v-1.549a.388.388,0,0,0-.76-.108.418.418,0,0,0-.015.108v1.549Zm0-5.423a.388.388,0,0,0,.76.108.414.414,0,0,0,.015-.108V1272.4a.388.388,0,0,0-.76-.108.415.415,0,0,0-.015.108v1.549Zm0-5.422a.388.388,0,0,0,.76.108.418.418,0,0,0,.015-.108v-1.549a.388.388,0,0,0-.76-.108.418.418,0,0,0-.015.108v1.549Zm0-5.423a.388.388,0,0,0,.76.108.414.414,0,0,0,.015-.108v-1.549a.388.388,0,0,0-.76-.108.415.415,0,0,0-.015.108v1.549Zm0-5.422a.388.388,0,0,0,.76.108.418.418,0,0,0,.015-.108v-1.549a.388.388,0,0,0-.76-.109.416.416,0,0,0-.015.109v1.549Zm0-5.423a.388.388,0,0,0,.76.108.414.414,0,0,0,.015-.108v-1.549a.388.388,0,0,0-.76-.108.414.414,0,0,0-.015.108v1.549Zm0-5.422a.388.388,0,0,0,.76.108.418.418,0,0,0,.015-.108v-1.549a.388.388,0,0,0-.76-.109.415.415,0,0,0-.015.109v1.549Zm0-5.423a.388.388,0,0,0,.76.109.415.415,0,0,0,.015-.109v-1.549a.388.388,0,0,0-.76-.108.409.409,0,0,0-.015.108v1.549Zm-.551-4.1a.388.388,0,0,0,.108-.759.394.394,0,0,0-.108-.015h-1.549a.387.387,0,1,0,0,.774Zm-5.423,0a.387.387,0,1,0,0-.774h-1.549a.388.388,0,0,0-.108.759.382.382,0,0,0,.108.015Zm-5.422,0a.387.387,0,0,0,0-.774h-1.549a.387.387,0,1,0,0,.774Zm13,48.563a1.722,1.722,0,1,0,.5,1.217A1.717,1.717,0,0,0,846.01,1285.885Z" transform="translate(-198.185 -6.609)" fill="#3a525e" fill-rule="evenodd"/>
      <path id="Trazado_206481" data-name="Trazado 206481" d="M260.782,1284.638a2.485,2.485,0,0,0-1.375.7v0a2.49,2.49,0,0,0,0,3.523h0a2.494,2.494,0,0,0,3.527-3.527h0a2.485,2.485,0,0,0-1.375-.7v-1.389a.387.387,0,1,0-.774,0v1.389Zm.774-5.262a.388.388,0,0,1-.759.109.417.417,0,0,1-.015-.109v-1.549a.388.388,0,0,1,.759-.108.392.392,0,0,1,.015.108v1.549Zm0-5.423a.388.388,0,0,1-.759.108.416.416,0,0,1-.015-.108V1272.4a.387.387,0,1,1,.774,0v1.549Zm0-5.422a.388.388,0,0,1-.759.108.419.419,0,0,1-.015-.108v-1.549a.388.388,0,0,1,.759-.108.392.392,0,0,1,.015.108v1.549Zm0-5.423a.388.388,0,0,1-.759.108.416.416,0,0,1-.015-.108v-1.549a.387.387,0,1,1,.774,0v1.549Zm0-5.422a.388.388,0,0,1-.759.108.419.419,0,0,1-.015-.108v-1.549a.387.387,0,1,1,.774,0v1.549Zm0-5.423a.388.388,0,0,1-.759.108.416.416,0,0,1-.015-.108v-1.549a.387.387,0,1,1,.774,0v1.549Zm0-5.422a.388.388,0,0,1-.759.108.419.419,0,0,1-.015-.108v-1.549a.387.387,0,1,1,.774,0v1.549Zm0-5.423a.388.388,0,0,1-.759.109.416.416,0,0,1-.015-.109v-1.549a.387.387,0,0,1,.774,0v1.549Zm.551-4.1a.387.387,0,1,1,0-.774h1.549a.387.387,0,1,1,0,.774Zm5.422,0a.388.388,0,0,1-.108-.759.394.394,0,0,1,.108-.015h1.549a.387.387,0,1,1,0,.774Zm5.423,0a.387.387,0,1,1,0-.774H274.5a.387.387,0,1,1,0,.774Zm5.422,0a.387.387,0,0,1,0-.774h1.549a.387.387,0,1,1,0,.774Zm-18.422,48.563a1.722,1.722,0,1,1-.5,1.217A1.719,1.719,0,0,1,259.953,1285.885Z" transform="translate(-8.899 -6.609)" fill="#3a525e" fill-rule="evenodd"/>
      <path id="Trazado_206482" data-name="Trazado 206482" d="M300.117,1216.96h5.948v25.7h13.4v5.37H300.117V1216.96Zm24.011,0H346.9v5.193H330.075v7.678h15.09v5.193h-15.09v7.811h17.353v5.193h-23.3V1216.96Zm52.328,31.068-2.752-6.569H358.525l-2.752,6.569H349.6l13.625-31.068H369.4l13.448,31.068Zm-15.8-11.673h10.918l-5.415-13.048-5.5,13.048Zm47.623-19.4h5.769v31.068h-5.636l-15.978-21.392v21.392h-5.814V1216.96h5.636l16.023,21.437V1216.96Zm20.815,0h25.343v5.282H444.76v25.786h-5.992v-25.786h-9.676v-5.282Zm29.56,0H464.6v13.271h15.49V1216.96h5.947v31.068h-5.947v-12.6H464.6v12.6h-5.947V1216.96Zm35.062,0h5.948v31.068h-5.948V1216.96Zm35.24,0h5.769v31.068h-5.636l-15.978-21.392v21.392H507.3V1216.96h5.637l16.022,21.437V1216.96Zm41.143,31.068h-7.146l-9.764-13.315-4.883,5.37v7.945h-5.947V1216.96H548.3v15.49l14.025-15.49h7.012L557.4,1230.1l12.694,17.931Zm4.483-31.068h5.947v31.068H574.58V1216.96Zm35.239,0h5.77v31.068h-5.637l-15.978-21.392v21.392h-5.814V1216.96H593.8l16.022,21.437V1216.96Zm34.486,15.623H649.5v11.805a20.742,20.742,0,0,1-5.77,2.952,20.2,20.2,0,0,1-6.524,1.132,16.551,16.551,0,0,1-8.322-2.13,15.908,15.908,0,0,1-5.925-5.792,15.568,15.568,0,0,1-2.175-8.1,15.1,15.1,0,0,1,2.219-8.056,16,16,0,0,1,6.058-5.725,17.363,17.363,0,0,1,8.5-2.108,18.8,18.8,0,0,1,6.569,1.2,17.455,17.455,0,0,1,5.592,3.284l-3.373,4.394a12.812,12.812,0,0,0-4.1-2.619,12.526,12.526,0,0,0-4.682-.932,10.733,10.733,0,0,0-5.393,1.4,10.282,10.282,0,0,0-3.883,3.839,10.706,10.706,0,0,0,.022,10.7,10.677,10.677,0,0,0,3.883,3.861,10.57,10.57,0,0,0,5.415,1.42,11.994,11.994,0,0,0,3.351-.51,14.917,14.917,0,0,0,3.351-1.442Z" transform="translate(-22.603)" fill="#75b62f" fill-rule="evenodd"/>
      <path id="Trazado_206483" data-name="Trazado 206483" d="M248.381,1384.164l-2.474,6.126h-1.029l-2.474-6.126h.915a.383.383,0,0,1,.242.072.44.44,0,0,1,.14.187l1.444,3.736c.048.122.1.254.139.4s.085.3.124.456c.033-.158.07-.311.11-.456a3.782,3.782,0,0,1,.132-.4l1.436-3.736a.4.4,0,0,1,.135-.178.373.373,0,0,1,.243-.08Zm3.385,3.813-.746-2.037c-.037-.09-.075-.2-.114-.322s-.079-.259-.118-.4q-.055.216-.114.4c-.04.125-.078.235-.114.328l-.742,2.029Zm2.012,2.313-2.406-6.126h-1.161l-2.411,6.126h.89a.367.367,0,0,0,.242-.08.408.408,0,0,0,.131-.178l.458-1.25h2.537l.458,1.25a.455.455,0,0,0,.14.183.376.376,0,0,0,.242.075Zm4.224-.94v.94h-3.588v-6.126h1.139v5.185Zm3.11.021a1.507,1.507,0,0,0,.592-.11,1.214,1.214,0,0,0,.438-.309,1.369,1.369,0,0,0,.274-.483,1.985,1.985,0,0,0,.1-.635v-3.669h1.139v3.669a2.831,2.831,0,0,1-.175,1.01,2.246,2.246,0,0,1-1.3,1.326,3.078,3.078,0,0,1-2.122,0,2.246,2.246,0,0,1-1.3-1.326,2.831,2.831,0,0,1-.177-1.01v-3.669h1.14v3.665a1.988,1.988,0,0,0,.1.635,1.367,1.367,0,0,0,.276.484,1.22,1.22,0,0,0,.44.312,1.5,1.5,0,0,0,.59.11Zm4.97-4.3v1.7h2.143v.877h-2.143v1.733H268.8v.911h-3.863v-6.126H268.8v.906Z" transform="translate(-3.518 -55.425)" fill="#12263f" fill-rule="evenodd"/>
      <path id="Trazado_206484" data-name="Trazado 206484" d="M368.779,1384.13l-2.474,6.126h-1.029l-2.474-6.126h.915a.383.383,0,0,1,.242.072.44.44,0,0,1,.14.187l1.444,3.736c.048.122.1.254.139.4s.085.3.124.456c.033-.158.07-.311.11-.456a3.947,3.947,0,0,1,.131-.4l1.436-3.736a.405.405,0,0,1,.135-.178.372.372,0,0,1,.243-.08Zm3.385,3.812-.746-2.037c-.036-.09-.074-.2-.114-.322s-.079-.259-.119-.4c-.036.144-.075.279-.114.4s-.078.236-.114.329l-.742,2.029Zm2.013,2.313-2.406-6.126h-1.161l-2.411,6.126h.89a.367.367,0,0,0,.242-.08.407.407,0,0,0,.131-.178l.458-1.25h2.537l.458,1.25a.455.455,0,0,0,.14.183.375.375,0,0,0,.241.075Zm4.224-.94v.94h-3.588v-6.126h1.139v5.185Zm3.11.021a1.507,1.507,0,0,0,.592-.11,1.214,1.214,0,0,0,.438-.309,1.371,1.371,0,0,0,.274-.483,1.985,1.985,0,0,0,.1-.635v-3.669h1.139v3.669a2.831,2.831,0,0,1-.175,1.01,2.246,2.246,0,0,1-1.3,1.326,3.078,3.078,0,0,1-2.122,0,2.245,2.245,0,0,1-1.3-1.326,2.832,2.832,0,0,1-.177-1.01v-3.669h1.14v3.665a1.987,1.987,0,0,0,.1.635,1.375,1.375,0,0,0,.275.485,1.23,1.23,0,0,0,.441.312,1.5,1.5,0,0,0,.59.11Zm4.969-4.3v1.7h2.144v.877h-2.144v1.733h2.72v.911h-3.864v-6.126H389.2v.906Zm9.05.208a.39.39,0,0,1-.108.129.243.243,0,0,1-.143.041.364.364,0,0,1-.192-.066c-.069-.044-.153-.092-.248-.145a2.084,2.084,0,0,0-.336-.147,1.428,1.428,0,0,0-.456-.065,1.356,1.356,0,0,0-.415.057.872.872,0,0,0-.3.159.63.63,0,0,0-.181.243.807.807,0,0,0-.06.312.538.538,0,0,0,.122.36,1.007,1.007,0,0,0,.319.246,3.043,3.043,0,0,0,.454.182c.169.054.343.11.521.171a4.9,4.9,0,0,1,.521.212,1.8,1.8,0,0,1,.453.3,1.4,1.4,0,0,1,.321.452,1.572,1.572,0,0,1,.12.649,2.1,2.1,0,0,1-.141.776,1.789,1.789,0,0,1-.415.631,1.96,1.96,0,0,1-.668.424,2.457,2.457,0,0,1-.9.155,2.917,2.917,0,0,1-.576-.058,2.981,2.981,0,0,1-.543-.163,2.929,2.929,0,0,1-.491-.254,2.4,2.4,0,0,1-.406-.331l.335-.547a.359.359,0,0,1,.11-.1.275.275,0,0,1,.145-.04.4.4,0,0,1,.228.086c.082.058.179.123.293.193a2.267,2.267,0,0,0,.4.192,1.515,1.515,0,0,0,.544.088,1.117,1.117,0,0,0,.754-.232.827.827,0,0,0,.267-.663.612.612,0,0,0-.12-.394.971.971,0,0,0-.32-.257,2.381,2.381,0,0,0-.454-.175q-.254-.072-.517-.157a4.5,4.5,0,0,1-.517-.2,1.668,1.668,0,0,1-.453-.309,1.4,1.4,0,0,1-.319-.477,1.8,1.8,0,0,1-.122-.7,1.7,1.7,0,0,1,.521-1.215,1.885,1.885,0,0,1,.627-.394,2.294,2.294,0,0,1,.855-.149,2.872,2.872,0,0,1,1,.169,2.269,2.269,0,0,1,.78.475l-.284.538Zm5.664-.178h-1.847v5.19h-1.14v-5.19h-1.847v-.936h4.834v.936Zm2.656,1.978a1.769,1.769,0,0,0,.562-.08,1.088,1.088,0,0,0,.394-.223.9.9,0,0,0,.23-.336,1.168,1.168,0,0,0,.076-.428.872.872,0,0,0-.306-.716,1.477,1.477,0,0,0-.94-.25h-.728v2.033Zm2.932,3.211h-1.029a.452.452,0,0,1-.424-.229l-1.288-1.961a.448.448,0,0,0-.158-.157.555.555,0,0,0-.257-.047h-.487v2.394H402v-6.126h1.868a3.886,3.886,0,0,1,1.071.129,2.043,2.043,0,0,1,.733.363,1.411,1.411,0,0,1,.421.556,1.947,1.947,0,0,1,.045,1.3,1.716,1.716,0,0,1-.262.5,1.769,1.769,0,0,1-.424.394,2.119,2.119,0,0,1-.575.266,1.152,1.152,0,0,1,.2.15,1.08,1.08,0,0,1,.169.206l1.533,2.262Zm1.809-5.219v1.7h2.144v.877h-2.144v1.733h2.72v.911h-3.864v-6.126h3.864v.906Zm6.965,2.906-.746-2.037c-.037-.09-.075-.2-.114-.322s-.079-.259-.118-.4q-.055.216-.114.4c-.039.125-.078.236-.114.329l-.742,2.029Zm2.012,2.313h-.881a.376.376,0,0,1-.242-.075.461.461,0,0,1-.14-.183l-.457-1.25h-2.538l-.457,1.25a.409.409,0,0,1-.132.178.367.367,0,0,1-.241.08h-.89L414,1384.13h1.161l2.406,6.126Zm7.279-6.126v6.126h-1V1386.3c0-.158.008-.329.025-.513l-1.851,3.479a.429.429,0,0,1-.4.25h-.161a.427.427,0,0,1-.4-.25l-1.873-3.491c.008.094.015.185.021.276s.009.173.009.25v3.957h-1v-6.126h.86c.051,0,.094,0,.131,0a.379.379,0,0,1,.1.021.221.221,0,0,1,.08.056.461.461,0,0,1,.07.1l1.834,3.4c.048.09.094.184.135.28s.08.195.12.3c.039-.1.08-.206.123-.3s.087-.191.135-.281l1.809-3.393a.441.441,0,0,1,.072-.1.251.251,0,0,1,.084-.056.369.369,0,0,1,.1-.021c.037,0,.08,0,.131,0Z" transform="translate(-43.332 -55.391)" fill="#12263f" fill-rule="evenodd"/>
      <path id="Trazado_206485" data-name="Trazado 206485" d="M815.977,1387.21a1.715,1.715,0,0,0,.547-.079,1.042,1.042,0,0,0,.388-.224.911.911,0,0,0,.23-.356,1.36,1.36,0,0,0,.076-.468,1.236,1.236,0,0,0-.076-.445.886.886,0,0,0-.229-.339,1.021,1.021,0,0,0-.385-.214,1.819,1.819,0,0,0-.551-.074h-.851v2.2Zm0-3.08a3.484,3.484,0,0,1,1.063.144,2.045,2.045,0,0,1,.742.4,1.6,1.6,0,0,1,.435.618,2.136,2.136,0,0,1,.141.788,2.169,2.169,0,0,1-.149.815,1.689,1.689,0,0,1-.445.638,2.066,2.066,0,0,1-.742.416,3.323,3.323,0,0,1-1.045.148h-.851v2.156h-1.14v-6.126Zm4.4.906v1.7h2.144v.877h-2.144v1.733h2.72v.911h-3.864v-6.126h3.864v.906Zm5.58,2.008a1.765,1.765,0,0,0,.562-.08,1.084,1.084,0,0,0,.394-.223.893.893,0,0,0,.23-.336,1.17,1.17,0,0,0,.076-.428.87.87,0,0,0-.307-.716,1.475,1.475,0,0,0-.939-.25h-.729v2.033Zm2.932,3.211h-1.029a.45.45,0,0,1-.424-.229l-1.288-1.961a.437.437,0,0,0-.158-.157.551.551,0,0,0-.257-.047h-.487v2.394H824.1v-6.126h1.868a3.884,3.884,0,0,1,1.07.129,2.043,2.043,0,0,1,.733.363,1.41,1.41,0,0,1,.421.556,1.946,1.946,0,0,1,.045,1.3,1.681,1.681,0,0,1-.262.5,1.77,1.77,0,0,1-.424.394,2.12,2.12,0,0,1-.575.266,1.153,1.153,0,0,1,.2.15,1.076,1.076,0,0,1,.169.206l1.534,2.262Zm1.808-5.219v1.813h2.3v.911h-2.3v2.5h-1.144v-6.126h3.864v.906Zm4.8,0v1.7h2.143v.877h-2.143v1.733h2.719v.911h-3.863v-6.126h3.863v.906Zm7.8,3.775a.23.23,0,0,1,.165.072l.448.487a2.458,2.458,0,0,1-.916.708,3.162,3.162,0,0,1-1.308.246,3.084,3.084,0,0,1-1.225-.233,2.71,2.71,0,0,1-.93-.648,2.833,2.833,0,0,1-.59-.991,3.718,3.718,0,0,1-.206-1.258,3.5,3.5,0,0,1,.22-1.266,2.907,2.907,0,0,1,.621-.989,2.82,2.82,0,0,1,.954-.646,3.173,3.173,0,0,1,1.229-.23,3.03,3.03,0,0,1,1.189.22,2.845,2.845,0,0,1,.882.576l-.381.529a.331.331,0,0,1-.086.089.25.25,0,0,1-.147.038.288.288,0,0,1-.131-.036c-.045-.024-.094-.054-.148-.089s-.116-.073-.187-.116a1.564,1.564,0,0,0-.246-.117,2,2,0,0,0-.323-.088,2.25,2.25,0,0,0-.426-.036,1.9,1.9,0,0,0-.752.145,1.636,1.636,0,0,0-.587.424,1.946,1.946,0,0,0-.381.678,2.842,2.842,0,0,0-.136.914,2.672,2.672,0,0,0,.147.919,2.011,2.011,0,0,0,.4.678,1.693,1.693,0,0,0,.588.421,1.83,1.83,0,0,0,.729.147,3.125,3.125,0,0,0,.422-.025,1.776,1.776,0,0,0,.347-.08,1.573,1.573,0,0,0,.3-.143,1.853,1.853,0,0,0,.281-.214.423.423,0,0,1,.089-.062.215.215,0,0,1,.1-.022Zm5.676-3.745h-1.847v5.19h-1.14v-5.19h-1.847v-.936h4.834v.936Zm1.949,5.19h-1.144v-6.126h1.144v6.126Zm7.21-3.063a3.411,3.411,0,0,1-.222,1.247,2.939,2.939,0,0,1-.63.994,2.858,2.858,0,0,1-.979.654,3.536,3.536,0,0,1-2.538,0,2.876,2.876,0,0,1-.98-.654,2.937,2.937,0,0,1-.634-.994,3.573,3.573,0,0,1,0-2.5,2.935,2.935,0,0,1,.634-.993,2.887,2.887,0,0,1,.98-.655,3.3,3.3,0,0,1,1.267-.235,3.425,3.425,0,0,1,.877.108,3.079,3.079,0,0,1,.754.3,2.813,2.813,0,0,1,.617.479,2.925,2.925,0,0,1,.463.63,3.1,3.1,0,0,1,.291.754,3.591,3.591,0,0,1,.1.856Zm-1.165,0a2.822,2.822,0,0,0-.135-.906,1.943,1.943,0,0,0-.385-.679,1.66,1.66,0,0,0-.607-.428,2.276,2.276,0,0,0-1.614,0,1.679,1.679,0,0,0-.61.428,1.927,1.927,0,0,0-.389.679,3.093,3.093,0,0,0,0,1.809,1.9,1.9,0,0,0,.389.678,1.687,1.687,0,0,0,.61.426,2.265,2.265,0,0,0,1.614,0,1.668,1.668,0,0,0,.607-.426,1.917,1.917,0,0,0,.385-.678,2.809,2.809,0,0,0,.135-.9Zm7.334-3.063v6.126h-.584a.514.514,0,0,1-.226-.045.542.542,0,0,1-.177-.15l-3.2-4.084c.017.187.025.359.025.517v3.762h-1v-6.126h.6a1.1,1.1,0,0,1,.125.005.293.293,0,0,1,.094.025.3.3,0,0,1,.078.055.855.855,0,0,1,.084.1l3.211,4.1c-.008-.1-.015-.2-.021-.292s-.009-.185-.009-.267v-3.724Z" transform="translate(-192.533 -55.391)" fill="#12263f" fill-rule="evenodd"/>
      <path id="Trazado_206486" data-name="Trazado 206486" d="M692.1,1387.244a1.722,1.722,0,0,0,.547-.079,1.043,1.043,0,0,0,.388-.224.911.911,0,0,0,.23-.356,1.357,1.357,0,0,0,.076-.468,1.233,1.233,0,0,0-.076-.444.887.887,0,0,0-.229-.339,1.024,1.024,0,0,0-.386-.214,1.826,1.826,0,0,0-.551-.074h-.851v2.2Zm0-3.08a3.487,3.487,0,0,1,1.064.144,2.045,2.045,0,0,1,.741.4,1.586,1.586,0,0,1,.435.618,2.121,2.121,0,0,1,.141.788,2.18,2.18,0,0,1-.148.815,1.694,1.694,0,0,1-.445.638,2.066,2.066,0,0,1-.743.416,3.316,3.316,0,0,1-1.045.148h-.851v2.156H690.1v-6.126Zm5.719,5.207a1.5,1.5,0,0,0,.592-.11,1.207,1.207,0,0,0,.438-.309,1.368,1.368,0,0,0,.274-.483,1.984,1.984,0,0,0,.1-.635v-3.669h1.139v3.669a2.829,2.829,0,0,1-.175,1.01,2.241,2.241,0,0,1-1.3,1.326,3.078,3.078,0,0,1-2.122,0,2.245,2.245,0,0,1-1.3-1.326,2.831,2.831,0,0,1-.177-1.01v-3.669h1.14v3.665a1.989,1.989,0,0,0,.1.635,1.367,1.367,0,0,0,.276.484,1.221,1.221,0,0,0,.44.312,1.5,1.5,0,0,0,.59.11Zm7.414-.021v.94H701.64v-6.126h1.139v5.185Zm4.4,0v.94h-3.588v-6.126h1.14v5.185Z" transform="translate(-151.567 -55.425)" fill="#12263f" fill-rule="evenodd"/>
      <path id="Trazado_206487" data-name="Trazado 206487" d="M540.313,1385.036v1.813h2.3v.911h-2.3v2.5h-1.144v-6.126h3.863v.906Zm7.24,4.279v.94h-3.588v-6.126H545.1v5.185Zm6.439-2.122a3.428,3.428,0,0,1-.221,1.247,2.938,2.938,0,0,1-.63.994,2.857,2.857,0,0,1-.979.654,3.535,3.535,0,0,1-2.538,0,2.869,2.869,0,0,1-.98-.654,2.95,2.95,0,0,1-.635-.994,3.583,3.583,0,0,1,0-2.5,2.948,2.948,0,0,1,.635-.993,2.88,2.88,0,0,1,.98-.655,3.3,3.3,0,0,1,1.267-.235,3.425,3.425,0,0,1,.877.108,3.08,3.08,0,0,1,.754.3,2.843,2.843,0,0,1,.617.479,2.925,2.925,0,0,1,.463.63,3.1,3.1,0,0,1,.29.754,3.59,3.59,0,0,1,.1.856Zm-1.165,0a2.82,2.82,0,0,0-.135-.906,1.942,1.942,0,0,0-.385-.679,1.658,1.658,0,0,0-.607-.428,2.276,2.276,0,0,0-1.614,0,1.681,1.681,0,0,0-.61.428,1.926,1.926,0,0,0-.388.679,3.094,3.094,0,0,0,0,1.809,1.9,1.9,0,0,0,.388.678,1.69,1.69,0,0,0,.61.426,2.265,2.265,0,0,0,1.614,0,1.666,1.666,0,0,0,.607-.426,1.917,1.917,0,0,0,.385-.678,2.807,2.807,0,0,0,.135-.9Zm10.194-3.063-1.9,6.126h-1.029l-1.339-4.186a2.861,2.861,0,0,1-.1-.373c-.017.071-.033.137-.051.2s-.035.12-.055.173l-1.351,4.186h-1.034l-1.9-6.126h.953a.419.419,0,0,1,.248.069.337.337,0,0,1,.133.189l1.042,3.665c.023.09.045.187.066.294s.042.218.065.333c.023-.119.048-.23.075-.335s.055-.2.086-.292l1.2-3.665a.4.4,0,0,1,.135-.178.371.371,0,0,1,.242-.08h.335a.383.383,0,0,1,.241.072.439.439,0,0,1,.14.187l1.2,3.665a5.229,5.229,0,0,1,.161.606q.055-.334.122-.606l1.043-3.665a.315.315,0,0,1,.13-.183.4.4,0,0,1,.247-.076Z" transform="translate(-101.655 -55.391)" fill="#12263f" fill-rule="evenodd"/>
      <path id="Trazado_206488" data-name="Trazado 206488" d="M556.133,1299.359a2.485,2.485,0,0,1,1.383.7v0a2.49,2.49,0,0,1,0,3.523h0a2.494,2.494,0,0,1-3.527-3.527h0a2.49,2.49,0,0,1,1.385-.7.4.4,0,0,1-.01-.087v-1.55a.387.387,0,1,1,.774,0v1.55a.417.417,0,0,1-.009.088Zm-.766-17.9a.388.388,0,0,1,.759-.108.394.394,0,0,1,.015.108V1283a.387.387,0,1,1-.774,0v-1.549Zm0,5.423a.387.387,0,1,1,.774,0v1.549a.387.387,0,0,1-.774,0v-1.549Zm0,5.422a.388.388,0,0,1,.759-.108.394.394,0,0,1,.015.108v1.549a.387.387,0,1,1-.774,0V1292.3Zm1.6,8.308a1.722,1.722,0,1,0,.5,1.217A1.718,1.718,0,0,0,556.971,1300.608Z" transform="translate(-106.315 -21.332)" fill="#3a525e" fill-rule="evenodd"/>
      <path id="Trazado_206489" data-name="Trazado 206489" d="M702.669,1299.359a2.485,2.485,0,0,0-1.383.7v0a2.488,2.488,0,0,0,0,3.523h0a2.494,2.494,0,0,0,3.527-3.527h0a2.488,2.488,0,0,0-1.385-.7.358.358,0,0,0,.011-.087v-1.55a.388.388,0,0,0-.76-.108.415.415,0,0,0-.015.108v1.55a.417.417,0,0,0,.009.088Zm.766-12.482a.388.388,0,0,0-.76-.108.414.414,0,0,0-.015.108v1.549a.388.388,0,0,0,.76.108.419.419,0,0,0,.015-.108v-1.549Zm0-5.423a.388.388,0,0,0-.76-.108.418.418,0,0,0-.015.108V1283a.388.388,0,0,0,.76.108.42.42,0,0,0,.015-.108v-1.549Zm0,10.845a.388.388,0,0,0-.76-.108.419.419,0,0,0-.015.108v1.549a.388.388,0,0,0,.76.108.423.423,0,0,0,.015-.108V1292.3Zm-1.6,8.308a1.722,1.722,0,1,1-.5,1.217A1.718,1.718,0,0,1,701.831,1300.608Z" transform="translate(-155.022 -21.332)" fill="#3a525e" fill-rule="evenodd"/>
      <path id="Trazado_206490" data-name="Trazado 206490" d="M408.84,1299.359a2.485,2.485,0,0,1,1.383.7l0,0a2.49,2.49,0,0,1,0,3.523h0a2.494,2.494,0,1,1-3.527-3.527h0a2.49,2.49,0,0,1,1.385-.7.358.358,0,0,1-.011-.087v-1.55a.388.388,0,0,1,.76-.108.415.415,0,0,1,.015.108v1.55a.415.415,0,0,1-.009.088Zm-.766-12.482a.388.388,0,0,1,.76-.108.414.414,0,0,1,.015.108v1.549a.388.388,0,0,1-.76.108.415.415,0,0,1-.015-.108v-1.549Zm0-5.423a.388.388,0,0,1,.76-.108.418.418,0,0,1,.015.108V1283a.388.388,0,0,1-.76.108.416.416,0,0,1-.015-.108v-1.549Zm0,10.845a.388.388,0,0,1,.76-.108.419.419,0,0,1,.015.108v1.549a.388.388,0,0,1-.76.108.419.419,0,0,1-.015-.108V1292.3Zm1.6,8.308a1.722,1.722,0,1,0,.5,1.217A1.717,1.717,0,0,0,409.678,1300.608Z" transform="translate(-57.607 -21.332)" fill="#3a525e" fill-rule="evenodd"/>
      <g id="Grupo_154294" data-name="Grupo 154294" transform="translate(631.509 1287.866)">
        <path id="Trazado_206491" data-name="Trazado 206491" d="M838.129,1347.091H829.01l13.679,16.1-4.56-16.1Zm-2.865-7.221,3.4,5.45,4.148-5.45Zm8.847.416,4.2,5.519h-8.4l4.2-5.519Zm-6.655,5.519h-8.394l4.951-5.514,3.443,5.514Zm16.753-5.514-3.443,5.514h8.394l-4.951-5.514Zm-8.8-.421,4.148,5.45,3.4-5.45Zm13.8,7.221h-9.119l-4.559,16.1,13.679-16.1Zm-10.453,0-4.647,16.412-4.647-16.412Z" transform="translate(-829.01 -1328.643)" fill="#75b62f" fill-rule="evenodd"/>
        <path id="Trazado_206492" data-name="Trazado 206492" d="M851.612,1324.9a.642.642,0,0,1,1.136.6l-1.665,3.142a.642.642,0,0,1-1.136-.6l1.665-3.143Zm-17.764,4.533a.64.64,0,1,1,.794-1l2.614,2.068a.64.64,0,0,1-.794,1l-2.614-2.068Zm4.665-3.935a.642.642,0,1,1,1.135-.6l1.665,3.143a.642.642,0,1,1-1.135.6l-1.665-3.143Zm6.474-1.755a.643.643,0,1,1,1.286,0v3.465a.643.643,0,0,1-1.286,0v-3.465Zm11.632,4.685a.64.64,0,0,1,.794,1L854.8,1331.5a.64.64,0,0,1-.794-1Z" transform="translate(-830.529 -1323.096)" fill="#fb4a0f" fill-rule="evenodd"/>
      </g>
      <g id="Grupo_154295" data-name="Grupo 154295" transform="translate(533.499 1291.688)">
        <path id="Trazado_206493" data-name="Trazado 206493" d="M697.1,1328.807a14.456,14.456,0,0,0-7.91,2.341l1.568,1.568-.469,1.751.655.655a10.262,10.262,0,1,1-2.054,2.054l-.655-.655-1.751.469-1.567-1.567a14.526,14.526,0,1,0,12.183-6.615Zm-2.021,10.45a4.545,4.545,0,1,1-2.053,2.054l1.751,1.751a2.256,2.256,0,0,0-.015.271,2.332,2.332,0,0,0,.685,1.652h0a2.335,2.335,0,0,0,3.305,0h0a2.335,2.335,0,0,0,0-3.305l0,0a2.333,2.333,0,0,0-1.653-.686,2.392,2.392,0,0,0-.27.016l-1.751-1.751Zm-3.444-3.444a9.29,9.29,0,1,1-2.054,2.054l2.729,2.728a5.518,5.518,0,1,0,2.054-2.053Z" transform="translate(-682.577 -1328.807)" fill-rule="evenodd" fill="url(#linear-gradient)"/>
        <path id="Trazado_206494" data-name="Trazado 206494" d="M702.631,1348.861a1.377,1.377,0,1,1-.4.97A1.368,1.368,0,0,1,702.631,1348.861Z" transform="translate(-689.076 -1335.306)" fill="#fb4a0f" fill-rule="evenodd"/>
        <path id="Trazado_206495" data-name="Trazado 206495" d="M690.057,1333.382l-3.436-3.436-.614,2.29-2.29.614,3.436,3.436,1.751-.469,8.234,8.234a.484.484,0,0,0,.685-.685l-8.234-8.234Z" transform="translate(-682.954 -1329.184)" fill="#fb4a0f" fill-rule="evenodd"/>
      </g>
      <g id="Grupo_154296" data-name="Grupo 154296" transform="translate(432.858 1290.391)">
        <path id="Trazado_206496" data-name="Trazado 206496" d="M563.079,1332.739a32.371,32.371,0,0,1-3.171,7.1,33.609,33.609,0,0,1-10.671,11v-4.247a30.348,30.348,0,0,0,3.153-2.749,29.989,29.989,0,0,0,4.531-5.786,28.883,28.883,0,0,0,2.818-6.3l-2.3-.681,5.558-4.2,2.376,6.549-2.3-.679Zm-22.452,21.983a30.993,30.993,0,0,1-8.415,1.189v-3.477a27.559,27.559,0,0,0,8.415-1.349Z" transform="translate(-532.212 -1326.869)" fill="#dce736" fill-rule="evenodd"/>
        <path id="Trazado_206497" data-name="Trazado 206497" d="M549.612,1344.695v16.132H546.76v-8.3a.484.484,0,1,0-.968,0v8.3h-2.853v-16.132l-6.435-8.862a1.21,1.21,0,0,1,.274-1.691,1.213,1.213,0,0,1,1.76.223l5.143,7.156h5.185l5.149-7.156a1.213,1.213,0,0,1,1.689-.274,1.19,1.19,0,0,1,.559.839,1.167,1.167,0,0,1-.214.9l-6.435,8.862Zm-3.337-10.027a2.626,2.626,0,1,0,2.626,2.626A2.626,2.626,0,0,0,546.275,1334.668Z" transform="translate(-533.555 -1329.182)" fill-rule="evenodd" fill="url(#linear-gradient-2)"/>
      </g>
      <g id="Grupo_154298" data-name="Grupo 154298" transform="translate(231.765 1287.698)">
        <path id="Trazado_206498" data-name="Trazado 206498" d="M274.587,1340.086v21.6h-3.3v-9.41a.484.484,0,1,0-.969,0v9.41h-3.3v-21.6l-8.289,4.47-1.675-2.326,8.455-5.891a2.644,2.644,0,0,1,1.573-.506h8.012c1.307,0,1.991,1.128,2.377,2.377l3.293,9.486-2.205.774Z" transform="translate(-240.127 -1327.14)" fill="#3d46c2" fill-rule="evenodd"/>
        <circle id="Elipse_12958" data-name="Elipse 12958" cx="3.224" cy="3.224" r="3.224" transform="translate(26.797 1.476) rotate(-13.235)" fill="#3d46c2"/>
        <g id="Grupo_154297" data-name="Grupo 154297" transform="translate(0 8.981)">
          <rect id="Rectángulo_296158" data-name="Rectángulo 296158" width="11.408" height="2.126" rx="1.063" transform="translate(3.736 5.376)" fill="#75b62f"/>
          <path id="Trazado_206499" data-name="Trazado 206499" d="M246.086,1340.685l1.641-4.018a.232.232,0,0,0-.359-.27l-3.753,2.986-1.963-2.884a.542.542,0,0,0-.9,0l-1.96,2.859-3.756-2.966a.233.233,0,0,0-.359.27l1.644,4.024a2.023,2.023,0,0,1,.24-.014h9.283a2.012,2.012,0,0,1,.239.014Zm-2.8,8.216a.483.483,0,0,1-.341.9,7.879,7.879,0,0,0-.973-.3c-.08-.019-.159-.036-.238-.051v2.356a2.975,2.975,0,0,1,2.106,1.835,1.908,1.908,0,0,1,.055.482,1.875,1.875,0,0,1-.446,1.191,2.292,2.292,0,0,1-1.23.732,3.269,3.269,0,0,1-.484.079v.781a.484.484,0,0,1-.969,0v-.811a5.462,5.462,0,0,1-.918-.2,5.22,5.22,0,0,1-1.369-.657.482.482,0,1,1,.541-.8,4.286,4.286,0,0,0,1.116.531,4.548,4.548,0,0,0,.631.151V1352.5c-.07-.022-.141-.046-.213-.067a2.642,2.642,0,0,1-1.687-1.26,1.607,1.607,0,0,1-.132-1.009,1.937,1.937,0,0,1,.427-.877,2.488,2.488,0,0,1,1.6-.848v-.784a.484.484,0,1,1,.969,0v.819c.153.023.307.053.457.089a8.977,8.977,0,0,1,1.1.341Zm-2.521.509a1.5,1.5,0,0,0-.863.494.97.97,0,0,0-.22.434.659.659,0,0,0,.053.414,1.674,1.674,0,0,0,1.029.73v-2.072Zm2.136,4.462c-.114-.461-.608-.784-1.167-1.026v2.308a2.041,2.041,0,0,0,.253-.046,1.34,1.34,0,0,0,.724-.414.918.918,0,0,0,.22-.582.934.934,0,0,0-.029-.24Zm3.419-9.2a2.01,2.01,0,0,1-.478.057h-9.283a2.015,2.015,0,0,1-.479-.057c-3.426,3.543-5.891,8.772-3.134,13.3,3.12,5.13,13.386,5.13,16.507,0C252.215,1353.448,249.751,1348.22,246.325,1344.676Z" transform="translate(-231.765 -1336.263)" fill="#75b62f" fill-rule="evenodd"/>
        </g>
      </g>
      <g id="Grupo_154299" data-name="Grupo 154299" transform="translate(335.09 1290.237)">
        <path id="Trazado_206500" data-name="Trazado 206500" d="M389.941,1351.325a.482.482,0,0,1-.779.568,15.76,15.76,0,0,1,20.784-22.837l-.645-1.77a.483.483,0,0,1,.908-.329l1.145,3.141a.483.483,0,0,1-.29.618.5.5,0,0,1-.087.023l-2.965.491a.483.483,0,1,1-.155-.953l1.762-.292a14.8,14.8,0,0,0-19.677,21.341Zm4.569,6.619-.645-1.769a15.76,15.76,0,0,0,20.783-22.837.482.482,0,1,0-.779.567,14.8,14.8,0,0,1-19.677,21.341l1.762-.292a.483.483,0,1,0-.155-.953l-2.965.491a.454.454,0,0,0-.087.023.482.482,0,0,0-.289.619l1.145,3.14a.483.483,0,1,0,.908-.329Z" transform="translate(-386.14 -1326.639)" fill="#f85316" fill-rule="evenodd"/>
        <path id="Trazado_206501" data-name="Trazado 206501" d="M405.883,1339.568v1.231c0,.947-2.414,1.715-5.39,1.715s-5.39-.768-5.39-1.715v-1.231c1.477.962,4.241,1.125,5.39,1.125s3.913-.163,5.39-1.125Zm-3,13.925a15.526,15.526,0,0,1-2.394.178c-2.977,0-5.39-.768-5.39-1.715v-1.23c1.477.961,4.241,1.125,5.39,1.125a17.388,17.388,0,0,0,2.394-.175v1.818Zm0-2.789v-1.818a17.521,17.521,0,0,1-2.394.175c-1.149,0-3.913-.164-5.39-1.126v1.231c0,.947,2.413,1.715,5.39,1.715a15.51,15.51,0,0,0,2.394-.178Zm0-2.79a15.431,15.431,0,0,1-2.394.179c-2.977,0-5.39-.768-5.39-1.715v-1.231c1.477.961,4.241,1.125,5.39,1.125a17.484,17.484,0,0,0,2.394-.175v1.817Zm3-5.557c-1.477.962-4.241,1.126-5.39,1.126s-3.913-.164-5.39-1.126v1.231c0,.948,2.413,1.715,5.39,1.715a15.492,15.492,0,0,0,2.4-.179c.082-1.225,1.479-1.876,2.992-2.216v-.552Zm-10.78-4.347c0,.947,2.413,1.715,5.39,1.715s5.39-.768,5.39-1.715-2.414-1.716-5.39-1.716S395.1,1337.062,395.1,1338.01Z" transform="translate(-389.104 -1329.832)" fill="#dce736" fill-rule="evenodd"/>
        <path id="Trazado_206502" data-name="Trazado 206502" d="M418.959,1350.37v1.23c0,.948-2.413,1.715-5.39,1.715s-5.39-.768-5.39-1.715v-1.23c1.477.961,4.241,1.125,5.39,1.125s3.914-.164,5.39-1.125Zm0,5.579v1.23c0,.948-2.413,1.715-5.39,1.715s-5.39-.768-5.39-1.715v-1.23c1.477.961,4.241,1.125,5.39,1.125s3.914-.164,5.39-1.125Zm0-2.79c-1.476.962-4.241,1.125-5.39,1.125s-3.913-.163-5.39-1.125v1.231c0,.947,2.414,1.715,5.39,1.715s5.39-.768,5.39-1.715v-1.231Zm-10.78-4.348c0,.948,2.414,1.715,5.39,1.715s5.39-.768,5.39-1.715-2.413-1.716-5.39-1.716S408.179,1347.864,408.179,1348.812Z" transform="translate(-393.428 -1333.404)" fill="#75b62f" fill-rule="evenodd"/>
      </g>
    </g>
  </g>
</svg>
