<svg xmlns="http://www.w3.org/2000/svg" xmlns:xlink="http://www.w3.org/1999/xlink" width="368.385" height="368.385" viewBox="0 0 368.385 368.385">
  <defs>
    <linearGradient id="linear-gradient" x1="-0.059" y1="0.884" x2="0.873" y2="-0.024" gradientUnits="objectBoundingBox">
      <stop offset="0" stop-color="#f85316"/>
      <stop offset="0.077" stop-color="#f85519"/>
      <stop offset="1" stop-color="#ff713d"/>
    </linearGradient>
    <linearGradient id="linear-gradient-2" x1="1.09" y1="0.097" x2="0.133" y2="0.992" gradientUnits="objectBoundingBox">
      <stop offset="0" stop-color="#3d46c2"/>
      <stop offset="1" stop-color="#4752e3"/>
    </linearGradient>
    <linearGradient id="linear-gradient-3" x1="1.103" y1="1.152" x2="0.216" y2="0.236" gradientUnits="objectBoundingBox">
      <stop offset="0" stop-color="#dae3fe"/>
      <stop offset="1" stop-color="#e9effd"/>
    </linearGradient>
    <linearGradient id="linear-gradient-4" x1="12.075" y1="0.806" x2="17.522" y2="6.997" gradientUnits="objectBoundingBox">
      <stop offset="0" stop-color="#ce1567"/>
      <stop offset="1" stop-color="#7a1dbc"/>
    </linearGradient>
    <linearGradient id="linear-gradient-5" x1="6.49" y1="-0.057" x2="9.442" y2="8.743" xlink:href="#linear-gradient-4"/>
    <linearGradient id="linear-gradient-6" x1="-11.752" y1="1.863" x2="-16.133" y2="7.466" gradientUnits="objectBoundingBox">
      <stop offset="0" stop-color="#a737d5"/>
      <stop offset="1" stop-color="#ef497a"/>
    </linearGradient>
    <linearGradient id="linear-gradient-7" x1="0.509" y1="2.145" x2="0.496" y2="-0.606" gradientUnits="objectBoundingBox">
      <stop offset="0" stop-color="#12ad11"/>
      <stop offset="0.106" stop-color="#21b213"/>
      <stop offset="0.525" stop-color="#5bc51c"/>
      <stop offset="0.835" stop-color="#7fd121"/>
      <stop offset="1" stop-color="#8dd624"/>
    </linearGradient>
    <linearGradient id="linear-gradient-8" x1="0.519" y1="2.383" x2="0.477" y2="-0.75" gradientUnits="objectBoundingBox">
      <stop offset="0" stop-color="#e1473d"/>
      <stop offset="1" stop-color="#e9605a"/>
    </linearGradient>
    <linearGradient id="linear-gradient-9" x1="0.514" y1="2.023" x2="0.472" y2="-1.11" xlink:href="#linear-gradient-8"/>
    <linearGradient id="linear-gradient-10" x1="0.536" y1="-0.322" x2="0.397" y2="2.901" xlink:href="#linear-gradient-7"/>
    <linearGradient id="linear-gradient-11" x1="0.68" y1="-1.394" x2="0.419" y2="1.019" xlink:href="#linear-gradient-8"/>
    <linearGradient id="linear-gradient-12" x1="5.571" y1="-1.491" x2="6.776" y2="-1.491" gradientUnits="objectBoundingBox">
      <stop offset="0" stop-color="#2b3582"/>
      <stop offset="1" stop-color="#150e42"/>
    </linearGradient>
    <linearGradient id="linear-gradient-13" x1="-4.002" y1="-0.234" x2="-3.001" y2="-0.234" xlink:href="#linear-gradient-12"/>
  </defs>
  <g id="Grupo_158134" data-name="Grupo 158134" transform="translate(1043 5710)">
    <g id="Grupo_158036" data-name="Grupo 158036" transform="translate(-291 -342)">
      <g id="Grupo_158004" data-name="Grupo 158004" transform="translate(-935 -6633)">
        <g id="Grupo_107422" data-name="Grupo 107422" transform="translate(-18 -4782.615)">
          <g id="Grupo_80128" data-name="Grupo 80128" transform="translate(201 6047.615)">
            <g id="Grupo_80127" data-name="Grupo 80127" transform="translate(7.912 7.912)">
              <path id="Trazado_113538" data-name="Trazado 113538" d="M3842.353-1082.244a175.179,175.179,0,0,0,68.616-13.853A175.676,175.676,0,0,0,3967-1133.875a175.686,175.686,0,0,0,37.778-56.032,175.184,175.184,0,0,0,13.854-68.616,175.191,175.191,0,0,0-13.854-68.617A175.7,175.7,0,0,0,3967-1383.172a175.687,175.687,0,0,0-56.032-37.778,175.177,175.177,0,0,0-68.616-13.853,175.174,175.174,0,0,0-68.615,13.853,175.7,175.7,0,0,0-56.034,37.778,175.717,175.717,0,0,0-37.778,56.032,175.177,175.177,0,0,0-13.853,68.617,175.17,175.17,0,0,0,13.853,68.616,175.7,175.7,0,0,0,37.778,56.032,175.685,175.685,0,0,0,56.034,37.778A175.176,175.176,0,0,0,3842.353-1082.244Zm0-351.165c96.432,0,174.886,78.454,174.886,174.886s-78.454,174.886-174.886,174.886-174.886-78.454-174.886-174.886S3745.92-1433.409,3842.353-1433.409Z" transform="translate(-3666.073 1434.803)" fill="#e8e8e8"/>
            </g>
            <path id="Trazado_113539" data-name="Trazado 113539" d="M4001.782-1431.137h0a10.454,10.454,0,0,1-9.817,10.444,162.958,162.958,0,0,0-105.847,47.616,162.954,162.954,0,0,0-47.616,105.847,10.455,10.455,0,0,1-10.444,9.818h0a10.475,10.475,0,0,1-10.448-11.114,183.824,183.824,0,0,1,53.708-119.352,183.816,183.816,0,0,1,119.351-53.707A10.474,10.474,0,0,1,4001.782-1431.137Z" transform="translate(-3817.589 1441.604)" fill="url(#linear-gradient)"/>
            <path id="Trazado_113540" data-name="Trazado 113540" d="M3833-1283.287a10.475,10.475,0,0,1,10.448,11.115,183.809,183.809,0,0,1-53.706,119.349,183.814,183.814,0,0,1-119.352,53.709,10.474,10.474,0,0,1-11.115-10.449h0a10.454,10.454,0,0,1,9.817-10.443,162.956,162.956,0,0,0,105.849-47.617,162.953,162.953,0,0,0,47.615-105.846,10.455,10.455,0,0,1,10.444-9.818Z" transform="translate(-3475.078 1467.478)" fill="url(#linear-gradient-2)"/>
          </g>
          <path id="Trazado_113537" data-name="Trazado 113537" d="M3840.568-1423.881a163.572,163.572,0,0,1,163.572,163.573,163.572,163.572,0,0,1-163.572,163.573,163.573,163.573,0,0,1-163.573-163.573A163.572,163.572,0,0,1,3840.568-1423.881Zm0,321.677a158.1,158.1,0,0,0,158.1-158.1,158.1,158.1,0,0,0-158.1-158.105,158.1,158.1,0,0,0-158.1,158.105A158.1,158.1,0,0,0,3840.568-1102.2Z" transform="translate(-3455.375 7492.115)" fill="#f3ff3f"/>
          <path id="Trazado_113541" data-name="Trazado 113541" d="M3682.606-1277.2a158.1,158.1,0,0,0,157.939,151.026A158.1,158.1,0,0,0,3998.483-1277.2h5.473a163.571,163.571,0,0,1-163.412,156.5,163.57,163.57,0,0,1-163.412-156.5Z" transform="translate(-3455.35 7516.087)" fill="#f3ff3c"/>
        </g>
        <path id="Trazado_206503" data-name="Trazado 206503" d="M638.2,2840.529a80.3,80.3,0,0,1-14.1,11.446c-36.521,24.385-78.268,17.357-91.175,14.955-20.824-3.876-38.4-6.61-53.506-20.255-34.319-31.006-32.65-95.686-6.426-135.752,3.109-4.751,29.293-43.563,71.131-49.032,1.023-.134,1.787-.21,2.456-.281,6.472-.686,46.579-4.3,79.282,23.1a97.556,97.556,0,0,1,19.2,21.786C670.608,2745.943,670.689,2807.043,638.2,2840.529Z" transform="translate(-192.47 -1316.709)" fill="url(#linear-gradient-3)"/>
        <g id="Grupo_157943" data-name="Grupo 157943">
          <g id="Grupo_154313" data-name="Grupo 154313" transform="translate(268.038 1351.258)">
            <path id="Trazado_206504" data-name="Trazado 206504" d="M472.781,2683.558a3.536,3.536,0,0,1,3.992-3.548c14.147,1.844,62.791,7.52,102.967,4.225a3.27,3.27,0,0,1,3.537,3.066l8.8,150.715a3.763,3.763,0,0,1-3.514,3.975c-16.9,1.089-86.5,5.318-111.341,2.846a2.981,2.981,0,0,1-2.683-2.936Z" transform="translate(-472.78 -2679.98)" fill="#91b3fa"/>
            <path id="Trazado_206505" data-name="Trazado 206505" d="M477.4,2694.135a3.4,3.4,0,0,1,3.842-3.414c13.614,1.774,60.426,7.237,99.09,4.066a3.147,3.147,0,0,1,3.4,2.95l8.465,145.04a3.621,3.621,0,0,1-3.382,3.826c-16.263,1.047-83.239,5.117-107.148,2.739a2.868,2.868,0,0,1-2.582-2.826Z" transform="translate(-475.719 -2686.788)" fill="#bdd0fb"/>
            <path id="Trazado_206506" data-name="Trazado 206506" d="M512.116,2726.8l1.607,31.1a1.977,1.977,0,0,0,1.929,1.876c5.761.133,23.713.477,33.845-.1a2.208,2.208,0,0,0,2.08-2.146c.163-5.834.5-22.814-.868-29.9a2.492,2.492,0,0,0-2.376-2.015l-34.054-1.013A2.1,2.1,0,0,0,512.116,2726.8Z" transform="translate(-497.779 -2708.33)" fill="#fff" opacity="0.78"/>
            <circle id="Elipse_12959" data-name="Elipse 12959" cx="6.686" cy="6.686" r="6.686" transform="translate(27.246 36.116) rotate(-89.528)" fill="url(#linear-gradient-4)"/>
            <path id="Trazado_206507" data-name="Trazado 206507" d="M535.426,2798.49l21.3-.111a1.649,1.649,0,0,0,1.372-2.549,13.748,13.748,0,0,0-12.187-6.74A14.851,14.851,0,0,0,534,2795.784,1.724,1.724,0,0,0,535.426,2798.49Z" transform="translate(-511.493 -2749.321)" fill="url(#linear-gradient-5)"/>
            <g id="Grupo_154301" data-name="Grupo 154301" transform="translate(61.252 18.152)" opacity="0.6">
              <path id="Trazado_206508" data-name="Trazado 206508" d="M679.137,2732.368a1.1,1.1,0,0,0,1.177-1.05,1.208,1.208,0,0,0-1.249-1.058l-37.34-.471a.788.788,0,0,0-.8,1.127l.181.506a1.84,1.84,0,0,0,1.622,1.136Z" transform="translate(-640.855 -2729.789)" fill="#fff"/>
            </g>
            <g id="Grupo_154302" data-name="Grupo 154302" transform="translate(61.282 23.95)" opacity="0.6">
              <path id="Trazado_206509" data-name="Trazado 206509" d="M641.808,2745.7a.788.788,0,0,0-.8,1.126l.181.507a1.84,1.84,0,0,0,1.622,1.135l36.412-.189a1.1,1.1,0,0,0,1.177-1.05,1.208,1.208,0,0,0-1.249-1.059Z" transform="translate(-640.938 -2745.7)" fill="#fff"/>
            </g>
            <g id="Grupo_154303" data-name="Grupo 154303" transform="translate(61.313 29.833)" opacity="0.6">
              <path id="Trazado_206510" data-name="Trazado 206510" d="M641.893,2761.842a.788.788,0,0,0-.8,1.127l.181.507a1.84,1.84,0,0,0,1.622,1.135l36.412-.19a1.1,1.1,0,0,0,1.177-1.05,1.208,1.208,0,0,0-1.249-1.059Z" transform="translate(-641.022 -2761.842)" fill="#fff"/>
            </g>
            <g id="Grupo_154304" data-name="Grupo 154304" transform="translate(15.078 58.433)" opacity="0.6">
              <path id="Trazado_206511" data-name="Trazado 206511" d="M602.445,2842.649a1.055,1.055,0,0,0,1.139-1.05,1.248,1.248,0,0,0-1.287-1.046l-87.473-.235c-.667,0-.871.422-.453.942l.719.894a2.857,2.857,0,0,0,1.973.938Z" transform="translate(-514.154 -2840.319)" fill="#fff"/>
            </g>
            <g id="Grupo_154305" data-name="Grupo 154305" transform="translate(15.108 64.232)" opacity="0.6">
              <path id="Trazado_206512" data-name="Trazado 206512" d="M514.907,2856.23c-.667,0-.871.422-.452.942l.719.894a2.858,2.858,0,0,0,1.973.939l85.381-.444a1.055,1.055,0,0,0,1.139-1.05,1.248,1.248,0,0,0-1.288-1.046Z" transform="translate(-514.237 -2856.23)" fill="#fff"/>
            </g>
            <path id="Trazado_206513" data-name="Trazado 206513" d="M512.892,2882.262c2.1-.172,6.041-.267,8.208-.309a1.964,1.964,0,0,1,1.948,1.492,32.033,32.033,0,0,1,.964,7.932,1.745,1.745,0,0,1-1.752,1.718l-8-.044a1.921,1.921,0,0,1-1.9-1.733l-.743-7.523A1.4,1.4,0,0,1,512.892,2882.262Z" transform="translate(-497.459 -2808.347)" fill="#fff" opacity="0.6"/>
            <g id="Grupo_154306" data-name="Grupo 154306" transform="translate(29.205 76.928)" opacity="0.6">
              <path id="Trazado_206514" data-name="Trazado 206514" d="M553.957,2891.069a.965.965,0,0,0-1.026,1.154l.2,1.289a1.458,1.458,0,0,0,1.4,1.192l19.43-.1a1.2,1.2,0,0,0,1.191-1.219l-.006-.328a1.3,1.3,0,0,0-1.233-1.257Z" transform="translate(-552.917 -2891.068)" fill="#fff"/>
            </g>
            <path id="Trazado_206515" data-name="Trazado 206515" d="M632.486,2881.64c2.1-.172,6.04-.268,8.208-.309a1.965,1.965,0,0,1,1.948,1.492,32.033,32.033,0,0,1,.964,7.933,1.745,1.745,0,0,1-1.752,1.717l-8-.044a1.921,1.921,0,0,1-1.9-1.732l-.743-7.523A1.4,1.4,0,0,1,632.486,2881.64Z" transform="translate(-573.468 -2807.951)" fill="#fff" opacity="0.6"/>
            <g id="Grupo_154307" data-name="Grupo 154307" transform="translate(72.789 76.701)" opacity="0.6">
              <path id="Trazado_206516" data-name="Trazado 206516" d="M673.551,2890.447a.965.965,0,0,0-1.026,1.154l.2,1.289a1.457,1.457,0,0,0,1.4,1.192l19.43-.1a1.2,1.2,0,0,0,1.191-1.219l-.006-.328a1.3,1.3,0,0,0-1.234-1.257Z" transform="translate(-672.511 -2890.446)" fill="#fff"/>
            </g>
            <g id="Grupo_154312" data-name="Grupo 154312" transform="translate(16.751 93.61)">
              <path id="Trazado_206517" data-name="Trazado 206517" d="M528.871,2946.951h-.02l-7.383-.032a1.985,1.985,0,0,1-2.034-1.677l-.681-6.191a1.346,1.346,0,0,1,.313-1.014,1.62,1.62,0,0,1,1.126-.563h0c.622-.046,1.5-.125,2.424-.208,1.952-.177,4.38-.4,5.747-.42a2.063,2.063,0,0,1,2.075,1.435,30.943,30.943,0,0,1,.314,6.979A1.824,1.824,0,0,1,528.871,2946.951Zm-8.637-8.912a1.051,1.051,0,0,0-.733.36.784.784,0,0,0-.185.59l.681,6.191a1.42,1.42,0,0,0,1.473,1.172l7.383.032h.015a1.257,1.257,0,0,0,1.318-1.137,30.818,30.818,0,0,0-.294-6.817,1.523,1.523,0,0,0-1.518-1.019c-1.347.024-3.764.243-5.707.418-.929.084-1.807.163-2.433.209Z" transform="translate(-518.745 -2936.844)" fill="#fff"/>
              <path id="Trazado_206518" data-name="Trazado 206518" d="M523.368,2940.989c1.55-.114,4.919-.474,6.518-.5a1.429,1.429,0,0,1,1.435.981,25.079,25.079,0,0,1,.243,5.512,1.229,1.229,0,0,1-1.293,1.13l-5.9-.026a1.362,1.362,0,0,1-1.4-1.138l-.544-4.947A.958.958,0,0,1,523.368,2940.989Z" transform="translate(-521.081 -2939.159)" fill="#fff" opacity="0.6"/>
              <g id="Grupo_154308" data-name="Grupo 154308" transform="translate(16.525 3.606)" opacity="0.6">
                <path id="Trazado_206519" data-name="Trazado 206519" d="M564.152,2949.094a1.834,1.834,0,0,0,1.8,1.356l68.3-.938a1.386,1.386,0,0,0-.02-2.772l-68.307.044A1.833,1.833,0,0,0,564.152,2949.094Z" transform="translate(-564.088 -2946.74)" fill="#fff"/>
              </g>
              <path id="Trazado_206520" data-name="Trazado 206520" d="M529.1,2990.366h-.02l-7.383-.033a1.985,1.985,0,0,1-2.034-1.677l-.681-6.19a1.345,1.345,0,0,1,.313-1.014,1.622,1.622,0,0,1,1.126-.563h0c.622-.046,1.5-.125,2.424-.209,1.952-.176,4.38-.4,5.747-.42h.03a2.059,2.059,0,0,1,2.045,1.436,30.947,30.947,0,0,1,.314,6.979A1.825,1.825,0,0,1,529.1,2990.366Zm-8.637-8.912a1.049,1.049,0,0,0-.733.36.784.784,0,0,0-.185.589l.681,6.191a1.42,1.42,0,0,0,1.473,1.172l7.383.032h.015a1.257,1.257,0,0,0,1.318-1.136,30.831,30.831,0,0,0-.294-6.817,1.515,1.515,0,0,0-1.518-1.019c-1.347.023-3.764.242-5.707.418-.929.083-1.807.163-2.433.209Z" transform="translate(-518.889 -2964.438)" fill="#fff"/>
              <path id="Trazado_206521" data-name="Trazado 206521" d="M523.594,2984.4c1.55-.114,4.919-.474,6.518-.5a1.429,1.429,0,0,1,1.436.98,25.088,25.088,0,0,1,.243,5.513,1.228,1.228,0,0,1-1.292,1.13l-5.9-.026a1.363,1.363,0,0,1-1.4-1.138l-.544-4.947A.958.958,0,0,1,523.594,2984.4Z" transform="translate(-521.225 -2966.753)" fill="#fff" opacity="0.6"/>
              <g id="Grupo_154309" data-name="Grupo 154309" transform="translate(16.607 19.428)" opacity="0.6">
                <path id="Trazado_206522" data-name="Trazado 206522" d="M564.378,2992.509a1.833,1.833,0,0,0,1.8,1.356l68.3-.938a1.386,1.386,0,0,0-.02-2.772l-68.307.044A1.833,1.833,0,0,0,564.378,2992.509Z" transform="translate(-564.314 -2990.155)" fill="#fff"/>
              </g>
              <path id="Trazado_206523" data-name="Trazado 206523" d="M529.323,3033.781h-.02l-7.383-.032a1.984,1.984,0,0,1-2.034-1.677l-.681-6.191a1.346,1.346,0,0,1,.313-1.014,1.621,1.621,0,0,1,1.126-.563h0c.622-.046,1.5-.125,2.424-.208,1.952-.177,4.38-.4,5.747-.42h.03a2.058,2.058,0,0,1,2.045,1.435,30.945,30.945,0,0,1,.314,6.979A1.824,1.824,0,0,1,529.323,3033.781Zm-8.637-8.912a1.05,1.05,0,0,0-.732.36.783.783,0,0,0-.185.589l.681,6.191a1.42,1.42,0,0,0,1.473,1.172l7.383.032h.015a1.258,1.258,0,0,0,1.318-1.137,30.823,30.823,0,0,0-.294-6.817,1.513,1.513,0,0,0-1.518-1.019c-1.347.024-3.764.242-5.707.418-.929.084-1.807.163-2.434.209Z" transform="translate(-519.032 -2992.031)" fill="#fff"/>
              <path id="Trazado_206524" data-name="Trazado 206524" d="M523.82,3027.82c1.55-.114,4.919-.474,6.518-.5a1.429,1.429,0,0,1,1.435.98,25.093,25.093,0,0,1,.243,5.513,1.229,1.229,0,0,1-1.292,1.13l-5.9-.026a1.363,1.363,0,0,1-1.4-1.138l-.544-4.947A.958.958,0,0,1,523.82,3027.82Z" transform="translate(-521.369 -2994.346)" fill="#fff" opacity="0.6"/>
              <g id="Grupo_154310" data-name="Grupo 154310" transform="translate(16.689 35.25)" opacity="0.6">
                <path id="Trazado_206525" data-name="Trazado 206525" d="M564.6,3035.924a1.833,1.833,0,0,0,1.795,1.356l68.3-.938a1.386,1.386,0,0,0-.02-2.772l-68.307.044A1.833,1.833,0,0,0,564.6,3035.924Z" transform="translate(-564.54 -3033.571)" fill="#fff"/>
              </g>
              <path id="Trazado_206526" data-name="Trazado 206526" d="M529.549,3077.2h-.02l-7.383-.032a1.983,1.983,0,0,1-2.034-1.677l-.681-6.191a1.347,1.347,0,0,1,.313-1.014,1.621,1.621,0,0,1,1.127-.563h0c.622-.046,1.5-.125,2.424-.209,1.952-.176,4.38-.4,5.748-.42h.03a2.059,2.059,0,0,1,2.045,1.436,30.951,30.951,0,0,1,.314,6.979A1.825,1.825,0,0,1,529.549,3077.2Zm-8.637-8.912a1.05,1.05,0,0,0-.732.36.784.784,0,0,0-.185.59l.681,6.19a1.42,1.42,0,0,0,1.473,1.172l7.383.032h.015a1.258,1.258,0,0,0,1.318-1.136,30.82,30.82,0,0,0-.294-6.817,1.51,1.51,0,0,0-1.518-1.019c-1.347.024-3.764.242-5.707.418-.929.084-1.807.163-2.434.209Z" transform="translate(-519.176 -3019.624)" fill="#fff"/>
              <path id="Trazado_206527" data-name="Trazado 206527" d="M524.046,3071.235c1.55-.114,4.919-.474,6.518-.5a1.429,1.429,0,0,1,1.436.98,25.1,25.1,0,0,1,.243,5.513,1.228,1.228,0,0,1-1.292,1.13l-5.9-.025a1.364,1.364,0,0,1-1.4-1.139l-.544-4.947A.958.958,0,0,1,524.046,3071.235Z" transform="translate(-521.512 -3021.939)" fill="#fff" opacity="0.6"/>
              <g id="Grupo_154311" data-name="Grupo 154311" transform="translate(16.772 51.072)" opacity="0.6">
                <path id="Trazado_206528" data-name="Trazado 206528" d="M564.83,3079.34h0a1.833,1.833,0,0,0,1.795,1.356l68.3-.938a1.386,1.386,0,0,0-.02-2.772l-68.307.044A1.833,1.833,0,0,0,564.83,3079.34Z" transform="translate(-564.766 -3076.986)" fill="#fff"/>
              </g>
              <path id="Trazado_206529" data-name="Trazado 206529" d="M525.562,3065.509h0a1.133,1.133,0,0,1,1.565.417l1.469,2.6a.364.364,0,0,0,.65-.031l3.57-8.059a.4.4,0,0,1,.772.17,15.875,15.875,0,0,1-4.562,11.072s-2.17-.831-3.934-4.651A1.189,1.189,0,0,1,525.562,3065.509Z" transform="translate(-522.71 -3015.243)" fill="url(#linear-gradient-6)"/>
            </g>
          </g>
          <g id="Grupo_154326" data-name="Grupo 154326" transform="translate(276.956 1360.645)">
            <path id="Trazado_206530" data-name="Trazado 206530" d="M497.253,2709.318a3.536,3.536,0,0,1,3.992-3.548c14.147,1.844,62.791,7.52,102.967,4.225a3.27,3.27,0,0,1,3.537,3.065l8.8,150.715a3.763,3.763,0,0,1-3.514,3.975c-16.9,1.088-86.5,5.318-111.341,2.846a2.981,2.981,0,0,1-2.683-2.936Z" transform="translate(-497.252 -2705.74)" fill="#91b3fa"/>
            <path id="Trazado_206531" data-name="Trazado 206531" d="M501.876,2719.9a3.4,3.4,0,0,1,3.842-3.414c13.614,1.774,60.426,7.236,99.09,4.066a3.147,3.147,0,0,1,3.4,2.95l8.466,145.04a3.621,3.621,0,0,1-3.382,3.825c-16.263,1.047-83.239,5.118-107.148,2.739a2.868,2.868,0,0,1-2.582-2.826Z" transform="translate(-500.191 -2712.548)" fill="#bdd0fb"/>
            <path id="Trazado_206532" data-name="Trazado 206532" d="M536.588,2752.557l1.607,31.1a1.977,1.977,0,0,0,1.929,1.876c5.761.133,23.713.477,33.845-.1a2.209,2.209,0,0,0,2.081-2.146c.163-5.834.5-22.814-.869-29.9a2.492,2.492,0,0,0-2.377-2.015l-34.054-1.013A2.1,2.1,0,0,0,536.588,2752.557Z" transform="translate(-522.251 -2734.09)" fill="#fff" opacity="0.78"/>
            <circle id="Elipse_12960" data-name="Elipse 12960" cx="6.686" cy="6.686" r="6.686" transform="translate(25.772 34.168) rotate(-74.683)" fill="#3d46c2"/>
            <path id="Trazado_206533" data-name="Trazado 206533" d="M559.9,2824.25l21.3-.111a1.649,1.649,0,0,0,1.372-2.55,13.746,13.746,0,0,0-12.187-6.739,14.851,14.851,0,0,0-11.912,6.694A1.724,1.724,0,0,0,559.9,2824.25Z" transform="translate(-535.965 -2775.081)" fill="#3d46c2"/>
            <g id="Grupo_154314" data-name="Grupo 154314" transform="translate(61.252 18.152)" opacity="0.6">
              <path id="Trazado_206534" data-name="Trazado 206534" d="M703.609,2758.128a1.1,1.1,0,0,0,1.177-1.05,1.208,1.208,0,0,0-1.249-1.059l-37.34-.471a.788.788,0,0,0-.8,1.126l.181.507a1.839,1.839,0,0,0,1.622,1.135Z" transform="translate(-665.327 -2755.549)" fill="#fff"/>
            </g>
            <g id="Grupo_154315" data-name="Grupo 154315" transform="translate(61.282 23.951)" opacity="0.6">
              <path id="Trazado_206535" data-name="Trazado 206535" d="M666.281,2771.46a.788.788,0,0,0-.8,1.126l.182.507a1.839,1.839,0,0,0,1.622,1.136l36.412-.19a1.1,1.1,0,0,0,1.177-1.05,1.208,1.208,0,0,0-1.249-1.059Z" transform="translate(-665.41 -2771.46)" fill="#fff"/>
            </g>
            <g id="Grupo_154316" data-name="Grupo 154316" transform="translate(61.313 29.833)" opacity="0.6">
              <path id="Trazado_206536" data-name="Trazado 206536" d="M666.365,2787.6a.788.788,0,0,0-.8,1.126l.181.506a1.84,1.84,0,0,0,1.622,1.136l36.412-.19a1.1,1.1,0,0,0,1.177-1.049,1.208,1.208,0,0,0-1.249-1.059Z" transform="translate(-665.494 -2787.602)" fill="#fff"/>
            </g>
            <g id="Grupo_154317" data-name="Grupo 154317" transform="translate(15.078 58.433)" opacity="0.6">
              <path id="Trazado_206537" data-name="Trazado 206537" d="M626.918,2868.409a1.055,1.055,0,0,0,1.138-1.049,1.248,1.248,0,0,0-1.287-1.046l-87.473-.234c-.667,0-.871.422-.453.942l.719.894a2.856,2.856,0,0,0,1.973.939Z" transform="translate(-538.626 -2866.079)" fill="#fff"/>
            </g>
            <g id="Grupo_154318" data-name="Grupo 154318" transform="translate(15.108 64.232)" opacity="0.6">
              <path id="Trazado_206538" data-name="Trazado 206538" d="M539.379,2881.99c-.667,0-.871.422-.453.942l.719.894a2.858,2.858,0,0,0,1.973.939L627,2884.32a1.055,1.055,0,0,0,1.139-1.05,1.248,1.248,0,0,0-1.288-1.046Z" transform="translate(-538.709 -2881.99)" fill="#fff"/>
            </g>
            <path id="Trazado_206539" data-name="Trazado 206539" d="M537.364,2908.021c2.1-.172,6.04-.267,8.208-.309a1.965,1.965,0,0,1,1.948,1.493,32.014,32.014,0,0,1,.964,7.933,1.745,1.745,0,0,1-1.752,1.718l-8-.044a1.922,1.922,0,0,1-1.9-1.732l-.743-7.523A1.4,1.4,0,0,1,537.364,2908.021Z" transform="translate(-521.931 -2834.106)" fill="#fff" opacity="0.6"/>
            <g id="Grupo_154319" data-name="Grupo 154319" transform="translate(29.205 76.928)" opacity="0.6">
              <path id="Trazado_206540" data-name="Trazado 206540" d="M578.429,2916.829a.965.965,0,0,0-1.026,1.154l.2,1.289a1.457,1.457,0,0,0,1.4,1.192l19.43-.1a1.2,1.2,0,0,0,1.192-1.219l-.006-.328a1.3,1.3,0,0,0-1.234-1.257Z" transform="translate(-577.389 -2916.828)" fill="#fff"/>
            </g>
            <path id="Trazado_206541" data-name="Trazado 206541" d="M656.958,2907.4c2.1-.172,6.041-.268,8.208-.309a1.965,1.965,0,0,1,1.948,1.493,32.015,32.015,0,0,1,.964,7.933,1.745,1.745,0,0,1-1.752,1.718l-8-.045a1.921,1.921,0,0,1-1.9-1.732l-.743-7.523A1.4,1.4,0,0,1,656.958,2907.4Z" transform="translate(-597.94 -2833.711)" fill="#fff" opacity="0.6"/>
            <g id="Grupo_154320" data-name="Grupo 154320" transform="translate(72.789 76.701)" opacity="0.6">
              <path id="Trazado_206542" data-name="Trazado 206542" d="M698.023,2916.207a.965.965,0,0,0-1.026,1.154l.2,1.289a1.456,1.456,0,0,0,1.4,1.192l19.43-.1a1.2,1.2,0,0,0,1.191-1.219l-.005-.329a1.3,1.3,0,0,0-1.234-1.257Z" transform="translate(-696.983 -2916.206)" fill="#fff"/>
            </g>
            <g id="Grupo_154325" data-name="Grupo 154325" transform="translate(16.751 90.668)">
              <path id="Trazado_206543" data-name="Trazado 206543" d="M553.343,2972.711h-.02l-7.383-.033a1.984,1.984,0,0,1-2.034-1.677l-.681-6.191a1.345,1.345,0,0,1,.313-1.014,1.621,1.621,0,0,1,1.126-.563h0c.622-.045,1.5-.125,2.424-.208,1.951-.176,4.38-.4,5.748-.42a2.063,2.063,0,0,1,2.075,1.435,30.977,30.977,0,0,1,.314,6.979A1.824,1.824,0,0,1,553.343,2972.711Zm-8.637-8.912a1.052,1.052,0,0,0-.732.361.782.782,0,0,0-.185.589l.681,6.19a1.421,1.421,0,0,0,1.473,1.173l7.382.033h.015a1.258,1.258,0,0,0,1.318-1.137,30.82,30.82,0,0,0-.294-6.817,1.523,1.523,0,0,0-1.518-1.02c-1.347.024-3.764.243-5.707.418-.929.084-1.807.164-2.433.209Z" transform="translate(-543.217 -2959.662)" fill="#fff"/>
              <path id="Trazado_206544" data-name="Trazado 206544" d="M547.84,2966.749c1.55-.114,4.919-.474,6.518-.5a1.429,1.429,0,0,1,1.436.981,25.091,25.091,0,0,1,.243,5.512,1.228,1.228,0,0,1-1.293,1.13l-5.9-.026a1.362,1.362,0,0,1-1.4-1.139l-.545-4.947A.958.958,0,0,1,547.84,2966.749Z" transform="translate(-545.553 -2961.976)" fill="#fff" opacity="0.6"/>
              <g id="Grupo_154321" data-name="Grupo 154321" transform="translate(16.525 6.549)" opacity="0.6">
                <path id="Trazado_206545" data-name="Trazado 206545" d="M588.624,2974.854a1.833,1.833,0,0,0,1.8,1.356l68.3-.938a1.386,1.386,0,0,0-.02-2.772l-68.307.044A1.833,1.833,0,0,0,588.624,2974.854Z" transform="translate(-588.56 -2972.5)" fill="#fff"/>
              </g>
              <path id="Trazado_206546" data-name="Trazado 206546" d="M553.569,3016.126h-.02l-7.383-.032a1.985,1.985,0,0,1-2.034-1.678l-.681-6.19a1.344,1.344,0,0,1,.313-1.014,1.62,1.62,0,0,1,1.126-.563h0c.622-.045,1.5-.125,2.424-.209,1.952-.176,4.38-.4,5.747-.42h.03a2.058,2.058,0,0,1,2.045,1.436,30.939,30.939,0,0,1,.314,6.979A1.825,1.825,0,0,1,553.569,3016.126Zm-8.637-8.912a1.047,1.047,0,0,0-.732.36.783.783,0,0,0-.185.589l.681,6.19a1.42,1.42,0,0,0,1.473,1.172l7.382.033h.015a1.258,1.258,0,0,0,1.318-1.137,30.82,30.82,0,0,0-.294-6.817,1.515,1.515,0,0,0-1.518-1.019c-1.347.024-3.764.243-5.707.418-.929.084-1.807.163-2.433.21Z" transform="translate(-543.361 -2987.254)" fill="#fff"/>
              <path id="Trazado_206547" data-name="Trazado 206547" d="M548.066,3010.165c1.55-.114,4.919-.474,6.518-.5a1.429,1.429,0,0,1,1.435.981,25.085,25.085,0,0,1,.243,5.512,1.228,1.228,0,0,1-1.293,1.13l-5.9-.026a1.363,1.363,0,0,1-1.4-1.138l-.544-4.947A.958.958,0,0,1,548.066,3010.165Z" transform="translate(-545.697 -2989.57)" fill="#fff" opacity="0.6"/>
              <g id="Grupo_154322" data-name="Grupo 154322" transform="translate(16.607 22.371)" opacity="0.6">
                <path id="Trazado_206548" data-name="Trazado 206548" d="M588.85,3018.269a1.833,1.833,0,0,0,1.8,1.356l68.3-.937a1.386,1.386,0,0,0-.02-2.772l-68.308.044A1.833,1.833,0,0,0,588.85,3018.269Z" transform="translate(-588.786 -3015.915)" fill="#fff"/>
              </g>
              <path id="Trazado_206549" data-name="Trazado 206549" d="M553.795,3059.542h-.02l-7.383-.032a1.983,1.983,0,0,1-2.034-1.677l-.681-6.191a1.345,1.345,0,0,1,.313-1.014,1.621,1.621,0,0,1,1.127-.563h0c.622-.045,1.5-.125,2.424-.208,1.952-.177,4.381-.4,5.747-.42h.03a2.058,2.058,0,0,1,2.045,1.436,30.939,30.939,0,0,1,.314,6.979A1.824,1.824,0,0,1,553.795,3059.542Zm-8.637-8.912a1.051,1.051,0,0,0-.733.361.782.782,0,0,0-.185.589l.681,6.19a1.42,1.42,0,0,0,1.473,1.173l7.383.032h.015a1.258,1.258,0,0,0,1.318-1.137,30.829,30.829,0,0,0-.294-6.817A1.513,1.513,0,0,0,553.3,3050c-1.347.024-3.764.242-5.707.418-.929.084-1.807.163-2.433.209Z" transform="translate(-543.504 -3014.848)" fill="#fff"/>
              <path id="Trazado_206550" data-name="Trazado 206550" d="M548.292,3053.58c1.55-.114,4.919-.474,6.518-.5a1.429,1.429,0,0,1,1.436.981,25.1,25.1,0,0,1,.243,5.512,1.229,1.229,0,0,1-1.292,1.13l-5.9-.026a1.362,1.362,0,0,1-1.4-1.138l-.544-4.947A.958.958,0,0,1,548.292,3053.58Z" transform="translate(-545.841 -3017.163)" fill="#fff" opacity="0.6"/>
              <g id="Grupo_154323" data-name="Grupo 154323" transform="translate(16.689 38.193)" opacity="0.6">
                <path id="Trazado_206551" data-name="Trazado 206551" d="M589.076,3061.685a1.832,1.832,0,0,0,1.8,1.356l68.3-.937a1.386,1.386,0,0,0-.02-2.772l-68.307.044A1.833,1.833,0,0,0,589.076,3061.685Z" transform="translate(-589.012 -3059.331)" fill="#fff"/>
              </g>
              <path id="Trazado_206552" data-name="Trazado 206552" d="M554.021,3102.957H554l-7.383-.033a1.984,1.984,0,0,1-2.034-1.677l-.681-6.191a1.346,1.346,0,0,1,.313-1.014,1.62,1.62,0,0,1,1.126-.563h0c.622-.046,1.5-.125,2.424-.209,1.951-.176,4.38-.4,5.747-.42h.03a2.058,2.058,0,0,1,2.045,1.436,30.951,30.951,0,0,1,.314,6.979A1.824,1.824,0,0,1,554.021,3102.957Zm-8.637-8.912a1.05,1.05,0,0,0-.733.36.784.784,0,0,0-.185.59l.681,6.19a1.42,1.42,0,0,0,1.473,1.172l7.383.033h.015a1.258,1.258,0,0,0,1.318-1.137,30.82,30.82,0,0,0-.294-6.817,1.511,1.511,0,0,0-1.518-1.019c-1.347.024-3.764.242-5.707.418-.929.084-1.807.163-2.433.209Z" transform="translate(-543.648 -3042.441)" fill="#fff"/>
              <path id="Trazado_206553" data-name="Trazado 206553" d="M548.518,3097c1.55-.114,4.919-.474,6.518-.5a1.429,1.429,0,0,1,1.436.981,25.091,25.091,0,0,1,.243,5.512,1.228,1.228,0,0,1-1.292,1.13l-5.9-.026a1.363,1.363,0,0,1-1.4-1.139l-.544-4.947A.958.958,0,0,1,548.518,3097Z" transform="translate(-545.984 -3044.757)" fill="#fff" opacity="0.6"/>
              <g id="Grupo_154324" data-name="Grupo 154324" transform="translate(16.772 54.015)" opacity="0.6">
                <path id="Trazado_206554" data-name="Trazado 206554" d="M589.3,3105.1h0a1.833,1.833,0,0,0,1.8,1.356l68.3-.937a1.386,1.386,0,0,0-.02-2.772l-68.307.044A1.833,1.833,0,0,0,589.3,3105.1Z" transform="translate(-589.238 -3102.746)" fill="#fff"/>
              </g>
              <path id="Trazado_206555" data-name="Trazado 206555" d="M550.034,3091.269h0a1.133,1.133,0,0,1,1.565.417l1.47,2.6a.364.364,0,0,0,.649-.031l3.57-8.059a.4.4,0,0,1,.772.17,15.874,15.874,0,0,1-4.562,11.072s-2.17-.831-3.934-4.651A1.189,1.189,0,0,1,550.034,3091.269Z" transform="translate(-547.182 -3038.06)" fill="#f85316"/>
              <path id="Trazado_206556" data-name="Trazado 206556" d="M548.96,3046.125h0a1.133,1.133,0,0,1,1.565.417l1.469,2.6a.364.364,0,0,0,.65-.032l3.57-8.059a.4.4,0,0,1,.772.17,15.873,15.873,0,0,1-4.561,11.071s-2.17-.83-3.934-4.65A1.189,1.189,0,0,1,548.96,3046.125Z" transform="translate(-546.499 -3009.369)" fill="#f85316"/>
              <path id="Trazado_206557" data-name="Trazado 206557" d="M548.96,3002.8h0a1.133,1.133,0,0,1,1.565.417l1.469,2.6a.364.364,0,0,0,.65-.032l3.57-8.059a.4.4,0,0,1,.772.17,15.874,15.874,0,0,1-4.561,11.072s-2.17-.831-3.934-4.651A1.189,1.189,0,0,1,548.96,3002.8Z" transform="translate(-546.499 -2981.833)" fill="#f85316"/>
              <path id="Trazado_206558" data-name="Trazado 206558" d="M550.034,2959.842h0a1.133,1.133,0,0,1,1.565.417l1.47,2.6a.364.364,0,0,0,.649-.032l3.57-8.059a.4.4,0,0,1,.772.17,15.874,15.874,0,0,1-4.562,11.072s-2.17-.831-3.934-4.651A1.188,1.188,0,0,1,550.034,2959.842Z" transform="translate(-547.182 -2954.53)" fill="#f85316"/>
            </g>
          </g>
        </g>
        <g id="Grupo_154327" data-name="Grupo 154327" transform="translate(352.944 1450.269)">
          <path id="Trazado_206559" data-name="Trazado 206559" d="M711.078,3094.443l1.176,36.589a11.905,11.905,0,0,0,11.854,11.5l87.617.516a8.589,8.589,0,0,0,8.563-7.31c1.37-9.24,3.116-25.772,1.15-41.29Z" transform="translate(-709.14 -3042.41)" fill="url(#linear-gradient-7)"/>
          <path id="Trazado_206560" data-name="Trazado 206560" d="M814.145,3140.494a.262.262,0,0,1-.009-.523,7.941,7.941,0,0,0,1.5-.2.262.262,0,0,1,.118.51,8.538,8.538,0,0,1-1.6.214Zm-3.66-.014h0l-1.569-.009a.261.261,0,0,1,0-.523h0l1.568.009a.261.261,0,0,1,0,.523Zm-5.229-.031h0l-1.569-.009a.261.261,0,0,1,0-.523h0l1.568.009a.261.261,0,0,1,0,.523Zm-5.229-.031h0l-1.569-.009a.262.262,0,0,1,0-.523h0l1.569.01a.261.261,0,0,1,0,.522Zm-5.229-.031h0l-1.569-.009a.261.261,0,0,1-.26-.262.276.276,0,0,1,.263-.26l1.569.009a.261.261,0,0,1,0,.523Zm-5.229-.031h0l-1.569-.009a.261.261,0,0,1,0-.523h0l1.568.009a.262.262,0,0,1,0,.523Zm-5.229-.031h0l-1.569-.009a.261.261,0,0,1,0-.523h0l1.568.009a.262.262,0,0,1,0,.523Zm-5.229-.031h0l-1.568-.009a.261.261,0,0,1,0-.523h0l1.569.009a.261.261,0,0,1,0,.523Zm-5.229-.031h0l-1.569-.01a.261.261,0,0,1,0-.522h0l1.569.009a.261.261,0,0,1,0,.523Zm-5.229-.031h0l-1.569-.009a.261.261,0,0,1,0-.523h0l1.569.009a.261.261,0,0,1,0,.523Zm-5.229-.031h0l-1.569-.009a.261.261,0,0,1,0-.523h0l1.569.009a.261.261,0,0,1,0,.523Zm-5.229-.031h0l-1.569-.009a.261.261,0,0,1,0-.523h0l1.569.009a.262.262,0,0,1,0,.523Zm-5.229-.031h0l-1.569-.01a.261.261,0,0,1,0-.523h0l1.569.009a.262.262,0,0,1,0,.523Zm-5.229-.031h0l-1.569-.009a.261.261,0,0,1,0-.523h0l1.569.009a.261.261,0,0,1,0,.523Zm-5.229-.031h0l-1.569-.009a.261.261,0,0,1-.26-.263.289.289,0,0,1,.263-.26l1.569.009a.261.261,0,0,1,0,.523Zm-5.229-.031h0l-1.569-.009a.262.262,0,0,1,0-.523h0l1.569.009a.262.262,0,0,1,0,.523Zm-5.229-.031h0l-1.569-.009a.261.261,0,0,1,0-.523h0l1.569.009a.261.261,0,0,1,0,.523Zm-5.167-.584a.26.26,0,0,1-.082-.013,11.563,11.563,0,0,1-1.484-.608.261.261,0,1,1,.231-.469,11.082,11.082,0,0,0,1.416.58.261.261,0,0,1-.082.51Zm92.081-.731a.262.262,0,0,1-.164-.466,7.941,7.941,0,0,0,1.088-1.055.261.261,0,1,1,.4.339,8.481,8.481,0,0,1-1.16,1.125A.261.261,0,0,1,818.964,3138.7Zm-96.5-1.976a.259.259,0,0,1-.184-.075,11.643,11.643,0,0,1-1.06-1.2.261.261,0,1,1,.415-.318,11.259,11.259,0,0,0,1.012,1.15.261.261,0,0,1-.184.447Zm99.3-2.335a.265.265,0,0,1-.066-.008.262.262,0,0,1-.188-.319,7.775,7.775,0,0,0,.167-.822l.1-.694a.261.261,0,1,1,.517.074l-.1.7a8.336,8.336,0,0,1-.178.875A.261.261,0,0,1,821.76,3134.392Zm-102.05-2.056a.262.262,0,0,1-.247-.177,11.42,11.42,0,0,1-.409-1.55.262.262,0,1,1,.514-.1,10.892,10.892,0,0,0,.39,1.48.262.262,0,0,1-.163.332A.269.269,0,0,1,719.711,3132.336Zm102.81-3.116-.032,0a.262.262,0,0,1-.227-.292q.094-.759.186-1.555a.262.262,0,1,1,.52.06q-.092.8-.187,1.56A.262.262,0,0,1,822.521,3129.22Zm-103.464-2.044a.261.261,0,0,1-.261-.253l-.051-1.568a.262.262,0,0,1,.253-.27.267.267,0,0,1,.269.253l.051,1.568a.261.261,0,0,1-.253.27Zm104.036-3.154h-.025a.262.262,0,0,1-.235-.285q.073-.769.142-1.56a.266.266,0,0,1,.283-.238.262.262,0,0,1,.238.283q-.069.794-.143,1.565A.261.261,0,0,1,823.092,3124.021Zm-104.2-2.072a.261.261,0,0,1-.261-.253l-.05-1.568a.261.261,0,0,1,.253-.27.264.264,0,0,1,.269.253l.05,1.568a.261.261,0,0,1-.253.27Zm104.626-3.141H823.5a.262.262,0,0,1-.244-.279q.051-.773.1-1.564a.261.261,0,1,1,.522.03q-.044.791-.1,1.569A.262.262,0,0,1,823.514,3118.809Zm-104.794-2.086a.261.261,0,0,1-.261-.253l-.05-1.568a.261.261,0,1,1,.522-.016l.05,1.568a.261.261,0,0,1-.253.27Zm105.057-3.137h-.009a.262.262,0,0,1-.252-.27q.026-.779.045-1.565a.281.281,0,0,1,.268-.256.262.262,0,0,1,.255.268q-.019.79-.046,1.571A.261.261,0,0,1,823.777,3113.586ZM718.552,3111.5a.261.261,0,0,1-.261-.253l-.05-1.568a.261.261,0,0,1,.253-.269.274.274,0,0,1,.269.253l.05,1.568a.261.261,0,0,1-.253.27Zm105.313-3.14a.261.261,0,0,1-.262-.261q0-.78-.011-1.566a.262.262,0,0,1,.258-.264.275.275,0,0,1,.265.258q.01.788.011,1.572a.261.261,0,0,1-.261.261Zm-105.481-2.086a.261.261,0,0,1-.261-.253l-.051-1.568a.262.262,0,0,1,.253-.27.276.276,0,0,1,.27.253l.05,1.568a.261.261,0,0,1-.253.27Zm105.37-3.14a.261.261,0,0,1-.261-.251q-.033-.781-.075-1.563a.261.261,0,1,1,.522-.028q.044.785.076,1.57a.261.261,0,0,1-.25.272Zm-105.538-2.086a.261.261,0,0,1-.261-.253l-.051-1.567a.261.261,0,0,1,.253-.27.267.267,0,0,1,.27.253l.051,1.567a.261.261,0,0,1-.253.27Zm105.2-3.132a.261.261,0,0,1-.26-.238q-.069-.779-.15-1.558a.261.261,0,0,1,.52-.054q.081.781.151,1.565a.262.262,0,0,1-.237.283Zm-105.37-2.094a.261.261,0,0,1-.261-.253l-.05-1.568a.262.262,0,0,1,.253-.27.277.277,0,0,1,.27.253l.05,1.568a.261.261,0,0,1-.253.27Zm103.432-1.568h-1.569a.261.261,0,0,1,0-.523h1.569a.261.261,0,0,1,0,.523Zm-5.229,0h-1.569a.261.261,0,0,1,0-.523h1.569a.261.261,0,0,1,0,.523Zm-5.229,0h-1.568a.261.261,0,1,1,0-.523h1.568a.261.261,0,1,1,0,.523Zm-5.229,0h-1.569a.261.261,0,0,1,0-.523h1.569a.261.261,0,0,1,0,.523Zm-5.229,0h-1.569a.261.261,0,0,1,0-.523h1.569a.261.261,0,0,1,0,.523Zm-5.229,0h-1.569a.261.261,0,1,1,0-.523h1.569a.261.261,0,1,1,0,.523Zm-5.229,0h-1.569a.261.261,0,0,1,0-.523h1.569a.261.261,0,0,1,0,.523Zm-5.229,0h-1.569a.261.261,0,0,1,0-.523h1.569a.261.261,0,0,1,0,.523Zm-5.229,0h-1.569a.261.261,0,1,1,0-.523h1.569a.261.261,0,1,1,0,.523Zm-5.229,0h-1.569a.261.261,0,0,1,0-.523h1.569a.261.261,0,0,1,0,.523Zm-5.229,0H767.62a.261.261,0,1,1,0-.523h1.569a.261.261,0,1,1,0,.523Zm-5.229,0h-1.569a.261.261,0,1,1,0-.523h1.569a.261.261,0,1,1,0,.523Zm-5.229,0h-1.569a.261.261,0,0,1,0-.523h1.569a.261.261,0,0,1,0,.523Zm-5.229,0h-1.568a.261.261,0,1,1,0-.523H753.5a.261.261,0,1,1,0,.523Zm-5.229,0H746.7a.261.261,0,0,1,0-.523h1.569a.261.261,0,0,1,0,.523Zm-5.229,0h-1.569a.261.261,0,0,1,0-.523h1.569a.261.261,0,0,1,0,.523Zm-5.229,0h-1.568a.261.261,0,1,1,0-.523h1.568a.261.261,0,1,1,0,.523Zm-5.229,0h-1.569a.261.261,0,0,1,0-.523h1.569a.261.261,0,0,1,0,.523Zm-5.229,0h-1.569a.261.261,0,0,1,0-.523h1.569a.261.261,0,0,1,0,.523Zm-5.229,0h-1.569a.261.261,0,1,1,0-.523h1.569a.261.261,0,1,1,0,.523Z" transform="translate(-713.372 -3041.954)" fill="#fff"/>
          <path id="Trazado_206561" data-name="Trazado 206561" d="M781.537,3013.617l.263-2.822a2.17,2.17,0,0,1,1.646-1.267c2.73-.435,9.5-1.2,12.759,1.238l.487,3.279Z" transform="translate(-753.921 -2988.146)" fill="url(#linear-gradient-8)"/>
          <path id="Trazado_206562" data-name="Trazado 206562" d="M799.371,2995.813a3.921,3.921,0,0,1-1.889,0,1.706,1.706,0,0,1-1.3-1.653v-8.836h4.5v8.83A1.713,1.713,0,0,1,799.371,2995.813Z" transform="translate(-763.228 -2973.056)" fill="#75b62f"/>
          <path id="Trazado_206563" data-name="Trazado 206563" d="M901.046,3013.617l.263-2.822a2.17,2.17,0,0,1,1.645-1.267c2.73-.435,9.5-1.2,12.759,1.238l.487,3.279Z" transform="translate(-829.877 -2988.146)" fill="url(#linear-gradient-9)"/>
          <path id="Trazado_206564" data-name="Trazado 206564" d="M918.88,2994.19a3.921,3.921,0,0,1-1.889,0,1.706,1.706,0,0,1-1.3-1.653v-9.767h4.5v9.76A1.713,1.713,0,0,1,918.88,2994.19Z" transform="translate(-839.184 -2971.433)" fill="#75b62f"/>
          <path id="Trazado_206565" data-name="Trazado 206565" d="M790.852,2966.1l48.358-1.6a2.331,2.331,0,0,0,2.227-1.914,19.7,19.7,0,0,0,.15-6.13,5.577,5.577,0,0,0-5.406-4.721c-9.021-.215-31.987-.208-44.645,4.8a4.421,4.421,0,0,0-2.671,3.068,10.717,10.717,0,0,0-.116,4.91A2.081,2.081,0,0,0,790.852,2966.1Z" transform="translate(-758.357 -2951.666)" fill="#75b62f"/>
          <path id="Trazado_206566" data-name="Trazado 206566" d="M791.654,2968.654a.523.523,0,0,1-.52-.47,11.689,11.689,0,0,1,.3-3.756,4.345,4.345,0,0,1,2.958-3.007,53.457,53.457,0,0,1,12.127-2.265.523.523,0,0,1,.029,1.045,52.371,52.371,0,0,0-11.861,2.223,3.289,3.289,0,0,0-2.243,2.276,10.738,10.738,0,0,0-.268,3.378.523.523,0,0,1-.468.573Z" transform="translate(-759.996 -2956.426)" fill="#fff"/>
          <path id="Trazado_206567" data-name="Trazado 206567" d="M710.94,3018.1c15.623-.2,83.207-.91,102.839,1.458a4,4,0,0,1,3.436,3.1c1.16,5.244,3.494,17.427,3.217,29.5a3.5,3.5,0,0,1-2.865,3.337l-44.813,8.478H756.835l-47.749-9.491a3.734,3.734,0,0,1-3.011-3.466c-.31-6.076-.8-20.331.848-29.507A4.131,4.131,0,0,1,710.94,3018.1Z" transform="translate(-705.761 -2993.724)" fill="url(#linear-gradient-10)"/>
          <path id="Trazado_206568" data-name="Trazado 206568" d="M763.5,3066.646a.266.266,0,0,1-.051,0l-1.539-.306a.261.261,0,1,1,.1-.513l1.525.3.035,0h1.568a.261.261,0,1,1,0,.523h-1.568l-.036,0Zm12.1,0h-1.569a.261.261,0,0,1,0-.523H775.6a.261.261,0,0,1,0,.523Zm-5.229,0H768.8a.261.261,0,0,1,0-.523h1.569a.261.261,0,0,1,0,.523Zm8.879-.108a.262.262,0,0,1-.048-.519l1.541-.292a.261.261,0,1,1,.1.514l-1.541.292A.24.24,0,0,1,779.246,3066.539Zm-20.878-.911a.234.234,0,0,1-.051-.005l-1.539-.306a.261.261,0,0,1,.1-.513l1.539.306a.262.262,0,0,1-.051.518Zm26.016-.062a.261.261,0,0,1-.048-.518l1.542-.292a.261.261,0,1,1,.1.513l-1.542.292A.274.274,0,0,1,784.383,3065.566Zm-31.144-.958a.262.262,0,0,1-.051,0l-1.539-.306a.262.262,0,0,1,.1-.513l1.539.306a.261.261,0,0,1-.051.518Zm36.282-.013a.262.262,0,0,1-.048-.519l1.541-.292a.261.261,0,1,1,.1.514l-1.541.292A.279.279,0,0,1,789.522,3064.594Zm5.138-.972a.262.262,0,0,1-.048-.519l1.542-.292a.261.261,0,1,1,.1.514l-1.542.292A.326.326,0,0,1,794.66,3063.622Zm-46.55-.034a.234.234,0,0,1-.051-.005l-1.539-.306a.261.261,0,1,1,.1-.513l1.539.306a.262.262,0,0,1-.051.518Zm51.687-.938a.262.262,0,0,1-.048-.519l1.541-.292a.261.261,0,1,1,.1.514l-1.541.292A.279.279,0,0,1,799.8,3062.65Zm-56.816-.082a.261.261,0,0,1-.051,0l-1.539-.305a.262.262,0,0,1,.1-.513l1.539.306a.261.261,0,0,1-.051.518Zm61.954-.891a.261.261,0,0,1-.048-.518l1.542-.292a.261.261,0,1,1,.1.513l-1.542.292A.272.272,0,0,1,804.936,3061.678Zm-67.083-.128a.23.23,0,0,1-.051-.005l-1.539-.306a.261.261,0,0,1,.1-.513l1.539.306a.262.262,0,0,1-.051.518Zm72.221-.843a.262.262,0,0,1-.048-.519l1.541-.291a.261.261,0,0,1,.1.514l-1.542.292A.279.279,0,0,1,810.074,3060.706Zm-77.35-.176a.26.26,0,0,1-.051,0l-1.539-.306a.261.261,0,1,1,.1-.513l1.539.306a.261.261,0,0,1-.051.518Zm82.488-.8a.262.262,0,0,1-.049-.519l1.542-.292a.262.262,0,0,1,.1.514l-1.542.291A.272.272,0,0,1,815.212,3059.734Zm-87.617-.224a.234.234,0,0,1-.051-.005l-1.539-.306a.261.261,0,0,1,.1-.513l1.538.306a.262.262,0,0,1-.051.518Zm92.755-.748a.262.262,0,0,1-.048-.519l1.541-.292a.261.261,0,0,1,.1.514l-1.542.292A.24.24,0,0,1,820.35,3058.762Zm-97.883-.271a.263.263,0,0,1-.051,0l-1.539-.306a.261.261,0,0,1-.205-.308.258.258,0,0,1,.307-.205l1.539.306a.261.261,0,0,1-.051.518Zm-5.129-1.019a.229.229,0,0,1-.051-.005l-1.329-.265-.031-.621a.262.262,0,0,1,.249-.273.249.249,0,0,1,.274.249l.011.213.929.185a.262.262,0,0,1-.051.518Zm105.53-1.86a.262.262,0,0,1-.261-.258q-.01-.784-.033-1.564a.262.262,0,0,1,.254-.269.273.273,0,0,1,.269.254q.023.784.033,1.573a.262.262,0,0,1-.258.265Zm-106.83-2.439a.261.261,0,0,1-.261-.253c-.017-.5-.033-1.028-.048-1.57a.261.261,0,0,1,.254-.268.275.275,0,0,1,.269.254c.015.541.031,1.064.047,1.567a.261.261,0,0,1-.253.27Zm106.625-2.784a.262.262,0,0,1-.261-.245q-.051-.787-.112-1.562a.261.261,0,0,1,.521-.041q.061.779.113,1.569a.262.262,0,0,1-.244.278Zm-106.744-2.445a.262.262,0,0,1-.262-.258q-.009-.773-.012-1.571a.262.262,0,0,1,.261-.262h0a.261.261,0,0,1,.262.261q0,.794.012,1.566a.261.261,0,0,1-.258.264Zm106.291-2.767a.262.262,0,0,1-.26-.234q-.085-.787-.178-1.556a.262.262,0,0,1,.228-.291.258.258,0,0,1,.291.229q.093.771.179,1.562a.262.262,0,0,1-.232.289Zm-106.284-2.462h0a.261.261,0,0,1-.257-.265q.011-.783.032-1.571a.267.267,0,0,1,.268-.255.261.261,0,0,1,.255.268q-.02.784-.031,1.566A.261.261,0,0,1,715.924,3042.713Zm105.621-2.726a.262.262,0,0,1-.258-.224q-.117-.793-.236-1.549a.261.261,0,1,1,.516-.082q.12.759.237,1.555a.262.262,0,0,1-.22.3Zm-105.45-2.5h-.014a.261.261,0,0,1-.248-.274q.041-.79.093-1.57a.258.258,0,0,1,.278-.243.262.262,0,0,1,.244.278q-.052.776-.093,1.563A.261.261,0,0,1,716.095,3037.486Zm104.6-2.661a.261.261,0,0,1-.257-.214q-.149-.811-.291-1.54a.261.261,0,1,1,.513-.1q.143.732.292,1.545a.262.262,0,0,1-.21.3A.318.318,0,0,1,820.692,3034.825ZM716.5,3032.272h-.029a.261.261,0,0,1-.231-.289c.059-.532.123-1.055.192-1.564a.256.256,0,0,1,.294-.224.261.261,0,0,1,.224.294q-.1.758-.19,1.551A.262.262,0,0,1,716.5,3032.272Zm102.93-2.364-.031,0q-.726-.085-1.555-.167a.261.261,0,0,1-.235-.286.265.265,0,0,1,.286-.235q.834.083,1.565.168a.262.262,0,0,1-.03.522Zm-5.208-.471h-.019q-.754-.054-1.563-.105a.261.261,0,0,1,.033-.521q.811.051,1.567.105a.262.262,0,0,1-.019.522Zm-5.22-.312h-.013q-.765-.038-1.566-.075a.261.261,0,1,1,.024-.522q.8.037,1.568.076a.261.261,0,0,1-.013.522Zm-5.224-.229h-.01l-1.567-.057a.261.261,0,0,1-.252-.27.273.273,0,0,1,.27-.253l1.569.057a.262.262,0,0,1-.009.523Zm-5.227-.174h-.008l-1.568-.044a.262.262,0,0,1-.254-.269.255.255,0,0,1,.269-.255l1.569.045a.262.262,0,0,1-.008.523Zm-5.227-.135h-.006l-1.568-.035a.262.262,0,0,1,.005-.523h.006l1.569.035a.262.262,0,0,1-.005.523Zm-5.229-.105h0l-1.569-.027a.261.261,0,0,1,0-.523h0l1.569.027a.261.261,0,0,1,0,.523Zm-69.56,0a.261.261,0,0,1,0-.522l1.57-.02h0a.261.261,0,0,1,0,.523l-1.569.019Zm5.232-.06a.261.261,0,0,1,0-.523l1.57-.016h0a.261.261,0,0,1,0,.523l-1.57.016Zm59.1-.022h0l-1.568-.02a.261.261,0,0,1,0-.523h0l1.569.021a.261.261,0,0,1,0,.522ZM729,3028.371a.261.261,0,0,1,0-.523l1.569-.014h0a.261.261,0,0,1,0,.523l-1.57.014Zm48.639-.033h0l-1.568-.015a.261.261,0,0,1,0-.523h0l1.569.015a.261.261,0,0,1,0,.523Zm-43.408-.009a.261.261,0,0,1,0-.523l1.569-.012h0a.262.262,0,0,1,0,.523l-1.569.011Zm38.179-.036h0l-1.568-.01a.261.261,0,0,1,0-.523h0l1.569.01a.261.261,0,0,1,0,.523Zm-32.948,0a.261.261,0,0,1,0-.523l1.57-.009h0a.261.261,0,0,1,0,.523l-1.569.009Zm5.231-.026a.261.261,0,0,1,0-.523l1.569-.006h0a.261.261,0,0,1,0,.523l-1.569.006Zm22.487,0h0l-1.569-.006a.261.261,0,0,1,0-.523h0l1.569.006a.261.261,0,0,1,0,.523Zm-17.257-.014a.261.261,0,0,1,0-.523l1.569,0a.261.261,0,1,1,0,.523l-1.569,0Zm12.027,0h0l-1.569,0a.261.261,0,1,1,0-.523h0l1.569,0a.261.261,0,1,1,0,.523Zm-6.8,0a.262.262,0,0,1,0-.523h1.564a.264.264,0,0,1,.264.262.259.259,0,0,1-.258.262h-1.569Z" transform="translate(-712.042 -3000.002)" fill="#fff"/>
          <path id="Trazado_206569" data-name="Trazado 206569" d="M852.05,3126.822H838.1a3.6,3.6,0,0,1-3.583-3.166l-1.611-13.419a3.6,3.6,0,0,1,3.584-4.019h16.753a3.6,3.6,0,0,1,3.6,3.909l-1.2,13.42A3.6,3.6,0,0,1,852.05,3126.822Z" transform="translate(-786.556 -3049.895)" fill="url(#linear-gradient-11)"/>
        </g>
        <g id="Grupo_154336" data-name="Grupo 154336" transform="translate(362.655 1345.883)">
          <g id="Grupo_154331" data-name="Grupo 154331" transform="translate(29.03)">
            <g id="Grupo_154328" data-name="Grupo 154328">
              <path id="Trazado_206570" data-name="Trazado 206570" d="M813.076,2703.033a.84.84,0,0,1-.834-.752c-.1-.943-.158-1.9-.176-2.857a.84.84,0,0,1,.823-.855h.016a.839.839,0,0,1,.839.823c.017.905.073,1.818.167,2.714a.839.839,0,0,1-.747.922A.768.768,0,0,1,813.076,2703.033Zm.054-7.312a.86.86,0,0,1-.1-.006.839.839,0,0,1-.735-.932c.112-.946.265-1.9.456-2.824a.839.839,0,1,1,1.644.338c-.182.882-.327,1.785-.433,2.683A.84.84,0,0,1,813.13,2695.721Zm1.663-7.118a.839.839,0,0,1-.79-1.121c.319-.9.68-1.788,1.075-2.652a.839.839,0,0,1,1.527.7c-.375.821-.718,1.668-1.021,2.519A.84.84,0,0,1,814.792,2688.6Zm3.214-6.569a.84.84,0,0,1-.707-1.291c.512-.8,1.063-1.591,1.641-2.345a.839.839,0,0,1,1.333,1.021c-.548.717-1.073,1.466-1.559,2.228A.84.84,0,0,1,818.006,2682.034Zm4.6-5.688a.839.839,0,0,1-.59-1.436c.675-.667,1.388-1.313,2.119-1.923a.839.839,0,1,1,1.075,1.29c-.695.579-1.372,1.194-2.014,1.828A.837.837,0,0,1,822.6,2676.346Zm5.74-4.528a.839.839,0,0,1-.444-1.552c.806-.5,1.645-.975,2.492-1.406a.839.839,0,0,1,.762,1.5c-.8.41-1.6.86-2.368,1.336A.836.836,0,0,1,828.344,2671.818Zm30.756-2a.84.84,0,0,1-.347-.076c-.821-.373-1.669-.715-2.521-1.017a.839.839,0,1,1,.56-1.582c.9.317,1.791.678,2.656,1.071a.84.84,0,0,1-.348,1.6Zm-24.158-1.144a.839.839,0,0,1-.274-1.633c.9-.31,1.821-.584,2.742-.816a.839.839,0,0,1,.409,1.628c-.875.22-1.751.48-2.6.774A.843.843,0,0,1,834.941,2668.677Zm17.2-1.112a.825.825,0,0,1-.168-.017c-.884-.18-1.788-.324-2.686-.429a.839.839,0,1,1,.194-1.667c.945.11,1.9.261,2.826.451a.839.839,0,0,1-.167,1.662Zm-10.07-.478a.839.839,0,0,1-.088-1.674c.943-.1,1.9-.162,2.856-.182h.018a.839.839,0,0,1,.017,1.678c-.9.019-1.816.077-2.713.173C842.134,2667.086,842.1,2667.087,842.074,2667.087Z" transform="translate(-812.066 -2665.232)" fill="#bdd0fb"/>
              <path id="Trazado_206571" data-name="Trazado 206571" d="M951.771,2681.592a.838.838,0,0,1-.478-.15c-.355-.248-.722-.491-1.089-.725a.839.839,0,1,1,.9-1.416c.386.246.772.5,1.145.762a.84.84,0,0,1-.48,1.529Z" transform="translate(-899.615 -2674.09)" fill="#bdd0fb"/>
            </g>
            <g id="Grupo_154329" data-name="Grupo 154329" transform="translate(12.816 26.155)">
              <path id="Trazado_206572" data-name="Trazado 206572" d="M990.716,2740a.84.84,0,0,1-.828-.707c-.068-.427-.147-.86-.234-1.287a.839.839,0,0,1,1.645-.334c.091.45.174.905.246,1.355a.84.84,0,0,1-.829.973Z" transform="translate(-937.74 -2737.001)" fill="#bdd0fb"/>
              <path id="Trazado_206573" data-name="Trazado 206573" d="M876.54,2787.937q-.579,0-1.163-.02a.839.839,0,1,1,.056-1.678c.9.03,1.795.024,2.676-.019a.839.839,0,0,1,.082,1.677C877.647,2787.923,877.091,2787.937,876.54,2787.937Zm-5.571-.471a.832.832,0,0,1-.143-.012c-.923-.157-1.85-.356-2.754-.59a.839.839,0,1,1,.421-1.625c.859.222,1.739.411,2.617.561a.839.839,0,0,1-.141,1.667Zm11.609-.092a.839.839,0,0,1-.155-1.664c.871-.164,1.748-.367,2.6-.606a.84.84,0,1,1,.449,1.618c-.9.25-1.825.465-2.743.638A.851.851,0,0,1,882.578,2787.374Zm-18.527-1.9a.835.835,0,0,1-.319-.064c-.865-.356-1.725-.754-2.557-1.182a.839.839,0,0,1,.768-1.492c.79.406,1.606.784,2.428,1.122a.84.84,0,0,1-.32,1.616Zm25.4-.21a.839.839,0,0,1-.333-1.61c.813-.351,1.624-.743,2.407-1.163a.839.839,0,1,1,.793,1.479c-.825.443-1.678.854-2.535,1.224A.828.828,0,0,1,889.454,2785.27Zm6.248-3.562a.839.839,0,0,1-.494-1.518c.719-.522,1.425-1.082,2.1-1.662a.839.839,0,1,1,1.1,1.271c-.707.61-1.45,1.2-2.207,1.748A.833.833,0,0,1,895.7,2781.707Zm5.323-4.84a.839.839,0,0,1-.629-1.395c.589-.667,1.156-1.366,1.686-2.078a.839.839,0,1,1,1.347,1c-.557.749-1.154,1.485-1.773,2.187A.838.838,0,0,1,901.025,2776.867Zm4.14-5.885a.84.84,0,0,1-.735-1.244c.429-.78.828-1.585,1.189-2.4a.839.839,0,1,1,1.534.681c-.379.854-.8,1.7-1.251,2.524A.84.84,0,0,1,905.164,2770.982Zm2.748-6.653a.84.84,0,0,1-.807-1.072c.245-.853.458-1.727.631-2.6a.839.839,0,0,1,1.647.327c-.183.918-.406,1.838-.664,2.736A.84.84,0,0,1,907.913,2764.328Zm1.218-7.09h-.052a.84.84,0,0,1-.787-.889c.04-.653.06-1.315.06-1.968q0-.355-.008-.708a.839.839,0,0,1,.821-.857.83.83,0,0,1,.858.82q.008.372.008.744c0,.687-.021,1.384-.063,2.071A.839.839,0,0,1,909.131,2757.239Z" transform="translate(-855.805 -2747.052)" fill="#bdd0fb"/>
              <path id="Trazado_206574" data-name="Trazado 206574" d="M849.153,2828.6a.836.836,0,0,1-.482-.152c-.372-.261-.745-.535-1.11-.815a.839.839,0,0,1,1.021-1.333c.346.266.7.526,1.054.774a.839.839,0,0,1-.483,1.526Z" transform="translate(-847.233 -2793.648)" fill="#bdd0fb"/>
            </g>
            <g id="Grupo_154330" data-name="Grupo 154330" transform="translate(8.233 7.951)">
              <path id="Trazado_206575" data-name="Trazado 206575" d="M842.292,2730.473a.391.391,0,0,0,.439.12l4.481-1.648a20.793,20.793,0,0,0,5.933,3.2l1.093,4.645a.393.393,0,0,0,.342.3l5.7.577a.392.392,0,0,0,.4-.226l2-4.331a20.813,20.813,0,0,0,6.453-1.94l4.059,2.513a.392.392,0,0,0,.454-.03l4.437-3.621a.392.392,0,0,0,.12-.439l-1.648-4.481a20.8,20.8,0,0,0,3.2-5.933l4.644-1.093a.391.391,0,0,0,.3-.342l.577-5.7a.392.392,0,0,0-.226-.4l-4.331-2a20.8,20.8,0,0,0-1.94-6.453l2.513-4.06a.392.392,0,0,0-.029-.454l-3.621-4.437a.393.393,0,0,0-.44-.121l-4.481,1.648a20.786,20.786,0,0,0-5.933-3.2l-1.093-4.644a.392.392,0,0,0-.342-.3l-5.7-.577a.391.391,0,0,0-.4.226l-2,4.331a20.8,20.8,0,0,0-6.453,1.94l-4.06-2.513a.392.392,0,0,0-.455.03l-4.437,3.621a.392.392,0,0,0-.12.439l1.648,4.481a20.8,20.8,0,0,0-3.195,5.933l-4.645,1.093a.392.392,0,0,0-.3.342l-.577,5.7a.392.392,0,0,0,.226.4l4.331,2a20.8,20.8,0,0,0,1.94,6.453l-2.513,4.06a.392.392,0,0,0,.03.454Z" transform="translate(-834.656 -2687.049)" fill="#75b62f"/>
              <path id="Trazado_206576" data-name="Trazado 206576" d="M894.055,2752.208a5.76,5.76,0,1,1,.843-.062A5.765,5.765,0,0,1,894.055,2752.208Zm.013-10.171a4.536,4.536,0,0,0-.653.048,4.4,4.4,0,1,0,.653-.048Z" transform="translate(-868.751 -2721.143)" fill="#fff" opacity="0.56"/>
              <path id="Trazado_206577" data-name="Trazado 206577" d="M879.68,2745.729a14.392,14.392,0,0,1-1.453-.073h0q-.23-.023-.458-.054a14.244,14.244,0,0,1-2.216-.479l-.029-.009-.084-.026-.162-.051a.336.336,0,0,1-.232-.319.331.331,0,0,1,.017-.1.335.335,0,0,1,.423-.216,13.5,13.5,0,0,0,14.76-4.488,13.4,13.4,0,0,0,2.823-6.979,13.662,13.662,0,0,0,.07-1.385,13.484,13.484,0,1,0-25.7,5.749.336.336,0,1,1-.608.285,14.113,14.113,0,0,1-1.336-6,14.159,14.159,0,0,1,15.581-14.092,14.158,14.158,0,0,1,12.729,14.054,14.467,14.467,0,0,1-.074,1.455,14.157,14.157,0,0,1-14.056,12.729Z" transform="translate(-854.259 -2706.351)" fill="#fff" opacity="0.56"/>
            </g>
          </g>
          <g id="Grupo_154335" data-name="Grupo 154335" transform="translate(0 30.881)">
            <g id="Grupo_154332" data-name="Grupo 154332">
              <path id="Trazado_206578" data-name="Trazado 206578" d="M734.771,2825.653a.518.518,0,0,1-.5-.373c-.124-.422-.237-.854-.335-1.283a.518.518,0,1,1,1.01-.232c.094.409.2.82.32,1.223a.519.519,0,0,1-.351.644A.525.525,0,0,1,734.771,2825.653Z" transform="translate(-733.372 -2796.615)" fill="#bdd0fb"/>
              <path id="Trazado_206579" data-name="Trazado 206579" d="M733.04,2775.094a.518.518,0,0,1-.515-.466,22.528,22.528,0,0,1-.116-2.278q0-.239.005-.479a.537.537,0,0,1,.529-.508.519.519,0,0,1,.508.529q0,.23-.005.458a21.525,21.525,0,0,0,.11,2.173.519.519,0,0,1-.463.568Zm.114-5.381a.511.511,0,0,1-.074-.005.519.519,0,0,1-.44-.587,22.408,22.408,0,0,1,.56-2.7.518.518,0,1,1,1,.272,21.469,21.469,0,0,0-.534,2.577A.518.518,0,0,1,733.154,2769.713Zm1.415-5.193a.518.518,0,0,1-.479-.716,22.368,22.368,0,0,1,1.207-2.483.518.518,0,1,1,.9.51,21.238,21.238,0,0,0-1.151,2.367A.519.519,0,0,1,734.569,2764.52Zm2.649-4.687a.518.518,0,0,1-.416-.827,22.381,22.381,0,0,1,1.778-2.112.518.518,0,0,1,.75.716,21.444,21.444,0,0,0-1.7,2.013A.516.516,0,0,1,737.218,2759.833Zm3.713-3.9a.518.518,0,0,1-.329-.919,22.624,22.624,0,0,1,2.236-1.616.518.518,0,1,1,.555.876,21.66,21.66,0,0,0-2.133,1.542A.514.514,0,0,1,740.931,2755.936Zm4.546-2.877a.519.519,0,0,1-.222-.987,22.227,22.227,0,0,1,2.562-1.021.518.518,0,0,1,.324.985,21.3,21.3,0,0,0-2.443.973A.514.514,0,0,1,745.477,2753.059Zm5.11-1.678a.518.518,0,0,1-.1-1.027,22.475,22.475,0,0,1,2.736-.362.519.519,0,0,1,.072,1.035,21.374,21.374,0,0,0-2.609.344A.518.518,0,0,1,750.587,2751.381Zm8.048-.066a.506.506,0,0,1-.091-.008,21.54,21.54,0,0,0-2.272-.278c-.116-.009-.229-.016-.343-.021a.519.519,0,0,1,.054-1.036c.121.007.242.014.363.023a22.632,22.632,0,0,1,2.38.292.518.518,0,0,1-.09,1.029Z" transform="translate(-732.409 -2749.969)" fill="#bdd0fb"/>
            </g>
            <g id="Grupo_154333" data-name="Grupo 154333" transform="translate(8.58 31.653)">
              <path id="Trazado_206580" data-name="Trazado 206580" d="M775.919,2849.92a.518.518,0,0,1-.007-1.037,21.434,21.434,0,0,0,2.581-.19.519.519,0,0,1,.139,1.028,22.556,22.556,0,0,1-2.706.2Zm-2.649-.125a.547.547,0,0,1-.056,0,22.712,22.712,0,0,1-2.677-.451.519.519,0,0,1,.233-1.01,21.721,21.721,0,0,0,2.554.431.518.518,0,0,1-.055,1.034Zm7.894-.584a.518.518,0,0,1-.132-1.02,21.381,21.381,0,0,0,2.46-.809.519.519,0,0,1,.383.964,22.477,22.477,0,0,1-2.579.847A.507.507,0,0,1,781.164,2849.211Zm-13.054-.612a.51.51,0,0,1-.177-.032,22.15,22.15,0,0,1-2.49-1.084.518.518,0,1,1,.471-.923,21.388,21.388,0,0,0,2.374,1.034.518.518,0,0,1-.178,1.005Zm17.972-1.344a.519.519,0,0,1-.249-.974,21.31,21.31,0,0,0,2.193-1.376.518.518,0,1,1,.6.843,22.463,22.463,0,0,1-2.3,1.443A.518.518,0,0,1,786.083,2847.255Zm4.305-3.078a.519.519,0,0,1-.351-.9,21.674,21.674,0,0,0,1.8-1.861.518.518,0,0,1,.787.675,22.6,22.6,0,0,1-1.888,1.951A.516.516,0,0,1,790.388,2844.177Zm3.444-4.022a.519.519,0,0,1-.431-.806,21.112,21.112,0,0,0,1.3-2.238.518.518,0,0,1,.926.466,22.41,22.41,0,0,1-1.365,2.348A.519.519,0,0,1,793.832,2840.155Z" transform="translate(-761.805 -2836.825)" fill="#bdd0fb"/>
              <path id="Trazado_206581" data-name="Trazado 206581" d="M757.521,2859.363a.517.517,0,0,1-.29-.089c-.368-.249-.729-.51-1.075-.774a.519.519,0,1,1,.631-.823c.33.252.675.5,1.026.739a.518.518,0,0,1-.291.948Z" transform="translate(-755.953 -2850.01)" fill="#bdd0fb"/>
            </g>
            <g id="Grupo_154334" data-name="Grupo 154334" transform="translate(5.47 5.252)">
              <path id="Trazado_206582" data-name="Trazado 206582" d="M752.528,2793.439a.264.264,0,0,0,.294.081l3-1.1a13.9,13.9,0,0,0,3.97,2.138l.731,3.108a.262.262,0,0,0,.229.2l3.813.386a.262.262,0,0,0,.265-.151l1.34-2.9a13.9,13.9,0,0,0,4.318-1.3l2.717,1.682a.263.263,0,0,0,.3-.02l2.969-2.423a.262.262,0,0,0,.08-.293l-1.1-3a13.9,13.9,0,0,0,2.138-3.97l3.108-.731a.262.262,0,0,0,.2-.229l.386-3.813a.263.263,0,0,0-.151-.265l-2.9-1.339a13.925,13.925,0,0,0-1.3-4.318l1.682-2.716a.263.263,0,0,0-.02-.3l-2.423-2.969a.263.263,0,0,0-.294-.081l-3,1.1a13.914,13.914,0,0,0-3.97-2.138l-.731-3.108a.262.262,0,0,0-.229-.2l-3.813-.386a.262.262,0,0,0-.265.151l-1.34,2.9a13.908,13.908,0,0,0-4.318,1.3l-2.716-1.682a.263.263,0,0,0-.3.02l-2.969,2.423a.262.262,0,0,0-.08.294l1.1,3a13.907,13.907,0,0,0-2.138,3.97l-3.108.731a.262.262,0,0,0-.2.229l-.386,3.813a.263.263,0,0,0,.151.265l2.9,1.339a13.917,13.917,0,0,0,1.3,4.318l-1.682,2.717a.263.263,0,0,0,.02.3Z" transform="translate(-747.418 -2764.383)" fill="#dce736"/>
              <path id="Trazado_206583" data-name="Trazado 206583" d="M787.039,2807.935a3.933,3.933,0,1,1,.58-.043A3.972,3.972,0,0,1,787.039,2807.935Zm.01-6.806a2.884,2.884,0,1,0,.419,5.738h0a2.884,2.884,0,0,0-.419-5.738Z" transform="translate(-770.113 -2787.078)" fill="#fff" opacity="0.56"/>
              <path id="Trazado_206584" data-name="Trazado 206584" d="M777.023,2803.428a9.858,9.858,0,0,1-2.941-.45l-.085-.027a.519.519,0,0,1-.359-.492.525.525,0,0,1,.025-.16.52.52,0,0,1,.653-.333,8.732,8.732,0,0,0,1.819.382h0l.1.01a8.646,8.646,0,0,0,4.222-.669,8.791,8.791,0,0,0,2.013-1.213l.015-.012.046-.038a8.727,8.727,0,1,0-13.424-3.059.512.512,0,0,1,.049.22.518.518,0,0,1-.988.22,9.766,9.766,0,1,1,18.61-4.164,9.88,9.88,0,0,1-.051,1A9.779,9.779,0,0,1,777.023,2803.428Z" transform="translate(-760.023 -2776.784)" fill="#fff" opacity="0.56"/>
            </g>
          </g>
        </g>
        <g id="Grupo_154337" data-name="Grupo 154337" transform="translate(281 1387.877)">
          <path id="Trazado_206585" data-name="Trazado 206585" d="M549.163,3031l-73.057,60.2a6.811,6.811,0,0,0-.573,9.983l.452.469a6.332,6.332,0,0,0,8.982.136l68.094-66.488Z" transform="translate(-473.626 -2943.696)" fill="url(#linear-gradient-12)"/>
          <ellipse id="Elipse_12961" data-name="Elipse 12961" cx="43.913" cy="43.121" rx="43.913" ry="43.121" transform="matrix(0.943, -0.334, 0.334, 0.943, 51.798, 29.305)" fill="#fff" opacity="0.5"/>
          <path id="Trazado_206586" data-name="Trazado 206586" d="M667.753,2814.08c-25.44,9-38.9,36.555-30.054,61.537s36.633,37.933,62.074,28.929,38.9-36.555,30.054-61.536S693.193,2805.075,667.753,2814.08ZM697.42,2897.9c-21.7,7.681-45.412-3.368-52.955-24.679s3.936-44.815,25.639-52.5,45.412,3.368,52.955,24.68S719.123,2890.219,697.42,2897.9Z" transform="translate(-576.179 -2804.01)" fill="url(#linear-gradient-13)"/>
          <path id="Trazado_206587" data-name="Trazado 206587" d="M648.705,2885.347a.125.125,0,0,1-.112-.069c-.513-1.018-.994-2.07-1.428-3.127a.125.125,0,0,1,.232-.1c.431,1.052.909,2.1,1.42,3.11a.125.125,0,0,1-.112.181Zm-4.161-12.76a.125.125,0,0,1-.124-.1,43.987,43.987,0,0,1-.523-9.341,44.939,44.939,0,0,1,8.841-24.516,46.359,46.359,0,0,1,47.137-17.577.125.125,0,1,1-.055.244,46.108,46.108,0,0,0-46.882,17.482,44.692,44.692,0,0,0-8.792,24.379,43.719,43.719,0,0,0,.52,9.288.125.125,0,0,1-.1.144Z" transform="translate(-581.81 -2809.562)" fill="#fff"/>
          <path id="Trazado_206588" data-name="Trazado 206588" d="M485.095,3196.146c-2.811,0-4.63-.98-5.411-2.915a5.09,5.09,0,0,1,1.5-5.729l8.679-7.49a.125.125,0,1,1,.164.19l-8.679,7.49a4.837,4.837,0,0,0-1.427,5.445c.746,1.85,2.508,2.779,5.265,2.758h0a.125.125,0,0,1,0,.25Z" transform="translate(-477.256 -3038.383)" fill="#fff"/>
          <path id="Trazado_206589" data-name="Trazado 206589" d="M515.554,3172.206a.124.124,0,0,1-.095-.043.126.126,0,0,1,.013-.177l1.125-.97a.125.125,0,1,1,.164.189l-1.125.971A.124.124,0,0,1,515.554,3172.206Z" transform="translate(-500.194 -3032.665)" fill="#fff"/>
        </g>
      </g>
    </g>
  </g>
</svg>
