<svg xmlns="http://www.w3.org/2000/svg" xmlns:xlink="http://www.w3.org/1999/xlink" width="1030" height="550.124" viewBox="0 0 1030 550.124">
  <defs>
    <linearGradient id="linear-gradient" x1="-8.543" y1="-9.09" x2="-9.015" y2="-8.539" gradientUnits="objectBoundingBox">
      <stop offset="0" stop-color="#12ad11"/>
      <stop offset="0.106" stop-color="#21b213"/>
      <stop offset="0.525" stop-color="#5bc51c"/>
      <stop offset="0.835" stop-color="#7fd121"/>
      <stop offset="1" stop-color="#8dd624"/>
    </linearGradient>
    <linearGradient id="linear-gradient-2" x1="0.754" y1="0.201" x2="0.398" y2="0.883" xlink:href="#linear-gradient"/>
    <linearGradient id="linear-gradient-3" x1="-5.61" y1="-8.604" x2="-6.667" y2="-8.935" xlink:href="#linear-gradient"/>
    <linearGradient id="linear-gradient-4" x1="-7.382" y1="-4.211" x2="-9.018" y2="-3.452" xlink:href="#linear-gradient"/>
    <linearGradient id="linear-gradient-5" x1="-4.684" y1="-3.901" x2="-4.146" y2="-4.658" xlink:href="#linear-gradient"/>
    <linearGradient id="linear-gradient-6" x1="-5.726" y1="-4.275" x2="-6.759" y2="-3.422" xlink:href="#linear-gradient"/>
    <linearGradient id="linear-gradient-7" x1="-4.881" y1="-4.731" x2="-4.952" y2="-4.813" xlink:href="#linear-gradient"/>
    <linearGradient id="linear-gradient-8" x1="-0.878" y1="-3.292" x2="-2.059" y2="-2.367" xlink:href="#linear-gradient"/>
    <linearGradient id="linear-gradient-9" x1="3.382" y1="-4.134" x2="2.959" y2="-3.579" xlink:href="#linear-gradient"/>
    <linearGradient id="linear-gradient-10" x1="16.566" y1="3.855" x2="16.265" y2="4.578" xlink:href="#linear-gradient"/>
    <linearGradient id="linear-gradient-11" x1="3.357" y1="-3.739" x2="2.304" y2="-4.072" xlink:href="#linear-gradient"/>
    <linearGradient id="linear-gradient-12" x1="1.543" y1="-2.86" x2="0.935" y2="-1.829" xlink:href="#linear-gradient"/>
    <linearGradient id="linear-gradient-13" x1="0.515" y1="-2.742" x2="0.821" y2="-4.277" xlink:href="#linear-gradient"/>
    <linearGradient id="linear-gradient-14" x1="1.714" y1="-2.493" x2="1.187" y2="-1.515" xlink:href="#linear-gradient"/>
    <linearGradient id="linear-gradient-15" x1="0.884" y1="-3.221" x2="0.847" y2="-3.343" xlink:href="#linear-gradient"/>
    <linearGradient id="linear-gradient-16" x1="1.67" y1="-1.817" x2="0.468" y2="-0.849" xlink:href="#linear-gradient"/>
    <linearGradient id="linear-gradient-17" x1="-11.931" y1="-5.478" x2="-12.383" y2="-4.924" xlink:href="#linear-gradient"/>
    <linearGradient id="linear-gradient-18" x1="-5.25" y1="3.254" x2="-5.585" y2="3.947" xlink:href="#linear-gradient"/>
    <linearGradient id="linear-gradient-19" x1="-8.673" y1="-4.964" x2="-9.729" y2="-5.296" xlink:href="#linear-gradient"/>
    <linearGradient id="linear-gradient-20" x1="-11.986" y1="-2.557" x2="-13.693" y2="-1.801" xlink:href="#linear-gradient"/>
    <linearGradient id="linear-gradient-21" x1="-7.736" y1="-1.93" x2="-7.143" y2="-2.655" xlink:href="#linear-gradient"/>
    <linearGradient id="linear-gradient-22" x1="-8.02" y1="-2.6" x2="-8.945" y2="-1.745" xlink:href="#linear-gradient"/>
    <linearGradient id="linear-gradient-23" x1="-8.27" y1="-2.69" x2="-8.347" y2="-2.769" xlink:href="#linear-gradient"/>
    <linearGradient id="linear-gradient-24" x1="-1.936" y1="-2.072" x2="-3.125" y2="-1.148" xlink:href="#linear-gradient"/>
  </defs>
  <g id="Grupo_158157" data-name="Grupo 158157" transform="translate(-1336.912 10617)">
    <path id="Rectángulo_40621" data-name="Rectángulo 40621" d="M201.565,264.48h440.54c8.255,0,14.955,1.426,14.955,3.183V299.4c0,1.757-6.7,3.184-14.955,3.184H201.565c-8.256,0-14.955-1.426-14.955-3.184V267.664C186.61,265.906,193.309,264.48,201.565,264.48Z" transform="translate(1446.642 -10369.462)" fill="#dce736"/>
    <path id="Rectángulo_40621-2" data-name="Rectángulo 40621" d="M14.9,0H453.891c8.226,0,14.9,1.611,14.9,3.6V39.441c0,1.985-6.676,3.6-14.9,3.6H14.9c-8.226,0-14.9-1.611-14.9-3.6V3.6C0,1.611,6.676,0,14.9,0Z" transform="translate(2366.912 -10617) rotate(90)" fill="#75b62f"/>
    <path id="Rectángulo_40621-3" data-name="Rectángulo 40621" d="M14.9,0H453.891c8.226,0,14.9,1.611,14.9,3.6V39.441c0,1.985-6.676,3.6-14.9,3.6H14.9c-8.226,0-14.9-1.611-14.9-3.6V3.6C0,1.611,6.676,0,14.9,0Z" transform="translate(1379.948 -10617) rotate(90)" fill="#75b62f"/>
    <g id="Grupo_158153" data-name="Grupo 158153" transform="translate(1783.306 -10366.774)">
      <path id="Trazado_213188" data-name="Trazado 213188" d="M322.345,1477.2c1.157,1.735-1.676,6.529-.233,7.171,2.562,1.14.416,2.407.68,3.855.237,1.3,3.6,4.937,3.6,6.209s-2.6,10.53,2.271,12.654c6.814,2.97,22.735-3.873,26.858,3.872,1.347,2.53.375,21.861-.5,32.354h56.963c-3.123-21.611-6.885-41.792-7.011-53.719-.105-10.044,8.1-14.123,17.742-30.2,6.013-10.022,5.7-28.5.637-40.626-5.492-13.142-19.977-31.474-59.021-23.537-27.3,5.549-39.166,24.411-38.609,43.372.324,11.045-.181,14.018-3.554,18.64-2.52,3.453-8.62,10.243-8.62,13.116C313.549,1473.7,321.187,1475.46,322.345,1477.2Z" transform="translate(-313.549 -1389.242)" fill="#eaf086"/>
      <g id="Grupo_157811" data-name="Grupo 157811" transform="translate(42.302 40.767)">
        <g id="Grupo_157810" data-name="Grupo 157810" transform="translate(0)">
          <path id="Trazado_213189" data-name="Trazado 213189" d="M518.717,1508.806l8.982,8.134,6.3-8.007-7.645-7.239Z" transform="translate(-484.27 -1497.853)" fill="#b5eff6"/>
          <path id="Trazado_213190" data-name="Trazado 213190" d="M439.428,1593.294l7.645,7.239,7.779-6.522-9.027-8.912Z" transform="translate(-434.641 -1550.057)" fill="#b5eff6"/>
          <path id="Trazado_213191" data-name="Trazado 213191" d="M443.989,1519.6l8.412-9.421-7.989-6.226-7.239,7.645Z" transform="translate(-433.23 -1499.264)" fill="#b5eff6"/>
          <path id="Trazado_213192" data-name="Trazado 213192" d="M530.6,1601.474l7.239-7.645-7.058-7.766-8.536,8.708Z" transform="translate(-486.481 -1550.661)" fill="#b5eff6"/>
          <path id="Trazado_213193" data-name="Trazado 213193" d="M437.243,1561.294l-.335-12.282-10.276,1.094.287,10.524Z" transform="translate(-426.632 -1527.47)" fill="#b5eff6"/>
          <path id="Trazado_213194" data-name="Trazado 213194" d="M554.6,1557.71l-.287-10.524-10.34-.475.6,11.942Z" transform="translate(-500.077 -1526.03)" fill="#b5eff6"/>
          <path id="Trazado_213195" data-name="Trazado 213195" d="M498.847,1610.868l-12.429-.026,1.017,10.214,10.528.022Z" transform="translate(-464.054 -1566.171)" fill="#b5eff6"/>
          <path id="Trazado_213196" data-name="Trazado 213196" d="M494.209,1491.426l-10.528.063-.787,10.752,12.33.059Z" transform="translate(-461.848 -1491.426)" fill="#b5eff6"/>
        </g>
        <path id="Trazado_213197" data-name="Trazado 213197" d="M444.419,1510.608a22.974,22.974,0,1,0,32.479-.886A22.975,22.975,0,0,0,444.419,1510.608Zm14.079-.15a16.145,16.145,0,1,1-13.336,18.533A16.145,16.145,0,0,1,458.5,1510.458Z" transform="translate(-433.827 -1498.939)" fill="#b5eff6"/>
      </g>
      <g id="Grupo_157812" data-name="Grupo 157812" transform="translate(18.072 40.254)">
        <path id="Trazado_213198" data-name="Trazado 213198" d="M372.559,1501.805a14.247,14.247,0,1,0,20.14-.594A14.248,14.248,0,0,0,372.559,1501.805Zm6.071,5.723a5.9,5.9,0,1,1,.247,8.346A5.9,5.9,0,0,1,378.629,1507.528Z" transform="translate(-366.128 -1494.609)" fill="#20b9d4"/>
        <path id="Trazado_213199" data-name="Trazado 213199" d="M416.58,1501.093l5.824,4.973,4.533-5.2-4.751-4.479Z" transform="translate(-396.11 -1494.018)" fill="#20b9d4"/>
        <path id="Trazado_213200" data-name="Trazado 213200" d="M369.871,1552.559l4.751,4.479,5.423-4.822-5.515-5.2Z" transform="translate(-366.875 -1525.708)" fill="#20b9d4"/>
        <path id="Trazado_213201" data-name="Trazado 213201" d="M373.215,1508.007l5.459-5.409-5.836-4.7-4.478,4.751Z" transform="translate(-365.929 -1494.964)" fill="#20b9d4"/>
        <path id="Trazado_213202" data-name="Trazado 213202" d="M424.473,1555.435l4.478-4.751-4.915-5.324-5.141,5.454Z" transform="translate(-397.56 -1524.672)" fill="#20b9d4"/>
        <path id="Trazado_213203" data-name="Trazado 213203" d="M369.275,1533.509l.047-7.442-7.461.61.192,6.526Z" transform="translate(-361.86 -1512.595)" fill="#20b9d4"/>
        <path id="Trazado_213204" data-name="Trazado 213204" d="M439.472,1531.144l-.193-6.526-7.461-.256.032,7.632Z" transform="translate(-405.649 -1511.529)" fill="#20b9d4"/>
        <path id="Trazado_213205" data-name="Trazado 213205" d="M404.635,1559.789l-7.567.421.615,7.191,6.529-.053Z" transform="translate(-383.897 -1533.703)" fill="#20b9d4"/>
        <path id="Trazado_213206" data-name="Trazado 213206" d="M404.084,1490.054l-6.529.054-.25,7.237,7.21-.216Z" transform="translate(-384.046 -1490.054)" fill="#20b9d4"/>
      </g>
      <g id="Grupo_157814" data-name="Grupo 157814" transform="translate(57.508 56.195)">
        <g id="Grupo_157813" data-name="Grupo 157813">
          <path id="Trazado_213207" data-name="Trazado 213207" d="M506.428,1540.564l4.167,3.557,3.243-3.72-3.4-3.2Z" transform="translate(-491.784 -1535.503)" fill="#3ec3da"/>
          <path id="Trazado_213208" data-name="Trazado 213208" d="M473.013,1577.382l3.4,3.2,3.879-3.45-3.945-3.719Z" transform="translate(-470.869 -1558.174)" fill="#3ec3da"/>
          <path id="Trazado_213209" data-name="Trazado 213209" d="M475.406,1545.511l3.905-3.869-4.175-3.363-3.2,3.4Z" transform="translate(-470.193 -1536.179)" fill="#3ec3da"/>
          <path id="Trazado_213210" data-name="Trazado 213210" d="M512.075,1579.44l3.2-3.4-3.516-3.809-3.678,3.9Z" transform="translate(-492.821 -1557.432)" fill="#3ec3da"/>
          <path id="Trazado_213211" data-name="Trazado 213211" d="M472.587,1563.754l.033-5.324-5.338.437.138,4.669Z" transform="translate(-467.282 -1548.793)" fill="#3ec3da"/>
          <path id="Trazado_213212" data-name="Trazado 213212" d="M522.8,1562.063l-.138-4.669-5.337-.183.023,5.46Z" transform="translate(-498.608 -1548.03)" fill="#3ec3da"/>
          <path id="Trazado_213213" data-name="Trazado 213213" d="M497.883,1582.555l-5.414.3.44,5.144,4.671-.039Z" transform="translate(-483.047 -1563.893)" fill="#3ec3da"/>
          <path id="Trazado_213214" data-name="Trazado 213214" d="M497.489,1532.667l-4.671.039-.179,5.177,5.158-.155Z" transform="translate(-483.154 -1532.667)" fill="#3ec3da"/>
        </g>
        <path id="Trazado_213215" data-name="Trazado 213215" d="M489.344,1540.649a10.192,10.192,0,1,0,.425,14.408A10.192,10.192,0,0,0,489.344,1540.649Zm-6.91,13.056a5.53,5.53,0,1,1,5.53-5.53A5.53,5.53,0,0,1,482.433,1553.7Z" transform="translate(-470.335 -1535.925)" fill="#3ec3da"/>
      </g>
      <g id="Grupo_157819" data-name="Grupo 157819" transform="translate(17.022 11.733)">
        <g id="Grupo_157818" data-name="Grupo 157818" transform="translate(0)">
          <path id="Trazado_213282" data-name="Trazado 213282" d="M451.216,1442.671a13.686,13.686,0,0,0-4.051-9.806,14.412,14.412,0,0,0-2.815-2.164,14.808,14.808,0,0,0-3.4-10.766,13.848,13.848,0,0,0-10.079-4.875,17.989,17.989,0,0,0-9.829,2.354,11,11,0,0,0-8.811-3.58,10.756,10.756,0,0,0-7.654,3.909c-2.2-2.457-5.228-3.628-9.276-3.628-6.48,0-11.234,3.366-12.791,8.7a22.092,22.092,0,0,0-5.043-.164,19.959,19.959,0,0,0-18.357,21.391,18.491,18.491,0,0,0,8.475,13.8,19.633,19.633,0,0,0,10.8,3.238,20.386,20.386,0,0,0,5.785-.854,14.321,14.321,0,0,0,3.386,4.658,16.107,16.107,0,0,0,10.584,4.094,13.31,13.31,0,0,0,2.377-.209,9.879,9.879,0,0,0,6.059-3.462,11.958,11.958,0,0,0,10.36,5.559,13.826,13.826,0,0,0,2.871-.3,11.487,11.487,0,0,0,5.5-3.377,18.961,18.961,0,0,0,5.722,2.275,13.873,13.873,0,0,0,3.244.378,14.964,14.964,0,0,0,3.41-.4,14.35,14.35,0,0,0,6.316-3.268c2.711-2.441,5.71-7.092,4.646-15.4A14.105,14.105,0,0,0,451.216,1442.671Zm-8.624,21.939a12.6,12.6,0,0,1-11.073,2.805,16.054,16.054,0,0,1-5.688-2.409.487.487,0,0,0-.048-.035,10.984,10.984,0,0,1-1.359-1.161,1.051,1.051,0,0,0-1.49,1.481c.212.214.434.418.66.618a9.07,9.07,0,0,1-4.221,2.6c-4.912,1.037-9.649-1.144-11.487-5.213.858-1.278,3.428-4.772,6.782-6.281,3.779-1.7,9.156-1.615,12.654,2.408a1.051,1.051,0,0,0,1.585-1.379,12.3,12.3,0,0,0-1.818-1.71,3.081,3.081,0,0,1,2.42-.985,2.9,2.9,0,0,1,2.118,1.228,1.05,1.05,0,1,0,1.831-1.031,4.988,4.988,0,0,0-3.769-2.291,5.252,5.252,0,0,0-4.419,1.936,13.519,13.519,0,0,0-11.462-.091c-4.722,2.124-7.9,7.377-8.034,7.6-.012.02-.022.039-.033.059a7.556,7.556,0,0,1-5.6,3.946,13.832,13.832,0,0,1-11.173-3.373,12.242,12.242,0,0,1-3.98-8.623,11.272,11.272,0,0,1,3.157-8.281,9.2,9.2,0,0,1,5.869-2.794,10.032,10.032,0,0,1,3.11.159,1.05,1.05,0,0,0,.527-2.033,12.3,12.3,0,0,0-5.458.043,9.559,9.559,0,0,0-1-5.692,1.051,1.051,0,0,0-1.852.992c.02.037,1.9,3.7.071,5.732l-.026.031a11.394,11.394,0,0,0-2.75,2.1,13.353,13.353,0,0,0-3.748,9.809,14.189,14.189,0,0,0,.55,3.477,17.717,17.717,0,0,1-14.7-2.163,16.385,16.385,0,0,1-7.534-12.2,17.856,17.856,0,0,1,16.431-19.138h.017a20.375,20.375,0,0,1,4.432.129,15.093,15.093,0,0,0-.124,1.941,1.05,1.05,0,1,0,2.1,0c0-6.437,4.413-10.6,11.241-10.6,4.907,0,7.91,1.928,9.738,6.248a1.05,1.05,0,0,0,1.935-.818,16,16,0,0,0-1.089-2.135,8.526,8.526,0,0,1,6.484-3.581,8.78,8.78,0,0,1,6.987,2.758,9.863,9.863,0,0,0-.977,1.033,1.051,1.051,0,1,0,1.629,1.327c2.371-2.912,7.117-4.052,10.769-3.888a11.774,11.774,0,0,1,8.571,4.134,12.662,12.662,0,0,1,2.948,8.4,16.5,16.5,0,0,0-5.085-1.149h0a19.954,19.954,0,0,1-4.116-.731,5.2,5.2,0,0,1,1.968-3.313,1.051,1.051,0,0,0-1.171-1.745,7.338,7.338,0,0,0-2.793,4.317,12.073,12.073,0,0,1-1.687-.933,7.456,7.456,0,0,1-2.086-1.946,1.05,1.05,0,0,0-1.8,1.076c.113.191,2.875,4.7,11.528,5.37h.013c6.983.455,12.052,5.517,12.052,12.035a12.029,12.029,0,0,1-5.992,10.381,1.05,1.05,0,1,0,1.052,1.818,13.988,13.988,0,0,0,2.56-1.9C447.043,1459.163,444.718,1462.7,442.592,1464.61Z" transform="translate(-359.053 -1413.811)" fill="#fff"/>
          <path id="Trazado_213283" data-name="Trazado 213283" d="M447.689,1458.384a1.05,1.05,0,1,1-1.052-1.818,12.029,12.029,0,0,0,5.992-10.381c0-6.518-5.068-11.58-12.052-12.035h-.013c-8.654-.666-11.415-5.178-11.528-5.37a1.05,1.05,0,0,1,1.8-1.076,7.453,7.453,0,0,0,2.086,1.946,12.062,12.062,0,0,0,1.687.933,7.338,7.338,0,0,1,2.793-4.317,1.051,1.051,0,0,1,1.171,1.745,5.2,5.2,0,0,0-1.968,3.313,19.96,19.96,0,0,0,4.116.731h0a16.488,16.488,0,0,1,5.085,1.149,12.662,12.662,0,0,0-2.948-8.4,11.776,11.776,0,0,0-8.57-4.135c-3.652-.164-8.4.977-10.769,3.889a1.051,1.051,0,0,1-1.629-1.327,9.87,9.87,0,0,1,.977-1.033,8.779,8.779,0,0,0-6.987-2.758,8.526,8.526,0,0,0-6.484,3.581,16,16,0,0,1,1.089,2.135,1.05,1.05,0,0,1-1.935.818c-1.828-4.32-4.831-6.248-9.738-6.248-6.828,0-11.241,4.16-11.241,10.6a1.05,1.05,0,1,1-2.1,0,15.093,15.093,0,0,1,.124-1.941,20.367,20.367,0,0,0-4.432-.129h-.017a17.856,17.856,0,0,0-16.431,19.138,16.386,16.386,0,0,0,7.534,12.2,17.716,17.716,0,0,0,14.7,2.163,14.187,14.187,0,0,1-.55-3.477,13.352,13.352,0,0,1,3.748-9.809,11.394,11.394,0,0,1,2.75-2.1l.026-.031c1.829-2.037-.052-5.7-.071-5.732a1.051,1.051,0,0,1,1.852-.992,9.56,9.56,0,0,1,1,5.692,12.3,12.3,0,0,1,5.458-.043,1.05,1.05,0,0,1-.527,2.033,10.049,10.049,0,0,0-3.11-.158,9.2,9.2,0,0,0-5.869,2.794,11.271,11.271,0,0,0-3.157,8.281,12.242,12.242,0,0,0,3.98,8.623,13.833,13.833,0,0,0,11.173,3.373,7.556,7.556,0,0,0,5.6-3.947c.01-.02.021-.039.033-.059.133-.223,3.312-5.476,8.034-7.6a13.52,13.52,0,0,1,11.462.091,5.251,5.251,0,0,1,4.419-1.936,4.988,4.988,0,0,1,3.769,2.291,1.05,1.05,0,1,1-1.831,1.031,2.9,2.9,0,0,0-2.118-1.228,3.081,3.081,0,0,0-2.42.985,12.308,12.308,0,0,1,1.818,1.71,1.051,1.051,0,0,1-1.585,1.379c-3.5-4.022-8.875-4.108-12.654-2.408-3.354,1.51-5.923,5-6.782,6.281,1.837,4.069,6.575,6.25,11.487,5.213a9.071,9.071,0,0,0,4.221-2.6c-.226-.2-.447-.4-.659-.618a1.051,1.051,0,0,1,1.49-1.481,11,11,0,0,0,1.359,1.161.446.446,0,0,1,.048.035,16.053,16.053,0,0,0,5.688,2.409,12.6,12.6,0,0,0,11.073-2.805c2.126-1.915,4.452-5.447,4.143-11.64A13.982,13.982,0,0,1,447.689,1458.384Zm-58.552-21.168a5.483,5.483,0,0,0-3.278,1.794,4.223,4.223,0,0,0-.67,3.259,1.052,1.052,0,0,1-.892,1.189,1.154,1.154,0,0,1-.15.01,1.05,1.05,0,0,1-1.038-.9,6.969,6.969,0,0,1,.226-3.213,7,7,0,0,0-7.23,10.84,1.051,1.051,0,1,1-1.725,1.2,9.064,9.064,0,0,1-1.358-3,5.685,5.685,0,0,1-2.272.511,4.553,4.553,0,0,1-1.113-.136,4.977,4.977,0,0,1-2.968-2.291,1.051,1.051,0,0,1,1.85-1,2.847,2.847,0,0,0,1.651,1.255,3.573,3.573,0,0,0,2.584-.556,9.1,9.1,0,0,1,11.661-8.725,7.7,7.7,0,0,1,4.464-2.329,1.051,1.051,0,0,1,.259,2.085Zm24.877,18.146c-.078,0-.156,0-.232,0a5.838,5.838,0,0,1-4.232-1.637,11.725,11.725,0,0,1-7.281,7.1,16.171,16.171,0,0,1-5.272.9c-.44,0-.709-.021-.744-.024a1.05,1.05,0,0,1,.174-2.094,13.839,13.839,0,0,0,5.2-.784,9.713,9.713,0,0,0,6.406-7.327,16.2,16.2,0,0,1-1.045-7.092,1.05,1.05,0,0,1,2.093.186c-.005.052-.42,5.145,1.812,7.511a3.817,3.817,0,0,0,3.058,1.16,1.05,1.05,0,1,1,.061,2.1Zm3.508-20.076a1.048,1.048,0,0,1-1.461.264,16.8,16.8,0,0,0-10.979-3.005,17.079,17.079,0,0,0-5.146,1.121,1.05,1.05,0,0,1-.85-1.921,18.8,18.8,0,0,1,5.764-1.289,19.514,19.514,0,0,1,7.22.819,6.806,6.806,0,0,1,3.453-3.485c3.3-1.442,7.04.114,7.2.182a1.051,1.051,0,0,1-.819,1.935c-.03-.013-3.089-1.27-5.546-.188a4.734,4.734,0,0,0-2.311,2.3,19.215,19.215,0,0,1,3.214,1.806A1.05,1.05,0,0,1,417.522,1435.285Zm27.653,15.885a1.051,1.051,0,0,1-1.92-.853c.1-.23,2.433-5.735-2.845-8.133a7.653,7.653,0,0,0-9.616,2.037l-.037.048c-1.488,1.829-.978,4.663-.973,4.691a1.05,1.05,0,0,1-2.063.4,9.378,9.378,0,0,1,.45-4.773c-4.737.108-6.241,2.927-6.309,3.06a1.043,1.043,0,0,1-.94.586,1.052,1.052,0,0,1-.943-1.517,6.131,6.131,0,0,1,1.021-1.389,5.1,5.1,0,0,1-1.024-.592,1.466,1.466,0,0,1,.526-2.582h0l0-.013c.044.129.507,1.321,2.591,1.588a11.5,11.5,0,0,1,6.392-1.211,10.368,10.368,0,0,1,2.814-2.208,9.789,9.789,0,0,1,8.983-.036,7.306,7.306,0,0,1,4.67,6.763A10.515,10.515,0,0,1,445.175,1451.17Z" transform="translate(-362.979 -1417.322)" fill="#73d3e4"/>
        </g>
        <path id="Trazado_213284" data-name="Trazado 213284" d="M392.275,1463.484a5.482,5.482,0,0,0-3.278,1.794,4.223,4.223,0,0,0-.67,3.259,1.052,1.052,0,0,1-.892,1.189,1.175,1.175,0,0,1-.15.01,1.05,1.05,0,0,1-1.038-.9,6.969,6.969,0,0,1,.226-3.213,7,7,0,0,0-7.23,10.84,1.051,1.051,0,1,1-1.725,1.2,9.064,9.064,0,0,1-1.358-3,5.683,5.683,0,0,1-2.272.511,4.559,4.559,0,0,1-1.113-.136,4.977,4.977,0,0,1-2.968-2.291,1.051,1.051,0,0,1,1.85-1,2.848,2.848,0,0,0,1.651,1.255,3.574,3.574,0,0,0,2.584-.556,9.1,9.1,0,0,1,11.661-8.725,7.7,7.7,0,0,1,4.464-2.329,1.051,1.051,0,0,1,.259,2.085Z" transform="translate(-365.707 -1443.592)" fill="#fff"/>
        <path id="Trazado_213285" data-name="Trazado 213285" d="M536.45,1484.276a1.051,1.051,0,0,1-1.92-.853c.1-.23,2.433-5.735-2.845-8.132a7.652,7.652,0,0,0-9.617,2.037l-.037.048c-1.488,1.83-.978,4.663-.973,4.691a1.05,1.05,0,0,1-2.063.4,9.378,9.378,0,0,1,.45-4.773c-4.737.108-6.241,2.927-6.309,3.06a1.043,1.043,0,0,1-.94.586,1.052,1.052,0,0,1-.943-1.517,6.127,6.127,0,0,1,1.021-1.388,4.975,4.975,0,0,1-1.34-.851,1.308,1.308,0,0,1,.535-2.243l.307-.08,0-.013c.044.13.507,1.321,2.591,1.589a11.491,11.491,0,0,1,6.392-1.211,10.357,10.357,0,0,1,2.814-2.208,9.789,9.789,0,0,1,8.983-.036,7.306,7.306,0,0,1,4.67,6.763A10.513,10.513,0,0,1,536.45,1484.276Z" transform="translate(-453.843 -1450.429)" fill="#fff"/>
        <path id="Trazado_213286" data-name="Trazado 213286" d="M479.82,1442.324a1.051,1.051,0,0,1-1.375.557c-.03-.013-3.089-1.27-5.546-.188a4.732,4.732,0,0,0-2.311,2.3,19.2,19.2,0,0,1,3.214,1.806,1.05,1.05,0,1,1-1.2,1.726,16.8,16.8,0,0,0-10.979-3.005,17.089,17.089,0,0,0-5.146,1.121,1.05,1.05,0,0,1-.85-1.921,18.784,18.784,0,0,1,5.764-1.289,19.509,19.509,0,0,1,7.22.819,6.807,6.807,0,0,1,3.453-3.485c3.3-1.442,7.04.114,7.2.182A1.051,1.051,0,0,1,479.82,1442.324Z" transform="translate(-419.112 -1430.3)" fill="#fff"/>
        <path id="Trazado_213287" data-name="Trazado 213287" d="M466.269,1494.482a1.05,1.05,0,0,1-1.02,1.08c-.078,0-.156,0-.232,0a5.839,5.839,0,0,1-4.232-1.637,11.724,11.724,0,0,1-7.281,7.1,16.166,16.166,0,0,1-5.272.9c-.44,0-.709-.021-.744-.024a1.05,1.05,0,0,1,.174-2.093,13.848,13.848,0,0,0,5.2-.784,9.714,9.714,0,0,0,6.406-7.327,16.2,16.2,0,0,1-1.045-7.093,1.05,1.05,0,0,1,2.093.186c-.005.052-.42,5.145,1.812,7.511a3.816,3.816,0,0,0,3.058,1.16A1.049,1.049,0,0,1,466.269,1494.482Z" transform="translate(-413.804 -1457.524)" fill="#fff"/>
      </g>
      <g id="Grupo_157820" data-name="Grupo 157820" transform="translate(109.137 4.591)">
        <path id="Trazado_213288" data-name="Trazado 213288" d="M614.245,1402.828h0a1.131,1.131,0,0,1-1.131-1.131v-5.848a1.131,1.131,0,0,1,1.131-1.131h0a1.132,1.132,0,0,1,1.132,1.131v5.848A1.132,1.132,0,0,1,614.245,1402.828Z" transform="translate(-610.19 -1394.717)" fill="#73d3e4"/>
        <path id="Trazado_213289" data-name="Trazado 213289" d="M613.409,1403.664h0a1.132,1.132,0,0,1-1.132,1.132H606.43a1.132,1.132,0,0,1-1.132-1.132h0a1.132,1.132,0,0,1,1.132-1.132h5.847A1.132,1.132,0,0,1,613.409,1403.664Z" transform="translate(-605.298 -1399.609)" fill="#73d3e4"/>
      </g>
      <g id="Grupo_157821" data-name="Grupo 157821" transform="translate(121.761 0)">
        <path id="Trazado_213290" data-name="Trazado 213290" d="M653.057,1395.146h0a1.772,1.772,0,0,1-1.772-1.772v-9.157a1.772,1.772,0,0,1,1.772-1.772h0a1.773,1.773,0,0,1,1.772,1.772v9.157A1.773,1.773,0,0,1,653.057,1395.146Z" transform="translate(-646.707 -1382.445)" fill="#73d3e4"/>
        <path id="Trazado_213291" data-name="Trazado 213291" d="M651.747,1396.456h0a1.772,1.772,0,0,1-1.772,1.772h-9.157a1.772,1.772,0,0,1-1.772-1.772h0a1.772,1.772,0,0,1,1.772-1.773h9.157A1.772,1.772,0,0,1,651.747,1396.456Z" transform="translate(-639.046 -1390.105)" fill="#73d3e4"/>
      </g>
    </g>
    <g id="Grupo_158154" data-name="Grupo 158154" transform="translate(2070.856 -10366.773)">
      <g id="Grupo_157823" data-name="Grupo 157823" transform="matrix(0.966, 0.259, -0.259, 0.966, 97.897, 0)">
        <path id="Trazado_213292" data-name="Trazado 213292" d="M14.967,23.426V7.483A7.483,7.483,0,1,0,0,7.483V23.426Z" transform="translate(0 0)" fill="#d96973"/>
        <path id="Trazado_213293" data-name="Trazado 213293" d="M6.242,9.5C5.646,6.63,5.624,2.114,8.114.031,7.906.014,7.7,0,7.484,0A7.484,7.484,0,0,0,0,7.483V23.426H14.967V13.1C11.536,13.262,7.08,13.538,6.242,9.5Z" transform="translate(0 0)" fill="#d34664"/>
        <rect id="Rectángulo_296246" data-name="Rectángulo 296246" width="4.989" height="75.547" transform="translate(9.978 30.258)" fill="#f78e18"/>
        <rect id="Rectángulo_296247" data-name="Rectángulo 296247" width="4.989" height="75.547" transform="translate(4.989 30.258)" fill="#ffad12"/>
        <rect id="Rectángulo_296248" data-name="Rectángulo 296248" width="4.989" height="75.547" transform="translate(0 30.258)" fill="#ffce4a"/>
        <path id="Trazado_213294" data-name="Trazado 213294" d="M0,0H14.967L7.484,32.536Z" transform="translate(0 105.805)" fill="#ffd5a3"/>
        <path id="Trazado_213295" data-name="Trazado 213295" d="M0,0,3.368,14.641,6.735,0Z" transform="translate(4.116 123.699)" fill="#353037"/>
        <rect id="Rectángulo_296249" data-name="Rectángulo 296249" width="14.967" height="9.435" transform="translate(0 20.823)" fill="#8095a1"/>
        <rect id="Rectángulo_296250" data-name="Rectángulo 296250" width="9.978" height="9.435" transform="translate(4.989 20.823)" fill="#6c8e9f"/>
        <rect id="Rectángulo_296251" data-name="Rectángulo 296251" width="4.989" height="9.435" transform="translate(9.978 20.823)" fill="#4c6b7a"/>
        <rect id="Rectángulo_296252" data-name="Rectángulo 296252" width="14.967" height="4.664" transform="translate(0 16.159)" fill="#b8cedb"/>
      </g>
      <path id="Trazado_213296" data-name="Trazado 213296" d="M0,21.4C29.273,3.175-5.035,56.75,10.738,13.116S48.07,51.226,66.84,21.4" transform="translate(0 135.784) rotate(-22)" fill="none" stroke="#12263f" stroke-width="3"/>
    </g>
    <g id="Grupo_158155" data-name="Grupo 158155" transform="translate(1508.313 -10364.674)">
      <g id="Grupo_157832" data-name="Grupo 157832" transform="translate(0 0)">
        <g id="Grupo_157831" data-name="Grupo 157831">
          <g id="Grupo_157826" data-name="Grupo 157826" transform="translate(0 75.443)">
            <path id="Trazado_213300" data-name="Trazado 213300" d="M158.682,609.6a10.778,10.778,0,0,1-.356-4.412,9.007,9.007,0,0,1,.236-1.214A8.454,8.454,0,0,1,161,599.827a9.048,9.048,0,0,1,2.455-1.639,7.924,7.924,0,0,1,.8-.29,20.69,20.69,0,0,0-2.191.756,13.742,13.742,0,0,0-4.9,3.212,8.713,8.713,0,0,0-2.292,5.068,8.262,8.262,0,0,0,.367,3.88c1.757,4.777,6.9,6.417,10.89,6.207a14.123,14.123,0,0,0,3.7-.736C165.216,617.669,160.222,614.675,158.682,609.6Z" transform="translate(-125.58 -540.513)" fill="url(#linear-gradient)"/>
            <g id="Grupo_157825" data-name="Grupo 157825" transform="translate(31.88 56.993)">
              <path id="Trazado_213301" data-name="Trazado 213301" d="M159.281,609.726a9.568,9.568,0,0,1,6.107-11.859c-.042.012-.084.019-.125.031a9.608,9.608,0,0,0,5.546,18.4c.085-.026.165-.061.249-.089A9.57,9.57,0,0,1,159.281,609.726Z" transform="translate(-158.494 -597.498)" fill="url(#linear-gradient-2)"/>
              <path id="Trazado_213302" data-name="Trazado 213302" d="M177.313,604.2a9.343,9.343,0,1,0-6.11,11.865A9.57,9.57,0,0,0,177.313,604.2Z" transform="translate(-158.639 -597.354)" fill="url(#linear-gradient-3)"/>
            </g>
            <path id="Trazado_213303" data-name="Trazado 213303" d="M157.689,542.042a5.027,5.027,0,0,0-.906-.792,4.713,4.713,0,0,0-1.051-.535,5.283,5.283,0,0,0-1.195-.279,6.3,6.3,0,0,0-.652-.043,9.768,9.768,0,0,0-2.968.469l-3.4,1.024q6.513-1.964,8.4,4.286a8.519,8.519,0,0,1-.692,6.694q-.432.812-1.425,2.3t-2.689,3.711q-6.431,8.425-3.936,16.708l1.566,5.159a1.964,1.964,0,0,0,.95,1.1,1.918,1.918,0,0,0,1.443.136l3.4-1.025a1.947,1.947,0,0,1-2.393-1.232l-1.566-5.159q-2.5-8.286,3.936-16.708,1.7-2.212,2.689-3.712t1.425-2.3a8.519,8.519,0,0,0,.692-6.694A8,8,0,0,0,157.689,542.042Z" transform="translate(-123.258 -524.444)" fill="url(#linear-gradient-4)"/>
            <path id="Trazado_213304" data-name="Trazado 213304" d="M121.41,531.524q.221-.336.451-.664c.081-.116.166-.231.249-.345q.226-.308.461-.607c.086-.11.173-.221.262-.33.174-.214.353-.424.535-.633.074-.085.147-.172.223-.257q.389-.433.8-.849c.043-.043.088-.084.131-.127q.351-.35.719-.687c.1-.089.2-.176.3-.263q.27-.24.549-.473c.246-.206.5-.407.756-.605.123-.1.244-.194.37-.288q.553-.413,1.136-.8l.049-.034c.406-.27.826-.53,1.254-.784.136-.081.277-.157.415-.236.3-.171.6-.339.91-.5.171-.09.346-.178.52-.266.279-.14.56-.277.847-.411q.276-.13.557-.255c.295-.131.594-.258.9-.383.184-.076.368-.153.556-.227.334-.132.676-.257,1.02-.381.164-.059.324-.12.491-.178.513-.177,1.035-.348,1.569-.509l-3.4,1.024c-.534.161-1.056.331-1.569.509-.166.058-.328.12-.492.179-.343.124-.684.249-1.017.38-.188.074-.373.152-.558.228-.3.125-.6.252-.9.383q-.281.124-.556.254-.43.2-.848.411c-.107.054-.22.1-.327.159-.066.034-.127.071-.192.106-.309.163-.611.331-.91.5-.138.079-.279.155-.415.236-.427.254-.847.514-1.253.784l-.055.038q-.58.388-1.131.8c-.126.094-.247.192-.371.288-.256.2-.509.4-.755.6-.055.046-.115.089-.17.136-.129.109-.251.223-.378.335-.1.089-.2.176-.3.265-.245.225-.483.454-.718.687-.043.043-.088.084-.131.127q-.411.415-.8.849c-.076.084-.148.171-.223.257-.182.208-.362.419-.536.633q-.132.163-.26.329-.236.3-.462.608c-.084.115-.168.229-.249.345q-.231.328-.451.664c-.068.1-.138.205-.2.31-.208.329-.411.661-.605,1-3.341,5.873-3.857,12.863-1.5,21.091a2.168,2.168,0,0,0,1.817,1.416,2.111,2.111,0,0,0,.819-.081l3.4-1.024a2.151,2.151,0,0,1-2.635-1.334c-2.355-8.227-1.84-15.218,1.5-21.091.194-.341.4-.674.605-1C121.273,531.728,121.343,531.627,121.41,531.524Z" transform="translate(-114.25 -518.865)" fill="url(#linear-gradient-5)"/>
            <path id="Trazado_213305" data-name="Trazado 213305" d="M153.878,579.535l-1.566-5.159q-2.5-8.285,3.936-16.707,1.7-2.214,2.689-3.712t1.425-2.3a8.518,8.518,0,0,0,.692-6.694q-1.885-6.254-8.4-4.286c-.107.032-.2.071-.311.105q6.421-1.879,8.3,4.315a8.519,8.519,0,0,1-.692,6.694q-.432.812-1.425,2.3t-2.689,3.712q-6.431,8.424-3.936,16.708l1.566,5.159a1.947,1.947,0,0,0,2.393,1.232l12.11-3.651c.025-.007.047-.021.071-.029l-11.765,3.547A1.946,1.946,0,0,1,153.878,579.535Z" transform="translate(-124.575 -524.392)" fill="url(#linear-gradient-6)"/>
            <path id="Trazado_213306" data-name="Trazado 213306" d="M120.834,553.792c-2.355-8.227-1.84-15.218,1.5-21.091q4.944-8.692,16.421-12.276l-.007,0q-11.8,3.558-16.831,12.408c-3.341,5.872-3.857,12.863-1.5,21.091a2.151,2.151,0,0,0,2.635,1.334l13.425-4.047c.025-.008.047-.021.072-.03l-13.08,3.944A2.15,2.15,0,0,1,120.834,553.792Z" transform="translate(-115.568 -518.864)" fill="url(#linear-gradient-7)"/>
            <path id="Trazado_213307" data-name="Trazado 213307" d="M160.435,568.767q-1.365-4.531-.66-6.965a20.035,20.035,0,0,1,3.784-6.258q5.618-6.636,6.633-10.018,1.983-5.2-.091-12.084a19.908,19.908,0,0,0-12.566-13.61q-8.228-3.141-18.617-.013Q127.443,523.407,122.5,532.1c-3.341,5.873-3.856,12.864-1.5,21.091a2.151,2.151,0,0,0,2.634,1.335l13.08-3.944a2.182,2.182,0,0,0,1.355-2.661l-.529-1.756q-2.687-8.909,5.853-11.484c.036-.011.071-.018.106-.029.106-.034.2-.073.311-.105q6.513-1.964,8.4,4.286a8.519,8.519,0,0,1-.692,6.694q-.431.812-1.425,2.3t-2.689,3.712q-6.431,8.424-3.936,16.708l1.566,5.159a1.946,1.946,0,0,0,2.392,1.233l11.765-3.547A1.956,1.956,0,0,0,160.435,568.767Z" transform="translate(-115.729 -518.259)" fill="url(#linear-gradient-8)"/>
          </g>
          <g id="Grupo_157828" data-name="Grupo 157828" transform="translate(58.044 93.765)">
            <path id="Trazado_213308" data-name="Trazado 213308" d="M198.145,605.121a8.418,8.418,0,0,1,2.443-2.443,7.1,7.1,0,0,1,.842-.474,6.6,6.6,0,0,1,3.7-.645,7.067,7.067,0,0,1,2.216.63,6.214,6.214,0,0,1,.579.331,16.229,16.229,0,0,0-1.558-.92,10.73,10.73,0,0,0-4.39-1.291,6.8,6.8,0,0,0-4.173,1.2,6.456,6.456,0,0,0-2.122,2.181c-1.952,3.461-.327,7.347,1.818,9.615a11,11,0,0,0,2.31,1.83C196.649,613.091,195.9,608.606,198.145,605.121Z" transform="translate(-194.804 -559.508)" fill="url(#linear-gradient-9)"/>
            <g id="Grupo_157827" data-name="Grupo 157827" transform="translate(1.571 41.817)">
              <path id="Trazado_213309" data-name="Trazado 213309" d="M198.453,605.329a7.469,7.469,0,0,1,10.14-2.368c-.028-.019-.053-.04-.081-.058a7.5,7.5,0,0,0-8.135,12.6c.058.038.12.067.179.1A7.472,7.472,0,0,1,198.453,605.329Z" transform="translate(-196.985 -601.721)" fill="url(#linear-gradient-10)"/>
              <path id="Trazado_213310" data-name="Trazado 213310" d="M210.8,613.305a7.294,7.294,0,1,0-10.148,2.369A7.472,7.472,0,0,0,210.8,613.305Z" transform="translate(-197.086 -601.785)" fill="url(#linear-gradient-11)"/>
            </g>
            <path id="Trazado_213311" data-name="Trazado 213311" d="M232.1,569.568a3.953,3.953,0,0,0,.013-.94,3.712,3.712,0,0,0-.213-.9,4.172,4.172,0,0,0-.439-.852,5.05,5.05,0,0,0-.3-.41,7.649,7.649,0,0,0-1.78-1.528l-2.327-1.5q4.462,2.879,1.7,7.164a6.648,6.648,0,0,1-4.331,2.974q-.7.155-2.089.317t-3.567.278q-8.263.437-11.927,6.111l-2.276,3.541a1.537,1.537,0,0,0-.171,1.12,1.492,1.492,0,0,0,.648.927l2.327,1.5a1.519,1.519,0,0,1-.477-2.046l2.276-3.542q3.664-5.677,11.927-6.11,2.178-.107,3.567-.279t2.09-.316a6.652,6.652,0,0,0,4.331-2.974A6.249,6.249,0,0,0,232.1,569.568Z" transform="translate(-197.472 -549.207)" fill="url(#linear-gradient-12)"/>
            <path id="Trazado_213312" data-name="Trazado 213312" d="M221.188,545.331c.207-.026.415-.05.623-.069.111-.01.221-.018.331-.026q.3-.022.594-.033l.329-.012c.215,0,.432,0,.647,0,.089,0,.177,0,.265,0,.3.008.606.022.909.045.048,0,.094.01.141.014q.386.033.772.081c.1.012.2.028.307.042q.279.04.558.087c.247.043.494.091.742.144.12.025.239.047.358.074.351.081.7.169,1.053.269l.045.012c.366.1.733.223,1.1.349.117.04.233.086.35.128.252.091.505.186.758.288.141.056.281.116.422.175q.336.143.672.3c.145.066.289.133.434.2q.34.163.681.34c.139.071.278.141.417.216.247.133.494.272.742.414.117.067.236.131.354.2.365.216.73.44,1.1.676l-2.327-1.5c-.365-.236-.731-.46-1.1-.675-.118-.07-.236-.135-.355-.2-.246-.141-.494-.28-.74-.412-.14-.075-.279-.146-.419-.218-.227-.116-.454-.23-.68-.339-.144-.069-.288-.136-.432-.2-.225-.1-.45-.2-.674-.3-.086-.036-.173-.079-.26-.114-.053-.022-.107-.04-.16-.061-.253-.1-.506-.2-.759-.287-.117-.043-.233-.087-.35-.128-.367-.126-.734-.244-1.1-.349l-.05-.014q-.524-.148-1.048-.267c-.12-.027-.239-.05-.359-.075-.248-.052-.5-.1-.742-.143-.055-.009-.111-.023-.166-.032-.13-.021-.26-.036-.391-.055-.1-.015-.206-.03-.308-.043-.257-.032-.514-.058-.772-.08l-.142-.014c-.3-.023-.606-.037-.909-.046-.088,0-.176,0-.264,0-.216,0-.432,0-.648,0-.109,0-.218.007-.327.012q-.3.012-.6.033c-.11.008-.22.016-.331.026-.208.019-.416.043-.623.068-.1.012-.192.022-.287.035-.3.042-.6.09-.9.148-5.182.984-9.6,4.213-13.3,9.776a1.691,1.691,0,0,0,.076,1.8,1.659,1.659,0,0,0,.463.446l2.327,1.5a1.679,1.679,0,0,1-.54-2.242c3.7-5.563,8.119-8.792,13.3-9.776.3-.057.6-.105.9-.147C221,545.353,221.092,545.343,221.188,545.331Z" transform="translate(-197.415 -543.687)" fill="url(#linear-gradient-13)"/>
            <path id="Trazado_213313" data-name="Trazado 213313" d="M208.083,586.112l2.276-3.541q3.663-5.677,11.927-6.11,2.178-.107,3.567-.279t2.089-.316a6.653,6.653,0,0,0,4.331-2.974q2.765-4.284-1.7-7.165c-.074-.048-.146-.086-.22-.131q4.367,2.867,1.631,7.116a6.652,6.652,0,0,1-4.331,2.974q-.7.153-2.09.316T222,576.28q-8.263.437-11.927,6.11l-2.276,3.542a1.519,1.519,0,0,0,.477,2.046l8.3,5.355c.017.011.036.016.053.027l-8.06-5.2A1.52,1.52,0,0,1,208.083,586.112Z" transform="translate(-198.375 -549.809)" fill="url(#linear-gradient-14)"/>
            <path id="Trazado_213314" data-name="Trazado 213314" d="M207.889,556.051c3.7-5.562,8.119-8.792,13.3-9.776q7.67-1.457,15.607,3.555l-.005,0q-8.086-5.218-15.892-3.732c-5.183.984-9.6,4.213-13.3,9.776a1.679,1.679,0,0,0,.54,2.242l9.2,5.936c.018.012.037.017.054.028l-8.962-5.783A1.68,1.68,0,0,1,207.889,556.051Z" transform="translate(-198.318 -544.268)" fill="url(#linear-gradient-15)"/>
            <path id="Trazado_213315" data-name="Trazado 213315" d="M218.687,587.455q2-3.1,3.807-3.916a15.664,15.664,0,0,1,5.636-.915q6.788-.016,9.312-1.123a14.413,14.413,0,0,0,7.141-6.167,15.544,15.544,0,0,0,1.737-14.357q-2.295-6.482-9.41-11.078-7.938-5.01-15.607-3.555c-5.182.984-9.6,4.214-13.3,9.776a1.68,1.68,0,0,0,.539,2.242l8.962,5.783a1.7,1.7,0,0,0,2.268-.54l.777-1.2q3.94-6.1,9.79-2.329c.025.016.047.032.071.049.073.045.146.084.22.131q4.463,2.88,1.7,7.165A6.653,6.653,0,0,1,228,570.394q-.7.153-2.089.316t-3.567.279q-8.263.437-11.927,6.11l-2.276,3.541a1.52,1.52,0,0,0,.478,2.046l8.06,5.2A1.527,1.527,0,0,0,218.687,587.455Z" transform="translate(-198.43 -544.338)" fill="url(#linear-gradient-16)"/>
          </g>
          <g id="Grupo_157830" data-name="Grupo 157830" transform="translate(17.492)">
            <path id="Trazado_213316" data-name="Trazado 213316" d="M198.224,523.312a13,13,0,0,1-.889-5.267,10.72,10.72,0,0,1,.156-1.484,10.2,10.2,0,0,1,2.5-5.236,10.9,10.9,0,0,1,2.779-2.228,9.56,9.56,0,0,1,.937-.434,25.008,25.008,0,0,0-2.554,1.138,16.589,16.589,0,0,0-5.559,4.376,10.517,10.517,0,0,0-2.226,6.334,9.972,9.972,0,0,0,.847,4.627c2.613,5.56,8.964,6.994,13.744,6.323a17.028,17.028,0,0,0,4.375-1.272C206.926,532.336,200.608,529.259,198.224,523.312Z" transform="translate(-153.849 -440.134)" fill="url(#linear-gradient-17)"/>
            <g id="Grupo_157829" data-name="Grupo 157829" transform="translate(42.598 67.731)">
              <path id="Trazado_213317" data-name="Trazado 213317" d="M198.915,523.51a11.547,11.547,0,0,1,6.1-14.9c-.049.019-.1.03-.148.05a11.6,11.6,0,0,0,8.6,21.54c.1-.04.191-.091.289-.133A11.551,11.551,0,0,1,198.915,523.51Z" transform="translate(-197.645 -507.852)" fill="url(#linear-gradient-18)"/>
              <path id="Trazado_213318" data-name="Trazado 213318" d="M220.027,514.867a11.277,11.277,0,1,0-6.1,14.908A11.55,11.55,0,0,0,220.027,514.867Z" transform="translate(-197.815 -507.556)" fill="url(#linear-gradient-19)"/>
            </g>
            <path id="Trazado_213319" data-name="Trazado 213319" d="M190.1,442.266a6.125,6.125,0,0,0-1.172-.857,5.72,5.72,0,0,0-1.319-.534,6.48,6.48,0,0,0-1.466-.21,7.868,7.868,0,0,0-.788.017,11.828,11.828,0,0,0-3.52.875l-3.977,1.587q7.626-3.043,10.553,4.274a10.279,10.279,0,0,1-.132,8.121q-.433,1.021-1.472,2.916t-2.845,4.744q-6.85,10.8-2.984,20.5l2.424,6.04a2.376,2.376,0,0,0,1.257,1.219,2.313,2.313,0,0,0,1.748.012l3.977-1.587a2.349,2.349,0,0,1-3.005-1.231l-2.423-6.04q-3.872-9.7,2.984-20.5,1.817-2.839,2.844-4.744t1.472-2.916a10.276,10.276,0,0,0,.132-8.121A9.668,9.668,0,0,0,190.1,442.266Z" transform="translate(-149.518 -421.132)" fill="url(#linear-gradient-20)"/>
            <path id="Trazado_213320" data-name="Trazado 213320" d="M145.8,432.784c.153-.285.31-.567.473-.846.086-.148.175-.295.264-.441q.239-.393.491-.778c.092-.142.184-.285.28-.424.187-.276.381-.548.578-.817.081-.11.159-.223.241-.331.282-.375.571-.743.873-1.1.047-.056.1-.11.144-.166q.386-.458.793-.9c.107-.117.219-.232.329-.348q.3-.316.61-.625c.275-.273.558-.541.846-.806.138-.128.273-.259.415-.385.415-.37.841-.732,1.282-1.085.019-.015.036-.032.055-.046.46-.368.937-.725,1.426-1.074.155-.111.316-.218.474-.326.342-.236.687-.471,1.041-.7.2-.127.4-.251.6-.374q.48-.3.975-.583.319-.185.643-.365c.34-.189.687-.373,1.038-.555.214-.111.427-.223.645-.331.388-.193.786-.38,1.186-.565.191-.089.378-.179.571-.266q.9-.4,1.832-.776l-3.977,1.587q-.937.374-1.832.776c-.195.086-.382.178-.573.267-.4.184-.8.37-1.183.563-.22.109-.433.221-.648.333-.35.182-.7.365-1.037.553q-.324.181-.642.364-.5.288-.976.584c-.124.076-.255.148-.377.226-.076.048-.146.1-.221.148-.354.228-.7.462-1.041.7-.158.109-.32.215-.474.326q-.733.524-1.425,1.074l-.062.052q-.657.527-1.275,1.08c-.142.127-.277.257-.416.385-.288.265-.571.533-.845.806-.062.061-.129.12-.19.181-.143.146-.279.3-.419.443-.11.117-.223.232-.331.35q-.406.443-.792.9c-.048.056-.1.11-.144.166-.3.362-.591.731-.873,1.1-.082.109-.16.221-.241.331-.2.269-.391.542-.579.818-.094.14-.187.281-.279.422q-.252.386-.491.78c-.089.147-.178.293-.264.441-.162.279-.318.561-.472.846-.071.132-.144.262-.213.394-.217.417-.426.839-.623,1.268-3.4,7.412-3.291,15.872.4,25.517a2.617,2.617,0,0,0,2.332,1.512,2.558,2.558,0,0,0,.976-.184l3.977-1.587a2.6,2.6,0,0,1-3.308-1.329c-3.694-9.646-3.805-18.106-.4-25.517.2-.429.406-.852.623-1.269C145.658,433.045,145.732,432.915,145.8,432.784Z" transform="translate(-138.527 -414.734)" fill="url(#linear-gradient-21)"/>
            <path id="Trazado_213321" data-name="Trazado 213321" d="M189.457,487.869l-2.423-6.04q-3.872-9.7,2.983-20.5,1.818-2.839,2.845-4.744t1.472-2.916a10.276,10.276,0,0,0,.132-8.121q-2.921-7.321-10.553-4.274c-.126.05-.239.107-.362.159q7.524-2.932,10.428,4.319a10.276,10.276,0,0,1-.132,8.121q-.433,1.02-1.472,2.916t-2.844,4.744q-6.851,10.8-2.984,20.5l2.423,6.04a2.349,2.349,0,0,0,3.005,1.231l14.179-5.658c.03-.012.054-.03.083-.043l-13.775,5.5A2.349,2.349,0,0,1,189.457,487.869Z" transform="translate(-151.108 -421.053)" fill="url(#linear-gradient-22)"/>
            <path id="Trazado_213322" data-name="Trazado 213322" d="M147.4,459.758c-3.694-9.645-3.805-18.105-.4-25.516q5.035-10.969,18.459-16.481l-.009,0q-13.817,5.514-18.938,16.682c-3.4,7.411-3.29,15.871.4,25.517a2.6,2.6,0,0,0,3.308,1.329l15.717-6.272c.03-.012.055-.03.084-.043l-15.315,6.111A2.6,2.6,0,0,1,147.4,459.758Z" transform="translate(-140.069 -414.732)" fill="url(#linear-gradient-23)"/>
            <path id="Trazado_213323" data-name="Trazado 213323" d="M196.642,473.188q-2.117-5.3-1.523-8.306t3.895-7.921q6.06-8.567,6.926-12.739,1.841-6.465-1.374-14.521-4.672-11.709-16.535-15.048-10.224-2.915-22.387,1.934-13.422,5.514-18.459,16.481c-3.4,7.411-3.291,15.871.4,25.516a2.6,2.6,0,0,0,3.308,1.329L166.21,453.8a2.633,2.633,0,0,0,1.35-3.341l-.82-2.056q-4.163-10.432,5.835-14.422c.042-.017.083-.029.125-.045.123-.052.236-.109.362-.159q7.626-3.043,10.553,4.274a10.276,10.276,0,0,1-.132,8.121q-.433,1.021-1.472,2.916t-2.845,4.744q-6.85,10.8-2.983,20.5l2.423,6.04a2.349,2.349,0,0,0,3.005,1.231l13.775-5.5A2.362,2.362,0,0,0,196.642,473.188Z" transform="translate(-140.258 -413.558)" fill="url(#linear-gradient-24)"/>
          </g>
        </g>
      </g>
    </g>
    <rect id="Rectángulo_296269" data-name="Rectángulo 296269" width="899.066" height="52.738" rx="13" transform="translate(1402.835 -10599.09)" fill="#dce736"/>
    <g id="Grupo_158156" data-name="Grupo 158156" transform="translate(1396.377 -10180.048)">
      <line id="Línea_569" data-name="Línea 569" x2="898.543" transform="translate(5.925 28.733)" fill="none" stroke="#3e4bbf" stroke-miterlimit="10" stroke-width="2"/>
      <g id="Grupo_114594" data-name="Grupo 114594" transform="translate(449.756 28.733)">
        <line id="Línea_576" data-name="Línea 576" y2="27.27" transform="translate(6.125)" fill="none" stroke="#3e4bbf" stroke-miterlimit="10" stroke-width="2"/>
        <path id="Trazado_158597" data-name="Trazado 158597" d="M0,0H12.251L6.125,7.294Z" transform="translate(0 27.27)" fill="#3d46c2"/>
      </g>
      <g id="Grupo_114604" data-name="Grupo 114604" transform="translate(0 0)">
        <line id="Línea_579" data-name="Línea 579" y1="21.049" transform="translate(7.294 7.294)" fill="none" stroke="#3e4bbf" stroke-miterlimit="10" stroke-width="2"/>
        <path id="Trazado_158597-2" data-name="Trazado 158597" d="M1203.087,140.6H1188.5l7.293-7.294,7.294,7.294Z" transform="translate(-1188.5 -133.31)" fill="#3d46c2"/>
      </g>
      <g id="Grupo_149847" data-name="Grupo 149847" transform="translate(897.175 1.421)">
        <line id="Línea_579-2" data-name="Línea 579" y1="21.049" transform="translate(7.294 7.294)" fill="none" stroke="#3e4bbf" stroke-miterlimit="10" stroke-width="2"/>
        <path id="Trazado_158597-3" data-name="Trazado 158597" d="M1203.087,140.6H1188.5l7.293-7.294,7.294,7.294Z" transform="translate(-1188.5 -133.31)" fill="#3d46c2"/>
      </g>
    </g>
    <g id="Rectángulo_296270" data-name="Rectángulo 296270" transform="translate(1402.835 -10516.216)" fill="none" stroke="#3d46c2" stroke-width="2">
      <rect width="899.066" height="316.431" stroke="none"/>
      <rect x="1" y="1" width="897.066" height="314.431" fill="none"/>
    </g>
    <text id="Empresa_Organización" data-name="Empresa – Organización" transform="translate(1728.056 -10565.278)" fill="#12263f" font-size="22" font-family="Roboto-Bold, Roboto" font-weight="700"><tspan x="0" y="0">Empresa – Organización</tspan></text>
    <text id="Innovación" transform="translate(1797.118 -10484.914)" fill="#12263f" font-size="22" font-family="Roboto-Bold, Roboto" font-weight="700"><tspan x="0" y="0">Innovación</tspan></text>
    <text id="Análisis_de_información" data-name="Análisis de información" transform="translate(1748.147 -10078.075)" fill="#12263f" font-size="22" font-family="Roboto-Bold, Roboto" font-weight="700"><tspan x="0" y="0">Análisis de información</tspan></text>
    <path id="Trazado_213537" data-name="Trazado 213537" d="M3179.736-9847.866H3412.11l31.688,34.66-31.687,31.263H3179.736l29.707-31.263Z" transform="translate(-1185.476 -600.543)" fill="#3d46c2"/>
    <path id="Trazado_213538" data-name="Trazado 213538" d="M3179.736-9847.866H3412.11l31.688,34.66-31.687,31.263H3179.736l29.707-31.263Z" transform="translate(-1459.214 -600.543)" fill="#3d46c2"/>
    <path id="Trazado_213539" data-name="Trazado 213539" d="M3179.736-9847.866H3412.11l31.688,34.66-31.687,31.263H3179.736l29.707-31.263Z" transform="translate(-1734.208 -600.543)" fill="#3d46c2"/>
    <text id="Descubrir" transform="translate(1535.937 -10407.807)" fill="#fcfdea" font-size="19" font-family="Roboto-Bold, Roboto" font-weight="700"><tspan x="0" y="0">Descubrir</tspan></text>
    <text id="Idear" transform="translate(1829.766 -10407.807)" fill="#fcfdea" font-size="19" font-family="Roboto-Bold, Roboto" font-weight="700"><tspan x="0" y="0">Idear</tspan></text>
    <text id="Realizar_Implementar" data-name="Realizar/Implementar" transform="translate(2030.675 -10407.807)" fill="#fcfdea" font-size="19" font-family="Roboto-Bold, Roboto" font-weight="700"><tspan x="0" y="0">Realizar/Implementar</tspan></text>
    <text id="Diagnóstico_empresarial" data-name="Diagnóstico empresarial" transform="translate(1342.563 -10272) rotate(-90)" fill="#12263f" font-size="20" font-family="Roboto-Bold, Roboto" font-weight="700"><tspan x="0" y="21">Diagnóstico empresarial</tspan></text>
    <text id="Valor_agregado" data-name="Valor agregado" transform="translate(2332.038 -10309) rotate(-90)" fill="#12263f" font-size="20" font-family="Roboto-Bold, Roboto" font-weight="700"><tspan x="0" y="21">Valor agregado</tspan></text>
  </g>
</svg>
